G04 #@! TF.FileFunction,Copper,L1,Top,Signal*
%FSLAX46Y46*%
G04 Gerber Fmt 4.6, Leading zero omitted, Abs format (unit mm)*
G04 Created by KiCad (PCBNEW 4.0.4-stable) date Saturday, September 24, 2016 'PMt' 11:11:40 PM*
%MOMM*%
%LPD*%
G01*
G04 APERTURE LIST*
%ADD10C,0.100000*%
%ADD11C,0.800000*%
%ADD12C,1.500000*%
%ADD13R,1.000000X1.250000*%
%ADD14R,1.250000X1.000000*%
%ADD15R,3.000000X3.000000*%
%ADD16R,0.508000X1.143000*%
%ADD17R,4.000000X4.000000*%
%ADD18R,3.600000X3.500000*%
%ADD19R,0.600000X1.550000*%
%ADD20R,1.143000X0.508000*%
%ADD21R,1.950000X0.600000*%
%ADD22R,1.550000X1.300000*%
%ADD23R,0.700000X1.300000*%
%ADD24R,1.350000X0.400000*%
%ADD25R,1.400000X1.600000*%
%ADD26R,1.900000X1.900000*%
%ADD27O,2.000000X1.120000*%
%ADD28R,2.000000X0.600000*%
%ADD29R,3.680000X1.270000*%
%ADD30R,0.400000X1.200000*%
%ADD31C,0.600000*%
%ADD32C,0.250000*%
%ADD33C,0.500000*%
%ADD34C,0.381000*%
%ADD35C,0.400000*%
%ADD36C,0.254000*%
G04 APERTURE END LIST*
D10*
D11*
X176072800Y-104546400D03*
X174802800Y-104546400D03*
X140716000Y-111912400D03*
X141732000Y-111912400D03*
X120396000Y-144881600D03*
X120396000Y-145948400D03*
X107391200Y-149402800D03*
X107391200Y-148386800D03*
X107391200Y-147370800D03*
X132080000Y-149606000D03*
X146304000Y-145542000D03*
X143510000Y-145542000D03*
X143510000Y-144018000D03*
X146304000Y-144018000D03*
X106680000Y-106680000D03*
X107950000Y-106680000D03*
X174802800Y-103378000D03*
X176072800Y-103378000D03*
X175514000Y-114808000D03*
X174244000Y-114808000D03*
X161188400Y-107010200D03*
X160147000Y-108432600D03*
X148844000Y-109982000D03*
X150114000Y-109982000D03*
X116840000Y-135077200D03*
X115976400Y-135940800D03*
X113080800Y-142087600D03*
X114096800Y-142087600D03*
D12*
X144068800Y-113385600D03*
X143408400Y-111506000D03*
D13*
X108728000Y-148793200D03*
X110728000Y-148793200D03*
D12*
X159613600Y-110591600D03*
X158292800Y-103632000D03*
X130403600Y-137871200D03*
X126593600Y-137769600D03*
D14*
X126593600Y-150910800D03*
X126593600Y-148910800D03*
D15*
X109169200Y-109677200D03*
X173075600Y-147726400D03*
D13*
X108982000Y-143103600D03*
X110982000Y-143103600D03*
D14*
X124460000Y-150910800D03*
X124460000Y-148910800D03*
D16*
X134048500Y-111569500D03*
X132778500Y-111569500D03*
X131508500Y-111569500D03*
X130238500Y-111569500D03*
X130238500Y-105219500D03*
X131508500Y-105219500D03*
X132778500Y-105219500D03*
X134048500Y-105219500D03*
D17*
X167576500Y-122428000D03*
D18*
X167576500Y-130178000D03*
X167576500Y-114678000D03*
D19*
X166370000Y-104361000D03*
X165100000Y-104361000D03*
X163830000Y-104361000D03*
X162560000Y-104361000D03*
X162560000Y-109761000D03*
X163830000Y-109761000D03*
X165100000Y-109761000D03*
X166370000Y-109761000D03*
D20*
X151066500Y-119253000D03*
X151066500Y-120523000D03*
X151066500Y-121793000D03*
X151066500Y-123063000D03*
X144716500Y-123063000D03*
X144716500Y-121793000D03*
X144716500Y-120523000D03*
X144716500Y-119253000D03*
D21*
X146684000Y-105029000D03*
X146684000Y-106299000D03*
X146684000Y-107569000D03*
X146684000Y-108839000D03*
X146684000Y-110109000D03*
X146684000Y-111379000D03*
X146684000Y-112649000D03*
X146684000Y-113919000D03*
X146684000Y-115189000D03*
X146684000Y-116459000D03*
X156084000Y-116459000D03*
X156084000Y-115189000D03*
X156084000Y-113919000D03*
X156084000Y-112649000D03*
X156084000Y-111379000D03*
X156084000Y-110109000D03*
X156084000Y-108839000D03*
X156084000Y-107569000D03*
X156084000Y-106299000D03*
X156084000Y-105029000D03*
D22*
X140995500Y-147347500D03*
X140995500Y-142847500D03*
X148945500Y-142847500D03*
X148945500Y-147347500D03*
D23*
X153159500Y-147320000D03*
X151259500Y-147320000D03*
X171257000Y-105664000D03*
X169357000Y-105664000D03*
X171257000Y-107886500D03*
X169357000Y-107886500D03*
X107825500Y-137985500D03*
X109725500Y-137985500D03*
X108905000Y-144907000D03*
X110805000Y-144907000D03*
D16*
X125222000Y-109982000D03*
X123952000Y-109982000D03*
X122682000Y-109982000D03*
X121412000Y-109982000D03*
X121412000Y-103632000D03*
X122682000Y-103632000D03*
X123952000Y-103632000D03*
X125222000Y-103632000D03*
D23*
X108905000Y-146939000D03*
X110805000Y-146939000D03*
D24*
X105799000Y-147350000D03*
X105799000Y-146700000D03*
X105799000Y-144750000D03*
X105799000Y-145400000D03*
D25*
X105574000Y-142850000D03*
D26*
X103124000Y-144850000D03*
D27*
X103324000Y-142795000D03*
X103324000Y-149305000D03*
D26*
X103124000Y-147250000D03*
D25*
X105574000Y-149250000D03*
D24*
X105799000Y-146050000D03*
D23*
X171257000Y-110172500D03*
X169357000Y-110172500D03*
D12*
X124968000Y-113538000D03*
X104902000Y-108712000D03*
X120142000Y-111760000D03*
X115316000Y-120142000D03*
X104902000Y-140208000D03*
X175768000Y-108204000D03*
D28*
X113666000Y-135763000D03*
X113666000Y-134493000D03*
X113666000Y-133223000D03*
X113666000Y-131953000D03*
X113666000Y-130683000D03*
X113666000Y-129413000D03*
X113666000Y-128143000D03*
X113666000Y-126873000D03*
X113666000Y-125603000D03*
X113666000Y-124333000D03*
X113666000Y-123063000D03*
X113666000Y-121793000D03*
X104266000Y-121793000D03*
X104266000Y-123063000D03*
X104266000Y-124333000D03*
X104266000Y-125603000D03*
X104266000Y-126873000D03*
X104266000Y-128143000D03*
X104266000Y-129413000D03*
X104266000Y-130683000D03*
X104266000Y-131953000D03*
X104266000Y-133223000D03*
X104266000Y-134493000D03*
X104266000Y-135763000D03*
D29*
X142174000Y-104546400D03*
X142174000Y-107086400D03*
X142174000Y-109626400D03*
X137734000Y-109626400D03*
X137734000Y-107086400D03*
X137734000Y-104546400D03*
D30*
X112903000Y-148586500D03*
X113538000Y-148586500D03*
X114173000Y-148586500D03*
X114808000Y-148586500D03*
X115443000Y-148586500D03*
X116078000Y-148586500D03*
X116713000Y-148586500D03*
X117348000Y-148586500D03*
X117348000Y-143386500D03*
X116713000Y-143386500D03*
X116078000Y-143386500D03*
X115443000Y-143386500D03*
X114808000Y-143386500D03*
X114173000Y-143386500D03*
X113538000Y-143386500D03*
X112903000Y-143386500D03*
D13*
X113937800Y-150317200D03*
X111937800Y-150317200D03*
X111776000Y-137795000D03*
X113776000Y-137795000D03*
X164093400Y-111760000D03*
X162093400Y-111760000D03*
X169307000Y-103441500D03*
X171307000Y-103441500D03*
D14*
X159410400Y-104994200D03*
X159410400Y-106994200D03*
X117297200Y-141563600D03*
X117297200Y-139563600D03*
D11*
X121099865Y-149090665D03*
X119151698Y-147142498D03*
D31*
X116789200Y-150164800D03*
X153111200Y-102463598D03*
X120142000Y-102870000D03*
X127254000Y-103645502D03*
X144678400Y-107594400D03*
X115062000Y-150215600D03*
X118678949Y-150733749D03*
X130937000Y-110363000D03*
X144729200Y-106324400D03*
X130937000Y-109474000D03*
X144907000Y-124586994D03*
X144907000Y-132207000D03*
X144907000Y-139827000D03*
X156464000Y-132207000D03*
X156337000Y-139954000D03*
X158877000Y-118618000D03*
X156337000Y-124714006D03*
X106934000Y-132842000D03*
X106934000Y-131953000D03*
X106934000Y-131064000D03*
X106934000Y-130175000D03*
X106934000Y-129159000D03*
X106934000Y-128270000D03*
X106934000Y-125476000D03*
X106963449Y-124489449D03*
X106933996Y-121666000D03*
X106934000Y-118109992D03*
X106934000Y-117094000D03*
X106934000Y-116078000D03*
X159512000Y-129286000D03*
X165099994Y-132588000D03*
X165227000Y-139827000D03*
X136017000Y-116967000D03*
X136017000Y-124460004D03*
X136017004Y-132334000D03*
X136017000Y-139953998D03*
X114554000Y-139699990D03*
X119824500Y-132080000D03*
X119824500Y-124460000D03*
X119824500Y-116840000D03*
X123340018Y-139031411D03*
X123317000Y-132207002D03*
X123238480Y-124486481D03*
X156278664Y-103784400D03*
X134620000Y-107188000D03*
X158115000Y-106045000D03*
X160782000Y-102717600D03*
X151701500Y-104395032D03*
X163068000Y-102920800D03*
X151003000Y-106045000D03*
X157683200Y-108585000D03*
X144780000Y-108559600D03*
X127762000Y-109728000D03*
X148717000Y-111887000D03*
X148463000Y-113030000D03*
X128778000Y-108712000D03*
X156181500Y-117484990D03*
X116586000Y-119126000D03*
X139338735Y-115423265D03*
X148717000Y-114427000D03*
D32*
X147726400Y-127609600D02*
X147726400Y-137932602D01*
X147726400Y-137932602D02*
X145080003Y-140578999D01*
X145080003Y-140578999D02*
X135716999Y-140578999D01*
X135716999Y-140578999D02*
X132740400Y-137602400D01*
X132740400Y-137602400D02*
X132740400Y-115469810D01*
D33*
X156084000Y-105029000D02*
X159375600Y-105029000D01*
X159375600Y-105029000D02*
X159410400Y-104994200D01*
X160528000Y-105045000D02*
X159461200Y-105045000D01*
X159461200Y-105045000D02*
X159410400Y-104994200D01*
X156100000Y-105045000D02*
X156084000Y-105029000D01*
X161947599Y-105526501D02*
X161009501Y-105526501D01*
X161009501Y-105526501D02*
X160528000Y-105045000D01*
D34*
X122037499Y-104594001D02*
X105483001Y-104594001D01*
X105483001Y-104594001D02*
X102412800Y-107664202D01*
X102412800Y-107664202D02*
X102412800Y-137845800D01*
X102412800Y-137845800D02*
X103568500Y-139001500D01*
X103568500Y-139001500D02*
X105410000Y-139001500D01*
X155130500Y-151091001D02*
X174892599Y-151091001D01*
X174892599Y-151091001D02*
X176580800Y-149402800D01*
X176580800Y-149402800D02*
X176580800Y-111175800D01*
X176580800Y-111175800D02*
X175577500Y-110172500D01*
D33*
X135125098Y-104902000D02*
X135125098Y-105457898D01*
X135125098Y-105457898D02*
X135668599Y-106001399D01*
X135668599Y-106001399D02*
X139385813Y-106001399D01*
X139385813Y-106001399D02*
X139835823Y-105551389D01*
X139835823Y-105551389D02*
X141169011Y-105551389D01*
X141169011Y-105551389D02*
X142174000Y-104546400D01*
X139575500Y-114429500D02*
X136144000Y-110998000D01*
X136144000Y-110998000D02*
X135763000Y-110998000D01*
X139575500Y-114683500D02*
X139575500Y-114429500D01*
D34*
X144716500Y-119253000D02*
X144145000Y-119253000D01*
X144145000Y-119253000D02*
X139575500Y-114683500D01*
X135763000Y-110998000D02*
X133604000Y-108839000D01*
X133604000Y-108839000D02*
X133604000Y-106807000D01*
X108267500Y-141859000D02*
X109746000Y-141859000D01*
X109746000Y-141859000D02*
X110482600Y-141122400D01*
X110482600Y-141122400D02*
X114706400Y-141122400D01*
X114706400Y-141122400D02*
X115443000Y-141859000D01*
D33*
X117297200Y-141513600D02*
X118082100Y-141513600D01*
X118082100Y-141513600D02*
X118394589Y-141826089D01*
D34*
X118394589Y-141826089D02*
X119126000Y-142557500D01*
X115475911Y-141826089D02*
X118394589Y-141826089D01*
X115443000Y-141859000D02*
X115475911Y-141826089D01*
D33*
X121499864Y-149490664D02*
X121099865Y-149090665D01*
X123494800Y-151091001D02*
X123100201Y-151091001D01*
X123100201Y-151091001D02*
X121499864Y-149490664D01*
X130580501Y-151091001D02*
X127711200Y-151091001D01*
X127711200Y-151091001D02*
X123494800Y-151091001D01*
X126542800Y-151064000D02*
X127692800Y-151064000D01*
X127692800Y-151064000D02*
X127711200Y-151082400D01*
X127711200Y-151082400D02*
X127711200Y-151091001D01*
X124460000Y-150910800D02*
X123675001Y-150910800D01*
X123675001Y-150910800D02*
X123494800Y-151091001D01*
X119151698Y-147142498D02*
X119151698Y-142583198D01*
X119151698Y-142583198D02*
X119126000Y-142557500D01*
X107569000Y-143165002D02*
X107569000Y-142557500D01*
X107569000Y-142557500D02*
X108267500Y-141859000D01*
D35*
X105799000Y-144750000D02*
X105984002Y-144750000D01*
X105984002Y-144750000D02*
X107569000Y-143165002D01*
D34*
X111252000Y-139192000D02*
X111826000Y-138618000D01*
X111826000Y-138618000D02*
X111826000Y-138049000D01*
X107329098Y-139192000D02*
X111252000Y-139192000D01*
X105410000Y-135826500D02*
X105981500Y-136398000D01*
X105981500Y-136398000D02*
X106172000Y-136398000D01*
X106426000Y-138288902D02*
X107329098Y-139192000D01*
X106172000Y-136398000D02*
X106426000Y-136652000D01*
X106426000Y-136652000D02*
X106426000Y-138288902D01*
X175768000Y-108204000D02*
X175768000Y-109264660D01*
X175768000Y-109264660D02*
X175577500Y-109455160D01*
X175577500Y-109455160D02*
X175577500Y-110172500D01*
X133929498Y-106481502D02*
X133604000Y-106807000D01*
X134048500Y-105219500D02*
X133929498Y-105338502D01*
X133929498Y-105338502D02*
X133929498Y-106481502D01*
X134048500Y-105219500D02*
X134366000Y-104902000D01*
X134366000Y-104902000D02*
X135125098Y-104902000D01*
X135125098Y-104902000D02*
X135134599Y-104911501D01*
X131508500Y-105219500D02*
X131508500Y-106362500D01*
X131508500Y-106362500D02*
X131699000Y-106553000D01*
X131699000Y-106553000D02*
X131699000Y-106807000D01*
X105410000Y-139001500D02*
X105664000Y-139255500D01*
X105664000Y-139255500D02*
X108267500Y-141859000D01*
X104902000Y-140208000D02*
X105651999Y-139458001D01*
X105651999Y-139458001D02*
X105651999Y-139267501D01*
X105651999Y-139267501D02*
X105664000Y-139255500D01*
X105410000Y-135826500D02*
X104329500Y-135826500D01*
X104329500Y-135826500D02*
X104266000Y-135763000D01*
X171232499Y-106845999D02*
X171257000Y-106870500D01*
X163791461Y-105526501D02*
X165110959Y-106845999D01*
X165110959Y-106845999D02*
X171232499Y-106845999D01*
X161947599Y-105526501D02*
X163791461Y-105526501D01*
X131699000Y-106807000D02*
X129540000Y-106807000D01*
X127327001Y-104594001D02*
X125212499Y-104594001D01*
X129540000Y-106807000D02*
X127327001Y-104594001D01*
X133604000Y-106807000D02*
X131699000Y-106807000D01*
X134048500Y-105219500D02*
X134048500Y-105669942D01*
X144716500Y-119253000D02*
X144399000Y-119253000D01*
X144399000Y-119253000D02*
X143754499Y-119897501D01*
X143754499Y-119897501D02*
X143754499Y-121148499D01*
X143754499Y-121148499D02*
X144399000Y-121793000D01*
X144399000Y-121793000D02*
X144716500Y-121793000D01*
X145034000Y-119253000D02*
X144716500Y-119253000D01*
X125222000Y-103632000D02*
X125222000Y-104584500D01*
X125222000Y-104584500D02*
X125212499Y-104594001D01*
X125212499Y-104594001D02*
X122037499Y-104594001D01*
X122682000Y-103632000D02*
X122682000Y-103949500D01*
X122682000Y-103949500D02*
X122037499Y-104594001D01*
X153159500Y-147320000D02*
X153890500Y-147320000D01*
X153890500Y-147320000D02*
X155130500Y-148560000D01*
X171257000Y-106870500D02*
X171257000Y-107886500D01*
X171257000Y-110172500D02*
X171257000Y-107886500D01*
X169357000Y-103441500D02*
X169357000Y-103764000D01*
X169357000Y-103764000D02*
X171257000Y-105664000D01*
X169357000Y-103441500D02*
X168626000Y-103441500D01*
X105410000Y-135826500D02*
X105410000Y-139001500D01*
X115443000Y-143386500D02*
X115443000Y-141859000D01*
X175577500Y-110172500D02*
X171257000Y-110172500D01*
X171257000Y-105664000D02*
X171257000Y-106870500D01*
X165100000Y-103187500D02*
X165100000Y-104361000D01*
X168626000Y-103441500D02*
X167864000Y-102679500D01*
X167864000Y-102679500D02*
X165608000Y-102679500D01*
X165608000Y-102679500D02*
X165100000Y-103187500D01*
X130492500Y-151003000D02*
X130580501Y-151091001D01*
X130580501Y-151091001D02*
X155130500Y-151091001D01*
X155130500Y-148560000D02*
X155130500Y-151091001D01*
D32*
X141732000Y-111912400D02*
X141732000Y-110068400D01*
X141732000Y-110068400D02*
X142174000Y-109626400D01*
X142174000Y-109626400D02*
X142174000Y-110708400D01*
X110982000Y-143103600D02*
X111353600Y-143103600D01*
X111353600Y-143103600D02*
X112369600Y-142087600D01*
X112369600Y-142087600D02*
X113080800Y-142087600D01*
X110982000Y-143103600D02*
X110982000Y-143068800D01*
X114096800Y-142087600D02*
X113080800Y-142087600D01*
X114808000Y-143386500D02*
X114808000Y-142233115D01*
X114808000Y-142233115D02*
X114662485Y-142087600D01*
X114662485Y-142087600D02*
X114096800Y-142087600D01*
X116364936Y-150164800D02*
X116789200Y-150164800D01*
X116171300Y-150164800D02*
X116364936Y-150164800D01*
X115443000Y-149436500D02*
X116171300Y-150164800D01*
X115443000Y-148586500D02*
X115443000Y-149436500D01*
X106476800Y-147269200D02*
X107442000Y-147269200D01*
X105799000Y-147350000D02*
X106396000Y-147350000D01*
X106396000Y-147350000D02*
X106476800Y-147269200D01*
X105799000Y-147350000D02*
X106343000Y-147350000D01*
X105799000Y-147350000D02*
X106274000Y-147350000D01*
X162560000Y-111379000D02*
X162369500Y-111569500D01*
X162560000Y-109761000D02*
X162560000Y-111379000D01*
X153411199Y-102763597D02*
X153111200Y-102463598D01*
X155409000Y-107569000D02*
X154241503Y-106401503D01*
X156084000Y-107569000D02*
X155409000Y-107569000D01*
X154241503Y-103593901D02*
X153411199Y-102763597D01*
X154241503Y-106401503D02*
X154241503Y-103593901D01*
X127553999Y-103945501D02*
X127254000Y-103645502D01*
X129724499Y-106116001D02*
X127553999Y-103945501D01*
X133292501Y-106116001D02*
X132264499Y-106116001D01*
X135005644Y-103908044D02*
X133949454Y-103908044D01*
X130752501Y-106116001D02*
X129724499Y-106116001D01*
X130994499Y-104322999D02*
X130817501Y-104499997D01*
X130817501Y-106051001D02*
X130752501Y-106116001D01*
X130817501Y-104499997D02*
X130817501Y-106051001D01*
X133357501Y-106051001D02*
X133292501Y-106116001D01*
X132087501Y-104387999D02*
X132022501Y-104322999D01*
X132087501Y-105939003D02*
X132087501Y-104387999D01*
X132264499Y-106116001D02*
X132087501Y-105939003D01*
X133357501Y-104499997D02*
X133357501Y-106051001D01*
X133949454Y-103908044D02*
X133357501Y-104499997D01*
X135644000Y-104546400D02*
X135005644Y-103908044D01*
X137734000Y-104546400D02*
X135644000Y-104546400D01*
X132022501Y-104322999D02*
X130994499Y-104322999D01*
X120142000Y-102870000D02*
X120904000Y-102870000D01*
X120904000Y-102870000D02*
X121412000Y-103378000D01*
X121412000Y-103378000D02*
X121412000Y-103632000D01*
X124708489Y-102558011D02*
X152128207Y-102558011D01*
X153791492Y-104221296D02*
X153791492Y-108491492D01*
X155409000Y-110109000D02*
X156084000Y-110109000D01*
X123952000Y-103632000D02*
X123952000Y-103314500D01*
X123952000Y-103314500D02*
X124708489Y-102558011D01*
X152128207Y-102558011D02*
X153791492Y-104221296D01*
X153791492Y-108491492D02*
X155409000Y-110109000D01*
X144653000Y-107569000D02*
X144678400Y-107594400D01*
X146684000Y-107569000D02*
X144653000Y-107569000D01*
X128847011Y-111550487D02*
X128847011Y-137871200D01*
X128847011Y-137871200D02*
X128847011Y-140318199D01*
X129342940Y-137871200D02*
X128847011Y-137871200D01*
X130403600Y-137871200D02*
X129342940Y-137871200D01*
X114808000Y-148586500D02*
X114808000Y-149961600D01*
X114808000Y-149961600D02*
X115062000Y-150215600D01*
X118978948Y-150186262D02*
X118978948Y-150433750D01*
X128847011Y-140318199D02*
X118978948Y-150186262D01*
X130034498Y-110363000D02*
X128847011Y-111550487D01*
X130937000Y-110363000D02*
X130034498Y-110363000D01*
X118978948Y-150433750D02*
X118678949Y-150733749D01*
X144754600Y-106299000D02*
X144729200Y-106324400D01*
X146684000Y-106299000D02*
X144754600Y-106299000D01*
X128397000Y-140131800D02*
X128397000Y-137769600D01*
X128397000Y-137769600D02*
X128397000Y-110998000D01*
X127654260Y-137769600D02*
X128397000Y-137769600D01*
X126593600Y-137769600D02*
X127654260Y-137769600D01*
X112903000Y-148586500D02*
X112903000Y-151205002D01*
X112903000Y-151205002D02*
X113046599Y-151348601D01*
X113046599Y-151348601D02*
X117180199Y-151348601D01*
X129921000Y-109474000D02*
X130512736Y-109474000D01*
X117180199Y-151348601D02*
X128397000Y-140131800D01*
X128397000Y-110998000D02*
X129921000Y-109474000D01*
X130512736Y-109474000D02*
X130937000Y-109474000D01*
X131628478Y-103008022D02*
X151941807Y-103008022D01*
X153341481Y-109311481D02*
X155409000Y-111379000D01*
X130238500Y-104398000D02*
X131628478Y-103008022D01*
X151941807Y-103008022D02*
X153341481Y-104407696D01*
X155409000Y-111379000D02*
X156084000Y-111379000D01*
X130238500Y-105219500D02*
X130238500Y-104398000D01*
X153341481Y-104407696D02*
X153341481Y-109311481D01*
X151755407Y-103458033D02*
X152891470Y-104594096D01*
X132778500Y-105219500D02*
X132778500Y-104398000D01*
X152891470Y-110131470D02*
X155409000Y-112649000D01*
X152891470Y-104594096D02*
X152891470Y-110131470D01*
X133718467Y-103458033D02*
X151755407Y-103458033D01*
X155409000Y-112649000D02*
X156084000Y-112649000D01*
X132778500Y-104398000D02*
X133718467Y-103458033D01*
X144716500Y-120523000D02*
X147447000Y-120523000D01*
X154051000Y-113919000D02*
X156084000Y-113919000D01*
X147447000Y-120523000D02*
X154051000Y-113919000D01*
X144716500Y-123063000D02*
X145845998Y-123063000D01*
X145845998Y-123063000D02*
X153592998Y-115316000D01*
X153592998Y-115316000D02*
X155956000Y-115316000D01*
X155956000Y-115316000D02*
X156083000Y-115189000D01*
X156083000Y-115189000D02*
X156084000Y-115189000D01*
X135572500Y-112589500D02*
X135572500Y-114084100D01*
X135572500Y-114084100D02*
X143129000Y-121640600D01*
X143129000Y-121640600D02*
X143129000Y-122809000D01*
X143129000Y-122809000D02*
X144606995Y-124286995D01*
X144606995Y-124286995D02*
X144607001Y-124286995D01*
X144607001Y-124286995D02*
X144907000Y-124586994D01*
X144907000Y-132207000D02*
X144907000Y-124586994D01*
X144907000Y-139827000D02*
X144907000Y-132207000D01*
X134552500Y-111569500D02*
X135572500Y-112589500D01*
X133100000Y-112712500D02*
X135449500Y-112712500D01*
X135449500Y-112712500D02*
X135572500Y-112589500D01*
X132778500Y-111569500D02*
X132778500Y-112391000D01*
X132778500Y-112391000D02*
X133100000Y-112712500D01*
X134048500Y-111569500D02*
X134552500Y-111569500D01*
X158877000Y-118618000D02*
X157480000Y-118618000D01*
X157480000Y-118618000D02*
X156337000Y-119761000D01*
X156337000Y-119761000D02*
X156337000Y-124714006D01*
X151066500Y-119253000D02*
X150749000Y-119253000D01*
X150749000Y-119253000D02*
X150169999Y-119832001D01*
X150169999Y-119832001D02*
X150169999Y-121102001D01*
X151066500Y-120523000D02*
X150749000Y-120523000D01*
X150749000Y-120523000D02*
X150169999Y-121102001D01*
X150169999Y-121102001D02*
X150169999Y-123577001D01*
X150169999Y-123577001D02*
X151307004Y-124714006D01*
X151307004Y-124714006D02*
X156337000Y-124714006D01*
X156337000Y-139954000D02*
X156337000Y-132334000D01*
X156464000Y-124841006D02*
X156337000Y-124714006D01*
X156464000Y-132207000D02*
X156464000Y-124841006D01*
X156337000Y-132334000D02*
X156464000Y-132207000D01*
X109093000Y-130683000D02*
X107233999Y-132542001D01*
X113666000Y-130683000D02*
X109093000Y-130683000D01*
X107233999Y-132542001D02*
X106934000Y-132842000D01*
X107233999Y-131653001D02*
X106934000Y-131953000D01*
X109474000Y-129413000D02*
X107233999Y-131653001D01*
X113666000Y-129413000D02*
X109474000Y-129413000D01*
X107233999Y-130764001D02*
X106934000Y-131064000D01*
X109855000Y-128143000D02*
X107233999Y-130764001D01*
X113666000Y-128143000D02*
X109855000Y-128143000D01*
X107233999Y-129875001D02*
X106934000Y-130175000D01*
X110236000Y-126873000D02*
X107233999Y-129875001D01*
X113666000Y-126873000D02*
X110236000Y-126873000D01*
X109940000Y-126153000D02*
X107233999Y-128859001D01*
X107233999Y-128859001D02*
X106934000Y-129159000D01*
X112966000Y-125603000D02*
X112416000Y-126153000D01*
X113666000Y-125603000D02*
X112966000Y-125603000D01*
X112416000Y-126153000D02*
X109940000Y-126153000D01*
X112966000Y-124333000D02*
X112416000Y-124883000D01*
X107233999Y-127970001D02*
X106934000Y-128270000D01*
X110321000Y-124883000D02*
X107233999Y-127970001D01*
X112416000Y-124883000D02*
X110321000Y-124883000D01*
X113666000Y-124333000D02*
X112966000Y-124333000D01*
X109347000Y-123063000D02*
X107233999Y-125176001D01*
X113666000Y-123063000D02*
X109347000Y-123063000D01*
X107233999Y-125176001D02*
X106934000Y-125476000D01*
X107498789Y-124189450D02*
X107263448Y-124189450D01*
X109895239Y-121793000D02*
X107498789Y-124189450D01*
X113666000Y-121793000D02*
X109895239Y-121793000D01*
X107263448Y-124189450D02*
X106963449Y-124489449D01*
X106806996Y-121793000D02*
X106933996Y-121666000D01*
X104266000Y-121793000D02*
X106806996Y-121793000D01*
X106934000Y-120613996D02*
X106934000Y-118534256D01*
X107686002Y-122093004D02*
X107686002Y-121365998D01*
X107686002Y-121365998D02*
X106934000Y-120613996D01*
X107361002Y-122418004D02*
X107686002Y-122093004D01*
X106934000Y-118534256D02*
X106934000Y-118109992D01*
X106160996Y-122418004D02*
X107361002Y-122418004D01*
X104266000Y-123063000D02*
X105516000Y-123063000D01*
X105516000Y-123063000D02*
X106160996Y-122418004D01*
X104266000Y-124333000D02*
X104966000Y-124333000D01*
X104966000Y-124333000D02*
X106430985Y-122868015D01*
X106430985Y-122868015D02*
X107547402Y-122868015D01*
X107547402Y-122868015D02*
X108136013Y-122279404D01*
X107233999Y-117393999D02*
X106934000Y-117094000D01*
X108136013Y-122279404D02*
X108136013Y-121179598D01*
X108136013Y-121179598D02*
X107569000Y-120612585D01*
X107569000Y-120612585D02*
X107569000Y-117729000D01*
X107569000Y-117729000D02*
X107233999Y-117393999D01*
X104966000Y-125603000D02*
X107250974Y-123318026D01*
X108586024Y-117730024D02*
X107233999Y-116377999D01*
X104266000Y-125603000D02*
X104966000Y-125603000D01*
X107250974Y-123318026D02*
X107733802Y-123318026D01*
X107733802Y-123318026D02*
X108586024Y-122465804D01*
X108586024Y-122465804D02*
X108586024Y-117730024D01*
X107233999Y-116377999D02*
X106934000Y-116078000D01*
X159512000Y-118110000D02*
X159512000Y-129286000D01*
X159258000Y-117856000D02*
X159512000Y-118110000D01*
X157605589Y-117856000D02*
X159258000Y-117856000D01*
X157097589Y-118364000D02*
X157605589Y-117856000D01*
X152400000Y-119634000D02*
X153670000Y-118364000D01*
X153670000Y-118364000D02*
X157097589Y-118364000D01*
X152400000Y-122555000D02*
X152400000Y-119634000D01*
X151066500Y-123063000D02*
X152019000Y-123063000D01*
X152019000Y-123063000D02*
X152400000Y-122682000D01*
X152400000Y-122682000D02*
X152400000Y-122555000D01*
X151066500Y-121793000D02*
X152273000Y-121793000D01*
X152273000Y-121793000D02*
X152400000Y-121920000D01*
X152400000Y-121920000D02*
X152400000Y-122555000D01*
X165227000Y-132715006D02*
X165099994Y-132588000D01*
X165227000Y-139827000D02*
X165227000Y-132715006D01*
X136017000Y-124459996D02*
X136017000Y-116967000D01*
X131508500Y-113601500D02*
X134874000Y-116967000D01*
X134874000Y-116967000D02*
X136017000Y-116967000D01*
X136017004Y-124460000D02*
X136017000Y-124459996D01*
X136017004Y-132334000D02*
X136017004Y-124460000D01*
X136017004Y-124460000D02*
X136017000Y-124460004D01*
X136017000Y-132334004D02*
X136017004Y-132334000D01*
X136017000Y-139953998D02*
X136017000Y-132334004D01*
X131508500Y-113601500D02*
X131508500Y-111569500D01*
X130238500Y-111569500D02*
X130238500Y-112391000D01*
X130238500Y-112391000D02*
X131449000Y-113601500D01*
X131449000Y-113601500D02*
X131508500Y-113601500D01*
X119824500Y-132080000D02*
X119824500Y-134429500D01*
X119824500Y-134429500D02*
X114978274Y-139275726D01*
X114978274Y-139275726D02*
X114554000Y-139275726D01*
X114554000Y-139275726D02*
X114554000Y-139699990D01*
X119824500Y-132080000D02*
X119824500Y-124460000D01*
X119824500Y-124460000D02*
X119824500Y-116840000D01*
X122682000Y-109982000D02*
X122682000Y-110744000D01*
X122682000Y-110744000D02*
X121983500Y-111442500D01*
X119824500Y-116840000D02*
X119824500Y-113792000D01*
X121412000Y-110871000D02*
X121412000Y-109982000D01*
X121983500Y-111442500D02*
X121412000Y-110871000D01*
X121983500Y-111633000D02*
X121983500Y-111442500D01*
X119824500Y-113792000D02*
X121983500Y-111633000D01*
X123317000Y-132207002D02*
X123317000Y-139008393D01*
X123317000Y-139008393D02*
X123340018Y-139031411D01*
X123317000Y-124460000D02*
X123317000Y-132207002D01*
X124618750Y-111029750D02*
X123317000Y-112331500D01*
X123317000Y-112331500D02*
X123317000Y-124460000D01*
X123264961Y-124460000D02*
X123238480Y-124486481D01*
X123317000Y-124460000D02*
X123264961Y-124460000D01*
X125222000Y-109982000D02*
X125222000Y-110426500D01*
X125222000Y-110426500D02*
X124618750Y-111029750D01*
X124618750Y-111029750D02*
X123952000Y-110363000D01*
X123952000Y-110363000D02*
X123952000Y-109982000D01*
X103124000Y-144850000D02*
X103124000Y-142795000D01*
X105574000Y-142850000D02*
X103179000Y-142850000D01*
X103179000Y-142850000D02*
X103124000Y-142795000D01*
X103124000Y-144850000D02*
X103124000Y-147250000D01*
X103124000Y-147250000D02*
X103124000Y-149305000D01*
X105574000Y-149250000D02*
X103179000Y-149250000D01*
X103179000Y-149250000D02*
X103124000Y-149305000D01*
D33*
X164093400Y-111760000D02*
X164093400Y-111244900D01*
X164093400Y-111244900D02*
X163830000Y-110981500D01*
D34*
X167576500Y-130178000D02*
X167516000Y-130178000D01*
X167516000Y-130178000D02*
X163830000Y-126492000D01*
X163830000Y-126492000D02*
X163830000Y-118364000D01*
X163830000Y-118364000D02*
X167516000Y-114678000D01*
X167516000Y-114678000D02*
X167576500Y-114678000D01*
X168318180Y-130919680D02*
X167576500Y-130178000D01*
X163830000Y-109761000D02*
X163830000Y-110981500D01*
X163830000Y-110981500D02*
X167526500Y-114678000D01*
X167526500Y-114678000D02*
X167576500Y-114678000D01*
D32*
X157632400Y-106299000D02*
X158308201Y-106974801D01*
X158308201Y-106974801D02*
X158308201Y-108378003D01*
X162312202Y-107696000D02*
X164780000Y-107696000D01*
X158308201Y-108378003D02*
X159446797Y-109516599D01*
X159446797Y-109516599D02*
X161120401Y-109516599D01*
X161120401Y-109516599D02*
X161398790Y-109238210D01*
X161398790Y-109238210D02*
X161398790Y-108609412D01*
X161398790Y-108609412D02*
X162312202Y-107696000D01*
X164780000Y-107696000D02*
X166370000Y-109286000D01*
X166370000Y-109286000D02*
X166370000Y-109761000D01*
X156084000Y-106299000D02*
X157632400Y-106299000D01*
X157632400Y-106299000D02*
X157861000Y-106299000D01*
X137734000Y-107086400D02*
X134721600Y-107086400D01*
X134721600Y-107086400D02*
X134620000Y-107188000D01*
X156278664Y-103784400D02*
X158140400Y-103784400D01*
X158140400Y-103784400D02*
X158292800Y-103632000D01*
X134620000Y-107003000D02*
X134620000Y-107188000D01*
X157861000Y-106299000D02*
X158115000Y-106045000D01*
X169357000Y-110172500D02*
X166781500Y-110172500D01*
X166781500Y-110172500D02*
X166370000Y-109761000D01*
X162010000Y-104361000D02*
X160782000Y-103133000D01*
X162560000Y-104361000D02*
X162010000Y-104361000D01*
X160782000Y-103133000D02*
X160782000Y-102717600D01*
X144345443Y-105465999D02*
X144314403Y-105465999D01*
X144314403Y-105465999D02*
X143654003Y-106126399D01*
X139899001Y-106301397D02*
X139899001Y-108666399D01*
X143654003Y-106126399D02*
X140073999Y-106126399D01*
X140073999Y-106126399D02*
X139899001Y-106301397D01*
X139899001Y-108666399D02*
X138939000Y-109626400D01*
X138939000Y-109626400D02*
X137734000Y-109626400D01*
X144345443Y-105465999D02*
X144782442Y-105029000D01*
X144782442Y-105029000D02*
X146684000Y-105029000D01*
X146684000Y-105029000D02*
X151067532Y-105029000D01*
X154930001Y-113274001D02*
X151701500Y-110045500D01*
X151701500Y-110045500D02*
X151701500Y-104395032D01*
X157299003Y-113274001D02*
X154930001Y-113274001D01*
X151067532Y-105029000D02*
X151701500Y-104395032D01*
X157734000Y-115570000D02*
X157734000Y-113708998D01*
X156205002Y-143006998D02*
X159004000Y-140208000D01*
X150659500Y-146420000D02*
X150659500Y-143604498D01*
X160274000Y-129540000D02*
X160274000Y-118110000D01*
X150659500Y-143604498D02*
X151257000Y-143006998D01*
X159004000Y-140208000D02*
X159004000Y-130810000D01*
X159004000Y-130810000D02*
X160274000Y-129540000D01*
X151257000Y-143006998D02*
X156205002Y-143006998D01*
X151259500Y-147320000D02*
X151259500Y-147020000D01*
X157734000Y-113708998D02*
X157299003Y-113274001D01*
X151259500Y-147020000D02*
X150659500Y-146420000D01*
X160274000Y-118110000D02*
X157734000Y-115570000D01*
X140995500Y-147347500D02*
X148945500Y-147347500D01*
X151259500Y-147320000D02*
X148973000Y-147320000D01*
X148973000Y-147320000D02*
X148945500Y-147347500D01*
X163830000Y-104361000D02*
X163830000Y-103886000D01*
X163068000Y-103124000D02*
X163068000Y-102920800D01*
X163830000Y-103886000D02*
X163068000Y-103124000D01*
X169357000Y-105664000D02*
X164658000Y-105664000D01*
X164658000Y-105664000D02*
X163830000Y-104836000D01*
X163830000Y-104836000D02*
X163830000Y-104361000D01*
X146684000Y-108839000D02*
X148209000Y-108839000D01*
X148209000Y-108839000D02*
X151003000Y-106045000D01*
X159613600Y-110591600D02*
X161417000Y-110591600D01*
X165100000Y-109286000D02*
X165100000Y-109761000D01*
X161417000Y-110591600D02*
X161848800Y-110159800D01*
X162136998Y-108524000D02*
X164338000Y-108524000D01*
X161848800Y-110159800D02*
X161848800Y-108812198D01*
X161848800Y-108812198D02*
X162136998Y-108524000D01*
X164338000Y-108524000D02*
X165100000Y-109286000D01*
X157429200Y-108839000D02*
X157683200Y-108585000D01*
X156084000Y-108839000D02*
X157429200Y-108839000D01*
X159613600Y-110591600D02*
X157683200Y-108661200D01*
X157683200Y-108661200D02*
X157683200Y-108585000D01*
X144780000Y-108559600D02*
X142762200Y-108559600D01*
X142762200Y-108559600D02*
X142174000Y-107971400D01*
X142174000Y-107971400D02*
X142174000Y-107086400D01*
X165100000Y-109761000D02*
X165100000Y-110617000D01*
X165735000Y-111252000D02*
X169862500Y-111252000D01*
X165100000Y-110617000D02*
X165735000Y-111252000D01*
X169862500Y-111252000D02*
X170032001Y-111082501D01*
X170032001Y-111082501D02*
X170032001Y-108861501D01*
X169357000Y-108186500D02*
X169357000Y-107886500D01*
X170032001Y-108861501D02*
X169357000Y-108186500D01*
X113030000Y-134556500D02*
X114620322Y-134556500D01*
X114620322Y-134556500D02*
X117856000Y-131320822D01*
X117856000Y-131320822D02*
X117856000Y-111633000D01*
X117856000Y-111633000D02*
X118745000Y-110744000D01*
X118745000Y-110744000D02*
X118745000Y-109855000D01*
X120142000Y-111760000D02*
X119392001Y-111010001D01*
X119392001Y-111010001D02*
X119011001Y-111010001D01*
X119011001Y-111010001D02*
X118745000Y-110744000D01*
X126492000Y-108458000D02*
X127762000Y-109728000D01*
X120142000Y-108458000D02*
X126492000Y-108458000D01*
X118745000Y-109855000D02*
X120142000Y-108458000D01*
X148717000Y-111887000D02*
X147955000Y-112649000D01*
X147955000Y-112649000D02*
X146684000Y-112649000D01*
X148463000Y-113030000D02*
X147574000Y-113919000D01*
X147574000Y-113919000D02*
X146684000Y-113919000D01*
X113030000Y-133286500D02*
X115253911Y-133286500D01*
X115253911Y-133286500D02*
X117348000Y-131192411D01*
X117348000Y-131192411D02*
X117348000Y-110615590D01*
X117348000Y-110615590D02*
X119955600Y-108007990D01*
X119955600Y-108007990D02*
X128073990Y-108007990D01*
X128073990Y-108007990D02*
X128778000Y-108712000D01*
X124968000Y-113538000D02*
X128778000Y-109728000D01*
X128778000Y-109728000D02*
X128778000Y-108712000D01*
X113030000Y-132016500D02*
X113474500Y-132461000D01*
X114935000Y-132461000D02*
X115570000Y-131826000D01*
X113474500Y-132461000D02*
X114935000Y-132461000D01*
X115570000Y-131826000D02*
X115570000Y-120142000D01*
X115316000Y-120142000D02*
X115570000Y-120142000D01*
X115570000Y-120142000D02*
X116586000Y-119126000D01*
X156084000Y-116459000D02*
X156084000Y-117387490D01*
X156084000Y-117387490D02*
X156181500Y-117484990D01*
X107825500Y-137985500D02*
X107825500Y-136527500D01*
X107825500Y-136527500D02*
X105854500Y-134556500D01*
X104329500Y-134556500D02*
X104266000Y-134493000D01*
X105854500Y-134556500D02*
X104329500Y-134556500D01*
X103566000Y-131953000D02*
X104266000Y-131953000D01*
X102928311Y-131315311D02*
X103566000Y-131953000D01*
X102928311Y-107891689D02*
X102928311Y-131315311D01*
X103124000Y-107696000D02*
X102928311Y-107891689D01*
X103124000Y-107696000D02*
X105710489Y-105109511D01*
X105710489Y-105109511D02*
X127080511Y-105109511D01*
X134738901Y-111119491D02*
X136022510Y-112403100D01*
X127080511Y-105109511D02*
X129676998Y-107705998D01*
X129676998Y-107705998D02*
X130718398Y-107705998D01*
X130718398Y-107705998D02*
X133685399Y-110672999D01*
X134627501Y-110737999D02*
X134627501Y-111119490D01*
X133685399Y-110672999D02*
X134562501Y-110672999D01*
X134562501Y-110672999D02*
X134627501Y-110737999D01*
X134627501Y-111119490D02*
X134738901Y-111119491D01*
X136022510Y-112403100D02*
X136022510Y-113010110D01*
X136022510Y-113010110D02*
X138135666Y-115123266D01*
X138135666Y-115123266D02*
X139038736Y-115123266D01*
X139038736Y-115123266D02*
X139338735Y-115423265D01*
X148417001Y-114726999D02*
X148717000Y-114427000D01*
X147955000Y-115189000D02*
X148417001Y-114726999D01*
X146684000Y-115189000D02*
X147955000Y-115189000D01*
X104902000Y-108712000D02*
X103886000Y-107696000D01*
X103886000Y-107696000D02*
X103124000Y-107696000D01*
X108982000Y-143103600D02*
X108982000Y-144830000D01*
X108982000Y-144830000D02*
X108905000Y-144907000D01*
X108905000Y-144653000D02*
X108905000Y-144841000D01*
X108905000Y-144841000D02*
X108346000Y-145400000D01*
X108346000Y-145400000D02*
X105799000Y-145400000D01*
X116713000Y-142536500D02*
X116763800Y-142485700D01*
X116763800Y-142485700D02*
X116907900Y-142341600D01*
X116078000Y-142367000D02*
X116154200Y-142367000D01*
X116154200Y-142367000D02*
X116272900Y-142485700D01*
X116272900Y-142485700D02*
X116763800Y-142485700D01*
X116078000Y-142986500D02*
X116078000Y-142367000D01*
X116078000Y-142367000D02*
X116103401Y-142341599D01*
X116078000Y-143386500D02*
X116078000Y-142986500D01*
X116713000Y-143386500D02*
X116713000Y-142536500D01*
X116907900Y-142341600D02*
X117957600Y-142341600D01*
X117957600Y-142341600D02*
X118364000Y-142748000D01*
X118364000Y-142748000D02*
X118364000Y-149504400D01*
X118364000Y-149504400D02*
X117027799Y-150840601D01*
X117027799Y-150840601D02*
X114401801Y-150840601D01*
X114401801Y-150840601D02*
X113878400Y-150317200D01*
X113878400Y-150317200D02*
X114173000Y-150022600D01*
X114173000Y-150022600D02*
X114173000Y-148586500D01*
X108778000Y-148793200D02*
X108778000Y-147893200D01*
X108778000Y-147893200D02*
X108823200Y-147848000D01*
X108823200Y-147848000D02*
X108914000Y-147848000D01*
X108915200Y-147848000D02*
X108914000Y-147848000D01*
X108905000Y-147839000D02*
X108905000Y-146939000D01*
X108914000Y-147848000D02*
X108905000Y-147839000D01*
X108864400Y-146979600D02*
X108905000Y-146939000D01*
X108905000Y-147193000D02*
X108905000Y-146878000D01*
X108905000Y-146878000D02*
X108077000Y-146050000D01*
X108077000Y-146050000D02*
X105799000Y-146050000D01*
X117348000Y-143386500D02*
X117348000Y-145161000D01*
X117348000Y-145161000D02*
X116713000Y-145796000D01*
X116713000Y-145796000D02*
X111760000Y-145796000D01*
X111760000Y-145796000D02*
X110805000Y-144841000D01*
X110805000Y-144841000D02*
X110805000Y-144653000D01*
X117348000Y-148586500D02*
X117348000Y-146812000D01*
X117348000Y-146812000D02*
X116782011Y-146246011D01*
X116782011Y-146246011D02*
X111751989Y-146246011D01*
X111751989Y-146246011D02*
X110805000Y-147193000D01*
X143408400Y-111506000D02*
X144158399Y-110756001D01*
X144158399Y-110756001D02*
X144310799Y-110756001D01*
X144310799Y-110756001D02*
X144957800Y-110109000D01*
X144957800Y-110109000D02*
X146684000Y-110109000D01*
X144068800Y-113385600D02*
X146075400Y-111379000D01*
X146075400Y-111379000D02*
X146684000Y-111379000D01*
X145770600Y-111379000D02*
X146684000Y-111379000D01*
D36*
G36*
X107916928Y-146964730D02*
X107916928Y-147589000D01*
X107919022Y-147615255D01*
X107805441Y-147690100D01*
X107688975Y-147826750D01*
X107615190Y-147990437D01*
X107589928Y-148168200D01*
X107589928Y-149418200D01*
X107597992Y-149519321D01*
X107651106Y-149690834D01*
X107749900Y-149840759D01*
X107886550Y-149957225D01*
X108050237Y-150031010D01*
X108228000Y-150056272D01*
X109228000Y-150056272D01*
X109329121Y-150048208D01*
X109500634Y-149995094D01*
X109650559Y-149896300D01*
X109725217Y-149808703D01*
X109734763Y-149822989D01*
X109823211Y-149911437D01*
X109927215Y-149980930D01*
X110042777Y-150028797D01*
X110165458Y-150053200D01*
X110442250Y-150053200D01*
X110601000Y-149894450D01*
X110601000Y-149629658D01*
X110802800Y-149629658D01*
X110802800Y-150031450D01*
X110961550Y-150190200D01*
X111810800Y-150190200D01*
X111810800Y-149670531D01*
X111838597Y-149603423D01*
X111863000Y-149480742D01*
X111863000Y-149078950D01*
X111704250Y-148920200D01*
X110855000Y-148920200D01*
X110855000Y-149439869D01*
X110827203Y-149506977D01*
X110802800Y-149629658D01*
X110601000Y-149629658D01*
X110601000Y-148920200D01*
X110581000Y-148920200D01*
X110581000Y-148666200D01*
X110601000Y-148666200D01*
X110601000Y-148646200D01*
X110855000Y-148646200D01*
X110855000Y-148666200D01*
X111704250Y-148666200D01*
X111863000Y-148507450D01*
X111863000Y-148105658D01*
X111838597Y-147982977D01*
X111790730Y-147867415D01*
X111749950Y-147806384D01*
X111767810Y-147766763D01*
X111793072Y-147589000D01*
X111793072Y-147279730D01*
X112066791Y-147006011D01*
X116467209Y-147006011D01*
X116588000Y-147126802D01*
X116588000Y-147348428D01*
X116513000Y-147348428D01*
X116411879Y-147356492D01*
X116387616Y-147364006D01*
X116278000Y-147348428D01*
X115878000Y-147348428D01*
X115776879Y-147356492D01*
X115758794Y-147362093D01*
X115705542Y-147351500D01*
X115701750Y-147351500D01*
X115660816Y-147392434D01*
X115605366Y-147409606D01*
X115455441Y-147508400D01*
X115440922Y-147525436D01*
X115349450Y-147447475D01*
X115223410Y-147390660D01*
X115184250Y-147351500D01*
X115180458Y-147351500D01*
X115117600Y-147364003D01*
X115008000Y-147348428D01*
X114608000Y-147348428D01*
X114506879Y-147356492D01*
X114482616Y-147364006D01*
X114373000Y-147348428D01*
X113973000Y-147348428D01*
X113871879Y-147356492D01*
X113847616Y-147364006D01*
X113738000Y-147348428D01*
X113338000Y-147348428D01*
X113236879Y-147356492D01*
X113212616Y-147364006D01*
X113103000Y-147348428D01*
X112703000Y-147348428D01*
X112601879Y-147356492D01*
X112430366Y-147409606D01*
X112280441Y-147508400D01*
X112163975Y-147645050D01*
X112090190Y-147808737D01*
X112064928Y-147986500D01*
X112064928Y-149186500D01*
X112067094Y-149213656D01*
X112064800Y-149215950D01*
X112064800Y-150190200D01*
X112084800Y-150190200D01*
X112084800Y-150444200D01*
X112064800Y-150444200D01*
X112064800Y-151418450D01*
X112223550Y-151577200D01*
X112243981Y-151577200D01*
X112265610Y-151618927D01*
X112268103Y-151622050D01*
X112269980Y-151625580D01*
X112302130Y-151665000D01*
X102335000Y-151665000D01*
X102335000Y-150364704D01*
X102405328Y-150403367D01*
X102627635Y-150473886D01*
X102859404Y-150499884D01*
X102876089Y-150500000D01*
X103771911Y-150500000D01*
X104004021Y-150477241D01*
X104227290Y-150409833D01*
X104321543Y-150359718D01*
X104395900Y-150472559D01*
X104532550Y-150589025D01*
X104696237Y-150662810D01*
X104874000Y-150688072D01*
X106274000Y-150688072D01*
X106375121Y-150680008D01*
X106546634Y-150626894D01*
X106582970Y-150602950D01*
X110802800Y-150602950D01*
X110802800Y-151004742D01*
X110827203Y-151127423D01*
X110875070Y-151242985D01*
X110944563Y-151346989D01*
X111033011Y-151435437D01*
X111137015Y-151504930D01*
X111252577Y-151552797D01*
X111375258Y-151577200D01*
X111652050Y-151577200D01*
X111810800Y-151418450D01*
X111810800Y-150444200D01*
X110961550Y-150444200D01*
X110802800Y-150602950D01*
X106582970Y-150602950D01*
X106696559Y-150528100D01*
X106813025Y-150391450D01*
X106886810Y-150227763D01*
X106912072Y-150050000D01*
X106912072Y-148450000D01*
X106904008Y-148348879D01*
X106850894Y-148177366D01*
X106798056Y-148097181D01*
X106878789Y-148043237D01*
X106967237Y-147954789D01*
X107036730Y-147850785D01*
X107084597Y-147735223D01*
X107109000Y-147612542D01*
X107109000Y-147608750D01*
X106950250Y-147450000D01*
X106787447Y-147450000D01*
X106896559Y-147378100D01*
X107013025Y-147241450D01*
X107057529Y-147142721D01*
X107109000Y-147091250D01*
X107109000Y-147087458D01*
X107095253Y-147018349D01*
X107112072Y-146900000D01*
X107112072Y-146810000D01*
X107762198Y-146810000D01*
X107916928Y-146964730D01*
X107916928Y-146964730D01*
G37*
X107916928Y-146964730D02*
X107916928Y-147589000D01*
X107919022Y-147615255D01*
X107805441Y-147690100D01*
X107688975Y-147826750D01*
X107615190Y-147990437D01*
X107589928Y-148168200D01*
X107589928Y-149418200D01*
X107597992Y-149519321D01*
X107651106Y-149690834D01*
X107749900Y-149840759D01*
X107886550Y-149957225D01*
X108050237Y-150031010D01*
X108228000Y-150056272D01*
X109228000Y-150056272D01*
X109329121Y-150048208D01*
X109500634Y-149995094D01*
X109650559Y-149896300D01*
X109725217Y-149808703D01*
X109734763Y-149822989D01*
X109823211Y-149911437D01*
X109927215Y-149980930D01*
X110042777Y-150028797D01*
X110165458Y-150053200D01*
X110442250Y-150053200D01*
X110601000Y-149894450D01*
X110601000Y-149629658D01*
X110802800Y-149629658D01*
X110802800Y-150031450D01*
X110961550Y-150190200D01*
X111810800Y-150190200D01*
X111810800Y-149670531D01*
X111838597Y-149603423D01*
X111863000Y-149480742D01*
X111863000Y-149078950D01*
X111704250Y-148920200D01*
X110855000Y-148920200D01*
X110855000Y-149439869D01*
X110827203Y-149506977D01*
X110802800Y-149629658D01*
X110601000Y-149629658D01*
X110601000Y-148920200D01*
X110581000Y-148920200D01*
X110581000Y-148666200D01*
X110601000Y-148666200D01*
X110601000Y-148646200D01*
X110855000Y-148646200D01*
X110855000Y-148666200D01*
X111704250Y-148666200D01*
X111863000Y-148507450D01*
X111863000Y-148105658D01*
X111838597Y-147982977D01*
X111790730Y-147867415D01*
X111749950Y-147806384D01*
X111767810Y-147766763D01*
X111793072Y-147589000D01*
X111793072Y-147279730D01*
X112066791Y-147006011D01*
X116467209Y-147006011D01*
X116588000Y-147126802D01*
X116588000Y-147348428D01*
X116513000Y-147348428D01*
X116411879Y-147356492D01*
X116387616Y-147364006D01*
X116278000Y-147348428D01*
X115878000Y-147348428D01*
X115776879Y-147356492D01*
X115758794Y-147362093D01*
X115705542Y-147351500D01*
X115701750Y-147351500D01*
X115660816Y-147392434D01*
X115605366Y-147409606D01*
X115455441Y-147508400D01*
X115440922Y-147525436D01*
X115349450Y-147447475D01*
X115223410Y-147390660D01*
X115184250Y-147351500D01*
X115180458Y-147351500D01*
X115117600Y-147364003D01*
X115008000Y-147348428D01*
X114608000Y-147348428D01*
X114506879Y-147356492D01*
X114482616Y-147364006D01*
X114373000Y-147348428D01*
X113973000Y-147348428D01*
X113871879Y-147356492D01*
X113847616Y-147364006D01*
X113738000Y-147348428D01*
X113338000Y-147348428D01*
X113236879Y-147356492D01*
X113212616Y-147364006D01*
X113103000Y-147348428D01*
X112703000Y-147348428D01*
X112601879Y-147356492D01*
X112430366Y-147409606D01*
X112280441Y-147508400D01*
X112163975Y-147645050D01*
X112090190Y-147808737D01*
X112064928Y-147986500D01*
X112064928Y-149186500D01*
X112067094Y-149213656D01*
X112064800Y-149215950D01*
X112064800Y-150190200D01*
X112084800Y-150190200D01*
X112084800Y-150444200D01*
X112064800Y-150444200D01*
X112064800Y-151418450D01*
X112223550Y-151577200D01*
X112243981Y-151577200D01*
X112265610Y-151618927D01*
X112268103Y-151622050D01*
X112269980Y-151625580D01*
X112302130Y-151665000D01*
X102335000Y-151665000D01*
X102335000Y-150364704D01*
X102405328Y-150403367D01*
X102627635Y-150473886D01*
X102859404Y-150499884D01*
X102876089Y-150500000D01*
X103771911Y-150500000D01*
X104004021Y-150477241D01*
X104227290Y-150409833D01*
X104321543Y-150359718D01*
X104395900Y-150472559D01*
X104532550Y-150589025D01*
X104696237Y-150662810D01*
X104874000Y-150688072D01*
X106274000Y-150688072D01*
X106375121Y-150680008D01*
X106546634Y-150626894D01*
X106582970Y-150602950D01*
X110802800Y-150602950D01*
X110802800Y-151004742D01*
X110827203Y-151127423D01*
X110875070Y-151242985D01*
X110944563Y-151346989D01*
X111033011Y-151435437D01*
X111137015Y-151504930D01*
X111252577Y-151552797D01*
X111375258Y-151577200D01*
X111652050Y-151577200D01*
X111810800Y-151418450D01*
X111810800Y-150444200D01*
X110961550Y-150444200D01*
X110802800Y-150602950D01*
X106582970Y-150602950D01*
X106696559Y-150528100D01*
X106813025Y-150391450D01*
X106886810Y-150227763D01*
X106912072Y-150050000D01*
X106912072Y-148450000D01*
X106904008Y-148348879D01*
X106850894Y-148177366D01*
X106798056Y-148097181D01*
X106878789Y-148043237D01*
X106967237Y-147954789D01*
X107036730Y-147850785D01*
X107084597Y-147735223D01*
X107109000Y-147612542D01*
X107109000Y-147608750D01*
X106950250Y-147450000D01*
X106787447Y-147450000D01*
X106896559Y-147378100D01*
X107013025Y-147241450D01*
X107057529Y-147142721D01*
X107109000Y-147091250D01*
X107109000Y-147087458D01*
X107095253Y-147018349D01*
X107112072Y-146900000D01*
X107112072Y-146810000D01*
X107762198Y-146810000D01*
X107916928Y-146964730D01*
G36*
X158257409Y-110310211D02*
X158230572Y-110436469D01*
X158226780Y-110708055D01*
X158275811Y-110975205D01*
X158375798Y-111227744D01*
X158522933Y-111456052D01*
X158711611Y-111651434D01*
X158934645Y-111806447D01*
X159183541Y-111915186D01*
X159448817Y-111973511D01*
X159720370Y-111979199D01*
X159987856Y-111932034D01*
X160241087Y-111833813D01*
X160470417Y-111688275D01*
X160667111Y-111500966D01*
X160772477Y-111351600D01*
X160958400Y-111351600D01*
X160958400Y-111474250D01*
X161117150Y-111633000D01*
X161966400Y-111633000D01*
X161966400Y-111613000D01*
X162220400Y-111613000D01*
X162220400Y-111633000D01*
X162240400Y-111633000D01*
X162240400Y-111887000D01*
X162220400Y-111887000D01*
X162220400Y-112861250D01*
X162379150Y-113020000D01*
X162655942Y-113020000D01*
X162778623Y-112995597D01*
X162894185Y-112947730D01*
X162998189Y-112878237D01*
X163086637Y-112789789D01*
X163095173Y-112777015D01*
X163115300Y-112807559D01*
X163251950Y-112924025D01*
X163415637Y-112997810D01*
X163593400Y-113023072D01*
X164593400Y-113023072D01*
X164694521Y-113015008D01*
X164695707Y-113014641D01*
X165138428Y-113457361D01*
X165138428Y-115888138D01*
X163246283Y-117780283D01*
X163197867Y-117839226D01*
X163148869Y-117897620D01*
X163146777Y-117901425D01*
X163144023Y-117904778D01*
X163107991Y-117971977D01*
X163071254Y-118038801D01*
X163069942Y-118042937D01*
X163067890Y-118046764D01*
X163045593Y-118119695D01*
X163022539Y-118192369D01*
X163022055Y-118196683D01*
X163020786Y-118200834D01*
X163013078Y-118276716D01*
X163004580Y-118352474D01*
X163004521Y-118360950D01*
X163004504Y-118361119D01*
X163004519Y-118361277D01*
X163004500Y-118364000D01*
X163004500Y-126492000D01*
X163011938Y-126567858D01*
X163018587Y-126643852D01*
X163019799Y-126648023D01*
X163020222Y-126652340D01*
X163042260Y-126725334D01*
X163063535Y-126798564D01*
X163065532Y-126802416D01*
X163066787Y-126806574D01*
X163102577Y-126873884D01*
X163137677Y-126941600D01*
X163140388Y-126944996D01*
X163142424Y-126948825D01*
X163190597Y-127007892D01*
X163238190Y-127067510D01*
X163244147Y-127073551D01*
X163244249Y-127073676D01*
X163244365Y-127073772D01*
X163246283Y-127075717D01*
X165138428Y-128967862D01*
X165138428Y-131653206D01*
X165014843Y-131652343D01*
X164834727Y-131686701D01*
X164664716Y-131755390D01*
X164511285Y-131855793D01*
X164380277Y-131984086D01*
X164276683Y-132135381D01*
X164204448Y-132303916D01*
X164166325Y-132483272D01*
X164163765Y-132666617D01*
X164196866Y-132846968D01*
X164264366Y-133017454D01*
X164363695Y-133171583D01*
X164467000Y-133278559D01*
X164467000Y-139281918D01*
X164403689Y-139374381D01*
X164331454Y-139542916D01*
X164293331Y-139722272D01*
X164290771Y-139905617D01*
X164323872Y-140085968D01*
X164391372Y-140256454D01*
X164490701Y-140410583D01*
X164618076Y-140542484D01*
X164768644Y-140647131D01*
X164936671Y-140720540D01*
X165115757Y-140759915D01*
X165299079Y-140763755D01*
X165479657Y-140731914D01*
X165650610Y-140665606D01*
X165805429Y-140567355D01*
X165938215Y-140440904D01*
X166043911Y-140291070D01*
X166118492Y-140123560D01*
X166159116Y-139944754D01*
X166162040Y-139735319D01*
X166126425Y-139555448D01*
X166056550Y-139385920D01*
X165987000Y-139281238D01*
X165987000Y-132894636D01*
X165991486Y-132884560D01*
X166032110Y-132705754D01*
X166034060Y-132566072D01*
X169376500Y-132566072D01*
X169477621Y-132558008D01*
X169649134Y-132504894D01*
X169799059Y-132406100D01*
X169915525Y-132269450D01*
X169989310Y-132105763D01*
X170014572Y-131928000D01*
X170014572Y-128428000D01*
X170006508Y-128326879D01*
X169953394Y-128155366D01*
X169854600Y-128005441D01*
X169717950Y-127888975D01*
X169554263Y-127815190D01*
X169376500Y-127789928D01*
X166295362Y-127789928D01*
X164655500Y-126150066D01*
X164655500Y-122713750D01*
X164941500Y-122713750D01*
X164941500Y-124490542D01*
X164965903Y-124613223D01*
X165013770Y-124728785D01*
X165083263Y-124832789D01*
X165171711Y-124921237D01*
X165275715Y-124990730D01*
X165391277Y-125038597D01*
X165513958Y-125063000D01*
X167290750Y-125063000D01*
X167449500Y-124904250D01*
X167449500Y-122555000D01*
X167703500Y-122555000D01*
X167703500Y-124904250D01*
X167862250Y-125063000D01*
X169639042Y-125063000D01*
X169761723Y-125038597D01*
X169877285Y-124990730D01*
X169981289Y-124921237D01*
X170069737Y-124832789D01*
X170139230Y-124728785D01*
X170187097Y-124613223D01*
X170211500Y-124490542D01*
X170211500Y-122713750D01*
X170052750Y-122555000D01*
X167703500Y-122555000D01*
X167449500Y-122555000D01*
X165100250Y-122555000D01*
X164941500Y-122713750D01*
X164655500Y-122713750D01*
X164655500Y-120365458D01*
X164941500Y-120365458D01*
X164941500Y-122142250D01*
X165100250Y-122301000D01*
X167449500Y-122301000D01*
X167449500Y-119951750D01*
X167703500Y-119951750D01*
X167703500Y-122301000D01*
X170052750Y-122301000D01*
X170211500Y-122142250D01*
X170211500Y-120365458D01*
X170187097Y-120242777D01*
X170139230Y-120127215D01*
X170069737Y-120023211D01*
X169981289Y-119934763D01*
X169877285Y-119865270D01*
X169761723Y-119817403D01*
X169639042Y-119793000D01*
X167862250Y-119793000D01*
X167703500Y-119951750D01*
X167449500Y-119951750D01*
X167290750Y-119793000D01*
X165513958Y-119793000D01*
X165391277Y-119817403D01*
X165275715Y-119865270D01*
X165171711Y-119934763D01*
X165083263Y-120023211D01*
X165013770Y-120127215D01*
X164965903Y-120242777D01*
X164941500Y-120365458D01*
X164655500Y-120365458D01*
X164655500Y-118705934D01*
X166295362Y-117066072D01*
X169376500Y-117066072D01*
X169477621Y-117058008D01*
X169649134Y-117004894D01*
X169799059Y-116906100D01*
X169915525Y-116769450D01*
X169989310Y-116605763D01*
X170014572Y-116428000D01*
X170014572Y-112928000D01*
X170006508Y-112826879D01*
X169953394Y-112655366D01*
X169854600Y-112505441D01*
X169717950Y-112388975D01*
X169554263Y-112315190D01*
X169376500Y-112289928D01*
X166305861Y-112289928D01*
X166027934Y-112012000D01*
X169862500Y-112012000D01*
X169932368Y-112005149D01*
X170002298Y-111999032D01*
X170006139Y-111997916D01*
X170010118Y-111997526D01*
X170077314Y-111977238D01*
X170144735Y-111957651D01*
X170148286Y-111955811D01*
X170152113Y-111954655D01*
X170214094Y-111921699D01*
X170276422Y-111889392D01*
X170279547Y-111886898D01*
X170283078Y-111885020D01*
X170337479Y-111840651D01*
X170392343Y-111796855D01*
X170397906Y-111791369D01*
X170398022Y-111791274D01*
X170398111Y-111791166D01*
X170399898Y-111789404D01*
X170569399Y-111619905D01*
X170613984Y-111565627D01*
X170659087Y-111511876D01*
X170661009Y-111508379D01*
X170663547Y-111505290D01*
X170696739Y-111443388D01*
X170706752Y-111425174D01*
X170729237Y-111435310D01*
X170907000Y-111460572D01*
X171607000Y-111460572D01*
X171708121Y-111452508D01*
X171879634Y-111399394D01*
X172029559Y-111300600D01*
X172146025Y-111163950D01*
X172219810Y-111000263D01*
X172220132Y-110998000D01*
X175235566Y-110998000D01*
X175755300Y-111517733D01*
X175755300Y-149060867D01*
X174550665Y-150265501D01*
X155956000Y-150265501D01*
X155956000Y-148560000D01*
X155948561Y-148484138D01*
X155941913Y-148408148D01*
X155940701Y-148403977D01*
X155940278Y-148399660D01*
X155918240Y-148326666D01*
X155896965Y-148253436D01*
X155894968Y-148249584D01*
X155893713Y-148245426D01*
X155857923Y-148178116D01*
X155822823Y-148110400D01*
X155820112Y-148107004D01*
X155818076Y-148103175D01*
X155769903Y-148044108D01*
X155744391Y-148012150D01*
X170940600Y-148012150D01*
X170940600Y-149288942D01*
X170965003Y-149411623D01*
X171012870Y-149527185D01*
X171082363Y-149631189D01*
X171170811Y-149719637D01*
X171274815Y-149789130D01*
X171390377Y-149836997D01*
X171513058Y-149861400D01*
X172789850Y-149861400D01*
X172948600Y-149702650D01*
X172948600Y-147853400D01*
X173202600Y-147853400D01*
X173202600Y-149702650D01*
X173361350Y-149861400D01*
X174638142Y-149861400D01*
X174760823Y-149836997D01*
X174876385Y-149789130D01*
X174980389Y-149719637D01*
X175068837Y-149631189D01*
X175138330Y-149527185D01*
X175186197Y-149411623D01*
X175210600Y-149288942D01*
X175210600Y-148012150D01*
X175051850Y-147853400D01*
X173202600Y-147853400D01*
X172948600Y-147853400D01*
X171099350Y-147853400D01*
X170940600Y-148012150D01*
X155744391Y-148012150D01*
X155722310Y-147984490D01*
X155716353Y-147978449D01*
X155716251Y-147978324D01*
X155716135Y-147978228D01*
X155714217Y-147976283D01*
X154474217Y-146736283D01*
X154415274Y-146687867D01*
X154356880Y-146638869D01*
X154353075Y-146636777D01*
X154349722Y-146634023D01*
X154282523Y-146597991D01*
X154215699Y-146561254D01*
X154211563Y-146559942D01*
X154207736Y-146557890D01*
X154134805Y-146535593D01*
X154128589Y-146533621D01*
X154086394Y-146397366D01*
X153987600Y-146247441D01*
X153889532Y-146163858D01*
X170940600Y-146163858D01*
X170940600Y-147440650D01*
X171099350Y-147599400D01*
X172948600Y-147599400D01*
X172948600Y-145750150D01*
X173202600Y-145750150D01*
X173202600Y-147599400D01*
X175051850Y-147599400D01*
X175210600Y-147440650D01*
X175210600Y-146163858D01*
X175186197Y-146041177D01*
X175138330Y-145925615D01*
X175068837Y-145821611D01*
X174980389Y-145733163D01*
X174876385Y-145663670D01*
X174760823Y-145615803D01*
X174638142Y-145591400D01*
X173361350Y-145591400D01*
X173202600Y-145750150D01*
X172948600Y-145750150D01*
X172789850Y-145591400D01*
X171513058Y-145591400D01*
X171390377Y-145615803D01*
X171274815Y-145663670D01*
X171170811Y-145733163D01*
X171082363Y-145821611D01*
X171012870Y-145925615D01*
X170965003Y-146041177D01*
X170940600Y-146163858D01*
X153889532Y-146163858D01*
X153850950Y-146130975D01*
X153687263Y-146057190D01*
X153509500Y-146031928D01*
X152809500Y-146031928D01*
X152708379Y-146039992D01*
X152536866Y-146093106D01*
X152386941Y-146191900D01*
X152270475Y-146328550D01*
X152208002Y-146467142D01*
X152186394Y-146397366D01*
X152087600Y-146247441D01*
X151950950Y-146130975D01*
X151787263Y-146057190D01*
X151609500Y-146031928D01*
X151419500Y-146031928D01*
X151419500Y-143919300D01*
X151571802Y-143766998D01*
X156205002Y-143766998D01*
X156274879Y-143760147D01*
X156344805Y-143754029D01*
X156348643Y-143752914D01*
X156352620Y-143752524D01*
X156419823Y-143732234D01*
X156487242Y-143712647D01*
X156490790Y-143710808D01*
X156494615Y-143709653D01*
X156556593Y-143676699D01*
X156618927Y-143644388D01*
X156622050Y-143641895D01*
X156625580Y-143640018D01*
X156679989Y-143595643D01*
X156734848Y-143551850D01*
X156740408Y-143546367D01*
X156740524Y-143546272D01*
X156740613Y-143546164D01*
X156742403Y-143544399D01*
X159541401Y-140745401D01*
X159585968Y-140691145D01*
X159631086Y-140637375D01*
X159633011Y-140633874D01*
X159635548Y-140630785D01*
X159668713Y-140568933D01*
X159702543Y-140507396D01*
X159703752Y-140503584D01*
X159705639Y-140500065D01*
X159726152Y-140432969D01*
X159747392Y-140366013D01*
X159747838Y-140362041D01*
X159749006Y-140358219D01*
X159756103Y-140288351D01*
X159763926Y-140218611D01*
X159763980Y-140210806D01*
X159763996Y-140210653D01*
X159763982Y-140210510D01*
X159764000Y-140208000D01*
X159764000Y-131124802D01*
X160811401Y-130077401D01*
X160855968Y-130023145D01*
X160901086Y-129969375D01*
X160903011Y-129965874D01*
X160905548Y-129962785D01*
X160938713Y-129900933D01*
X160972543Y-129839396D01*
X160973752Y-129835584D01*
X160975639Y-129832065D01*
X160996152Y-129764969D01*
X161017392Y-129698013D01*
X161017838Y-129694041D01*
X161019006Y-129690219D01*
X161026098Y-129620395D01*
X161033926Y-129550611D01*
X161033981Y-129542796D01*
X161033995Y-129542653D01*
X161033982Y-129542520D01*
X161034000Y-129540000D01*
X161034000Y-118110000D01*
X161027144Y-118040073D01*
X161021030Y-117970197D01*
X161019916Y-117966364D01*
X161019526Y-117962382D01*
X160999224Y-117895138D01*
X160979649Y-117827760D01*
X160977810Y-117824212D01*
X160976655Y-117820387D01*
X160943691Y-117758390D01*
X160911389Y-117696074D01*
X160908897Y-117692953D01*
X160907020Y-117689422D01*
X160862641Y-117635007D01*
X160818852Y-117580154D01*
X160813369Y-117574594D01*
X160813274Y-117574478D01*
X160813166Y-117574389D01*
X160811401Y-117572599D01*
X158494000Y-115255198D01*
X158494000Y-113708998D01*
X158487148Y-113639117D01*
X158481031Y-113569195D01*
X158479916Y-113565357D01*
X158479526Y-113561380D01*
X158459246Y-113494210D01*
X158439650Y-113426759D01*
X158437809Y-113423208D01*
X158436655Y-113419385D01*
X158403710Y-113357424D01*
X158371390Y-113295073D01*
X158368897Y-113291950D01*
X158367020Y-113288420D01*
X158322625Y-113233987D01*
X158278852Y-113179153D01*
X158273370Y-113173594D01*
X158273274Y-113173476D01*
X158273165Y-113173386D01*
X158271401Y-113171597D01*
X157836404Y-112736600D01*
X157782148Y-112692033D01*
X157728378Y-112646915D01*
X157724877Y-112644990D01*
X157721788Y-112642453D01*
X157697072Y-112629200D01*
X157697072Y-112349000D01*
X157689008Y-112247879D01*
X157635894Y-112076366D01*
X157615720Y-112045750D01*
X160958400Y-112045750D01*
X160958400Y-112447542D01*
X160982803Y-112570223D01*
X161030670Y-112685785D01*
X161100163Y-112789789D01*
X161188611Y-112878237D01*
X161292615Y-112947730D01*
X161408177Y-112995597D01*
X161530858Y-113020000D01*
X161807650Y-113020000D01*
X161966400Y-112861250D01*
X161966400Y-111887000D01*
X161117150Y-111887000D01*
X160958400Y-112045750D01*
X157615720Y-112045750D01*
X157598440Y-112019528D01*
X157671810Y-111856763D01*
X157697072Y-111679000D01*
X157697072Y-111079000D01*
X157689008Y-110977879D01*
X157635894Y-110806366D01*
X157598440Y-110749528D01*
X157671810Y-110586763D01*
X157697072Y-110409000D01*
X157697072Y-109809000D01*
X157691948Y-109744750D01*
X158257409Y-110310211D01*
X158257409Y-110310211D01*
G37*
X158257409Y-110310211D02*
X158230572Y-110436469D01*
X158226780Y-110708055D01*
X158275811Y-110975205D01*
X158375798Y-111227744D01*
X158522933Y-111456052D01*
X158711611Y-111651434D01*
X158934645Y-111806447D01*
X159183541Y-111915186D01*
X159448817Y-111973511D01*
X159720370Y-111979199D01*
X159987856Y-111932034D01*
X160241087Y-111833813D01*
X160470417Y-111688275D01*
X160667111Y-111500966D01*
X160772477Y-111351600D01*
X160958400Y-111351600D01*
X160958400Y-111474250D01*
X161117150Y-111633000D01*
X161966400Y-111633000D01*
X161966400Y-111613000D01*
X162220400Y-111613000D01*
X162220400Y-111633000D01*
X162240400Y-111633000D01*
X162240400Y-111887000D01*
X162220400Y-111887000D01*
X162220400Y-112861250D01*
X162379150Y-113020000D01*
X162655942Y-113020000D01*
X162778623Y-112995597D01*
X162894185Y-112947730D01*
X162998189Y-112878237D01*
X163086637Y-112789789D01*
X163095173Y-112777015D01*
X163115300Y-112807559D01*
X163251950Y-112924025D01*
X163415637Y-112997810D01*
X163593400Y-113023072D01*
X164593400Y-113023072D01*
X164694521Y-113015008D01*
X164695707Y-113014641D01*
X165138428Y-113457361D01*
X165138428Y-115888138D01*
X163246283Y-117780283D01*
X163197867Y-117839226D01*
X163148869Y-117897620D01*
X163146777Y-117901425D01*
X163144023Y-117904778D01*
X163107991Y-117971977D01*
X163071254Y-118038801D01*
X163069942Y-118042937D01*
X163067890Y-118046764D01*
X163045593Y-118119695D01*
X163022539Y-118192369D01*
X163022055Y-118196683D01*
X163020786Y-118200834D01*
X163013078Y-118276716D01*
X163004580Y-118352474D01*
X163004521Y-118360950D01*
X163004504Y-118361119D01*
X163004519Y-118361277D01*
X163004500Y-118364000D01*
X163004500Y-126492000D01*
X163011938Y-126567858D01*
X163018587Y-126643852D01*
X163019799Y-126648023D01*
X163020222Y-126652340D01*
X163042260Y-126725334D01*
X163063535Y-126798564D01*
X163065532Y-126802416D01*
X163066787Y-126806574D01*
X163102577Y-126873884D01*
X163137677Y-126941600D01*
X163140388Y-126944996D01*
X163142424Y-126948825D01*
X163190597Y-127007892D01*
X163238190Y-127067510D01*
X163244147Y-127073551D01*
X163244249Y-127073676D01*
X163244365Y-127073772D01*
X163246283Y-127075717D01*
X165138428Y-128967862D01*
X165138428Y-131653206D01*
X165014843Y-131652343D01*
X164834727Y-131686701D01*
X164664716Y-131755390D01*
X164511285Y-131855793D01*
X164380277Y-131984086D01*
X164276683Y-132135381D01*
X164204448Y-132303916D01*
X164166325Y-132483272D01*
X164163765Y-132666617D01*
X164196866Y-132846968D01*
X164264366Y-133017454D01*
X164363695Y-133171583D01*
X164467000Y-133278559D01*
X164467000Y-139281918D01*
X164403689Y-139374381D01*
X164331454Y-139542916D01*
X164293331Y-139722272D01*
X164290771Y-139905617D01*
X164323872Y-140085968D01*
X164391372Y-140256454D01*
X164490701Y-140410583D01*
X164618076Y-140542484D01*
X164768644Y-140647131D01*
X164936671Y-140720540D01*
X165115757Y-140759915D01*
X165299079Y-140763755D01*
X165479657Y-140731914D01*
X165650610Y-140665606D01*
X165805429Y-140567355D01*
X165938215Y-140440904D01*
X166043911Y-140291070D01*
X166118492Y-140123560D01*
X166159116Y-139944754D01*
X166162040Y-139735319D01*
X166126425Y-139555448D01*
X166056550Y-139385920D01*
X165987000Y-139281238D01*
X165987000Y-132894636D01*
X165991486Y-132884560D01*
X166032110Y-132705754D01*
X166034060Y-132566072D01*
X169376500Y-132566072D01*
X169477621Y-132558008D01*
X169649134Y-132504894D01*
X169799059Y-132406100D01*
X169915525Y-132269450D01*
X169989310Y-132105763D01*
X170014572Y-131928000D01*
X170014572Y-128428000D01*
X170006508Y-128326879D01*
X169953394Y-128155366D01*
X169854600Y-128005441D01*
X169717950Y-127888975D01*
X169554263Y-127815190D01*
X169376500Y-127789928D01*
X166295362Y-127789928D01*
X164655500Y-126150066D01*
X164655500Y-122713750D01*
X164941500Y-122713750D01*
X164941500Y-124490542D01*
X164965903Y-124613223D01*
X165013770Y-124728785D01*
X165083263Y-124832789D01*
X165171711Y-124921237D01*
X165275715Y-124990730D01*
X165391277Y-125038597D01*
X165513958Y-125063000D01*
X167290750Y-125063000D01*
X167449500Y-124904250D01*
X167449500Y-122555000D01*
X167703500Y-122555000D01*
X167703500Y-124904250D01*
X167862250Y-125063000D01*
X169639042Y-125063000D01*
X169761723Y-125038597D01*
X169877285Y-124990730D01*
X169981289Y-124921237D01*
X170069737Y-124832789D01*
X170139230Y-124728785D01*
X170187097Y-124613223D01*
X170211500Y-124490542D01*
X170211500Y-122713750D01*
X170052750Y-122555000D01*
X167703500Y-122555000D01*
X167449500Y-122555000D01*
X165100250Y-122555000D01*
X164941500Y-122713750D01*
X164655500Y-122713750D01*
X164655500Y-120365458D01*
X164941500Y-120365458D01*
X164941500Y-122142250D01*
X165100250Y-122301000D01*
X167449500Y-122301000D01*
X167449500Y-119951750D01*
X167703500Y-119951750D01*
X167703500Y-122301000D01*
X170052750Y-122301000D01*
X170211500Y-122142250D01*
X170211500Y-120365458D01*
X170187097Y-120242777D01*
X170139230Y-120127215D01*
X170069737Y-120023211D01*
X169981289Y-119934763D01*
X169877285Y-119865270D01*
X169761723Y-119817403D01*
X169639042Y-119793000D01*
X167862250Y-119793000D01*
X167703500Y-119951750D01*
X167449500Y-119951750D01*
X167290750Y-119793000D01*
X165513958Y-119793000D01*
X165391277Y-119817403D01*
X165275715Y-119865270D01*
X165171711Y-119934763D01*
X165083263Y-120023211D01*
X165013770Y-120127215D01*
X164965903Y-120242777D01*
X164941500Y-120365458D01*
X164655500Y-120365458D01*
X164655500Y-118705934D01*
X166295362Y-117066072D01*
X169376500Y-117066072D01*
X169477621Y-117058008D01*
X169649134Y-117004894D01*
X169799059Y-116906100D01*
X169915525Y-116769450D01*
X169989310Y-116605763D01*
X170014572Y-116428000D01*
X170014572Y-112928000D01*
X170006508Y-112826879D01*
X169953394Y-112655366D01*
X169854600Y-112505441D01*
X169717950Y-112388975D01*
X169554263Y-112315190D01*
X169376500Y-112289928D01*
X166305861Y-112289928D01*
X166027934Y-112012000D01*
X169862500Y-112012000D01*
X169932368Y-112005149D01*
X170002298Y-111999032D01*
X170006139Y-111997916D01*
X170010118Y-111997526D01*
X170077314Y-111977238D01*
X170144735Y-111957651D01*
X170148286Y-111955811D01*
X170152113Y-111954655D01*
X170214094Y-111921699D01*
X170276422Y-111889392D01*
X170279547Y-111886898D01*
X170283078Y-111885020D01*
X170337479Y-111840651D01*
X170392343Y-111796855D01*
X170397906Y-111791369D01*
X170398022Y-111791274D01*
X170398111Y-111791166D01*
X170399898Y-111789404D01*
X170569399Y-111619905D01*
X170613984Y-111565627D01*
X170659087Y-111511876D01*
X170661009Y-111508379D01*
X170663547Y-111505290D01*
X170696739Y-111443388D01*
X170706752Y-111425174D01*
X170729237Y-111435310D01*
X170907000Y-111460572D01*
X171607000Y-111460572D01*
X171708121Y-111452508D01*
X171879634Y-111399394D01*
X172029559Y-111300600D01*
X172146025Y-111163950D01*
X172219810Y-111000263D01*
X172220132Y-110998000D01*
X175235566Y-110998000D01*
X175755300Y-111517733D01*
X175755300Y-149060867D01*
X174550665Y-150265501D01*
X155956000Y-150265501D01*
X155956000Y-148560000D01*
X155948561Y-148484138D01*
X155941913Y-148408148D01*
X155940701Y-148403977D01*
X155940278Y-148399660D01*
X155918240Y-148326666D01*
X155896965Y-148253436D01*
X155894968Y-148249584D01*
X155893713Y-148245426D01*
X155857923Y-148178116D01*
X155822823Y-148110400D01*
X155820112Y-148107004D01*
X155818076Y-148103175D01*
X155769903Y-148044108D01*
X155744391Y-148012150D01*
X170940600Y-148012150D01*
X170940600Y-149288942D01*
X170965003Y-149411623D01*
X171012870Y-149527185D01*
X171082363Y-149631189D01*
X171170811Y-149719637D01*
X171274815Y-149789130D01*
X171390377Y-149836997D01*
X171513058Y-149861400D01*
X172789850Y-149861400D01*
X172948600Y-149702650D01*
X172948600Y-147853400D01*
X173202600Y-147853400D01*
X173202600Y-149702650D01*
X173361350Y-149861400D01*
X174638142Y-149861400D01*
X174760823Y-149836997D01*
X174876385Y-149789130D01*
X174980389Y-149719637D01*
X175068837Y-149631189D01*
X175138330Y-149527185D01*
X175186197Y-149411623D01*
X175210600Y-149288942D01*
X175210600Y-148012150D01*
X175051850Y-147853400D01*
X173202600Y-147853400D01*
X172948600Y-147853400D01*
X171099350Y-147853400D01*
X170940600Y-148012150D01*
X155744391Y-148012150D01*
X155722310Y-147984490D01*
X155716353Y-147978449D01*
X155716251Y-147978324D01*
X155716135Y-147978228D01*
X155714217Y-147976283D01*
X154474217Y-146736283D01*
X154415274Y-146687867D01*
X154356880Y-146638869D01*
X154353075Y-146636777D01*
X154349722Y-146634023D01*
X154282523Y-146597991D01*
X154215699Y-146561254D01*
X154211563Y-146559942D01*
X154207736Y-146557890D01*
X154134805Y-146535593D01*
X154128589Y-146533621D01*
X154086394Y-146397366D01*
X153987600Y-146247441D01*
X153889532Y-146163858D01*
X170940600Y-146163858D01*
X170940600Y-147440650D01*
X171099350Y-147599400D01*
X172948600Y-147599400D01*
X172948600Y-145750150D01*
X173202600Y-145750150D01*
X173202600Y-147599400D01*
X175051850Y-147599400D01*
X175210600Y-147440650D01*
X175210600Y-146163858D01*
X175186197Y-146041177D01*
X175138330Y-145925615D01*
X175068837Y-145821611D01*
X174980389Y-145733163D01*
X174876385Y-145663670D01*
X174760823Y-145615803D01*
X174638142Y-145591400D01*
X173361350Y-145591400D01*
X173202600Y-145750150D01*
X172948600Y-145750150D01*
X172789850Y-145591400D01*
X171513058Y-145591400D01*
X171390377Y-145615803D01*
X171274815Y-145663670D01*
X171170811Y-145733163D01*
X171082363Y-145821611D01*
X171012870Y-145925615D01*
X170965003Y-146041177D01*
X170940600Y-146163858D01*
X153889532Y-146163858D01*
X153850950Y-146130975D01*
X153687263Y-146057190D01*
X153509500Y-146031928D01*
X152809500Y-146031928D01*
X152708379Y-146039992D01*
X152536866Y-146093106D01*
X152386941Y-146191900D01*
X152270475Y-146328550D01*
X152208002Y-146467142D01*
X152186394Y-146397366D01*
X152087600Y-146247441D01*
X151950950Y-146130975D01*
X151787263Y-146057190D01*
X151609500Y-146031928D01*
X151419500Y-146031928D01*
X151419500Y-143919300D01*
X151571802Y-143766998D01*
X156205002Y-143766998D01*
X156274879Y-143760147D01*
X156344805Y-143754029D01*
X156348643Y-143752914D01*
X156352620Y-143752524D01*
X156419823Y-143732234D01*
X156487242Y-143712647D01*
X156490790Y-143710808D01*
X156494615Y-143709653D01*
X156556593Y-143676699D01*
X156618927Y-143644388D01*
X156622050Y-143641895D01*
X156625580Y-143640018D01*
X156679989Y-143595643D01*
X156734848Y-143551850D01*
X156740408Y-143546367D01*
X156740524Y-143546272D01*
X156740613Y-143546164D01*
X156742403Y-143544399D01*
X159541401Y-140745401D01*
X159585968Y-140691145D01*
X159631086Y-140637375D01*
X159633011Y-140633874D01*
X159635548Y-140630785D01*
X159668713Y-140568933D01*
X159702543Y-140507396D01*
X159703752Y-140503584D01*
X159705639Y-140500065D01*
X159726152Y-140432969D01*
X159747392Y-140366013D01*
X159747838Y-140362041D01*
X159749006Y-140358219D01*
X159756103Y-140288351D01*
X159763926Y-140218611D01*
X159763980Y-140210806D01*
X159763996Y-140210653D01*
X159763982Y-140210510D01*
X159764000Y-140208000D01*
X159764000Y-131124802D01*
X160811401Y-130077401D01*
X160855968Y-130023145D01*
X160901086Y-129969375D01*
X160903011Y-129965874D01*
X160905548Y-129962785D01*
X160938713Y-129900933D01*
X160972543Y-129839396D01*
X160973752Y-129835584D01*
X160975639Y-129832065D01*
X160996152Y-129764969D01*
X161017392Y-129698013D01*
X161017838Y-129694041D01*
X161019006Y-129690219D01*
X161026098Y-129620395D01*
X161033926Y-129550611D01*
X161033981Y-129542796D01*
X161033995Y-129542653D01*
X161033982Y-129542520D01*
X161034000Y-129540000D01*
X161034000Y-118110000D01*
X161027144Y-118040073D01*
X161021030Y-117970197D01*
X161019916Y-117966364D01*
X161019526Y-117962382D01*
X160999224Y-117895138D01*
X160979649Y-117827760D01*
X160977810Y-117824212D01*
X160976655Y-117820387D01*
X160943691Y-117758390D01*
X160911389Y-117696074D01*
X160908897Y-117692953D01*
X160907020Y-117689422D01*
X160862641Y-117635007D01*
X160818852Y-117580154D01*
X160813369Y-117574594D01*
X160813274Y-117574478D01*
X160813166Y-117574389D01*
X160811401Y-117572599D01*
X158494000Y-115255198D01*
X158494000Y-113708998D01*
X158487148Y-113639117D01*
X158481031Y-113569195D01*
X158479916Y-113565357D01*
X158479526Y-113561380D01*
X158459246Y-113494210D01*
X158439650Y-113426759D01*
X158437809Y-113423208D01*
X158436655Y-113419385D01*
X158403710Y-113357424D01*
X158371390Y-113295073D01*
X158368897Y-113291950D01*
X158367020Y-113288420D01*
X158322625Y-113233987D01*
X158278852Y-113179153D01*
X158273370Y-113173594D01*
X158273274Y-113173476D01*
X158273165Y-113173386D01*
X158271401Y-113171597D01*
X157836404Y-112736600D01*
X157782148Y-112692033D01*
X157728378Y-112646915D01*
X157724877Y-112644990D01*
X157721788Y-112642453D01*
X157697072Y-112629200D01*
X157697072Y-112349000D01*
X157689008Y-112247879D01*
X157635894Y-112076366D01*
X157615720Y-112045750D01*
X160958400Y-112045750D01*
X160958400Y-112447542D01*
X160982803Y-112570223D01*
X161030670Y-112685785D01*
X161100163Y-112789789D01*
X161188611Y-112878237D01*
X161292615Y-112947730D01*
X161408177Y-112995597D01*
X161530858Y-113020000D01*
X161807650Y-113020000D01*
X161966400Y-112861250D01*
X161966400Y-111887000D01*
X161117150Y-111887000D01*
X160958400Y-112045750D01*
X157615720Y-112045750D01*
X157598440Y-112019528D01*
X157671810Y-111856763D01*
X157697072Y-111679000D01*
X157697072Y-111079000D01*
X157689008Y-110977879D01*
X157635894Y-110806366D01*
X157598440Y-110749528D01*
X157671810Y-110586763D01*
X157697072Y-110409000D01*
X157697072Y-109809000D01*
X157691948Y-109744750D01*
X158257409Y-110310211D01*
G36*
X129649855Y-112865987D02*
X129693648Y-112920846D01*
X129699131Y-112926406D01*
X129699226Y-112926522D01*
X129699334Y-112926611D01*
X129701099Y-112928401D01*
X130911599Y-114138901D01*
X130965860Y-114183472D01*
X131019625Y-114228586D01*
X131023126Y-114230510D01*
X131026216Y-114233049D01*
X131088101Y-114266231D01*
X131111040Y-114278842D01*
X132032406Y-115200208D01*
X131997008Y-115311797D01*
X131980474Y-115459199D01*
X131980400Y-115469810D01*
X131980400Y-137602400D01*
X131987251Y-137672277D01*
X131993369Y-137742203D01*
X131994484Y-137746041D01*
X131994874Y-137750018D01*
X132015164Y-137817221D01*
X132034751Y-137884640D01*
X132036590Y-137888188D01*
X132037745Y-137892013D01*
X132070699Y-137953991D01*
X132103010Y-138016325D01*
X132105503Y-138019448D01*
X132107380Y-138022978D01*
X132151755Y-138077387D01*
X132195548Y-138132246D01*
X132201031Y-138137806D01*
X132201126Y-138137922D01*
X132201234Y-138138011D01*
X132202999Y-138139801D01*
X135179598Y-141116400D01*
X135233854Y-141160967D01*
X135287624Y-141206085D01*
X135291125Y-141208010D01*
X135294214Y-141210547D01*
X135356101Y-141243731D01*
X135417603Y-141277542D01*
X135421411Y-141278750D01*
X135424934Y-141280639D01*
X135492117Y-141301179D01*
X135558986Y-141322391D01*
X135562953Y-141322836D01*
X135566780Y-141324006D01*
X135636698Y-141331108D01*
X135706388Y-141338925D01*
X135714193Y-141338979D01*
X135714346Y-141338995D01*
X135714489Y-141338981D01*
X135716999Y-141338999D01*
X145080003Y-141338999D01*
X145149880Y-141332148D01*
X145219806Y-141326030D01*
X145223644Y-141324915D01*
X145227621Y-141324525D01*
X145294824Y-141304235D01*
X145362243Y-141284648D01*
X145365791Y-141282809D01*
X145369616Y-141281654D01*
X145431594Y-141248700D01*
X145493928Y-141216389D01*
X145497051Y-141213896D01*
X145500581Y-141212019D01*
X145554990Y-141167644D01*
X145609849Y-141123851D01*
X145615409Y-141118368D01*
X145615525Y-141118273D01*
X145615614Y-141118165D01*
X145617404Y-141116400D01*
X148263801Y-138470003D01*
X148308372Y-138415742D01*
X148353486Y-138361977D01*
X148355410Y-138358476D01*
X148357949Y-138355386D01*
X148391131Y-138293501D01*
X148424943Y-138231998D01*
X148426152Y-138228188D01*
X148428040Y-138224666D01*
X148448576Y-138157498D01*
X148469792Y-138090615D01*
X148470237Y-138086648D01*
X148471407Y-138082821D01*
X148478509Y-138012903D01*
X148486326Y-137943213D01*
X148486380Y-137935408D01*
X148486396Y-137935255D01*
X148486382Y-137935112D01*
X148486400Y-137932602D01*
X148486400Y-127609600D01*
X148471926Y-127461982D01*
X148429055Y-127319987D01*
X148359420Y-127189022D01*
X148265674Y-127074078D01*
X148151387Y-126979531D01*
X148020912Y-126908984D01*
X147879219Y-126865123D01*
X147731706Y-126849619D01*
X147583990Y-126863062D01*
X147441699Y-126904940D01*
X147310252Y-126973659D01*
X147194656Y-127066601D01*
X147099314Y-127180225D01*
X147027857Y-127310204D01*
X146983008Y-127451587D01*
X146966474Y-127598989D01*
X146966400Y-127609600D01*
X146966400Y-137617800D01*
X145667000Y-138917200D01*
X145667000Y-132751747D01*
X145723911Y-132671070D01*
X145798492Y-132503560D01*
X145839116Y-132324754D01*
X145842040Y-132115319D01*
X145806425Y-131935448D01*
X145736550Y-131765920D01*
X145667000Y-131661238D01*
X145667000Y-125131741D01*
X145723911Y-125051064D01*
X145798492Y-124883554D01*
X145839116Y-124704748D01*
X145842040Y-124495313D01*
X145806425Y-124315442D01*
X145736550Y-124145914D01*
X145635079Y-123993187D01*
X145542158Y-123899616D01*
X145560634Y-123893894D01*
X145668219Y-123823000D01*
X145845998Y-123823000D01*
X145915875Y-123816149D01*
X145985801Y-123810031D01*
X145989639Y-123808916D01*
X145993616Y-123808526D01*
X146060819Y-123788236D01*
X146128238Y-123768649D01*
X146131786Y-123766810D01*
X146135611Y-123765655D01*
X146197589Y-123732701D01*
X146259923Y-123700390D01*
X146263046Y-123697897D01*
X146266576Y-123696020D01*
X146320985Y-123651645D01*
X146375844Y-123607852D01*
X146381404Y-123602369D01*
X146381520Y-123602274D01*
X146381609Y-123602166D01*
X146383399Y-123600401D01*
X149409999Y-120573801D01*
X149409999Y-123577001D01*
X149416850Y-123646878D01*
X149422968Y-123716804D01*
X149424083Y-123720642D01*
X149424473Y-123724619D01*
X149444763Y-123791822D01*
X149464350Y-123859241D01*
X149466189Y-123862789D01*
X149467344Y-123866614D01*
X149500298Y-123928592D01*
X149532609Y-123990926D01*
X149535102Y-123994049D01*
X149536979Y-123997579D01*
X149581354Y-124051988D01*
X149625147Y-124106847D01*
X149630630Y-124112407D01*
X149630725Y-124112523D01*
X149630833Y-124112612D01*
X149632598Y-124114402D01*
X150769603Y-125251407D01*
X150823859Y-125295974D01*
X150877629Y-125341092D01*
X150881130Y-125343017D01*
X150884219Y-125345554D01*
X150946106Y-125378738D01*
X151007608Y-125412549D01*
X151011416Y-125413757D01*
X151014939Y-125415646D01*
X151082081Y-125436173D01*
X151148991Y-125457398D01*
X151152963Y-125457844D01*
X151156785Y-125459012D01*
X151226653Y-125466109D01*
X151296393Y-125473932D01*
X151304198Y-125473986D01*
X151304351Y-125474002D01*
X151304494Y-125473988D01*
X151307004Y-125474006D01*
X155704000Y-125474006D01*
X155704000Y-131661918D01*
X155640689Y-131754381D01*
X155568454Y-131922916D01*
X155530331Y-132102272D01*
X155527771Y-132285617D01*
X155560872Y-132465968D01*
X155577000Y-132506703D01*
X155577000Y-139408918D01*
X155513689Y-139501381D01*
X155441454Y-139669916D01*
X155403331Y-139849272D01*
X155400771Y-140032617D01*
X155433872Y-140212968D01*
X155501372Y-140383454D01*
X155600701Y-140537583D01*
X155728076Y-140669484D01*
X155878644Y-140774131D01*
X156046671Y-140847540D01*
X156225757Y-140886915D01*
X156409079Y-140890755D01*
X156589657Y-140858914D01*
X156760610Y-140792606D01*
X156915429Y-140694355D01*
X157048215Y-140567904D01*
X157153911Y-140418070D01*
X157228492Y-140250560D01*
X157269116Y-140071754D01*
X157272040Y-139862319D01*
X157236425Y-139682448D01*
X157166550Y-139512920D01*
X157097000Y-139408238D01*
X157097000Y-132895387D01*
X157175215Y-132820904D01*
X157280911Y-132671070D01*
X157355492Y-132503560D01*
X157396116Y-132324754D01*
X157399040Y-132115319D01*
X157363425Y-131935448D01*
X157293550Y-131765920D01*
X157224000Y-131661238D01*
X157224000Y-125020655D01*
X157228492Y-125010566D01*
X157269116Y-124831760D01*
X157272040Y-124622325D01*
X157236425Y-124442454D01*
X157166550Y-124272926D01*
X157097000Y-124168244D01*
X157097000Y-120075802D01*
X157794802Y-119378000D01*
X158332126Y-119378000D01*
X158418644Y-119438131D01*
X158586671Y-119511540D01*
X158752000Y-119547890D01*
X158752000Y-128740918D01*
X158688689Y-128833381D01*
X158616454Y-129001916D01*
X158578331Y-129181272D01*
X158575771Y-129364617D01*
X158608872Y-129544968D01*
X158676372Y-129715454D01*
X158775701Y-129869583D01*
X158821838Y-129917360D01*
X158466599Y-130272599D01*
X158422032Y-130326855D01*
X158376914Y-130380625D01*
X158374989Y-130384126D01*
X158372452Y-130387215D01*
X158339287Y-130449067D01*
X158305457Y-130510604D01*
X158304248Y-130514416D01*
X158302361Y-130517935D01*
X158281848Y-130585031D01*
X158260608Y-130651987D01*
X158260162Y-130655959D01*
X158258994Y-130659781D01*
X158251897Y-130729649D01*
X158244074Y-130799389D01*
X158244020Y-130807194D01*
X158244004Y-130807347D01*
X158244018Y-130807490D01*
X158244000Y-130810000D01*
X158244000Y-139893198D01*
X155890200Y-142246998D01*
X151257000Y-142246998D01*
X151187119Y-142253850D01*
X151117197Y-142259967D01*
X151113359Y-142261082D01*
X151109382Y-142261472D01*
X151042212Y-142281752D01*
X150974761Y-142301348D01*
X150971210Y-142303189D01*
X150967387Y-142304343D01*
X150905426Y-142337288D01*
X150843075Y-142369608D01*
X150839952Y-142372101D01*
X150836422Y-142373978D01*
X150781989Y-142418373D01*
X150727155Y-142462146D01*
X150721596Y-142467628D01*
X150721478Y-142467724D01*
X150721388Y-142467833D01*
X150719599Y-142469597D01*
X150355500Y-142833696D01*
X150355500Y-142720498D01*
X150196752Y-142720498D01*
X150355500Y-142561750D01*
X150355500Y-142134958D01*
X150331097Y-142012277D01*
X150283230Y-141896715D01*
X150213737Y-141792711D01*
X150125289Y-141704263D01*
X150021285Y-141634770D01*
X149905723Y-141586903D01*
X149783042Y-141562500D01*
X149231250Y-141562500D01*
X149072500Y-141721250D01*
X149072500Y-142720500D01*
X149092500Y-142720500D01*
X149092500Y-142974500D01*
X149072500Y-142974500D01*
X149072500Y-143973750D01*
X149231250Y-144132500D01*
X149783042Y-144132500D01*
X149899500Y-144109335D01*
X149899500Y-146085248D01*
X149898263Y-146084690D01*
X149720500Y-146059428D01*
X148170500Y-146059428D01*
X148069379Y-146067492D01*
X147897866Y-146120606D01*
X147747941Y-146219400D01*
X147631475Y-146356050D01*
X147557690Y-146519737D01*
X147548060Y-146587500D01*
X142397758Y-146587500D01*
X142347394Y-146424866D01*
X142248600Y-146274941D01*
X142111950Y-146158475D01*
X141948263Y-146084690D01*
X141770500Y-146059428D01*
X140220500Y-146059428D01*
X140119379Y-146067492D01*
X139947866Y-146120606D01*
X139797941Y-146219400D01*
X139681475Y-146356050D01*
X139607690Y-146519737D01*
X139582428Y-146697500D01*
X139582428Y-147997500D01*
X139590492Y-148098621D01*
X139643606Y-148270134D01*
X139742400Y-148420059D01*
X139879050Y-148536525D01*
X140042737Y-148610310D01*
X140220500Y-148635572D01*
X141770500Y-148635572D01*
X141871621Y-148627508D01*
X142043134Y-148574394D01*
X142193059Y-148475600D01*
X142309525Y-148338950D01*
X142383310Y-148175263D01*
X142392940Y-148107500D01*
X147543242Y-148107500D01*
X147593606Y-148270134D01*
X147692400Y-148420059D01*
X147829050Y-148536525D01*
X147992737Y-148610310D01*
X148170500Y-148635572D01*
X149720500Y-148635572D01*
X149821621Y-148627508D01*
X149993134Y-148574394D01*
X150143059Y-148475600D01*
X150259525Y-148338950D01*
X150320526Y-148203624D01*
X150332606Y-148242634D01*
X150431400Y-148392559D01*
X150568050Y-148509025D01*
X150731737Y-148582810D01*
X150909500Y-148608072D01*
X151609500Y-148608072D01*
X151710621Y-148600008D01*
X151882134Y-148546894D01*
X152032059Y-148448100D01*
X152148525Y-148311450D01*
X152210998Y-148172858D01*
X152232606Y-148242634D01*
X152331400Y-148392559D01*
X152468050Y-148509025D01*
X152631737Y-148582810D01*
X152809500Y-148608072D01*
X153509500Y-148608072D01*
X153610621Y-148600008D01*
X153782134Y-148546894D01*
X153883298Y-148480232D01*
X154305000Y-148901934D01*
X154305000Y-150265501D01*
X130891106Y-150265501D01*
X130764503Y-150225340D01*
X130755613Y-150224343D01*
X130655666Y-150193786D01*
X130495381Y-150177504D01*
X130334987Y-150192666D01*
X130290256Y-150206001D01*
X127900956Y-150206001D01*
X127876802Y-150198339D01*
X127872174Y-150197820D01*
X127867726Y-150196460D01*
X127811787Y-150190778D01*
X127795494Y-150138166D01*
X127696700Y-149988241D01*
X127609103Y-149913583D01*
X127623389Y-149904037D01*
X127711837Y-149815589D01*
X127781330Y-149711585D01*
X127829197Y-149596023D01*
X127853600Y-149473342D01*
X127853600Y-149196550D01*
X127694850Y-149037800D01*
X126720600Y-149037800D01*
X126720600Y-149057800D01*
X126466600Y-149057800D01*
X126466600Y-149037800D01*
X124587000Y-149037800D01*
X124587000Y-149057800D01*
X124333000Y-149057800D01*
X124333000Y-149037800D01*
X123358750Y-149037800D01*
X123200000Y-149196550D01*
X123200000Y-149473342D01*
X123224403Y-149596023D01*
X123272270Y-149711585D01*
X123341763Y-149815589D01*
X123430211Y-149904037D01*
X123442985Y-149912573D01*
X123412441Y-149932700D01*
X123311690Y-150050911D01*
X122125654Y-148864874D01*
X122125648Y-148864869D01*
X122106505Y-148845726D01*
X122095485Y-148790070D01*
X122018138Y-148602411D01*
X121905813Y-148433349D01*
X121856411Y-148383601D01*
X121891754Y-148348258D01*
X123200000Y-148348258D01*
X123200000Y-148625050D01*
X123358750Y-148783800D01*
X124333000Y-148783800D01*
X124333000Y-147934550D01*
X124587000Y-147934550D01*
X124587000Y-148783800D01*
X126466600Y-148783800D01*
X126466600Y-147934550D01*
X126720600Y-147934550D01*
X126720600Y-148783800D01*
X127694850Y-148783800D01*
X127853600Y-148625050D01*
X127853600Y-148348258D01*
X127829197Y-148225577D01*
X127781330Y-148110015D01*
X127711837Y-148006011D01*
X127623389Y-147917563D01*
X127519385Y-147848070D01*
X127403823Y-147800203D01*
X127281142Y-147775800D01*
X126879350Y-147775800D01*
X126720600Y-147934550D01*
X126466600Y-147934550D01*
X126307850Y-147775800D01*
X125906058Y-147775800D01*
X125783377Y-147800203D01*
X125667815Y-147848070D01*
X125563811Y-147917563D01*
X125526800Y-147954574D01*
X125489789Y-147917563D01*
X125385785Y-147848070D01*
X125270223Y-147800203D01*
X125147542Y-147775800D01*
X124745750Y-147775800D01*
X124587000Y-147934550D01*
X124333000Y-147934550D01*
X124174250Y-147775800D01*
X123772458Y-147775800D01*
X123649777Y-147800203D01*
X123534215Y-147848070D01*
X123430211Y-147917563D01*
X123341763Y-148006011D01*
X123272270Y-148110015D01*
X123224403Y-148225577D01*
X123200000Y-148348258D01*
X121891754Y-148348258D01*
X127106762Y-143133250D01*
X139585500Y-143133250D01*
X139585500Y-143560042D01*
X139609903Y-143682723D01*
X139657770Y-143798285D01*
X139727263Y-143902289D01*
X139815711Y-143990737D01*
X139919715Y-144060230D01*
X140035277Y-144108097D01*
X140157958Y-144132500D01*
X140709750Y-144132500D01*
X140868500Y-143973750D01*
X140868500Y-142974500D01*
X141122500Y-142974500D01*
X141122500Y-143973750D01*
X141281250Y-144132500D01*
X141833042Y-144132500D01*
X141955723Y-144108097D01*
X142071285Y-144060230D01*
X142175289Y-143990737D01*
X142263737Y-143902289D01*
X142333230Y-143798285D01*
X142381097Y-143682723D01*
X142405500Y-143560042D01*
X142405500Y-143133250D01*
X147535500Y-143133250D01*
X147535500Y-143560042D01*
X147559903Y-143682723D01*
X147607770Y-143798285D01*
X147677263Y-143902289D01*
X147765711Y-143990737D01*
X147869715Y-144060230D01*
X147985277Y-144108097D01*
X148107958Y-144132500D01*
X148659750Y-144132500D01*
X148818500Y-143973750D01*
X148818500Y-142974500D01*
X147694250Y-142974500D01*
X147535500Y-143133250D01*
X142405500Y-143133250D01*
X142246750Y-142974500D01*
X141122500Y-142974500D01*
X140868500Y-142974500D01*
X139744250Y-142974500D01*
X139585500Y-143133250D01*
X127106762Y-143133250D01*
X128105054Y-142134958D01*
X139585500Y-142134958D01*
X139585500Y-142561750D01*
X139744250Y-142720500D01*
X140868500Y-142720500D01*
X140868500Y-141721250D01*
X141122500Y-141721250D01*
X141122500Y-142720500D01*
X142246750Y-142720500D01*
X142405500Y-142561750D01*
X142405500Y-142134958D01*
X147535500Y-142134958D01*
X147535500Y-142561750D01*
X147694250Y-142720500D01*
X148818500Y-142720500D01*
X148818500Y-141721250D01*
X148659750Y-141562500D01*
X148107958Y-141562500D01*
X147985277Y-141586903D01*
X147869715Y-141634770D01*
X147765711Y-141704263D01*
X147677263Y-141792711D01*
X147607770Y-141896715D01*
X147559903Y-142012277D01*
X147535500Y-142134958D01*
X142405500Y-142134958D01*
X142381097Y-142012277D01*
X142333230Y-141896715D01*
X142263737Y-141792711D01*
X142175289Y-141704263D01*
X142071285Y-141634770D01*
X141955723Y-141586903D01*
X141833042Y-141562500D01*
X141281250Y-141562500D01*
X141122500Y-141721250D01*
X140868500Y-141721250D01*
X140709750Y-141562500D01*
X140157958Y-141562500D01*
X140035277Y-141586903D01*
X139919715Y-141634770D01*
X139815711Y-141704263D01*
X139727263Y-141792711D01*
X139657770Y-141896715D01*
X139609903Y-142012277D01*
X139585500Y-142134958D01*
X128105054Y-142134958D01*
X129384412Y-140855600D01*
X129428983Y-140801339D01*
X129474097Y-140747574D01*
X129476021Y-140744073D01*
X129478560Y-140740983D01*
X129511742Y-140679098D01*
X129545554Y-140617595D01*
X129546763Y-140613785D01*
X129548651Y-140610263D01*
X129569187Y-140543095D01*
X129590403Y-140476212D01*
X129590848Y-140472245D01*
X129592018Y-140468418D01*
X129599120Y-140398500D01*
X129606937Y-140328810D01*
X129606991Y-140321005D01*
X129607007Y-140320852D01*
X129606993Y-140320709D01*
X129607011Y-140318199D01*
X129607011Y-139004289D01*
X129724645Y-139086047D01*
X129973541Y-139194786D01*
X130238817Y-139253111D01*
X130510370Y-139258799D01*
X130777856Y-139211634D01*
X131031087Y-139113413D01*
X131260417Y-138967875D01*
X131457111Y-138780566D01*
X131613677Y-138558619D01*
X131724152Y-138310489D01*
X131784327Y-138045626D01*
X131788659Y-137735394D01*
X131735903Y-137468954D01*
X131632399Y-137217836D01*
X131482091Y-136991604D01*
X131290704Y-136798876D01*
X131065527Y-136646992D01*
X130815137Y-136541738D01*
X130549072Y-136487123D01*
X130277467Y-136485227D01*
X130010665Y-136536122D01*
X129758830Y-136637870D01*
X129607011Y-136737218D01*
X129607011Y-112813455D01*
X129649855Y-112865987D01*
X129649855Y-112865987D01*
G37*
X129649855Y-112865987D02*
X129693648Y-112920846D01*
X129699131Y-112926406D01*
X129699226Y-112926522D01*
X129699334Y-112926611D01*
X129701099Y-112928401D01*
X130911599Y-114138901D01*
X130965860Y-114183472D01*
X131019625Y-114228586D01*
X131023126Y-114230510D01*
X131026216Y-114233049D01*
X131088101Y-114266231D01*
X131111040Y-114278842D01*
X132032406Y-115200208D01*
X131997008Y-115311797D01*
X131980474Y-115459199D01*
X131980400Y-115469810D01*
X131980400Y-137602400D01*
X131987251Y-137672277D01*
X131993369Y-137742203D01*
X131994484Y-137746041D01*
X131994874Y-137750018D01*
X132015164Y-137817221D01*
X132034751Y-137884640D01*
X132036590Y-137888188D01*
X132037745Y-137892013D01*
X132070699Y-137953991D01*
X132103010Y-138016325D01*
X132105503Y-138019448D01*
X132107380Y-138022978D01*
X132151755Y-138077387D01*
X132195548Y-138132246D01*
X132201031Y-138137806D01*
X132201126Y-138137922D01*
X132201234Y-138138011D01*
X132202999Y-138139801D01*
X135179598Y-141116400D01*
X135233854Y-141160967D01*
X135287624Y-141206085D01*
X135291125Y-141208010D01*
X135294214Y-141210547D01*
X135356101Y-141243731D01*
X135417603Y-141277542D01*
X135421411Y-141278750D01*
X135424934Y-141280639D01*
X135492117Y-141301179D01*
X135558986Y-141322391D01*
X135562953Y-141322836D01*
X135566780Y-141324006D01*
X135636698Y-141331108D01*
X135706388Y-141338925D01*
X135714193Y-141338979D01*
X135714346Y-141338995D01*
X135714489Y-141338981D01*
X135716999Y-141338999D01*
X145080003Y-141338999D01*
X145149880Y-141332148D01*
X145219806Y-141326030D01*
X145223644Y-141324915D01*
X145227621Y-141324525D01*
X145294824Y-141304235D01*
X145362243Y-141284648D01*
X145365791Y-141282809D01*
X145369616Y-141281654D01*
X145431594Y-141248700D01*
X145493928Y-141216389D01*
X145497051Y-141213896D01*
X145500581Y-141212019D01*
X145554990Y-141167644D01*
X145609849Y-141123851D01*
X145615409Y-141118368D01*
X145615525Y-141118273D01*
X145615614Y-141118165D01*
X145617404Y-141116400D01*
X148263801Y-138470003D01*
X148308372Y-138415742D01*
X148353486Y-138361977D01*
X148355410Y-138358476D01*
X148357949Y-138355386D01*
X148391131Y-138293501D01*
X148424943Y-138231998D01*
X148426152Y-138228188D01*
X148428040Y-138224666D01*
X148448576Y-138157498D01*
X148469792Y-138090615D01*
X148470237Y-138086648D01*
X148471407Y-138082821D01*
X148478509Y-138012903D01*
X148486326Y-137943213D01*
X148486380Y-137935408D01*
X148486396Y-137935255D01*
X148486382Y-137935112D01*
X148486400Y-137932602D01*
X148486400Y-127609600D01*
X148471926Y-127461982D01*
X148429055Y-127319987D01*
X148359420Y-127189022D01*
X148265674Y-127074078D01*
X148151387Y-126979531D01*
X148020912Y-126908984D01*
X147879219Y-126865123D01*
X147731706Y-126849619D01*
X147583990Y-126863062D01*
X147441699Y-126904940D01*
X147310252Y-126973659D01*
X147194656Y-127066601D01*
X147099314Y-127180225D01*
X147027857Y-127310204D01*
X146983008Y-127451587D01*
X146966474Y-127598989D01*
X146966400Y-127609600D01*
X146966400Y-137617800D01*
X145667000Y-138917200D01*
X145667000Y-132751747D01*
X145723911Y-132671070D01*
X145798492Y-132503560D01*
X145839116Y-132324754D01*
X145842040Y-132115319D01*
X145806425Y-131935448D01*
X145736550Y-131765920D01*
X145667000Y-131661238D01*
X145667000Y-125131741D01*
X145723911Y-125051064D01*
X145798492Y-124883554D01*
X145839116Y-124704748D01*
X145842040Y-124495313D01*
X145806425Y-124315442D01*
X145736550Y-124145914D01*
X145635079Y-123993187D01*
X145542158Y-123899616D01*
X145560634Y-123893894D01*
X145668219Y-123823000D01*
X145845998Y-123823000D01*
X145915875Y-123816149D01*
X145985801Y-123810031D01*
X145989639Y-123808916D01*
X145993616Y-123808526D01*
X146060819Y-123788236D01*
X146128238Y-123768649D01*
X146131786Y-123766810D01*
X146135611Y-123765655D01*
X146197589Y-123732701D01*
X146259923Y-123700390D01*
X146263046Y-123697897D01*
X146266576Y-123696020D01*
X146320985Y-123651645D01*
X146375844Y-123607852D01*
X146381404Y-123602369D01*
X146381520Y-123602274D01*
X146381609Y-123602166D01*
X146383399Y-123600401D01*
X149409999Y-120573801D01*
X149409999Y-123577001D01*
X149416850Y-123646878D01*
X149422968Y-123716804D01*
X149424083Y-123720642D01*
X149424473Y-123724619D01*
X149444763Y-123791822D01*
X149464350Y-123859241D01*
X149466189Y-123862789D01*
X149467344Y-123866614D01*
X149500298Y-123928592D01*
X149532609Y-123990926D01*
X149535102Y-123994049D01*
X149536979Y-123997579D01*
X149581354Y-124051988D01*
X149625147Y-124106847D01*
X149630630Y-124112407D01*
X149630725Y-124112523D01*
X149630833Y-124112612D01*
X149632598Y-124114402D01*
X150769603Y-125251407D01*
X150823859Y-125295974D01*
X150877629Y-125341092D01*
X150881130Y-125343017D01*
X150884219Y-125345554D01*
X150946106Y-125378738D01*
X151007608Y-125412549D01*
X151011416Y-125413757D01*
X151014939Y-125415646D01*
X151082081Y-125436173D01*
X151148991Y-125457398D01*
X151152963Y-125457844D01*
X151156785Y-125459012D01*
X151226653Y-125466109D01*
X151296393Y-125473932D01*
X151304198Y-125473986D01*
X151304351Y-125474002D01*
X151304494Y-125473988D01*
X151307004Y-125474006D01*
X155704000Y-125474006D01*
X155704000Y-131661918D01*
X155640689Y-131754381D01*
X155568454Y-131922916D01*
X155530331Y-132102272D01*
X155527771Y-132285617D01*
X155560872Y-132465968D01*
X155577000Y-132506703D01*
X155577000Y-139408918D01*
X155513689Y-139501381D01*
X155441454Y-139669916D01*
X155403331Y-139849272D01*
X155400771Y-140032617D01*
X155433872Y-140212968D01*
X155501372Y-140383454D01*
X155600701Y-140537583D01*
X155728076Y-140669484D01*
X155878644Y-140774131D01*
X156046671Y-140847540D01*
X156225757Y-140886915D01*
X156409079Y-140890755D01*
X156589657Y-140858914D01*
X156760610Y-140792606D01*
X156915429Y-140694355D01*
X157048215Y-140567904D01*
X157153911Y-140418070D01*
X157228492Y-140250560D01*
X157269116Y-140071754D01*
X157272040Y-139862319D01*
X157236425Y-139682448D01*
X157166550Y-139512920D01*
X157097000Y-139408238D01*
X157097000Y-132895387D01*
X157175215Y-132820904D01*
X157280911Y-132671070D01*
X157355492Y-132503560D01*
X157396116Y-132324754D01*
X157399040Y-132115319D01*
X157363425Y-131935448D01*
X157293550Y-131765920D01*
X157224000Y-131661238D01*
X157224000Y-125020655D01*
X157228492Y-125010566D01*
X157269116Y-124831760D01*
X157272040Y-124622325D01*
X157236425Y-124442454D01*
X157166550Y-124272926D01*
X157097000Y-124168244D01*
X157097000Y-120075802D01*
X157794802Y-119378000D01*
X158332126Y-119378000D01*
X158418644Y-119438131D01*
X158586671Y-119511540D01*
X158752000Y-119547890D01*
X158752000Y-128740918D01*
X158688689Y-128833381D01*
X158616454Y-129001916D01*
X158578331Y-129181272D01*
X158575771Y-129364617D01*
X158608872Y-129544968D01*
X158676372Y-129715454D01*
X158775701Y-129869583D01*
X158821838Y-129917360D01*
X158466599Y-130272599D01*
X158422032Y-130326855D01*
X158376914Y-130380625D01*
X158374989Y-130384126D01*
X158372452Y-130387215D01*
X158339287Y-130449067D01*
X158305457Y-130510604D01*
X158304248Y-130514416D01*
X158302361Y-130517935D01*
X158281848Y-130585031D01*
X158260608Y-130651987D01*
X158260162Y-130655959D01*
X158258994Y-130659781D01*
X158251897Y-130729649D01*
X158244074Y-130799389D01*
X158244020Y-130807194D01*
X158244004Y-130807347D01*
X158244018Y-130807490D01*
X158244000Y-130810000D01*
X158244000Y-139893198D01*
X155890200Y-142246998D01*
X151257000Y-142246998D01*
X151187119Y-142253850D01*
X151117197Y-142259967D01*
X151113359Y-142261082D01*
X151109382Y-142261472D01*
X151042212Y-142281752D01*
X150974761Y-142301348D01*
X150971210Y-142303189D01*
X150967387Y-142304343D01*
X150905426Y-142337288D01*
X150843075Y-142369608D01*
X150839952Y-142372101D01*
X150836422Y-142373978D01*
X150781989Y-142418373D01*
X150727155Y-142462146D01*
X150721596Y-142467628D01*
X150721478Y-142467724D01*
X150721388Y-142467833D01*
X150719599Y-142469597D01*
X150355500Y-142833696D01*
X150355500Y-142720498D01*
X150196752Y-142720498D01*
X150355500Y-142561750D01*
X150355500Y-142134958D01*
X150331097Y-142012277D01*
X150283230Y-141896715D01*
X150213737Y-141792711D01*
X150125289Y-141704263D01*
X150021285Y-141634770D01*
X149905723Y-141586903D01*
X149783042Y-141562500D01*
X149231250Y-141562500D01*
X149072500Y-141721250D01*
X149072500Y-142720500D01*
X149092500Y-142720500D01*
X149092500Y-142974500D01*
X149072500Y-142974500D01*
X149072500Y-143973750D01*
X149231250Y-144132500D01*
X149783042Y-144132500D01*
X149899500Y-144109335D01*
X149899500Y-146085248D01*
X149898263Y-146084690D01*
X149720500Y-146059428D01*
X148170500Y-146059428D01*
X148069379Y-146067492D01*
X147897866Y-146120606D01*
X147747941Y-146219400D01*
X147631475Y-146356050D01*
X147557690Y-146519737D01*
X147548060Y-146587500D01*
X142397758Y-146587500D01*
X142347394Y-146424866D01*
X142248600Y-146274941D01*
X142111950Y-146158475D01*
X141948263Y-146084690D01*
X141770500Y-146059428D01*
X140220500Y-146059428D01*
X140119379Y-146067492D01*
X139947866Y-146120606D01*
X139797941Y-146219400D01*
X139681475Y-146356050D01*
X139607690Y-146519737D01*
X139582428Y-146697500D01*
X139582428Y-147997500D01*
X139590492Y-148098621D01*
X139643606Y-148270134D01*
X139742400Y-148420059D01*
X139879050Y-148536525D01*
X140042737Y-148610310D01*
X140220500Y-148635572D01*
X141770500Y-148635572D01*
X141871621Y-148627508D01*
X142043134Y-148574394D01*
X142193059Y-148475600D01*
X142309525Y-148338950D01*
X142383310Y-148175263D01*
X142392940Y-148107500D01*
X147543242Y-148107500D01*
X147593606Y-148270134D01*
X147692400Y-148420059D01*
X147829050Y-148536525D01*
X147992737Y-148610310D01*
X148170500Y-148635572D01*
X149720500Y-148635572D01*
X149821621Y-148627508D01*
X149993134Y-148574394D01*
X150143059Y-148475600D01*
X150259525Y-148338950D01*
X150320526Y-148203624D01*
X150332606Y-148242634D01*
X150431400Y-148392559D01*
X150568050Y-148509025D01*
X150731737Y-148582810D01*
X150909500Y-148608072D01*
X151609500Y-148608072D01*
X151710621Y-148600008D01*
X151882134Y-148546894D01*
X152032059Y-148448100D01*
X152148525Y-148311450D01*
X152210998Y-148172858D01*
X152232606Y-148242634D01*
X152331400Y-148392559D01*
X152468050Y-148509025D01*
X152631737Y-148582810D01*
X152809500Y-148608072D01*
X153509500Y-148608072D01*
X153610621Y-148600008D01*
X153782134Y-148546894D01*
X153883298Y-148480232D01*
X154305000Y-148901934D01*
X154305000Y-150265501D01*
X130891106Y-150265501D01*
X130764503Y-150225340D01*
X130755613Y-150224343D01*
X130655666Y-150193786D01*
X130495381Y-150177504D01*
X130334987Y-150192666D01*
X130290256Y-150206001D01*
X127900956Y-150206001D01*
X127876802Y-150198339D01*
X127872174Y-150197820D01*
X127867726Y-150196460D01*
X127811787Y-150190778D01*
X127795494Y-150138166D01*
X127696700Y-149988241D01*
X127609103Y-149913583D01*
X127623389Y-149904037D01*
X127711837Y-149815589D01*
X127781330Y-149711585D01*
X127829197Y-149596023D01*
X127853600Y-149473342D01*
X127853600Y-149196550D01*
X127694850Y-149037800D01*
X126720600Y-149037800D01*
X126720600Y-149057800D01*
X126466600Y-149057800D01*
X126466600Y-149037800D01*
X124587000Y-149037800D01*
X124587000Y-149057800D01*
X124333000Y-149057800D01*
X124333000Y-149037800D01*
X123358750Y-149037800D01*
X123200000Y-149196550D01*
X123200000Y-149473342D01*
X123224403Y-149596023D01*
X123272270Y-149711585D01*
X123341763Y-149815589D01*
X123430211Y-149904037D01*
X123442985Y-149912573D01*
X123412441Y-149932700D01*
X123311690Y-150050911D01*
X122125654Y-148864874D01*
X122125648Y-148864869D01*
X122106505Y-148845726D01*
X122095485Y-148790070D01*
X122018138Y-148602411D01*
X121905813Y-148433349D01*
X121856411Y-148383601D01*
X121891754Y-148348258D01*
X123200000Y-148348258D01*
X123200000Y-148625050D01*
X123358750Y-148783800D01*
X124333000Y-148783800D01*
X124333000Y-147934550D01*
X124587000Y-147934550D01*
X124587000Y-148783800D01*
X126466600Y-148783800D01*
X126466600Y-147934550D01*
X126720600Y-147934550D01*
X126720600Y-148783800D01*
X127694850Y-148783800D01*
X127853600Y-148625050D01*
X127853600Y-148348258D01*
X127829197Y-148225577D01*
X127781330Y-148110015D01*
X127711837Y-148006011D01*
X127623389Y-147917563D01*
X127519385Y-147848070D01*
X127403823Y-147800203D01*
X127281142Y-147775800D01*
X126879350Y-147775800D01*
X126720600Y-147934550D01*
X126466600Y-147934550D01*
X126307850Y-147775800D01*
X125906058Y-147775800D01*
X125783377Y-147800203D01*
X125667815Y-147848070D01*
X125563811Y-147917563D01*
X125526800Y-147954574D01*
X125489789Y-147917563D01*
X125385785Y-147848070D01*
X125270223Y-147800203D01*
X125147542Y-147775800D01*
X124745750Y-147775800D01*
X124587000Y-147934550D01*
X124333000Y-147934550D01*
X124174250Y-147775800D01*
X123772458Y-147775800D01*
X123649777Y-147800203D01*
X123534215Y-147848070D01*
X123430211Y-147917563D01*
X123341763Y-148006011D01*
X123272270Y-148110015D01*
X123224403Y-148225577D01*
X123200000Y-148348258D01*
X121891754Y-148348258D01*
X127106762Y-143133250D01*
X139585500Y-143133250D01*
X139585500Y-143560042D01*
X139609903Y-143682723D01*
X139657770Y-143798285D01*
X139727263Y-143902289D01*
X139815711Y-143990737D01*
X139919715Y-144060230D01*
X140035277Y-144108097D01*
X140157958Y-144132500D01*
X140709750Y-144132500D01*
X140868500Y-143973750D01*
X140868500Y-142974500D01*
X141122500Y-142974500D01*
X141122500Y-143973750D01*
X141281250Y-144132500D01*
X141833042Y-144132500D01*
X141955723Y-144108097D01*
X142071285Y-144060230D01*
X142175289Y-143990737D01*
X142263737Y-143902289D01*
X142333230Y-143798285D01*
X142381097Y-143682723D01*
X142405500Y-143560042D01*
X142405500Y-143133250D01*
X147535500Y-143133250D01*
X147535500Y-143560042D01*
X147559903Y-143682723D01*
X147607770Y-143798285D01*
X147677263Y-143902289D01*
X147765711Y-143990737D01*
X147869715Y-144060230D01*
X147985277Y-144108097D01*
X148107958Y-144132500D01*
X148659750Y-144132500D01*
X148818500Y-143973750D01*
X148818500Y-142974500D01*
X147694250Y-142974500D01*
X147535500Y-143133250D01*
X142405500Y-143133250D01*
X142246750Y-142974500D01*
X141122500Y-142974500D01*
X140868500Y-142974500D01*
X139744250Y-142974500D01*
X139585500Y-143133250D01*
X127106762Y-143133250D01*
X128105054Y-142134958D01*
X139585500Y-142134958D01*
X139585500Y-142561750D01*
X139744250Y-142720500D01*
X140868500Y-142720500D01*
X140868500Y-141721250D01*
X141122500Y-141721250D01*
X141122500Y-142720500D01*
X142246750Y-142720500D01*
X142405500Y-142561750D01*
X142405500Y-142134958D01*
X147535500Y-142134958D01*
X147535500Y-142561750D01*
X147694250Y-142720500D01*
X148818500Y-142720500D01*
X148818500Y-141721250D01*
X148659750Y-141562500D01*
X148107958Y-141562500D01*
X147985277Y-141586903D01*
X147869715Y-141634770D01*
X147765711Y-141704263D01*
X147677263Y-141792711D01*
X147607770Y-141896715D01*
X147559903Y-142012277D01*
X147535500Y-142134958D01*
X142405500Y-142134958D01*
X142381097Y-142012277D01*
X142333230Y-141896715D01*
X142263737Y-141792711D01*
X142175289Y-141704263D01*
X142071285Y-141634770D01*
X141955723Y-141586903D01*
X141833042Y-141562500D01*
X141281250Y-141562500D01*
X141122500Y-141721250D01*
X140868500Y-141721250D01*
X140709750Y-141562500D01*
X140157958Y-141562500D01*
X140035277Y-141586903D01*
X139919715Y-141634770D01*
X139815711Y-141704263D01*
X139727263Y-141792711D01*
X139657770Y-141896715D01*
X139609903Y-142012277D01*
X139585500Y-142134958D01*
X128105054Y-142134958D01*
X129384412Y-140855600D01*
X129428983Y-140801339D01*
X129474097Y-140747574D01*
X129476021Y-140744073D01*
X129478560Y-140740983D01*
X129511742Y-140679098D01*
X129545554Y-140617595D01*
X129546763Y-140613785D01*
X129548651Y-140610263D01*
X129569187Y-140543095D01*
X129590403Y-140476212D01*
X129590848Y-140472245D01*
X129592018Y-140468418D01*
X129599120Y-140398500D01*
X129606937Y-140328810D01*
X129606991Y-140321005D01*
X129607007Y-140320852D01*
X129606993Y-140320709D01*
X129607011Y-140318199D01*
X129607011Y-139004289D01*
X129724645Y-139086047D01*
X129973541Y-139194786D01*
X130238817Y-139253111D01*
X130510370Y-139258799D01*
X130777856Y-139211634D01*
X131031087Y-139113413D01*
X131260417Y-138967875D01*
X131457111Y-138780566D01*
X131613677Y-138558619D01*
X131724152Y-138310489D01*
X131784327Y-138045626D01*
X131788659Y-137735394D01*
X131735903Y-137468954D01*
X131632399Y-137217836D01*
X131482091Y-136991604D01*
X131290704Y-136798876D01*
X131065527Y-136646992D01*
X130815137Y-136541738D01*
X130549072Y-136487123D01*
X130277467Y-136485227D01*
X130010665Y-136536122D01*
X129758830Y-136637870D01*
X129607011Y-136737218D01*
X129607011Y-112813455D01*
X129649855Y-112865987D01*
G36*
X127637000Y-136854667D02*
X127480704Y-136697276D01*
X127255527Y-136545392D01*
X127005137Y-136440138D01*
X126739072Y-136385523D01*
X126467467Y-136383627D01*
X126200665Y-136434522D01*
X125948830Y-136536270D01*
X125721555Y-136684995D01*
X125527495Y-136875032D01*
X125374043Y-137099143D01*
X125267044Y-137348792D01*
X125210572Y-137614469D01*
X125206780Y-137886055D01*
X125255811Y-138153205D01*
X125355798Y-138405744D01*
X125502933Y-138634052D01*
X125691611Y-138829434D01*
X125914645Y-138984447D01*
X126163541Y-139093186D01*
X126428817Y-139151511D01*
X126700370Y-139157199D01*
X126967856Y-139110034D01*
X127221087Y-139011813D01*
X127450417Y-138866275D01*
X127637000Y-138688595D01*
X127637000Y-139816998D01*
X120183538Y-147270460D01*
X120186742Y-147041011D01*
X120147318Y-146841903D01*
X120069971Y-146654244D01*
X120036698Y-146604164D01*
X120036698Y-142583198D01*
X120028716Y-142501797D01*
X120021595Y-142420401D01*
X120020297Y-142415934D01*
X120019843Y-142411301D01*
X119996218Y-142333050D01*
X119973408Y-142254537D01*
X119971265Y-142250403D01*
X119969921Y-142245951D01*
X119931552Y-142173789D01*
X119893921Y-142101192D01*
X119891018Y-142097556D01*
X119888833Y-142093446D01*
X119837169Y-142030100D01*
X119786164Y-141966207D01*
X119779775Y-141959728D01*
X119779668Y-141959597D01*
X119779547Y-141959497D01*
X119777487Y-141957408D01*
X119751790Y-141931710D01*
X119618322Y-141822079D01*
X119488290Y-141752357D01*
X119197936Y-141462003D01*
X119136813Y-141344083D01*
X119029055Y-141209098D01*
X119020378Y-141200299D01*
X118707890Y-140887810D01*
X118644674Y-140835884D01*
X118582096Y-140783375D01*
X118578019Y-140781134D01*
X118574422Y-140778179D01*
X118502392Y-140739557D01*
X118444101Y-140707511D01*
X118400300Y-140641041D01*
X118312703Y-140566383D01*
X118326989Y-140556837D01*
X118415437Y-140468389D01*
X118484930Y-140364385D01*
X118532797Y-140248823D01*
X118557200Y-140126142D01*
X118557200Y-139849350D01*
X118398450Y-139690600D01*
X117424200Y-139690600D01*
X117424200Y-139710600D01*
X117170200Y-139710600D01*
X117170200Y-139690600D01*
X116195950Y-139690600D01*
X116037200Y-139849350D01*
X116037200Y-140126142D01*
X116061603Y-140248823D01*
X116109470Y-140364385D01*
X116178963Y-140468389D01*
X116267411Y-140556837D01*
X116280185Y-140565373D01*
X116249641Y-140585500D01*
X116133175Y-140722150D01*
X116059390Y-140885837D01*
X116043083Y-141000589D01*
X115752022Y-141000589D01*
X115290117Y-140538683D01*
X115231174Y-140490267D01*
X115172780Y-140441269D01*
X115168975Y-140439177D01*
X115165622Y-140436423D01*
X115147021Y-140426449D01*
X115265215Y-140313894D01*
X115370911Y-140164060D01*
X115445492Y-139996550D01*
X115480455Y-139842663D01*
X115508120Y-139820578D01*
X115513680Y-139815095D01*
X115513796Y-139815000D01*
X115513885Y-139814892D01*
X115515675Y-139813127D01*
X116044076Y-139284726D01*
X116195950Y-139436600D01*
X117170200Y-139436600D01*
X117170200Y-138587350D01*
X117424200Y-138587350D01*
X117424200Y-139436600D01*
X118398450Y-139436600D01*
X118557200Y-139277850D01*
X118557200Y-139001058D01*
X118532797Y-138878377D01*
X118484930Y-138762815D01*
X118415437Y-138658811D01*
X118326989Y-138570363D01*
X118222985Y-138500870D01*
X118107423Y-138453003D01*
X117984742Y-138428600D01*
X117582950Y-138428600D01*
X117424200Y-138587350D01*
X117170200Y-138587350D01*
X117011450Y-138428600D01*
X116900202Y-138428600D01*
X120361901Y-134966901D01*
X120406472Y-134912640D01*
X120451586Y-134858875D01*
X120453510Y-134855374D01*
X120456049Y-134852284D01*
X120489231Y-134790399D01*
X120523043Y-134728896D01*
X120524252Y-134725086D01*
X120526140Y-134721564D01*
X120546676Y-134654396D01*
X120567892Y-134587513D01*
X120568337Y-134583546D01*
X120569507Y-134579719D01*
X120576609Y-134509801D01*
X120584426Y-134440111D01*
X120584480Y-134432306D01*
X120584496Y-134432153D01*
X120584482Y-134432010D01*
X120584500Y-134429500D01*
X120584500Y-132624747D01*
X120641411Y-132544070D01*
X120715992Y-132376560D01*
X120756616Y-132197754D01*
X120759540Y-131988319D01*
X120723925Y-131808448D01*
X120654050Y-131638920D01*
X120584500Y-131534238D01*
X120584500Y-125004747D01*
X120641411Y-124924070D01*
X120715992Y-124756560D01*
X120756616Y-124577754D01*
X120759540Y-124368319D01*
X120723925Y-124188448D01*
X120654050Y-124018920D01*
X120584500Y-123914238D01*
X120584500Y-117384747D01*
X120641411Y-117304070D01*
X120715992Y-117136560D01*
X120756616Y-116957754D01*
X120759540Y-116748319D01*
X120723925Y-116568448D01*
X120654050Y-116398920D01*
X120584500Y-116294238D01*
X120584500Y-114106802D01*
X122520901Y-112170401D01*
X122565468Y-112116145D01*
X122607064Y-112066572D01*
X122594848Y-112106531D01*
X122573608Y-112173487D01*
X122573162Y-112177459D01*
X122571994Y-112181281D01*
X122564897Y-112251149D01*
X122557074Y-112320889D01*
X122557020Y-112328694D01*
X122557004Y-112328847D01*
X122557018Y-112328990D01*
X122557000Y-112331500D01*
X122557000Y-123845122D01*
X122518763Y-123882567D01*
X122415169Y-124033862D01*
X122342934Y-124202397D01*
X122304811Y-124381753D01*
X122302251Y-124565098D01*
X122335352Y-124745449D01*
X122402852Y-124915935D01*
X122502181Y-125070064D01*
X122557000Y-125126831D01*
X122557000Y-131661920D01*
X122493689Y-131754383D01*
X122421454Y-131922918D01*
X122383331Y-132102274D01*
X122380771Y-132285619D01*
X122413872Y-132465970D01*
X122481372Y-132636456D01*
X122557000Y-132753808D01*
X122557000Y-138519946D01*
X122516707Y-138578792D01*
X122444472Y-138747327D01*
X122406349Y-138926683D01*
X122403789Y-139110028D01*
X122436890Y-139290379D01*
X122504390Y-139460865D01*
X122603719Y-139614994D01*
X122731094Y-139746895D01*
X122881662Y-139851542D01*
X123049689Y-139924951D01*
X123228775Y-139964326D01*
X123412097Y-139968166D01*
X123592675Y-139936325D01*
X123763628Y-139870017D01*
X123918447Y-139771766D01*
X124051233Y-139645315D01*
X124156929Y-139495481D01*
X124231510Y-139327971D01*
X124272134Y-139149165D01*
X124275058Y-138939730D01*
X124239443Y-138759859D01*
X124169568Y-138590331D01*
X124077000Y-138451004D01*
X124077000Y-132751749D01*
X124133911Y-132671072D01*
X124208492Y-132503562D01*
X124249116Y-132324756D01*
X124252040Y-132115321D01*
X124216425Y-131935450D01*
X124146550Y-131765922D01*
X124077000Y-131661240D01*
X124077000Y-124902017D01*
X124129972Y-124783041D01*
X124170596Y-124604235D01*
X124173520Y-124394800D01*
X124137905Y-124214929D01*
X124077000Y-124067164D01*
X124077000Y-114605472D01*
X124289045Y-114752847D01*
X124537941Y-114861586D01*
X124803217Y-114919911D01*
X125074770Y-114925599D01*
X125342256Y-114878434D01*
X125595487Y-114780213D01*
X125824817Y-114634675D01*
X126021511Y-114447366D01*
X126178077Y-114225419D01*
X126288552Y-113977289D01*
X126348727Y-113712426D01*
X126353059Y-113402194D01*
X126324226Y-113256576D01*
X127637000Y-111943802D01*
X127637000Y-136854667D01*
X127637000Y-136854667D01*
G37*
X127637000Y-136854667D02*
X127480704Y-136697276D01*
X127255527Y-136545392D01*
X127005137Y-136440138D01*
X126739072Y-136385523D01*
X126467467Y-136383627D01*
X126200665Y-136434522D01*
X125948830Y-136536270D01*
X125721555Y-136684995D01*
X125527495Y-136875032D01*
X125374043Y-137099143D01*
X125267044Y-137348792D01*
X125210572Y-137614469D01*
X125206780Y-137886055D01*
X125255811Y-138153205D01*
X125355798Y-138405744D01*
X125502933Y-138634052D01*
X125691611Y-138829434D01*
X125914645Y-138984447D01*
X126163541Y-139093186D01*
X126428817Y-139151511D01*
X126700370Y-139157199D01*
X126967856Y-139110034D01*
X127221087Y-139011813D01*
X127450417Y-138866275D01*
X127637000Y-138688595D01*
X127637000Y-139816998D01*
X120183538Y-147270460D01*
X120186742Y-147041011D01*
X120147318Y-146841903D01*
X120069971Y-146654244D01*
X120036698Y-146604164D01*
X120036698Y-142583198D01*
X120028716Y-142501797D01*
X120021595Y-142420401D01*
X120020297Y-142415934D01*
X120019843Y-142411301D01*
X119996218Y-142333050D01*
X119973408Y-142254537D01*
X119971265Y-142250403D01*
X119969921Y-142245951D01*
X119931552Y-142173789D01*
X119893921Y-142101192D01*
X119891018Y-142097556D01*
X119888833Y-142093446D01*
X119837169Y-142030100D01*
X119786164Y-141966207D01*
X119779775Y-141959728D01*
X119779668Y-141959597D01*
X119779547Y-141959497D01*
X119777487Y-141957408D01*
X119751790Y-141931710D01*
X119618322Y-141822079D01*
X119488290Y-141752357D01*
X119197936Y-141462003D01*
X119136813Y-141344083D01*
X119029055Y-141209098D01*
X119020378Y-141200299D01*
X118707890Y-140887810D01*
X118644674Y-140835884D01*
X118582096Y-140783375D01*
X118578019Y-140781134D01*
X118574422Y-140778179D01*
X118502392Y-140739557D01*
X118444101Y-140707511D01*
X118400300Y-140641041D01*
X118312703Y-140566383D01*
X118326989Y-140556837D01*
X118415437Y-140468389D01*
X118484930Y-140364385D01*
X118532797Y-140248823D01*
X118557200Y-140126142D01*
X118557200Y-139849350D01*
X118398450Y-139690600D01*
X117424200Y-139690600D01*
X117424200Y-139710600D01*
X117170200Y-139710600D01*
X117170200Y-139690600D01*
X116195950Y-139690600D01*
X116037200Y-139849350D01*
X116037200Y-140126142D01*
X116061603Y-140248823D01*
X116109470Y-140364385D01*
X116178963Y-140468389D01*
X116267411Y-140556837D01*
X116280185Y-140565373D01*
X116249641Y-140585500D01*
X116133175Y-140722150D01*
X116059390Y-140885837D01*
X116043083Y-141000589D01*
X115752022Y-141000589D01*
X115290117Y-140538683D01*
X115231174Y-140490267D01*
X115172780Y-140441269D01*
X115168975Y-140439177D01*
X115165622Y-140436423D01*
X115147021Y-140426449D01*
X115265215Y-140313894D01*
X115370911Y-140164060D01*
X115445492Y-139996550D01*
X115480455Y-139842663D01*
X115508120Y-139820578D01*
X115513680Y-139815095D01*
X115513796Y-139815000D01*
X115513885Y-139814892D01*
X115515675Y-139813127D01*
X116044076Y-139284726D01*
X116195950Y-139436600D01*
X117170200Y-139436600D01*
X117170200Y-138587350D01*
X117424200Y-138587350D01*
X117424200Y-139436600D01*
X118398450Y-139436600D01*
X118557200Y-139277850D01*
X118557200Y-139001058D01*
X118532797Y-138878377D01*
X118484930Y-138762815D01*
X118415437Y-138658811D01*
X118326989Y-138570363D01*
X118222985Y-138500870D01*
X118107423Y-138453003D01*
X117984742Y-138428600D01*
X117582950Y-138428600D01*
X117424200Y-138587350D01*
X117170200Y-138587350D01*
X117011450Y-138428600D01*
X116900202Y-138428600D01*
X120361901Y-134966901D01*
X120406472Y-134912640D01*
X120451586Y-134858875D01*
X120453510Y-134855374D01*
X120456049Y-134852284D01*
X120489231Y-134790399D01*
X120523043Y-134728896D01*
X120524252Y-134725086D01*
X120526140Y-134721564D01*
X120546676Y-134654396D01*
X120567892Y-134587513D01*
X120568337Y-134583546D01*
X120569507Y-134579719D01*
X120576609Y-134509801D01*
X120584426Y-134440111D01*
X120584480Y-134432306D01*
X120584496Y-134432153D01*
X120584482Y-134432010D01*
X120584500Y-134429500D01*
X120584500Y-132624747D01*
X120641411Y-132544070D01*
X120715992Y-132376560D01*
X120756616Y-132197754D01*
X120759540Y-131988319D01*
X120723925Y-131808448D01*
X120654050Y-131638920D01*
X120584500Y-131534238D01*
X120584500Y-125004747D01*
X120641411Y-124924070D01*
X120715992Y-124756560D01*
X120756616Y-124577754D01*
X120759540Y-124368319D01*
X120723925Y-124188448D01*
X120654050Y-124018920D01*
X120584500Y-123914238D01*
X120584500Y-117384747D01*
X120641411Y-117304070D01*
X120715992Y-117136560D01*
X120756616Y-116957754D01*
X120759540Y-116748319D01*
X120723925Y-116568448D01*
X120654050Y-116398920D01*
X120584500Y-116294238D01*
X120584500Y-114106802D01*
X122520901Y-112170401D01*
X122565468Y-112116145D01*
X122607064Y-112066572D01*
X122594848Y-112106531D01*
X122573608Y-112173487D01*
X122573162Y-112177459D01*
X122571994Y-112181281D01*
X122564897Y-112251149D01*
X122557074Y-112320889D01*
X122557020Y-112328694D01*
X122557004Y-112328847D01*
X122557018Y-112328990D01*
X122557000Y-112331500D01*
X122557000Y-123845122D01*
X122518763Y-123882567D01*
X122415169Y-124033862D01*
X122342934Y-124202397D01*
X122304811Y-124381753D01*
X122302251Y-124565098D01*
X122335352Y-124745449D01*
X122402852Y-124915935D01*
X122502181Y-125070064D01*
X122557000Y-125126831D01*
X122557000Y-131661920D01*
X122493689Y-131754383D01*
X122421454Y-131922918D01*
X122383331Y-132102274D01*
X122380771Y-132285619D01*
X122413872Y-132465970D01*
X122481372Y-132636456D01*
X122557000Y-132753808D01*
X122557000Y-138519946D01*
X122516707Y-138578792D01*
X122444472Y-138747327D01*
X122406349Y-138926683D01*
X122403789Y-139110028D01*
X122436890Y-139290379D01*
X122504390Y-139460865D01*
X122603719Y-139614994D01*
X122731094Y-139746895D01*
X122881662Y-139851542D01*
X123049689Y-139924951D01*
X123228775Y-139964326D01*
X123412097Y-139968166D01*
X123592675Y-139936325D01*
X123763628Y-139870017D01*
X123918447Y-139771766D01*
X124051233Y-139645315D01*
X124156929Y-139495481D01*
X124231510Y-139327971D01*
X124272134Y-139149165D01*
X124275058Y-138939730D01*
X124239443Y-138759859D01*
X124169568Y-138590331D01*
X124077000Y-138451004D01*
X124077000Y-132751749D01*
X124133911Y-132671072D01*
X124208492Y-132503562D01*
X124249116Y-132324756D01*
X124252040Y-132115321D01*
X124216425Y-131935450D01*
X124146550Y-131765922D01*
X124077000Y-131661240D01*
X124077000Y-124902017D01*
X124129972Y-124783041D01*
X124170596Y-124604235D01*
X124173520Y-124394800D01*
X124137905Y-124214929D01*
X124077000Y-124067164D01*
X124077000Y-114605472D01*
X124289045Y-114752847D01*
X124537941Y-114861586D01*
X124803217Y-114919911D01*
X125074770Y-114925599D01*
X125342256Y-114878434D01*
X125595487Y-114780213D01*
X125824817Y-114634675D01*
X126021511Y-114447366D01*
X126178077Y-114225419D01*
X126288552Y-113977289D01*
X126348727Y-113712426D01*
X126353059Y-113402194D01*
X126324226Y-113256576D01*
X127637000Y-111943802D01*
X127637000Y-136854667D01*
G36*
X111109000Y-142976600D02*
X111129000Y-142976600D01*
X111129000Y-143230600D01*
X111109000Y-143230600D01*
X111109000Y-143250600D01*
X110855000Y-143250600D01*
X110855000Y-143230600D01*
X110835000Y-143230600D01*
X110835000Y-142976600D01*
X110855000Y-142976600D01*
X110855000Y-142956600D01*
X111109000Y-142956600D01*
X111109000Y-142976600D01*
X111109000Y-142976600D01*
G37*
X111109000Y-142976600D02*
X111129000Y-142976600D01*
X111129000Y-143230600D01*
X111109000Y-143230600D01*
X111109000Y-143250600D01*
X110855000Y-143250600D01*
X110855000Y-143230600D01*
X110835000Y-143230600D01*
X110835000Y-142976600D01*
X110855000Y-142976600D01*
X110855000Y-142956600D01*
X111109000Y-142956600D01*
X111109000Y-142976600D01*
G36*
X114617500Y-142200933D02*
X114617500Y-142203773D01*
X114588410Y-142190660D01*
X114549250Y-142151500D01*
X114545458Y-142151500D01*
X114482600Y-142164003D01*
X114373000Y-142148428D01*
X113973000Y-142148428D01*
X113871879Y-142156492D01*
X113847616Y-142164006D01*
X113738000Y-142148428D01*
X113338000Y-142148428D01*
X113236879Y-142156492D01*
X113212616Y-142164006D01*
X113103000Y-142148428D01*
X112703000Y-142148428D01*
X112601879Y-142156492D01*
X112430366Y-142209606D01*
X112280441Y-142308400D01*
X112163975Y-142445050D01*
X112117000Y-142549261D01*
X112117000Y-142416058D01*
X112092597Y-142293377D01*
X112044730Y-142177815D01*
X111975237Y-142073811D01*
X111886789Y-141985363D01*
X111830721Y-141947900D01*
X114364466Y-141947900D01*
X114617500Y-142200933D01*
X114617500Y-142200933D01*
G37*
X114617500Y-142200933D02*
X114617500Y-142203773D01*
X114588410Y-142190660D01*
X114549250Y-142151500D01*
X114545458Y-142151500D01*
X114482600Y-142164003D01*
X114373000Y-142148428D01*
X113973000Y-142148428D01*
X113871879Y-142156492D01*
X113847616Y-142164006D01*
X113738000Y-142148428D01*
X113338000Y-142148428D01*
X113236879Y-142156492D01*
X113212616Y-142164006D01*
X113103000Y-142148428D01*
X112703000Y-142148428D01*
X112601879Y-142156492D01*
X112430366Y-142209606D01*
X112280441Y-142308400D01*
X112163975Y-142445050D01*
X112117000Y-142549261D01*
X112117000Y-142416058D01*
X112092597Y-142293377D01*
X112044730Y-142177815D01*
X111975237Y-142073811D01*
X111886789Y-141985363D01*
X111830721Y-141947900D01*
X114364466Y-141947900D01*
X114617500Y-142200933D01*
G36*
X118755180Y-111876455D02*
X118804211Y-112143605D01*
X118904198Y-112396144D01*
X119051333Y-112624452D01*
X119240011Y-112819834D01*
X119463045Y-112974847D01*
X119535289Y-113006409D01*
X119287099Y-113254599D01*
X119242532Y-113308855D01*
X119197414Y-113362625D01*
X119195489Y-113366126D01*
X119192952Y-113369215D01*
X119159787Y-113431067D01*
X119125957Y-113492604D01*
X119124748Y-113496416D01*
X119122861Y-113499935D01*
X119102348Y-113567031D01*
X119081108Y-113633987D01*
X119080662Y-113637959D01*
X119079494Y-113641781D01*
X119072397Y-113711649D01*
X119064574Y-113781389D01*
X119064520Y-113789194D01*
X119064504Y-113789347D01*
X119064518Y-113789490D01*
X119064500Y-113792000D01*
X119064500Y-116294918D01*
X119001189Y-116387381D01*
X118928954Y-116555916D01*
X118890831Y-116735272D01*
X118888271Y-116918617D01*
X118921372Y-117098968D01*
X118988872Y-117269454D01*
X119064500Y-117386806D01*
X119064500Y-123914918D01*
X119001189Y-124007381D01*
X118928954Y-124175916D01*
X118890831Y-124355272D01*
X118888271Y-124538617D01*
X118921372Y-124718968D01*
X118988872Y-124889454D01*
X119064500Y-125006806D01*
X119064500Y-131534918D01*
X119001189Y-131627381D01*
X118928954Y-131795916D01*
X118890831Y-131975272D01*
X118888271Y-132158617D01*
X118921372Y-132338968D01*
X118988872Y-132509454D01*
X119064500Y-132626806D01*
X119064500Y-134114698D01*
X114911000Y-138268198D01*
X114911000Y-138080750D01*
X114752250Y-137922000D01*
X113903000Y-137922000D01*
X113903000Y-138889450D01*
X113889891Y-138913695D01*
X113855457Y-138976330D01*
X113854651Y-138978871D01*
X113853384Y-138981214D01*
X113832239Y-139049523D01*
X113810608Y-139117713D01*
X113810311Y-139120362D01*
X113809523Y-139122907D01*
X113808365Y-139133929D01*
X113730689Y-139247371D01*
X113658454Y-139415906D01*
X113620331Y-139595262D01*
X113617771Y-139778607D01*
X113650872Y-139958958D01*
X113718372Y-140129444D01*
X113817701Y-140283573D01*
X113830571Y-140296900D01*
X110482600Y-140296900D01*
X110406738Y-140304339D01*
X110330748Y-140310987D01*
X110326577Y-140312199D01*
X110322260Y-140312622D01*
X110249266Y-140334660D01*
X110176036Y-140355935D01*
X110172184Y-140357932D01*
X110168026Y-140359187D01*
X110100695Y-140394988D01*
X110033001Y-140430077D01*
X110029607Y-140432787D01*
X110025775Y-140434824D01*
X109966686Y-140483015D01*
X109907090Y-140530590D01*
X109901053Y-140536543D01*
X109900924Y-140536649D01*
X109900825Y-140536769D01*
X109898884Y-140538683D01*
X109404066Y-141033500D01*
X108609434Y-141033500D01*
X107593434Y-140017500D01*
X111252000Y-140017500D01*
X111327858Y-140010062D01*
X111403852Y-140003413D01*
X111408023Y-140002201D01*
X111412340Y-140001778D01*
X111485334Y-139979740D01*
X111558564Y-139958465D01*
X111562416Y-139956468D01*
X111566574Y-139955213D01*
X111633884Y-139919423D01*
X111701600Y-139884323D01*
X111704996Y-139881612D01*
X111708825Y-139879576D01*
X111767892Y-139831403D01*
X111827510Y-139783810D01*
X111833551Y-139777853D01*
X111833676Y-139777751D01*
X111833772Y-139777635D01*
X111835717Y-139775717D01*
X112409717Y-139201716D01*
X112458112Y-139142799D01*
X112507131Y-139084380D01*
X112509223Y-139080575D01*
X112511977Y-139077222D01*
X112548018Y-139010007D01*
X112558972Y-138990082D01*
X112698559Y-138898100D01*
X112773217Y-138810503D01*
X112782763Y-138824789D01*
X112871211Y-138913237D01*
X112975215Y-138982730D01*
X113090777Y-139030597D01*
X113213458Y-139055000D01*
X113490250Y-139055000D01*
X113649000Y-138896250D01*
X113649000Y-137922000D01*
X113629000Y-137922000D01*
X113629000Y-137668000D01*
X113649000Y-137668000D01*
X113649000Y-136693750D01*
X113516750Y-136561500D01*
X113539000Y-136539250D01*
X113539000Y-135890000D01*
X113793000Y-135890000D01*
X113793000Y-136539250D01*
X113925250Y-136671500D01*
X113903000Y-136693750D01*
X113903000Y-137668000D01*
X114752250Y-137668000D01*
X114911000Y-137509250D01*
X114911000Y-137107458D01*
X114886597Y-136984777D01*
X114838730Y-136869215D01*
X114769237Y-136765211D01*
X114702026Y-136698000D01*
X114728542Y-136698000D01*
X114851223Y-136673597D01*
X114966785Y-136625730D01*
X115070789Y-136556237D01*
X115159237Y-136467789D01*
X115228730Y-136363785D01*
X115276597Y-136248223D01*
X115301000Y-136125542D01*
X115301000Y-136048750D01*
X115142250Y-135890000D01*
X113793000Y-135890000D01*
X113539000Y-135890000D01*
X112189750Y-135890000D01*
X112031000Y-136048750D01*
X112031000Y-136125542D01*
X112055403Y-136248223D01*
X112103270Y-136363785D01*
X112172763Y-136467789D01*
X112236902Y-136531928D01*
X111276000Y-136531928D01*
X111174879Y-136539992D01*
X111003366Y-136593106D01*
X110853441Y-136691900D01*
X110736975Y-136828550D01*
X110663190Y-136992237D01*
X110652319Y-137068730D01*
X110638230Y-137034715D01*
X110568737Y-136930711D01*
X110480289Y-136842263D01*
X110376285Y-136772770D01*
X110260723Y-136724903D01*
X110138042Y-136700500D01*
X110011250Y-136700500D01*
X109852500Y-136859250D01*
X109852500Y-137858500D01*
X109872500Y-137858500D01*
X109872500Y-138112500D01*
X109852500Y-138112500D01*
X109852500Y-138132500D01*
X109598500Y-138132500D01*
X109598500Y-138112500D01*
X109578500Y-138112500D01*
X109578500Y-137858500D01*
X109598500Y-137858500D01*
X109598500Y-136859250D01*
X109439750Y-136700500D01*
X109312958Y-136700500D01*
X109190277Y-136724903D01*
X109074715Y-136772770D01*
X108970711Y-136842263D01*
X108882263Y-136930711D01*
X108812770Y-137034715D01*
X108773234Y-137130163D01*
X108752394Y-137062866D01*
X108653600Y-136912941D01*
X108585500Y-136854900D01*
X108585500Y-136527500D01*
X108578648Y-136457619D01*
X108572531Y-136387697D01*
X108571416Y-136383859D01*
X108571026Y-136379882D01*
X108550736Y-136312679D01*
X108531149Y-136245260D01*
X108529310Y-136241712D01*
X108528155Y-136237887D01*
X108495201Y-136175909D01*
X108462890Y-136113575D01*
X108460397Y-136110452D01*
X108458520Y-136106922D01*
X108414145Y-136052513D01*
X108370352Y-135997654D01*
X108364869Y-135992094D01*
X108364774Y-135991978D01*
X108364666Y-135991889D01*
X108362901Y-135990099D01*
X106391901Y-134019099D01*
X106337645Y-133974532D01*
X106283875Y-133929414D01*
X106280374Y-133927489D01*
X106277285Y-133924952D01*
X106215433Y-133891787D01*
X106153896Y-133857957D01*
X106150084Y-133856748D01*
X106146565Y-133854861D01*
X106079469Y-133834348D01*
X106012513Y-133813108D01*
X106008541Y-133812662D01*
X106004719Y-133811494D01*
X105934851Y-133804397D01*
X105865111Y-133796574D01*
X105857306Y-133796520D01*
X105857153Y-133796504D01*
X105857010Y-133796518D01*
X105854500Y-133796500D01*
X105835655Y-133796500D01*
X105878810Y-133700763D01*
X105904072Y-133523000D01*
X105904072Y-132923000D01*
X105896008Y-132821879D01*
X105842894Y-132650366D01*
X105805440Y-132593528D01*
X105878810Y-132430763D01*
X105904072Y-132253000D01*
X105904072Y-131653000D01*
X105896008Y-131551879D01*
X105842894Y-131380366D01*
X105805440Y-131323528D01*
X105878810Y-131160763D01*
X105904072Y-130983000D01*
X105904072Y-130383000D01*
X105896008Y-130281879D01*
X105842894Y-130110366D01*
X105805440Y-130053528D01*
X105878810Y-129890763D01*
X105904072Y-129713000D01*
X105904072Y-129113000D01*
X105896008Y-129011879D01*
X105842894Y-128840366D01*
X105805440Y-128783528D01*
X105878810Y-128620763D01*
X105904072Y-128443000D01*
X105904072Y-127843000D01*
X105896008Y-127741879D01*
X105842894Y-127570366D01*
X105805440Y-127513528D01*
X105878810Y-127350763D01*
X105904072Y-127173000D01*
X105904072Y-126573000D01*
X105896008Y-126471879D01*
X105842894Y-126300366D01*
X105805440Y-126243528D01*
X105878810Y-126080763D01*
X105904072Y-125903000D01*
X105904072Y-125739730D01*
X106011947Y-125631855D01*
X106030872Y-125734968D01*
X106098372Y-125905454D01*
X106197701Y-126059583D01*
X106325076Y-126191484D01*
X106475644Y-126296131D01*
X106643671Y-126369540D01*
X106822757Y-126408915D01*
X107006079Y-126412755D01*
X107186657Y-126380914D01*
X107357610Y-126314606D01*
X107512429Y-126216355D01*
X107645215Y-126089904D01*
X107750911Y-125940070D01*
X107825492Y-125772560D01*
X107858786Y-125626016D01*
X109661802Y-123823000D01*
X112067721Y-123823000D01*
X112053190Y-123855237D01*
X112027928Y-124033000D01*
X112027928Y-124123000D01*
X110321000Y-124123000D01*
X110251119Y-124129852D01*
X110181197Y-124135969D01*
X110177359Y-124137084D01*
X110173382Y-124137474D01*
X110106212Y-124157754D01*
X110038761Y-124177350D01*
X110035210Y-124179191D01*
X110031387Y-124180345D01*
X109969426Y-124213290D01*
X109907075Y-124245610D01*
X109903952Y-124248103D01*
X109900422Y-124249980D01*
X109845989Y-124294375D01*
X109791155Y-124338148D01*
X109785596Y-124343630D01*
X109785478Y-124343726D01*
X109785388Y-124343835D01*
X109783599Y-124345599D01*
X106782128Y-127347070D01*
X106668733Y-127368701D01*
X106498722Y-127437390D01*
X106345291Y-127537793D01*
X106214283Y-127666086D01*
X106110689Y-127817381D01*
X106038454Y-127985916D01*
X106000331Y-128165272D01*
X105997771Y-128348617D01*
X106030872Y-128528968D01*
X106098372Y-128699454D01*
X106107552Y-128713699D01*
X106038454Y-128874916D01*
X106000331Y-129054272D01*
X105997771Y-129237617D01*
X106030872Y-129417968D01*
X106098372Y-129588454D01*
X106148806Y-129666713D01*
X106110689Y-129722381D01*
X106038454Y-129890916D01*
X106000331Y-130070272D01*
X105997771Y-130253617D01*
X106030872Y-130433968D01*
X106098372Y-130604454D01*
X106107552Y-130618699D01*
X106038454Y-130779916D01*
X106000331Y-130959272D01*
X105997771Y-131142617D01*
X106030872Y-131322968D01*
X106098372Y-131493454D01*
X106107552Y-131507699D01*
X106038454Y-131668916D01*
X106000331Y-131848272D01*
X105997771Y-132031617D01*
X106030872Y-132211968D01*
X106098372Y-132382454D01*
X106107552Y-132396699D01*
X106038454Y-132557916D01*
X106000331Y-132737272D01*
X105997771Y-132920617D01*
X106030872Y-133100968D01*
X106098372Y-133271454D01*
X106197701Y-133425583D01*
X106325076Y-133557484D01*
X106475644Y-133662131D01*
X106643671Y-133735540D01*
X106822757Y-133774915D01*
X107006079Y-133778755D01*
X107186657Y-133746914D01*
X107357610Y-133680606D01*
X107512429Y-133582355D01*
X107645215Y-133455904D01*
X107750911Y-133306070D01*
X107825492Y-133138560D01*
X107858786Y-132992016D01*
X109407802Y-131443000D01*
X112067721Y-131443000D01*
X112053190Y-131475237D01*
X112027928Y-131653000D01*
X112027928Y-132253000D01*
X112035992Y-132354121D01*
X112089106Y-132525634D01*
X112126560Y-132582472D01*
X112053190Y-132745237D01*
X112027928Y-132923000D01*
X112027928Y-133523000D01*
X112035992Y-133624121D01*
X112089106Y-133795634D01*
X112126560Y-133852472D01*
X112053190Y-134015237D01*
X112027928Y-134193000D01*
X112027928Y-134793000D01*
X112035992Y-134894121D01*
X112089106Y-135065634D01*
X112128181Y-135124933D01*
X112103270Y-135162215D01*
X112055403Y-135277777D01*
X112031000Y-135400458D01*
X112031000Y-135477250D01*
X112189750Y-135636000D01*
X113539000Y-135636000D01*
X113539000Y-135616000D01*
X113793000Y-135616000D01*
X113793000Y-135636000D01*
X115142250Y-135636000D01*
X115301000Y-135477250D01*
X115301000Y-135400458D01*
X115276597Y-135277777D01*
X115228730Y-135162215D01*
X115207101Y-135129845D01*
X115277127Y-134974497D01*
X118393401Y-131858223D01*
X118437968Y-131803967D01*
X118483086Y-131750197D01*
X118485011Y-131746696D01*
X118487548Y-131743607D01*
X118520732Y-131681720D01*
X118554543Y-131620218D01*
X118555751Y-131616410D01*
X118557640Y-131612887D01*
X118578167Y-131545745D01*
X118599392Y-131478835D01*
X118599838Y-131474863D01*
X118601006Y-131471041D01*
X118608103Y-131401173D01*
X118615926Y-131331433D01*
X118615980Y-131323628D01*
X118615996Y-131323475D01*
X118615982Y-131323332D01*
X118616000Y-131320822D01*
X118616000Y-111947802D01*
X118756141Y-111807661D01*
X118755180Y-111876455D01*
X118755180Y-111876455D01*
G37*
X118755180Y-111876455D02*
X118804211Y-112143605D01*
X118904198Y-112396144D01*
X119051333Y-112624452D01*
X119240011Y-112819834D01*
X119463045Y-112974847D01*
X119535289Y-113006409D01*
X119287099Y-113254599D01*
X119242532Y-113308855D01*
X119197414Y-113362625D01*
X119195489Y-113366126D01*
X119192952Y-113369215D01*
X119159787Y-113431067D01*
X119125957Y-113492604D01*
X119124748Y-113496416D01*
X119122861Y-113499935D01*
X119102348Y-113567031D01*
X119081108Y-113633987D01*
X119080662Y-113637959D01*
X119079494Y-113641781D01*
X119072397Y-113711649D01*
X119064574Y-113781389D01*
X119064520Y-113789194D01*
X119064504Y-113789347D01*
X119064518Y-113789490D01*
X119064500Y-113792000D01*
X119064500Y-116294918D01*
X119001189Y-116387381D01*
X118928954Y-116555916D01*
X118890831Y-116735272D01*
X118888271Y-116918617D01*
X118921372Y-117098968D01*
X118988872Y-117269454D01*
X119064500Y-117386806D01*
X119064500Y-123914918D01*
X119001189Y-124007381D01*
X118928954Y-124175916D01*
X118890831Y-124355272D01*
X118888271Y-124538617D01*
X118921372Y-124718968D01*
X118988872Y-124889454D01*
X119064500Y-125006806D01*
X119064500Y-131534918D01*
X119001189Y-131627381D01*
X118928954Y-131795916D01*
X118890831Y-131975272D01*
X118888271Y-132158617D01*
X118921372Y-132338968D01*
X118988872Y-132509454D01*
X119064500Y-132626806D01*
X119064500Y-134114698D01*
X114911000Y-138268198D01*
X114911000Y-138080750D01*
X114752250Y-137922000D01*
X113903000Y-137922000D01*
X113903000Y-138889450D01*
X113889891Y-138913695D01*
X113855457Y-138976330D01*
X113854651Y-138978871D01*
X113853384Y-138981214D01*
X113832239Y-139049523D01*
X113810608Y-139117713D01*
X113810311Y-139120362D01*
X113809523Y-139122907D01*
X113808365Y-139133929D01*
X113730689Y-139247371D01*
X113658454Y-139415906D01*
X113620331Y-139595262D01*
X113617771Y-139778607D01*
X113650872Y-139958958D01*
X113718372Y-140129444D01*
X113817701Y-140283573D01*
X113830571Y-140296900D01*
X110482600Y-140296900D01*
X110406738Y-140304339D01*
X110330748Y-140310987D01*
X110326577Y-140312199D01*
X110322260Y-140312622D01*
X110249266Y-140334660D01*
X110176036Y-140355935D01*
X110172184Y-140357932D01*
X110168026Y-140359187D01*
X110100695Y-140394988D01*
X110033001Y-140430077D01*
X110029607Y-140432787D01*
X110025775Y-140434824D01*
X109966686Y-140483015D01*
X109907090Y-140530590D01*
X109901053Y-140536543D01*
X109900924Y-140536649D01*
X109900825Y-140536769D01*
X109898884Y-140538683D01*
X109404066Y-141033500D01*
X108609434Y-141033500D01*
X107593434Y-140017500D01*
X111252000Y-140017500D01*
X111327858Y-140010062D01*
X111403852Y-140003413D01*
X111408023Y-140002201D01*
X111412340Y-140001778D01*
X111485334Y-139979740D01*
X111558564Y-139958465D01*
X111562416Y-139956468D01*
X111566574Y-139955213D01*
X111633884Y-139919423D01*
X111701600Y-139884323D01*
X111704996Y-139881612D01*
X111708825Y-139879576D01*
X111767892Y-139831403D01*
X111827510Y-139783810D01*
X111833551Y-139777853D01*
X111833676Y-139777751D01*
X111833772Y-139777635D01*
X111835717Y-139775717D01*
X112409717Y-139201716D01*
X112458112Y-139142799D01*
X112507131Y-139084380D01*
X112509223Y-139080575D01*
X112511977Y-139077222D01*
X112548018Y-139010007D01*
X112558972Y-138990082D01*
X112698559Y-138898100D01*
X112773217Y-138810503D01*
X112782763Y-138824789D01*
X112871211Y-138913237D01*
X112975215Y-138982730D01*
X113090777Y-139030597D01*
X113213458Y-139055000D01*
X113490250Y-139055000D01*
X113649000Y-138896250D01*
X113649000Y-137922000D01*
X113629000Y-137922000D01*
X113629000Y-137668000D01*
X113649000Y-137668000D01*
X113649000Y-136693750D01*
X113516750Y-136561500D01*
X113539000Y-136539250D01*
X113539000Y-135890000D01*
X113793000Y-135890000D01*
X113793000Y-136539250D01*
X113925250Y-136671500D01*
X113903000Y-136693750D01*
X113903000Y-137668000D01*
X114752250Y-137668000D01*
X114911000Y-137509250D01*
X114911000Y-137107458D01*
X114886597Y-136984777D01*
X114838730Y-136869215D01*
X114769237Y-136765211D01*
X114702026Y-136698000D01*
X114728542Y-136698000D01*
X114851223Y-136673597D01*
X114966785Y-136625730D01*
X115070789Y-136556237D01*
X115159237Y-136467789D01*
X115228730Y-136363785D01*
X115276597Y-136248223D01*
X115301000Y-136125542D01*
X115301000Y-136048750D01*
X115142250Y-135890000D01*
X113793000Y-135890000D01*
X113539000Y-135890000D01*
X112189750Y-135890000D01*
X112031000Y-136048750D01*
X112031000Y-136125542D01*
X112055403Y-136248223D01*
X112103270Y-136363785D01*
X112172763Y-136467789D01*
X112236902Y-136531928D01*
X111276000Y-136531928D01*
X111174879Y-136539992D01*
X111003366Y-136593106D01*
X110853441Y-136691900D01*
X110736975Y-136828550D01*
X110663190Y-136992237D01*
X110652319Y-137068730D01*
X110638230Y-137034715D01*
X110568737Y-136930711D01*
X110480289Y-136842263D01*
X110376285Y-136772770D01*
X110260723Y-136724903D01*
X110138042Y-136700500D01*
X110011250Y-136700500D01*
X109852500Y-136859250D01*
X109852500Y-137858500D01*
X109872500Y-137858500D01*
X109872500Y-138112500D01*
X109852500Y-138112500D01*
X109852500Y-138132500D01*
X109598500Y-138132500D01*
X109598500Y-138112500D01*
X109578500Y-138112500D01*
X109578500Y-137858500D01*
X109598500Y-137858500D01*
X109598500Y-136859250D01*
X109439750Y-136700500D01*
X109312958Y-136700500D01*
X109190277Y-136724903D01*
X109074715Y-136772770D01*
X108970711Y-136842263D01*
X108882263Y-136930711D01*
X108812770Y-137034715D01*
X108773234Y-137130163D01*
X108752394Y-137062866D01*
X108653600Y-136912941D01*
X108585500Y-136854900D01*
X108585500Y-136527500D01*
X108578648Y-136457619D01*
X108572531Y-136387697D01*
X108571416Y-136383859D01*
X108571026Y-136379882D01*
X108550736Y-136312679D01*
X108531149Y-136245260D01*
X108529310Y-136241712D01*
X108528155Y-136237887D01*
X108495201Y-136175909D01*
X108462890Y-136113575D01*
X108460397Y-136110452D01*
X108458520Y-136106922D01*
X108414145Y-136052513D01*
X108370352Y-135997654D01*
X108364869Y-135992094D01*
X108364774Y-135991978D01*
X108364666Y-135991889D01*
X108362901Y-135990099D01*
X106391901Y-134019099D01*
X106337645Y-133974532D01*
X106283875Y-133929414D01*
X106280374Y-133927489D01*
X106277285Y-133924952D01*
X106215433Y-133891787D01*
X106153896Y-133857957D01*
X106150084Y-133856748D01*
X106146565Y-133854861D01*
X106079469Y-133834348D01*
X106012513Y-133813108D01*
X106008541Y-133812662D01*
X106004719Y-133811494D01*
X105934851Y-133804397D01*
X105865111Y-133796574D01*
X105857306Y-133796520D01*
X105857153Y-133796504D01*
X105857010Y-133796518D01*
X105854500Y-133796500D01*
X105835655Y-133796500D01*
X105878810Y-133700763D01*
X105904072Y-133523000D01*
X105904072Y-132923000D01*
X105896008Y-132821879D01*
X105842894Y-132650366D01*
X105805440Y-132593528D01*
X105878810Y-132430763D01*
X105904072Y-132253000D01*
X105904072Y-131653000D01*
X105896008Y-131551879D01*
X105842894Y-131380366D01*
X105805440Y-131323528D01*
X105878810Y-131160763D01*
X105904072Y-130983000D01*
X105904072Y-130383000D01*
X105896008Y-130281879D01*
X105842894Y-130110366D01*
X105805440Y-130053528D01*
X105878810Y-129890763D01*
X105904072Y-129713000D01*
X105904072Y-129113000D01*
X105896008Y-129011879D01*
X105842894Y-128840366D01*
X105805440Y-128783528D01*
X105878810Y-128620763D01*
X105904072Y-128443000D01*
X105904072Y-127843000D01*
X105896008Y-127741879D01*
X105842894Y-127570366D01*
X105805440Y-127513528D01*
X105878810Y-127350763D01*
X105904072Y-127173000D01*
X105904072Y-126573000D01*
X105896008Y-126471879D01*
X105842894Y-126300366D01*
X105805440Y-126243528D01*
X105878810Y-126080763D01*
X105904072Y-125903000D01*
X105904072Y-125739730D01*
X106011947Y-125631855D01*
X106030872Y-125734968D01*
X106098372Y-125905454D01*
X106197701Y-126059583D01*
X106325076Y-126191484D01*
X106475644Y-126296131D01*
X106643671Y-126369540D01*
X106822757Y-126408915D01*
X107006079Y-126412755D01*
X107186657Y-126380914D01*
X107357610Y-126314606D01*
X107512429Y-126216355D01*
X107645215Y-126089904D01*
X107750911Y-125940070D01*
X107825492Y-125772560D01*
X107858786Y-125626016D01*
X109661802Y-123823000D01*
X112067721Y-123823000D01*
X112053190Y-123855237D01*
X112027928Y-124033000D01*
X112027928Y-124123000D01*
X110321000Y-124123000D01*
X110251119Y-124129852D01*
X110181197Y-124135969D01*
X110177359Y-124137084D01*
X110173382Y-124137474D01*
X110106212Y-124157754D01*
X110038761Y-124177350D01*
X110035210Y-124179191D01*
X110031387Y-124180345D01*
X109969426Y-124213290D01*
X109907075Y-124245610D01*
X109903952Y-124248103D01*
X109900422Y-124249980D01*
X109845989Y-124294375D01*
X109791155Y-124338148D01*
X109785596Y-124343630D01*
X109785478Y-124343726D01*
X109785388Y-124343835D01*
X109783599Y-124345599D01*
X106782128Y-127347070D01*
X106668733Y-127368701D01*
X106498722Y-127437390D01*
X106345291Y-127537793D01*
X106214283Y-127666086D01*
X106110689Y-127817381D01*
X106038454Y-127985916D01*
X106000331Y-128165272D01*
X105997771Y-128348617D01*
X106030872Y-128528968D01*
X106098372Y-128699454D01*
X106107552Y-128713699D01*
X106038454Y-128874916D01*
X106000331Y-129054272D01*
X105997771Y-129237617D01*
X106030872Y-129417968D01*
X106098372Y-129588454D01*
X106148806Y-129666713D01*
X106110689Y-129722381D01*
X106038454Y-129890916D01*
X106000331Y-130070272D01*
X105997771Y-130253617D01*
X106030872Y-130433968D01*
X106098372Y-130604454D01*
X106107552Y-130618699D01*
X106038454Y-130779916D01*
X106000331Y-130959272D01*
X105997771Y-131142617D01*
X106030872Y-131322968D01*
X106098372Y-131493454D01*
X106107552Y-131507699D01*
X106038454Y-131668916D01*
X106000331Y-131848272D01*
X105997771Y-132031617D01*
X106030872Y-132211968D01*
X106098372Y-132382454D01*
X106107552Y-132396699D01*
X106038454Y-132557916D01*
X106000331Y-132737272D01*
X105997771Y-132920617D01*
X106030872Y-133100968D01*
X106098372Y-133271454D01*
X106197701Y-133425583D01*
X106325076Y-133557484D01*
X106475644Y-133662131D01*
X106643671Y-133735540D01*
X106822757Y-133774915D01*
X107006079Y-133778755D01*
X107186657Y-133746914D01*
X107357610Y-133680606D01*
X107512429Y-133582355D01*
X107645215Y-133455904D01*
X107750911Y-133306070D01*
X107825492Y-133138560D01*
X107858786Y-132992016D01*
X109407802Y-131443000D01*
X112067721Y-131443000D01*
X112053190Y-131475237D01*
X112027928Y-131653000D01*
X112027928Y-132253000D01*
X112035992Y-132354121D01*
X112089106Y-132525634D01*
X112126560Y-132582472D01*
X112053190Y-132745237D01*
X112027928Y-132923000D01*
X112027928Y-133523000D01*
X112035992Y-133624121D01*
X112089106Y-133795634D01*
X112126560Y-133852472D01*
X112053190Y-134015237D01*
X112027928Y-134193000D01*
X112027928Y-134793000D01*
X112035992Y-134894121D01*
X112089106Y-135065634D01*
X112128181Y-135124933D01*
X112103270Y-135162215D01*
X112055403Y-135277777D01*
X112031000Y-135400458D01*
X112031000Y-135477250D01*
X112189750Y-135636000D01*
X113539000Y-135636000D01*
X113539000Y-135616000D01*
X113793000Y-135616000D01*
X113793000Y-135636000D01*
X115142250Y-135636000D01*
X115301000Y-135477250D01*
X115301000Y-135400458D01*
X115276597Y-135277777D01*
X115228730Y-135162215D01*
X115207101Y-135129845D01*
X115277127Y-134974497D01*
X118393401Y-131858223D01*
X118437968Y-131803967D01*
X118483086Y-131750197D01*
X118485011Y-131746696D01*
X118487548Y-131743607D01*
X118520732Y-131681720D01*
X118554543Y-131620218D01*
X118555751Y-131616410D01*
X118557640Y-131612887D01*
X118578167Y-131545745D01*
X118599392Y-131478835D01*
X118599838Y-131474863D01*
X118601006Y-131471041D01*
X118608103Y-131401173D01*
X118615926Y-131331433D01*
X118615980Y-131323628D01*
X118615996Y-131323475D01*
X118615982Y-131323332D01*
X118616000Y-131320822D01*
X118616000Y-111947802D01*
X118756141Y-111807661D01*
X118755180Y-111876455D01*
G36*
X128151800Y-107255602D02*
X128084601Y-107248064D01*
X128076796Y-107248010D01*
X128076643Y-107247994D01*
X128076500Y-107248008D01*
X128073990Y-107247990D01*
X119955600Y-107247990D01*
X119885723Y-107254841D01*
X119815797Y-107260959D01*
X119811959Y-107262074D01*
X119807982Y-107262464D01*
X119740779Y-107282754D01*
X119673360Y-107302341D01*
X119669812Y-107304180D01*
X119665987Y-107305335D01*
X119603990Y-107338299D01*
X119541674Y-107370601D01*
X119538553Y-107373093D01*
X119535022Y-107374970D01*
X119480607Y-107419349D01*
X119425754Y-107463138D01*
X119420194Y-107468621D01*
X119420078Y-107468716D01*
X119419989Y-107468824D01*
X119418199Y-107470589D01*
X116810599Y-110078189D01*
X116766032Y-110132445D01*
X116720914Y-110186215D01*
X116718989Y-110189716D01*
X116716452Y-110192805D01*
X116683287Y-110254657D01*
X116649457Y-110316194D01*
X116648248Y-110320006D01*
X116646361Y-110323525D01*
X116625848Y-110390621D01*
X116604608Y-110457577D01*
X116604162Y-110461549D01*
X116602994Y-110465371D01*
X116595897Y-110535239D01*
X116588074Y-110604979D01*
X116588020Y-110612784D01*
X116588004Y-110612937D01*
X116588018Y-110613080D01*
X116588000Y-110615590D01*
X116588000Y-118190951D01*
X116500849Y-118190343D01*
X116320733Y-118224701D01*
X116150722Y-118293390D01*
X115997291Y-118393793D01*
X115866283Y-118522086D01*
X115762689Y-118673381D01*
X115705026Y-118807917D01*
X115461472Y-118757923D01*
X115189867Y-118756027D01*
X114923065Y-118806922D01*
X114671230Y-118908670D01*
X114443955Y-119057395D01*
X114249895Y-119247432D01*
X114096443Y-119471543D01*
X113989444Y-119721192D01*
X113932972Y-119986869D01*
X113929180Y-120258455D01*
X113978211Y-120525605D01*
X114078198Y-120778144D01*
X114127682Y-120854928D01*
X112666000Y-120854928D01*
X112564879Y-120862992D01*
X112393366Y-120916106D01*
X112243441Y-121014900D01*
X112228014Y-121033000D01*
X109895239Y-121033000D01*
X109825362Y-121039851D01*
X109755436Y-121045969D01*
X109751598Y-121047084D01*
X109747621Y-121047474D01*
X109680418Y-121067764D01*
X109612999Y-121087351D01*
X109609451Y-121089190D01*
X109605626Y-121090345D01*
X109543668Y-121123288D01*
X109481313Y-121155610D01*
X109478188Y-121158105D01*
X109474661Y-121159980D01*
X109420274Y-121204337D01*
X109365393Y-121248148D01*
X109359833Y-121253631D01*
X109359717Y-121253726D01*
X109359628Y-121253834D01*
X109357838Y-121255599D01*
X109346024Y-121267413D01*
X109346024Y-117730024D01*
X109339171Y-117660131D01*
X109333055Y-117590221D01*
X109331940Y-117586383D01*
X109331550Y-117582406D01*
X109311260Y-117515203D01*
X109291673Y-117447784D01*
X109289834Y-117444236D01*
X109288679Y-117440411D01*
X109255736Y-117378453D01*
X109223414Y-117316098D01*
X109220919Y-117312973D01*
X109219044Y-117309446D01*
X109174687Y-117255059D01*
X109130876Y-117200178D01*
X109125393Y-117194618D01*
X109125298Y-117194502D01*
X109125190Y-117194413D01*
X109123425Y-117192623D01*
X107857169Y-115926367D01*
X107833425Y-115806448D01*
X107763550Y-115636920D01*
X107662079Y-115484193D01*
X107532875Y-115354084D01*
X107380860Y-115251549D01*
X107211825Y-115180493D01*
X107032207Y-115143623D01*
X106848849Y-115142343D01*
X106668733Y-115176701D01*
X106498722Y-115245390D01*
X106345291Y-115345793D01*
X106214283Y-115474086D01*
X106110689Y-115625381D01*
X106038454Y-115793916D01*
X106000331Y-115973272D01*
X105997771Y-116156617D01*
X106030872Y-116336968D01*
X106098372Y-116507454D01*
X106148806Y-116585713D01*
X106110689Y-116641381D01*
X106038454Y-116809916D01*
X106000331Y-116989272D01*
X105997771Y-117172617D01*
X106030872Y-117352968D01*
X106098372Y-117523454D01*
X106148803Y-117601708D01*
X106110689Y-117657373D01*
X106038454Y-117825908D01*
X106000331Y-118005264D01*
X105997771Y-118188609D01*
X106030872Y-118368960D01*
X106098372Y-118539446D01*
X106174000Y-118656798D01*
X106174000Y-120613996D01*
X106180851Y-120683873D01*
X106186969Y-120753799D01*
X106188084Y-120757637D01*
X106188474Y-120761614D01*
X106208764Y-120828817D01*
X106228351Y-120896236D01*
X106230190Y-120899784D01*
X106231345Y-120903609D01*
X106264299Y-120965587D01*
X106280636Y-120997104D01*
X106243981Y-121033000D01*
X105700170Y-121033000D01*
X105607450Y-120953975D01*
X105443763Y-120880190D01*
X105266000Y-120854928D01*
X103688311Y-120854928D01*
X103688311Y-109385560D01*
X103811333Y-109576452D01*
X104000011Y-109771834D01*
X104223045Y-109926847D01*
X104471941Y-110035586D01*
X104737217Y-110093911D01*
X105008770Y-110099599D01*
X105276256Y-110052434D01*
X105506961Y-109962950D01*
X107034200Y-109962950D01*
X107034200Y-111239742D01*
X107058603Y-111362423D01*
X107106470Y-111477985D01*
X107175963Y-111581989D01*
X107264411Y-111670437D01*
X107368415Y-111739930D01*
X107483977Y-111787797D01*
X107606658Y-111812200D01*
X108883450Y-111812200D01*
X109042200Y-111653450D01*
X109042200Y-109804200D01*
X109296200Y-109804200D01*
X109296200Y-111653450D01*
X109454950Y-111812200D01*
X110731742Y-111812200D01*
X110854423Y-111787797D01*
X110969985Y-111739930D01*
X111073989Y-111670437D01*
X111162437Y-111581989D01*
X111231930Y-111477985D01*
X111279797Y-111362423D01*
X111304200Y-111239742D01*
X111304200Y-109962950D01*
X111145450Y-109804200D01*
X109296200Y-109804200D01*
X109042200Y-109804200D01*
X107192950Y-109804200D01*
X107034200Y-109962950D01*
X105506961Y-109962950D01*
X105529487Y-109954213D01*
X105758817Y-109808675D01*
X105955511Y-109621366D01*
X106112077Y-109399419D01*
X106222552Y-109151289D01*
X106282727Y-108886426D01*
X106287059Y-108576194D01*
X106234303Y-108309754D01*
X106153890Y-108114658D01*
X107034200Y-108114658D01*
X107034200Y-109391450D01*
X107192950Y-109550200D01*
X109042200Y-109550200D01*
X109042200Y-107700950D01*
X109296200Y-107700950D01*
X109296200Y-109550200D01*
X111145450Y-109550200D01*
X111304200Y-109391450D01*
X111304200Y-108114658D01*
X111279797Y-107991977D01*
X111231930Y-107876415D01*
X111162437Y-107772411D01*
X111073989Y-107683963D01*
X110969985Y-107614470D01*
X110854423Y-107566603D01*
X110731742Y-107542200D01*
X109454950Y-107542200D01*
X109296200Y-107700950D01*
X109042200Y-107700950D01*
X108883450Y-107542200D01*
X107606658Y-107542200D01*
X107483977Y-107566603D01*
X107368415Y-107614470D01*
X107264411Y-107683963D01*
X107175963Y-107772411D01*
X107106470Y-107876415D01*
X107058603Y-107991977D01*
X107034200Y-108114658D01*
X106153890Y-108114658D01*
X106130799Y-108058636D01*
X105980491Y-107832404D01*
X105789104Y-107639676D01*
X105563927Y-107487792D01*
X105313537Y-107382538D01*
X105047472Y-107327923D01*
X104775867Y-107326027D01*
X104620472Y-107355670D01*
X104579802Y-107315000D01*
X106025291Y-105869511D01*
X126765709Y-105869511D01*
X128151800Y-107255602D01*
X128151800Y-107255602D01*
G37*
X128151800Y-107255602D02*
X128084601Y-107248064D01*
X128076796Y-107248010D01*
X128076643Y-107247994D01*
X128076500Y-107248008D01*
X128073990Y-107247990D01*
X119955600Y-107247990D01*
X119885723Y-107254841D01*
X119815797Y-107260959D01*
X119811959Y-107262074D01*
X119807982Y-107262464D01*
X119740779Y-107282754D01*
X119673360Y-107302341D01*
X119669812Y-107304180D01*
X119665987Y-107305335D01*
X119603990Y-107338299D01*
X119541674Y-107370601D01*
X119538553Y-107373093D01*
X119535022Y-107374970D01*
X119480607Y-107419349D01*
X119425754Y-107463138D01*
X119420194Y-107468621D01*
X119420078Y-107468716D01*
X119419989Y-107468824D01*
X119418199Y-107470589D01*
X116810599Y-110078189D01*
X116766032Y-110132445D01*
X116720914Y-110186215D01*
X116718989Y-110189716D01*
X116716452Y-110192805D01*
X116683287Y-110254657D01*
X116649457Y-110316194D01*
X116648248Y-110320006D01*
X116646361Y-110323525D01*
X116625848Y-110390621D01*
X116604608Y-110457577D01*
X116604162Y-110461549D01*
X116602994Y-110465371D01*
X116595897Y-110535239D01*
X116588074Y-110604979D01*
X116588020Y-110612784D01*
X116588004Y-110612937D01*
X116588018Y-110613080D01*
X116588000Y-110615590D01*
X116588000Y-118190951D01*
X116500849Y-118190343D01*
X116320733Y-118224701D01*
X116150722Y-118293390D01*
X115997291Y-118393793D01*
X115866283Y-118522086D01*
X115762689Y-118673381D01*
X115705026Y-118807917D01*
X115461472Y-118757923D01*
X115189867Y-118756027D01*
X114923065Y-118806922D01*
X114671230Y-118908670D01*
X114443955Y-119057395D01*
X114249895Y-119247432D01*
X114096443Y-119471543D01*
X113989444Y-119721192D01*
X113932972Y-119986869D01*
X113929180Y-120258455D01*
X113978211Y-120525605D01*
X114078198Y-120778144D01*
X114127682Y-120854928D01*
X112666000Y-120854928D01*
X112564879Y-120862992D01*
X112393366Y-120916106D01*
X112243441Y-121014900D01*
X112228014Y-121033000D01*
X109895239Y-121033000D01*
X109825362Y-121039851D01*
X109755436Y-121045969D01*
X109751598Y-121047084D01*
X109747621Y-121047474D01*
X109680418Y-121067764D01*
X109612999Y-121087351D01*
X109609451Y-121089190D01*
X109605626Y-121090345D01*
X109543668Y-121123288D01*
X109481313Y-121155610D01*
X109478188Y-121158105D01*
X109474661Y-121159980D01*
X109420274Y-121204337D01*
X109365393Y-121248148D01*
X109359833Y-121253631D01*
X109359717Y-121253726D01*
X109359628Y-121253834D01*
X109357838Y-121255599D01*
X109346024Y-121267413D01*
X109346024Y-117730024D01*
X109339171Y-117660131D01*
X109333055Y-117590221D01*
X109331940Y-117586383D01*
X109331550Y-117582406D01*
X109311260Y-117515203D01*
X109291673Y-117447784D01*
X109289834Y-117444236D01*
X109288679Y-117440411D01*
X109255736Y-117378453D01*
X109223414Y-117316098D01*
X109220919Y-117312973D01*
X109219044Y-117309446D01*
X109174687Y-117255059D01*
X109130876Y-117200178D01*
X109125393Y-117194618D01*
X109125298Y-117194502D01*
X109125190Y-117194413D01*
X109123425Y-117192623D01*
X107857169Y-115926367D01*
X107833425Y-115806448D01*
X107763550Y-115636920D01*
X107662079Y-115484193D01*
X107532875Y-115354084D01*
X107380860Y-115251549D01*
X107211825Y-115180493D01*
X107032207Y-115143623D01*
X106848849Y-115142343D01*
X106668733Y-115176701D01*
X106498722Y-115245390D01*
X106345291Y-115345793D01*
X106214283Y-115474086D01*
X106110689Y-115625381D01*
X106038454Y-115793916D01*
X106000331Y-115973272D01*
X105997771Y-116156617D01*
X106030872Y-116336968D01*
X106098372Y-116507454D01*
X106148806Y-116585713D01*
X106110689Y-116641381D01*
X106038454Y-116809916D01*
X106000331Y-116989272D01*
X105997771Y-117172617D01*
X106030872Y-117352968D01*
X106098372Y-117523454D01*
X106148803Y-117601708D01*
X106110689Y-117657373D01*
X106038454Y-117825908D01*
X106000331Y-118005264D01*
X105997771Y-118188609D01*
X106030872Y-118368960D01*
X106098372Y-118539446D01*
X106174000Y-118656798D01*
X106174000Y-120613996D01*
X106180851Y-120683873D01*
X106186969Y-120753799D01*
X106188084Y-120757637D01*
X106188474Y-120761614D01*
X106208764Y-120828817D01*
X106228351Y-120896236D01*
X106230190Y-120899784D01*
X106231345Y-120903609D01*
X106264299Y-120965587D01*
X106280636Y-120997104D01*
X106243981Y-121033000D01*
X105700170Y-121033000D01*
X105607450Y-120953975D01*
X105443763Y-120880190D01*
X105266000Y-120854928D01*
X103688311Y-120854928D01*
X103688311Y-109385560D01*
X103811333Y-109576452D01*
X104000011Y-109771834D01*
X104223045Y-109926847D01*
X104471941Y-110035586D01*
X104737217Y-110093911D01*
X105008770Y-110099599D01*
X105276256Y-110052434D01*
X105506961Y-109962950D01*
X107034200Y-109962950D01*
X107034200Y-111239742D01*
X107058603Y-111362423D01*
X107106470Y-111477985D01*
X107175963Y-111581989D01*
X107264411Y-111670437D01*
X107368415Y-111739930D01*
X107483977Y-111787797D01*
X107606658Y-111812200D01*
X108883450Y-111812200D01*
X109042200Y-111653450D01*
X109042200Y-109804200D01*
X109296200Y-109804200D01*
X109296200Y-111653450D01*
X109454950Y-111812200D01*
X110731742Y-111812200D01*
X110854423Y-111787797D01*
X110969985Y-111739930D01*
X111073989Y-111670437D01*
X111162437Y-111581989D01*
X111231930Y-111477985D01*
X111279797Y-111362423D01*
X111304200Y-111239742D01*
X111304200Y-109962950D01*
X111145450Y-109804200D01*
X109296200Y-109804200D01*
X109042200Y-109804200D01*
X107192950Y-109804200D01*
X107034200Y-109962950D01*
X105506961Y-109962950D01*
X105529487Y-109954213D01*
X105758817Y-109808675D01*
X105955511Y-109621366D01*
X106112077Y-109399419D01*
X106222552Y-109151289D01*
X106282727Y-108886426D01*
X106287059Y-108576194D01*
X106234303Y-108309754D01*
X106153890Y-108114658D01*
X107034200Y-108114658D01*
X107034200Y-109391450D01*
X107192950Y-109550200D01*
X109042200Y-109550200D01*
X109042200Y-107700950D01*
X109296200Y-107700950D01*
X109296200Y-109550200D01*
X111145450Y-109550200D01*
X111304200Y-109391450D01*
X111304200Y-108114658D01*
X111279797Y-107991977D01*
X111231930Y-107876415D01*
X111162437Y-107772411D01*
X111073989Y-107683963D01*
X110969985Y-107614470D01*
X110854423Y-107566603D01*
X110731742Y-107542200D01*
X109454950Y-107542200D01*
X109296200Y-107700950D01*
X109042200Y-107700950D01*
X108883450Y-107542200D01*
X107606658Y-107542200D01*
X107483977Y-107566603D01*
X107368415Y-107614470D01*
X107264411Y-107683963D01*
X107175963Y-107772411D01*
X107106470Y-107876415D01*
X107058603Y-107991977D01*
X107034200Y-108114658D01*
X106153890Y-108114658D01*
X106130799Y-108058636D01*
X105980491Y-107832404D01*
X105789104Y-107639676D01*
X105563927Y-107487792D01*
X105313537Y-107382538D01*
X105047472Y-107327923D01*
X104775867Y-107326027D01*
X104620472Y-107355670D01*
X104579802Y-107315000D01*
X106025291Y-105869511D01*
X126765709Y-105869511D01*
X128151800Y-107255602D01*
G36*
X150941500Y-110045500D02*
X150948351Y-110115377D01*
X150954469Y-110185303D01*
X150955584Y-110189141D01*
X150955974Y-110193118D01*
X150976264Y-110260321D01*
X150995851Y-110327740D01*
X150997690Y-110331288D01*
X150998845Y-110335113D01*
X151031799Y-110397091D01*
X151064110Y-110459425D01*
X151066603Y-110462548D01*
X151068480Y-110466078D01*
X151112855Y-110520487D01*
X151156648Y-110575346D01*
X151162131Y-110580906D01*
X151162226Y-110581022D01*
X151162334Y-110581111D01*
X151164099Y-110582901D01*
X153788743Y-113207545D01*
X153768760Y-113213351D01*
X153765212Y-113215190D01*
X153761387Y-113216345D01*
X153699390Y-113249309D01*
X153637074Y-113281611D01*
X153633953Y-113284103D01*
X153630422Y-113285980D01*
X153576007Y-113330359D01*
X153521154Y-113374148D01*
X153515594Y-113379631D01*
X153515478Y-113379726D01*
X153515389Y-113379834D01*
X153513599Y-113381599D01*
X147132198Y-119763000D01*
X145865543Y-119763000D01*
X145900810Y-119684763D01*
X145926072Y-119507000D01*
X145926072Y-118999000D01*
X145918008Y-118897879D01*
X145864894Y-118726366D01*
X145766100Y-118576441D01*
X145629450Y-118459975D01*
X145465763Y-118386190D01*
X145288000Y-118360928D01*
X144420362Y-118360928D01*
X142804184Y-116744750D01*
X145074000Y-116744750D01*
X145074000Y-116821542D01*
X145098403Y-116944223D01*
X145146270Y-117059785D01*
X145215763Y-117163789D01*
X145304211Y-117252237D01*
X145408215Y-117321730D01*
X145523777Y-117369597D01*
X145646458Y-117394000D01*
X146398250Y-117394000D01*
X146557000Y-117235250D01*
X146557000Y-116586000D01*
X146811000Y-116586000D01*
X146811000Y-117235250D01*
X146969750Y-117394000D01*
X147721542Y-117394000D01*
X147844223Y-117369597D01*
X147959785Y-117321730D01*
X148063789Y-117252237D01*
X148152237Y-117163789D01*
X148221730Y-117059785D01*
X148269597Y-116944223D01*
X148294000Y-116821542D01*
X148294000Y-116744750D01*
X148135250Y-116586000D01*
X146811000Y-116586000D01*
X146557000Y-116586000D01*
X145232750Y-116586000D01*
X145074000Y-116744750D01*
X142804184Y-116744750D01*
X140457409Y-114397975D01*
X140452523Y-114348144D01*
X140445398Y-114266704D01*
X140444099Y-114262233D01*
X140443645Y-114257603D01*
X140420039Y-114179415D01*
X140397211Y-114100840D01*
X140395066Y-114096703D01*
X140393723Y-114092253D01*
X140355384Y-114020147D01*
X140317724Y-113947494D01*
X140314818Y-113943854D01*
X140312635Y-113939748D01*
X140261018Y-113876460D01*
X140209967Y-113812509D01*
X140203576Y-113806028D01*
X140203470Y-113805899D01*
X140203350Y-113805800D01*
X140201290Y-113803711D01*
X137297052Y-110899472D01*
X139574000Y-110899472D01*
X139675121Y-110891408D01*
X139846634Y-110838294D01*
X139951245Y-110769360D01*
X140033215Y-110824130D01*
X140148777Y-110871997D01*
X140271458Y-110896400D01*
X141888250Y-110896400D01*
X142046998Y-110737652D01*
X142046998Y-110896400D01*
X142162760Y-110896400D01*
X142081844Y-111085192D01*
X142025372Y-111350869D01*
X142021580Y-111622455D01*
X142070611Y-111889605D01*
X142170598Y-112142144D01*
X142317733Y-112370452D01*
X142506411Y-112565834D01*
X142729445Y-112720847D01*
X142828290Y-112764031D01*
X142742244Y-112964792D01*
X142685772Y-113230469D01*
X142681980Y-113502055D01*
X142731011Y-113769205D01*
X142830998Y-114021744D01*
X142978133Y-114250052D01*
X143166811Y-114445434D01*
X143389845Y-114600447D01*
X143638741Y-114709186D01*
X143904017Y-114767511D01*
X144175570Y-114773199D01*
X144443056Y-114726034D01*
X144696287Y-114627813D01*
X144925617Y-114482275D01*
X145082842Y-114332552D01*
X145132106Y-114491634D01*
X145169560Y-114548472D01*
X145096190Y-114711237D01*
X145070928Y-114889000D01*
X145070928Y-115489000D01*
X145078992Y-115590121D01*
X145132106Y-115761634D01*
X145171181Y-115820933D01*
X145146270Y-115858215D01*
X145098403Y-115973777D01*
X145074000Y-116096458D01*
X145074000Y-116173250D01*
X145232750Y-116332000D01*
X146557000Y-116332000D01*
X146557000Y-116312000D01*
X146811000Y-116312000D01*
X146811000Y-116332000D01*
X148135250Y-116332000D01*
X148294000Y-116173250D01*
X148294000Y-116096458D01*
X148269597Y-115973777D01*
X148236866Y-115894758D01*
X148237240Y-115894649D01*
X148240788Y-115892810D01*
X148244613Y-115891655D01*
X148306591Y-115858701D01*
X148368925Y-115826390D01*
X148372048Y-115823897D01*
X148375578Y-115822020D01*
X148429987Y-115777645D01*
X148484846Y-115733852D01*
X148490406Y-115728369D01*
X148490522Y-115728274D01*
X148490611Y-115728166D01*
X148492401Y-115726401D01*
X148869169Y-115349633D01*
X148969657Y-115331914D01*
X149140610Y-115265606D01*
X149295429Y-115167355D01*
X149428215Y-115040904D01*
X149533911Y-114891070D01*
X149608492Y-114723560D01*
X149649116Y-114544754D01*
X149652040Y-114335319D01*
X149616425Y-114155448D01*
X149546550Y-113985920D01*
X149445079Y-113833193D01*
X149315875Y-113703084D01*
X149191600Y-113619260D01*
X149279911Y-113494070D01*
X149354492Y-113326560D01*
X149395116Y-113147754D01*
X149398040Y-112938319D01*
X149362425Y-112758448D01*
X149304738Y-112618490D01*
X149428215Y-112500904D01*
X149533911Y-112351070D01*
X149608492Y-112183560D01*
X149649116Y-112004754D01*
X149652040Y-111795319D01*
X149616425Y-111615448D01*
X149546550Y-111445920D01*
X149445079Y-111293193D01*
X149315875Y-111163084D01*
X149163860Y-111060549D01*
X148994825Y-110989493D01*
X148815207Y-110952623D01*
X148631849Y-110951343D01*
X148451733Y-110985701D01*
X148294692Y-111049150D01*
X148289008Y-110977879D01*
X148235894Y-110806366D01*
X148198440Y-110749528D01*
X148271810Y-110586763D01*
X148297072Y-110409000D01*
X148297072Y-109809000D01*
X148289008Y-109707879D01*
X148253926Y-109594595D01*
X148278877Y-109592149D01*
X148348803Y-109586031D01*
X148352641Y-109584916D01*
X148356618Y-109584526D01*
X148423821Y-109564236D01*
X148491240Y-109544649D01*
X148494788Y-109542810D01*
X148498613Y-109541655D01*
X148560591Y-109508701D01*
X148622925Y-109476390D01*
X148626048Y-109473897D01*
X148629578Y-109472020D01*
X148683987Y-109427645D01*
X148738846Y-109383852D01*
X148744406Y-109378369D01*
X148744522Y-109378274D01*
X148744611Y-109378166D01*
X148746401Y-109376401D01*
X150941500Y-107181302D01*
X150941500Y-110045500D01*
X150941500Y-110045500D01*
G37*
X150941500Y-110045500D02*
X150948351Y-110115377D01*
X150954469Y-110185303D01*
X150955584Y-110189141D01*
X150955974Y-110193118D01*
X150976264Y-110260321D01*
X150995851Y-110327740D01*
X150997690Y-110331288D01*
X150998845Y-110335113D01*
X151031799Y-110397091D01*
X151064110Y-110459425D01*
X151066603Y-110462548D01*
X151068480Y-110466078D01*
X151112855Y-110520487D01*
X151156648Y-110575346D01*
X151162131Y-110580906D01*
X151162226Y-110581022D01*
X151162334Y-110581111D01*
X151164099Y-110582901D01*
X153788743Y-113207545D01*
X153768760Y-113213351D01*
X153765212Y-113215190D01*
X153761387Y-113216345D01*
X153699390Y-113249309D01*
X153637074Y-113281611D01*
X153633953Y-113284103D01*
X153630422Y-113285980D01*
X153576007Y-113330359D01*
X153521154Y-113374148D01*
X153515594Y-113379631D01*
X153515478Y-113379726D01*
X153515389Y-113379834D01*
X153513599Y-113381599D01*
X147132198Y-119763000D01*
X145865543Y-119763000D01*
X145900810Y-119684763D01*
X145926072Y-119507000D01*
X145926072Y-118999000D01*
X145918008Y-118897879D01*
X145864894Y-118726366D01*
X145766100Y-118576441D01*
X145629450Y-118459975D01*
X145465763Y-118386190D01*
X145288000Y-118360928D01*
X144420362Y-118360928D01*
X142804184Y-116744750D01*
X145074000Y-116744750D01*
X145074000Y-116821542D01*
X145098403Y-116944223D01*
X145146270Y-117059785D01*
X145215763Y-117163789D01*
X145304211Y-117252237D01*
X145408215Y-117321730D01*
X145523777Y-117369597D01*
X145646458Y-117394000D01*
X146398250Y-117394000D01*
X146557000Y-117235250D01*
X146557000Y-116586000D01*
X146811000Y-116586000D01*
X146811000Y-117235250D01*
X146969750Y-117394000D01*
X147721542Y-117394000D01*
X147844223Y-117369597D01*
X147959785Y-117321730D01*
X148063789Y-117252237D01*
X148152237Y-117163789D01*
X148221730Y-117059785D01*
X148269597Y-116944223D01*
X148294000Y-116821542D01*
X148294000Y-116744750D01*
X148135250Y-116586000D01*
X146811000Y-116586000D01*
X146557000Y-116586000D01*
X145232750Y-116586000D01*
X145074000Y-116744750D01*
X142804184Y-116744750D01*
X140457409Y-114397975D01*
X140452523Y-114348144D01*
X140445398Y-114266704D01*
X140444099Y-114262233D01*
X140443645Y-114257603D01*
X140420039Y-114179415D01*
X140397211Y-114100840D01*
X140395066Y-114096703D01*
X140393723Y-114092253D01*
X140355384Y-114020147D01*
X140317724Y-113947494D01*
X140314818Y-113943854D01*
X140312635Y-113939748D01*
X140261018Y-113876460D01*
X140209967Y-113812509D01*
X140203576Y-113806028D01*
X140203470Y-113805899D01*
X140203350Y-113805800D01*
X140201290Y-113803711D01*
X137297052Y-110899472D01*
X139574000Y-110899472D01*
X139675121Y-110891408D01*
X139846634Y-110838294D01*
X139951245Y-110769360D01*
X140033215Y-110824130D01*
X140148777Y-110871997D01*
X140271458Y-110896400D01*
X141888250Y-110896400D01*
X142046998Y-110737652D01*
X142046998Y-110896400D01*
X142162760Y-110896400D01*
X142081844Y-111085192D01*
X142025372Y-111350869D01*
X142021580Y-111622455D01*
X142070611Y-111889605D01*
X142170598Y-112142144D01*
X142317733Y-112370452D01*
X142506411Y-112565834D01*
X142729445Y-112720847D01*
X142828290Y-112764031D01*
X142742244Y-112964792D01*
X142685772Y-113230469D01*
X142681980Y-113502055D01*
X142731011Y-113769205D01*
X142830998Y-114021744D01*
X142978133Y-114250052D01*
X143166811Y-114445434D01*
X143389845Y-114600447D01*
X143638741Y-114709186D01*
X143904017Y-114767511D01*
X144175570Y-114773199D01*
X144443056Y-114726034D01*
X144696287Y-114627813D01*
X144925617Y-114482275D01*
X145082842Y-114332552D01*
X145132106Y-114491634D01*
X145169560Y-114548472D01*
X145096190Y-114711237D01*
X145070928Y-114889000D01*
X145070928Y-115489000D01*
X145078992Y-115590121D01*
X145132106Y-115761634D01*
X145171181Y-115820933D01*
X145146270Y-115858215D01*
X145098403Y-115973777D01*
X145074000Y-116096458D01*
X145074000Y-116173250D01*
X145232750Y-116332000D01*
X146557000Y-116332000D01*
X146557000Y-116312000D01*
X146811000Y-116312000D01*
X146811000Y-116332000D01*
X148135250Y-116332000D01*
X148294000Y-116173250D01*
X148294000Y-116096458D01*
X148269597Y-115973777D01*
X148236866Y-115894758D01*
X148237240Y-115894649D01*
X148240788Y-115892810D01*
X148244613Y-115891655D01*
X148306591Y-115858701D01*
X148368925Y-115826390D01*
X148372048Y-115823897D01*
X148375578Y-115822020D01*
X148429987Y-115777645D01*
X148484846Y-115733852D01*
X148490406Y-115728369D01*
X148490522Y-115728274D01*
X148490611Y-115728166D01*
X148492401Y-115726401D01*
X148869169Y-115349633D01*
X148969657Y-115331914D01*
X149140610Y-115265606D01*
X149295429Y-115167355D01*
X149428215Y-115040904D01*
X149533911Y-114891070D01*
X149608492Y-114723560D01*
X149649116Y-114544754D01*
X149652040Y-114335319D01*
X149616425Y-114155448D01*
X149546550Y-113985920D01*
X149445079Y-113833193D01*
X149315875Y-113703084D01*
X149191600Y-113619260D01*
X149279911Y-113494070D01*
X149354492Y-113326560D01*
X149395116Y-113147754D01*
X149398040Y-112938319D01*
X149362425Y-112758448D01*
X149304738Y-112618490D01*
X149428215Y-112500904D01*
X149533911Y-112351070D01*
X149608492Y-112183560D01*
X149649116Y-112004754D01*
X149652040Y-111795319D01*
X149616425Y-111615448D01*
X149546550Y-111445920D01*
X149445079Y-111293193D01*
X149315875Y-111163084D01*
X149163860Y-111060549D01*
X148994825Y-110989493D01*
X148815207Y-110952623D01*
X148631849Y-110951343D01*
X148451733Y-110985701D01*
X148294692Y-111049150D01*
X148289008Y-110977879D01*
X148235894Y-110806366D01*
X148198440Y-110749528D01*
X148271810Y-110586763D01*
X148297072Y-110409000D01*
X148297072Y-109809000D01*
X148289008Y-109707879D01*
X148253926Y-109594595D01*
X148278877Y-109592149D01*
X148348803Y-109586031D01*
X148352641Y-109584916D01*
X148356618Y-109584526D01*
X148423821Y-109564236D01*
X148491240Y-109544649D01*
X148494788Y-109542810D01*
X148498613Y-109541655D01*
X148560591Y-109508701D01*
X148622925Y-109476390D01*
X148626048Y-109473897D01*
X148629578Y-109472020D01*
X148683987Y-109427645D01*
X148738846Y-109383852D01*
X148744406Y-109378369D01*
X148744522Y-109378274D01*
X148744611Y-109378166D01*
X148746401Y-109376401D01*
X150941500Y-107181302D01*
X150941500Y-110045500D01*
G36*
X142301000Y-109499400D02*
X142321000Y-109499400D01*
X142321000Y-109753400D01*
X142301000Y-109753400D01*
X142301000Y-109773400D01*
X142047000Y-109773400D01*
X142047000Y-109753400D01*
X142027000Y-109753400D01*
X142027000Y-109499400D01*
X142047000Y-109499400D01*
X142047000Y-109479400D01*
X142301000Y-109479400D01*
X142301000Y-109499400D01*
X142301000Y-109499400D01*
G37*
X142301000Y-109499400D02*
X142321000Y-109499400D01*
X142321000Y-109753400D01*
X142301000Y-109753400D01*
X142301000Y-109773400D01*
X142047000Y-109773400D01*
X142047000Y-109753400D01*
X142027000Y-109753400D01*
X142027000Y-109499400D01*
X142047000Y-109499400D01*
X142047000Y-109479400D01*
X142301000Y-109479400D01*
X142301000Y-109499400D01*
G36*
X177065000Y-107716103D02*
X176996799Y-107550636D01*
X176846491Y-107324404D01*
X176655104Y-107131676D01*
X176429927Y-106979792D01*
X176179537Y-106874538D01*
X175913472Y-106819923D01*
X175641867Y-106818027D01*
X175375065Y-106868922D01*
X175123230Y-106970670D01*
X174895955Y-107119395D01*
X174701895Y-107309432D01*
X174548443Y-107533543D01*
X174441444Y-107783192D01*
X174384972Y-108048869D01*
X174381180Y-108320455D01*
X174430211Y-108587605D01*
X174530198Y-108840144D01*
X174677333Y-109068452D01*
X174798325Y-109193743D01*
X174793093Y-109210855D01*
X174770039Y-109283529D01*
X174769555Y-109287843D01*
X174768286Y-109291994D01*
X174762698Y-109347000D01*
X172213974Y-109347000D01*
X172183894Y-109249866D01*
X172085100Y-109099941D01*
X172082500Y-109097725D01*
X172082500Y-108952484D01*
X172146025Y-108877950D01*
X172219810Y-108714263D01*
X172245072Y-108536500D01*
X172245072Y-107236500D01*
X172237008Y-107135379D01*
X172183894Y-106963866D01*
X172085100Y-106813941D01*
X172082500Y-106811725D01*
X172082500Y-106729984D01*
X172146025Y-106655450D01*
X172219810Y-106491763D01*
X172245072Y-106314000D01*
X172245072Y-105014000D01*
X172237008Y-104912879D01*
X172183894Y-104741366D01*
X172109324Y-104628202D01*
X172211789Y-104559737D01*
X172300237Y-104471289D01*
X172369730Y-104367285D01*
X172417597Y-104251723D01*
X172442000Y-104129042D01*
X172442000Y-103727250D01*
X172283250Y-103568500D01*
X171434000Y-103568500D01*
X171434000Y-103588500D01*
X171180000Y-103588500D01*
X171180000Y-103568500D01*
X171160000Y-103568500D01*
X171160000Y-103314500D01*
X171180000Y-103314500D01*
X171180000Y-103294500D01*
X171434000Y-103294500D01*
X171434000Y-103314500D01*
X172283250Y-103314500D01*
X172442000Y-103155750D01*
X172442000Y-102753958D01*
X172417597Y-102631277D01*
X172369730Y-102515715D01*
X172300237Y-102411711D01*
X172223526Y-102335000D01*
X177065000Y-102335000D01*
X177065000Y-107716103D01*
X177065000Y-107716103D01*
G37*
X177065000Y-107716103D02*
X176996799Y-107550636D01*
X176846491Y-107324404D01*
X176655104Y-107131676D01*
X176429927Y-106979792D01*
X176179537Y-106874538D01*
X175913472Y-106819923D01*
X175641867Y-106818027D01*
X175375065Y-106868922D01*
X175123230Y-106970670D01*
X174895955Y-107119395D01*
X174701895Y-107309432D01*
X174548443Y-107533543D01*
X174441444Y-107783192D01*
X174384972Y-108048869D01*
X174381180Y-108320455D01*
X174430211Y-108587605D01*
X174530198Y-108840144D01*
X174677333Y-109068452D01*
X174798325Y-109193743D01*
X174793093Y-109210855D01*
X174770039Y-109283529D01*
X174769555Y-109287843D01*
X174768286Y-109291994D01*
X174762698Y-109347000D01*
X172213974Y-109347000D01*
X172183894Y-109249866D01*
X172085100Y-109099941D01*
X172082500Y-109097725D01*
X172082500Y-108952484D01*
X172146025Y-108877950D01*
X172219810Y-108714263D01*
X172245072Y-108536500D01*
X172245072Y-107236500D01*
X172237008Y-107135379D01*
X172183894Y-106963866D01*
X172085100Y-106813941D01*
X172082500Y-106811725D01*
X172082500Y-106729984D01*
X172146025Y-106655450D01*
X172219810Y-106491763D01*
X172245072Y-106314000D01*
X172245072Y-105014000D01*
X172237008Y-104912879D01*
X172183894Y-104741366D01*
X172109324Y-104628202D01*
X172211789Y-104559737D01*
X172300237Y-104471289D01*
X172369730Y-104367285D01*
X172417597Y-104251723D01*
X172442000Y-104129042D01*
X172442000Y-103727250D01*
X172283250Y-103568500D01*
X171434000Y-103568500D01*
X171434000Y-103588500D01*
X171180000Y-103588500D01*
X171180000Y-103568500D01*
X171160000Y-103568500D01*
X171160000Y-103314500D01*
X171180000Y-103314500D01*
X171180000Y-103294500D01*
X171434000Y-103294500D01*
X171434000Y-103314500D01*
X172283250Y-103314500D01*
X172442000Y-103155750D01*
X172442000Y-102753958D01*
X172417597Y-102631277D01*
X172369730Y-102515715D01*
X172300237Y-102411711D01*
X172223526Y-102335000D01*
X177065000Y-102335000D01*
X177065000Y-107716103D01*
G36*
X160660862Y-106339936D02*
X160665303Y-106341345D01*
X160669399Y-106343541D01*
X160747495Y-106367418D01*
X160825499Y-106392162D01*
X160830127Y-106392681D01*
X160834575Y-106394041D01*
X160915845Y-106402296D01*
X160997144Y-106411415D01*
X161006247Y-106411478D01*
X161006411Y-106411495D01*
X161006564Y-106411481D01*
X161009501Y-106411501D01*
X161947599Y-106411501D01*
X162119496Y-106394646D01*
X162260743Y-106352001D01*
X163449527Y-106352001D01*
X164033526Y-106936000D01*
X162312202Y-106936000D01*
X162242321Y-106942852D01*
X162172399Y-106948969D01*
X162168561Y-106950084D01*
X162164584Y-106950474D01*
X162097414Y-106970754D01*
X162029963Y-106990350D01*
X162026412Y-106992191D01*
X162022589Y-106993345D01*
X161960628Y-107026290D01*
X161898277Y-107058610D01*
X161895154Y-107061103D01*
X161891624Y-107062980D01*
X161837191Y-107107375D01*
X161782357Y-107151148D01*
X161776798Y-107156630D01*
X161776680Y-107156726D01*
X161776590Y-107156835D01*
X161774801Y-107158599D01*
X160861389Y-108072011D01*
X160816822Y-108126267D01*
X160771704Y-108180037D01*
X160769779Y-108183538D01*
X160767242Y-108186627D01*
X160734077Y-108248479D01*
X160700247Y-108310016D01*
X160699038Y-108313828D01*
X160697151Y-108317347D01*
X160676638Y-108384443D01*
X160655398Y-108451399D01*
X160654952Y-108455371D01*
X160653784Y-108459193D01*
X160646687Y-108529061D01*
X160638864Y-108598801D01*
X160638810Y-108606606D01*
X160638794Y-108606759D01*
X160638808Y-108606902D01*
X160638790Y-108609412D01*
X160638790Y-108756599D01*
X159761599Y-108756599D01*
X159129425Y-108124425D01*
X159283400Y-107970450D01*
X159283400Y-107121200D01*
X159537400Y-107121200D01*
X159537400Y-107970450D01*
X159696150Y-108129200D01*
X160097942Y-108129200D01*
X160220623Y-108104797D01*
X160336185Y-108056930D01*
X160440189Y-107987437D01*
X160528637Y-107898989D01*
X160598130Y-107794985D01*
X160645997Y-107679423D01*
X160670400Y-107556742D01*
X160670400Y-107279950D01*
X160511650Y-107121200D01*
X159537400Y-107121200D01*
X159283400Y-107121200D01*
X159263400Y-107121200D01*
X159263400Y-106867200D01*
X159283400Y-106867200D01*
X159283400Y-106847200D01*
X159537400Y-106847200D01*
X159537400Y-106867200D01*
X160511650Y-106867200D01*
X160670400Y-106708450D01*
X160670400Y-106431658D01*
X160651086Y-106334562D01*
X160660862Y-106339936D01*
X160660862Y-106339936D01*
G37*
X160660862Y-106339936D02*
X160665303Y-106341345D01*
X160669399Y-106343541D01*
X160747495Y-106367418D01*
X160825499Y-106392162D01*
X160830127Y-106392681D01*
X160834575Y-106394041D01*
X160915845Y-106402296D01*
X160997144Y-106411415D01*
X161006247Y-106411478D01*
X161006411Y-106411495D01*
X161006564Y-106411481D01*
X161009501Y-106411501D01*
X161947599Y-106411501D01*
X162119496Y-106394646D01*
X162260743Y-106352001D01*
X163449527Y-106352001D01*
X164033526Y-106936000D01*
X162312202Y-106936000D01*
X162242321Y-106942852D01*
X162172399Y-106948969D01*
X162168561Y-106950084D01*
X162164584Y-106950474D01*
X162097414Y-106970754D01*
X162029963Y-106990350D01*
X162026412Y-106992191D01*
X162022589Y-106993345D01*
X161960628Y-107026290D01*
X161898277Y-107058610D01*
X161895154Y-107061103D01*
X161891624Y-107062980D01*
X161837191Y-107107375D01*
X161782357Y-107151148D01*
X161776798Y-107156630D01*
X161776680Y-107156726D01*
X161776590Y-107156835D01*
X161774801Y-107158599D01*
X160861389Y-108072011D01*
X160816822Y-108126267D01*
X160771704Y-108180037D01*
X160769779Y-108183538D01*
X160767242Y-108186627D01*
X160734077Y-108248479D01*
X160700247Y-108310016D01*
X160699038Y-108313828D01*
X160697151Y-108317347D01*
X160676638Y-108384443D01*
X160655398Y-108451399D01*
X160654952Y-108455371D01*
X160653784Y-108459193D01*
X160646687Y-108529061D01*
X160638864Y-108598801D01*
X160638810Y-108606606D01*
X160638794Y-108606759D01*
X160638808Y-108606902D01*
X160638790Y-108609412D01*
X160638790Y-108756599D01*
X159761599Y-108756599D01*
X159129425Y-108124425D01*
X159283400Y-107970450D01*
X159283400Y-107121200D01*
X159537400Y-107121200D01*
X159537400Y-107970450D01*
X159696150Y-108129200D01*
X160097942Y-108129200D01*
X160220623Y-108104797D01*
X160336185Y-108056930D01*
X160440189Y-107987437D01*
X160528637Y-107898989D01*
X160598130Y-107794985D01*
X160645997Y-107679423D01*
X160670400Y-107556742D01*
X160670400Y-107279950D01*
X160511650Y-107121200D01*
X159537400Y-107121200D01*
X159283400Y-107121200D01*
X159263400Y-107121200D01*
X159263400Y-106867200D01*
X159283400Y-106867200D01*
X159283400Y-106847200D01*
X159537400Y-106847200D01*
X159537400Y-106867200D01*
X160511650Y-106867200D01*
X160670400Y-106708450D01*
X160670400Y-106431658D01*
X160651086Y-106334562D01*
X160660862Y-106339936D01*
M02*
