G04 #@! TF.FileFunction,Paste,Top*
%FSLAX46Y46*%
G04 Gerber Fmt 4.6, Leading zero omitted, Abs format (unit mm)*
G04 Created by KiCad (PCBNEW 4.0.4-stable) date Saturday, September 24, 2016 'PMt' 09:51:50 PM*
%MOMM*%
%LPD*%
G01*
G04 APERTURE LIST*
%ADD10C,0.100000*%
%ADD11R,1.000000X1.250000*%
%ADD12R,1.250000X1.000000*%
%ADD13R,0.508000X1.143000*%
%ADD14R,3.600000X3.500000*%
%ADD15R,0.600000X1.550000*%
%ADD16R,1.143000X0.508000*%
%ADD17R,1.950000X0.600000*%
%ADD18R,1.550000X1.300000*%
%ADD19R,0.700000X1.300000*%
%ADD20R,1.350000X0.400000*%
%ADD21R,1.400000X1.600000*%
%ADD22R,1.900000X1.900000*%
%ADD23R,2.000000X0.600000*%
%ADD24R,3.680000X1.270000*%
%ADD25R,0.400000X1.200000*%
G04 APERTURE END LIST*
D10*
D11*
X108728000Y-148793200D03*
X110728000Y-148793200D03*
D12*
X126593600Y-150910800D03*
X126593600Y-148910800D03*
D11*
X108982000Y-143103600D03*
X110982000Y-143103600D03*
D12*
X124460000Y-150910800D03*
X124460000Y-148910800D03*
D13*
X134048500Y-111569500D03*
X132778500Y-111569500D03*
X131508500Y-111569500D03*
X130238500Y-111569500D03*
X130238500Y-105219500D03*
X131508500Y-105219500D03*
X132778500Y-105219500D03*
X134048500Y-105219500D03*
D14*
X167576500Y-130178000D03*
X167576500Y-114678000D03*
D15*
X166370000Y-104361000D03*
X165100000Y-104361000D03*
X163830000Y-104361000D03*
X162560000Y-104361000D03*
X162560000Y-109761000D03*
X163830000Y-109761000D03*
X165100000Y-109761000D03*
X166370000Y-109761000D03*
D16*
X151066500Y-119253000D03*
X151066500Y-120523000D03*
X151066500Y-121793000D03*
X151066500Y-123063000D03*
X144716500Y-123063000D03*
X144716500Y-121793000D03*
X144716500Y-120523000D03*
X144716500Y-119253000D03*
D17*
X146684000Y-105029000D03*
X146684000Y-106299000D03*
X146684000Y-107569000D03*
X146684000Y-108839000D03*
X146684000Y-110109000D03*
X146684000Y-111379000D03*
X146684000Y-112649000D03*
X146684000Y-113919000D03*
X146684000Y-115189000D03*
X146684000Y-116459000D03*
X156084000Y-116459000D03*
X156084000Y-115189000D03*
X156084000Y-113919000D03*
X156084000Y-112649000D03*
X156084000Y-111379000D03*
X156084000Y-110109000D03*
X156084000Y-108839000D03*
X156084000Y-107569000D03*
X156084000Y-106299000D03*
X156084000Y-105029000D03*
D18*
X140995500Y-147347500D03*
X140995500Y-142847500D03*
X148945500Y-142847500D03*
X148945500Y-147347500D03*
D19*
X153159500Y-147320000D03*
X151259500Y-147320000D03*
X171257000Y-105664000D03*
X169357000Y-105664000D03*
X171257000Y-107886500D03*
X169357000Y-107886500D03*
X107825500Y-137985500D03*
X109725500Y-137985500D03*
X108905000Y-144907000D03*
X110805000Y-144907000D03*
D13*
X125222000Y-109982000D03*
X123952000Y-109982000D03*
X122682000Y-109982000D03*
X121412000Y-109982000D03*
X121412000Y-103632000D03*
X122682000Y-103632000D03*
X123952000Y-103632000D03*
X125222000Y-103632000D03*
D19*
X108905000Y-146939000D03*
X110805000Y-146939000D03*
D20*
X105799000Y-147350000D03*
X105799000Y-146700000D03*
X105799000Y-144750000D03*
X105799000Y-145400000D03*
D21*
X105574000Y-142850000D03*
D22*
X103124000Y-144850000D03*
X103124000Y-147250000D03*
D21*
X105574000Y-149250000D03*
D20*
X105799000Y-146050000D03*
D19*
X171257000Y-110172500D03*
X169357000Y-110172500D03*
D23*
X113666000Y-135763000D03*
X113666000Y-134493000D03*
X113666000Y-133223000D03*
X113666000Y-131953000D03*
X113666000Y-130683000D03*
X113666000Y-129413000D03*
X113666000Y-128143000D03*
X113666000Y-126873000D03*
X113666000Y-125603000D03*
X113666000Y-124333000D03*
X113666000Y-123063000D03*
X113666000Y-121793000D03*
X104266000Y-121793000D03*
X104266000Y-123063000D03*
X104266000Y-124333000D03*
X104266000Y-125603000D03*
X104266000Y-126873000D03*
X104266000Y-128143000D03*
X104266000Y-129413000D03*
X104266000Y-130683000D03*
X104266000Y-131953000D03*
X104266000Y-133223000D03*
X104266000Y-134493000D03*
X104266000Y-135763000D03*
D24*
X142174000Y-104546400D03*
X142174000Y-107086400D03*
X142174000Y-109626400D03*
X137734000Y-109626400D03*
X137734000Y-107086400D03*
X137734000Y-104546400D03*
D25*
X112903000Y-148586500D03*
X113538000Y-148586500D03*
X114173000Y-148586500D03*
X114808000Y-148586500D03*
X115443000Y-148586500D03*
X116078000Y-148586500D03*
X116713000Y-148586500D03*
X117348000Y-148586500D03*
X117348000Y-143386500D03*
X116713000Y-143386500D03*
X116078000Y-143386500D03*
X115443000Y-143386500D03*
X114808000Y-143386500D03*
X114173000Y-143386500D03*
X113538000Y-143386500D03*
X112903000Y-143386500D03*
D11*
X113928400Y-150317200D03*
X111928400Y-150317200D03*
X111776000Y-137795000D03*
X113776000Y-137795000D03*
X164093400Y-111760000D03*
X162093400Y-111760000D03*
X169307000Y-103441500D03*
X171307000Y-103441500D03*
D12*
X159410400Y-104994200D03*
X159410400Y-106994200D03*
X117297200Y-141563600D03*
X117297200Y-139563600D03*
M02*
