M48
INCH,TZ
T1C0.012
T2C0.016
T3C0.024
T4C0.028
%
G90
G05
T1
X4.2Y-4.2
X4.228Y-5.802
X4.228Y-5.842
X4.228Y-5.882
X4.25Y-4.2
X4.452Y-5.594
X4.492Y-5.594
X4.566Y-5.352
X4.6Y-5.318
X4.74Y-5.704
X4.74Y-5.746
X5.2Y-5.89
X5.54Y-4.406
X5.58Y-4.406
X5.65Y-5.67
X5.65Y-5.73
X5.76Y-5.67
X5.76Y-5.73
X5.86Y-4.33
X5.91Y-4.33
X6.305Y-4.269
X6.346Y-4.213
X6.86Y-4.52
X6.882Y-4.07
X6.882Y-4.116
X6.91Y-4.52
X6.932Y-4.07
X6.932Y-4.116
T2
X4.21Y-4.79
X4.21Y-4.57
X4.21Y-4.61
X4.21Y-4.65
X4.21Y-4.94
X4.21Y-5.05
X4.21Y-5.085
X4.21Y-5.125
X4.21Y-5.16
X4.21Y-5.195
X4.21Y-5.23
X4.2112Y-4.9012
X4.51Y-5.5
X4.53Y-5.914
X4.59Y-4.69
X4.598Y-5.912
X4.6724Y-5.9344
X4.7175Y-4.6
X4.7175Y-4.9
X4.7175Y-5.2
X4.73Y-4.05
X4.8519Y-4.901
X4.855Y-5.205
X4.8559Y-5.4737
X5.01Y-4.0805
X5.03Y-4.32
X5.07Y-4.28
X5.155Y-4.31
X5.155Y-4.345
X5.3Y-4.22
X5.355Y-4.605
X5.355Y-4.9
X5.355Y-5.51
X5.355Y-5.21
X5.4858Y-4.5442
X5.696Y-4.236
X5.698Y-4.186
X5.7Y-4.274
X5.705Y-4.905
X5.705Y-5.205
X5.705Y-5.505
X5.845Y-4.45
X5.855Y-4.405
X5.855Y-4.505
X5.945Y-4.175
X5.9725Y-4.11
X6.028Y-4.034
X6.1489Y-4.6254
X6.1527Y-4.086
X6.155Y-4.91
X6.155Y-5.51
X6.16Y-5.205
X6.208Y-4.275
X6.225Y-4.175
X6.255Y-4.67
X6.28Y-5.09
X6.33Y-4.044
X6.42Y-4.052
X6.5Y-5.22
X6.505Y-5.505
T3
X4.691Y-5.793
X4.7677Y-5.8697
T4
X4.0832Y-5.6219G85X4.0525Y-5.6219
G05
X4.0832Y-5.8781G85X4.0525Y-5.8781
G05
T0
M30
