M48
INCH,TZ
T1C0.012
T2C0.016
T3C0.028
%
G90
G05
T1
X4.08Y-4.08
X4.19Y-4.19
X4.23Y-5.8
X4.23Y-5.85
X4.46Y-5.7
X4.5Y-5.7
X4.68Y-5.78
X4.73Y-5.95
X4.78Y-5.9
X4.78Y-5.95
X4.83Y-5.9
X4.83Y-5.95
X4.92Y-4.44
X4.96Y-4.4
X5.2Y-5.84
X5.2Y-5.89
X5.25Y-5.84
X5.25Y-5.89
X5.67Y-5.68
X5.67Y-5.73
X5.72Y-5.68
X5.72Y-5.73
X5.94Y-4.43
X5.94Y-4.48
X5.99Y-4.43
X5.99Y-4.48
X6.16Y-5.84
X6.16Y-5.89
X6.21Y-5.84
X6.21Y-5.89
X6.28Y-4.28
X6.28Y-4.33
X6.33Y-4.28
X6.33Y-4.33
X6.81Y-4.23
X6.81Y-4.28
X6.86Y-4.23
X6.86Y-4.28
T2
X4.2125Y-4.7975
X4.2354Y-5.18
X4.24Y-4.64
X4.24Y-5.14
X4.24Y-4.98
X4.2401Y-5.0949
X4.265Y-4.6
X4.288Y-5.2586
X4.29Y-4.8915
X4.29Y-5.29
X4.3Y-4.85
X4.31Y-4.5675
X4.51Y-5.5
X4.5297Y-5.7869
X4.55Y-5.72
X4.58Y-5.79
X4.59Y-4.69
X4.7175Y-4.6
X4.7175Y-4.9
X4.7175Y-5.2
X4.73Y-4.04
X4.73Y-5.685
X4.82Y-5.69
X4.8519Y-4.901
X4.855Y-5.205
X4.8559Y-5.4737
X5.03Y-4.32
X5.07Y-4.28
X5.189Y-4.2888
X5.2176Y-4.3174
X5.295Y-4.085
X5.315Y-4.14
X5.355Y-4.605
X5.355Y-4.9
X5.355Y-5.51
X5.355Y-5.21
X5.49Y-4.54
X5.675Y-4.24
X5.68Y-4.485
X5.685Y-4.195
X5.695Y-4.275
X5.705Y-4.905
X5.705Y-5.205
X5.705Y-5.505
X5.71Y-4.1
X5.845Y-4.46
X5.855Y-4.405
X5.945Y-4.175
X5.9725Y-4.1025
X6.1489Y-4.6254
X6.155Y-4.91
X6.155Y-5.51
X6.16Y-5.205
X6.225Y-4.175
X6.23Y-4.275
X6.255Y-4.67
X6.28Y-5.09
X6.33Y-4.035
X6.415Y-4.03
X6.5Y-5.22
X6.505Y-5.505
T3
X4.0832Y-5.6219G85X4.0368Y-5.6219
G05
X4.0832Y-5.8781G85X4.0368Y-5.8781
G05
T0
M30
