G04 #@! TF.FileFunction,Soldermask,Top*
%FSLAX46Y46*%
G04 Gerber Fmt 4.6, Leading zero omitted, Abs format (unit mm)*
G04 Created by KiCad (PCBNEW (2016-05-05 BZR 6775)-product) date Saturday, June 04, 2016 'PMt' 10:04:22 PM*
%MOMM*%
%LPD*%
G01*
G04 APERTURE LIST*
%ADD10C,0.100000*%
%ADD11R,4.400000X4.400000*%
%ADD12R,4.000000X3.900000*%
%ADD13R,1.924000X1.162000*%
%ADD14R,4.080000X1.670000*%
%ADD15R,1.000000X1.950000*%
%ADD16R,3.999180X2.000200*%
%ADD17R,1.700000X1.100000*%
%ADD18R,1.100000X1.700000*%
%ADD19R,1.543000X0.908000*%
%ADD20R,2.350000X1.000000*%
%ADD21R,2.000200X3.999180*%
%ADD22R,0.908000X1.543000*%
%ADD23R,1.950000X1.700000*%
%ADD24R,1.197560X1.197560*%
%ADD25R,1.750000X0.800000*%
%ADD26R,1.800000X2.000000*%
%ADD27R,2.300000X2.300000*%
%ADD28O,2.700000X1.520000*%
%ADD29R,0.800000X1.600000*%
G04 APERTURE END LIST*
D10*
D11*
X167576500Y-122428000D03*
D12*
X167576500Y-130178000D03*
X167576500Y-114678000D03*
D13*
X113030000Y-135826500D03*
X113030000Y-134556500D03*
X113030000Y-133286500D03*
X113030000Y-132016500D03*
X113030000Y-130746500D03*
X113030000Y-129476500D03*
X113030000Y-128206500D03*
X113030000Y-126936500D03*
X113030000Y-125666500D03*
X113030000Y-124396500D03*
X113030000Y-123126500D03*
X113030000Y-121729500D03*
X105410000Y-135826500D03*
X105410000Y-134556500D03*
X105410000Y-133286500D03*
X105410000Y-132016500D03*
X105410000Y-130746500D03*
X105410000Y-129476500D03*
X105410000Y-128206500D03*
X105410000Y-126936500D03*
X105410000Y-125666500D03*
X105410000Y-124396500D03*
X105410000Y-123126500D03*
X105410000Y-121856500D03*
D14*
X141727000Y-103886000D03*
X141727000Y-106426000D03*
X141727000Y-108966000D03*
X137287000Y-108966000D03*
X137287000Y-106426000D03*
X137287000Y-103886000D03*
D15*
X166370000Y-104361000D03*
X165100000Y-104361000D03*
X163830000Y-104361000D03*
X162560000Y-104361000D03*
X162560000Y-109761000D03*
X163830000Y-109761000D03*
X165100000Y-109761000D03*
X166370000Y-109761000D03*
D16*
X168318180Y-136906000D03*
X173819820Y-136906000D03*
D17*
X132080000Y-145100000D03*
X132080000Y-147000000D03*
D18*
X111826000Y-137795000D03*
X113726000Y-137795000D03*
D19*
X151066500Y-119253000D03*
X151066500Y-120523000D03*
X151066500Y-121793000D03*
X151066500Y-123063000D03*
X144716500Y-123063000D03*
X144716500Y-121793000D03*
X144716500Y-120523000D03*
X144716500Y-119253000D03*
D20*
X146684000Y-105029000D03*
X146684000Y-106299000D03*
X146684000Y-107569000D03*
X146684000Y-108839000D03*
X146684000Y-110109000D03*
X146684000Y-111379000D03*
X146684000Y-112649000D03*
X146684000Y-113919000D03*
X146684000Y-115189000D03*
X146684000Y-116459000D03*
X156084000Y-116459000D03*
X156084000Y-115189000D03*
X156084000Y-113919000D03*
X156084000Y-112649000D03*
X156084000Y-111379000D03*
X156084000Y-110109000D03*
X156084000Y-108839000D03*
X156084000Y-107569000D03*
X156084000Y-106299000D03*
X156084000Y-105029000D03*
D21*
X125793500Y-143997680D03*
X125793500Y-149499320D03*
D22*
X134048500Y-111569500D03*
X132778500Y-111569500D03*
X131508500Y-111569500D03*
X130238500Y-111569500D03*
X130238500Y-105219500D03*
X131508500Y-105219500D03*
X132778500Y-105219500D03*
X134048500Y-105219500D03*
D18*
X169357000Y-103441500D03*
X171257000Y-103441500D03*
D23*
X140995500Y-147347500D03*
X140995500Y-142847500D03*
X148945500Y-142847500D03*
X148945500Y-147347500D03*
D18*
X139575500Y-113792000D03*
X141475500Y-113792000D03*
D24*
X142824200Y-112649000D03*
X144322800Y-112649000D03*
X142887700Y-111252000D03*
X144386300Y-111252000D03*
D18*
X139512000Y-111760000D03*
X141412000Y-111760000D03*
X153159500Y-147320000D03*
X151259500Y-147320000D03*
X171257000Y-105664000D03*
X169357000Y-105664000D03*
X171257000Y-107886500D03*
X169357000Y-107886500D03*
X107825500Y-137985500D03*
X109725500Y-137985500D03*
X108905000Y-144653000D03*
X110805000Y-144653000D03*
D22*
X125222000Y-109982000D03*
X123952000Y-109982000D03*
X122682000Y-109982000D03*
X121412000Y-109982000D03*
X121412000Y-103632000D03*
X122682000Y-103632000D03*
X123952000Y-103632000D03*
X125222000Y-103632000D03*
D18*
X108905000Y-147193000D03*
X110805000Y-147193000D03*
D25*
X105799000Y-147350000D03*
X105799000Y-146700000D03*
X105799000Y-144750000D03*
X105799000Y-145400000D03*
D26*
X105574000Y-142850000D03*
D27*
X103124000Y-144850000D03*
D28*
X103124000Y-142795000D03*
X103124000Y-149305000D03*
D27*
X103124000Y-147250000D03*
D26*
X105574000Y-149250000D03*
D25*
X105799000Y-146050000D03*
D17*
X119126000Y-143385500D03*
X119126000Y-145285500D03*
D29*
X112903000Y-148586500D03*
X113538000Y-148586500D03*
X114173000Y-148586500D03*
X114808000Y-148586500D03*
X115443000Y-148586500D03*
X116078000Y-148586500D03*
X116713000Y-148586500D03*
X117348000Y-148586500D03*
X117348000Y-143386500D03*
X116713000Y-143386500D03*
X116078000Y-143386500D03*
X115443000Y-143386500D03*
X114808000Y-143386500D03*
X114173000Y-143386500D03*
X113538000Y-143386500D03*
X112903000Y-143386500D03*
D18*
X171257000Y-110172500D03*
X169357000Y-110172500D03*
D17*
X160528000Y-105095000D03*
X160528000Y-106995000D03*
M02*
