G04 #@! TF.FileFunction,Copper,L1,Top,Signal*
%FSLAX46Y46*%
G04 Gerber Fmt 4.6, Leading zero omitted, Abs format (unit mm)*
G04 Created by KiCad (PCBNEW (2016-05-05 BZR 6775)-product) date Saturday, June 04, 2016 'PMt' 10:04:21 PM*
%MOMM*%
%LPD*%
G01*
G04 APERTURE LIST*
%ADD10C,0.100000*%
%ADD11C,0.800000*%
%ADD12R,4.000000X4.000000*%
%ADD13R,3.600000X3.500000*%
%ADD14R,1.524000X0.762000*%
%ADD15R,3.680000X1.270000*%
%ADD16R,0.600000X1.550000*%
%ADD17R,3.599180X1.600200*%
%ADD18R,1.300000X0.700000*%
%ADD19R,0.700000X1.300000*%
%ADD20R,1.143000X0.508000*%
%ADD21R,1.950000X0.600000*%
%ADD22R,1.600200X3.599180*%
%ADD23R,0.508000X1.143000*%
%ADD24R,1.550000X1.300000*%
%ADD25R,0.797560X0.797560*%
%ADD26R,1.350000X0.400000*%
%ADD27R,1.400000X1.600000*%
%ADD28R,1.900000X1.900000*%
%ADD29O,2.300000X1.120000*%
%ADD30R,0.400000X1.200000*%
%ADD31C,0.600000*%
%ADD32C,0.381000*%
%ADD33C,0.250000*%
%ADD34C,0.254000*%
G04 APERTURE END LIST*
D10*
D11*
X107442000Y-147320000D03*
X107442000Y-148590000D03*
X103632000Y-103632000D03*
X106426000Y-106426000D03*
D12*
X167576500Y-122428000D03*
D13*
X167576500Y-130178000D03*
X167576500Y-114678000D03*
D11*
X125984000Y-111760000D03*
X124968000Y-112776000D03*
X150876000Y-112522000D03*
X152146000Y-112522000D03*
X152146000Y-113792000D03*
X150876000Y-113792000D03*
X159512000Y-108712000D03*
X160782000Y-108712000D03*
X160782000Y-109982000D03*
X159512000Y-109982000D03*
X172974000Y-107442000D03*
X174244000Y-107442000D03*
X174244000Y-108712000D03*
X172974000Y-108712000D03*
X144018000Y-144272000D03*
X145288000Y-144272000D03*
X145288000Y-145542000D03*
X144018000Y-145542000D03*
X156464000Y-148336000D03*
X157734000Y-148336000D03*
X157734000Y-149606000D03*
X156464000Y-149606000D03*
X132080000Y-148336000D03*
X133350000Y-148336000D03*
X133350000Y-149606000D03*
X132080000Y-149606000D03*
X114300000Y-144780000D03*
X113284000Y-144780000D03*
X118872000Y-146812000D03*
X122682000Y-149860000D03*
X121412000Y-149860000D03*
X122682000Y-151130000D03*
X121412000Y-151130000D03*
D14*
X113030000Y-135826500D03*
X113030000Y-134556500D03*
X113030000Y-133286500D03*
X113030000Y-132016500D03*
X113030000Y-130746500D03*
X113030000Y-129476500D03*
X113030000Y-128206500D03*
X113030000Y-126936500D03*
X113030000Y-125666500D03*
X113030000Y-124396500D03*
X113030000Y-123126500D03*
X113030000Y-121729500D03*
X105410000Y-135826500D03*
X105410000Y-134556500D03*
X105410000Y-133286500D03*
X105410000Y-132016500D03*
X105410000Y-130746500D03*
X105410000Y-129476500D03*
X105410000Y-128206500D03*
X105410000Y-126936500D03*
X105410000Y-125666500D03*
X105410000Y-124396500D03*
X105410000Y-123126500D03*
X105410000Y-121856500D03*
D15*
X141727000Y-103886000D03*
X141727000Y-106426000D03*
X141727000Y-108966000D03*
X137287000Y-108966000D03*
X137287000Y-106426000D03*
X137287000Y-103886000D03*
D16*
X166370000Y-104361000D03*
X165100000Y-104361000D03*
X163830000Y-104361000D03*
X162560000Y-104361000D03*
X162560000Y-109761000D03*
X163830000Y-109761000D03*
X165100000Y-109761000D03*
X166370000Y-109761000D03*
D17*
X168318180Y-136906000D03*
X173819820Y-136906000D03*
D18*
X132080000Y-145100000D03*
X132080000Y-147000000D03*
D19*
X111826000Y-137795000D03*
X113726000Y-137795000D03*
D20*
X151066500Y-119253000D03*
X151066500Y-120523000D03*
X151066500Y-121793000D03*
X151066500Y-123063000D03*
X144716500Y-123063000D03*
X144716500Y-121793000D03*
X144716500Y-120523000D03*
X144716500Y-119253000D03*
D21*
X146684000Y-105029000D03*
X146684000Y-106299000D03*
X146684000Y-107569000D03*
X146684000Y-108839000D03*
X146684000Y-110109000D03*
X146684000Y-111379000D03*
X146684000Y-112649000D03*
X146684000Y-113919000D03*
X146684000Y-115189000D03*
X146684000Y-116459000D03*
X156084000Y-116459000D03*
X156084000Y-115189000D03*
X156084000Y-113919000D03*
X156084000Y-112649000D03*
X156084000Y-111379000D03*
X156084000Y-110109000D03*
X156084000Y-108839000D03*
X156084000Y-107569000D03*
X156084000Y-106299000D03*
X156084000Y-105029000D03*
D22*
X125793500Y-143997680D03*
X125793500Y-149499320D03*
D23*
X134048500Y-111569500D03*
X132778500Y-111569500D03*
X131508500Y-111569500D03*
X130238500Y-111569500D03*
X130238500Y-105219500D03*
X131508500Y-105219500D03*
X132778500Y-105219500D03*
X134048500Y-105219500D03*
D19*
X169357000Y-103441500D03*
X171257000Y-103441500D03*
D24*
X140995500Y-147347500D03*
X140995500Y-142847500D03*
X148945500Y-142847500D03*
X148945500Y-147347500D03*
D19*
X139575500Y-113792000D03*
X141475500Y-113792000D03*
D25*
X142824200Y-112649000D03*
X144322800Y-112649000D03*
X142887700Y-111252000D03*
X144386300Y-111252000D03*
D19*
X139512000Y-111760000D03*
X141412000Y-111760000D03*
X153159500Y-147320000D03*
X151259500Y-147320000D03*
X171257000Y-105664000D03*
X169357000Y-105664000D03*
X171257000Y-107886500D03*
X169357000Y-107886500D03*
X107825500Y-137985500D03*
X109725500Y-137985500D03*
X108905000Y-144653000D03*
X110805000Y-144653000D03*
D23*
X125222000Y-109982000D03*
X123952000Y-109982000D03*
X122682000Y-109982000D03*
X121412000Y-109982000D03*
X121412000Y-103632000D03*
X122682000Y-103632000D03*
X123952000Y-103632000D03*
X125222000Y-103632000D03*
D19*
X108905000Y-147193000D03*
X110805000Y-147193000D03*
D26*
X105799000Y-147350000D03*
X105799000Y-146700000D03*
X105799000Y-144750000D03*
X105799000Y-145400000D03*
D27*
X105574000Y-142850000D03*
D28*
X103124000Y-144850000D03*
D29*
X103124000Y-142795000D03*
X103124000Y-149305000D03*
D28*
X103124000Y-147250000D03*
D27*
X105574000Y-149250000D03*
D26*
X105799000Y-146050000D03*
D18*
X119126000Y-143385500D03*
X119126000Y-145285500D03*
D30*
X112903000Y-148586500D03*
X113538000Y-148586500D03*
X114173000Y-148586500D03*
X114808000Y-148586500D03*
X115443000Y-148586500D03*
X116078000Y-148586500D03*
X116713000Y-148586500D03*
X117348000Y-148586500D03*
X117348000Y-143386500D03*
X116713000Y-143386500D03*
X116078000Y-143386500D03*
X115443000Y-143386500D03*
X114808000Y-143386500D03*
X114173000Y-143386500D03*
X113538000Y-143386500D03*
X112903000Y-143386500D03*
D19*
X171257000Y-110172500D03*
X169357000Y-110172500D03*
D18*
X160528000Y-105095000D03*
X160528000Y-106995000D03*
D11*
X120142000Y-151130000D03*
D31*
X116332000Y-147066000D03*
X135001000Y-105156000D03*
X134493000Y-103759000D03*
X120142000Y-102616000D03*
X132527051Y-109661949D03*
X144145000Y-107696000D03*
X131801796Y-108936695D03*
X144399000Y-106553000D03*
X144907000Y-124586994D03*
X144907000Y-132207000D03*
X144907000Y-139827000D03*
X156464000Y-132207000D03*
X156337000Y-139954000D03*
X158877000Y-118618000D03*
X156337000Y-124714006D03*
X107578990Y-131572000D03*
X107696000Y-130556000D03*
X107698433Y-129410331D03*
X108966000Y-134366000D03*
X108916158Y-133567542D03*
X107696016Y-126492000D03*
X108965994Y-124244011D03*
X109220018Y-123190000D03*
X106997500Y-121856500D03*
X107696000Y-117856000D03*
X108331000Y-116840000D03*
X109474000Y-116014500D03*
X159512000Y-129286000D03*
X165099994Y-132588000D03*
X165227000Y-139827000D03*
X136017000Y-116967000D03*
X136017000Y-124460004D03*
X136017004Y-132334000D03*
X136017000Y-139953998D03*
X114554000Y-139699990D03*
X119824500Y-132080000D03*
X119824500Y-124460000D03*
X119824500Y-116840000D03*
X123340018Y-139031411D03*
X123317000Y-132207002D03*
X123238480Y-124486481D03*
X115570004Y-145287996D03*
X115053568Y-146987302D03*
X158115000Y-106045000D03*
X145034000Y-104140000D03*
X122428000Y-144526000D03*
X120142000Y-144399000D03*
X151701500Y-104203500D03*
X160782000Y-102489000D03*
X162941000Y-102362000D03*
X151003000Y-106045000D03*
X158242000Y-108585000D03*
X144653000Y-108585000D03*
X127762000Y-109728000D03*
X148717000Y-111887000D03*
X128778000Y-108712000D03*
X144272000Y-113919000D03*
X156181500Y-117484990D03*
X116586000Y-119126000D03*
X139446000Y-115316000D03*
X148463000Y-113284000D03*
D32*
X123869557Y-145216501D02*
X125928499Y-145216501D01*
X118609038Y-150477020D02*
X123869557Y-145216501D01*
X108603000Y-143002000D02*
X108956902Y-143002000D01*
X112386118Y-150477020D02*
X118609038Y-150477020D01*
X110064499Y-144109597D02*
X110064499Y-148155401D01*
X125928499Y-145216501D02*
X126619000Y-144526000D01*
X110064499Y-148155401D02*
X112386118Y-150477020D01*
X108956902Y-143002000D02*
X110064499Y-144109597D01*
X108603000Y-143002000D02*
X109746000Y-141859000D01*
X106855000Y-144750000D02*
X108603000Y-143002000D01*
X139575500Y-113792000D02*
X139575500Y-114092000D01*
X139575500Y-114092000D02*
X144716500Y-119233000D01*
X144716500Y-119233000D02*
X144716500Y-119253000D01*
X139575500Y-113792000D02*
X139575500Y-111823500D01*
X139575500Y-111823500D02*
X139512000Y-111760000D01*
X139512000Y-111760000D02*
X139289000Y-111760000D01*
X139289000Y-111760000D02*
X138527000Y-110998000D01*
X138527000Y-110998000D02*
X135763000Y-110998000D01*
X135763000Y-110998000D02*
X133604000Y-108839000D01*
X133604000Y-108839000D02*
X133604000Y-106807000D01*
X171232499Y-106845999D02*
X171257000Y-106870500D01*
X163791461Y-105526501D02*
X165110959Y-106845999D01*
X165110959Y-106845999D02*
X171232499Y-106845999D01*
X161450098Y-105029000D02*
X161947599Y-105526501D01*
X161947599Y-105526501D02*
X163791461Y-105526501D01*
X160528000Y-105095000D02*
X161384098Y-105095000D01*
X156084000Y-105029000D02*
X161450098Y-105029000D01*
X137287000Y-106426000D02*
X134112000Y-106426000D01*
X134112000Y-106426000D02*
X134048500Y-106362500D01*
X132080000Y-145100000D02*
X131049000Y-145100000D01*
X131049000Y-145100000D02*
X130492500Y-144543500D01*
X130492500Y-144543500D02*
X130492500Y-144526000D01*
X105410000Y-135826500D02*
X105981500Y-136398000D01*
X111417999Y-139026001D02*
X111826000Y-138618000D01*
X105981500Y-136398000D02*
X106172000Y-136398000D01*
X106172000Y-136398000D02*
X106426000Y-136652000D01*
X106426000Y-136652000D02*
X106426000Y-138288902D01*
X106426000Y-138288902D02*
X107163099Y-139026001D01*
X107163099Y-139026001D02*
X111417999Y-139026001D01*
X111826000Y-138618000D02*
X111826000Y-138049000D01*
X131699000Y-106807000D02*
X129540000Y-106807000D01*
X127327001Y-104594001D02*
X125212499Y-104594001D01*
X129540000Y-106807000D02*
X127327001Y-104594001D01*
X126619000Y-144526000D02*
X130492500Y-144526000D01*
X125793500Y-143997680D02*
X126090680Y-143997680D01*
X126090680Y-143997680D02*
X126619000Y-144526000D01*
X130492500Y-144526000D02*
X130492500Y-151003000D01*
X130492500Y-151003000D02*
X130580501Y-151091001D01*
X130580501Y-151091001D02*
X155130500Y-151091001D01*
X134048500Y-105219500D02*
X134048500Y-106362500D01*
X134048500Y-106362500D02*
X133604000Y-106807000D01*
X133604000Y-106807000D02*
X131699000Y-106807000D01*
X131508500Y-105219500D02*
X131508500Y-106172000D01*
X131508500Y-106172000D02*
X131699000Y-106362500D01*
X131699000Y-106362500D02*
X131699000Y-106807000D01*
X134048500Y-105219500D02*
X134048500Y-105669942D01*
X144716500Y-119253000D02*
X144399000Y-119253000D01*
X144399000Y-119253000D02*
X143754499Y-119897501D01*
X143754499Y-119897501D02*
X143754499Y-121148499D01*
X143754499Y-121148499D02*
X144399000Y-121793000D01*
X144399000Y-121793000D02*
X144716500Y-121793000D01*
X145034000Y-119253000D02*
X144716500Y-119253000D01*
X125222000Y-103632000D02*
X125222000Y-104584500D01*
X125222000Y-104584500D02*
X125212499Y-104594001D01*
X125212499Y-104594001D02*
X122037499Y-104594001D01*
X102235000Y-137668000D02*
X103568500Y-139001500D01*
X103568500Y-139001500D02*
X105410000Y-139001500D01*
X102235000Y-107842002D02*
X102235000Y-137668000D01*
X105483001Y-104594001D02*
X102235000Y-107842002D01*
X122682000Y-103632000D02*
X122682000Y-103949500D01*
X122682000Y-103949500D02*
X122037499Y-104594001D01*
X122037499Y-104594001D02*
X105483001Y-104594001D01*
X153159500Y-147320000D02*
X153890500Y-147320000D01*
X153890500Y-147320000D02*
X155130500Y-148560000D01*
X155130500Y-148560000D02*
X155130500Y-151091001D01*
X155130500Y-151091001D02*
X175679999Y-151091001D01*
X171257000Y-106870500D02*
X171257000Y-107886500D01*
X175679999Y-151091001D02*
X176847500Y-149923500D01*
X176847500Y-149923500D02*
X176847500Y-111442500D01*
X176847500Y-111442500D02*
X175577500Y-110172500D01*
X171257000Y-110172500D02*
X171257000Y-107886500D01*
X169357000Y-103441500D02*
X169357000Y-103764000D01*
X169357000Y-103764000D02*
X171257000Y-105664000D01*
X169357000Y-103441500D02*
X168626000Y-103441500D01*
X105410000Y-139001500D02*
X108267500Y-141859000D01*
X108267500Y-141859000D02*
X109746000Y-141859000D01*
X105410000Y-135826500D02*
X105410000Y-139001500D01*
X109746000Y-141859000D02*
X115443000Y-141859000D01*
X115443000Y-141859000D02*
X118427500Y-141859000D01*
X115443000Y-143386500D02*
X115443000Y-141859000D01*
X105799000Y-144750000D02*
X106855000Y-144750000D01*
X118427500Y-141859000D02*
X119126000Y-142557500D01*
X119126000Y-142557500D02*
X119126000Y-143385500D01*
X161384098Y-105095000D02*
X161450098Y-105029000D01*
X175577500Y-110172500D02*
X171257000Y-110172500D01*
X171257000Y-105664000D02*
X171257000Y-106870500D01*
X165100000Y-103187500D02*
X165100000Y-104361000D01*
X168626000Y-103441500D02*
X167864000Y-102679500D01*
X167864000Y-102679500D02*
X165608000Y-102679500D01*
X165608000Y-102679500D02*
X165100000Y-103187500D01*
D33*
X115443000Y-147736500D02*
X116113500Y-147066000D01*
X116113500Y-147066000D02*
X116332000Y-147066000D01*
X115443000Y-148586500D02*
X115443000Y-147736500D01*
X141727000Y-103886000D02*
X140716000Y-103886000D01*
X140716000Y-103886000D02*
X139755999Y-104846001D01*
X139755999Y-104846001D02*
X135310999Y-104846001D01*
X135310999Y-104846001D02*
X135001000Y-105156000D01*
X162560000Y-111379000D02*
X162369500Y-111569500D01*
X162560000Y-109761000D02*
X162560000Y-111379000D01*
X125793500Y-149499320D02*
X128163320Y-149499320D01*
X127879920Y-148463000D02*
X128206500Y-148463000D01*
X125793500Y-149499320D02*
X126843600Y-149499320D01*
X126843600Y-149499320D02*
X127879920Y-148463000D01*
X128163320Y-149499320D02*
X128206500Y-149542500D01*
X114808000Y-143386500D02*
X114808000Y-144716500D01*
X105799000Y-147350000D02*
X106724000Y-147350000D01*
X106724000Y-147350000D02*
X107378500Y-148004500D01*
X137154490Y-103759000D02*
X134493000Y-103759000D01*
X137287000Y-103891510D02*
X137154490Y-103759000D01*
X152693466Y-101575966D02*
X154241500Y-103124000D01*
X155409000Y-107569000D02*
X156084000Y-107569000D01*
X122178000Y-102044500D02*
X133119263Y-102044500D01*
X154241500Y-103124000D02*
X154241501Y-106401501D01*
X133587797Y-101575966D02*
X152693466Y-101575966D01*
X154241501Y-106401501D02*
X155409000Y-107569000D01*
X133119263Y-102044500D02*
X133587797Y-101575966D01*
X122178000Y-102044500D02*
X120713500Y-102044500D01*
X120713500Y-102044500D02*
X120142000Y-102616000D01*
X121412000Y-103632000D02*
X121412000Y-102810500D01*
X121412000Y-102810500D02*
X122178000Y-102044500D01*
X123952000Y-103632000D02*
X123952000Y-103314500D01*
X123952000Y-103314500D02*
X124771990Y-102494510D01*
X155409000Y-110109000D02*
X156084000Y-110109000D01*
X152127477Y-102025977D02*
X153791490Y-103689990D01*
X124771990Y-102494510D02*
X133305665Y-102494509D01*
X133774197Y-102025977D02*
X152127477Y-102025977D01*
X133305665Y-102494509D02*
X133774197Y-102025977D01*
X153791490Y-108491490D02*
X155409000Y-110109000D01*
X153791490Y-103689990D02*
X153791490Y-108491490D01*
X113428010Y-149961510D02*
X112903000Y-149436500D01*
X121294999Y-146802001D02*
X118135490Y-149961510D01*
X112903000Y-149436500D02*
X112903000Y-148586500D01*
X118135490Y-149961510D02*
X113428010Y-149961510D01*
X132527051Y-109661949D02*
X130832787Y-109661949D01*
X127381000Y-138685410D02*
X121294999Y-144771411D01*
X130832787Y-109661949D02*
X127381000Y-113113736D01*
X121294999Y-144771411D02*
X121294999Y-146802001D01*
X127381000Y-113113736D02*
X127381000Y-138685410D01*
X144145000Y-107696000D02*
X146557000Y-107696000D01*
X146557000Y-107696000D02*
X146684000Y-107569000D01*
X114808000Y-148586500D02*
X114808000Y-149436500D01*
X131377532Y-108936695D02*
X131801796Y-108936695D01*
X114808000Y-149436500D02*
X114883001Y-149511501D01*
X114883001Y-149511501D02*
X117808001Y-149511501D01*
X117808001Y-149511501D02*
X120777000Y-146542502D01*
X120777000Y-146542502D02*
X120777000Y-144653000D01*
X120777000Y-144653000D02*
X126619004Y-138810996D01*
X126619004Y-138810996D02*
X126619004Y-113113732D01*
X126619004Y-113113732D02*
X130796041Y-108936695D01*
X130796041Y-108936695D02*
X131377532Y-108936695D01*
X144399000Y-106553000D02*
X146430000Y-106553000D01*
X146430000Y-106553000D02*
X146684000Y-106299000D01*
X130238500Y-105219500D02*
X130238500Y-103441500D01*
X153341480Y-109907480D02*
X154813000Y-111379000D01*
X130238500Y-103441500D02*
X133146487Y-103441500D01*
X151941077Y-102475987D02*
X153341480Y-103876390D01*
X133146487Y-103441500D02*
X134112000Y-102475987D01*
X134112000Y-102475987D02*
X151941077Y-102475987D01*
X153341480Y-103876390D02*
X153341480Y-109907480D01*
X154813000Y-111379000D02*
X156084000Y-111379000D01*
X132778500Y-105219500D02*
X132778500Y-104902000D01*
X132778500Y-104902000D02*
X133867999Y-103812501D01*
X133867999Y-103812501D02*
X133867999Y-103356398D01*
X133867999Y-103356398D02*
X134298400Y-102925997D01*
X134298400Y-102925997D02*
X151754677Y-102925997D01*
X151754677Y-102925997D02*
X152891470Y-104062790D01*
X152891470Y-104062790D02*
X152891470Y-110131470D01*
X152891470Y-110131470D02*
X155409000Y-112649000D01*
X155409000Y-112649000D02*
X156084000Y-112649000D01*
X144716500Y-120523000D02*
X147447000Y-120523000D01*
X154051000Y-113919000D02*
X156084000Y-113919000D01*
X147447000Y-120523000D02*
X154051000Y-113919000D01*
X144716500Y-123063000D02*
X145845998Y-123063000D01*
X145845998Y-123063000D02*
X153592998Y-115316000D01*
X153592998Y-115316000D02*
X155956000Y-115316000D01*
X155956000Y-115316000D02*
X156083000Y-115189000D01*
X156083000Y-115189000D02*
X156084000Y-115189000D01*
X135572500Y-112589500D02*
X143129000Y-120146000D01*
X143129000Y-120146000D02*
X143129000Y-122809000D01*
X143129000Y-122809000D02*
X144606995Y-124286995D01*
X144606995Y-124286995D02*
X144607001Y-124286995D01*
X144607001Y-124286995D02*
X144907000Y-124586994D01*
X144907000Y-132207000D02*
X144907000Y-124586994D01*
X144907000Y-139827000D02*
X144907000Y-132207000D01*
X134552500Y-111569500D02*
X135572500Y-112589500D01*
X133100000Y-112712500D02*
X135449500Y-112712500D01*
X135449500Y-112712500D02*
X135572500Y-112589500D01*
X132778500Y-111569500D02*
X132778500Y-112391000D01*
X132778500Y-112391000D02*
X133100000Y-112712500D01*
X134048500Y-111569500D02*
X134552500Y-111569500D01*
X158877000Y-118618000D02*
X157480000Y-118618000D01*
X157480000Y-118618000D02*
X156337000Y-119761000D01*
X156337000Y-119761000D02*
X156337000Y-124714006D01*
X151066500Y-119253000D02*
X150749000Y-119253000D01*
X150749000Y-119253000D02*
X150169999Y-119832001D01*
X150169999Y-119832001D02*
X150169999Y-121102001D01*
X151066500Y-120523000D02*
X150749000Y-120523000D01*
X150749000Y-120523000D02*
X150169999Y-121102001D01*
X150169999Y-121102001D02*
X150169999Y-123577001D01*
X150169999Y-123577001D02*
X151307004Y-124714006D01*
X151307004Y-124714006D02*
X155912736Y-124714006D01*
X155912736Y-124714006D02*
X156337000Y-124714006D01*
X156337000Y-139954000D02*
X156337000Y-132334000D01*
X156464000Y-124841006D02*
X156337000Y-124714006D01*
X156464000Y-132207000D02*
X156464000Y-124841006D01*
X156337000Y-132334000D02*
X156464000Y-132207000D01*
X107878989Y-131272001D02*
X107578990Y-131572000D01*
X113030000Y-130746500D02*
X108404490Y-130746500D01*
X108404490Y-130746500D02*
X107878989Y-131272001D01*
X113030000Y-129476500D02*
X108775500Y-129476500D01*
X108775500Y-129476500D02*
X107696000Y-130556000D01*
X108902264Y-128206500D02*
X107998432Y-129110332D01*
X107998432Y-129110332D02*
X107698433Y-129410331D01*
X113030000Y-128206500D02*
X108902264Y-128206500D01*
X109236805Y-132942541D02*
X109773999Y-133479735D01*
X106953989Y-129049424D02*
X106953989Y-131872001D01*
X106953989Y-131872001D02*
X108024529Y-132942541D01*
X109773999Y-133479735D02*
X109773999Y-133982265D01*
X109390264Y-134366000D02*
X108966000Y-134366000D01*
X113030000Y-126936500D02*
X109066913Y-126936500D01*
X109066913Y-126936500D02*
X106953989Y-129049424D01*
X109773999Y-133982265D02*
X109390264Y-134366000D01*
X108024529Y-132942541D02*
X109236805Y-132942541D01*
X108013119Y-133567542D02*
X108491894Y-133567542D01*
X106503978Y-132058401D02*
X108013119Y-133567542D01*
X108491894Y-133567542D02*
X108916158Y-133567542D01*
X106503978Y-128863024D02*
X106503978Y-132058401D01*
X113030000Y-125666500D02*
X109700502Y-125666500D01*
X109700502Y-125666500D02*
X106503978Y-128863024D01*
X107996015Y-126192001D02*
X107696016Y-126492000D01*
X109012015Y-125176001D02*
X107996015Y-126192001D01*
X110604910Y-125176001D02*
X109012015Y-125176001D01*
X111384411Y-124396500D02*
X110604910Y-125176001D01*
X113030000Y-124396500D02*
X111384411Y-124396500D01*
X110900489Y-124244011D02*
X108965994Y-124244011D01*
X112018000Y-123126500D02*
X110900489Y-124244011D01*
X113030000Y-123126500D02*
X112018000Y-123126500D01*
X113030000Y-121729500D02*
X112458500Y-121729500D01*
X112458500Y-121729500D02*
X111297999Y-122890001D01*
X111297999Y-122890001D02*
X109520017Y-122890001D01*
X109520017Y-122890001D02*
X109220018Y-123190000D01*
X105410000Y-121856500D02*
X106997500Y-121856500D01*
X106680000Y-123126500D02*
X107632500Y-122174000D01*
X107632500Y-122174000D02*
X107632500Y-117919500D01*
X106680000Y-123126500D02*
X105410000Y-123126500D01*
X107696000Y-117856000D02*
X107632500Y-117919500D01*
X108082502Y-122485998D02*
X108082502Y-118681500D01*
X108082502Y-122485998D02*
X106172000Y-124396500D01*
X108331000Y-118433002D02*
X108082502Y-118681500D01*
X108331000Y-116840000D02*
X108331000Y-118433002D01*
X105410000Y-124396500D02*
X106172000Y-124396500D01*
X105410000Y-124396500D02*
X105981500Y-124396500D01*
X105410000Y-125666500D02*
X105791000Y-125666500D01*
X105791000Y-125666500D02*
X108458000Y-122999500D01*
X108458000Y-122999500D02*
X108458000Y-122936000D01*
X108532504Y-122861496D02*
X108532504Y-118872000D01*
X108458000Y-122936000D02*
X108532504Y-122861496D01*
X108532504Y-118872000D02*
X109474000Y-117930504D01*
X109474000Y-117930504D02*
X109474000Y-116014500D01*
X159512000Y-128861736D02*
X159512000Y-129286000D01*
X159258000Y-117856000D02*
X159512000Y-118110000D01*
X157605589Y-117856000D02*
X159258000Y-117856000D01*
X159512000Y-118110000D02*
X159512000Y-128861736D01*
X157097589Y-118364000D02*
X157605589Y-117856000D01*
X152400000Y-119634000D02*
X153670000Y-118364000D01*
X153670000Y-118364000D02*
X157097589Y-118364000D01*
X152400000Y-122555000D02*
X152400000Y-119634000D01*
X151066500Y-123063000D02*
X152019000Y-123063000D01*
X152019000Y-123063000D02*
X152400000Y-122682000D01*
X152400000Y-122682000D02*
X152400000Y-122555000D01*
X151066500Y-121793000D02*
X152273000Y-121793000D01*
X152273000Y-121793000D02*
X152400000Y-121920000D01*
X152400000Y-121920000D02*
X152400000Y-122555000D01*
X165227000Y-132715006D02*
X165099994Y-132588000D01*
X165227000Y-139827000D02*
X165227000Y-132715006D01*
X136017000Y-124459996D02*
X136017000Y-116967000D01*
X131508500Y-113601500D02*
X134874000Y-116967000D01*
X134874000Y-116967000D02*
X136017000Y-116967000D01*
X136017004Y-124460000D02*
X136017000Y-124459996D01*
X136017004Y-132334000D02*
X136017004Y-124460000D01*
X136017004Y-124460000D02*
X136017000Y-124460004D01*
X136017000Y-132334004D02*
X136017004Y-132334000D01*
X136017000Y-139953998D02*
X136017000Y-132334004D01*
X131508500Y-113601500D02*
X131508500Y-111569500D01*
X130238500Y-111569500D02*
X130238500Y-112391000D01*
X130238500Y-112391000D02*
X131449000Y-113601500D01*
X131449000Y-113601500D02*
X131508500Y-113601500D01*
X119824500Y-132080000D02*
X119824500Y-134429500D01*
X119824500Y-134429500D02*
X114978274Y-139275726D01*
X114978274Y-139275726D02*
X114554000Y-139275726D01*
X114554000Y-139275726D02*
X114554000Y-139699990D01*
X119824500Y-132080000D02*
X119824500Y-124460000D01*
X119824500Y-124460000D02*
X119824500Y-116840000D01*
X122682000Y-109982000D02*
X122682000Y-110744000D01*
X122682000Y-110744000D02*
X121983500Y-111442500D01*
X119824500Y-116840000D02*
X119824500Y-113792000D01*
X121412000Y-110871000D02*
X121412000Y-109982000D01*
X121983500Y-111442500D02*
X121412000Y-110871000D01*
X121983500Y-111633000D02*
X121983500Y-111442500D01*
X119824500Y-113792000D02*
X121983500Y-111633000D01*
X123317000Y-132207002D02*
X123317000Y-139008393D01*
X123317000Y-139008393D02*
X123340018Y-139031411D01*
X123317000Y-124460000D02*
X123317000Y-132207002D01*
X124618750Y-111029750D02*
X123317000Y-112331500D01*
X123317000Y-112331500D02*
X123317000Y-124460000D01*
X123264961Y-124460000D02*
X123238480Y-124486481D01*
X123317000Y-124460000D02*
X123264961Y-124460000D01*
X125222000Y-109982000D02*
X125222000Y-110426500D01*
X125222000Y-110426500D02*
X124618750Y-111029750D01*
X124618750Y-111029750D02*
X123952000Y-110363000D01*
X123952000Y-110363000D02*
X123952000Y-109982000D01*
X108905000Y-144653000D02*
X108905000Y-144841000D01*
X108905000Y-144841000D02*
X108346000Y-145400000D01*
X108346000Y-145400000D02*
X105799000Y-145400000D01*
X103124000Y-144850000D02*
X103124000Y-142795000D01*
X105574000Y-142850000D02*
X103179000Y-142850000D01*
X103179000Y-142850000D02*
X103124000Y-142795000D01*
X103124000Y-144850000D02*
X103124000Y-147250000D01*
X103124000Y-147250000D02*
X103124000Y-149305000D01*
X105574000Y-149250000D02*
X103179000Y-149250000D01*
X103179000Y-149250000D02*
X103124000Y-149305000D01*
X108905000Y-147193000D02*
X108905000Y-146878000D01*
X108905000Y-146878000D02*
X108077000Y-146050000D01*
X108077000Y-146050000D02*
X105799000Y-146050000D01*
X114922198Y-146987302D02*
X115053568Y-146987302D01*
X116713000Y-144236500D02*
X115661504Y-145287996D01*
X114173000Y-148586500D02*
X114173000Y-147736500D01*
X114173000Y-147736500D02*
X114922198Y-146987302D01*
X116713000Y-143386500D02*
X116713000Y-144236500D01*
X115661504Y-145287996D02*
X115570004Y-145287996D01*
D32*
X167576500Y-130178000D02*
X167516000Y-130178000D01*
X167516000Y-130178000D02*
X163830000Y-126492000D01*
X163830000Y-126492000D02*
X163830000Y-118364000D01*
X163830000Y-118364000D02*
X167516000Y-114678000D01*
X167516000Y-114678000D02*
X167576500Y-114678000D01*
X168318180Y-136906000D02*
X168318180Y-130919680D01*
X168318180Y-130919680D02*
X167576500Y-130178000D01*
X163830000Y-109761000D02*
X163830000Y-110981500D01*
X163830000Y-110981500D02*
X167526500Y-114678000D01*
X167526500Y-114678000D02*
X167576500Y-114678000D01*
D33*
X159569987Y-105721989D02*
X158438011Y-105721989D01*
X159617999Y-105770001D02*
X159569987Y-105721989D01*
X161462057Y-105770001D02*
X159617999Y-105770001D01*
X158438011Y-105721989D02*
X158115000Y-106045000D01*
X163126012Y-106042012D02*
X161734068Y-106042012D01*
X166370000Y-109761000D02*
X166370000Y-109286000D01*
X166370000Y-109286000D02*
X163126012Y-106042012D01*
X161734068Y-106042012D02*
X161462057Y-105770001D01*
X156084000Y-106299000D02*
X157861000Y-106299000D01*
X157861000Y-106299000D02*
X158115000Y-106045000D01*
X137287000Y-108966000D02*
X138492000Y-108966000D01*
X138492000Y-108966000D02*
X139561999Y-107896001D01*
X139561999Y-105530999D02*
X139682998Y-105410000D01*
X139561999Y-107896001D02*
X139561999Y-105530999D01*
X139682998Y-105410000D02*
X143764000Y-105410000D01*
X143764000Y-105410000D02*
X145034000Y-104140000D01*
X169357000Y-110172500D02*
X166781500Y-110172500D01*
X166781500Y-110172500D02*
X166370000Y-109761000D01*
X122727999Y-144226001D02*
X122428000Y-144526000D01*
X134021077Y-141398077D02*
X125304743Y-141398077D01*
X139970500Y-147347500D02*
X134021077Y-141398077D01*
X125304743Y-141398077D02*
X122727999Y-143974821D01*
X140995500Y-147347500D02*
X139970500Y-147347500D01*
X122727999Y-143974821D02*
X122727999Y-144226001D01*
X151259500Y-147320000D02*
X151259500Y-147020000D01*
X159004000Y-140208000D02*
X159004000Y-130810000D01*
X157734000Y-115570000D02*
X157734000Y-113708998D01*
X157299003Y-113274001D02*
X154930001Y-113274001D01*
X151259500Y-147020000D02*
X150659500Y-146420000D01*
X150659500Y-146420000D02*
X150659500Y-143604498D01*
X160274000Y-129540000D02*
X160274000Y-118110000D01*
X150659500Y-143604498D02*
X151257000Y-143006998D01*
X160274000Y-118110000D02*
X157734000Y-115570000D01*
X151257000Y-143006998D02*
X156205002Y-143006998D01*
X154930001Y-113274001D02*
X151701500Y-110045500D01*
X156205002Y-143006998D02*
X159004000Y-140208000D01*
X157734000Y-113708998D02*
X157299003Y-113274001D01*
X159004000Y-130810000D02*
X160274000Y-129540000D01*
X151701500Y-110045500D02*
X151701500Y-104203500D01*
X141727000Y-106426000D02*
X143384410Y-106426000D01*
X143384410Y-106426000D02*
X144781410Y-105029000D01*
X144781410Y-105029000D02*
X146684000Y-105029000D01*
X140995500Y-147347500D02*
X148945500Y-147347500D01*
X148798000Y-104140000D02*
X147909000Y-105029000D01*
X147909000Y-105029000D02*
X146684000Y-105029000D01*
X118554498Y-144399000D02*
X120142000Y-144399000D01*
X116078000Y-143386500D02*
X116078000Y-142636498D01*
X116078000Y-142636498D02*
X116339988Y-142374510D01*
X117721012Y-142374510D02*
X118150999Y-142804497D01*
X116339988Y-142374510D02*
X117721012Y-142374510D01*
X118150999Y-142804497D02*
X118150999Y-143995501D01*
X118150999Y-143995501D02*
X118554498Y-144399000D01*
X151259500Y-147320000D02*
X148973000Y-147320000D01*
X148973000Y-147320000D02*
X148945500Y-147347500D01*
X148798000Y-104140000D02*
X151638000Y-104140000D01*
X151638000Y-104140000D02*
X151701500Y-104203500D01*
X162560000Y-103886000D02*
X161163000Y-102489000D01*
X162560000Y-104361000D02*
X162560000Y-103886000D01*
X161163000Y-102489000D02*
X160782000Y-102489000D01*
X169357000Y-105664000D02*
X164658000Y-105664000D01*
X164658000Y-105664000D02*
X163830000Y-104836000D01*
X163830000Y-104836000D02*
X163830000Y-104361000D01*
X163830000Y-104361000D02*
X163830000Y-103251000D01*
X163830000Y-103251000D02*
X162941000Y-102362000D01*
X146684000Y-108839000D02*
X148209000Y-108839000D01*
X148209000Y-108839000D02*
X151003000Y-106045000D01*
X146684000Y-110109000D02*
X144880520Y-110109000D01*
X144880520Y-110109000D02*
X144386300Y-110603220D01*
X144386300Y-110603220D02*
X144386300Y-111252000D01*
X144322800Y-112649000D02*
X144739000Y-112649000D01*
X146009000Y-111379000D02*
X146684000Y-111379000D01*
X144739000Y-112649000D02*
X146009000Y-111379000D01*
X161275658Y-106220012D02*
X159431599Y-106220012D01*
X165100000Y-109286000D02*
X162306023Y-106492023D01*
X165100000Y-109761000D02*
X165100000Y-109286000D01*
X162306023Y-106492023D02*
X161547668Y-106492023D01*
X161547668Y-106492023D02*
X161275658Y-106220012D01*
X159431599Y-106220012D02*
X159404794Y-106193207D01*
X159404794Y-106193207D02*
X157099000Y-108499000D01*
X158242000Y-108585000D02*
X157185000Y-108585000D01*
X157185000Y-108585000D02*
X157099000Y-108499000D01*
X144272000Y-108966000D02*
X144653000Y-108585000D01*
X141727000Y-108966000D02*
X144272000Y-108966000D01*
X165100000Y-109761000D02*
X165100000Y-110617000D01*
X165735000Y-111252000D02*
X169862500Y-111252000D01*
X165100000Y-110617000D02*
X165735000Y-111252000D01*
X169862500Y-111252000D02*
X170032001Y-111082501D01*
X170032001Y-111082501D02*
X170032001Y-108861501D01*
X169357000Y-108186500D02*
X169357000Y-107886500D01*
X170032001Y-108861501D02*
X169357000Y-108186500D01*
X157099000Y-108499000D02*
X156759000Y-108839000D01*
X156759000Y-108839000D02*
X156084000Y-108839000D01*
X141412000Y-111760000D02*
X142379700Y-111760000D01*
X142379700Y-111760000D02*
X142887700Y-111252000D01*
X141475500Y-113792000D02*
X141681200Y-113792000D01*
X141681200Y-113792000D02*
X142824200Y-112649000D01*
X126492000Y-108458000D02*
X127762000Y-109728000D01*
X120142000Y-108458000D02*
X126492000Y-108458000D01*
X118745000Y-109855000D02*
X120142000Y-108458000D01*
X118745000Y-130431822D02*
X118745000Y-109855000D01*
X148717000Y-111887000D02*
X147955000Y-112649000D01*
X147955000Y-112649000D02*
X146684000Y-112649000D01*
X114620322Y-134556500D02*
X118745000Y-130431822D01*
X113030000Y-134556500D02*
X114620322Y-134556500D01*
X128073990Y-108007990D02*
X128778000Y-108712000D01*
X118110000Y-130430411D02*
X118110000Y-109853590D01*
X118110000Y-109853590D02*
X119955600Y-108007990D01*
X119955600Y-108007990D02*
X128073990Y-108007990D01*
X115253911Y-133286500D02*
X118110000Y-130430411D01*
X113030000Y-133286500D02*
X115253911Y-133286500D01*
X146684000Y-113919000D02*
X144272000Y-113919000D01*
X156084000Y-116459000D02*
X156084000Y-117387490D01*
X156084000Y-117387490D02*
X156181500Y-117484990D01*
X116885999Y-119425999D02*
X116586000Y-119126000D01*
X117556001Y-119425999D02*
X116885999Y-119425999D01*
X113474500Y-132461000D02*
X115443000Y-132461000D01*
X117602000Y-119380000D02*
X117556001Y-119425999D01*
X117602000Y-130302000D02*
X117602000Y-119380000D01*
X115443000Y-132461000D02*
X117602000Y-130302000D01*
X113030000Y-132016500D02*
X113474500Y-132461000D01*
X107825500Y-137985500D02*
X107825500Y-136527500D01*
X107825500Y-136527500D02*
X105854500Y-134556500D01*
X105854500Y-134556500D02*
X105410000Y-134556500D01*
X138905503Y-115016001D02*
X139146001Y-115016001D01*
X131595500Y-107705998D02*
X138905503Y-115016001D01*
X129676998Y-107705998D02*
X131595500Y-107705998D01*
X102870000Y-107950000D02*
X105664000Y-105156000D01*
X102870000Y-129857500D02*
X102870000Y-107950000D01*
X105029000Y-132016500D02*
X102870000Y-129857500D01*
X105664000Y-105156000D02*
X127127000Y-105156000D01*
X105410000Y-132016500D02*
X105029000Y-132016500D01*
X127127000Y-105156000D02*
X129676998Y-107705998D01*
X139146001Y-115016001D02*
X139446000Y-115316000D01*
X148463000Y-114085000D02*
X148463000Y-113284000D01*
X147359000Y-115189000D02*
X148463000Y-114085000D01*
X146684000Y-115189000D02*
X147359000Y-115189000D01*
X117348000Y-143386500D02*
X117348000Y-144435004D01*
X117348000Y-144435004D02*
X115869999Y-145913005D01*
X115269995Y-145913005D02*
X115152990Y-145796000D01*
X115152990Y-145796000D02*
X112548000Y-145796000D01*
X111405000Y-144653000D02*
X110805000Y-144653000D01*
X115869999Y-145913005D02*
X115269995Y-145913005D01*
X112548000Y-145796000D02*
X111405000Y-144653000D01*
X112351989Y-146246011D02*
X111405000Y-147193000D01*
X114966590Y-146246011D02*
X112351989Y-146246011D01*
X115083595Y-146363016D02*
X114966590Y-146246011D01*
X116554020Y-146363016D02*
X115083595Y-146363016D01*
X117348000Y-147156996D02*
X116554020Y-146363016D01*
X117348000Y-148586500D02*
X117348000Y-147156996D01*
X111405000Y-147193000D02*
X110805000Y-147193000D01*
D34*
G36*
X129667000Y-151003000D02*
X129674438Y-151078858D01*
X129681087Y-151154852D01*
X129682299Y-151159023D01*
X129682722Y-151163340D01*
X129704760Y-151236334D01*
X129726035Y-151309564D01*
X129728032Y-151313416D01*
X129729287Y-151317574D01*
X129765077Y-151384884D01*
X129800177Y-151452600D01*
X129802888Y-151455996D01*
X129804924Y-151459825D01*
X129853097Y-151518892D01*
X129900690Y-151578510D01*
X129906647Y-151584551D01*
X129906749Y-151584676D01*
X129906865Y-151584772D01*
X129908783Y-151586717D01*
X129987066Y-151665000D01*
X127112695Y-151665000D01*
X127156330Y-151599695D01*
X127204197Y-151484133D01*
X127228600Y-151361452D01*
X127228600Y-149785070D01*
X127069850Y-149626320D01*
X125920500Y-149626320D01*
X125920500Y-149646320D01*
X125666500Y-149646320D01*
X125666500Y-149626320D01*
X124517150Y-149626320D01*
X124358400Y-149785070D01*
X124358400Y-151361452D01*
X124382803Y-151484133D01*
X124430670Y-151599695D01*
X124474305Y-151665000D01*
X102335000Y-151665000D01*
X102335000Y-150480402D01*
X102508678Y-150499884D01*
X102525363Y-150500000D01*
X103722637Y-150500000D01*
X103954747Y-150477241D01*
X104178016Y-150409833D01*
X104309070Y-150340150D01*
X104343463Y-150404494D01*
X104422815Y-150501185D01*
X104519506Y-150580537D01*
X104629820Y-150639502D01*
X104749518Y-150675812D01*
X104874000Y-150688072D01*
X106274000Y-150688072D01*
X106398482Y-150675812D01*
X106518180Y-150639502D01*
X106628494Y-150580537D01*
X106725185Y-150501185D01*
X106804537Y-150404494D01*
X106863502Y-150294180D01*
X106899812Y-150174482D01*
X106912072Y-150050000D01*
X106912072Y-148450000D01*
X106899812Y-148325518D01*
X106863502Y-148205820D01*
X106804537Y-148095506D01*
X106803129Y-148093791D01*
X106878789Y-148043237D01*
X106967237Y-147954789D01*
X107036730Y-147850785D01*
X107084597Y-147735223D01*
X107109000Y-147612542D01*
X107109000Y-147608750D01*
X106950250Y-147450000D01*
X106792082Y-147450000D01*
X106828494Y-147430537D01*
X106925185Y-147351185D01*
X107004537Y-147254494D01*
X107063502Y-147144180D01*
X107066738Y-147133512D01*
X107109000Y-147091250D01*
X107109000Y-147087458D01*
X107097795Y-147031130D01*
X107099812Y-147024482D01*
X107112072Y-146900000D01*
X107112072Y-146810000D01*
X107762198Y-146810000D01*
X107916928Y-146964730D01*
X107916928Y-147843000D01*
X107929188Y-147967482D01*
X107965498Y-148087180D01*
X108024463Y-148197494D01*
X108103815Y-148294185D01*
X108200506Y-148373537D01*
X108310820Y-148432502D01*
X108430518Y-148468812D01*
X108555000Y-148481072D01*
X109255000Y-148481072D01*
X109304590Y-148476188D01*
X109337076Y-148537285D01*
X109372176Y-148605001D01*
X109374887Y-148608397D01*
X109376923Y-148612226D01*
X109425096Y-148671293D01*
X109472689Y-148730911D01*
X109478646Y-148736952D01*
X109478748Y-148737077D01*
X109478864Y-148737173D01*
X109480782Y-148739118D01*
X111802401Y-151060737D01*
X111861344Y-151109153D01*
X111919738Y-151158151D01*
X111923543Y-151160243D01*
X111926896Y-151162997D01*
X111994095Y-151199029D01*
X112060919Y-151235766D01*
X112065055Y-151237078D01*
X112068882Y-151239130D01*
X112141813Y-151261427D01*
X112214487Y-151284481D01*
X112218801Y-151284965D01*
X112222952Y-151286234D01*
X112298794Y-151293938D01*
X112374592Y-151302440D01*
X112383077Y-151302499D01*
X112383236Y-151302515D01*
X112383384Y-151302501D01*
X112386118Y-151302520D01*
X118609038Y-151302520D01*
X118684896Y-151295082D01*
X118760890Y-151288433D01*
X118765061Y-151287221D01*
X118769378Y-151286798D01*
X118842372Y-151264760D01*
X118915602Y-151243485D01*
X118919454Y-151241488D01*
X118923612Y-151240233D01*
X118990922Y-151204443D01*
X119058638Y-151169343D01*
X119062034Y-151166632D01*
X119065863Y-151164596D01*
X119124930Y-151116423D01*
X119184548Y-151068830D01*
X119190589Y-151062873D01*
X119190714Y-151062771D01*
X119190810Y-151062655D01*
X119192755Y-151060737D01*
X122616303Y-147637188D01*
X124358400Y-147637188D01*
X124358400Y-149213570D01*
X124517150Y-149372320D01*
X125666500Y-149372320D01*
X125666500Y-147223480D01*
X125920500Y-147223480D01*
X125920500Y-149372320D01*
X127069850Y-149372320D01*
X127228600Y-149213570D01*
X127228600Y-147637188D01*
X127204197Y-147514507D01*
X127156330Y-147398945D01*
X127086837Y-147294941D01*
X126998389Y-147206493D01*
X126894385Y-147137000D01*
X126778823Y-147089133D01*
X126656142Y-147064730D01*
X126079250Y-147064730D01*
X125920500Y-147223480D01*
X125666500Y-147223480D01*
X125507750Y-147064730D01*
X124930858Y-147064730D01*
X124808177Y-147089133D01*
X124692615Y-147137000D01*
X124588611Y-147206493D01*
X124500163Y-147294941D01*
X124430670Y-147398945D01*
X124382803Y-147514507D01*
X124358400Y-147637188D01*
X122616303Y-147637188D01*
X124211490Y-146042001D01*
X124404193Y-146042001D01*
X124462863Y-146151764D01*
X124542215Y-146248455D01*
X124638906Y-146327807D01*
X124749220Y-146386772D01*
X124868918Y-146423082D01*
X124993400Y-146435342D01*
X126593600Y-146435342D01*
X126718082Y-146423082D01*
X126837780Y-146386772D01*
X126948094Y-146327807D01*
X127044785Y-146248455D01*
X127124137Y-146151764D01*
X127183102Y-146041450D01*
X127219412Y-145921752D01*
X127231672Y-145797270D01*
X127231672Y-145351500D01*
X129667000Y-145351500D01*
X129667000Y-151003000D01*
X129667000Y-151003000D01*
G37*
X129667000Y-151003000D02*
X129674438Y-151078858D01*
X129681087Y-151154852D01*
X129682299Y-151159023D01*
X129682722Y-151163340D01*
X129704760Y-151236334D01*
X129726035Y-151309564D01*
X129728032Y-151313416D01*
X129729287Y-151317574D01*
X129765077Y-151384884D01*
X129800177Y-151452600D01*
X129802888Y-151455996D01*
X129804924Y-151459825D01*
X129853097Y-151518892D01*
X129900690Y-151578510D01*
X129906647Y-151584551D01*
X129906749Y-151584676D01*
X129906865Y-151584772D01*
X129908783Y-151586717D01*
X129987066Y-151665000D01*
X127112695Y-151665000D01*
X127156330Y-151599695D01*
X127204197Y-151484133D01*
X127228600Y-151361452D01*
X127228600Y-149785070D01*
X127069850Y-149626320D01*
X125920500Y-149626320D01*
X125920500Y-149646320D01*
X125666500Y-149646320D01*
X125666500Y-149626320D01*
X124517150Y-149626320D01*
X124358400Y-149785070D01*
X124358400Y-151361452D01*
X124382803Y-151484133D01*
X124430670Y-151599695D01*
X124474305Y-151665000D01*
X102335000Y-151665000D01*
X102335000Y-150480402D01*
X102508678Y-150499884D01*
X102525363Y-150500000D01*
X103722637Y-150500000D01*
X103954747Y-150477241D01*
X104178016Y-150409833D01*
X104309070Y-150340150D01*
X104343463Y-150404494D01*
X104422815Y-150501185D01*
X104519506Y-150580537D01*
X104629820Y-150639502D01*
X104749518Y-150675812D01*
X104874000Y-150688072D01*
X106274000Y-150688072D01*
X106398482Y-150675812D01*
X106518180Y-150639502D01*
X106628494Y-150580537D01*
X106725185Y-150501185D01*
X106804537Y-150404494D01*
X106863502Y-150294180D01*
X106899812Y-150174482D01*
X106912072Y-150050000D01*
X106912072Y-148450000D01*
X106899812Y-148325518D01*
X106863502Y-148205820D01*
X106804537Y-148095506D01*
X106803129Y-148093791D01*
X106878789Y-148043237D01*
X106967237Y-147954789D01*
X107036730Y-147850785D01*
X107084597Y-147735223D01*
X107109000Y-147612542D01*
X107109000Y-147608750D01*
X106950250Y-147450000D01*
X106792082Y-147450000D01*
X106828494Y-147430537D01*
X106925185Y-147351185D01*
X107004537Y-147254494D01*
X107063502Y-147144180D01*
X107066738Y-147133512D01*
X107109000Y-147091250D01*
X107109000Y-147087458D01*
X107097795Y-147031130D01*
X107099812Y-147024482D01*
X107112072Y-146900000D01*
X107112072Y-146810000D01*
X107762198Y-146810000D01*
X107916928Y-146964730D01*
X107916928Y-147843000D01*
X107929188Y-147967482D01*
X107965498Y-148087180D01*
X108024463Y-148197494D01*
X108103815Y-148294185D01*
X108200506Y-148373537D01*
X108310820Y-148432502D01*
X108430518Y-148468812D01*
X108555000Y-148481072D01*
X109255000Y-148481072D01*
X109304590Y-148476188D01*
X109337076Y-148537285D01*
X109372176Y-148605001D01*
X109374887Y-148608397D01*
X109376923Y-148612226D01*
X109425096Y-148671293D01*
X109472689Y-148730911D01*
X109478646Y-148736952D01*
X109478748Y-148737077D01*
X109478864Y-148737173D01*
X109480782Y-148739118D01*
X111802401Y-151060737D01*
X111861344Y-151109153D01*
X111919738Y-151158151D01*
X111923543Y-151160243D01*
X111926896Y-151162997D01*
X111994095Y-151199029D01*
X112060919Y-151235766D01*
X112065055Y-151237078D01*
X112068882Y-151239130D01*
X112141813Y-151261427D01*
X112214487Y-151284481D01*
X112218801Y-151284965D01*
X112222952Y-151286234D01*
X112298794Y-151293938D01*
X112374592Y-151302440D01*
X112383077Y-151302499D01*
X112383236Y-151302515D01*
X112383384Y-151302501D01*
X112386118Y-151302520D01*
X118609038Y-151302520D01*
X118684896Y-151295082D01*
X118760890Y-151288433D01*
X118765061Y-151287221D01*
X118769378Y-151286798D01*
X118842372Y-151264760D01*
X118915602Y-151243485D01*
X118919454Y-151241488D01*
X118923612Y-151240233D01*
X118990922Y-151204443D01*
X119058638Y-151169343D01*
X119062034Y-151166632D01*
X119065863Y-151164596D01*
X119124930Y-151116423D01*
X119184548Y-151068830D01*
X119190589Y-151062873D01*
X119190714Y-151062771D01*
X119190810Y-151062655D01*
X119192755Y-151060737D01*
X122616303Y-147637188D01*
X124358400Y-147637188D01*
X124358400Y-149213570D01*
X124517150Y-149372320D01*
X125666500Y-149372320D01*
X125666500Y-147223480D01*
X125920500Y-147223480D01*
X125920500Y-149372320D01*
X127069850Y-149372320D01*
X127228600Y-149213570D01*
X127228600Y-147637188D01*
X127204197Y-147514507D01*
X127156330Y-147398945D01*
X127086837Y-147294941D01*
X126998389Y-147206493D01*
X126894385Y-147137000D01*
X126778823Y-147089133D01*
X126656142Y-147064730D01*
X126079250Y-147064730D01*
X125920500Y-147223480D01*
X125666500Y-147223480D01*
X125507750Y-147064730D01*
X124930858Y-147064730D01*
X124808177Y-147089133D01*
X124692615Y-147137000D01*
X124588611Y-147206493D01*
X124500163Y-147294941D01*
X124430670Y-147398945D01*
X124382803Y-147514507D01*
X124358400Y-147637188D01*
X122616303Y-147637188D01*
X124211490Y-146042001D01*
X124404193Y-146042001D01*
X124462863Y-146151764D01*
X124542215Y-146248455D01*
X124638906Y-146327807D01*
X124749220Y-146386772D01*
X124868918Y-146423082D01*
X124993400Y-146435342D01*
X126593600Y-146435342D01*
X126718082Y-146423082D01*
X126837780Y-146386772D01*
X126948094Y-146327807D01*
X127044785Y-146248455D01*
X127124137Y-146151764D01*
X127183102Y-146041450D01*
X127219412Y-145921752D01*
X127231672Y-145797270D01*
X127231672Y-145351500D01*
X129667000Y-145351500D01*
X129667000Y-151003000D01*
G36*
X160675000Y-107122000D02*
X160655000Y-107122000D01*
X160655000Y-107821250D01*
X160813750Y-107980000D01*
X161240542Y-107980000D01*
X161363223Y-107955597D01*
X161478785Y-107907730D01*
X161582789Y-107838237D01*
X161671237Y-107749789D01*
X161740730Y-107645785D01*
X161788597Y-107530223D01*
X161813000Y-107407542D01*
X161813000Y-107280750D01*
X161784273Y-107252023D01*
X161991221Y-107252023D01*
X163165857Y-108426659D01*
X163160785Y-108423270D01*
X163045223Y-108375403D01*
X162922542Y-108351000D01*
X162845750Y-108351000D01*
X162687000Y-108509750D01*
X162687000Y-109634000D01*
X162707000Y-109634000D01*
X162707000Y-109888000D01*
X162687000Y-109888000D01*
X162687000Y-111012250D01*
X162845750Y-111171000D01*
X162922542Y-111171000D01*
X163022993Y-111151019D01*
X163042260Y-111214834D01*
X163063535Y-111288064D01*
X163065532Y-111291916D01*
X163066787Y-111296074D01*
X163102577Y-111363384D01*
X163137677Y-111431100D01*
X163140388Y-111434496D01*
X163142424Y-111438325D01*
X163190597Y-111497392D01*
X163238190Y-111557010D01*
X163244147Y-111563051D01*
X163244249Y-111563176D01*
X163244365Y-111563272D01*
X163246283Y-111565217D01*
X165138428Y-113457361D01*
X165138428Y-115888138D01*
X163246283Y-117780283D01*
X163197867Y-117839226D01*
X163148869Y-117897620D01*
X163146777Y-117901425D01*
X163144023Y-117904778D01*
X163107991Y-117971977D01*
X163071254Y-118038801D01*
X163069942Y-118042937D01*
X163067890Y-118046764D01*
X163045593Y-118119695D01*
X163022539Y-118192369D01*
X163022055Y-118196683D01*
X163020786Y-118200834D01*
X163013078Y-118276716D01*
X163004580Y-118352474D01*
X163004521Y-118360950D01*
X163004504Y-118361119D01*
X163004519Y-118361277D01*
X163004500Y-118364000D01*
X163004500Y-126492000D01*
X163011938Y-126567858D01*
X163018587Y-126643852D01*
X163019799Y-126648023D01*
X163020222Y-126652340D01*
X163042260Y-126725334D01*
X163063535Y-126798564D01*
X163065532Y-126802416D01*
X163066787Y-126806574D01*
X163102577Y-126873884D01*
X163137677Y-126941600D01*
X163140388Y-126944996D01*
X163142424Y-126948825D01*
X163190597Y-127007892D01*
X163238190Y-127067510D01*
X163244147Y-127073551D01*
X163244249Y-127073676D01*
X163244365Y-127073772D01*
X163246283Y-127075717D01*
X165138428Y-128967862D01*
X165138428Y-131653206D01*
X165014843Y-131652343D01*
X164834727Y-131686701D01*
X164664716Y-131755390D01*
X164511285Y-131855793D01*
X164380277Y-131984086D01*
X164276683Y-132135381D01*
X164204448Y-132303916D01*
X164166325Y-132483272D01*
X164163765Y-132666617D01*
X164196866Y-132846968D01*
X164264366Y-133017454D01*
X164363695Y-133171583D01*
X164467000Y-133278559D01*
X164467000Y-139281918D01*
X164403689Y-139374381D01*
X164331454Y-139542916D01*
X164293331Y-139722272D01*
X164290771Y-139905617D01*
X164323872Y-140085968D01*
X164391372Y-140256454D01*
X164490701Y-140410583D01*
X164618076Y-140542484D01*
X164768644Y-140647131D01*
X164936671Y-140720540D01*
X165115757Y-140759915D01*
X165299079Y-140763755D01*
X165479657Y-140731914D01*
X165650610Y-140665606D01*
X165805429Y-140567355D01*
X165938215Y-140440904D01*
X166043911Y-140291070D01*
X166118492Y-140123560D01*
X166159116Y-139944754D01*
X166162040Y-139735319D01*
X166126425Y-139555448D01*
X166056550Y-139385920D01*
X165987000Y-139281238D01*
X165987000Y-138058624D01*
X165988053Y-138060594D01*
X166067405Y-138157285D01*
X166164096Y-138236637D01*
X166274410Y-138295602D01*
X166394108Y-138331912D01*
X166518590Y-138344172D01*
X170117770Y-138344172D01*
X170242252Y-138331912D01*
X170361950Y-138295602D01*
X170472264Y-138236637D01*
X170568955Y-138157285D01*
X170648307Y-138060594D01*
X170707272Y-137950280D01*
X170743582Y-137830582D01*
X170755842Y-137706100D01*
X170755842Y-137191750D01*
X171385230Y-137191750D01*
X171385230Y-137768642D01*
X171409633Y-137891323D01*
X171457500Y-138006885D01*
X171526993Y-138110889D01*
X171615441Y-138199337D01*
X171719445Y-138268830D01*
X171835007Y-138316697D01*
X171957688Y-138341100D01*
X173534070Y-138341100D01*
X173692820Y-138182350D01*
X173692820Y-137033000D01*
X171543980Y-137033000D01*
X171385230Y-137191750D01*
X170755842Y-137191750D01*
X170755842Y-136105900D01*
X170749683Y-136043358D01*
X171385230Y-136043358D01*
X171385230Y-136620250D01*
X171543980Y-136779000D01*
X173692820Y-136779000D01*
X173692820Y-135629650D01*
X173534070Y-135470900D01*
X171957688Y-135470900D01*
X171835007Y-135495303D01*
X171719445Y-135543170D01*
X171615441Y-135612663D01*
X171526993Y-135701111D01*
X171457500Y-135805115D01*
X171409633Y-135920677D01*
X171385230Y-136043358D01*
X170749683Y-136043358D01*
X170743582Y-135981418D01*
X170707272Y-135861720D01*
X170648307Y-135751406D01*
X170568955Y-135654715D01*
X170472264Y-135575363D01*
X170361950Y-135516398D01*
X170242252Y-135480088D01*
X170117770Y-135467828D01*
X169143680Y-135467828D01*
X169143680Y-132566072D01*
X169376500Y-132566072D01*
X169500982Y-132553812D01*
X169620680Y-132517502D01*
X169730994Y-132458537D01*
X169827685Y-132379185D01*
X169907037Y-132282494D01*
X169966002Y-132172180D01*
X170002312Y-132052482D01*
X170014572Y-131928000D01*
X170014572Y-128428000D01*
X170002312Y-128303518D01*
X169966002Y-128183820D01*
X169907037Y-128073506D01*
X169827685Y-127976815D01*
X169730994Y-127897463D01*
X169620680Y-127838498D01*
X169500982Y-127802188D01*
X169376500Y-127789928D01*
X166295362Y-127789928D01*
X164655500Y-126150066D01*
X164655500Y-122713750D01*
X164941500Y-122713750D01*
X164941500Y-124490542D01*
X164965903Y-124613223D01*
X165013770Y-124728785D01*
X165083263Y-124832789D01*
X165171711Y-124921237D01*
X165275715Y-124990730D01*
X165391277Y-125038597D01*
X165513958Y-125063000D01*
X167290750Y-125063000D01*
X167449500Y-124904250D01*
X167449500Y-122555000D01*
X167703500Y-122555000D01*
X167703500Y-124904250D01*
X167862250Y-125063000D01*
X169639042Y-125063000D01*
X169761723Y-125038597D01*
X169877285Y-124990730D01*
X169981289Y-124921237D01*
X170069737Y-124832789D01*
X170139230Y-124728785D01*
X170187097Y-124613223D01*
X170211500Y-124490542D01*
X170211500Y-122713750D01*
X170052750Y-122555000D01*
X167703500Y-122555000D01*
X167449500Y-122555000D01*
X165100250Y-122555000D01*
X164941500Y-122713750D01*
X164655500Y-122713750D01*
X164655500Y-120365458D01*
X164941500Y-120365458D01*
X164941500Y-122142250D01*
X165100250Y-122301000D01*
X167449500Y-122301000D01*
X167449500Y-119951750D01*
X167703500Y-119951750D01*
X167703500Y-122301000D01*
X170052750Y-122301000D01*
X170211500Y-122142250D01*
X170211500Y-120365458D01*
X170187097Y-120242777D01*
X170139230Y-120127215D01*
X170069737Y-120023211D01*
X169981289Y-119934763D01*
X169877285Y-119865270D01*
X169761723Y-119817403D01*
X169639042Y-119793000D01*
X167862250Y-119793000D01*
X167703500Y-119951750D01*
X167449500Y-119951750D01*
X167290750Y-119793000D01*
X165513958Y-119793000D01*
X165391277Y-119817403D01*
X165275715Y-119865270D01*
X165171711Y-119934763D01*
X165083263Y-120023211D01*
X165013770Y-120127215D01*
X164965903Y-120242777D01*
X164941500Y-120365458D01*
X164655500Y-120365458D01*
X164655500Y-118705934D01*
X166295362Y-117066072D01*
X169376500Y-117066072D01*
X169500982Y-117053812D01*
X169620680Y-117017502D01*
X169730994Y-116958537D01*
X169827685Y-116879185D01*
X169907037Y-116782494D01*
X169966002Y-116672180D01*
X170002312Y-116552482D01*
X170014572Y-116428000D01*
X170014572Y-112928000D01*
X170002312Y-112803518D01*
X169966002Y-112683820D01*
X169907037Y-112573506D01*
X169827685Y-112476815D01*
X169730994Y-112397463D01*
X169620680Y-112338498D01*
X169500982Y-112302188D01*
X169376500Y-112289928D01*
X166305861Y-112289928D01*
X166027934Y-112012000D01*
X169862500Y-112012000D01*
X169932368Y-112005149D01*
X170002298Y-111999032D01*
X170006139Y-111997916D01*
X170010118Y-111997526D01*
X170077314Y-111977238D01*
X170144735Y-111957651D01*
X170148286Y-111955811D01*
X170152113Y-111954655D01*
X170214094Y-111921699D01*
X170276422Y-111889392D01*
X170279547Y-111886898D01*
X170283078Y-111885020D01*
X170337479Y-111840651D01*
X170392343Y-111796855D01*
X170397906Y-111791369D01*
X170398022Y-111791274D01*
X170398111Y-111791166D01*
X170399898Y-111789404D01*
X170569399Y-111619905D01*
X170613984Y-111565627D01*
X170659087Y-111511876D01*
X170661009Y-111508379D01*
X170663547Y-111505290D01*
X170696739Y-111443388D01*
X170706679Y-111425307D01*
X170782518Y-111448312D01*
X170907000Y-111460572D01*
X171607000Y-111460572D01*
X171731482Y-111448312D01*
X171851180Y-111412002D01*
X171961494Y-111353037D01*
X172058185Y-111273685D01*
X172137537Y-111176994D01*
X172196502Y-111066680D01*
X172217336Y-110998000D01*
X175235566Y-110998000D01*
X176022000Y-111784433D01*
X176022000Y-135611194D01*
X175920195Y-135543170D01*
X175804633Y-135495303D01*
X175681952Y-135470900D01*
X174105570Y-135470900D01*
X173946820Y-135629650D01*
X173946820Y-136779000D01*
X173966820Y-136779000D01*
X173966820Y-137033000D01*
X173946820Y-137033000D01*
X173946820Y-138182350D01*
X174105570Y-138341100D01*
X175681952Y-138341100D01*
X175804633Y-138316697D01*
X175920195Y-138268830D01*
X176022000Y-138200806D01*
X176022000Y-149581567D01*
X175338065Y-150265501D01*
X155956000Y-150265501D01*
X155956000Y-148560000D01*
X155948561Y-148484138D01*
X155941913Y-148408148D01*
X155940701Y-148403977D01*
X155940278Y-148399660D01*
X155918240Y-148326666D01*
X155896965Y-148253436D01*
X155894968Y-148249584D01*
X155893713Y-148245426D01*
X155857923Y-148178116D01*
X155822823Y-148110400D01*
X155820112Y-148107004D01*
X155818076Y-148103175D01*
X155769903Y-148044108D01*
X155722310Y-147984490D01*
X155716353Y-147978449D01*
X155716251Y-147978324D01*
X155716135Y-147978228D01*
X155714217Y-147976283D01*
X154474217Y-146736283D01*
X154415274Y-146687867D01*
X154356880Y-146638869D01*
X154353075Y-146636777D01*
X154349722Y-146634023D01*
X154282523Y-146597991D01*
X154215699Y-146561254D01*
X154211563Y-146559942D01*
X154207736Y-146557890D01*
X154134805Y-146535593D01*
X154132035Y-146534714D01*
X154099002Y-146425820D01*
X154040037Y-146315506D01*
X153960685Y-146218815D01*
X153863994Y-146139463D01*
X153753680Y-146080498D01*
X153633982Y-146044188D01*
X153509500Y-146031928D01*
X152809500Y-146031928D01*
X152685018Y-146044188D01*
X152565320Y-146080498D01*
X152455006Y-146139463D01*
X152358315Y-146218815D01*
X152278963Y-146315506D01*
X152219998Y-146425820D01*
X152209500Y-146460427D01*
X152199002Y-146425820D01*
X152140037Y-146315506D01*
X152060685Y-146218815D01*
X151963994Y-146139463D01*
X151853680Y-146080498D01*
X151733982Y-146044188D01*
X151609500Y-146031928D01*
X151419500Y-146031928D01*
X151419500Y-143919300D01*
X151571802Y-143766998D01*
X156205002Y-143766998D01*
X156274879Y-143760147D01*
X156344805Y-143754029D01*
X156348643Y-143752914D01*
X156352620Y-143752524D01*
X156419823Y-143732234D01*
X156487242Y-143712647D01*
X156490790Y-143710808D01*
X156494615Y-143709653D01*
X156556593Y-143676699D01*
X156618927Y-143644388D01*
X156622050Y-143641895D01*
X156625580Y-143640018D01*
X156679989Y-143595643D01*
X156734848Y-143551850D01*
X156740408Y-143546367D01*
X156740524Y-143546272D01*
X156740613Y-143546164D01*
X156742403Y-143544399D01*
X159541401Y-140745401D01*
X159585968Y-140691145D01*
X159631086Y-140637375D01*
X159633011Y-140633874D01*
X159635548Y-140630785D01*
X159668713Y-140568933D01*
X159702543Y-140507396D01*
X159703752Y-140503584D01*
X159705639Y-140500065D01*
X159726152Y-140432969D01*
X159747392Y-140366013D01*
X159747838Y-140362041D01*
X159749006Y-140358219D01*
X159756103Y-140288351D01*
X159763926Y-140218611D01*
X159763980Y-140210806D01*
X159763996Y-140210653D01*
X159763982Y-140210510D01*
X159764000Y-140208000D01*
X159764000Y-131124802D01*
X160811401Y-130077401D01*
X160855968Y-130023145D01*
X160901086Y-129969375D01*
X160903011Y-129965874D01*
X160905548Y-129962785D01*
X160938713Y-129900933D01*
X160972543Y-129839396D01*
X160973752Y-129835584D01*
X160975639Y-129832065D01*
X160996152Y-129764969D01*
X161017392Y-129698013D01*
X161017838Y-129694041D01*
X161019006Y-129690219D01*
X161026104Y-129620343D01*
X161033926Y-129550611D01*
X161033981Y-129542796D01*
X161033995Y-129542653D01*
X161033982Y-129542520D01*
X161034000Y-129540000D01*
X161034000Y-118110000D01*
X161027144Y-118040073D01*
X161021030Y-117970197D01*
X161019916Y-117966364D01*
X161019526Y-117962382D01*
X160999224Y-117895138D01*
X160979649Y-117827760D01*
X160977810Y-117824212D01*
X160976655Y-117820387D01*
X160943691Y-117758390D01*
X160911389Y-117696074D01*
X160908897Y-117692953D01*
X160907020Y-117689422D01*
X160862641Y-117635007D01*
X160818852Y-117580154D01*
X160813369Y-117574594D01*
X160813274Y-117574478D01*
X160813166Y-117574389D01*
X160811401Y-117572599D01*
X158494000Y-115255198D01*
X158494000Y-113708998D01*
X158487148Y-113639117D01*
X158481031Y-113569195D01*
X158479916Y-113565357D01*
X158479526Y-113561380D01*
X158459246Y-113494210D01*
X158439650Y-113426759D01*
X158437809Y-113423208D01*
X158436655Y-113419385D01*
X158403710Y-113357424D01*
X158371390Y-113295073D01*
X158368897Y-113291950D01*
X158367020Y-113288420D01*
X158322625Y-113233987D01*
X158278852Y-113179153D01*
X158273370Y-113173594D01*
X158273274Y-113173476D01*
X158273165Y-113173386D01*
X158271401Y-113171597D01*
X157836404Y-112736600D01*
X157782148Y-112692033D01*
X157728378Y-112646915D01*
X157724877Y-112644990D01*
X157721788Y-112642453D01*
X157697072Y-112629200D01*
X157697072Y-112349000D01*
X157684812Y-112224518D01*
X157648502Y-112104820D01*
X157599957Y-112014000D01*
X157648502Y-111923180D01*
X157684812Y-111803482D01*
X157697072Y-111679000D01*
X157697072Y-111079000D01*
X157684812Y-110954518D01*
X157648502Y-110834820D01*
X157599957Y-110744000D01*
X157648502Y-110653180D01*
X157684812Y-110533482D01*
X157697072Y-110409000D01*
X157697072Y-110046750D01*
X161625000Y-110046750D01*
X161625000Y-110598542D01*
X161649403Y-110721223D01*
X161697270Y-110836785D01*
X161766763Y-110940789D01*
X161855211Y-111029237D01*
X161959215Y-111098730D01*
X162074777Y-111146597D01*
X162197458Y-111171000D01*
X162274250Y-111171000D01*
X162433000Y-111012250D01*
X162433000Y-109888000D01*
X161783750Y-109888000D01*
X161625000Y-110046750D01*
X157697072Y-110046750D01*
X157697072Y-109809000D01*
X157684812Y-109684518D01*
X157648502Y-109564820D01*
X157599957Y-109474000D01*
X157648502Y-109383180D01*
X157660084Y-109345000D01*
X157697126Y-109345000D01*
X157783644Y-109405131D01*
X157951671Y-109478540D01*
X158130757Y-109517915D01*
X158314079Y-109521755D01*
X158494657Y-109489914D01*
X158665610Y-109423606D01*
X158820429Y-109325355D01*
X158953215Y-109198904D01*
X159058911Y-109049070D01*
X159114837Y-108923458D01*
X161625000Y-108923458D01*
X161625000Y-109475250D01*
X161783750Y-109634000D01*
X162433000Y-109634000D01*
X162433000Y-108509750D01*
X162274250Y-108351000D01*
X162197458Y-108351000D01*
X162074777Y-108375403D01*
X161959215Y-108423270D01*
X161855211Y-108492763D01*
X161766763Y-108581211D01*
X161697270Y-108685215D01*
X161649403Y-108800777D01*
X161625000Y-108923458D01*
X159114837Y-108923458D01*
X159133492Y-108881560D01*
X159174116Y-108702754D01*
X159177040Y-108493319D01*
X159141425Y-108313448D01*
X159071550Y-108143920D01*
X158970079Y-107991193D01*
X158840875Y-107861084D01*
X158823463Y-107849340D01*
X159246693Y-107426110D01*
X159267403Y-107530223D01*
X159315270Y-107645785D01*
X159384763Y-107749789D01*
X159473211Y-107838237D01*
X159577215Y-107907730D01*
X159692777Y-107955597D01*
X159815458Y-107980000D01*
X160242250Y-107980000D01*
X160401000Y-107821250D01*
X160401000Y-107122000D01*
X160381000Y-107122000D01*
X160381000Y-106980012D01*
X160675000Y-106980012D01*
X160675000Y-107122000D01*
X160675000Y-107122000D01*
G37*
X160675000Y-107122000D02*
X160655000Y-107122000D01*
X160655000Y-107821250D01*
X160813750Y-107980000D01*
X161240542Y-107980000D01*
X161363223Y-107955597D01*
X161478785Y-107907730D01*
X161582789Y-107838237D01*
X161671237Y-107749789D01*
X161740730Y-107645785D01*
X161788597Y-107530223D01*
X161813000Y-107407542D01*
X161813000Y-107280750D01*
X161784273Y-107252023D01*
X161991221Y-107252023D01*
X163165857Y-108426659D01*
X163160785Y-108423270D01*
X163045223Y-108375403D01*
X162922542Y-108351000D01*
X162845750Y-108351000D01*
X162687000Y-108509750D01*
X162687000Y-109634000D01*
X162707000Y-109634000D01*
X162707000Y-109888000D01*
X162687000Y-109888000D01*
X162687000Y-111012250D01*
X162845750Y-111171000D01*
X162922542Y-111171000D01*
X163022993Y-111151019D01*
X163042260Y-111214834D01*
X163063535Y-111288064D01*
X163065532Y-111291916D01*
X163066787Y-111296074D01*
X163102577Y-111363384D01*
X163137677Y-111431100D01*
X163140388Y-111434496D01*
X163142424Y-111438325D01*
X163190597Y-111497392D01*
X163238190Y-111557010D01*
X163244147Y-111563051D01*
X163244249Y-111563176D01*
X163244365Y-111563272D01*
X163246283Y-111565217D01*
X165138428Y-113457361D01*
X165138428Y-115888138D01*
X163246283Y-117780283D01*
X163197867Y-117839226D01*
X163148869Y-117897620D01*
X163146777Y-117901425D01*
X163144023Y-117904778D01*
X163107991Y-117971977D01*
X163071254Y-118038801D01*
X163069942Y-118042937D01*
X163067890Y-118046764D01*
X163045593Y-118119695D01*
X163022539Y-118192369D01*
X163022055Y-118196683D01*
X163020786Y-118200834D01*
X163013078Y-118276716D01*
X163004580Y-118352474D01*
X163004521Y-118360950D01*
X163004504Y-118361119D01*
X163004519Y-118361277D01*
X163004500Y-118364000D01*
X163004500Y-126492000D01*
X163011938Y-126567858D01*
X163018587Y-126643852D01*
X163019799Y-126648023D01*
X163020222Y-126652340D01*
X163042260Y-126725334D01*
X163063535Y-126798564D01*
X163065532Y-126802416D01*
X163066787Y-126806574D01*
X163102577Y-126873884D01*
X163137677Y-126941600D01*
X163140388Y-126944996D01*
X163142424Y-126948825D01*
X163190597Y-127007892D01*
X163238190Y-127067510D01*
X163244147Y-127073551D01*
X163244249Y-127073676D01*
X163244365Y-127073772D01*
X163246283Y-127075717D01*
X165138428Y-128967862D01*
X165138428Y-131653206D01*
X165014843Y-131652343D01*
X164834727Y-131686701D01*
X164664716Y-131755390D01*
X164511285Y-131855793D01*
X164380277Y-131984086D01*
X164276683Y-132135381D01*
X164204448Y-132303916D01*
X164166325Y-132483272D01*
X164163765Y-132666617D01*
X164196866Y-132846968D01*
X164264366Y-133017454D01*
X164363695Y-133171583D01*
X164467000Y-133278559D01*
X164467000Y-139281918D01*
X164403689Y-139374381D01*
X164331454Y-139542916D01*
X164293331Y-139722272D01*
X164290771Y-139905617D01*
X164323872Y-140085968D01*
X164391372Y-140256454D01*
X164490701Y-140410583D01*
X164618076Y-140542484D01*
X164768644Y-140647131D01*
X164936671Y-140720540D01*
X165115757Y-140759915D01*
X165299079Y-140763755D01*
X165479657Y-140731914D01*
X165650610Y-140665606D01*
X165805429Y-140567355D01*
X165938215Y-140440904D01*
X166043911Y-140291070D01*
X166118492Y-140123560D01*
X166159116Y-139944754D01*
X166162040Y-139735319D01*
X166126425Y-139555448D01*
X166056550Y-139385920D01*
X165987000Y-139281238D01*
X165987000Y-138058624D01*
X165988053Y-138060594D01*
X166067405Y-138157285D01*
X166164096Y-138236637D01*
X166274410Y-138295602D01*
X166394108Y-138331912D01*
X166518590Y-138344172D01*
X170117770Y-138344172D01*
X170242252Y-138331912D01*
X170361950Y-138295602D01*
X170472264Y-138236637D01*
X170568955Y-138157285D01*
X170648307Y-138060594D01*
X170707272Y-137950280D01*
X170743582Y-137830582D01*
X170755842Y-137706100D01*
X170755842Y-137191750D01*
X171385230Y-137191750D01*
X171385230Y-137768642D01*
X171409633Y-137891323D01*
X171457500Y-138006885D01*
X171526993Y-138110889D01*
X171615441Y-138199337D01*
X171719445Y-138268830D01*
X171835007Y-138316697D01*
X171957688Y-138341100D01*
X173534070Y-138341100D01*
X173692820Y-138182350D01*
X173692820Y-137033000D01*
X171543980Y-137033000D01*
X171385230Y-137191750D01*
X170755842Y-137191750D01*
X170755842Y-136105900D01*
X170749683Y-136043358D01*
X171385230Y-136043358D01*
X171385230Y-136620250D01*
X171543980Y-136779000D01*
X173692820Y-136779000D01*
X173692820Y-135629650D01*
X173534070Y-135470900D01*
X171957688Y-135470900D01*
X171835007Y-135495303D01*
X171719445Y-135543170D01*
X171615441Y-135612663D01*
X171526993Y-135701111D01*
X171457500Y-135805115D01*
X171409633Y-135920677D01*
X171385230Y-136043358D01*
X170749683Y-136043358D01*
X170743582Y-135981418D01*
X170707272Y-135861720D01*
X170648307Y-135751406D01*
X170568955Y-135654715D01*
X170472264Y-135575363D01*
X170361950Y-135516398D01*
X170242252Y-135480088D01*
X170117770Y-135467828D01*
X169143680Y-135467828D01*
X169143680Y-132566072D01*
X169376500Y-132566072D01*
X169500982Y-132553812D01*
X169620680Y-132517502D01*
X169730994Y-132458537D01*
X169827685Y-132379185D01*
X169907037Y-132282494D01*
X169966002Y-132172180D01*
X170002312Y-132052482D01*
X170014572Y-131928000D01*
X170014572Y-128428000D01*
X170002312Y-128303518D01*
X169966002Y-128183820D01*
X169907037Y-128073506D01*
X169827685Y-127976815D01*
X169730994Y-127897463D01*
X169620680Y-127838498D01*
X169500982Y-127802188D01*
X169376500Y-127789928D01*
X166295362Y-127789928D01*
X164655500Y-126150066D01*
X164655500Y-122713750D01*
X164941500Y-122713750D01*
X164941500Y-124490542D01*
X164965903Y-124613223D01*
X165013770Y-124728785D01*
X165083263Y-124832789D01*
X165171711Y-124921237D01*
X165275715Y-124990730D01*
X165391277Y-125038597D01*
X165513958Y-125063000D01*
X167290750Y-125063000D01*
X167449500Y-124904250D01*
X167449500Y-122555000D01*
X167703500Y-122555000D01*
X167703500Y-124904250D01*
X167862250Y-125063000D01*
X169639042Y-125063000D01*
X169761723Y-125038597D01*
X169877285Y-124990730D01*
X169981289Y-124921237D01*
X170069737Y-124832789D01*
X170139230Y-124728785D01*
X170187097Y-124613223D01*
X170211500Y-124490542D01*
X170211500Y-122713750D01*
X170052750Y-122555000D01*
X167703500Y-122555000D01*
X167449500Y-122555000D01*
X165100250Y-122555000D01*
X164941500Y-122713750D01*
X164655500Y-122713750D01*
X164655500Y-120365458D01*
X164941500Y-120365458D01*
X164941500Y-122142250D01*
X165100250Y-122301000D01*
X167449500Y-122301000D01*
X167449500Y-119951750D01*
X167703500Y-119951750D01*
X167703500Y-122301000D01*
X170052750Y-122301000D01*
X170211500Y-122142250D01*
X170211500Y-120365458D01*
X170187097Y-120242777D01*
X170139230Y-120127215D01*
X170069737Y-120023211D01*
X169981289Y-119934763D01*
X169877285Y-119865270D01*
X169761723Y-119817403D01*
X169639042Y-119793000D01*
X167862250Y-119793000D01*
X167703500Y-119951750D01*
X167449500Y-119951750D01*
X167290750Y-119793000D01*
X165513958Y-119793000D01*
X165391277Y-119817403D01*
X165275715Y-119865270D01*
X165171711Y-119934763D01*
X165083263Y-120023211D01*
X165013770Y-120127215D01*
X164965903Y-120242777D01*
X164941500Y-120365458D01*
X164655500Y-120365458D01*
X164655500Y-118705934D01*
X166295362Y-117066072D01*
X169376500Y-117066072D01*
X169500982Y-117053812D01*
X169620680Y-117017502D01*
X169730994Y-116958537D01*
X169827685Y-116879185D01*
X169907037Y-116782494D01*
X169966002Y-116672180D01*
X170002312Y-116552482D01*
X170014572Y-116428000D01*
X170014572Y-112928000D01*
X170002312Y-112803518D01*
X169966002Y-112683820D01*
X169907037Y-112573506D01*
X169827685Y-112476815D01*
X169730994Y-112397463D01*
X169620680Y-112338498D01*
X169500982Y-112302188D01*
X169376500Y-112289928D01*
X166305861Y-112289928D01*
X166027934Y-112012000D01*
X169862500Y-112012000D01*
X169932368Y-112005149D01*
X170002298Y-111999032D01*
X170006139Y-111997916D01*
X170010118Y-111997526D01*
X170077314Y-111977238D01*
X170144735Y-111957651D01*
X170148286Y-111955811D01*
X170152113Y-111954655D01*
X170214094Y-111921699D01*
X170276422Y-111889392D01*
X170279547Y-111886898D01*
X170283078Y-111885020D01*
X170337479Y-111840651D01*
X170392343Y-111796855D01*
X170397906Y-111791369D01*
X170398022Y-111791274D01*
X170398111Y-111791166D01*
X170399898Y-111789404D01*
X170569399Y-111619905D01*
X170613984Y-111565627D01*
X170659087Y-111511876D01*
X170661009Y-111508379D01*
X170663547Y-111505290D01*
X170696739Y-111443388D01*
X170706679Y-111425307D01*
X170782518Y-111448312D01*
X170907000Y-111460572D01*
X171607000Y-111460572D01*
X171731482Y-111448312D01*
X171851180Y-111412002D01*
X171961494Y-111353037D01*
X172058185Y-111273685D01*
X172137537Y-111176994D01*
X172196502Y-111066680D01*
X172217336Y-110998000D01*
X175235566Y-110998000D01*
X176022000Y-111784433D01*
X176022000Y-135611194D01*
X175920195Y-135543170D01*
X175804633Y-135495303D01*
X175681952Y-135470900D01*
X174105570Y-135470900D01*
X173946820Y-135629650D01*
X173946820Y-136779000D01*
X173966820Y-136779000D01*
X173966820Y-137033000D01*
X173946820Y-137033000D01*
X173946820Y-138182350D01*
X174105570Y-138341100D01*
X175681952Y-138341100D01*
X175804633Y-138316697D01*
X175920195Y-138268830D01*
X176022000Y-138200806D01*
X176022000Y-149581567D01*
X175338065Y-150265501D01*
X155956000Y-150265501D01*
X155956000Y-148560000D01*
X155948561Y-148484138D01*
X155941913Y-148408148D01*
X155940701Y-148403977D01*
X155940278Y-148399660D01*
X155918240Y-148326666D01*
X155896965Y-148253436D01*
X155894968Y-148249584D01*
X155893713Y-148245426D01*
X155857923Y-148178116D01*
X155822823Y-148110400D01*
X155820112Y-148107004D01*
X155818076Y-148103175D01*
X155769903Y-148044108D01*
X155722310Y-147984490D01*
X155716353Y-147978449D01*
X155716251Y-147978324D01*
X155716135Y-147978228D01*
X155714217Y-147976283D01*
X154474217Y-146736283D01*
X154415274Y-146687867D01*
X154356880Y-146638869D01*
X154353075Y-146636777D01*
X154349722Y-146634023D01*
X154282523Y-146597991D01*
X154215699Y-146561254D01*
X154211563Y-146559942D01*
X154207736Y-146557890D01*
X154134805Y-146535593D01*
X154132035Y-146534714D01*
X154099002Y-146425820D01*
X154040037Y-146315506D01*
X153960685Y-146218815D01*
X153863994Y-146139463D01*
X153753680Y-146080498D01*
X153633982Y-146044188D01*
X153509500Y-146031928D01*
X152809500Y-146031928D01*
X152685018Y-146044188D01*
X152565320Y-146080498D01*
X152455006Y-146139463D01*
X152358315Y-146218815D01*
X152278963Y-146315506D01*
X152219998Y-146425820D01*
X152209500Y-146460427D01*
X152199002Y-146425820D01*
X152140037Y-146315506D01*
X152060685Y-146218815D01*
X151963994Y-146139463D01*
X151853680Y-146080498D01*
X151733982Y-146044188D01*
X151609500Y-146031928D01*
X151419500Y-146031928D01*
X151419500Y-143919300D01*
X151571802Y-143766998D01*
X156205002Y-143766998D01*
X156274879Y-143760147D01*
X156344805Y-143754029D01*
X156348643Y-143752914D01*
X156352620Y-143752524D01*
X156419823Y-143732234D01*
X156487242Y-143712647D01*
X156490790Y-143710808D01*
X156494615Y-143709653D01*
X156556593Y-143676699D01*
X156618927Y-143644388D01*
X156622050Y-143641895D01*
X156625580Y-143640018D01*
X156679989Y-143595643D01*
X156734848Y-143551850D01*
X156740408Y-143546367D01*
X156740524Y-143546272D01*
X156740613Y-143546164D01*
X156742403Y-143544399D01*
X159541401Y-140745401D01*
X159585968Y-140691145D01*
X159631086Y-140637375D01*
X159633011Y-140633874D01*
X159635548Y-140630785D01*
X159668713Y-140568933D01*
X159702543Y-140507396D01*
X159703752Y-140503584D01*
X159705639Y-140500065D01*
X159726152Y-140432969D01*
X159747392Y-140366013D01*
X159747838Y-140362041D01*
X159749006Y-140358219D01*
X159756103Y-140288351D01*
X159763926Y-140218611D01*
X159763980Y-140210806D01*
X159763996Y-140210653D01*
X159763982Y-140210510D01*
X159764000Y-140208000D01*
X159764000Y-131124802D01*
X160811401Y-130077401D01*
X160855968Y-130023145D01*
X160901086Y-129969375D01*
X160903011Y-129965874D01*
X160905548Y-129962785D01*
X160938713Y-129900933D01*
X160972543Y-129839396D01*
X160973752Y-129835584D01*
X160975639Y-129832065D01*
X160996152Y-129764969D01*
X161017392Y-129698013D01*
X161017838Y-129694041D01*
X161019006Y-129690219D01*
X161026104Y-129620343D01*
X161033926Y-129550611D01*
X161033981Y-129542796D01*
X161033995Y-129542653D01*
X161033982Y-129542520D01*
X161034000Y-129540000D01*
X161034000Y-118110000D01*
X161027144Y-118040073D01*
X161021030Y-117970197D01*
X161019916Y-117966364D01*
X161019526Y-117962382D01*
X160999224Y-117895138D01*
X160979649Y-117827760D01*
X160977810Y-117824212D01*
X160976655Y-117820387D01*
X160943691Y-117758390D01*
X160911389Y-117696074D01*
X160908897Y-117692953D01*
X160907020Y-117689422D01*
X160862641Y-117635007D01*
X160818852Y-117580154D01*
X160813369Y-117574594D01*
X160813274Y-117574478D01*
X160813166Y-117574389D01*
X160811401Y-117572599D01*
X158494000Y-115255198D01*
X158494000Y-113708998D01*
X158487148Y-113639117D01*
X158481031Y-113569195D01*
X158479916Y-113565357D01*
X158479526Y-113561380D01*
X158459246Y-113494210D01*
X158439650Y-113426759D01*
X158437809Y-113423208D01*
X158436655Y-113419385D01*
X158403710Y-113357424D01*
X158371390Y-113295073D01*
X158368897Y-113291950D01*
X158367020Y-113288420D01*
X158322625Y-113233987D01*
X158278852Y-113179153D01*
X158273370Y-113173594D01*
X158273274Y-113173476D01*
X158273165Y-113173386D01*
X158271401Y-113171597D01*
X157836404Y-112736600D01*
X157782148Y-112692033D01*
X157728378Y-112646915D01*
X157724877Y-112644990D01*
X157721788Y-112642453D01*
X157697072Y-112629200D01*
X157697072Y-112349000D01*
X157684812Y-112224518D01*
X157648502Y-112104820D01*
X157599957Y-112014000D01*
X157648502Y-111923180D01*
X157684812Y-111803482D01*
X157697072Y-111679000D01*
X157697072Y-111079000D01*
X157684812Y-110954518D01*
X157648502Y-110834820D01*
X157599957Y-110744000D01*
X157648502Y-110653180D01*
X157684812Y-110533482D01*
X157697072Y-110409000D01*
X157697072Y-110046750D01*
X161625000Y-110046750D01*
X161625000Y-110598542D01*
X161649403Y-110721223D01*
X161697270Y-110836785D01*
X161766763Y-110940789D01*
X161855211Y-111029237D01*
X161959215Y-111098730D01*
X162074777Y-111146597D01*
X162197458Y-111171000D01*
X162274250Y-111171000D01*
X162433000Y-111012250D01*
X162433000Y-109888000D01*
X161783750Y-109888000D01*
X161625000Y-110046750D01*
X157697072Y-110046750D01*
X157697072Y-109809000D01*
X157684812Y-109684518D01*
X157648502Y-109564820D01*
X157599957Y-109474000D01*
X157648502Y-109383180D01*
X157660084Y-109345000D01*
X157697126Y-109345000D01*
X157783644Y-109405131D01*
X157951671Y-109478540D01*
X158130757Y-109517915D01*
X158314079Y-109521755D01*
X158494657Y-109489914D01*
X158665610Y-109423606D01*
X158820429Y-109325355D01*
X158953215Y-109198904D01*
X159058911Y-109049070D01*
X159114837Y-108923458D01*
X161625000Y-108923458D01*
X161625000Y-109475250D01*
X161783750Y-109634000D01*
X162433000Y-109634000D01*
X162433000Y-108509750D01*
X162274250Y-108351000D01*
X162197458Y-108351000D01*
X162074777Y-108375403D01*
X161959215Y-108423270D01*
X161855211Y-108492763D01*
X161766763Y-108581211D01*
X161697270Y-108685215D01*
X161649403Y-108800777D01*
X161625000Y-108923458D01*
X159114837Y-108923458D01*
X159133492Y-108881560D01*
X159174116Y-108702754D01*
X159177040Y-108493319D01*
X159141425Y-108313448D01*
X159071550Y-108143920D01*
X158970079Y-107991193D01*
X158840875Y-107861084D01*
X158823463Y-107849340D01*
X159246693Y-107426110D01*
X159267403Y-107530223D01*
X159315270Y-107645785D01*
X159384763Y-107749789D01*
X159473211Y-107838237D01*
X159577215Y-107907730D01*
X159692777Y-107955597D01*
X159815458Y-107980000D01*
X160242250Y-107980000D01*
X160401000Y-107821250D01*
X160401000Y-107122000D01*
X160381000Y-107122000D01*
X160381000Y-106980012D01*
X160675000Y-106980012D01*
X160675000Y-107122000D01*
G36*
X139433099Y-147884901D02*
X139487355Y-147929468D01*
X139541125Y-147974586D01*
X139544626Y-147976511D01*
X139547715Y-147979048D01*
X139582445Y-147997670D01*
X139594688Y-148121982D01*
X139630998Y-148241680D01*
X139689963Y-148351994D01*
X139769315Y-148448685D01*
X139866006Y-148528037D01*
X139976320Y-148587002D01*
X140096018Y-148623312D01*
X140220500Y-148635572D01*
X141770500Y-148635572D01*
X141894982Y-148623312D01*
X142014680Y-148587002D01*
X142124994Y-148528037D01*
X142221685Y-148448685D01*
X142301037Y-148351994D01*
X142360002Y-148241680D01*
X142396312Y-148121982D01*
X142397738Y-148107500D01*
X147543262Y-148107500D01*
X147544688Y-148121982D01*
X147580998Y-148241680D01*
X147639963Y-148351994D01*
X147719315Y-148448685D01*
X147816006Y-148528037D01*
X147926320Y-148587002D01*
X148046018Y-148623312D01*
X148170500Y-148635572D01*
X149720500Y-148635572D01*
X149844982Y-148623312D01*
X149964680Y-148587002D01*
X150074994Y-148528037D01*
X150171685Y-148448685D01*
X150251037Y-148351994D01*
X150310002Y-148241680D01*
X150319171Y-148211454D01*
X150319998Y-148214180D01*
X150378963Y-148324494D01*
X150458315Y-148421185D01*
X150555006Y-148500537D01*
X150665320Y-148559502D01*
X150785018Y-148595812D01*
X150909500Y-148608072D01*
X151609500Y-148608072D01*
X151733982Y-148595812D01*
X151853680Y-148559502D01*
X151963994Y-148500537D01*
X152060685Y-148421185D01*
X152140037Y-148324494D01*
X152199002Y-148214180D01*
X152209500Y-148179573D01*
X152219998Y-148214180D01*
X152278963Y-148324494D01*
X152358315Y-148421185D01*
X152455006Y-148500537D01*
X152565320Y-148559502D01*
X152685018Y-148595812D01*
X152809500Y-148608072D01*
X153509500Y-148608072D01*
X153633982Y-148595812D01*
X153753680Y-148559502D01*
X153863994Y-148500537D01*
X153885749Y-148482683D01*
X154305000Y-148901934D01*
X154305000Y-150265501D01*
X131318000Y-150265501D01*
X131318000Y-147975162D01*
X131367458Y-147985000D01*
X131794250Y-147985000D01*
X131953000Y-147826250D01*
X131953000Y-147127000D01*
X132207000Y-147127000D01*
X132207000Y-147826250D01*
X132365750Y-147985000D01*
X132792542Y-147985000D01*
X132915223Y-147960597D01*
X133030785Y-147912730D01*
X133134789Y-147843237D01*
X133223237Y-147754789D01*
X133292730Y-147650785D01*
X133340597Y-147535223D01*
X133365000Y-147412542D01*
X133365000Y-147285750D01*
X133206250Y-147127000D01*
X132207000Y-147127000D01*
X131953000Y-147127000D01*
X131933000Y-147127000D01*
X131933000Y-146873000D01*
X131953000Y-146873000D01*
X131953000Y-146853000D01*
X132207000Y-146853000D01*
X132207000Y-146873000D01*
X133206250Y-146873000D01*
X133365000Y-146714250D01*
X133365000Y-146587458D01*
X133340597Y-146464777D01*
X133292730Y-146349215D01*
X133223237Y-146245211D01*
X133134789Y-146156763D01*
X133030785Y-146087270D01*
X132940285Y-146049784D01*
X132974180Y-146039502D01*
X133084494Y-145980537D01*
X133181185Y-145901185D01*
X133260537Y-145804494D01*
X133319502Y-145694180D01*
X133355812Y-145574482D01*
X133368072Y-145450000D01*
X133368072Y-144750000D01*
X133355812Y-144625518D01*
X133319502Y-144505820D01*
X133260537Y-144395506D01*
X133181185Y-144298815D01*
X133084494Y-144219463D01*
X132974180Y-144160498D01*
X132854482Y-144124188D01*
X132730000Y-144111928D01*
X131430000Y-144111928D01*
X131305518Y-144124188D01*
X131255726Y-144139292D01*
X131155608Y-144039174D01*
X131130941Y-144008929D01*
X131082297Y-143948428D01*
X131080083Y-143946570D01*
X131078251Y-143944324D01*
X131018302Y-143894730D01*
X130958880Y-143844869D01*
X130956348Y-143843477D01*
X130954114Y-143841629D01*
X130885714Y-143804646D01*
X130817699Y-143767254D01*
X130814941Y-143766379D01*
X130812394Y-143765002D01*
X130738199Y-143742035D01*
X130664131Y-143718539D01*
X130661252Y-143718216D01*
X130658490Y-143717361D01*
X130581292Y-143709247D01*
X130504026Y-143700580D01*
X130498467Y-143700541D01*
X130498263Y-143700520D01*
X130498059Y-143700539D01*
X130492500Y-143700500D01*
X127231672Y-143700500D01*
X127231672Y-142198090D01*
X127227731Y-142158077D01*
X133706275Y-142158077D01*
X139433099Y-147884901D01*
X139433099Y-147884901D01*
G37*
X139433099Y-147884901D02*
X139487355Y-147929468D01*
X139541125Y-147974586D01*
X139544626Y-147976511D01*
X139547715Y-147979048D01*
X139582445Y-147997670D01*
X139594688Y-148121982D01*
X139630998Y-148241680D01*
X139689963Y-148351994D01*
X139769315Y-148448685D01*
X139866006Y-148528037D01*
X139976320Y-148587002D01*
X140096018Y-148623312D01*
X140220500Y-148635572D01*
X141770500Y-148635572D01*
X141894982Y-148623312D01*
X142014680Y-148587002D01*
X142124994Y-148528037D01*
X142221685Y-148448685D01*
X142301037Y-148351994D01*
X142360002Y-148241680D01*
X142396312Y-148121982D01*
X142397738Y-148107500D01*
X147543262Y-148107500D01*
X147544688Y-148121982D01*
X147580998Y-148241680D01*
X147639963Y-148351994D01*
X147719315Y-148448685D01*
X147816006Y-148528037D01*
X147926320Y-148587002D01*
X148046018Y-148623312D01*
X148170500Y-148635572D01*
X149720500Y-148635572D01*
X149844982Y-148623312D01*
X149964680Y-148587002D01*
X150074994Y-148528037D01*
X150171685Y-148448685D01*
X150251037Y-148351994D01*
X150310002Y-148241680D01*
X150319171Y-148211454D01*
X150319998Y-148214180D01*
X150378963Y-148324494D01*
X150458315Y-148421185D01*
X150555006Y-148500537D01*
X150665320Y-148559502D01*
X150785018Y-148595812D01*
X150909500Y-148608072D01*
X151609500Y-148608072D01*
X151733982Y-148595812D01*
X151853680Y-148559502D01*
X151963994Y-148500537D01*
X152060685Y-148421185D01*
X152140037Y-148324494D01*
X152199002Y-148214180D01*
X152209500Y-148179573D01*
X152219998Y-148214180D01*
X152278963Y-148324494D01*
X152358315Y-148421185D01*
X152455006Y-148500537D01*
X152565320Y-148559502D01*
X152685018Y-148595812D01*
X152809500Y-148608072D01*
X153509500Y-148608072D01*
X153633982Y-148595812D01*
X153753680Y-148559502D01*
X153863994Y-148500537D01*
X153885749Y-148482683D01*
X154305000Y-148901934D01*
X154305000Y-150265501D01*
X131318000Y-150265501D01*
X131318000Y-147975162D01*
X131367458Y-147985000D01*
X131794250Y-147985000D01*
X131953000Y-147826250D01*
X131953000Y-147127000D01*
X132207000Y-147127000D01*
X132207000Y-147826250D01*
X132365750Y-147985000D01*
X132792542Y-147985000D01*
X132915223Y-147960597D01*
X133030785Y-147912730D01*
X133134789Y-147843237D01*
X133223237Y-147754789D01*
X133292730Y-147650785D01*
X133340597Y-147535223D01*
X133365000Y-147412542D01*
X133365000Y-147285750D01*
X133206250Y-147127000D01*
X132207000Y-147127000D01*
X131953000Y-147127000D01*
X131933000Y-147127000D01*
X131933000Y-146873000D01*
X131953000Y-146873000D01*
X131953000Y-146853000D01*
X132207000Y-146853000D01*
X132207000Y-146873000D01*
X133206250Y-146873000D01*
X133365000Y-146714250D01*
X133365000Y-146587458D01*
X133340597Y-146464777D01*
X133292730Y-146349215D01*
X133223237Y-146245211D01*
X133134789Y-146156763D01*
X133030785Y-146087270D01*
X132940285Y-146049784D01*
X132974180Y-146039502D01*
X133084494Y-145980537D01*
X133181185Y-145901185D01*
X133260537Y-145804494D01*
X133319502Y-145694180D01*
X133355812Y-145574482D01*
X133368072Y-145450000D01*
X133368072Y-144750000D01*
X133355812Y-144625518D01*
X133319502Y-144505820D01*
X133260537Y-144395506D01*
X133181185Y-144298815D01*
X133084494Y-144219463D01*
X132974180Y-144160498D01*
X132854482Y-144124188D01*
X132730000Y-144111928D01*
X131430000Y-144111928D01*
X131305518Y-144124188D01*
X131255726Y-144139292D01*
X131155608Y-144039174D01*
X131130941Y-144008929D01*
X131082297Y-143948428D01*
X131080083Y-143946570D01*
X131078251Y-143944324D01*
X131018302Y-143894730D01*
X130958880Y-143844869D01*
X130956348Y-143843477D01*
X130954114Y-143841629D01*
X130885714Y-143804646D01*
X130817699Y-143767254D01*
X130814941Y-143766379D01*
X130812394Y-143765002D01*
X130738199Y-143742035D01*
X130664131Y-143718539D01*
X130661252Y-143718216D01*
X130658490Y-143717361D01*
X130581292Y-143709247D01*
X130504026Y-143700580D01*
X130498467Y-143700541D01*
X130498263Y-143700520D01*
X130498059Y-143700539D01*
X130492500Y-143700500D01*
X127231672Y-143700500D01*
X127231672Y-142198090D01*
X127227731Y-142158077D01*
X133706275Y-142158077D01*
X139433099Y-147884901D01*
G36*
X117999750Y-145158500D02*
X118540089Y-145158500D01*
X118543887Y-145158926D01*
X118551692Y-145158980D01*
X118551845Y-145158996D01*
X118551988Y-145158982D01*
X118554498Y-145159000D01*
X119273000Y-145159000D01*
X119273000Y-145412500D01*
X119253000Y-145412500D01*
X119253000Y-146111750D01*
X119411750Y-146270500D01*
X119838542Y-146270500D01*
X119961223Y-146246097D01*
X120017000Y-146222994D01*
X120017000Y-146227700D01*
X118186072Y-148058628D01*
X118186072Y-147986500D01*
X118173812Y-147862018D01*
X118137502Y-147742320D01*
X118108000Y-147687127D01*
X118108000Y-147156996D01*
X118101149Y-147087119D01*
X118095031Y-147017193D01*
X118093916Y-147013355D01*
X118093526Y-147009378D01*
X118073236Y-146942175D01*
X118053649Y-146874756D01*
X118051810Y-146871208D01*
X118050655Y-146867383D01*
X118017691Y-146805386D01*
X117985389Y-146743070D01*
X117982897Y-146739949D01*
X117981020Y-146736418D01*
X117936641Y-146682003D01*
X117892852Y-146627150D01*
X117887369Y-146621590D01*
X117887274Y-146621474D01*
X117887166Y-146621385D01*
X117885401Y-146619595D01*
X117091421Y-145825615D01*
X117058902Y-145798904D01*
X117286556Y-145571250D01*
X117841000Y-145571250D01*
X117841000Y-145698042D01*
X117865403Y-145820723D01*
X117913270Y-145936285D01*
X117982763Y-146040289D01*
X118071211Y-146128737D01*
X118175215Y-146198230D01*
X118290777Y-146246097D01*
X118413458Y-146270500D01*
X118840250Y-146270500D01*
X118999000Y-146111750D01*
X118999000Y-145412500D01*
X117999750Y-145412500D01*
X117841000Y-145571250D01*
X117286556Y-145571250D01*
X117849528Y-145008278D01*
X117999750Y-145158500D01*
X117999750Y-145158500D01*
G37*
X117999750Y-145158500D02*
X118540089Y-145158500D01*
X118543887Y-145158926D01*
X118551692Y-145158980D01*
X118551845Y-145158996D01*
X118551988Y-145158982D01*
X118554498Y-145159000D01*
X119273000Y-145159000D01*
X119273000Y-145412500D01*
X119253000Y-145412500D01*
X119253000Y-146111750D01*
X119411750Y-146270500D01*
X119838542Y-146270500D01*
X119961223Y-146246097D01*
X120017000Y-146222994D01*
X120017000Y-146227700D01*
X118186072Y-148058628D01*
X118186072Y-147986500D01*
X118173812Y-147862018D01*
X118137502Y-147742320D01*
X118108000Y-147687127D01*
X118108000Y-147156996D01*
X118101149Y-147087119D01*
X118095031Y-147017193D01*
X118093916Y-147013355D01*
X118093526Y-147009378D01*
X118073236Y-146942175D01*
X118053649Y-146874756D01*
X118051810Y-146871208D01*
X118050655Y-146867383D01*
X118017691Y-146805386D01*
X117985389Y-146743070D01*
X117982897Y-146739949D01*
X117981020Y-146736418D01*
X117936641Y-146682003D01*
X117892852Y-146627150D01*
X117887369Y-146621590D01*
X117887274Y-146621474D01*
X117887166Y-146621385D01*
X117885401Y-146619595D01*
X117091421Y-145825615D01*
X117058902Y-145798904D01*
X117286556Y-145571250D01*
X117841000Y-145571250D01*
X117841000Y-145698042D01*
X117865403Y-145820723D01*
X117913270Y-145936285D01*
X117982763Y-146040289D01*
X118071211Y-146128737D01*
X118175215Y-146198230D01*
X118290777Y-146246097D01*
X118413458Y-146270500D01*
X118840250Y-146270500D01*
X118999000Y-146111750D01*
X118999000Y-145412500D01*
X117999750Y-145412500D01*
X117841000Y-145571250D01*
X117286556Y-145571250D01*
X117849528Y-145008278D01*
X117999750Y-145158500D01*
G36*
X129358688Y-112265482D02*
X129394998Y-112385180D01*
X129453963Y-112495494D01*
X129495081Y-112545597D01*
X129513264Y-112605821D01*
X129532851Y-112673240D01*
X129534690Y-112676788D01*
X129535845Y-112680613D01*
X129568799Y-112742591D01*
X129601110Y-112804925D01*
X129603603Y-112808048D01*
X129605480Y-112811578D01*
X129649855Y-112865987D01*
X129693648Y-112920846D01*
X129699131Y-112926406D01*
X129699226Y-112926522D01*
X129699334Y-112926611D01*
X129701099Y-112928401D01*
X130911599Y-114138901D01*
X130965860Y-114183472D01*
X131019625Y-114228586D01*
X131023126Y-114230510D01*
X131026216Y-114233049D01*
X131088101Y-114266231D01*
X131111040Y-114278842D01*
X134336599Y-117504401D01*
X134390855Y-117548968D01*
X134444625Y-117594086D01*
X134448126Y-117596011D01*
X134451215Y-117598548D01*
X134513102Y-117631732D01*
X134574604Y-117665543D01*
X134578412Y-117666751D01*
X134581935Y-117668640D01*
X134649077Y-117689167D01*
X134715987Y-117710392D01*
X134719959Y-117710838D01*
X134723781Y-117712006D01*
X134793649Y-117719103D01*
X134863389Y-117726926D01*
X134871194Y-117726980D01*
X134871347Y-117726996D01*
X134871490Y-117726982D01*
X134874000Y-117727000D01*
X135257000Y-117727000D01*
X135257000Y-123914922D01*
X135193689Y-124007385D01*
X135121454Y-124175920D01*
X135083331Y-124355276D01*
X135080771Y-124538621D01*
X135113872Y-124718972D01*
X135181372Y-124889458D01*
X135257004Y-125006816D01*
X135257004Y-131788918D01*
X135193693Y-131881381D01*
X135121458Y-132049916D01*
X135083335Y-132229272D01*
X135080775Y-132412617D01*
X135113876Y-132592968D01*
X135181376Y-132763454D01*
X135257000Y-132880800D01*
X135257000Y-139408916D01*
X135193689Y-139501379D01*
X135121454Y-139669914D01*
X135083331Y-139849270D01*
X135080771Y-140032615D01*
X135113872Y-140212966D01*
X135181372Y-140383452D01*
X135280701Y-140537581D01*
X135408076Y-140669482D01*
X135558644Y-140774129D01*
X135726671Y-140847538D01*
X135905757Y-140886913D01*
X136089079Y-140890753D01*
X136269657Y-140858912D01*
X136440610Y-140792604D01*
X136595429Y-140694353D01*
X136728215Y-140567902D01*
X136833911Y-140418068D01*
X136908492Y-140250558D01*
X136949116Y-140071752D01*
X136952040Y-139862317D01*
X136916425Y-139682446D01*
X136846550Y-139512918D01*
X136777000Y-139408236D01*
X136777000Y-132878752D01*
X136833915Y-132798070D01*
X136908496Y-132630560D01*
X136949120Y-132451754D01*
X136952044Y-132242319D01*
X136916429Y-132062448D01*
X136846554Y-131892920D01*
X136777004Y-131788238D01*
X136777004Y-125004745D01*
X136833911Y-124924074D01*
X136908492Y-124756564D01*
X136949116Y-124577758D01*
X136952040Y-124368323D01*
X136916425Y-124188452D01*
X136846550Y-124018924D01*
X136777000Y-123914242D01*
X136777000Y-117511747D01*
X136833911Y-117431070D01*
X136908492Y-117263560D01*
X136949116Y-117084754D01*
X136952040Y-116875319D01*
X136916425Y-116695448D01*
X136846550Y-116525920D01*
X136745079Y-116373193D01*
X136615875Y-116243084D01*
X136463860Y-116140549D01*
X136294825Y-116069493D01*
X136115207Y-116032623D01*
X135931849Y-116031343D01*
X135751733Y-116065701D01*
X135581722Y-116134390D01*
X135470763Y-116207000D01*
X135188802Y-116207000D01*
X132268500Y-113286698D01*
X132268500Y-112955802D01*
X132562599Y-113249901D01*
X132616855Y-113294468D01*
X132670625Y-113339586D01*
X132674126Y-113341511D01*
X132677215Y-113344048D01*
X132739102Y-113377232D01*
X132800604Y-113411043D01*
X132804412Y-113412251D01*
X132807935Y-113414140D01*
X132875118Y-113434680D01*
X132941987Y-113455892D01*
X132945954Y-113456337D01*
X132949781Y-113457507D01*
X133019699Y-113464609D01*
X133089389Y-113472426D01*
X133097194Y-113472480D01*
X133097347Y-113472496D01*
X133097490Y-113472482D01*
X133100000Y-113472500D01*
X135380698Y-113472500D01*
X142369000Y-120460802D01*
X142369000Y-122809000D01*
X142375851Y-122878877D01*
X142381969Y-122948803D01*
X142383084Y-122952641D01*
X142383474Y-122956618D01*
X142403764Y-123023821D01*
X142423351Y-123091240D01*
X142425190Y-123094788D01*
X142426345Y-123098613D01*
X142459299Y-123160591D01*
X142491610Y-123222925D01*
X142494103Y-123226048D01*
X142495980Y-123229578D01*
X142540355Y-123283987D01*
X142584148Y-123338846D01*
X142589631Y-123344406D01*
X142589726Y-123344522D01*
X142589834Y-123344611D01*
X142591599Y-123346401D01*
X143984250Y-124739052D01*
X144003872Y-124845962D01*
X144071372Y-125016448D01*
X144147000Y-125133800D01*
X144147000Y-131661918D01*
X144083689Y-131754381D01*
X144011454Y-131922916D01*
X143973331Y-132102272D01*
X143970771Y-132285617D01*
X144003872Y-132465968D01*
X144071372Y-132636454D01*
X144147000Y-132753806D01*
X144147000Y-139281918D01*
X144083689Y-139374381D01*
X144011454Y-139542916D01*
X143973331Y-139722272D01*
X143970771Y-139905617D01*
X144003872Y-140085968D01*
X144071372Y-140256454D01*
X144170701Y-140410583D01*
X144298076Y-140542484D01*
X144448644Y-140647131D01*
X144616671Y-140720540D01*
X144795757Y-140759915D01*
X144979079Y-140763755D01*
X145159657Y-140731914D01*
X145330610Y-140665606D01*
X145485429Y-140567355D01*
X145618215Y-140440904D01*
X145723911Y-140291070D01*
X145798492Y-140123560D01*
X145839116Y-139944754D01*
X145842040Y-139735319D01*
X145806425Y-139555448D01*
X145736550Y-139385920D01*
X145667000Y-139281238D01*
X145667000Y-132751747D01*
X145723911Y-132671070D01*
X145798492Y-132503560D01*
X145839116Y-132324754D01*
X145842040Y-132115319D01*
X145806425Y-131935448D01*
X145736550Y-131765920D01*
X145667000Y-131661238D01*
X145667000Y-125131741D01*
X145723911Y-125051064D01*
X145798492Y-124883554D01*
X145839116Y-124704748D01*
X145842040Y-124495313D01*
X145806425Y-124315442D01*
X145736550Y-124145914D01*
X145635079Y-123993187D01*
X145543166Y-123900630D01*
X145642494Y-123847537D01*
X145672393Y-123823000D01*
X145845998Y-123823000D01*
X145915875Y-123816149D01*
X145985801Y-123810031D01*
X145989639Y-123808916D01*
X145993616Y-123808526D01*
X146060819Y-123788236D01*
X146128238Y-123768649D01*
X146131786Y-123766810D01*
X146135611Y-123765655D01*
X146197589Y-123732701D01*
X146259923Y-123700390D01*
X146263046Y-123697897D01*
X146266576Y-123696020D01*
X146320985Y-123651645D01*
X146375844Y-123607852D01*
X146381404Y-123602369D01*
X146381520Y-123602274D01*
X146381609Y-123602166D01*
X146383399Y-123600401D01*
X149409999Y-120573801D01*
X149409999Y-123577001D01*
X149416850Y-123646878D01*
X149422968Y-123716804D01*
X149424083Y-123720642D01*
X149424473Y-123724619D01*
X149444763Y-123791822D01*
X149464350Y-123859241D01*
X149466189Y-123862789D01*
X149467344Y-123866614D01*
X149500298Y-123928592D01*
X149532609Y-123990926D01*
X149535102Y-123994049D01*
X149536979Y-123997579D01*
X149581354Y-124051988D01*
X149625147Y-124106847D01*
X149630630Y-124112407D01*
X149630725Y-124112523D01*
X149630833Y-124112612D01*
X149632598Y-124114402D01*
X150769603Y-125251407D01*
X150823859Y-125295974D01*
X150877629Y-125341092D01*
X150881130Y-125343017D01*
X150884219Y-125345554D01*
X150946106Y-125378738D01*
X151007608Y-125412549D01*
X151011416Y-125413757D01*
X151014939Y-125415646D01*
X151082081Y-125436173D01*
X151148991Y-125457398D01*
X151152963Y-125457844D01*
X151156785Y-125459012D01*
X151226653Y-125466109D01*
X151296393Y-125473932D01*
X151304198Y-125473986D01*
X151304351Y-125474002D01*
X151304494Y-125473988D01*
X151307004Y-125474006D01*
X155704000Y-125474006D01*
X155704000Y-131661918D01*
X155640689Y-131754381D01*
X155568454Y-131922916D01*
X155530331Y-132102272D01*
X155527771Y-132285617D01*
X155560872Y-132465968D01*
X155577000Y-132506703D01*
X155577000Y-139408918D01*
X155513689Y-139501381D01*
X155441454Y-139669916D01*
X155403331Y-139849272D01*
X155400771Y-140032617D01*
X155433872Y-140212968D01*
X155501372Y-140383454D01*
X155600701Y-140537583D01*
X155728076Y-140669484D01*
X155878644Y-140774131D01*
X156046671Y-140847540D01*
X156225757Y-140886915D01*
X156409079Y-140890755D01*
X156589657Y-140858914D01*
X156760610Y-140792606D01*
X156915429Y-140694355D01*
X157048215Y-140567904D01*
X157153911Y-140418070D01*
X157228492Y-140250560D01*
X157269116Y-140071754D01*
X157272040Y-139862319D01*
X157236425Y-139682448D01*
X157166550Y-139512920D01*
X157097000Y-139408238D01*
X157097000Y-132895387D01*
X157175215Y-132820904D01*
X157280911Y-132671070D01*
X157355492Y-132503560D01*
X157396116Y-132324754D01*
X157399040Y-132115319D01*
X157363425Y-131935448D01*
X157293550Y-131765920D01*
X157224000Y-131661238D01*
X157224000Y-125020655D01*
X157228492Y-125010566D01*
X157269116Y-124831760D01*
X157272040Y-124622325D01*
X157236425Y-124442454D01*
X157166550Y-124272926D01*
X157097000Y-124168244D01*
X157097000Y-120075802D01*
X157794802Y-119378000D01*
X158332126Y-119378000D01*
X158418644Y-119438131D01*
X158586671Y-119511540D01*
X158752000Y-119547890D01*
X158752000Y-128740918D01*
X158688689Y-128833381D01*
X158616454Y-129001916D01*
X158578331Y-129181272D01*
X158575771Y-129364617D01*
X158608872Y-129544968D01*
X158676372Y-129715454D01*
X158775701Y-129869583D01*
X158821838Y-129917360D01*
X158466599Y-130272599D01*
X158422032Y-130326855D01*
X158376914Y-130380625D01*
X158374989Y-130384126D01*
X158372452Y-130387215D01*
X158339287Y-130449067D01*
X158305457Y-130510604D01*
X158304248Y-130514416D01*
X158302361Y-130517935D01*
X158281848Y-130585031D01*
X158260608Y-130651987D01*
X158260162Y-130655959D01*
X158258994Y-130659781D01*
X158251897Y-130729649D01*
X158244074Y-130799389D01*
X158244020Y-130807194D01*
X158244004Y-130807347D01*
X158244018Y-130807490D01*
X158244000Y-130810000D01*
X158244000Y-139893198D01*
X155890200Y-142246998D01*
X151257000Y-142246998D01*
X151187119Y-142253850D01*
X151117197Y-142259967D01*
X151113359Y-142261082D01*
X151109382Y-142261472D01*
X151042212Y-142281752D01*
X150974761Y-142301348D01*
X150971210Y-142303189D01*
X150967387Y-142304343D01*
X150905426Y-142337288D01*
X150843075Y-142369608D01*
X150839952Y-142372101D01*
X150836422Y-142373978D01*
X150781989Y-142418373D01*
X150727155Y-142462146D01*
X150721596Y-142467628D01*
X150721478Y-142467724D01*
X150721388Y-142467833D01*
X150719599Y-142469597D01*
X150355500Y-142833696D01*
X150355500Y-142720498D01*
X150196752Y-142720498D01*
X150355500Y-142561750D01*
X150355500Y-142134958D01*
X150331097Y-142012277D01*
X150283230Y-141896715D01*
X150213737Y-141792711D01*
X150125289Y-141704263D01*
X150021285Y-141634770D01*
X149905723Y-141586903D01*
X149783042Y-141562500D01*
X149231250Y-141562500D01*
X149072500Y-141721250D01*
X149072500Y-142720500D01*
X149092500Y-142720500D01*
X149092500Y-142974500D01*
X149072500Y-142974500D01*
X149072500Y-143973750D01*
X149231250Y-144132500D01*
X149783042Y-144132500D01*
X149899500Y-144109335D01*
X149899500Y-146088226D01*
X149844982Y-146071688D01*
X149720500Y-146059428D01*
X148170500Y-146059428D01*
X148046018Y-146071688D01*
X147926320Y-146107998D01*
X147816006Y-146166963D01*
X147719315Y-146246315D01*
X147639963Y-146343006D01*
X147580998Y-146453320D01*
X147544688Y-146573018D01*
X147543262Y-146587500D01*
X142397738Y-146587500D01*
X142396312Y-146573018D01*
X142360002Y-146453320D01*
X142301037Y-146343006D01*
X142221685Y-146246315D01*
X142124994Y-146166963D01*
X142014680Y-146107998D01*
X141894982Y-146071688D01*
X141770500Y-146059428D01*
X140220500Y-146059428D01*
X140096018Y-146071688D01*
X139976320Y-146107998D01*
X139866006Y-146166963D01*
X139865324Y-146167522D01*
X136831052Y-143133250D01*
X139585500Y-143133250D01*
X139585500Y-143560042D01*
X139609903Y-143682723D01*
X139657770Y-143798285D01*
X139727263Y-143902289D01*
X139815711Y-143990737D01*
X139919715Y-144060230D01*
X140035277Y-144108097D01*
X140157958Y-144132500D01*
X140709750Y-144132500D01*
X140868500Y-143973750D01*
X140868500Y-142974500D01*
X141122500Y-142974500D01*
X141122500Y-143973750D01*
X141281250Y-144132500D01*
X141833042Y-144132500D01*
X141955723Y-144108097D01*
X142071285Y-144060230D01*
X142175289Y-143990737D01*
X142263737Y-143902289D01*
X142333230Y-143798285D01*
X142381097Y-143682723D01*
X142405500Y-143560042D01*
X142405500Y-143133250D01*
X147535500Y-143133250D01*
X147535500Y-143560042D01*
X147559903Y-143682723D01*
X147607770Y-143798285D01*
X147677263Y-143902289D01*
X147765711Y-143990737D01*
X147869715Y-144060230D01*
X147985277Y-144108097D01*
X148107958Y-144132500D01*
X148659750Y-144132500D01*
X148818500Y-143973750D01*
X148818500Y-142974500D01*
X147694250Y-142974500D01*
X147535500Y-143133250D01*
X142405500Y-143133250D01*
X142246750Y-142974500D01*
X141122500Y-142974500D01*
X140868500Y-142974500D01*
X139744250Y-142974500D01*
X139585500Y-143133250D01*
X136831052Y-143133250D01*
X135832760Y-142134958D01*
X139585500Y-142134958D01*
X139585500Y-142561750D01*
X139744250Y-142720500D01*
X140868500Y-142720500D01*
X140868500Y-141721250D01*
X141122500Y-141721250D01*
X141122500Y-142720500D01*
X142246750Y-142720500D01*
X142405500Y-142561750D01*
X142405500Y-142134958D01*
X147535500Y-142134958D01*
X147535500Y-142561750D01*
X147694250Y-142720500D01*
X148818500Y-142720500D01*
X148818500Y-141721250D01*
X148659750Y-141562500D01*
X148107958Y-141562500D01*
X147985277Y-141586903D01*
X147869715Y-141634770D01*
X147765711Y-141704263D01*
X147677263Y-141792711D01*
X147607770Y-141896715D01*
X147559903Y-142012277D01*
X147535500Y-142134958D01*
X142405500Y-142134958D01*
X142381097Y-142012277D01*
X142333230Y-141896715D01*
X142263737Y-141792711D01*
X142175289Y-141704263D01*
X142071285Y-141634770D01*
X141955723Y-141586903D01*
X141833042Y-141562500D01*
X141281250Y-141562500D01*
X141122500Y-141721250D01*
X140868500Y-141721250D01*
X140709750Y-141562500D01*
X140157958Y-141562500D01*
X140035277Y-141586903D01*
X139919715Y-141634770D01*
X139815711Y-141704263D01*
X139727263Y-141792711D01*
X139657770Y-141896715D01*
X139609903Y-142012277D01*
X139585500Y-142134958D01*
X135832760Y-142134958D01*
X134558478Y-140860676D01*
X134504222Y-140816109D01*
X134450452Y-140770991D01*
X134446951Y-140769066D01*
X134443862Y-140766529D01*
X134382010Y-140733364D01*
X134320473Y-140699534D01*
X134316661Y-140698325D01*
X134313142Y-140696438D01*
X134246046Y-140675925D01*
X134179090Y-140654685D01*
X134175118Y-140654239D01*
X134171296Y-140653071D01*
X134101428Y-140645974D01*
X134031688Y-140638151D01*
X134023883Y-140638097D01*
X134023730Y-140638081D01*
X134023587Y-140638095D01*
X134021077Y-140638077D01*
X126503135Y-140638077D01*
X127918401Y-139222811D01*
X127962968Y-139168555D01*
X128008086Y-139114785D01*
X128010011Y-139111284D01*
X128012548Y-139108195D01*
X128045713Y-139046343D01*
X128079543Y-138984806D01*
X128080752Y-138980994D01*
X128082639Y-138977475D01*
X128103152Y-138910379D01*
X128124392Y-138843423D01*
X128124838Y-138839451D01*
X128126006Y-138835629D01*
X128133098Y-138765805D01*
X128140926Y-138696021D01*
X128140981Y-138688206D01*
X128140995Y-138688063D01*
X128140982Y-138687930D01*
X128141000Y-138685410D01*
X128141000Y-113428538D01*
X129353790Y-112215748D01*
X129358688Y-112265482D01*
X129358688Y-112265482D01*
G37*
X129358688Y-112265482D02*
X129394998Y-112385180D01*
X129453963Y-112495494D01*
X129495081Y-112545597D01*
X129513264Y-112605821D01*
X129532851Y-112673240D01*
X129534690Y-112676788D01*
X129535845Y-112680613D01*
X129568799Y-112742591D01*
X129601110Y-112804925D01*
X129603603Y-112808048D01*
X129605480Y-112811578D01*
X129649855Y-112865987D01*
X129693648Y-112920846D01*
X129699131Y-112926406D01*
X129699226Y-112926522D01*
X129699334Y-112926611D01*
X129701099Y-112928401D01*
X130911599Y-114138901D01*
X130965860Y-114183472D01*
X131019625Y-114228586D01*
X131023126Y-114230510D01*
X131026216Y-114233049D01*
X131088101Y-114266231D01*
X131111040Y-114278842D01*
X134336599Y-117504401D01*
X134390855Y-117548968D01*
X134444625Y-117594086D01*
X134448126Y-117596011D01*
X134451215Y-117598548D01*
X134513102Y-117631732D01*
X134574604Y-117665543D01*
X134578412Y-117666751D01*
X134581935Y-117668640D01*
X134649077Y-117689167D01*
X134715987Y-117710392D01*
X134719959Y-117710838D01*
X134723781Y-117712006D01*
X134793649Y-117719103D01*
X134863389Y-117726926D01*
X134871194Y-117726980D01*
X134871347Y-117726996D01*
X134871490Y-117726982D01*
X134874000Y-117727000D01*
X135257000Y-117727000D01*
X135257000Y-123914922D01*
X135193689Y-124007385D01*
X135121454Y-124175920D01*
X135083331Y-124355276D01*
X135080771Y-124538621D01*
X135113872Y-124718972D01*
X135181372Y-124889458D01*
X135257004Y-125006816D01*
X135257004Y-131788918D01*
X135193693Y-131881381D01*
X135121458Y-132049916D01*
X135083335Y-132229272D01*
X135080775Y-132412617D01*
X135113876Y-132592968D01*
X135181376Y-132763454D01*
X135257000Y-132880800D01*
X135257000Y-139408916D01*
X135193689Y-139501379D01*
X135121454Y-139669914D01*
X135083331Y-139849270D01*
X135080771Y-140032615D01*
X135113872Y-140212966D01*
X135181372Y-140383452D01*
X135280701Y-140537581D01*
X135408076Y-140669482D01*
X135558644Y-140774129D01*
X135726671Y-140847538D01*
X135905757Y-140886913D01*
X136089079Y-140890753D01*
X136269657Y-140858912D01*
X136440610Y-140792604D01*
X136595429Y-140694353D01*
X136728215Y-140567902D01*
X136833911Y-140418068D01*
X136908492Y-140250558D01*
X136949116Y-140071752D01*
X136952040Y-139862317D01*
X136916425Y-139682446D01*
X136846550Y-139512918D01*
X136777000Y-139408236D01*
X136777000Y-132878752D01*
X136833915Y-132798070D01*
X136908496Y-132630560D01*
X136949120Y-132451754D01*
X136952044Y-132242319D01*
X136916429Y-132062448D01*
X136846554Y-131892920D01*
X136777004Y-131788238D01*
X136777004Y-125004745D01*
X136833911Y-124924074D01*
X136908492Y-124756564D01*
X136949116Y-124577758D01*
X136952040Y-124368323D01*
X136916425Y-124188452D01*
X136846550Y-124018924D01*
X136777000Y-123914242D01*
X136777000Y-117511747D01*
X136833911Y-117431070D01*
X136908492Y-117263560D01*
X136949116Y-117084754D01*
X136952040Y-116875319D01*
X136916425Y-116695448D01*
X136846550Y-116525920D01*
X136745079Y-116373193D01*
X136615875Y-116243084D01*
X136463860Y-116140549D01*
X136294825Y-116069493D01*
X136115207Y-116032623D01*
X135931849Y-116031343D01*
X135751733Y-116065701D01*
X135581722Y-116134390D01*
X135470763Y-116207000D01*
X135188802Y-116207000D01*
X132268500Y-113286698D01*
X132268500Y-112955802D01*
X132562599Y-113249901D01*
X132616855Y-113294468D01*
X132670625Y-113339586D01*
X132674126Y-113341511D01*
X132677215Y-113344048D01*
X132739102Y-113377232D01*
X132800604Y-113411043D01*
X132804412Y-113412251D01*
X132807935Y-113414140D01*
X132875118Y-113434680D01*
X132941987Y-113455892D01*
X132945954Y-113456337D01*
X132949781Y-113457507D01*
X133019699Y-113464609D01*
X133089389Y-113472426D01*
X133097194Y-113472480D01*
X133097347Y-113472496D01*
X133097490Y-113472482D01*
X133100000Y-113472500D01*
X135380698Y-113472500D01*
X142369000Y-120460802D01*
X142369000Y-122809000D01*
X142375851Y-122878877D01*
X142381969Y-122948803D01*
X142383084Y-122952641D01*
X142383474Y-122956618D01*
X142403764Y-123023821D01*
X142423351Y-123091240D01*
X142425190Y-123094788D01*
X142426345Y-123098613D01*
X142459299Y-123160591D01*
X142491610Y-123222925D01*
X142494103Y-123226048D01*
X142495980Y-123229578D01*
X142540355Y-123283987D01*
X142584148Y-123338846D01*
X142589631Y-123344406D01*
X142589726Y-123344522D01*
X142589834Y-123344611D01*
X142591599Y-123346401D01*
X143984250Y-124739052D01*
X144003872Y-124845962D01*
X144071372Y-125016448D01*
X144147000Y-125133800D01*
X144147000Y-131661918D01*
X144083689Y-131754381D01*
X144011454Y-131922916D01*
X143973331Y-132102272D01*
X143970771Y-132285617D01*
X144003872Y-132465968D01*
X144071372Y-132636454D01*
X144147000Y-132753806D01*
X144147000Y-139281918D01*
X144083689Y-139374381D01*
X144011454Y-139542916D01*
X143973331Y-139722272D01*
X143970771Y-139905617D01*
X144003872Y-140085968D01*
X144071372Y-140256454D01*
X144170701Y-140410583D01*
X144298076Y-140542484D01*
X144448644Y-140647131D01*
X144616671Y-140720540D01*
X144795757Y-140759915D01*
X144979079Y-140763755D01*
X145159657Y-140731914D01*
X145330610Y-140665606D01*
X145485429Y-140567355D01*
X145618215Y-140440904D01*
X145723911Y-140291070D01*
X145798492Y-140123560D01*
X145839116Y-139944754D01*
X145842040Y-139735319D01*
X145806425Y-139555448D01*
X145736550Y-139385920D01*
X145667000Y-139281238D01*
X145667000Y-132751747D01*
X145723911Y-132671070D01*
X145798492Y-132503560D01*
X145839116Y-132324754D01*
X145842040Y-132115319D01*
X145806425Y-131935448D01*
X145736550Y-131765920D01*
X145667000Y-131661238D01*
X145667000Y-125131741D01*
X145723911Y-125051064D01*
X145798492Y-124883554D01*
X145839116Y-124704748D01*
X145842040Y-124495313D01*
X145806425Y-124315442D01*
X145736550Y-124145914D01*
X145635079Y-123993187D01*
X145543166Y-123900630D01*
X145642494Y-123847537D01*
X145672393Y-123823000D01*
X145845998Y-123823000D01*
X145915875Y-123816149D01*
X145985801Y-123810031D01*
X145989639Y-123808916D01*
X145993616Y-123808526D01*
X146060819Y-123788236D01*
X146128238Y-123768649D01*
X146131786Y-123766810D01*
X146135611Y-123765655D01*
X146197589Y-123732701D01*
X146259923Y-123700390D01*
X146263046Y-123697897D01*
X146266576Y-123696020D01*
X146320985Y-123651645D01*
X146375844Y-123607852D01*
X146381404Y-123602369D01*
X146381520Y-123602274D01*
X146381609Y-123602166D01*
X146383399Y-123600401D01*
X149409999Y-120573801D01*
X149409999Y-123577001D01*
X149416850Y-123646878D01*
X149422968Y-123716804D01*
X149424083Y-123720642D01*
X149424473Y-123724619D01*
X149444763Y-123791822D01*
X149464350Y-123859241D01*
X149466189Y-123862789D01*
X149467344Y-123866614D01*
X149500298Y-123928592D01*
X149532609Y-123990926D01*
X149535102Y-123994049D01*
X149536979Y-123997579D01*
X149581354Y-124051988D01*
X149625147Y-124106847D01*
X149630630Y-124112407D01*
X149630725Y-124112523D01*
X149630833Y-124112612D01*
X149632598Y-124114402D01*
X150769603Y-125251407D01*
X150823859Y-125295974D01*
X150877629Y-125341092D01*
X150881130Y-125343017D01*
X150884219Y-125345554D01*
X150946106Y-125378738D01*
X151007608Y-125412549D01*
X151011416Y-125413757D01*
X151014939Y-125415646D01*
X151082081Y-125436173D01*
X151148991Y-125457398D01*
X151152963Y-125457844D01*
X151156785Y-125459012D01*
X151226653Y-125466109D01*
X151296393Y-125473932D01*
X151304198Y-125473986D01*
X151304351Y-125474002D01*
X151304494Y-125473988D01*
X151307004Y-125474006D01*
X155704000Y-125474006D01*
X155704000Y-131661918D01*
X155640689Y-131754381D01*
X155568454Y-131922916D01*
X155530331Y-132102272D01*
X155527771Y-132285617D01*
X155560872Y-132465968D01*
X155577000Y-132506703D01*
X155577000Y-139408918D01*
X155513689Y-139501381D01*
X155441454Y-139669916D01*
X155403331Y-139849272D01*
X155400771Y-140032617D01*
X155433872Y-140212968D01*
X155501372Y-140383454D01*
X155600701Y-140537583D01*
X155728076Y-140669484D01*
X155878644Y-140774131D01*
X156046671Y-140847540D01*
X156225757Y-140886915D01*
X156409079Y-140890755D01*
X156589657Y-140858914D01*
X156760610Y-140792606D01*
X156915429Y-140694355D01*
X157048215Y-140567904D01*
X157153911Y-140418070D01*
X157228492Y-140250560D01*
X157269116Y-140071754D01*
X157272040Y-139862319D01*
X157236425Y-139682448D01*
X157166550Y-139512920D01*
X157097000Y-139408238D01*
X157097000Y-132895387D01*
X157175215Y-132820904D01*
X157280911Y-132671070D01*
X157355492Y-132503560D01*
X157396116Y-132324754D01*
X157399040Y-132115319D01*
X157363425Y-131935448D01*
X157293550Y-131765920D01*
X157224000Y-131661238D01*
X157224000Y-125020655D01*
X157228492Y-125010566D01*
X157269116Y-124831760D01*
X157272040Y-124622325D01*
X157236425Y-124442454D01*
X157166550Y-124272926D01*
X157097000Y-124168244D01*
X157097000Y-120075802D01*
X157794802Y-119378000D01*
X158332126Y-119378000D01*
X158418644Y-119438131D01*
X158586671Y-119511540D01*
X158752000Y-119547890D01*
X158752000Y-128740918D01*
X158688689Y-128833381D01*
X158616454Y-129001916D01*
X158578331Y-129181272D01*
X158575771Y-129364617D01*
X158608872Y-129544968D01*
X158676372Y-129715454D01*
X158775701Y-129869583D01*
X158821838Y-129917360D01*
X158466599Y-130272599D01*
X158422032Y-130326855D01*
X158376914Y-130380625D01*
X158374989Y-130384126D01*
X158372452Y-130387215D01*
X158339287Y-130449067D01*
X158305457Y-130510604D01*
X158304248Y-130514416D01*
X158302361Y-130517935D01*
X158281848Y-130585031D01*
X158260608Y-130651987D01*
X158260162Y-130655959D01*
X158258994Y-130659781D01*
X158251897Y-130729649D01*
X158244074Y-130799389D01*
X158244020Y-130807194D01*
X158244004Y-130807347D01*
X158244018Y-130807490D01*
X158244000Y-130810000D01*
X158244000Y-139893198D01*
X155890200Y-142246998D01*
X151257000Y-142246998D01*
X151187119Y-142253850D01*
X151117197Y-142259967D01*
X151113359Y-142261082D01*
X151109382Y-142261472D01*
X151042212Y-142281752D01*
X150974761Y-142301348D01*
X150971210Y-142303189D01*
X150967387Y-142304343D01*
X150905426Y-142337288D01*
X150843075Y-142369608D01*
X150839952Y-142372101D01*
X150836422Y-142373978D01*
X150781989Y-142418373D01*
X150727155Y-142462146D01*
X150721596Y-142467628D01*
X150721478Y-142467724D01*
X150721388Y-142467833D01*
X150719599Y-142469597D01*
X150355500Y-142833696D01*
X150355500Y-142720498D01*
X150196752Y-142720498D01*
X150355500Y-142561750D01*
X150355500Y-142134958D01*
X150331097Y-142012277D01*
X150283230Y-141896715D01*
X150213737Y-141792711D01*
X150125289Y-141704263D01*
X150021285Y-141634770D01*
X149905723Y-141586903D01*
X149783042Y-141562500D01*
X149231250Y-141562500D01*
X149072500Y-141721250D01*
X149072500Y-142720500D01*
X149092500Y-142720500D01*
X149092500Y-142974500D01*
X149072500Y-142974500D01*
X149072500Y-143973750D01*
X149231250Y-144132500D01*
X149783042Y-144132500D01*
X149899500Y-144109335D01*
X149899500Y-146088226D01*
X149844982Y-146071688D01*
X149720500Y-146059428D01*
X148170500Y-146059428D01*
X148046018Y-146071688D01*
X147926320Y-146107998D01*
X147816006Y-146166963D01*
X147719315Y-146246315D01*
X147639963Y-146343006D01*
X147580998Y-146453320D01*
X147544688Y-146573018D01*
X147543262Y-146587500D01*
X142397738Y-146587500D01*
X142396312Y-146573018D01*
X142360002Y-146453320D01*
X142301037Y-146343006D01*
X142221685Y-146246315D01*
X142124994Y-146166963D01*
X142014680Y-146107998D01*
X141894982Y-146071688D01*
X141770500Y-146059428D01*
X140220500Y-146059428D01*
X140096018Y-146071688D01*
X139976320Y-146107998D01*
X139866006Y-146166963D01*
X139865324Y-146167522D01*
X136831052Y-143133250D01*
X139585500Y-143133250D01*
X139585500Y-143560042D01*
X139609903Y-143682723D01*
X139657770Y-143798285D01*
X139727263Y-143902289D01*
X139815711Y-143990737D01*
X139919715Y-144060230D01*
X140035277Y-144108097D01*
X140157958Y-144132500D01*
X140709750Y-144132500D01*
X140868500Y-143973750D01*
X140868500Y-142974500D01*
X141122500Y-142974500D01*
X141122500Y-143973750D01*
X141281250Y-144132500D01*
X141833042Y-144132500D01*
X141955723Y-144108097D01*
X142071285Y-144060230D01*
X142175289Y-143990737D01*
X142263737Y-143902289D01*
X142333230Y-143798285D01*
X142381097Y-143682723D01*
X142405500Y-143560042D01*
X142405500Y-143133250D01*
X147535500Y-143133250D01*
X147535500Y-143560042D01*
X147559903Y-143682723D01*
X147607770Y-143798285D01*
X147677263Y-143902289D01*
X147765711Y-143990737D01*
X147869715Y-144060230D01*
X147985277Y-144108097D01*
X148107958Y-144132500D01*
X148659750Y-144132500D01*
X148818500Y-143973750D01*
X148818500Y-142974500D01*
X147694250Y-142974500D01*
X147535500Y-143133250D01*
X142405500Y-143133250D01*
X142246750Y-142974500D01*
X141122500Y-142974500D01*
X140868500Y-142974500D01*
X139744250Y-142974500D01*
X139585500Y-143133250D01*
X136831052Y-143133250D01*
X135832760Y-142134958D01*
X139585500Y-142134958D01*
X139585500Y-142561750D01*
X139744250Y-142720500D01*
X140868500Y-142720500D01*
X140868500Y-141721250D01*
X141122500Y-141721250D01*
X141122500Y-142720500D01*
X142246750Y-142720500D01*
X142405500Y-142561750D01*
X142405500Y-142134958D01*
X147535500Y-142134958D01*
X147535500Y-142561750D01*
X147694250Y-142720500D01*
X148818500Y-142720500D01*
X148818500Y-141721250D01*
X148659750Y-141562500D01*
X148107958Y-141562500D01*
X147985277Y-141586903D01*
X147869715Y-141634770D01*
X147765711Y-141704263D01*
X147677263Y-141792711D01*
X147607770Y-141896715D01*
X147559903Y-142012277D01*
X147535500Y-142134958D01*
X142405500Y-142134958D01*
X142381097Y-142012277D01*
X142333230Y-141896715D01*
X142263737Y-141792711D01*
X142175289Y-141704263D01*
X142071285Y-141634770D01*
X141955723Y-141586903D01*
X141833042Y-141562500D01*
X141281250Y-141562500D01*
X141122500Y-141721250D01*
X140868500Y-141721250D01*
X140709750Y-141562500D01*
X140157958Y-141562500D01*
X140035277Y-141586903D01*
X139919715Y-141634770D01*
X139815711Y-141704263D01*
X139727263Y-141792711D01*
X139657770Y-141896715D01*
X139609903Y-142012277D01*
X139585500Y-142134958D01*
X135832760Y-142134958D01*
X134558478Y-140860676D01*
X134504222Y-140816109D01*
X134450452Y-140770991D01*
X134446951Y-140769066D01*
X134443862Y-140766529D01*
X134382010Y-140733364D01*
X134320473Y-140699534D01*
X134316661Y-140698325D01*
X134313142Y-140696438D01*
X134246046Y-140675925D01*
X134179090Y-140654685D01*
X134175118Y-140654239D01*
X134171296Y-140653071D01*
X134101428Y-140645974D01*
X134031688Y-140638151D01*
X134023883Y-140638097D01*
X134023730Y-140638081D01*
X134023587Y-140638095D01*
X134021077Y-140638077D01*
X126503135Y-140638077D01*
X127918401Y-139222811D01*
X127962968Y-139168555D01*
X128008086Y-139114785D01*
X128010011Y-139111284D01*
X128012548Y-139108195D01*
X128045713Y-139046343D01*
X128079543Y-138984806D01*
X128080752Y-138980994D01*
X128082639Y-138977475D01*
X128103152Y-138910379D01*
X128124392Y-138843423D01*
X128124838Y-138839451D01*
X128126006Y-138835629D01*
X128133098Y-138765805D01*
X128140926Y-138696021D01*
X128140981Y-138688206D01*
X128140995Y-138688063D01*
X128140982Y-138687930D01*
X128141000Y-138685410D01*
X128141000Y-113428538D01*
X129353790Y-112215748D01*
X129358688Y-112265482D01*
G36*
X114888506Y-144517037D02*
X114974131Y-144562805D01*
X114850287Y-144684082D01*
X114746693Y-144835377D01*
X114674458Y-145003912D01*
X114667638Y-145036000D01*
X112862802Y-145036000D01*
X112322480Y-144495678D01*
X112348506Y-144517037D01*
X112458820Y-144576002D01*
X112578518Y-144612312D01*
X112703000Y-144624572D01*
X113103000Y-144624572D01*
X113220500Y-144613000D01*
X113338000Y-144624572D01*
X113738000Y-144624572D01*
X113855500Y-144613000D01*
X113973000Y-144624572D01*
X114373000Y-144624572D01*
X114497482Y-144612312D01*
X114498189Y-144612098D01*
X114545458Y-144621500D01*
X114549250Y-144621500D01*
X114584980Y-144585770D01*
X114617180Y-144576002D01*
X114727494Y-144517037D01*
X114808000Y-144450968D01*
X114888506Y-144517037D01*
X114888506Y-144517037D01*
G37*
X114888506Y-144517037D02*
X114974131Y-144562805D01*
X114850287Y-144684082D01*
X114746693Y-144835377D01*
X114674458Y-145003912D01*
X114667638Y-145036000D01*
X112862802Y-145036000D01*
X112322480Y-144495678D01*
X112348506Y-144517037D01*
X112458820Y-144576002D01*
X112578518Y-144612312D01*
X112703000Y-144624572D01*
X113103000Y-144624572D01*
X113220500Y-144613000D01*
X113338000Y-144624572D01*
X113738000Y-144624572D01*
X113855500Y-144613000D01*
X113973000Y-144624572D01*
X114373000Y-144624572D01*
X114497482Y-144612312D01*
X114498189Y-144612098D01*
X114545458Y-144621500D01*
X114549250Y-144621500D01*
X114584980Y-144585770D01*
X114617180Y-144576002D01*
X114727494Y-144517037D01*
X114808000Y-144450968D01*
X114888506Y-144517037D01*
G36*
X126839249Y-109880051D02*
X126858872Y-109986968D01*
X126926372Y-110157454D01*
X127025701Y-110311583D01*
X127153076Y-110443484D01*
X127303644Y-110548131D01*
X127471671Y-110621540D01*
X127650757Y-110660915D01*
X127834079Y-110664755D01*
X128014657Y-110632914D01*
X128031586Y-110626348D01*
X126081603Y-112576331D01*
X126037036Y-112630587D01*
X125991918Y-112684357D01*
X125989993Y-112687858D01*
X125987456Y-112690947D01*
X125954291Y-112752799D01*
X125920461Y-112814336D01*
X125919252Y-112818148D01*
X125917365Y-112821667D01*
X125896852Y-112888763D01*
X125875612Y-112955719D01*
X125875166Y-112959691D01*
X125873998Y-112963513D01*
X125866901Y-113033381D01*
X125859078Y-113103121D01*
X125859024Y-113110926D01*
X125859008Y-113111079D01*
X125859022Y-113111222D01*
X125859004Y-113113732D01*
X125859004Y-138496194D01*
X120704589Y-143650609D01*
X120588860Y-143572549D01*
X120419825Y-143501493D01*
X120414072Y-143500312D01*
X120414072Y-143035500D01*
X120401812Y-142911018D01*
X120365502Y-142791320D01*
X120306537Y-142681006D01*
X120227185Y-142584315D01*
X120130494Y-142504963D01*
X120020180Y-142445998D01*
X119938783Y-142421306D01*
X119937413Y-142405648D01*
X119936201Y-142401477D01*
X119935778Y-142397160D01*
X119913740Y-142324166D01*
X119892465Y-142250936D01*
X119890468Y-142247084D01*
X119889213Y-142242926D01*
X119853402Y-142175576D01*
X119818322Y-142107900D01*
X119815614Y-142104507D01*
X119813576Y-142100675D01*
X119765380Y-142041581D01*
X119717810Y-141981990D01*
X119711853Y-141975949D01*
X119711751Y-141975824D01*
X119711635Y-141975728D01*
X119709717Y-141973783D01*
X119011217Y-141275283D01*
X118952274Y-141226867D01*
X118893880Y-141177869D01*
X118890075Y-141175777D01*
X118886722Y-141173023D01*
X118819523Y-141136991D01*
X118752699Y-141100254D01*
X118748563Y-141098942D01*
X118744736Y-141096890D01*
X118671805Y-141074593D01*
X118599131Y-141051539D01*
X118594817Y-141051055D01*
X118590666Y-141049786D01*
X118514784Y-141042078D01*
X118439026Y-141033580D01*
X118430550Y-141033521D01*
X118430381Y-141033504D01*
X118430223Y-141033519D01*
X118427500Y-141033500D01*
X108609433Y-141033500D01*
X107427434Y-139851501D01*
X111417999Y-139851501D01*
X111493857Y-139844063D01*
X111569851Y-139837414D01*
X111574022Y-139836202D01*
X111578339Y-139835779D01*
X111651333Y-139813741D01*
X111724563Y-139792466D01*
X111728415Y-139790469D01*
X111732573Y-139789214D01*
X111799883Y-139753424D01*
X111867599Y-139718324D01*
X111870995Y-139715613D01*
X111874824Y-139713577D01*
X111933891Y-139665404D01*
X111993509Y-139617811D01*
X111999550Y-139611854D01*
X111999675Y-139611752D01*
X111999771Y-139611636D01*
X112001716Y-139609718D01*
X112409717Y-139201716D01*
X112458112Y-139142799D01*
X112507131Y-139084380D01*
X112509223Y-139080575D01*
X112511977Y-139077222D01*
X112548018Y-139010007D01*
X112584746Y-138943199D01*
X112586057Y-138939065D01*
X112588111Y-138935235D01*
X112590961Y-138925913D01*
X112627185Y-138896185D01*
X112706537Y-138799494D01*
X112765502Y-138689180D01*
X112775784Y-138655285D01*
X112813270Y-138745785D01*
X112882763Y-138849789D01*
X112971211Y-138938237D01*
X113075215Y-139007730D01*
X113190777Y-139055597D01*
X113313458Y-139080000D01*
X113440250Y-139080000D01*
X113599000Y-138921250D01*
X113599000Y-137922000D01*
X113579000Y-137922000D01*
X113579000Y-137668000D01*
X113599000Y-137668000D01*
X113599000Y-137648000D01*
X113853000Y-137648000D01*
X113853000Y-137668000D01*
X114552250Y-137668000D01*
X114711000Y-137509250D01*
X114711000Y-137082458D01*
X114686597Y-136959777D01*
X114638730Y-136844215D01*
X114569237Y-136740211D01*
X114480789Y-136651763D01*
X114376785Y-136582270D01*
X114320792Y-136559077D01*
X114354730Y-136508285D01*
X114402597Y-136392723D01*
X114427000Y-136270042D01*
X114427000Y-136112250D01*
X114268250Y-135953500D01*
X113157000Y-135953500D01*
X113157000Y-135973500D01*
X112903000Y-135973500D01*
X112903000Y-135953500D01*
X111791750Y-135953500D01*
X111633000Y-136112250D01*
X111633000Y-136270042D01*
X111657403Y-136392723D01*
X111704708Y-136506928D01*
X111476000Y-136506928D01*
X111351518Y-136519188D01*
X111231820Y-136555498D01*
X111121506Y-136614463D01*
X111024815Y-136693815D01*
X110945463Y-136790506D01*
X110886498Y-136900820D01*
X110850188Y-137020518D01*
X110837928Y-137145000D01*
X110837928Y-138200501D01*
X110639751Y-138200501D01*
X110551750Y-138112500D01*
X109852500Y-138112500D01*
X109852500Y-138132500D01*
X109598500Y-138132500D01*
X109598500Y-138112500D01*
X109578500Y-138112500D01*
X109578500Y-137858500D01*
X109598500Y-137858500D01*
X109598500Y-136859250D01*
X109852500Y-136859250D01*
X109852500Y-137858500D01*
X110551750Y-137858500D01*
X110710500Y-137699750D01*
X110710500Y-137272958D01*
X110686097Y-137150277D01*
X110638230Y-137034715D01*
X110568737Y-136930711D01*
X110480289Y-136842263D01*
X110376285Y-136772770D01*
X110260723Y-136724903D01*
X110138042Y-136700500D01*
X110011250Y-136700500D01*
X109852500Y-136859250D01*
X109598500Y-136859250D01*
X109439750Y-136700500D01*
X109312958Y-136700500D01*
X109190277Y-136724903D01*
X109074715Y-136772770D01*
X108970711Y-136842263D01*
X108882263Y-136930711D01*
X108812770Y-137034715D01*
X108775284Y-137125215D01*
X108765002Y-137091320D01*
X108706037Y-136981006D01*
X108626685Y-136884315D01*
X108585500Y-136850515D01*
X108585500Y-136527500D01*
X108578648Y-136457619D01*
X108572531Y-136387697D01*
X108571416Y-136383859D01*
X108571026Y-136379882D01*
X108550736Y-136312679D01*
X108531149Y-136245260D01*
X108529310Y-136241712D01*
X108528155Y-136237887D01*
X108495201Y-136175909D01*
X108462890Y-136113575D01*
X108460397Y-136110452D01*
X108458520Y-136106922D01*
X108414145Y-136052513D01*
X108370352Y-135997654D01*
X108364869Y-135992094D01*
X108364774Y-135991978D01*
X108364666Y-135991889D01*
X108362901Y-135990099D01*
X106810072Y-134437270D01*
X106810072Y-134175500D01*
X106797812Y-134051018D01*
X106761502Y-133931320D01*
X106756253Y-133921500D01*
X106761502Y-133911680D01*
X106797812Y-133791982D01*
X106810072Y-133667500D01*
X106810072Y-133439297D01*
X107475718Y-134104943D01*
X107529974Y-134149510D01*
X107583744Y-134194628D01*
X107587245Y-134196553D01*
X107590334Y-134199090D01*
X107652221Y-134232274D01*
X107713723Y-134266085D01*
X107717531Y-134267293D01*
X107721054Y-134269182D01*
X107788237Y-134289722D01*
X107855106Y-134310934D01*
X107859073Y-134311379D01*
X107862900Y-134312549D01*
X107932818Y-134319651D01*
X108002508Y-134327468D01*
X108010313Y-134327522D01*
X108010466Y-134327538D01*
X108010609Y-134327524D01*
X108013119Y-134327542D01*
X108031406Y-134327542D01*
X108029771Y-134444617D01*
X108062872Y-134624968D01*
X108130372Y-134795454D01*
X108229701Y-134949583D01*
X108357076Y-135081484D01*
X108507644Y-135186131D01*
X108675671Y-135259540D01*
X108854757Y-135298915D01*
X109038079Y-135302755D01*
X109218657Y-135270914D01*
X109389610Y-135204606D01*
X109535988Y-135111712D01*
X109537882Y-135111526D01*
X109605085Y-135091236D01*
X109672504Y-135071649D01*
X109676052Y-135069810D01*
X109679877Y-135068655D01*
X109741855Y-135035701D01*
X109804189Y-135003390D01*
X109807312Y-135000897D01*
X109810842Y-134999020D01*
X109865251Y-134954645D01*
X109920110Y-134910852D01*
X109925670Y-134905369D01*
X109925786Y-134905274D01*
X109925875Y-134905166D01*
X109927665Y-134903401D01*
X110311400Y-134519666D01*
X110355967Y-134465410D01*
X110401085Y-134411640D01*
X110403010Y-134408139D01*
X110405547Y-134405050D01*
X110438712Y-134343198D01*
X110472542Y-134281661D01*
X110473751Y-134277849D01*
X110475638Y-134274330D01*
X110496151Y-134207234D01*
X110517391Y-134140278D01*
X110517837Y-134136306D01*
X110519005Y-134132484D01*
X110526097Y-134062660D01*
X110533925Y-133992876D01*
X110533980Y-133985061D01*
X110533994Y-133984918D01*
X110533981Y-133984785D01*
X110533999Y-133982265D01*
X110533999Y-133479735D01*
X110527148Y-133409858D01*
X110521030Y-133339932D01*
X110519915Y-133336094D01*
X110519525Y-133332117D01*
X110499235Y-133264914D01*
X110479648Y-133197495D01*
X110477809Y-133193947D01*
X110476654Y-133190122D01*
X110443700Y-133128144D01*
X110411389Y-133065810D01*
X110408896Y-133062687D01*
X110407019Y-133059157D01*
X110362644Y-133004748D01*
X110318851Y-132949889D01*
X110313368Y-132944329D01*
X110313273Y-132944213D01*
X110313165Y-132944124D01*
X110311400Y-132942334D01*
X109774206Y-132405140D01*
X109719950Y-132360573D01*
X109666180Y-132315455D01*
X109662679Y-132313530D01*
X109659590Y-132310993D01*
X109597738Y-132277828D01*
X109536201Y-132243998D01*
X109532389Y-132242789D01*
X109528870Y-132240902D01*
X109461774Y-132220389D01*
X109394818Y-132199149D01*
X109390846Y-132198703D01*
X109387024Y-132197535D01*
X109317156Y-132190438D01*
X109247416Y-132182615D01*
X109239611Y-132182561D01*
X109239458Y-132182545D01*
X109239315Y-132182559D01*
X109236805Y-132182541D01*
X108339331Y-132182541D01*
X108311916Y-132155126D01*
X108395901Y-132036070D01*
X108470482Y-131868560D01*
X108503776Y-131722016D01*
X108719292Y-131506500D01*
X111643559Y-131506500D01*
X111642188Y-131511018D01*
X111629928Y-131635500D01*
X111629928Y-132397500D01*
X111642188Y-132521982D01*
X111678498Y-132641680D01*
X111683747Y-132651500D01*
X111678498Y-132661320D01*
X111642188Y-132781018D01*
X111629928Y-132905500D01*
X111629928Y-133667500D01*
X111642188Y-133791982D01*
X111678498Y-133911680D01*
X111683747Y-133921500D01*
X111678498Y-133931320D01*
X111642188Y-134051018D01*
X111629928Y-134175500D01*
X111629928Y-134937500D01*
X111642188Y-135061982D01*
X111678498Y-135181680D01*
X111684955Y-135193760D01*
X111657403Y-135260277D01*
X111633000Y-135382958D01*
X111633000Y-135540750D01*
X111791750Y-135699500D01*
X112903000Y-135699500D01*
X112903000Y-135679500D01*
X113157000Y-135679500D01*
X113157000Y-135699500D01*
X114268250Y-135699500D01*
X114427000Y-135540750D01*
X114427000Y-135382958D01*
X114413781Y-135316500D01*
X114620322Y-135316500D01*
X114690199Y-135309649D01*
X114760125Y-135303531D01*
X114763963Y-135302416D01*
X114767940Y-135302026D01*
X114835143Y-135281736D01*
X114902562Y-135262149D01*
X114906110Y-135260310D01*
X114909935Y-135259155D01*
X114971913Y-135226201D01*
X115034247Y-135193890D01*
X115037370Y-135191397D01*
X115040900Y-135189520D01*
X115095309Y-135145145D01*
X115150168Y-135101352D01*
X115155728Y-135095869D01*
X115155844Y-135095774D01*
X115155933Y-135095666D01*
X115157723Y-135093901D01*
X119064500Y-131187124D01*
X119064500Y-131534918D01*
X119001189Y-131627381D01*
X118928954Y-131795916D01*
X118890831Y-131975272D01*
X118888271Y-132158617D01*
X118921372Y-132338968D01*
X118988872Y-132509454D01*
X119064500Y-132626806D01*
X119064500Y-134114698D01*
X114711000Y-138468198D01*
X114711000Y-138080750D01*
X114552250Y-137922000D01*
X113853000Y-137922000D01*
X113853000Y-138921250D01*
X113874124Y-138942374D01*
X113855457Y-138976330D01*
X113854651Y-138978871D01*
X113853384Y-138981214D01*
X113832239Y-139049523D01*
X113810608Y-139117713D01*
X113810311Y-139120362D01*
X113809523Y-139122907D01*
X113808365Y-139133929D01*
X113730689Y-139247371D01*
X113658454Y-139415906D01*
X113620331Y-139595262D01*
X113617771Y-139778607D01*
X113650872Y-139958958D01*
X113718372Y-140129444D01*
X113817701Y-140283573D01*
X113945076Y-140415474D01*
X114095644Y-140520121D01*
X114263671Y-140593530D01*
X114442757Y-140632905D01*
X114626079Y-140636745D01*
X114806657Y-140604904D01*
X114977610Y-140538596D01*
X115132429Y-140440345D01*
X115265215Y-140313894D01*
X115370911Y-140164060D01*
X115445492Y-139996550D01*
X115480455Y-139842663D01*
X115508120Y-139820578D01*
X115513680Y-139815095D01*
X115513796Y-139815000D01*
X115513885Y-139814892D01*
X115515675Y-139813127D01*
X120361901Y-134966901D01*
X120406472Y-134912640D01*
X120451586Y-134858875D01*
X120453510Y-134855374D01*
X120456049Y-134852284D01*
X120489231Y-134790399D01*
X120523043Y-134728896D01*
X120524252Y-134725086D01*
X120526140Y-134721564D01*
X120546676Y-134654396D01*
X120567892Y-134587513D01*
X120568337Y-134583546D01*
X120569507Y-134579719D01*
X120576609Y-134509801D01*
X120584426Y-134440111D01*
X120584480Y-134432306D01*
X120584496Y-134432153D01*
X120584482Y-134432010D01*
X120584500Y-134429500D01*
X120584500Y-132624747D01*
X120641411Y-132544070D01*
X120715992Y-132376560D01*
X120756616Y-132197754D01*
X120759540Y-131988319D01*
X120723925Y-131808448D01*
X120654050Y-131638920D01*
X120584500Y-131534238D01*
X120584500Y-125004747D01*
X120641411Y-124924070D01*
X120715992Y-124756560D01*
X120756616Y-124577754D01*
X120759540Y-124368319D01*
X120723925Y-124188448D01*
X120654050Y-124018920D01*
X120584500Y-123914238D01*
X120584500Y-117384747D01*
X120641411Y-117304070D01*
X120715992Y-117136560D01*
X120756616Y-116957754D01*
X120759540Y-116748319D01*
X120723925Y-116568448D01*
X120654050Y-116398920D01*
X120584500Y-116294238D01*
X120584500Y-114106802D01*
X122520901Y-112170401D01*
X122565468Y-112116145D01*
X122607064Y-112066572D01*
X122594848Y-112106531D01*
X122573608Y-112173487D01*
X122573162Y-112177459D01*
X122571994Y-112181281D01*
X122564897Y-112251149D01*
X122557074Y-112320889D01*
X122557020Y-112328694D01*
X122557004Y-112328847D01*
X122557018Y-112328990D01*
X122557000Y-112331500D01*
X122557000Y-123845122D01*
X122518763Y-123882567D01*
X122415169Y-124033862D01*
X122342934Y-124202397D01*
X122304811Y-124381753D01*
X122302251Y-124565098D01*
X122335352Y-124745449D01*
X122402852Y-124915935D01*
X122502181Y-125070064D01*
X122557000Y-125126831D01*
X122557000Y-131661920D01*
X122493689Y-131754383D01*
X122421454Y-131922918D01*
X122383331Y-132102274D01*
X122380771Y-132285619D01*
X122413872Y-132465970D01*
X122481372Y-132636456D01*
X122557000Y-132753808D01*
X122557000Y-138519946D01*
X122516707Y-138578792D01*
X122444472Y-138747327D01*
X122406349Y-138926683D01*
X122403789Y-139110028D01*
X122436890Y-139290379D01*
X122504390Y-139460865D01*
X122603719Y-139614994D01*
X122731094Y-139746895D01*
X122881662Y-139851542D01*
X123049689Y-139924951D01*
X123228775Y-139964326D01*
X123412097Y-139968166D01*
X123592675Y-139936325D01*
X123763628Y-139870017D01*
X123918447Y-139771766D01*
X124051233Y-139645315D01*
X124156929Y-139495481D01*
X124231510Y-139327971D01*
X124272134Y-139149165D01*
X124275058Y-138939730D01*
X124239443Y-138759859D01*
X124169568Y-138590331D01*
X124077000Y-138451004D01*
X124077000Y-132751749D01*
X124133911Y-132671072D01*
X124208492Y-132503562D01*
X124249116Y-132324756D01*
X124252040Y-132115321D01*
X124216425Y-131935450D01*
X124146550Y-131765922D01*
X124077000Y-131661240D01*
X124077000Y-124902017D01*
X124129972Y-124783041D01*
X124170596Y-124604235D01*
X124173520Y-124394800D01*
X124137905Y-124214929D01*
X124077000Y-124067164D01*
X124077000Y-112646302D01*
X125156152Y-111567151D01*
X125156157Y-111567145D01*
X125537818Y-111185484D01*
X125600482Y-111179312D01*
X125720180Y-111143002D01*
X125830494Y-111084037D01*
X125927185Y-111004685D01*
X126006537Y-110907994D01*
X126065502Y-110797680D01*
X126101812Y-110677982D01*
X126114072Y-110553500D01*
X126114072Y-109410500D01*
X126101812Y-109286018D01*
X126081179Y-109218000D01*
X126177198Y-109218000D01*
X126839249Y-109880051D01*
X126839249Y-109880051D01*
G37*
X126839249Y-109880051D02*
X126858872Y-109986968D01*
X126926372Y-110157454D01*
X127025701Y-110311583D01*
X127153076Y-110443484D01*
X127303644Y-110548131D01*
X127471671Y-110621540D01*
X127650757Y-110660915D01*
X127834079Y-110664755D01*
X128014657Y-110632914D01*
X128031586Y-110626348D01*
X126081603Y-112576331D01*
X126037036Y-112630587D01*
X125991918Y-112684357D01*
X125989993Y-112687858D01*
X125987456Y-112690947D01*
X125954291Y-112752799D01*
X125920461Y-112814336D01*
X125919252Y-112818148D01*
X125917365Y-112821667D01*
X125896852Y-112888763D01*
X125875612Y-112955719D01*
X125875166Y-112959691D01*
X125873998Y-112963513D01*
X125866901Y-113033381D01*
X125859078Y-113103121D01*
X125859024Y-113110926D01*
X125859008Y-113111079D01*
X125859022Y-113111222D01*
X125859004Y-113113732D01*
X125859004Y-138496194D01*
X120704589Y-143650609D01*
X120588860Y-143572549D01*
X120419825Y-143501493D01*
X120414072Y-143500312D01*
X120414072Y-143035500D01*
X120401812Y-142911018D01*
X120365502Y-142791320D01*
X120306537Y-142681006D01*
X120227185Y-142584315D01*
X120130494Y-142504963D01*
X120020180Y-142445998D01*
X119938783Y-142421306D01*
X119937413Y-142405648D01*
X119936201Y-142401477D01*
X119935778Y-142397160D01*
X119913740Y-142324166D01*
X119892465Y-142250936D01*
X119890468Y-142247084D01*
X119889213Y-142242926D01*
X119853402Y-142175576D01*
X119818322Y-142107900D01*
X119815614Y-142104507D01*
X119813576Y-142100675D01*
X119765380Y-142041581D01*
X119717810Y-141981990D01*
X119711853Y-141975949D01*
X119711751Y-141975824D01*
X119711635Y-141975728D01*
X119709717Y-141973783D01*
X119011217Y-141275283D01*
X118952274Y-141226867D01*
X118893880Y-141177869D01*
X118890075Y-141175777D01*
X118886722Y-141173023D01*
X118819523Y-141136991D01*
X118752699Y-141100254D01*
X118748563Y-141098942D01*
X118744736Y-141096890D01*
X118671805Y-141074593D01*
X118599131Y-141051539D01*
X118594817Y-141051055D01*
X118590666Y-141049786D01*
X118514784Y-141042078D01*
X118439026Y-141033580D01*
X118430550Y-141033521D01*
X118430381Y-141033504D01*
X118430223Y-141033519D01*
X118427500Y-141033500D01*
X108609433Y-141033500D01*
X107427434Y-139851501D01*
X111417999Y-139851501D01*
X111493857Y-139844063D01*
X111569851Y-139837414D01*
X111574022Y-139836202D01*
X111578339Y-139835779D01*
X111651333Y-139813741D01*
X111724563Y-139792466D01*
X111728415Y-139790469D01*
X111732573Y-139789214D01*
X111799883Y-139753424D01*
X111867599Y-139718324D01*
X111870995Y-139715613D01*
X111874824Y-139713577D01*
X111933891Y-139665404D01*
X111993509Y-139617811D01*
X111999550Y-139611854D01*
X111999675Y-139611752D01*
X111999771Y-139611636D01*
X112001716Y-139609718D01*
X112409717Y-139201716D01*
X112458112Y-139142799D01*
X112507131Y-139084380D01*
X112509223Y-139080575D01*
X112511977Y-139077222D01*
X112548018Y-139010007D01*
X112584746Y-138943199D01*
X112586057Y-138939065D01*
X112588111Y-138935235D01*
X112590961Y-138925913D01*
X112627185Y-138896185D01*
X112706537Y-138799494D01*
X112765502Y-138689180D01*
X112775784Y-138655285D01*
X112813270Y-138745785D01*
X112882763Y-138849789D01*
X112971211Y-138938237D01*
X113075215Y-139007730D01*
X113190777Y-139055597D01*
X113313458Y-139080000D01*
X113440250Y-139080000D01*
X113599000Y-138921250D01*
X113599000Y-137922000D01*
X113579000Y-137922000D01*
X113579000Y-137668000D01*
X113599000Y-137668000D01*
X113599000Y-137648000D01*
X113853000Y-137648000D01*
X113853000Y-137668000D01*
X114552250Y-137668000D01*
X114711000Y-137509250D01*
X114711000Y-137082458D01*
X114686597Y-136959777D01*
X114638730Y-136844215D01*
X114569237Y-136740211D01*
X114480789Y-136651763D01*
X114376785Y-136582270D01*
X114320792Y-136559077D01*
X114354730Y-136508285D01*
X114402597Y-136392723D01*
X114427000Y-136270042D01*
X114427000Y-136112250D01*
X114268250Y-135953500D01*
X113157000Y-135953500D01*
X113157000Y-135973500D01*
X112903000Y-135973500D01*
X112903000Y-135953500D01*
X111791750Y-135953500D01*
X111633000Y-136112250D01*
X111633000Y-136270042D01*
X111657403Y-136392723D01*
X111704708Y-136506928D01*
X111476000Y-136506928D01*
X111351518Y-136519188D01*
X111231820Y-136555498D01*
X111121506Y-136614463D01*
X111024815Y-136693815D01*
X110945463Y-136790506D01*
X110886498Y-136900820D01*
X110850188Y-137020518D01*
X110837928Y-137145000D01*
X110837928Y-138200501D01*
X110639751Y-138200501D01*
X110551750Y-138112500D01*
X109852500Y-138112500D01*
X109852500Y-138132500D01*
X109598500Y-138132500D01*
X109598500Y-138112500D01*
X109578500Y-138112500D01*
X109578500Y-137858500D01*
X109598500Y-137858500D01*
X109598500Y-136859250D01*
X109852500Y-136859250D01*
X109852500Y-137858500D01*
X110551750Y-137858500D01*
X110710500Y-137699750D01*
X110710500Y-137272958D01*
X110686097Y-137150277D01*
X110638230Y-137034715D01*
X110568737Y-136930711D01*
X110480289Y-136842263D01*
X110376285Y-136772770D01*
X110260723Y-136724903D01*
X110138042Y-136700500D01*
X110011250Y-136700500D01*
X109852500Y-136859250D01*
X109598500Y-136859250D01*
X109439750Y-136700500D01*
X109312958Y-136700500D01*
X109190277Y-136724903D01*
X109074715Y-136772770D01*
X108970711Y-136842263D01*
X108882263Y-136930711D01*
X108812770Y-137034715D01*
X108775284Y-137125215D01*
X108765002Y-137091320D01*
X108706037Y-136981006D01*
X108626685Y-136884315D01*
X108585500Y-136850515D01*
X108585500Y-136527500D01*
X108578648Y-136457619D01*
X108572531Y-136387697D01*
X108571416Y-136383859D01*
X108571026Y-136379882D01*
X108550736Y-136312679D01*
X108531149Y-136245260D01*
X108529310Y-136241712D01*
X108528155Y-136237887D01*
X108495201Y-136175909D01*
X108462890Y-136113575D01*
X108460397Y-136110452D01*
X108458520Y-136106922D01*
X108414145Y-136052513D01*
X108370352Y-135997654D01*
X108364869Y-135992094D01*
X108364774Y-135991978D01*
X108364666Y-135991889D01*
X108362901Y-135990099D01*
X106810072Y-134437270D01*
X106810072Y-134175500D01*
X106797812Y-134051018D01*
X106761502Y-133931320D01*
X106756253Y-133921500D01*
X106761502Y-133911680D01*
X106797812Y-133791982D01*
X106810072Y-133667500D01*
X106810072Y-133439297D01*
X107475718Y-134104943D01*
X107529974Y-134149510D01*
X107583744Y-134194628D01*
X107587245Y-134196553D01*
X107590334Y-134199090D01*
X107652221Y-134232274D01*
X107713723Y-134266085D01*
X107717531Y-134267293D01*
X107721054Y-134269182D01*
X107788237Y-134289722D01*
X107855106Y-134310934D01*
X107859073Y-134311379D01*
X107862900Y-134312549D01*
X107932818Y-134319651D01*
X108002508Y-134327468D01*
X108010313Y-134327522D01*
X108010466Y-134327538D01*
X108010609Y-134327524D01*
X108013119Y-134327542D01*
X108031406Y-134327542D01*
X108029771Y-134444617D01*
X108062872Y-134624968D01*
X108130372Y-134795454D01*
X108229701Y-134949583D01*
X108357076Y-135081484D01*
X108507644Y-135186131D01*
X108675671Y-135259540D01*
X108854757Y-135298915D01*
X109038079Y-135302755D01*
X109218657Y-135270914D01*
X109389610Y-135204606D01*
X109535988Y-135111712D01*
X109537882Y-135111526D01*
X109605085Y-135091236D01*
X109672504Y-135071649D01*
X109676052Y-135069810D01*
X109679877Y-135068655D01*
X109741855Y-135035701D01*
X109804189Y-135003390D01*
X109807312Y-135000897D01*
X109810842Y-134999020D01*
X109865251Y-134954645D01*
X109920110Y-134910852D01*
X109925670Y-134905369D01*
X109925786Y-134905274D01*
X109925875Y-134905166D01*
X109927665Y-134903401D01*
X110311400Y-134519666D01*
X110355967Y-134465410D01*
X110401085Y-134411640D01*
X110403010Y-134408139D01*
X110405547Y-134405050D01*
X110438712Y-134343198D01*
X110472542Y-134281661D01*
X110473751Y-134277849D01*
X110475638Y-134274330D01*
X110496151Y-134207234D01*
X110517391Y-134140278D01*
X110517837Y-134136306D01*
X110519005Y-134132484D01*
X110526097Y-134062660D01*
X110533925Y-133992876D01*
X110533980Y-133985061D01*
X110533994Y-133984918D01*
X110533981Y-133984785D01*
X110533999Y-133982265D01*
X110533999Y-133479735D01*
X110527148Y-133409858D01*
X110521030Y-133339932D01*
X110519915Y-133336094D01*
X110519525Y-133332117D01*
X110499235Y-133264914D01*
X110479648Y-133197495D01*
X110477809Y-133193947D01*
X110476654Y-133190122D01*
X110443700Y-133128144D01*
X110411389Y-133065810D01*
X110408896Y-133062687D01*
X110407019Y-133059157D01*
X110362644Y-133004748D01*
X110318851Y-132949889D01*
X110313368Y-132944329D01*
X110313273Y-132944213D01*
X110313165Y-132944124D01*
X110311400Y-132942334D01*
X109774206Y-132405140D01*
X109719950Y-132360573D01*
X109666180Y-132315455D01*
X109662679Y-132313530D01*
X109659590Y-132310993D01*
X109597738Y-132277828D01*
X109536201Y-132243998D01*
X109532389Y-132242789D01*
X109528870Y-132240902D01*
X109461774Y-132220389D01*
X109394818Y-132199149D01*
X109390846Y-132198703D01*
X109387024Y-132197535D01*
X109317156Y-132190438D01*
X109247416Y-132182615D01*
X109239611Y-132182561D01*
X109239458Y-132182545D01*
X109239315Y-132182559D01*
X109236805Y-132182541D01*
X108339331Y-132182541D01*
X108311916Y-132155126D01*
X108395901Y-132036070D01*
X108470482Y-131868560D01*
X108503776Y-131722016D01*
X108719292Y-131506500D01*
X111643559Y-131506500D01*
X111642188Y-131511018D01*
X111629928Y-131635500D01*
X111629928Y-132397500D01*
X111642188Y-132521982D01*
X111678498Y-132641680D01*
X111683747Y-132651500D01*
X111678498Y-132661320D01*
X111642188Y-132781018D01*
X111629928Y-132905500D01*
X111629928Y-133667500D01*
X111642188Y-133791982D01*
X111678498Y-133911680D01*
X111683747Y-133921500D01*
X111678498Y-133931320D01*
X111642188Y-134051018D01*
X111629928Y-134175500D01*
X111629928Y-134937500D01*
X111642188Y-135061982D01*
X111678498Y-135181680D01*
X111684955Y-135193760D01*
X111657403Y-135260277D01*
X111633000Y-135382958D01*
X111633000Y-135540750D01*
X111791750Y-135699500D01*
X112903000Y-135699500D01*
X112903000Y-135679500D01*
X113157000Y-135679500D01*
X113157000Y-135699500D01*
X114268250Y-135699500D01*
X114427000Y-135540750D01*
X114427000Y-135382958D01*
X114413781Y-135316500D01*
X114620322Y-135316500D01*
X114690199Y-135309649D01*
X114760125Y-135303531D01*
X114763963Y-135302416D01*
X114767940Y-135302026D01*
X114835143Y-135281736D01*
X114902562Y-135262149D01*
X114906110Y-135260310D01*
X114909935Y-135259155D01*
X114971913Y-135226201D01*
X115034247Y-135193890D01*
X115037370Y-135191397D01*
X115040900Y-135189520D01*
X115095309Y-135145145D01*
X115150168Y-135101352D01*
X115155728Y-135095869D01*
X115155844Y-135095774D01*
X115155933Y-135095666D01*
X115157723Y-135093901D01*
X119064500Y-131187124D01*
X119064500Y-131534918D01*
X119001189Y-131627381D01*
X118928954Y-131795916D01*
X118890831Y-131975272D01*
X118888271Y-132158617D01*
X118921372Y-132338968D01*
X118988872Y-132509454D01*
X119064500Y-132626806D01*
X119064500Y-134114698D01*
X114711000Y-138468198D01*
X114711000Y-138080750D01*
X114552250Y-137922000D01*
X113853000Y-137922000D01*
X113853000Y-138921250D01*
X113874124Y-138942374D01*
X113855457Y-138976330D01*
X113854651Y-138978871D01*
X113853384Y-138981214D01*
X113832239Y-139049523D01*
X113810608Y-139117713D01*
X113810311Y-139120362D01*
X113809523Y-139122907D01*
X113808365Y-139133929D01*
X113730689Y-139247371D01*
X113658454Y-139415906D01*
X113620331Y-139595262D01*
X113617771Y-139778607D01*
X113650872Y-139958958D01*
X113718372Y-140129444D01*
X113817701Y-140283573D01*
X113945076Y-140415474D01*
X114095644Y-140520121D01*
X114263671Y-140593530D01*
X114442757Y-140632905D01*
X114626079Y-140636745D01*
X114806657Y-140604904D01*
X114977610Y-140538596D01*
X115132429Y-140440345D01*
X115265215Y-140313894D01*
X115370911Y-140164060D01*
X115445492Y-139996550D01*
X115480455Y-139842663D01*
X115508120Y-139820578D01*
X115513680Y-139815095D01*
X115513796Y-139815000D01*
X115513885Y-139814892D01*
X115515675Y-139813127D01*
X120361901Y-134966901D01*
X120406472Y-134912640D01*
X120451586Y-134858875D01*
X120453510Y-134855374D01*
X120456049Y-134852284D01*
X120489231Y-134790399D01*
X120523043Y-134728896D01*
X120524252Y-134725086D01*
X120526140Y-134721564D01*
X120546676Y-134654396D01*
X120567892Y-134587513D01*
X120568337Y-134583546D01*
X120569507Y-134579719D01*
X120576609Y-134509801D01*
X120584426Y-134440111D01*
X120584480Y-134432306D01*
X120584496Y-134432153D01*
X120584482Y-134432010D01*
X120584500Y-134429500D01*
X120584500Y-132624747D01*
X120641411Y-132544070D01*
X120715992Y-132376560D01*
X120756616Y-132197754D01*
X120759540Y-131988319D01*
X120723925Y-131808448D01*
X120654050Y-131638920D01*
X120584500Y-131534238D01*
X120584500Y-125004747D01*
X120641411Y-124924070D01*
X120715992Y-124756560D01*
X120756616Y-124577754D01*
X120759540Y-124368319D01*
X120723925Y-124188448D01*
X120654050Y-124018920D01*
X120584500Y-123914238D01*
X120584500Y-117384747D01*
X120641411Y-117304070D01*
X120715992Y-117136560D01*
X120756616Y-116957754D01*
X120759540Y-116748319D01*
X120723925Y-116568448D01*
X120654050Y-116398920D01*
X120584500Y-116294238D01*
X120584500Y-114106802D01*
X122520901Y-112170401D01*
X122565468Y-112116145D01*
X122607064Y-112066572D01*
X122594848Y-112106531D01*
X122573608Y-112173487D01*
X122573162Y-112177459D01*
X122571994Y-112181281D01*
X122564897Y-112251149D01*
X122557074Y-112320889D01*
X122557020Y-112328694D01*
X122557004Y-112328847D01*
X122557018Y-112328990D01*
X122557000Y-112331500D01*
X122557000Y-123845122D01*
X122518763Y-123882567D01*
X122415169Y-124033862D01*
X122342934Y-124202397D01*
X122304811Y-124381753D01*
X122302251Y-124565098D01*
X122335352Y-124745449D01*
X122402852Y-124915935D01*
X122502181Y-125070064D01*
X122557000Y-125126831D01*
X122557000Y-131661920D01*
X122493689Y-131754383D01*
X122421454Y-131922918D01*
X122383331Y-132102274D01*
X122380771Y-132285619D01*
X122413872Y-132465970D01*
X122481372Y-132636456D01*
X122557000Y-132753808D01*
X122557000Y-138519946D01*
X122516707Y-138578792D01*
X122444472Y-138747327D01*
X122406349Y-138926683D01*
X122403789Y-139110028D01*
X122436890Y-139290379D01*
X122504390Y-139460865D01*
X122603719Y-139614994D01*
X122731094Y-139746895D01*
X122881662Y-139851542D01*
X123049689Y-139924951D01*
X123228775Y-139964326D01*
X123412097Y-139968166D01*
X123592675Y-139936325D01*
X123763628Y-139870017D01*
X123918447Y-139771766D01*
X124051233Y-139645315D01*
X124156929Y-139495481D01*
X124231510Y-139327971D01*
X124272134Y-139149165D01*
X124275058Y-138939730D01*
X124239443Y-138759859D01*
X124169568Y-138590331D01*
X124077000Y-138451004D01*
X124077000Y-132751749D01*
X124133911Y-132671072D01*
X124208492Y-132503562D01*
X124249116Y-132324756D01*
X124252040Y-132115321D01*
X124216425Y-131935450D01*
X124146550Y-131765922D01*
X124077000Y-131661240D01*
X124077000Y-124902017D01*
X124129972Y-124783041D01*
X124170596Y-124604235D01*
X124173520Y-124394800D01*
X124137905Y-124214929D01*
X124077000Y-124067164D01*
X124077000Y-112646302D01*
X125156152Y-111567151D01*
X125156157Y-111567145D01*
X125537818Y-111185484D01*
X125600482Y-111179312D01*
X125720180Y-111143002D01*
X125830494Y-111084037D01*
X125927185Y-111004685D01*
X126006537Y-110907994D01*
X126065502Y-110797680D01*
X126101812Y-110677982D01*
X126114072Y-110553500D01*
X126114072Y-109410500D01*
X126101812Y-109286018D01*
X126081179Y-109218000D01*
X126177198Y-109218000D01*
X126839249Y-109880051D01*
G36*
X128151800Y-107255602D02*
X128084601Y-107248064D01*
X128076796Y-107248010D01*
X128076643Y-107247994D01*
X128076500Y-107248008D01*
X128073990Y-107247990D01*
X119955600Y-107247990D01*
X119885715Y-107254842D01*
X119815798Y-107260959D01*
X119811960Y-107262074D01*
X119807982Y-107262464D01*
X119740800Y-107282747D01*
X119673361Y-107302340D01*
X119669810Y-107304181D01*
X119665987Y-107305335D01*
X119604026Y-107338280D01*
X119541675Y-107370600D01*
X119538552Y-107373093D01*
X119535022Y-107374970D01*
X119480589Y-107419365D01*
X119425755Y-107463138D01*
X119420196Y-107468620D01*
X119420078Y-107468716D01*
X119419988Y-107468825D01*
X119418199Y-107470589D01*
X117572599Y-109316189D01*
X117528032Y-109370445D01*
X117482914Y-109424215D01*
X117480989Y-109427716D01*
X117478452Y-109430805D01*
X117445287Y-109492657D01*
X117411457Y-109554194D01*
X117410248Y-109558006D01*
X117408361Y-109561525D01*
X117387848Y-109628621D01*
X117366608Y-109695577D01*
X117366162Y-109699549D01*
X117364994Y-109703371D01*
X117357897Y-109773239D01*
X117350074Y-109842979D01*
X117350020Y-109850784D01*
X117350004Y-109850937D01*
X117350018Y-109851080D01*
X117350000Y-109853590D01*
X117350000Y-118586259D01*
X117314079Y-118532193D01*
X117184875Y-118402084D01*
X117032860Y-118299549D01*
X116863825Y-118228493D01*
X116684207Y-118191623D01*
X116500849Y-118190343D01*
X116320733Y-118224701D01*
X116150722Y-118293390D01*
X115997291Y-118393793D01*
X115866283Y-118522086D01*
X115762689Y-118673381D01*
X115690454Y-118841916D01*
X115652331Y-119021272D01*
X115649771Y-119204617D01*
X115682872Y-119384968D01*
X115750372Y-119555454D01*
X115849701Y-119709583D01*
X115977076Y-119841484D01*
X116127644Y-119946131D01*
X116295671Y-120019540D01*
X116461269Y-120055949D01*
X116463214Y-120057547D01*
X116525101Y-120090731D01*
X116586603Y-120124542D01*
X116590411Y-120125750D01*
X116593934Y-120127639D01*
X116661117Y-120148179D01*
X116727986Y-120169391D01*
X116731953Y-120169836D01*
X116735780Y-120171006D01*
X116805698Y-120178108D01*
X116842000Y-120182180D01*
X116842000Y-129987198D01*
X115128198Y-131701000D01*
X114430072Y-131701000D01*
X114430072Y-131635500D01*
X114417812Y-131511018D01*
X114381502Y-131391320D01*
X114376253Y-131381500D01*
X114381502Y-131371680D01*
X114417812Y-131251982D01*
X114430072Y-131127500D01*
X114430072Y-130365500D01*
X114417812Y-130241018D01*
X114381502Y-130121320D01*
X114376253Y-130111500D01*
X114381502Y-130101680D01*
X114417812Y-129981982D01*
X114430072Y-129857500D01*
X114430072Y-129095500D01*
X114417812Y-128971018D01*
X114381502Y-128851320D01*
X114376253Y-128841500D01*
X114381502Y-128831680D01*
X114417812Y-128711982D01*
X114430072Y-128587500D01*
X114430072Y-127825500D01*
X114417812Y-127701018D01*
X114381502Y-127581320D01*
X114376253Y-127571500D01*
X114381502Y-127561680D01*
X114417812Y-127441982D01*
X114430072Y-127317500D01*
X114430072Y-126555500D01*
X114417812Y-126431018D01*
X114381502Y-126311320D01*
X114376253Y-126301500D01*
X114381502Y-126291680D01*
X114417812Y-126171982D01*
X114430072Y-126047500D01*
X114430072Y-125285500D01*
X114417812Y-125161018D01*
X114381502Y-125041320D01*
X114376253Y-125031500D01*
X114381502Y-125021680D01*
X114417812Y-124901982D01*
X114430072Y-124777500D01*
X114430072Y-124015500D01*
X114417812Y-123891018D01*
X114381502Y-123771320D01*
X114376253Y-123761500D01*
X114381502Y-123751680D01*
X114417812Y-123631982D01*
X114430072Y-123507500D01*
X114430072Y-122745500D01*
X114417812Y-122621018D01*
X114381502Y-122501320D01*
X114342311Y-122428000D01*
X114381502Y-122354680D01*
X114417812Y-122234982D01*
X114430072Y-122110500D01*
X114430072Y-121348500D01*
X114417812Y-121224018D01*
X114381502Y-121104320D01*
X114322537Y-120994006D01*
X114243185Y-120897315D01*
X114146494Y-120817963D01*
X114036180Y-120758998D01*
X113916482Y-120722688D01*
X113792000Y-120710428D01*
X112268000Y-120710428D01*
X112143518Y-120722688D01*
X112023820Y-120758998D01*
X111913506Y-120817963D01*
X111816815Y-120897315D01*
X111737463Y-120994006D01*
X111678498Y-121104320D01*
X111642188Y-121224018D01*
X111629928Y-121348500D01*
X111629928Y-121483270D01*
X110983197Y-122130001D01*
X109520017Y-122130001D01*
X109450136Y-122136853D01*
X109380214Y-122142970D01*
X109376376Y-122144085D01*
X109372399Y-122144475D01*
X109305229Y-122164755D01*
X109292504Y-122168452D01*
X109292504Y-119186802D01*
X110011401Y-118467905D01*
X110055968Y-118413649D01*
X110101086Y-118359879D01*
X110103011Y-118356378D01*
X110105548Y-118353289D01*
X110138713Y-118291437D01*
X110172543Y-118229900D01*
X110173752Y-118226088D01*
X110175639Y-118222569D01*
X110196152Y-118155473D01*
X110217392Y-118088517D01*
X110217838Y-118084545D01*
X110219006Y-118080723D01*
X110226098Y-118010899D01*
X110233926Y-117941115D01*
X110233981Y-117933300D01*
X110233995Y-117933157D01*
X110233982Y-117933024D01*
X110234000Y-117930504D01*
X110234000Y-116559247D01*
X110290911Y-116478570D01*
X110365492Y-116311060D01*
X110406116Y-116132254D01*
X110409040Y-115922819D01*
X110373425Y-115742948D01*
X110303550Y-115573420D01*
X110202079Y-115420693D01*
X110072875Y-115290584D01*
X109920860Y-115188049D01*
X109751825Y-115116993D01*
X109572207Y-115080123D01*
X109388849Y-115078843D01*
X109208733Y-115113201D01*
X109038722Y-115181890D01*
X108885291Y-115282293D01*
X108754283Y-115410586D01*
X108650689Y-115561881D01*
X108578454Y-115730416D01*
X108540331Y-115909772D01*
X108540071Y-115928380D01*
X108429207Y-115905623D01*
X108245849Y-115904343D01*
X108065733Y-115938701D01*
X107895722Y-116007390D01*
X107742291Y-116107793D01*
X107611283Y-116236086D01*
X107507689Y-116387381D01*
X107435454Y-116555916D01*
X107397331Y-116735272D01*
X107394771Y-116918617D01*
X107403419Y-116965737D01*
X107260722Y-117023390D01*
X107107291Y-117123793D01*
X106976283Y-117252086D01*
X106872689Y-117403381D01*
X106800454Y-117571916D01*
X106762331Y-117751272D01*
X106759771Y-117934617D01*
X106792872Y-118114968D01*
X106860372Y-118285454D01*
X106872500Y-118304273D01*
X106872500Y-120928444D01*
X106732233Y-120955201D01*
X106602726Y-121007525D01*
X106526494Y-120944963D01*
X106416180Y-120885998D01*
X106296482Y-120849688D01*
X106172000Y-120837428D01*
X104648000Y-120837428D01*
X104523518Y-120849688D01*
X104403820Y-120885998D01*
X104293506Y-120944963D01*
X104196815Y-121024315D01*
X104117463Y-121121006D01*
X104058498Y-121231320D01*
X104022188Y-121351018D01*
X104009928Y-121475500D01*
X104009928Y-122237500D01*
X104022188Y-122361982D01*
X104058498Y-122481680D01*
X104063747Y-122491500D01*
X104058498Y-122501320D01*
X104022188Y-122621018D01*
X104009928Y-122745500D01*
X104009928Y-123507500D01*
X104022188Y-123631982D01*
X104058498Y-123751680D01*
X104063747Y-123761500D01*
X104058498Y-123771320D01*
X104022188Y-123891018D01*
X104009928Y-124015500D01*
X104009928Y-124777500D01*
X104022188Y-124901982D01*
X104058498Y-125021680D01*
X104063747Y-125031500D01*
X104058498Y-125041320D01*
X104022188Y-125161018D01*
X104009928Y-125285500D01*
X104009928Y-126047500D01*
X104022188Y-126171982D01*
X104058498Y-126291680D01*
X104063747Y-126301500D01*
X104058498Y-126311320D01*
X104022188Y-126431018D01*
X104009928Y-126555500D01*
X104009928Y-127317500D01*
X104022188Y-127441982D01*
X104058498Y-127561680D01*
X104063747Y-127571500D01*
X104058498Y-127581320D01*
X104022188Y-127701018D01*
X104009928Y-127825500D01*
X104009928Y-128587500D01*
X104022188Y-128711982D01*
X104058498Y-128831680D01*
X104063747Y-128841500D01*
X104058498Y-128851320D01*
X104022188Y-128971018D01*
X104009928Y-129095500D01*
X104009928Y-129857500D01*
X104017043Y-129929741D01*
X103630000Y-129542698D01*
X103630000Y-108264802D01*
X105978802Y-105916000D01*
X126812198Y-105916000D01*
X128151800Y-107255602D01*
X128151800Y-107255602D01*
G37*
X128151800Y-107255602D02*
X128084601Y-107248064D01*
X128076796Y-107248010D01*
X128076643Y-107247994D01*
X128076500Y-107248008D01*
X128073990Y-107247990D01*
X119955600Y-107247990D01*
X119885715Y-107254842D01*
X119815798Y-107260959D01*
X119811960Y-107262074D01*
X119807982Y-107262464D01*
X119740800Y-107282747D01*
X119673361Y-107302340D01*
X119669810Y-107304181D01*
X119665987Y-107305335D01*
X119604026Y-107338280D01*
X119541675Y-107370600D01*
X119538552Y-107373093D01*
X119535022Y-107374970D01*
X119480589Y-107419365D01*
X119425755Y-107463138D01*
X119420196Y-107468620D01*
X119420078Y-107468716D01*
X119419988Y-107468825D01*
X119418199Y-107470589D01*
X117572599Y-109316189D01*
X117528032Y-109370445D01*
X117482914Y-109424215D01*
X117480989Y-109427716D01*
X117478452Y-109430805D01*
X117445287Y-109492657D01*
X117411457Y-109554194D01*
X117410248Y-109558006D01*
X117408361Y-109561525D01*
X117387848Y-109628621D01*
X117366608Y-109695577D01*
X117366162Y-109699549D01*
X117364994Y-109703371D01*
X117357897Y-109773239D01*
X117350074Y-109842979D01*
X117350020Y-109850784D01*
X117350004Y-109850937D01*
X117350018Y-109851080D01*
X117350000Y-109853590D01*
X117350000Y-118586259D01*
X117314079Y-118532193D01*
X117184875Y-118402084D01*
X117032860Y-118299549D01*
X116863825Y-118228493D01*
X116684207Y-118191623D01*
X116500849Y-118190343D01*
X116320733Y-118224701D01*
X116150722Y-118293390D01*
X115997291Y-118393793D01*
X115866283Y-118522086D01*
X115762689Y-118673381D01*
X115690454Y-118841916D01*
X115652331Y-119021272D01*
X115649771Y-119204617D01*
X115682872Y-119384968D01*
X115750372Y-119555454D01*
X115849701Y-119709583D01*
X115977076Y-119841484D01*
X116127644Y-119946131D01*
X116295671Y-120019540D01*
X116461269Y-120055949D01*
X116463214Y-120057547D01*
X116525101Y-120090731D01*
X116586603Y-120124542D01*
X116590411Y-120125750D01*
X116593934Y-120127639D01*
X116661117Y-120148179D01*
X116727986Y-120169391D01*
X116731953Y-120169836D01*
X116735780Y-120171006D01*
X116805698Y-120178108D01*
X116842000Y-120182180D01*
X116842000Y-129987198D01*
X115128198Y-131701000D01*
X114430072Y-131701000D01*
X114430072Y-131635500D01*
X114417812Y-131511018D01*
X114381502Y-131391320D01*
X114376253Y-131381500D01*
X114381502Y-131371680D01*
X114417812Y-131251982D01*
X114430072Y-131127500D01*
X114430072Y-130365500D01*
X114417812Y-130241018D01*
X114381502Y-130121320D01*
X114376253Y-130111500D01*
X114381502Y-130101680D01*
X114417812Y-129981982D01*
X114430072Y-129857500D01*
X114430072Y-129095500D01*
X114417812Y-128971018D01*
X114381502Y-128851320D01*
X114376253Y-128841500D01*
X114381502Y-128831680D01*
X114417812Y-128711982D01*
X114430072Y-128587500D01*
X114430072Y-127825500D01*
X114417812Y-127701018D01*
X114381502Y-127581320D01*
X114376253Y-127571500D01*
X114381502Y-127561680D01*
X114417812Y-127441982D01*
X114430072Y-127317500D01*
X114430072Y-126555500D01*
X114417812Y-126431018D01*
X114381502Y-126311320D01*
X114376253Y-126301500D01*
X114381502Y-126291680D01*
X114417812Y-126171982D01*
X114430072Y-126047500D01*
X114430072Y-125285500D01*
X114417812Y-125161018D01*
X114381502Y-125041320D01*
X114376253Y-125031500D01*
X114381502Y-125021680D01*
X114417812Y-124901982D01*
X114430072Y-124777500D01*
X114430072Y-124015500D01*
X114417812Y-123891018D01*
X114381502Y-123771320D01*
X114376253Y-123761500D01*
X114381502Y-123751680D01*
X114417812Y-123631982D01*
X114430072Y-123507500D01*
X114430072Y-122745500D01*
X114417812Y-122621018D01*
X114381502Y-122501320D01*
X114342311Y-122428000D01*
X114381502Y-122354680D01*
X114417812Y-122234982D01*
X114430072Y-122110500D01*
X114430072Y-121348500D01*
X114417812Y-121224018D01*
X114381502Y-121104320D01*
X114322537Y-120994006D01*
X114243185Y-120897315D01*
X114146494Y-120817963D01*
X114036180Y-120758998D01*
X113916482Y-120722688D01*
X113792000Y-120710428D01*
X112268000Y-120710428D01*
X112143518Y-120722688D01*
X112023820Y-120758998D01*
X111913506Y-120817963D01*
X111816815Y-120897315D01*
X111737463Y-120994006D01*
X111678498Y-121104320D01*
X111642188Y-121224018D01*
X111629928Y-121348500D01*
X111629928Y-121483270D01*
X110983197Y-122130001D01*
X109520017Y-122130001D01*
X109450136Y-122136853D01*
X109380214Y-122142970D01*
X109376376Y-122144085D01*
X109372399Y-122144475D01*
X109305229Y-122164755D01*
X109292504Y-122168452D01*
X109292504Y-119186802D01*
X110011401Y-118467905D01*
X110055968Y-118413649D01*
X110101086Y-118359879D01*
X110103011Y-118356378D01*
X110105548Y-118353289D01*
X110138713Y-118291437D01*
X110172543Y-118229900D01*
X110173752Y-118226088D01*
X110175639Y-118222569D01*
X110196152Y-118155473D01*
X110217392Y-118088517D01*
X110217838Y-118084545D01*
X110219006Y-118080723D01*
X110226098Y-118010899D01*
X110233926Y-117941115D01*
X110233981Y-117933300D01*
X110233995Y-117933157D01*
X110233982Y-117933024D01*
X110234000Y-117930504D01*
X110234000Y-116559247D01*
X110290911Y-116478570D01*
X110365492Y-116311060D01*
X110406116Y-116132254D01*
X110409040Y-115922819D01*
X110373425Y-115742948D01*
X110303550Y-115573420D01*
X110202079Y-115420693D01*
X110072875Y-115290584D01*
X109920860Y-115188049D01*
X109751825Y-115116993D01*
X109572207Y-115080123D01*
X109388849Y-115078843D01*
X109208733Y-115113201D01*
X109038722Y-115181890D01*
X108885291Y-115282293D01*
X108754283Y-115410586D01*
X108650689Y-115561881D01*
X108578454Y-115730416D01*
X108540331Y-115909772D01*
X108540071Y-115928380D01*
X108429207Y-115905623D01*
X108245849Y-115904343D01*
X108065733Y-115938701D01*
X107895722Y-116007390D01*
X107742291Y-116107793D01*
X107611283Y-116236086D01*
X107507689Y-116387381D01*
X107435454Y-116555916D01*
X107397331Y-116735272D01*
X107394771Y-116918617D01*
X107403419Y-116965737D01*
X107260722Y-117023390D01*
X107107291Y-117123793D01*
X106976283Y-117252086D01*
X106872689Y-117403381D01*
X106800454Y-117571916D01*
X106762331Y-117751272D01*
X106759771Y-117934617D01*
X106792872Y-118114968D01*
X106860372Y-118285454D01*
X106872500Y-118304273D01*
X106872500Y-120928444D01*
X106732233Y-120955201D01*
X106602726Y-121007525D01*
X106526494Y-120944963D01*
X106416180Y-120885998D01*
X106296482Y-120849688D01*
X106172000Y-120837428D01*
X104648000Y-120837428D01*
X104523518Y-120849688D01*
X104403820Y-120885998D01*
X104293506Y-120944963D01*
X104196815Y-121024315D01*
X104117463Y-121121006D01*
X104058498Y-121231320D01*
X104022188Y-121351018D01*
X104009928Y-121475500D01*
X104009928Y-122237500D01*
X104022188Y-122361982D01*
X104058498Y-122481680D01*
X104063747Y-122491500D01*
X104058498Y-122501320D01*
X104022188Y-122621018D01*
X104009928Y-122745500D01*
X104009928Y-123507500D01*
X104022188Y-123631982D01*
X104058498Y-123751680D01*
X104063747Y-123761500D01*
X104058498Y-123771320D01*
X104022188Y-123891018D01*
X104009928Y-124015500D01*
X104009928Y-124777500D01*
X104022188Y-124901982D01*
X104058498Y-125021680D01*
X104063747Y-125031500D01*
X104058498Y-125041320D01*
X104022188Y-125161018D01*
X104009928Y-125285500D01*
X104009928Y-126047500D01*
X104022188Y-126171982D01*
X104058498Y-126291680D01*
X104063747Y-126301500D01*
X104058498Y-126311320D01*
X104022188Y-126431018D01*
X104009928Y-126555500D01*
X104009928Y-127317500D01*
X104022188Y-127441982D01*
X104058498Y-127561680D01*
X104063747Y-127571500D01*
X104058498Y-127581320D01*
X104022188Y-127701018D01*
X104009928Y-127825500D01*
X104009928Y-128587500D01*
X104022188Y-128711982D01*
X104058498Y-128831680D01*
X104063747Y-128841500D01*
X104058498Y-128851320D01*
X104022188Y-128971018D01*
X104009928Y-129095500D01*
X104009928Y-129857500D01*
X104017043Y-129929741D01*
X103630000Y-129542698D01*
X103630000Y-108264802D01*
X105978802Y-105916000D01*
X126812198Y-105916000D01*
X128151800Y-107255602D01*
G36*
X150941500Y-110045500D02*
X150948351Y-110115377D01*
X150954469Y-110185303D01*
X150955584Y-110189141D01*
X150955974Y-110193118D01*
X150976264Y-110260321D01*
X150995851Y-110327740D01*
X150997690Y-110331288D01*
X150998845Y-110335113D01*
X151031799Y-110397091D01*
X151064110Y-110459425D01*
X151066603Y-110462548D01*
X151068480Y-110466078D01*
X151112855Y-110520487D01*
X151156648Y-110575346D01*
X151162131Y-110580906D01*
X151162226Y-110581022D01*
X151162334Y-110581111D01*
X151164099Y-110582901D01*
X153788743Y-113207545D01*
X153768760Y-113213351D01*
X153765212Y-113215190D01*
X153761387Y-113216345D01*
X153699390Y-113249309D01*
X153637074Y-113281611D01*
X153633953Y-113284103D01*
X153630422Y-113285980D01*
X153576007Y-113330359D01*
X153521154Y-113374148D01*
X153515594Y-113379631D01*
X153515478Y-113379726D01*
X153515389Y-113379834D01*
X153513599Y-113381599D01*
X147132198Y-119763000D01*
X145871184Y-119763000D01*
X145877502Y-119751180D01*
X145913812Y-119631482D01*
X145926072Y-119507000D01*
X145926072Y-118999000D01*
X145913812Y-118874518D01*
X145877502Y-118754820D01*
X145818537Y-118644506D01*
X145739185Y-118547815D01*
X145642494Y-118468463D01*
X145532180Y-118409498D01*
X145412482Y-118373188D01*
X145288000Y-118360928D01*
X145011862Y-118360928D01*
X143395684Y-116744750D01*
X145074000Y-116744750D01*
X145074000Y-116821542D01*
X145098403Y-116944223D01*
X145146270Y-117059785D01*
X145215763Y-117163789D01*
X145304211Y-117252237D01*
X145408215Y-117321730D01*
X145523777Y-117369597D01*
X145646458Y-117394000D01*
X146398250Y-117394000D01*
X146557000Y-117235250D01*
X146557000Y-116586000D01*
X146811000Y-116586000D01*
X146811000Y-117235250D01*
X146969750Y-117394000D01*
X147721542Y-117394000D01*
X147844223Y-117369597D01*
X147959785Y-117321730D01*
X148063789Y-117252237D01*
X148152237Y-117163789D01*
X148221730Y-117059785D01*
X148269597Y-116944223D01*
X148294000Y-116821542D01*
X148294000Y-116744750D01*
X148135250Y-116586000D01*
X146811000Y-116586000D01*
X146557000Y-116586000D01*
X145232750Y-116586000D01*
X145074000Y-116744750D01*
X143395684Y-116744750D01*
X141731006Y-115080072D01*
X141825500Y-115080072D01*
X141949982Y-115067812D01*
X142069680Y-115031502D01*
X142179994Y-114972537D01*
X142276685Y-114893185D01*
X142356037Y-114796494D01*
X142415002Y-114686180D01*
X142451312Y-114566482D01*
X142463572Y-114442000D01*
X142463572Y-114084430D01*
X142862150Y-113685852D01*
X143222980Y-113685852D01*
X143347462Y-113673592D01*
X143369665Y-113666857D01*
X143338331Y-113814272D01*
X143335771Y-113997617D01*
X143368872Y-114177968D01*
X143436372Y-114348454D01*
X143535701Y-114502583D01*
X143663076Y-114634484D01*
X143813644Y-114739131D01*
X143981671Y-114812540D01*
X144160757Y-114851915D01*
X144344079Y-114855755D01*
X144524657Y-114823914D01*
X144695610Y-114757606D01*
X144819473Y-114679000D01*
X145109130Y-114679000D01*
X145083188Y-114764518D01*
X145070928Y-114889000D01*
X145070928Y-115489000D01*
X145083188Y-115613482D01*
X145119498Y-115733180D01*
X145168527Y-115824905D01*
X145146270Y-115858215D01*
X145098403Y-115973777D01*
X145074000Y-116096458D01*
X145074000Y-116173250D01*
X145232750Y-116332000D01*
X146557000Y-116332000D01*
X146557000Y-116312000D01*
X146811000Y-116312000D01*
X146811000Y-116332000D01*
X148135250Y-116332000D01*
X148294000Y-116173250D01*
X148294000Y-116096458D01*
X148269597Y-115973777D01*
X148221730Y-115858215D01*
X148199473Y-115824905D01*
X148248502Y-115733180D01*
X148284812Y-115613482D01*
X148297072Y-115489000D01*
X148297072Y-115325730D01*
X149000401Y-114622401D01*
X149044968Y-114568145D01*
X149090086Y-114514375D01*
X149092011Y-114510874D01*
X149094548Y-114507785D01*
X149127732Y-114445898D01*
X149161543Y-114384396D01*
X149162751Y-114380588D01*
X149164640Y-114377065D01*
X149185167Y-114309923D01*
X149206392Y-114243013D01*
X149206838Y-114239041D01*
X149208006Y-114235219D01*
X149215103Y-114165351D01*
X149222926Y-114095611D01*
X149222980Y-114087806D01*
X149222996Y-114087653D01*
X149222982Y-114087510D01*
X149223000Y-114085000D01*
X149223000Y-113828747D01*
X149279911Y-113748070D01*
X149354492Y-113580560D01*
X149395116Y-113401754D01*
X149398040Y-113192319D01*
X149362425Y-113012448D01*
X149292550Y-112842920D01*
X149192661Y-112692574D01*
X149295429Y-112627355D01*
X149428215Y-112500904D01*
X149533911Y-112351070D01*
X149608492Y-112183560D01*
X149649116Y-112004754D01*
X149652040Y-111795319D01*
X149616425Y-111615448D01*
X149546550Y-111445920D01*
X149445079Y-111293193D01*
X149315875Y-111163084D01*
X149163860Y-111060549D01*
X148994825Y-110989493D01*
X148815207Y-110952623D01*
X148631849Y-110951343D01*
X148451733Y-110985701D01*
X148294154Y-111049367D01*
X148284812Y-110954518D01*
X148248502Y-110834820D01*
X148199957Y-110744000D01*
X148248502Y-110653180D01*
X148284812Y-110533482D01*
X148297072Y-110409000D01*
X148297072Y-109809000D01*
X148284812Y-109684518D01*
X148257430Y-109594251D01*
X148278877Y-109592149D01*
X148348803Y-109586031D01*
X148352641Y-109584916D01*
X148356618Y-109584526D01*
X148423821Y-109564236D01*
X148491240Y-109544649D01*
X148494788Y-109542810D01*
X148498613Y-109541655D01*
X148560591Y-109508701D01*
X148622925Y-109476390D01*
X148626048Y-109473897D01*
X148629578Y-109472020D01*
X148683987Y-109427645D01*
X148738846Y-109383852D01*
X148744406Y-109378369D01*
X148744522Y-109378274D01*
X148744611Y-109378166D01*
X148746401Y-109376401D01*
X150941500Y-107181302D01*
X150941500Y-110045500D01*
X150941500Y-110045500D01*
G37*
X150941500Y-110045500D02*
X150948351Y-110115377D01*
X150954469Y-110185303D01*
X150955584Y-110189141D01*
X150955974Y-110193118D01*
X150976264Y-110260321D01*
X150995851Y-110327740D01*
X150997690Y-110331288D01*
X150998845Y-110335113D01*
X151031799Y-110397091D01*
X151064110Y-110459425D01*
X151066603Y-110462548D01*
X151068480Y-110466078D01*
X151112855Y-110520487D01*
X151156648Y-110575346D01*
X151162131Y-110580906D01*
X151162226Y-110581022D01*
X151162334Y-110581111D01*
X151164099Y-110582901D01*
X153788743Y-113207545D01*
X153768760Y-113213351D01*
X153765212Y-113215190D01*
X153761387Y-113216345D01*
X153699390Y-113249309D01*
X153637074Y-113281611D01*
X153633953Y-113284103D01*
X153630422Y-113285980D01*
X153576007Y-113330359D01*
X153521154Y-113374148D01*
X153515594Y-113379631D01*
X153515478Y-113379726D01*
X153515389Y-113379834D01*
X153513599Y-113381599D01*
X147132198Y-119763000D01*
X145871184Y-119763000D01*
X145877502Y-119751180D01*
X145913812Y-119631482D01*
X145926072Y-119507000D01*
X145926072Y-118999000D01*
X145913812Y-118874518D01*
X145877502Y-118754820D01*
X145818537Y-118644506D01*
X145739185Y-118547815D01*
X145642494Y-118468463D01*
X145532180Y-118409498D01*
X145412482Y-118373188D01*
X145288000Y-118360928D01*
X145011862Y-118360928D01*
X143395684Y-116744750D01*
X145074000Y-116744750D01*
X145074000Y-116821542D01*
X145098403Y-116944223D01*
X145146270Y-117059785D01*
X145215763Y-117163789D01*
X145304211Y-117252237D01*
X145408215Y-117321730D01*
X145523777Y-117369597D01*
X145646458Y-117394000D01*
X146398250Y-117394000D01*
X146557000Y-117235250D01*
X146557000Y-116586000D01*
X146811000Y-116586000D01*
X146811000Y-117235250D01*
X146969750Y-117394000D01*
X147721542Y-117394000D01*
X147844223Y-117369597D01*
X147959785Y-117321730D01*
X148063789Y-117252237D01*
X148152237Y-117163789D01*
X148221730Y-117059785D01*
X148269597Y-116944223D01*
X148294000Y-116821542D01*
X148294000Y-116744750D01*
X148135250Y-116586000D01*
X146811000Y-116586000D01*
X146557000Y-116586000D01*
X145232750Y-116586000D01*
X145074000Y-116744750D01*
X143395684Y-116744750D01*
X141731006Y-115080072D01*
X141825500Y-115080072D01*
X141949982Y-115067812D01*
X142069680Y-115031502D01*
X142179994Y-114972537D01*
X142276685Y-114893185D01*
X142356037Y-114796494D01*
X142415002Y-114686180D01*
X142451312Y-114566482D01*
X142463572Y-114442000D01*
X142463572Y-114084430D01*
X142862150Y-113685852D01*
X143222980Y-113685852D01*
X143347462Y-113673592D01*
X143369665Y-113666857D01*
X143338331Y-113814272D01*
X143335771Y-113997617D01*
X143368872Y-114177968D01*
X143436372Y-114348454D01*
X143535701Y-114502583D01*
X143663076Y-114634484D01*
X143813644Y-114739131D01*
X143981671Y-114812540D01*
X144160757Y-114851915D01*
X144344079Y-114855755D01*
X144524657Y-114823914D01*
X144695610Y-114757606D01*
X144819473Y-114679000D01*
X145109130Y-114679000D01*
X145083188Y-114764518D01*
X145070928Y-114889000D01*
X145070928Y-115489000D01*
X145083188Y-115613482D01*
X145119498Y-115733180D01*
X145168527Y-115824905D01*
X145146270Y-115858215D01*
X145098403Y-115973777D01*
X145074000Y-116096458D01*
X145074000Y-116173250D01*
X145232750Y-116332000D01*
X146557000Y-116332000D01*
X146557000Y-116312000D01*
X146811000Y-116312000D01*
X146811000Y-116332000D01*
X148135250Y-116332000D01*
X148294000Y-116173250D01*
X148294000Y-116096458D01*
X148269597Y-115973777D01*
X148221730Y-115858215D01*
X148199473Y-115824905D01*
X148248502Y-115733180D01*
X148284812Y-115613482D01*
X148297072Y-115489000D01*
X148297072Y-115325730D01*
X149000401Y-114622401D01*
X149044968Y-114568145D01*
X149090086Y-114514375D01*
X149092011Y-114510874D01*
X149094548Y-114507785D01*
X149127732Y-114445898D01*
X149161543Y-114384396D01*
X149162751Y-114380588D01*
X149164640Y-114377065D01*
X149185167Y-114309923D01*
X149206392Y-114243013D01*
X149206838Y-114239041D01*
X149208006Y-114235219D01*
X149215103Y-114165351D01*
X149222926Y-114095611D01*
X149222980Y-114087806D01*
X149222996Y-114087653D01*
X149222982Y-114087510D01*
X149223000Y-114085000D01*
X149223000Y-113828747D01*
X149279911Y-113748070D01*
X149354492Y-113580560D01*
X149395116Y-113401754D01*
X149398040Y-113192319D01*
X149362425Y-113012448D01*
X149292550Y-112842920D01*
X149192661Y-112692574D01*
X149295429Y-112627355D01*
X149428215Y-112500904D01*
X149533911Y-112351070D01*
X149608492Y-112183560D01*
X149649116Y-112004754D01*
X149652040Y-111795319D01*
X149616425Y-111615448D01*
X149546550Y-111445920D01*
X149445079Y-111293193D01*
X149315875Y-111163084D01*
X149163860Y-111060549D01*
X148994825Y-110989493D01*
X148815207Y-110952623D01*
X148631849Y-110951343D01*
X148451733Y-110985701D01*
X148294154Y-111049367D01*
X148284812Y-110954518D01*
X148248502Y-110834820D01*
X148199957Y-110744000D01*
X148248502Y-110653180D01*
X148284812Y-110533482D01*
X148297072Y-110409000D01*
X148297072Y-109809000D01*
X148284812Y-109684518D01*
X148257430Y-109594251D01*
X148278877Y-109592149D01*
X148348803Y-109586031D01*
X148352641Y-109584916D01*
X148356618Y-109584526D01*
X148423821Y-109564236D01*
X148491240Y-109544649D01*
X148494788Y-109542810D01*
X148498613Y-109541655D01*
X148560591Y-109508701D01*
X148622925Y-109476390D01*
X148626048Y-109473897D01*
X148629578Y-109472020D01*
X148683987Y-109427645D01*
X148738846Y-109383852D01*
X148744406Y-109378369D01*
X148744522Y-109378274D01*
X148744611Y-109378166D01*
X148746401Y-109376401D01*
X150941500Y-107181302D01*
X150941500Y-110045500D01*
G36*
X177065000Y-110492567D02*
X176161217Y-109588783D01*
X176102274Y-109540367D01*
X176043880Y-109491369D01*
X176040075Y-109489277D01*
X176036722Y-109486523D01*
X175969523Y-109450491D01*
X175902699Y-109413754D01*
X175898563Y-109412442D01*
X175894736Y-109410390D01*
X175821805Y-109388093D01*
X175749131Y-109365039D01*
X175744817Y-109364555D01*
X175740666Y-109363286D01*
X175664784Y-109355578D01*
X175589026Y-109347080D01*
X175580550Y-109347021D01*
X175580381Y-109347004D01*
X175580223Y-109347019D01*
X175577500Y-109347000D01*
X172217336Y-109347000D01*
X172196502Y-109278320D01*
X172137537Y-109168006D01*
X172082500Y-109100943D01*
X172082500Y-108958057D01*
X172137537Y-108890994D01*
X172196502Y-108780680D01*
X172232812Y-108660982D01*
X172245072Y-108536500D01*
X172245072Y-107236500D01*
X172232812Y-107112018D01*
X172196502Y-106992320D01*
X172137537Y-106882006D01*
X172082500Y-106814943D01*
X172082500Y-106735557D01*
X172137537Y-106668494D01*
X172196502Y-106558180D01*
X172232812Y-106438482D01*
X172245072Y-106314000D01*
X172245072Y-105014000D01*
X172232812Y-104889518D01*
X172196502Y-104769820D01*
X172137537Y-104659506D01*
X172058185Y-104562815D01*
X172044743Y-104551783D01*
X172100237Y-104496289D01*
X172169730Y-104392285D01*
X172217597Y-104276723D01*
X172242000Y-104154042D01*
X172242000Y-103727250D01*
X172083250Y-103568500D01*
X171384000Y-103568500D01*
X171384000Y-103588500D01*
X171130000Y-103588500D01*
X171130000Y-103568500D01*
X171110000Y-103568500D01*
X171110000Y-103314500D01*
X171130000Y-103314500D01*
X171130000Y-103294500D01*
X171384000Y-103294500D01*
X171384000Y-103314500D01*
X172083250Y-103314500D01*
X172242000Y-103155750D01*
X172242000Y-102728958D01*
X172217597Y-102606277D01*
X172169730Y-102490715D01*
X172100237Y-102386711D01*
X172048526Y-102335000D01*
X177065000Y-102335000D01*
X177065000Y-110492567D01*
X177065000Y-110492567D01*
G37*
X177065000Y-110492567D02*
X176161217Y-109588783D01*
X176102274Y-109540367D01*
X176043880Y-109491369D01*
X176040075Y-109489277D01*
X176036722Y-109486523D01*
X175969523Y-109450491D01*
X175902699Y-109413754D01*
X175898563Y-109412442D01*
X175894736Y-109410390D01*
X175821805Y-109388093D01*
X175749131Y-109365039D01*
X175744817Y-109364555D01*
X175740666Y-109363286D01*
X175664784Y-109355578D01*
X175589026Y-109347080D01*
X175580550Y-109347021D01*
X175580381Y-109347004D01*
X175580223Y-109347019D01*
X175577500Y-109347000D01*
X172217336Y-109347000D01*
X172196502Y-109278320D01*
X172137537Y-109168006D01*
X172082500Y-109100943D01*
X172082500Y-108958057D01*
X172137537Y-108890994D01*
X172196502Y-108780680D01*
X172232812Y-108660982D01*
X172245072Y-108536500D01*
X172245072Y-107236500D01*
X172232812Y-107112018D01*
X172196502Y-106992320D01*
X172137537Y-106882006D01*
X172082500Y-106814943D01*
X172082500Y-106735557D01*
X172137537Y-106668494D01*
X172196502Y-106558180D01*
X172232812Y-106438482D01*
X172245072Y-106314000D01*
X172245072Y-105014000D01*
X172232812Y-104889518D01*
X172196502Y-104769820D01*
X172137537Y-104659506D01*
X172058185Y-104562815D01*
X172044743Y-104551783D01*
X172100237Y-104496289D01*
X172169730Y-104392285D01*
X172217597Y-104276723D01*
X172242000Y-104154042D01*
X172242000Y-103727250D01*
X172083250Y-103568500D01*
X171384000Y-103568500D01*
X171384000Y-103588500D01*
X171130000Y-103588500D01*
X171130000Y-103568500D01*
X171110000Y-103568500D01*
X171110000Y-103314500D01*
X171130000Y-103314500D01*
X171130000Y-103294500D01*
X171384000Y-103294500D01*
X171384000Y-103314500D01*
X172083250Y-103314500D01*
X172242000Y-103155750D01*
X172242000Y-102728958D01*
X172217597Y-102606277D01*
X172169730Y-102490715D01*
X172100237Y-102386711D01*
X172048526Y-102335000D01*
X177065000Y-102335000D01*
X177065000Y-110492567D01*
G36*
X119208331Y-102511272D02*
X119205771Y-102694617D01*
X119238872Y-102874968D01*
X119306372Y-103045454D01*
X119405701Y-103199583D01*
X119533076Y-103331484D01*
X119683644Y-103436131D01*
X119851671Y-103509540D01*
X120030757Y-103548915D01*
X120214079Y-103552755D01*
X120394657Y-103520914D01*
X120519928Y-103472325D01*
X120519928Y-103768501D01*
X105483001Y-103768501D01*
X105407098Y-103775944D01*
X105331149Y-103782588D01*
X105326978Y-103783800D01*
X105322661Y-103784223D01*
X105249667Y-103806261D01*
X105176437Y-103827536D01*
X105172585Y-103829533D01*
X105168427Y-103830788D01*
X105101117Y-103866578D01*
X105033401Y-103901678D01*
X105030005Y-103904389D01*
X105026176Y-103906425D01*
X104967109Y-103954598D01*
X104907491Y-104002191D01*
X104901450Y-104008148D01*
X104901325Y-104008250D01*
X104901229Y-104008366D01*
X104899284Y-104010284D01*
X102335000Y-106574568D01*
X102335000Y-102335000D01*
X119245798Y-102335000D01*
X119208331Y-102511272D01*
X119208331Y-102511272D01*
G37*
X119208331Y-102511272D02*
X119205771Y-102694617D01*
X119238872Y-102874968D01*
X119306372Y-103045454D01*
X119405701Y-103199583D01*
X119533076Y-103331484D01*
X119683644Y-103436131D01*
X119851671Y-103509540D01*
X120030757Y-103548915D01*
X120214079Y-103552755D01*
X120394657Y-103520914D01*
X120519928Y-103472325D01*
X120519928Y-103768501D01*
X105483001Y-103768501D01*
X105407098Y-103775944D01*
X105331149Y-103782588D01*
X105326978Y-103783800D01*
X105322661Y-103784223D01*
X105249667Y-103806261D01*
X105176437Y-103827536D01*
X105172585Y-103829533D01*
X105168427Y-103830788D01*
X105101117Y-103866578D01*
X105033401Y-103901678D01*
X105030005Y-103904389D01*
X105026176Y-103906425D01*
X104967109Y-103954598D01*
X104907491Y-104002191D01*
X104901450Y-104008148D01*
X104901325Y-104008250D01*
X104901229Y-104008366D01*
X104899284Y-104010284D01*
X102335000Y-106574568D01*
X102335000Y-102335000D01*
X119245798Y-102335000D01*
X119208331Y-102511272D01*
G36*
X134995815Y-104972185D02*
X135092506Y-105051537D01*
X135202820Y-105110502D01*
X135322518Y-105146812D01*
X135415808Y-105156000D01*
X135322518Y-105165188D01*
X135202820Y-105201498D01*
X135092506Y-105260463D01*
X134995815Y-105339815D01*
X134940572Y-105407129D01*
X134940572Y-104904871D01*
X134995815Y-104972185D01*
X134995815Y-104972185D01*
G37*
X134995815Y-104972185D02*
X135092506Y-105051537D01*
X135202820Y-105110502D01*
X135322518Y-105146812D01*
X135415808Y-105156000D01*
X135322518Y-105165188D01*
X135202820Y-105201498D01*
X135092506Y-105260463D01*
X134995815Y-105339815D01*
X134940572Y-105407129D01*
X134940572Y-104904871D01*
X134995815Y-104972185D01*
G36*
X141854000Y-103759000D02*
X141874000Y-103759000D01*
X141874000Y-104013000D01*
X141854000Y-104013000D01*
X141854000Y-104033000D01*
X141600000Y-104033000D01*
X141600000Y-104013000D01*
X141580000Y-104013000D01*
X141580000Y-103759000D01*
X141600000Y-103759000D01*
X141600000Y-103739000D01*
X141854000Y-103739000D01*
X141854000Y-103759000D01*
X141854000Y-103759000D01*
G37*
X141854000Y-103759000D02*
X141874000Y-103759000D01*
X141874000Y-104013000D01*
X141854000Y-104013000D01*
X141854000Y-104033000D01*
X141600000Y-104033000D01*
X141600000Y-104013000D01*
X141580000Y-104013000D01*
X141580000Y-103759000D01*
X141600000Y-103759000D01*
X141600000Y-103739000D01*
X141854000Y-103739000D01*
X141854000Y-103759000D01*
M02*
