G04 #@! TF.FileFunction,Legend,Bot*
%FSLAX46Y46*%
G04 Gerber Fmt 4.6, Leading zero omitted, Abs format (unit mm)*
G04 Created by KiCad (PCBNEW (2016-05-05 BZR 6775)-product) date Saturday, June 04, 2016 'PMt' 10:04:22 PM*
%MOMM*%
%LPD*%
G01*
G04 APERTURE LIST*
%ADD10C,0.100000*%
%ADD11C,0.150000*%
G04 APERTURE END LIST*
D10*
D11*
X135290000Y-117240000D02*
X135690000Y-117640000D01*
X136490000Y-116040000D02*
X135290000Y-116040000D01*
X135290000Y-116040000D02*
X135290000Y-117640000D01*
X135290000Y-117640000D02*
X136490000Y-117640000D01*
X136490000Y-117640000D02*
X136490000Y-116040000D01*
X122590000Y-124860000D02*
X122990000Y-125260000D01*
X123790000Y-123660000D02*
X122590000Y-123660000D01*
X122590000Y-123660000D02*
X122590000Y-125260000D01*
X122590000Y-125260000D02*
X123790000Y-125260000D01*
X123790000Y-125260000D02*
X123790000Y-123660000D01*
X122590000Y-132480000D02*
X122990000Y-132880000D01*
X123790000Y-131280000D02*
X122590000Y-131280000D01*
X122590000Y-131280000D02*
X122590000Y-132880000D01*
X122590000Y-132880000D02*
X123790000Y-132880000D01*
X123790000Y-132880000D02*
X123790000Y-131280000D01*
X122590000Y-140100000D02*
X122990000Y-140500000D01*
X123790000Y-138900000D02*
X122590000Y-138900000D01*
X122590000Y-138900000D02*
X122590000Y-140500000D01*
X122590000Y-140500000D02*
X123790000Y-140500000D01*
X123790000Y-140500000D02*
X123790000Y-138900000D01*
X113700000Y-117240000D02*
X114100000Y-117640000D01*
X114900000Y-116040000D02*
X113700000Y-116040000D01*
X113700000Y-116040000D02*
X113700000Y-117640000D01*
X113700000Y-117640000D02*
X114900000Y-117640000D01*
X114900000Y-117640000D02*
X114900000Y-116040000D01*
X113700000Y-124860000D02*
X114100000Y-125260000D01*
X114900000Y-123660000D02*
X113700000Y-123660000D01*
X113700000Y-123660000D02*
X113700000Y-125260000D01*
X113700000Y-125260000D02*
X114900000Y-125260000D01*
X114900000Y-125260000D02*
X114900000Y-123660000D01*
X113700000Y-132480000D02*
X114100000Y-132880000D01*
X114900000Y-131280000D02*
X113700000Y-131280000D01*
X113700000Y-131280000D02*
X113700000Y-132880000D01*
X113700000Y-132880000D02*
X114900000Y-132880000D01*
X114900000Y-132880000D02*
X114900000Y-131280000D01*
X113700000Y-140100000D02*
X114100000Y-140500000D01*
X114900000Y-138900000D02*
X113700000Y-138900000D01*
X113700000Y-138900000D02*
X113700000Y-140500000D01*
X113700000Y-140500000D02*
X114900000Y-140500000D01*
X114900000Y-140500000D02*
X114900000Y-138900000D01*
X144180000Y-124860000D02*
X144580000Y-125260000D01*
X145380000Y-123660000D02*
X144180000Y-123660000D01*
X144180000Y-123660000D02*
X144180000Y-125260000D01*
X144180000Y-125260000D02*
X145380000Y-125260000D01*
X145380000Y-125260000D02*
X145380000Y-123660000D01*
X144180000Y-132480000D02*
X144580000Y-132880000D01*
X145380000Y-131280000D02*
X144180000Y-131280000D01*
X144180000Y-131280000D02*
X144180000Y-132880000D01*
X144180000Y-132880000D02*
X145380000Y-132880000D01*
X145380000Y-132880000D02*
X145380000Y-131280000D01*
X144180000Y-140100000D02*
X144580000Y-140500000D01*
X145380000Y-138900000D02*
X144180000Y-138900000D01*
X144180000Y-138900000D02*
X144180000Y-140500000D01*
X144180000Y-140500000D02*
X145380000Y-140500000D01*
X145380000Y-140500000D02*
X145380000Y-138900000D01*
X135290000Y-124860000D02*
X135690000Y-125260000D01*
X136490000Y-123660000D02*
X135290000Y-123660000D01*
X135290000Y-123660000D02*
X135290000Y-125260000D01*
X135290000Y-125260000D02*
X136490000Y-125260000D01*
X136490000Y-125260000D02*
X136490000Y-123660000D01*
X135290000Y-132480000D02*
X135690000Y-132880000D01*
X136490000Y-131280000D02*
X135290000Y-131280000D01*
X135290000Y-131280000D02*
X135290000Y-132880000D01*
X135290000Y-132880000D02*
X136490000Y-132880000D01*
X136490000Y-132880000D02*
X136490000Y-131280000D01*
X135290000Y-140100000D02*
X135690000Y-140500000D01*
X136490000Y-138900000D02*
X135290000Y-138900000D01*
X135290000Y-138900000D02*
X135290000Y-140500000D01*
X135290000Y-140500000D02*
X136490000Y-140500000D01*
X136490000Y-140500000D02*
X136490000Y-138900000D01*
X164500000Y-132480000D02*
X164900000Y-132880000D01*
X165700000Y-131280000D02*
X164500000Y-131280000D01*
X164500000Y-131280000D02*
X164500000Y-132880000D01*
X164500000Y-132880000D02*
X165700000Y-132880000D01*
X165700000Y-132880000D02*
X165700000Y-131280000D01*
X164500000Y-140100000D02*
X164900000Y-140500000D01*
X165700000Y-138900000D02*
X164500000Y-138900000D01*
X164500000Y-138900000D02*
X164500000Y-140500000D01*
X164500000Y-140500000D02*
X165700000Y-140500000D01*
X165700000Y-140500000D02*
X165700000Y-138900000D01*
X155610000Y-117240000D02*
X156010000Y-117640000D01*
X156810000Y-116040000D02*
X155610000Y-116040000D01*
X155610000Y-116040000D02*
X155610000Y-117640000D01*
X155610000Y-117640000D02*
X156810000Y-117640000D01*
X156810000Y-117640000D02*
X156810000Y-116040000D01*
X155610000Y-124860000D02*
X156010000Y-125260000D01*
X156810000Y-123660000D02*
X155610000Y-123660000D01*
X155610000Y-123660000D02*
X155610000Y-125260000D01*
X155610000Y-125260000D02*
X156810000Y-125260000D01*
X156810000Y-125260000D02*
X156810000Y-123660000D01*
X155610000Y-132480000D02*
X156010000Y-132880000D01*
X156810000Y-131280000D02*
X155610000Y-131280000D01*
X155610000Y-131280000D02*
X155610000Y-132880000D01*
X155610000Y-132880000D02*
X156810000Y-132880000D01*
X156810000Y-132880000D02*
X156810000Y-131280000D01*
X155610000Y-140100000D02*
X156010000Y-140500000D01*
X156810000Y-138900000D02*
X155610000Y-138900000D01*
X155610000Y-138900000D02*
X155610000Y-140500000D01*
X155610000Y-140500000D02*
X156810000Y-140500000D01*
X156810000Y-140500000D02*
X156810000Y-138900000D01*
X137961428Y-121102380D02*
X137961428Y-120102380D01*
X137723333Y-120102380D01*
X137580476Y-120150000D01*
X137485238Y-120245238D01*
X137437619Y-120340476D01*
X137390000Y-120530952D01*
X137390000Y-120673809D01*
X137437619Y-120864285D01*
X137485238Y-120959523D01*
X137580476Y-121054761D01*
X137723333Y-121102380D01*
X137961428Y-121102380D01*
X137199523Y-121197619D02*
X136437619Y-121197619D01*
X136199523Y-121102380D02*
X136199523Y-120102380D01*
X135866190Y-120816666D01*
X135532857Y-120102380D01*
X135532857Y-121102380D01*
X135294761Y-121197619D02*
X134532857Y-121197619D01*
X134151904Y-120530952D02*
X134247142Y-120483333D01*
X134294761Y-120435714D01*
X134342380Y-120340476D01*
X134342380Y-120292857D01*
X134294761Y-120197619D01*
X134247142Y-120150000D01*
X134151904Y-120102380D01*
X133961428Y-120102380D01*
X133866190Y-120150000D01*
X133818571Y-120197619D01*
X133770952Y-120292857D01*
X133770952Y-120340476D01*
X133818571Y-120435714D01*
X133866190Y-120483333D01*
X133961428Y-120530952D01*
X134151904Y-120530952D01*
X134247142Y-120578571D01*
X134294761Y-120626190D01*
X134342380Y-120721428D01*
X134342380Y-120911904D01*
X134294761Y-121007142D01*
X134247142Y-121054761D01*
X134151904Y-121102380D01*
X133961428Y-121102380D01*
X133866190Y-121054761D01*
X133818571Y-121007142D01*
X133770952Y-120911904D01*
X133770952Y-120721428D01*
X133818571Y-120626190D01*
X133866190Y-120578571D01*
X133961428Y-120530952D01*
X125642380Y-128722380D02*
X125642380Y-127722380D01*
X125404285Y-127722380D01*
X125261428Y-127770000D01*
X125166190Y-127865238D01*
X125118571Y-127960476D01*
X125070952Y-128150952D01*
X125070952Y-128293809D01*
X125118571Y-128484285D01*
X125166190Y-128579523D01*
X125261428Y-128674761D01*
X125404285Y-128722380D01*
X125642380Y-128722380D01*
X124880476Y-128817619D02*
X124118571Y-128817619D01*
X123928095Y-128674761D02*
X123785238Y-128722380D01*
X123547142Y-128722380D01*
X123451904Y-128674761D01*
X123404285Y-128627142D01*
X123356666Y-128531904D01*
X123356666Y-128436666D01*
X123404285Y-128341428D01*
X123451904Y-128293809D01*
X123547142Y-128246190D01*
X123737619Y-128198571D01*
X123832857Y-128150952D01*
X123880476Y-128103333D01*
X123928095Y-128008095D01*
X123928095Y-127912857D01*
X123880476Y-127817619D01*
X123832857Y-127770000D01*
X123737619Y-127722380D01*
X123499523Y-127722380D01*
X123356666Y-127770000D01*
X123166190Y-128817619D02*
X122404285Y-128817619D01*
X121737619Y-128055714D02*
X121737619Y-128722380D01*
X121975714Y-127674761D02*
X122213809Y-128389047D01*
X121594761Y-128389047D01*
X121023333Y-127722380D02*
X120928095Y-127722380D01*
X120832857Y-127770000D01*
X120785238Y-127817619D01*
X120737619Y-127912857D01*
X120690000Y-128103333D01*
X120690000Y-128341428D01*
X120737619Y-128531904D01*
X120785238Y-128627142D01*
X120832857Y-128674761D01*
X120928095Y-128722380D01*
X121023333Y-128722380D01*
X121118571Y-128674761D01*
X121166190Y-128627142D01*
X121213809Y-128531904D01*
X121261428Y-128341428D01*
X121261428Y-128103333D01*
X121213809Y-127912857D01*
X121166190Y-127817619D01*
X121118571Y-127770000D01*
X121023333Y-127722380D01*
X125642380Y-136342380D02*
X125642380Y-135342380D01*
X125404285Y-135342380D01*
X125261428Y-135390000D01*
X125166190Y-135485238D01*
X125118571Y-135580476D01*
X125070952Y-135770952D01*
X125070952Y-135913809D01*
X125118571Y-136104285D01*
X125166190Y-136199523D01*
X125261428Y-136294761D01*
X125404285Y-136342380D01*
X125642380Y-136342380D01*
X124880476Y-136437619D02*
X124118571Y-136437619D01*
X123928095Y-136294761D02*
X123785238Y-136342380D01*
X123547142Y-136342380D01*
X123451904Y-136294761D01*
X123404285Y-136247142D01*
X123356666Y-136151904D01*
X123356666Y-136056666D01*
X123404285Y-135961428D01*
X123451904Y-135913809D01*
X123547142Y-135866190D01*
X123737619Y-135818571D01*
X123832857Y-135770952D01*
X123880476Y-135723333D01*
X123928095Y-135628095D01*
X123928095Y-135532857D01*
X123880476Y-135437619D01*
X123832857Y-135390000D01*
X123737619Y-135342380D01*
X123499523Y-135342380D01*
X123356666Y-135390000D01*
X123166190Y-136437619D02*
X122404285Y-136437619D01*
X122213809Y-135437619D02*
X122166190Y-135390000D01*
X122070952Y-135342380D01*
X121832857Y-135342380D01*
X121737619Y-135390000D01*
X121690000Y-135437619D01*
X121642380Y-135532857D01*
X121642380Y-135628095D01*
X121690000Y-135770952D01*
X122261428Y-136342380D01*
X121642380Y-136342380D01*
X121023333Y-135342380D02*
X120928095Y-135342380D01*
X120832857Y-135390000D01*
X120785238Y-135437619D01*
X120737619Y-135532857D01*
X120690000Y-135723333D01*
X120690000Y-135961428D01*
X120737619Y-136151904D01*
X120785238Y-136247142D01*
X120832857Y-136294761D01*
X120928095Y-136342380D01*
X121023333Y-136342380D01*
X121118571Y-136294761D01*
X121166190Y-136247142D01*
X121213809Y-136151904D01*
X121261428Y-135961428D01*
X121261428Y-135723333D01*
X121213809Y-135532857D01*
X121166190Y-135437619D01*
X121118571Y-135390000D01*
X121023333Y-135342380D01*
X125642380Y-143962380D02*
X125642380Y-142962380D01*
X125404285Y-142962380D01*
X125261428Y-143010000D01*
X125166190Y-143105238D01*
X125118571Y-143200476D01*
X125070952Y-143390952D01*
X125070952Y-143533809D01*
X125118571Y-143724285D01*
X125166190Y-143819523D01*
X125261428Y-143914761D01*
X125404285Y-143962380D01*
X125642380Y-143962380D01*
X124880476Y-144057619D02*
X124118571Y-144057619D01*
X123928095Y-143914761D02*
X123785238Y-143962380D01*
X123547142Y-143962380D01*
X123451904Y-143914761D01*
X123404285Y-143867142D01*
X123356666Y-143771904D01*
X123356666Y-143676666D01*
X123404285Y-143581428D01*
X123451904Y-143533809D01*
X123547142Y-143486190D01*
X123737619Y-143438571D01*
X123832857Y-143390952D01*
X123880476Y-143343333D01*
X123928095Y-143248095D01*
X123928095Y-143152857D01*
X123880476Y-143057619D01*
X123832857Y-143010000D01*
X123737619Y-142962380D01*
X123499523Y-142962380D01*
X123356666Y-143010000D01*
X123166190Y-144057619D02*
X122404285Y-144057619D01*
X121642380Y-143962380D02*
X122213809Y-143962380D01*
X121928095Y-143962380D02*
X121928095Y-142962380D01*
X122023333Y-143105238D01*
X122118571Y-143200476D01*
X122213809Y-143248095D01*
X121023333Y-142962380D02*
X120928095Y-142962380D01*
X120832857Y-143010000D01*
X120785238Y-143057619D01*
X120737619Y-143152857D01*
X120690000Y-143343333D01*
X120690000Y-143581428D01*
X120737619Y-143771904D01*
X120785238Y-143867142D01*
X120832857Y-143914761D01*
X120928095Y-143962380D01*
X121023333Y-143962380D01*
X121118571Y-143914761D01*
X121166190Y-143867142D01*
X121213809Y-143771904D01*
X121261428Y-143581428D01*
X121261428Y-143343333D01*
X121213809Y-143152857D01*
X121166190Y-143057619D01*
X121118571Y-143010000D01*
X121023333Y-142962380D01*
X116276190Y-121102380D02*
X116276190Y-120102380D01*
X116038095Y-120102380D01*
X115895238Y-120150000D01*
X115800000Y-120245238D01*
X115752380Y-120340476D01*
X115704761Y-120530952D01*
X115704761Y-120673809D01*
X115752380Y-120864285D01*
X115800000Y-120959523D01*
X115895238Y-121054761D01*
X116038095Y-121102380D01*
X116276190Y-121102380D01*
X115514285Y-121197619D02*
X114752380Y-121197619D01*
X114561904Y-121054761D02*
X114419047Y-121102380D01*
X114180952Y-121102380D01*
X114085714Y-121054761D01*
X114038095Y-121007142D01*
X113990476Y-120911904D01*
X113990476Y-120816666D01*
X114038095Y-120721428D01*
X114085714Y-120673809D01*
X114180952Y-120626190D01*
X114371428Y-120578571D01*
X114466666Y-120530952D01*
X114514285Y-120483333D01*
X114561904Y-120388095D01*
X114561904Y-120292857D01*
X114514285Y-120197619D01*
X114466666Y-120150000D01*
X114371428Y-120102380D01*
X114133333Y-120102380D01*
X113990476Y-120150000D01*
X113800000Y-121197619D02*
X113038095Y-121197619D01*
X112657142Y-120530952D02*
X112752380Y-120483333D01*
X112800000Y-120435714D01*
X112847619Y-120340476D01*
X112847619Y-120292857D01*
X112800000Y-120197619D01*
X112752380Y-120150000D01*
X112657142Y-120102380D01*
X112466666Y-120102380D01*
X112371428Y-120150000D01*
X112323809Y-120197619D01*
X112276190Y-120292857D01*
X112276190Y-120340476D01*
X112323809Y-120435714D01*
X112371428Y-120483333D01*
X112466666Y-120530952D01*
X112657142Y-120530952D01*
X112752380Y-120578571D01*
X112800000Y-120626190D01*
X112847619Y-120721428D01*
X112847619Y-120911904D01*
X112800000Y-121007142D01*
X112752380Y-121054761D01*
X112657142Y-121102380D01*
X112466666Y-121102380D01*
X112371428Y-121054761D01*
X112323809Y-121007142D01*
X112276190Y-120911904D01*
X112276190Y-120721428D01*
X112323809Y-120626190D01*
X112371428Y-120578571D01*
X112466666Y-120530952D01*
X116276190Y-128722380D02*
X116276190Y-127722380D01*
X116038095Y-127722380D01*
X115895238Y-127770000D01*
X115800000Y-127865238D01*
X115752380Y-127960476D01*
X115704761Y-128150952D01*
X115704761Y-128293809D01*
X115752380Y-128484285D01*
X115800000Y-128579523D01*
X115895238Y-128674761D01*
X116038095Y-128722380D01*
X116276190Y-128722380D01*
X115514285Y-128817619D02*
X114752380Y-128817619D01*
X114561904Y-128674761D02*
X114419047Y-128722380D01*
X114180952Y-128722380D01*
X114085714Y-128674761D01*
X114038095Y-128627142D01*
X113990476Y-128531904D01*
X113990476Y-128436666D01*
X114038095Y-128341428D01*
X114085714Y-128293809D01*
X114180952Y-128246190D01*
X114371428Y-128198571D01*
X114466666Y-128150952D01*
X114514285Y-128103333D01*
X114561904Y-128008095D01*
X114561904Y-127912857D01*
X114514285Y-127817619D01*
X114466666Y-127770000D01*
X114371428Y-127722380D01*
X114133333Y-127722380D01*
X113990476Y-127770000D01*
X113800000Y-128817619D02*
X113038095Y-128817619D01*
X112371428Y-128055714D02*
X112371428Y-128722380D01*
X112609523Y-127674761D02*
X112847619Y-128389047D01*
X112228571Y-128389047D01*
X116276190Y-136342380D02*
X116276190Y-135342380D01*
X116038095Y-135342380D01*
X115895238Y-135390000D01*
X115800000Y-135485238D01*
X115752380Y-135580476D01*
X115704761Y-135770952D01*
X115704761Y-135913809D01*
X115752380Y-136104285D01*
X115800000Y-136199523D01*
X115895238Y-136294761D01*
X116038095Y-136342380D01*
X116276190Y-136342380D01*
X115514285Y-136437619D02*
X114752380Y-136437619D01*
X114561904Y-136294761D02*
X114419047Y-136342380D01*
X114180952Y-136342380D01*
X114085714Y-136294761D01*
X114038095Y-136247142D01*
X113990476Y-136151904D01*
X113990476Y-136056666D01*
X114038095Y-135961428D01*
X114085714Y-135913809D01*
X114180952Y-135866190D01*
X114371428Y-135818571D01*
X114466666Y-135770952D01*
X114514285Y-135723333D01*
X114561904Y-135628095D01*
X114561904Y-135532857D01*
X114514285Y-135437619D01*
X114466666Y-135390000D01*
X114371428Y-135342380D01*
X114133333Y-135342380D01*
X113990476Y-135390000D01*
X113800000Y-136437619D02*
X113038095Y-136437619D01*
X112847619Y-135437619D02*
X112800000Y-135390000D01*
X112704761Y-135342380D01*
X112466666Y-135342380D01*
X112371428Y-135390000D01*
X112323809Y-135437619D01*
X112276190Y-135532857D01*
X112276190Y-135628095D01*
X112323809Y-135770952D01*
X112895238Y-136342380D01*
X112276190Y-136342380D01*
X116276190Y-143962380D02*
X116276190Y-142962380D01*
X116038095Y-142962380D01*
X115895238Y-143010000D01*
X115800000Y-143105238D01*
X115752380Y-143200476D01*
X115704761Y-143390952D01*
X115704761Y-143533809D01*
X115752380Y-143724285D01*
X115800000Y-143819523D01*
X115895238Y-143914761D01*
X116038095Y-143962380D01*
X116276190Y-143962380D01*
X115514285Y-144057619D02*
X114752380Y-144057619D01*
X114561904Y-143914761D02*
X114419047Y-143962380D01*
X114180952Y-143962380D01*
X114085714Y-143914761D01*
X114038095Y-143867142D01*
X113990476Y-143771904D01*
X113990476Y-143676666D01*
X114038095Y-143581428D01*
X114085714Y-143533809D01*
X114180952Y-143486190D01*
X114371428Y-143438571D01*
X114466666Y-143390952D01*
X114514285Y-143343333D01*
X114561904Y-143248095D01*
X114561904Y-143152857D01*
X114514285Y-143057619D01*
X114466666Y-143010000D01*
X114371428Y-142962380D01*
X114133333Y-142962380D01*
X113990476Y-143010000D01*
X113800000Y-144057619D02*
X113038095Y-144057619D01*
X112276190Y-143962380D02*
X112847619Y-143962380D01*
X112561904Y-143962380D02*
X112561904Y-142962380D01*
X112657142Y-143105238D01*
X112752380Y-143200476D01*
X112847619Y-143248095D01*
X147327619Y-128722380D02*
X147327619Y-127722380D01*
X147089523Y-127722380D01*
X146946666Y-127770000D01*
X146851428Y-127865238D01*
X146803809Y-127960476D01*
X146756190Y-128150952D01*
X146756190Y-128293809D01*
X146803809Y-128484285D01*
X146851428Y-128579523D01*
X146946666Y-128674761D01*
X147089523Y-128722380D01*
X147327619Y-128722380D01*
X146565714Y-128817619D02*
X145803809Y-128817619D01*
X145565714Y-128722380D02*
X145565714Y-127722380D01*
X145232380Y-128436666D01*
X144899047Y-127722380D01*
X144899047Y-128722380D01*
X144660952Y-128817619D02*
X143899047Y-128817619D01*
X143232380Y-128055714D02*
X143232380Y-128722380D01*
X143470476Y-127674761D02*
X143708571Y-128389047D01*
X143089523Y-128389047D01*
X142518095Y-127722380D02*
X142422857Y-127722380D01*
X142327619Y-127770000D01*
X142280000Y-127817619D01*
X142232380Y-127912857D01*
X142184761Y-128103333D01*
X142184761Y-128341428D01*
X142232380Y-128531904D01*
X142280000Y-128627142D01*
X142327619Y-128674761D01*
X142422857Y-128722380D01*
X142518095Y-128722380D01*
X142613333Y-128674761D01*
X142660952Y-128627142D01*
X142708571Y-128531904D01*
X142756190Y-128341428D01*
X142756190Y-128103333D01*
X142708571Y-127912857D01*
X142660952Y-127817619D01*
X142613333Y-127770000D01*
X142518095Y-127722380D01*
X147327619Y-136342380D02*
X147327619Y-135342380D01*
X147089523Y-135342380D01*
X146946666Y-135390000D01*
X146851428Y-135485238D01*
X146803809Y-135580476D01*
X146756190Y-135770952D01*
X146756190Y-135913809D01*
X146803809Y-136104285D01*
X146851428Y-136199523D01*
X146946666Y-136294761D01*
X147089523Y-136342380D01*
X147327619Y-136342380D01*
X146565714Y-136437619D02*
X145803809Y-136437619D01*
X145565714Y-136342380D02*
X145565714Y-135342380D01*
X145232380Y-136056666D01*
X144899047Y-135342380D01*
X144899047Y-136342380D01*
X144660952Y-136437619D02*
X143899047Y-136437619D01*
X143708571Y-135437619D02*
X143660952Y-135390000D01*
X143565714Y-135342380D01*
X143327619Y-135342380D01*
X143232380Y-135390000D01*
X143184761Y-135437619D01*
X143137142Y-135532857D01*
X143137142Y-135628095D01*
X143184761Y-135770952D01*
X143756190Y-136342380D01*
X143137142Y-136342380D01*
X142518095Y-135342380D02*
X142422857Y-135342380D01*
X142327619Y-135390000D01*
X142280000Y-135437619D01*
X142232380Y-135532857D01*
X142184761Y-135723333D01*
X142184761Y-135961428D01*
X142232380Y-136151904D01*
X142280000Y-136247142D01*
X142327619Y-136294761D01*
X142422857Y-136342380D01*
X142518095Y-136342380D01*
X142613333Y-136294761D01*
X142660952Y-136247142D01*
X142708571Y-136151904D01*
X142756190Y-135961428D01*
X142756190Y-135723333D01*
X142708571Y-135532857D01*
X142660952Y-135437619D01*
X142613333Y-135390000D01*
X142518095Y-135342380D01*
X147327619Y-143962380D02*
X147327619Y-142962380D01*
X147089523Y-142962380D01*
X146946666Y-143010000D01*
X146851428Y-143105238D01*
X146803809Y-143200476D01*
X146756190Y-143390952D01*
X146756190Y-143533809D01*
X146803809Y-143724285D01*
X146851428Y-143819523D01*
X146946666Y-143914761D01*
X147089523Y-143962380D01*
X147327619Y-143962380D01*
X146565714Y-144057619D02*
X145803809Y-144057619D01*
X145565714Y-143962380D02*
X145565714Y-142962380D01*
X145232380Y-143676666D01*
X144899047Y-142962380D01*
X144899047Y-143962380D01*
X144660952Y-144057619D02*
X143899047Y-144057619D01*
X143137142Y-143962380D02*
X143708571Y-143962380D01*
X143422857Y-143962380D02*
X143422857Y-142962380D01*
X143518095Y-143105238D01*
X143613333Y-143200476D01*
X143708571Y-143248095D01*
X142518095Y-142962380D02*
X142422857Y-142962380D01*
X142327619Y-143010000D01*
X142280000Y-143057619D01*
X142232380Y-143152857D01*
X142184761Y-143343333D01*
X142184761Y-143581428D01*
X142232380Y-143771904D01*
X142280000Y-143867142D01*
X142327619Y-143914761D01*
X142422857Y-143962380D01*
X142518095Y-143962380D01*
X142613333Y-143914761D01*
X142660952Y-143867142D01*
X142708571Y-143771904D01*
X142756190Y-143581428D01*
X142756190Y-143343333D01*
X142708571Y-143152857D01*
X142660952Y-143057619D01*
X142613333Y-143010000D01*
X142518095Y-142962380D01*
X137961428Y-128722380D02*
X137961428Y-127722380D01*
X137723333Y-127722380D01*
X137580476Y-127770000D01*
X137485238Y-127865238D01*
X137437619Y-127960476D01*
X137390000Y-128150952D01*
X137390000Y-128293809D01*
X137437619Y-128484285D01*
X137485238Y-128579523D01*
X137580476Y-128674761D01*
X137723333Y-128722380D01*
X137961428Y-128722380D01*
X137199523Y-128817619D02*
X136437619Y-128817619D01*
X136199523Y-128722380D02*
X136199523Y-127722380D01*
X135866190Y-128436666D01*
X135532857Y-127722380D01*
X135532857Y-128722380D01*
X135294761Y-128817619D02*
X134532857Y-128817619D01*
X133866190Y-128055714D02*
X133866190Y-128722380D01*
X134104285Y-127674761D02*
X134342380Y-128389047D01*
X133723333Y-128389047D01*
X137961428Y-136342380D02*
X137961428Y-135342380D01*
X137723333Y-135342380D01*
X137580476Y-135390000D01*
X137485238Y-135485238D01*
X137437619Y-135580476D01*
X137390000Y-135770952D01*
X137390000Y-135913809D01*
X137437619Y-136104285D01*
X137485238Y-136199523D01*
X137580476Y-136294761D01*
X137723333Y-136342380D01*
X137961428Y-136342380D01*
X137199523Y-136437619D02*
X136437619Y-136437619D01*
X136199523Y-136342380D02*
X136199523Y-135342380D01*
X135866190Y-136056666D01*
X135532857Y-135342380D01*
X135532857Y-136342380D01*
X135294761Y-136437619D02*
X134532857Y-136437619D01*
X134342380Y-135437619D02*
X134294761Y-135390000D01*
X134199523Y-135342380D01*
X133961428Y-135342380D01*
X133866190Y-135390000D01*
X133818571Y-135437619D01*
X133770952Y-135532857D01*
X133770952Y-135628095D01*
X133818571Y-135770952D01*
X134390000Y-136342380D01*
X133770952Y-136342380D01*
X137961428Y-143962380D02*
X137961428Y-142962380D01*
X137723333Y-142962380D01*
X137580476Y-143010000D01*
X137485238Y-143105238D01*
X137437619Y-143200476D01*
X137390000Y-143390952D01*
X137390000Y-143533809D01*
X137437619Y-143724285D01*
X137485238Y-143819523D01*
X137580476Y-143914761D01*
X137723333Y-143962380D01*
X137961428Y-143962380D01*
X137199523Y-144057619D02*
X136437619Y-144057619D01*
X136199523Y-143962380D02*
X136199523Y-142962380D01*
X135866190Y-143676666D01*
X135532857Y-142962380D01*
X135532857Y-143962380D01*
X135294761Y-144057619D02*
X134532857Y-144057619D01*
X133770952Y-143962380D02*
X134342380Y-143962380D01*
X134056666Y-143962380D02*
X134056666Y-142962380D01*
X134151904Y-143105238D01*
X134247142Y-143200476D01*
X134342380Y-143248095D01*
X167600000Y-136342380D02*
X167600000Y-135342380D01*
X167361904Y-135342380D01*
X167219047Y-135390000D01*
X167123809Y-135485238D01*
X167076190Y-135580476D01*
X167028571Y-135770952D01*
X167028571Y-135913809D01*
X167076190Y-136104285D01*
X167123809Y-136199523D01*
X167219047Y-136294761D01*
X167361904Y-136342380D01*
X167600000Y-136342380D01*
X166838095Y-136437619D02*
X166076190Y-136437619D01*
X165838095Y-136342380D02*
X165838095Y-135342380D01*
X165838095Y-135818571D02*
X165266666Y-135818571D01*
X165266666Y-136342380D02*
X165266666Y-135342380D01*
X165028571Y-136437619D02*
X164266666Y-136437619D01*
X164076190Y-135437619D02*
X164028571Y-135390000D01*
X163933333Y-135342380D01*
X163695238Y-135342380D01*
X163600000Y-135390000D01*
X163552380Y-135437619D01*
X163504761Y-135532857D01*
X163504761Y-135628095D01*
X163552380Y-135770952D01*
X164123809Y-136342380D01*
X163504761Y-136342380D01*
X162885714Y-135342380D02*
X162790476Y-135342380D01*
X162695238Y-135390000D01*
X162647619Y-135437619D01*
X162600000Y-135532857D01*
X162552380Y-135723333D01*
X162552380Y-135961428D01*
X162600000Y-136151904D01*
X162647619Y-136247142D01*
X162695238Y-136294761D01*
X162790476Y-136342380D01*
X162885714Y-136342380D01*
X162980952Y-136294761D01*
X163028571Y-136247142D01*
X163076190Y-136151904D01*
X163123809Y-135961428D01*
X163123809Y-135723333D01*
X163076190Y-135532857D01*
X163028571Y-135437619D01*
X162980952Y-135390000D01*
X162885714Y-135342380D01*
X167600000Y-143962380D02*
X167600000Y-142962380D01*
X167361904Y-142962380D01*
X167219047Y-143010000D01*
X167123809Y-143105238D01*
X167076190Y-143200476D01*
X167028571Y-143390952D01*
X167028571Y-143533809D01*
X167076190Y-143724285D01*
X167123809Y-143819523D01*
X167219047Y-143914761D01*
X167361904Y-143962380D01*
X167600000Y-143962380D01*
X166838095Y-144057619D02*
X166076190Y-144057619D01*
X165838095Y-143962380D02*
X165838095Y-142962380D01*
X165838095Y-143438571D02*
X165266666Y-143438571D01*
X165266666Y-143962380D02*
X165266666Y-142962380D01*
X165028571Y-144057619D02*
X164266666Y-144057619D01*
X163504761Y-143962380D02*
X164076190Y-143962380D01*
X163790476Y-143962380D02*
X163790476Y-142962380D01*
X163885714Y-143105238D01*
X163980952Y-143200476D01*
X164076190Y-143248095D01*
X162885714Y-142962380D02*
X162790476Y-142962380D01*
X162695238Y-143010000D01*
X162647619Y-143057619D01*
X162600000Y-143152857D01*
X162552380Y-143343333D01*
X162552380Y-143581428D01*
X162600000Y-143771904D01*
X162647619Y-143867142D01*
X162695238Y-143914761D01*
X162790476Y-143962380D01*
X162885714Y-143962380D01*
X162980952Y-143914761D01*
X163028571Y-143867142D01*
X163076190Y-143771904D01*
X163123809Y-143581428D01*
X163123809Y-143343333D01*
X163076190Y-143152857D01*
X163028571Y-143057619D01*
X162980952Y-143010000D01*
X162885714Y-142962380D01*
X158233809Y-121102380D02*
X158233809Y-120102380D01*
X157995714Y-120102380D01*
X157852857Y-120150000D01*
X157757619Y-120245238D01*
X157710000Y-120340476D01*
X157662380Y-120530952D01*
X157662380Y-120673809D01*
X157710000Y-120864285D01*
X157757619Y-120959523D01*
X157852857Y-121054761D01*
X157995714Y-121102380D01*
X158233809Y-121102380D01*
X157471904Y-121197619D02*
X156710000Y-121197619D01*
X156471904Y-121102380D02*
X156471904Y-120102380D01*
X156471904Y-120578571D02*
X155900476Y-120578571D01*
X155900476Y-121102380D02*
X155900476Y-120102380D01*
X155662380Y-121197619D02*
X154900476Y-121197619D01*
X154519523Y-120530952D02*
X154614761Y-120483333D01*
X154662380Y-120435714D01*
X154710000Y-120340476D01*
X154710000Y-120292857D01*
X154662380Y-120197619D01*
X154614761Y-120150000D01*
X154519523Y-120102380D01*
X154329047Y-120102380D01*
X154233809Y-120150000D01*
X154186190Y-120197619D01*
X154138571Y-120292857D01*
X154138571Y-120340476D01*
X154186190Y-120435714D01*
X154233809Y-120483333D01*
X154329047Y-120530952D01*
X154519523Y-120530952D01*
X154614761Y-120578571D01*
X154662380Y-120626190D01*
X154710000Y-120721428D01*
X154710000Y-120911904D01*
X154662380Y-121007142D01*
X154614761Y-121054761D01*
X154519523Y-121102380D01*
X154329047Y-121102380D01*
X154233809Y-121054761D01*
X154186190Y-121007142D01*
X154138571Y-120911904D01*
X154138571Y-120721428D01*
X154186190Y-120626190D01*
X154233809Y-120578571D01*
X154329047Y-120530952D01*
X158233809Y-128722380D02*
X158233809Y-127722380D01*
X157995714Y-127722380D01*
X157852857Y-127770000D01*
X157757619Y-127865238D01*
X157710000Y-127960476D01*
X157662380Y-128150952D01*
X157662380Y-128293809D01*
X157710000Y-128484285D01*
X157757619Y-128579523D01*
X157852857Y-128674761D01*
X157995714Y-128722380D01*
X158233809Y-128722380D01*
X157471904Y-128817619D02*
X156710000Y-128817619D01*
X156471904Y-128722380D02*
X156471904Y-127722380D01*
X156471904Y-128198571D02*
X155900476Y-128198571D01*
X155900476Y-128722380D02*
X155900476Y-127722380D01*
X155662380Y-128817619D02*
X154900476Y-128817619D01*
X154233809Y-128055714D02*
X154233809Y-128722380D01*
X154471904Y-127674761D02*
X154710000Y-128389047D01*
X154090952Y-128389047D01*
X158233809Y-136342380D02*
X158233809Y-135342380D01*
X157995714Y-135342380D01*
X157852857Y-135390000D01*
X157757619Y-135485238D01*
X157710000Y-135580476D01*
X157662380Y-135770952D01*
X157662380Y-135913809D01*
X157710000Y-136104285D01*
X157757619Y-136199523D01*
X157852857Y-136294761D01*
X157995714Y-136342380D01*
X158233809Y-136342380D01*
X157471904Y-136437619D02*
X156710000Y-136437619D01*
X156471904Y-136342380D02*
X156471904Y-135342380D01*
X156471904Y-135818571D02*
X155900476Y-135818571D01*
X155900476Y-136342380D02*
X155900476Y-135342380D01*
X155662380Y-136437619D02*
X154900476Y-136437619D01*
X154710000Y-135437619D02*
X154662380Y-135390000D01*
X154567142Y-135342380D01*
X154329047Y-135342380D01*
X154233809Y-135390000D01*
X154186190Y-135437619D01*
X154138571Y-135532857D01*
X154138571Y-135628095D01*
X154186190Y-135770952D01*
X154757619Y-136342380D01*
X154138571Y-136342380D01*
X158233809Y-143962380D02*
X158233809Y-142962380D01*
X157995714Y-142962380D01*
X157852857Y-143010000D01*
X157757619Y-143105238D01*
X157710000Y-143200476D01*
X157662380Y-143390952D01*
X157662380Y-143533809D01*
X157710000Y-143724285D01*
X157757619Y-143819523D01*
X157852857Y-143914761D01*
X157995714Y-143962380D01*
X158233809Y-143962380D01*
X157471904Y-144057619D02*
X156710000Y-144057619D01*
X156471904Y-143962380D02*
X156471904Y-142962380D01*
X156471904Y-143438571D02*
X155900476Y-143438571D01*
X155900476Y-143962380D02*
X155900476Y-142962380D01*
X155662380Y-144057619D02*
X154900476Y-144057619D01*
X154138571Y-143962380D02*
X154710000Y-143962380D01*
X154424285Y-143962380D02*
X154424285Y-142962380D01*
X154519523Y-143105238D01*
X154614761Y-143200476D01*
X154710000Y-143248095D01*
M02*
