G04 #@! TF.FileFunction,Copper,L2,Bot,Signal*
%FSLAX46Y46*%
G04 Gerber Fmt 4.6, Leading zero omitted, Abs format (unit mm)*
G04 Created by KiCad (PCBNEW (2016-05-05 BZR 6775)-product) date Saturday, June 04, 2016 'PMt' 10:04:22 PM*
%MOMM*%
%LPD*%
G01*
G04 APERTURE LIST*
%ADD10C,0.100000*%
%ADD11C,0.800000*%
%ADD12R,0.800000X0.450000*%
%ADD13O,2.300000X1.120000*%
%ADD14C,0.600000*%
%ADD15C,0.250000*%
%ADD16C,0.254000*%
G04 APERTURE END LIST*
D10*
D11*
X107442000Y-147320000D03*
X107442000Y-148590000D03*
X103632000Y-103632000D03*
X106426000Y-106426000D03*
X125984000Y-111760000D03*
X124968000Y-112776000D03*
X150876000Y-112522000D03*
X152146000Y-112522000D03*
X152146000Y-113792000D03*
X150876000Y-113792000D03*
X159512000Y-108712000D03*
X160782000Y-108712000D03*
X160782000Y-109982000D03*
X159512000Y-109982000D03*
X172974000Y-107442000D03*
X174244000Y-107442000D03*
X174244000Y-108712000D03*
X172974000Y-108712000D03*
X144018000Y-144272000D03*
X145288000Y-144272000D03*
X145288000Y-145542000D03*
X144018000Y-145542000D03*
X156464000Y-148336000D03*
X157734000Y-148336000D03*
X157734000Y-149606000D03*
X156464000Y-149606000D03*
X132080000Y-148336000D03*
X133350000Y-148336000D03*
X133350000Y-149606000D03*
X132080000Y-149606000D03*
X114300000Y-144780000D03*
X113284000Y-144780000D03*
X118872000Y-146812000D03*
X122682000Y-149860000D03*
X121412000Y-149860000D03*
X122682000Y-151130000D03*
X121412000Y-151130000D03*
D12*
X137090000Y-117640000D03*
X137090000Y-116840000D03*
X137090000Y-116040000D03*
X134690000Y-117640000D03*
X134690000Y-116840000D03*
X134690000Y-116040000D03*
X124390000Y-125260000D03*
X124390000Y-124460000D03*
X124390000Y-123660000D03*
X121990000Y-125260000D03*
X121990000Y-124460000D03*
X121990000Y-123660000D03*
X124390000Y-132880000D03*
X124390000Y-132080000D03*
X124390000Y-131280000D03*
X121990000Y-132880000D03*
X121990000Y-132080000D03*
X121990000Y-131280000D03*
X124390000Y-140500000D03*
X124390000Y-139700000D03*
X124390000Y-138900000D03*
X121990000Y-140500000D03*
X121990000Y-139700000D03*
X121990000Y-138900000D03*
X115500000Y-117640000D03*
X115500000Y-116840000D03*
X115500000Y-116040000D03*
X113100000Y-117640000D03*
X113100000Y-116840000D03*
X113100000Y-116040000D03*
X115500000Y-125260000D03*
X115500000Y-124460000D03*
X115500000Y-123660000D03*
X113100000Y-125260000D03*
X113100000Y-124460000D03*
X113100000Y-123660000D03*
X115500000Y-132880000D03*
X115500000Y-132080000D03*
X115500000Y-131280000D03*
X113100000Y-132880000D03*
X113100000Y-132080000D03*
X113100000Y-131280000D03*
X115500000Y-140500000D03*
X115500000Y-139700000D03*
X115500000Y-138900000D03*
X113100000Y-140500000D03*
X113100000Y-139700000D03*
X113100000Y-138900000D03*
X145980000Y-125260000D03*
X145980000Y-124460000D03*
X145980000Y-123660000D03*
X143580000Y-125260000D03*
X143580000Y-124460000D03*
X143580000Y-123660000D03*
X145980000Y-132880000D03*
X145980000Y-132080000D03*
X145980000Y-131280000D03*
X143580000Y-132880000D03*
X143580000Y-132080000D03*
X143580000Y-131280000D03*
X145980000Y-140500000D03*
X145980000Y-139700000D03*
X145980000Y-138900000D03*
X143580000Y-140500000D03*
X143580000Y-139700000D03*
X143580000Y-138900000D03*
X137090000Y-125260000D03*
X137090000Y-124460000D03*
X137090000Y-123660000D03*
X134690000Y-125260000D03*
X134690000Y-124460000D03*
X134690000Y-123660000D03*
X137090000Y-132880000D03*
X137090000Y-132080000D03*
X137090000Y-131280000D03*
X134690000Y-132880000D03*
X134690000Y-132080000D03*
X134690000Y-131280000D03*
X137090000Y-140500000D03*
X137090000Y-139700000D03*
X137090000Y-138900000D03*
X134690000Y-140500000D03*
X134690000Y-139700000D03*
X134690000Y-138900000D03*
X166300000Y-132880000D03*
X166300000Y-132080000D03*
X166300000Y-131280000D03*
X163900000Y-132880000D03*
X163900000Y-132080000D03*
X163900000Y-131280000D03*
X166300000Y-140500000D03*
X166300000Y-139700000D03*
X166300000Y-138900000D03*
X163900000Y-140500000D03*
X163900000Y-139700000D03*
X163900000Y-138900000D03*
X157410000Y-117640000D03*
X157410000Y-116840000D03*
X157410000Y-116040000D03*
X155010000Y-117640000D03*
X155010000Y-116840000D03*
X155010000Y-116040000D03*
X157410000Y-125260000D03*
X157410000Y-124460000D03*
X157410000Y-123660000D03*
X155010000Y-125260000D03*
X155010000Y-124460000D03*
X155010000Y-123660000D03*
X157410000Y-132880000D03*
X157410000Y-132080000D03*
X157410000Y-131280000D03*
X155010000Y-132880000D03*
X155010000Y-132080000D03*
X155010000Y-131280000D03*
X157410000Y-140500000D03*
X157410000Y-139700000D03*
X157410000Y-138900000D03*
X155010000Y-140500000D03*
X155010000Y-139700000D03*
X155010000Y-138900000D03*
D13*
X103124000Y-142795000D03*
X103124000Y-149305000D03*
D11*
X120142000Y-151130000D03*
D14*
X116332000Y-147066000D03*
X135001000Y-105156000D03*
X134493000Y-103759000D03*
X120142000Y-102616000D03*
X132527051Y-109661949D03*
X144145000Y-107696000D03*
X131801796Y-108936695D03*
X144399000Y-106553000D03*
X144907000Y-124586994D03*
X144907000Y-132207000D03*
X144907000Y-139827000D03*
X156464000Y-132207000D03*
X156337000Y-139954000D03*
X158877000Y-118618000D03*
X156337000Y-124714006D03*
X107578990Y-131572000D03*
X107696000Y-130556000D03*
X107698433Y-129410331D03*
X108966000Y-134366000D03*
X108916158Y-133567542D03*
X107696016Y-126492000D03*
X108965994Y-124244011D03*
X109220018Y-123190000D03*
X106997500Y-121856500D03*
X107696000Y-117856000D03*
X108331000Y-116840000D03*
X109474000Y-116014500D03*
X159512000Y-129286000D03*
X165099994Y-132588000D03*
X165227000Y-139827000D03*
X136017000Y-116967000D03*
X136017000Y-124460004D03*
X136017004Y-132334000D03*
X136017000Y-139953998D03*
X114554000Y-139699990D03*
X119824500Y-132080000D03*
X119824500Y-124460000D03*
X119824500Y-116840000D03*
X123340018Y-139031411D03*
X123317000Y-132207002D03*
X123238480Y-124486481D03*
X115570004Y-145287996D03*
X115053568Y-146987302D03*
X158115000Y-106045000D03*
X145034000Y-104140000D03*
X122428000Y-144526000D03*
X120142000Y-144399000D03*
X151701500Y-104203500D03*
X160782000Y-102489000D03*
X162941000Y-102362000D03*
X151003000Y-106045000D03*
X158242000Y-108585000D03*
X144653000Y-108585000D03*
X127762000Y-109728000D03*
X148717000Y-111887000D03*
X128778000Y-108712000D03*
X144272000Y-113919000D03*
X156181500Y-117484990D03*
X116586000Y-119126000D03*
X139446000Y-115316000D03*
X148463000Y-113284000D03*
D15*
X121285000Y-103759000D02*
X134493000Y-103759000D01*
X120142000Y-102616000D02*
X121285000Y-103759000D01*
X134493000Y-107696000D02*
X132527051Y-109661949D01*
X144145000Y-107696000D02*
X134493000Y-107696000D01*
X144399000Y-106553000D02*
X134185491Y-106553000D01*
X134185491Y-106553000D02*
X131801796Y-108936695D01*
X145980000Y-123660000D02*
X145833994Y-123660000D01*
X145833994Y-123660000D02*
X144907000Y-124586994D01*
X145980000Y-125260000D02*
X145580006Y-125260000D01*
X145580006Y-125260000D02*
X144907000Y-124586994D01*
X145980000Y-124460000D02*
X145033994Y-124460000D01*
X145033994Y-124460000D02*
X144907000Y-124586994D01*
X145980000Y-131280000D02*
X145834000Y-131280000D01*
X145834000Y-131280000D02*
X144907000Y-132207000D01*
X145980000Y-132880000D02*
X145580000Y-132880000D01*
X145580000Y-132880000D02*
X144907000Y-132207000D01*
X145980000Y-132080000D02*
X145034000Y-132080000D01*
X145034000Y-132080000D02*
X144907000Y-132207000D01*
X145980000Y-138900000D02*
X145834000Y-138900000D01*
X145834000Y-138900000D02*
X144907000Y-139827000D01*
X145980000Y-139700000D02*
X145034000Y-139700000D01*
X145034000Y-139700000D02*
X144907000Y-139827000D01*
X145980000Y-140500000D02*
X145580000Y-140500000D01*
X145580000Y-140500000D02*
X144907000Y-139827000D01*
X157410000Y-131280000D02*
X157391000Y-131280000D01*
X157391000Y-131280000D02*
X156464000Y-132207000D01*
X157410000Y-132880000D02*
X157137000Y-132880000D01*
X157137000Y-132880000D02*
X156464000Y-132207000D01*
X157410000Y-132080000D02*
X156591000Y-132080000D01*
X156591000Y-132080000D02*
X156464000Y-132207000D01*
X157410000Y-140500000D02*
X156883000Y-140500000D01*
X156883000Y-140500000D02*
X156337000Y-139954000D01*
X156883000Y-138900000D02*
X156591000Y-139192000D01*
X156591000Y-139192000D02*
X156591000Y-139700000D01*
X157410000Y-138900000D02*
X156883000Y-138900000D01*
X157410000Y-139700000D02*
X156591000Y-139700000D01*
X156591000Y-139700000D02*
X156337000Y-139954000D01*
X157410000Y-123660000D02*
X157235000Y-123660000D01*
X156509999Y-124541001D02*
X156337000Y-124714000D01*
X156337000Y-124714000D02*
X156337000Y-124714006D01*
X156509999Y-124534999D02*
X156509999Y-124541001D01*
X157410000Y-125260000D02*
X157235000Y-125260000D01*
X157410000Y-124460000D02*
X156591000Y-124460000D01*
X156591000Y-124460000D02*
X156509999Y-124541001D01*
X156435000Y-124460000D02*
X156509999Y-124534999D01*
X157235000Y-125260000D02*
X156435000Y-124460000D01*
X157235000Y-123660000D02*
X156435000Y-124460000D01*
X158496000Y-118237000D02*
X158496000Y-117665500D01*
X158496000Y-117665500D02*
X158470500Y-117640000D01*
X158496000Y-118237000D02*
X158877000Y-118618000D01*
X158496000Y-116459000D02*
X158496000Y-116840000D01*
X158496000Y-116840000D02*
X158496000Y-117665500D01*
X157410000Y-116840000D02*
X158496000Y-116840000D01*
X157410000Y-116040000D02*
X158077000Y-116040000D01*
X158077000Y-116040000D02*
X158496000Y-116459000D01*
X157410000Y-117640000D02*
X158470500Y-117640000D01*
X113100000Y-140500000D02*
X112450000Y-140500000D01*
X112450000Y-140500000D02*
X107278991Y-135328991D01*
X107278991Y-135328991D02*
X107278991Y-131871999D01*
X107278991Y-131871999D02*
X107578990Y-131572000D01*
X121990000Y-140500000D02*
X122339000Y-140500000D01*
X122339000Y-140500000D02*
X123126500Y-141287500D01*
X123126500Y-141287500D02*
X125122496Y-141287500D01*
X125122496Y-141287500D02*
X125937998Y-140471998D01*
X125937998Y-140471998D02*
X134661998Y-140471998D01*
X134661998Y-140471998D02*
X134690000Y-140500000D01*
X155010000Y-140500000D02*
X155930500Y-140500000D01*
X155930500Y-140500000D02*
X156480501Y-141050001D01*
X156480501Y-141050001D02*
X158161999Y-141050001D01*
X158161999Y-141050001D02*
X158712000Y-140500000D01*
X158712000Y-140500000D02*
X163900000Y-140500000D01*
X143580000Y-140500000D02*
X144230000Y-140500000D01*
X146621500Y-141097000D02*
X147218500Y-140500000D01*
X144827000Y-141097000D02*
X146621500Y-141097000D01*
X144230000Y-140500000D02*
X144827000Y-141097000D01*
X147218500Y-140500000D02*
X155010000Y-140500000D01*
X121990000Y-140500000D02*
X116675000Y-140500000D01*
X116675000Y-140500000D02*
X116078000Y-141097000D01*
X116078000Y-141097000D02*
X114347000Y-141097000D01*
X114347000Y-141097000D02*
X113750000Y-140500000D01*
X113750000Y-140500000D02*
X113100000Y-140500000D01*
X134690000Y-140500000D02*
X135420000Y-140500000D01*
X138646000Y-140500000D02*
X143580000Y-140500000D01*
X137922000Y-141224000D02*
X138646000Y-140500000D01*
X136144000Y-141224000D02*
X137922000Y-141224000D01*
X135420000Y-140500000D02*
X136144000Y-141224000D01*
X108204000Y-132718285D02*
X108204000Y-131064000D01*
X107841145Y-133081140D02*
X108204000Y-132718285D01*
X107995999Y-130855999D02*
X107696000Y-130556000D01*
X108204000Y-131064000D02*
X107995999Y-130855999D01*
X112450000Y-139700000D02*
X107841145Y-135091145D01*
X107841145Y-135091145D02*
X107841145Y-133081140D01*
X113100000Y-139700000D02*
X112450000Y-139700000D01*
X122640000Y-139700000D02*
X121990000Y-139700000D01*
X122715001Y-139624999D02*
X122640000Y-139700000D01*
X134690000Y-139700000D02*
X126873000Y-139700000D01*
X122715001Y-138741971D02*
X122715001Y-139624999D01*
X126873000Y-139700000D02*
X125285500Y-138112500D01*
X123344472Y-138112500D02*
X122715001Y-138741971D01*
X125285500Y-138112500D02*
X123344472Y-138112500D01*
X163250000Y-139700000D02*
X163900000Y-139700000D01*
X155384500Y-139700000D02*
X156781499Y-138303001D01*
X155010000Y-139700000D02*
X155384500Y-139700000D01*
X159383590Y-139700000D02*
X163250000Y-139700000D01*
X156781499Y-138303001D02*
X157986591Y-138303001D01*
X157986591Y-138303001D02*
X159383590Y-139700000D01*
X147955000Y-139700000D02*
X155010000Y-139700000D01*
X145415000Y-138239500D02*
X146494500Y-138239500D01*
X143580000Y-139700000D02*
X143954500Y-139700000D01*
X146494500Y-138239500D02*
X147955000Y-139700000D01*
X143954500Y-139700000D02*
X145415000Y-138239500D01*
X134690000Y-139700000D02*
X135218996Y-139700000D01*
X139319000Y-139700000D02*
X143580000Y-139700000D01*
X135218996Y-139700000D02*
X135890000Y-139028996D01*
X135890000Y-139028996D02*
X135890000Y-138493500D01*
X136271000Y-138112500D02*
X137731500Y-138112500D01*
X137731500Y-138112500D02*
X139319000Y-139700000D01*
X135890000Y-138493500D02*
X136271000Y-138112500D01*
X115025996Y-138176000D02*
X115949590Y-138176000D01*
X113501996Y-139700000D02*
X115025996Y-138176000D01*
X117473590Y-139700000D02*
X121990000Y-139700000D01*
X113100000Y-139700000D02*
X113501996Y-139700000D01*
X115949590Y-138176000D02*
X117473590Y-139700000D01*
X107998432Y-129710330D02*
X107698433Y-129410331D01*
X112925000Y-138900000D02*
X109270002Y-135245002D01*
X108712000Y-132846696D02*
X108712000Y-130423898D01*
X113100000Y-138900000D02*
X112925000Y-138900000D01*
X109270002Y-135245002D02*
X108919998Y-135245002D01*
X108291156Y-134616160D02*
X108291156Y-133267540D01*
X108712000Y-130423898D02*
X107998432Y-129710330D01*
X108291156Y-133267540D02*
X108712000Y-132846696D01*
X108919998Y-135245002D02*
X108291156Y-134616160D01*
X158172990Y-137852990D02*
X159220000Y-138900000D01*
X155010000Y-138900000D02*
X155548090Y-138900000D01*
X155548090Y-138900000D02*
X156595100Y-137852990D01*
X156595100Y-137852990D02*
X158172990Y-137852990D01*
X159220000Y-138900000D02*
X163900000Y-138900000D01*
X113792000Y-137668000D02*
X113100000Y-138360000D01*
X121990000Y-138900000D02*
X117310000Y-138900000D01*
X116078000Y-137668000D02*
X113792000Y-137668000D01*
X117310000Y-138900000D02*
X116078000Y-137668000D01*
X113100000Y-138360000D02*
X113100000Y-138900000D01*
X143580000Y-138900000D02*
X144056000Y-138900000D01*
X147917000Y-138900000D02*
X155010000Y-138900000D01*
X146748500Y-137731500D02*
X147917000Y-138900000D01*
X145224500Y-137731500D02*
X146748500Y-137731500D01*
X144056000Y-138900000D02*
X145224500Y-137731500D01*
X134690000Y-138900000D02*
X134785000Y-138900000D01*
X134785000Y-138900000D02*
X136080500Y-137604500D01*
X139344500Y-138900000D02*
X143580000Y-138900000D01*
X138049000Y-137604500D02*
X139344500Y-138900000D01*
X136080500Y-137604500D02*
X138049000Y-137604500D01*
X121990000Y-138900000D02*
X121990000Y-138804500D01*
X121990000Y-138804500D02*
X123380500Y-137414000D01*
X127089000Y-138900000D02*
X134690000Y-138900000D01*
X125603000Y-137414000D02*
X127089000Y-138900000D01*
X123380500Y-137414000D02*
X125603000Y-137414000D01*
X109219997Y-134366000D02*
X108966000Y-134366000D01*
X110705997Y-132880000D02*
X109219997Y-134366000D01*
X113100000Y-132880000D02*
X110705997Y-132880000D01*
X155010000Y-132880000D02*
X156057500Y-132880000D01*
X156057500Y-132880000D02*
X156607501Y-133430001D01*
X156607501Y-133430001D02*
X158161999Y-133430001D01*
X158161999Y-133430001D02*
X158712000Y-132880000D01*
X158712000Y-132880000D02*
X163900000Y-132880000D01*
X121990000Y-132880000D02*
X116929000Y-132880000D01*
X116929000Y-132880000D02*
X116141500Y-133667500D01*
X116141500Y-133667500D02*
X113919000Y-133667500D01*
X113919000Y-133667500D02*
X113131500Y-132880000D01*
X113131500Y-132880000D02*
X113100000Y-132880000D01*
X143580000Y-132880000D02*
X144818000Y-132880000D01*
X147282000Y-132880000D02*
X155010000Y-132880000D01*
X146621500Y-133540500D02*
X147282000Y-132880000D01*
X145478500Y-133540500D02*
X146621500Y-133540500D01*
X144818000Y-132880000D02*
X145478500Y-133540500D01*
X134690000Y-132880000D02*
X135483500Y-132880000D01*
X138646000Y-132880000D02*
X143580000Y-132880000D01*
X137858500Y-133667500D02*
X138646000Y-132880000D01*
X136271000Y-133667500D02*
X137858500Y-133667500D01*
X135483500Y-132880000D02*
X136271000Y-133667500D01*
X121990000Y-132880000D02*
X123037500Y-132880000D01*
X125819000Y-132880000D02*
X134690000Y-132880000D01*
X125095000Y-133604000D02*
X125819000Y-132880000D01*
X123761500Y-133604000D02*
X125095000Y-133604000D01*
X123037500Y-132880000D02*
X123761500Y-133604000D01*
X109216157Y-133267543D02*
X108916158Y-133567542D01*
X113100000Y-132080000D02*
X110403700Y-132080000D01*
X110403700Y-132080000D02*
X109216157Y-133267543D01*
X155010000Y-132080000D02*
X155448000Y-132080000D01*
X155448000Y-132080000D02*
X156798001Y-130729999D01*
X156798001Y-130729999D02*
X158161999Y-130729999D01*
X158161999Y-130729999D02*
X159512000Y-132080000D01*
X159512000Y-132080000D02*
X163900000Y-132080000D01*
X121990000Y-132080000D02*
X120749502Y-132080000D01*
X120749502Y-132080000D02*
X120114502Y-131445000D01*
X120114502Y-131445000D02*
X116967000Y-131445000D01*
X114300000Y-131318000D02*
X113538000Y-132080000D01*
X116967000Y-131445000D02*
X116014500Y-130492500D01*
X116014500Y-130492500D02*
X114808000Y-130492500D01*
X114808000Y-130492500D02*
X114300000Y-131000500D01*
X114300000Y-131000500D02*
X114300000Y-131318000D01*
X113538000Y-132080000D02*
X113100000Y-132080000D01*
X143580000Y-132080000D02*
X144018000Y-132080000D01*
X146558000Y-130683000D02*
X147955000Y-132080000D01*
X144018000Y-132080000D02*
X145415000Y-130683000D01*
X147955000Y-132080000D02*
X155010000Y-132080000D01*
X145415000Y-130683000D02*
X146558000Y-130683000D01*
X136615998Y-130556000D02*
X137858500Y-130556000D01*
X139382500Y-132080000D02*
X143580000Y-132080000D01*
X135091998Y-132080000D02*
X136615998Y-130556000D01*
X134690000Y-132080000D02*
X135091998Y-132080000D01*
X137858500Y-130556000D02*
X139382500Y-132080000D01*
X134690000Y-132080000D02*
X126873000Y-132080000D01*
X122640000Y-132080000D02*
X121990000Y-132080000D01*
X126873000Y-132080000D02*
X125285500Y-130492500D01*
X125285500Y-130492500D02*
X123825000Y-130492500D01*
X122691998Y-132028002D02*
X122640000Y-132080000D01*
X122691998Y-131625502D02*
X122691998Y-132028002D01*
X123825000Y-130492500D02*
X122691998Y-131625502D01*
X155010000Y-131280000D02*
X155185000Y-131280000D01*
X155185000Y-131280000D02*
X156226500Y-130238500D01*
X156226500Y-130238500D02*
X158432500Y-130238500D01*
X158432500Y-130238500D02*
X159474000Y-131280000D01*
X159474000Y-131280000D02*
X163900000Y-131280000D01*
X110452000Y-131280000D02*
X108120280Y-128948280D01*
X113100000Y-131280000D02*
X110452000Y-131280000D01*
X108120280Y-128948280D02*
X108120280Y-126492000D01*
X108120280Y-126492000D02*
X107696016Y-126492000D01*
X113100000Y-131280000D02*
X113100000Y-131248000D01*
X113100000Y-131248000D02*
X114305509Y-130042491D01*
X120866000Y-131280000D02*
X121990000Y-131280000D01*
X114305509Y-130042491D02*
X116200901Y-130042491D01*
X116200901Y-130042491D02*
X117094705Y-130936295D01*
X117094705Y-130936295D02*
X120522295Y-130936295D01*
X120522295Y-130936295D02*
X120866000Y-131280000D01*
X143580000Y-131280000D02*
X144056000Y-131280000D01*
X147917000Y-131280000D02*
X155010000Y-131280000D01*
X146812000Y-130175000D02*
X147917000Y-131280000D01*
X145161000Y-130175000D02*
X146812000Y-130175000D01*
X144056000Y-131280000D02*
X145161000Y-130175000D01*
X134690000Y-131280000D02*
X134690000Y-131184500D01*
X134690000Y-131184500D02*
X135953500Y-129921000D01*
X139662000Y-131280000D02*
X143580000Y-131280000D01*
X138303000Y-129921000D02*
X139662000Y-131280000D01*
X135953500Y-129921000D02*
X138303000Y-129921000D01*
X121990000Y-131280000D02*
X121990000Y-131184500D01*
X121990000Y-131184500D02*
X123317000Y-129857500D01*
X127025500Y-131280000D02*
X134690000Y-131280000D01*
X125603000Y-129857500D02*
X127025500Y-131280000D01*
X123317000Y-129857500D02*
X125603000Y-129857500D01*
X113100000Y-125260000D02*
X112306000Y-125260000D01*
X112306000Y-125260000D02*
X111252000Y-124206000D01*
X111252000Y-124206000D02*
X109004005Y-124206000D01*
X109004005Y-124206000D02*
X108965994Y-124244011D01*
X121990000Y-125260000D02*
X116929000Y-125260000D01*
X116929000Y-125260000D02*
X116205000Y-125984000D01*
X116205000Y-125984000D02*
X114744500Y-125984000D01*
X114744500Y-125984000D02*
X114020500Y-125260000D01*
X114020500Y-125260000D02*
X113100000Y-125260000D01*
X143580000Y-125260000D02*
X144818000Y-125260000D01*
X147155000Y-125260000D02*
X155010000Y-125260000D01*
X146558000Y-125857000D02*
X147155000Y-125260000D01*
X145415000Y-125857000D02*
X146558000Y-125857000D01*
X144818000Y-125260000D02*
X145415000Y-125857000D01*
X134690000Y-125260000D02*
X135610500Y-125260000D01*
X138646000Y-125260000D02*
X143580000Y-125260000D01*
X137858500Y-126047500D02*
X138646000Y-125260000D01*
X136398000Y-126047500D02*
X137858500Y-126047500D01*
X135610500Y-125260000D02*
X136398000Y-126047500D01*
X121990000Y-125260000D02*
X122910500Y-125260000D01*
X125882500Y-125260000D02*
X134690000Y-125260000D01*
X125158500Y-125984000D02*
X125882500Y-125260000D01*
X123634500Y-125984000D02*
X125158500Y-125984000D01*
X122910500Y-125260000D02*
X123634500Y-125984000D01*
X113100000Y-124460000D02*
X112776000Y-124460000D01*
X112776000Y-124460000D02*
X111506000Y-123190000D01*
X111506000Y-123190000D02*
X109220018Y-123190000D01*
X113100000Y-124460000D02*
X113411000Y-124460000D01*
X113411000Y-124460000D02*
X114300000Y-123571000D01*
X114300000Y-123571000D02*
X114300000Y-123380500D01*
X114300000Y-123380500D02*
X114808000Y-122872500D01*
X114808000Y-122872500D02*
X115888910Y-122872500D01*
X115888910Y-122872500D02*
X116851409Y-123834999D01*
X116851409Y-123834999D02*
X120088499Y-123834999D01*
X120713500Y-124460000D02*
X121990000Y-124460000D01*
X120088499Y-123834999D02*
X120713500Y-124460000D01*
X145351500Y-123063000D02*
X146621500Y-123063000D01*
X143580000Y-124460000D02*
X143954500Y-124460000D01*
X148018500Y-124460000D02*
X155010000Y-124460000D01*
X146621500Y-123063000D02*
X148018500Y-124460000D01*
X143954500Y-124460000D02*
X145351500Y-123063000D01*
X136461500Y-122936000D02*
X137858500Y-122936000D01*
X135340000Y-124460000D02*
X135391999Y-124408001D01*
X135391999Y-124005501D02*
X136461500Y-122936000D01*
X139382500Y-124460000D02*
X143580000Y-124460000D01*
X135391999Y-124408001D02*
X135391999Y-124005501D01*
X134690000Y-124460000D02*
X135340000Y-124460000D01*
X137858500Y-122936000D02*
X139382500Y-124460000D01*
X125158500Y-122872500D02*
X126746000Y-124460000D01*
X121990000Y-124460000D02*
X122314999Y-124460000D01*
X126746000Y-124460000D02*
X134690000Y-124460000D01*
X122314999Y-124460000D02*
X123902499Y-122872500D01*
X123902499Y-122872500D02*
X125158500Y-122872500D01*
X114427000Y-122301000D02*
X113100000Y-123628000D01*
X120586500Y-123317000D02*
X116969820Y-123317000D01*
X116969820Y-123317000D02*
X115953820Y-122301000D01*
X115953820Y-122301000D02*
X114427000Y-122301000D01*
X120929500Y-123660000D02*
X120586500Y-123317000D01*
X134690000Y-123660000D02*
X127089000Y-123660000D01*
X127089000Y-123660000D02*
X125666500Y-122237500D01*
X125666500Y-122237500D02*
X123634500Y-122237500D01*
X122212000Y-123660000D02*
X121990000Y-123660000D01*
X123634500Y-122237500D02*
X122212000Y-123660000D01*
X106997500Y-121856500D02*
X111771500Y-121856500D01*
X111771500Y-121856500D02*
X113100000Y-123185000D01*
X113100000Y-123185000D02*
X113100000Y-123660000D01*
X155010000Y-123660000D02*
X147980500Y-123660000D01*
X143992500Y-123660000D02*
X143580000Y-123660000D01*
X145097500Y-122555000D02*
X143992500Y-123660000D01*
X146875500Y-122555000D02*
X145097500Y-122555000D01*
X147980500Y-123660000D02*
X146875500Y-122555000D01*
X134690000Y-123660000D02*
X134912000Y-123660000D01*
X134912000Y-123660000D02*
X136144000Y-122428000D01*
X139281000Y-123660000D02*
X143580000Y-123660000D01*
X138049000Y-122428000D02*
X139281000Y-123660000D01*
X136144000Y-122428000D02*
X138049000Y-122428000D01*
X121990000Y-123660000D02*
X120929500Y-123660000D01*
X113100000Y-123660000D02*
X113100000Y-123628000D01*
X137961990Y-117640000D02*
X155010000Y-117640000D01*
X137815001Y-118125001D02*
X137815001Y-117786989D01*
X136429999Y-118190001D02*
X137750001Y-118190001D01*
X136364999Y-118125001D02*
X136429999Y-118190001D01*
X134690000Y-117640000D02*
X136218010Y-117640000D01*
X136364999Y-117786989D02*
X136364999Y-118125001D01*
X136218010Y-117640000D02*
X136364999Y-117786989D01*
X116780600Y-118294989D02*
X117435589Y-117640000D01*
X137750001Y-118190001D02*
X137815001Y-118125001D01*
X137815001Y-117786989D02*
X137961990Y-117640000D01*
X117435589Y-117640000D02*
X134690000Y-117640000D01*
X113929989Y-118294989D02*
X116780600Y-118294989D01*
X113275000Y-117640000D02*
X113929989Y-118294989D01*
X113100000Y-117640000D02*
X113275000Y-117640000D01*
X113100000Y-117640000D02*
X107912000Y-117640000D01*
X107912000Y-117640000D02*
X107696000Y-117856000D01*
X135218998Y-116840000D02*
X134690000Y-116840000D01*
X139319000Y-116840000D02*
X137731500Y-115252500D01*
X136144000Y-115252500D02*
X135518999Y-115877501D01*
X137731500Y-115252500D02*
X136144000Y-115252500D01*
X135518999Y-115877501D02*
X135518999Y-116539999D01*
X135518999Y-116539999D02*
X135218998Y-116840000D01*
X155010000Y-116840000D02*
X139319000Y-116840000D01*
X113100000Y-116840000D02*
X108331000Y-116840000D01*
X134690000Y-116840000D02*
X120840500Y-116840000D01*
X120840500Y-116840000D02*
X119253000Y-115252500D01*
X119253000Y-115252500D02*
X114808000Y-115252500D01*
X114808000Y-115252500D02*
X114236500Y-115824000D01*
X114236500Y-115824000D02*
X114236500Y-116522500D01*
X114236500Y-116522500D02*
X113919000Y-116840000D01*
X113919000Y-116840000D02*
X113100000Y-116840000D01*
X134690000Y-116040000D02*
X134690000Y-115565000D01*
X134690000Y-115565000D02*
X135637500Y-114617500D01*
X135637500Y-114617500D02*
X137822496Y-114617500D01*
X137822496Y-114617500D02*
X139244996Y-116040000D01*
X139244996Y-116040000D02*
X155010000Y-116040000D01*
X113100000Y-116040000D02*
X109499500Y-116040000D01*
X109499500Y-116040000D02*
X109474000Y-116014500D01*
X113100000Y-116040000D02*
X113100000Y-115944500D01*
X113100000Y-115944500D02*
X114300000Y-114744500D01*
X120802500Y-116040000D02*
X134690000Y-116040000D01*
X119507000Y-114744500D02*
X120802500Y-116040000D01*
X114300000Y-114744500D02*
X119507000Y-114744500D01*
X113100000Y-116040000D02*
X113131500Y-116040000D01*
X159512000Y-129286000D02*
X159512000Y-130556000D01*
X159512000Y-130556000D02*
X159685999Y-130729999D01*
X159685999Y-130729999D02*
X164511999Y-130729999D01*
X164511999Y-130729999D02*
X165062000Y-131280000D01*
X165062000Y-131280000D02*
X166300000Y-131280000D01*
X165607994Y-132080000D02*
X165099994Y-132588000D01*
X165391994Y-132880000D02*
X165099994Y-132588000D01*
X166300000Y-140500000D02*
X165900000Y-140500000D01*
X165900000Y-140500000D02*
X165227000Y-139827000D01*
X166300000Y-139700000D02*
X165354000Y-139700000D01*
X165354000Y-139700000D02*
X165227000Y-139827000D01*
X166300000Y-131280000D02*
X166300000Y-131387994D01*
X166300000Y-131387994D02*
X165099994Y-132588000D01*
X166300000Y-132080000D02*
X165607994Y-132080000D01*
X166300000Y-132880000D02*
X165391994Y-132880000D01*
X166125000Y-138900000D02*
X165227000Y-139798000D01*
X166300000Y-138900000D02*
X166125000Y-138900000D01*
X165227000Y-139798000D02*
X165227000Y-139827000D01*
X136915000Y-117640000D02*
X136242000Y-116967000D01*
X137090000Y-116840000D02*
X136144000Y-116840000D01*
X137090000Y-117640000D02*
X136915000Y-117640000D01*
X136017000Y-116938000D02*
X136017000Y-116967000D01*
X136144000Y-116840000D02*
X136017000Y-116967000D01*
X136915000Y-116040000D02*
X136017000Y-116938000D01*
X137090000Y-116040000D02*
X136915000Y-116040000D01*
X136242000Y-116967000D02*
X136017000Y-116967000D01*
X136765000Y-124460000D02*
X136764996Y-124460004D01*
X137090000Y-125260000D02*
X137090000Y-124785000D01*
X136017004Y-124460000D02*
X136017000Y-124460004D01*
X137090000Y-124460000D02*
X136017004Y-124460000D01*
X136764996Y-124460004D02*
X136017000Y-124460004D01*
X137090000Y-124785000D02*
X136765000Y-124460000D01*
X137090000Y-124135000D02*
X136765000Y-124460000D01*
X137090000Y-123660000D02*
X137090000Y-124135000D01*
X136271004Y-132080000D02*
X136017004Y-132334000D01*
X136115000Y-132080000D02*
X136115000Y-132236004D01*
X137090000Y-132080000D02*
X136271004Y-132080000D01*
X137090000Y-131280000D02*
X136915000Y-131280000D01*
X137090000Y-132880000D02*
X136915000Y-132880000D01*
X136115000Y-132236004D02*
X136017004Y-132334000D01*
X136915000Y-132880000D02*
X136115000Y-132080000D01*
X136915000Y-131280000D02*
X136115000Y-132080000D01*
X136368998Y-139953998D02*
X136017000Y-139953998D01*
X137090000Y-139700000D02*
X136270998Y-139700000D01*
X136017000Y-139798000D02*
X136017000Y-139953998D01*
X136915000Y-138900000D02*
X136017000Y-139798000D01*
X137090000Y-138900000D02*
X136915000Y-138900000D01*
X136270998Y-139700000D02*
X136017000Y-139953998D01*
X137090000Y-140500000D02*
X136915000Y-140500000D01*
X136915000Y-140500000D02*
X136368998Y-139953998D01*
X115325000Y-140500000D02*
X114554000Y-139729000D01*
X115500000Y-140500000D02*
X115325000Y-140500000D01*
X115325000Y-138900000D02*
X114554000Y-139671000D01*
X115500000Y-138900000D02*
X115325000Y-138900000D01*
X114554000Y-139729000D02*
X114554000Y-139699990D01*
X114554000Y-139671000D02*
X114554000Y-139699990D01*
X114554010Y-139700000D02*
X114554000Y-139699990D01*
X115500000Y-139700000D02*
X114554010Y-139700000D01*
X115500000Y-124460000D02*
X116713000Y-124460000D01*
X115500000Y-123660000D02*
X116040000Y-123660000D01*
X116040000Y-123660000D02*
X116840000Y-124460000D01*
X116840000Y-124460000D02*
X119824500Y-124460000D01*
X119824500Y-124460000D02*
X116713000Y-124460000D01*
X116713000Y-124460000D02*
X115913000Y-125260000D01*
X115913000Y-125260000D02*
X115500000Y-125260000D01*
X115500000Y-131280000D02*
X116150000Y-131280000D01*
X116150000Y-131280000D02*
X116586000Y-131716000D01*
X116586000Y-131716000D02*
X116586000Y-132080000D01*
X119824500Y-132080000D02*
X116586000Y-132080000D01*
X116586000Y-132080000D02*
X115500000Y-132080000D01*
X115500000Y-132880000D02*
X115675000Y-132880000D01*
X115675000Y-132880000D02*
X116475000Y-132080000D01*
X116475000Y-132080000D02*
X116586000Y-132080000D01*
X116950000Y-116840000D02*
X119824500Y-116840000D01*
X116150000Y-117640000D02*
X116950000Y-116840000D01*
X115500000Y-117640000D02*
X116150000Y-117640000D01*
X115500000Y-116040000D02*
X119024500Y-116040000D01*
X119024500Y-116040000D02*
X119824500Y-116840000D01*
X119824500Y-116840000D02*
X115500000Y-116840000D01*
X123340018Y-139455675D02*
X123340018Y-139031411D01*
X123340018Y-139625018D02*
X123340018Y-139455675D01*
X123415000Y-139700000D02*
X123340018Y-139625018D01*
X124215000Y-139700000D02*
X123546411Y-139031411D01*
X124390000Y-139700000D02*
X124215000Y-139700000D01*
X123546411Y-139031411D02*
X123340018Y-139031411D01*
X124390000Y-138900000D02*
X124215000Y-138900000D01*
X124215000Y-140500000D02*
X123415000Y-139700000D01*
X124215000Y-138900000D02*
X123415000Y-139700000D01*
X124390000Y-140500000D02*
X124215000Y-140500000D01*
X124390000Y-123660000D02*
X124064961Y-123660000D01*
X124064961Y-123660000D02*
X123238480Y-124486481D01*
X124390000Y-125260000D02*
X124011999Y-125260000D01*
X124011999Y-125260000D02*
X123238480Y-124486481D01*
X124390000Y-124460000D02*
X123264961Y-124460000D01*
X123264961Y-124460000D02*
X123238480Y-124486481D01*
X124390000Y-132880000D02*
X123989998Y-132880000D01*
X123989998Y-132880000D02*
X123317000Y-132207002D01*
X124390000Y-131280000D02*
X124244002Y-131280000D01*
X124244002Y-131280000D02*
X123317000Y-132207002D01*
X124390000Y-132080000D02*
X123444002Y-132080000D01*
X123444002Y-132080000D02*
X123317000Y-132207002D01*
X115053568Y-145804432D02*
X115270005Y-145587995D01*
X115270005Y-145587995D02*
X115570004Y-145287996D01*
X115053568Y-146987302D02*
X115053568Y-145804432D01*
X150622000Y-106807000D02*
X157353000Y-106807000D01*
X157353000Y-106807000D02*
X158115000Y-106045000D01*
X147955000Y-104140000D02*
X150622000Y-106807000D01*
X145034000Y-104140000D02*
X147955000Y-104140000D01*
X122301000Y-144399000D02*
X122428000Y-144526000D01*
X120142000Y-144399000D02*
X122301000Y-144399000D01*
X153416000Y-102489000D02*
X160782000Y-102489000D01*
X151701500Y-104203500D02*
X153416000Y-102489000D01*
X162941000Y-102362000D02*
X162179000Y-103124000D01*
X162179000Y-103124000D02*
X154178000Y-103124000D01*
X154178000Y-103124000D02*
X151427264Y-105874736D01*
X151427264Y-105874736D02*
X151427264Y-106045000D01*
X151427264Y-106045000D02*
X151003000Y-106045000D01*
X157226000Y-107569000D02*
X158242000Y-108585000D01*
X150114000Y-107569000D02*
X157226000Y-107569000D01*
X148590000Y-106045000D02*
X150114000Y-107569000D01*
X147193000Y-106045000D02*
X148590000Y-106045000D01*
X144653000Y-108585000D02*
X147193000Y-106045000D01*
X127762000Y-109728000D02*
X131699000Y-113665000D01*
X131699000Y-113665000D02*
X143593736Y-113665000D01*
X147701000Y-112903000D02*
X148717000Y-111887000D01*
X144355736Y-112903000D02*
X147701000Y-112903000D01*
X144355736Y-112903000D02*
X143593736Y-113665000D01*
X128778000Y-108712000D02*
X128387001Y-109102999D01*
X128387001Y-109102999D02*
X127461999Y-109102999D01*
X144075990Y-114115010D02*
X144272000Y-113919000D01*
X127461999Y-109102999D02*
X127136999Y-109427999D01*
X127136999Y-110028001D02*
X131224008Y-114115010D01*
X127136999Y-109427999D02*
X127136999Y-110028001D01*
X131224008Y-114115010D02*
X144075990Y-114115010D01*
X156181500Y-117678502D02*
X156181500Y-117484990D01*
X138265012Y-118311401D02*
X138265012Y-118237000D01*
X135914988Y-118311401D02*
X136243599Y-118640012D01*
X137936401Y-118640012D02*
X138265012Y-118311401D01*
X117475000Y-118237000D02*
X135914988Y-118237000D01*
X155623002Y-118237000D02*
X156181500Y-117678502D01*
X116586000Y-119126000D02*
X117475000Y-118237000D01*
X135914988Y-118237000D02*
X135914988Y-118311401D01*
X138265012Y-118237000D02*
X155623002Y-118237000D01*
X136243599Y-118640012D02*
X137936401Y-118640012D01*
X139870264Y-115316000D02*
X139446000Y-115316000D01*
X148463000Y-113284000D02*
X146431000Y-115316000D01*
X146431000Y-115316000D02*
X139870264Y-115316000D01*
D16*
G36*
X119208331Y-102511272D02*
X119205771Y-102694617D01*
X119238872Y-102874968D01*
X119306372Y-103045454D01*
X119405701Y-103199583D01*
X119533076Y-103331484D01*
X119683644Y-103436131D01*
X119851671Y-103509540D01*
X119991477Y-103540279D01*
X120747599Y-104296401D01*
X120801855Y-104340968D01*
X120855625Y-104386086D01*
X120859126Y-104388011D01*
X120862215Y-104390548D01*
X120924067Y-104423713D01*
X120985604Y-104457543D01*
X120989416Y-104458752D01*
X120992935Y-104460639D01*
X121060031Y-104481152D01*
X121126987Y-104502392D01*
X121130959Y-104502838D01*
X121134781Y-104504006D01*
X121204605Y-104511098D01*
X121274389Y-104518926D01*
X121282204Y-104518981D01*
X121282347Y-104518995D01*
X121282480Y-104518982D01*
X121285000Y-104519000D01*
X133948126Y-104519000D01*
X134034644Y-104579131D01*
X134202671Y-104652540D01*
X134381757Y-104691915D01*
X134565079Y-104695755D01*
X134745657Y-104663914D01*
X134916610Y-104597606D01*
X135071429Y-104499355D01*
X135204215Y-104372904D01*
X135309911Y-104223070D01*
X135384492Y-104055560D01*
X135425116Y-103876754D01*
X135428040Y-103667319D01*
X135392425Y-103487448D01*
X135322550Y-103317920D01*
X135221079Y-103165193D01*
X135091875Y-103035084D01*
X134939860Y-102932549D01*
X134770825Y-102861493D01*
X134591207Y-102824623D01*
X134407849Y-102823343D01*
X134227733Y-102857701D01*
X134057722Y-102926390D01*
X133946763Y-102999000D01*
X121599802Y-102999000D01*
X121065169Y-102464367D01*
X121041425Y-102344448D01*
X121037531Y-102335000D01*
X152495198Y-102335000D01*
X151549628Y-103280570D01*
X151436233Y-103302201D01*
X151266222Y-103370890D01*
X151112791Y-103471293D01*
X150981783Y-103599586D01*
X150878189Y-103750881D01*
X150805954Y-103919416D01*
X150767831Y-104098772D01*
X150765271Y-104282117D01*
X150798372Y-104462468D01*
X150865872Y-104632954D01*
X150965201Y-104787083D01*
X151092576Y-104918984D01*
X151219795Y-105007403D01*
X151113958Y-105113240D01*
X151101207Y-105110623D01*
X150917849Y-105109343D01*
X150737733Y-105143701D01*
X150567722Y-105212390D01*
X150414291Y-105312793D01*
X150307335Y-105417533D01*
X148492401Y-103602599D01*
X148438145Y-103558032D01*
X148384375Y-103512914D01*
X148380874Y-103510989D01*
X148377785Y-103508452D01*
X148315933Y-103475287D01*
X148254396Y-103441457D01*
X148250584Y-103440248D01*
X148247065Y-103438361D01*
X148179969Y-103417848D01*
X148113013Y-103396608D01*
X148109041Y-103396162D01*
X148105219Y-103394994D01*
X148035351Y-103387897D01*
X147965611Y-103380074D01*
X147957806Y-103380020D01*
X147957653Y-103380004D01*
X147957510Y-103380018D01*
X147955000Y-103380000D01*
X145579378Y-103380000D01*
X145480860Y-103313549D01*
X145311825Y-103242493D01*
X145132207Y-103205623D01*
X144948849Y-103204343D01*
X144768733Y-103238701D01*
X144598722Y-103307390D01*
X144445291Y-103407793D01*
X144314283Y-103536086D01*
X144210689Y-103687381D01*
X144138454Y-103855916D01*
X144100331Y-104035272D01*
X144097771Y-104218617D01*
X144130872Y-104398968D01*
X144198372Y-104569454D01*
X144297701Y-104723583D01*
X144425076Y-104855484D01*
X144575644Y-104960131D01*
X144743671Y-105033540D01*
X144922757Y-105072915D01*
X145106079Y-105076755D01*
X145286657Y-105044914D01*
X145457610Y-104978606D01*
X145581473Y-104900000D01*
X147640198Y-104900000D01*
X148025198Y-105285000D01*
X147193000Y-105285000D01*
X147123073Y-105291856D01*
X147053197Y-105297970D01*
X147049364Y-105299084D01*
X147045382Y-105299474D01*
X146978138Y-105319776D01*
X146910760Y-105339351D01*
X146907212Y-105341190D01*
X146903387Y-105342345D01*
X146841390Y-105375309D01*
X146779074Y-105407611D01*
X146775953Y-105410103D01*
X146772422Y-105411980D01*
X146718007Y-105456359D01*
X146663154Y-105500148D01*
X146657594Y-105505631D01*
X146657478Y-105505726D01*
X146657389Y-105505834D01*
X146655599Y-105507599D01*
X145271916Y-106891282D01*
X145290492Y-106849560D01*
X145331116Y-106670754D01*
X145334040Y-106461319D01*
X145298425Y-106281448D01*
X145228550Y-106111920D01*
X145127079Y-105959193D01*
X144997875Y-105829084D01*
X144845860Y-105726549D01*
X144676825Y-105655493D01*
X144497207Y-105618623D01*
X144313849Y-105617343D01*
X144133733Y-105651701D01*
X143963722Y-105720390D01*
X143852763Y-105793000D01*
X134185491Y-105793000D01*
X134115610Y-105799852D01*
X134045688Y-105805969D01*
X134041850Y-105807084D01*
X134037873Y-105807474D01*
X133970703Y-105827754D01*
X133903252Y-105847350D01*
X133899701Y-105849191D01*
X133895878Y-105850345D01*
X133833917Y-105883290D01*
X133771566Y-105915610D01*
X133768443Y-105918103D01*
X133764913Y-105919980D01*
X133710504Y-105964355D01*
X133655645Y-106008148D01*
X133650085Y-106013631D01*
X133649969Y-106013726D01*
X133649880Y-106013834D01*
X133648090Y-106015599D01*
X131649924Y-108013765D01*
X131536529Y-108035396D01*
X131366518Y-108104085D01*
X131213087Y-108204488D01*
X131082079Y-108332781D01*
X130978485Y-108484076D01*
X130906250Y-108652611D01*
X130868127Y-108831967D01*
X130865567Y-109015312D01*
X130898668Y-109195663D01*
X130966168Y-109366149D01*
X131065497Y-109520278D01*
X131192872Y-109652179D01*
X131343440Y-109756826D01*
X131511467Y-109830235D01*
X131611308Y-109852187D01*
X131623923Y-109920917D01*
X131691423Y-110091403D01*
X131790752Y-110245532D01*
X131918127Y-110377433D01*
X132068695Y-110482080D01*
X132236722Y-110555489D01*
X132415808Y-110594864D01*
X132599130Y-110598704D01*
X132779708Y-110566863D01*
X132950661Y-110500555D01*
X133105480Y-110402304D01*
X133238266Y-110275853D01*
X133343962Y-110126019D01*
X133418543Y-109958509D01*
X133451837Y-109811965D01*
X134807802Y-108456000D01*
X143600126Y-108456000D01*
X143686644Y-108516131D01*
X143718635Y-108530108D01*
X143716771Y-108663617D01*
X143749872Y-108843968D01*
X143817372Y-109014454D01*
X143916701Y-109168583D01*
X144044076Y-109300484D01*
X144194644Y-109405131D01*
X144362671Y-109478540D01*
X144541757Y-109517915D01*
X144725079Y-109521755D01*
X144905657Y-109489914D01*
X145076610Y-109423606D01*
X145231429Y-109325355D01*
X145364215Y-109198904D01*
X145469911Y-109049070D01*
X145544492Y-108881560D01*
X145577786Y-108735016D01*
X147507802Y-106805000D01*
X148275198Y-106805000D01*
X149576599Y-108106401D01*
X149630855Y-108150968D01*
X149684625Y-108196086D01*
X149688126Y-108198011D01*
X149691215Y-108200548D01*
X149753067Y-108233713D01*
X149814604Y-108267543D01*
X149818416Y-108268752D01*
X149821935Y-108270639D01*
X149889043Y-108291156D01*
X149955987Y-108312392D01*
X149959958Y-108312837D01*
X149963780Y-108314006D01*
X150033610Y-108321099D01*
X150103389Y-108328926D01*
X150111204Y-108328981D01*
X150111347Y-108328995D01*
X150111480Y-108328982D01*
X150114000Y-108329000D01*
X156911198Y-108329000D01*
X157319249Y-108737051D01*
X157338872Y-108843968D01*
X157406372Y-109014454D01*
X157505701Y-109168583D01*
X157633076Y-109300484D01*
X157783644Y-109405131D01*
X157951671Y-109478540D01*
X158130757Y-109517915D01*
X158314079Y-109521755D01*
X158494657Y-109489914D01*
X158665610Y-109423606D01*
X158820429Y-109325355D01*
X158953215Y-109198904D01*
X159058911Y-109049070D01*
X159133492Y-108881560D01*
X159174116Y-108702754D01*
X159177040Y-108493319D01*
X159141425Y-108313448D01*
X159071550Y-108143920D01*
X158970079Y-107991193D01*
X158840875Y-107861084D01*
X158688860Y-107758549D01*
X158519825Y-107687493D01*
X158393329Y-107661527D01*
X157983302Y-107251500D01*
X158267169Y-106967633D01*
X158367657Y-106949914D01*
X158538610Y-106883606D01*
X158693429Y-106785355D01*
X158826215Y-106658904D01*
X158931911Y-106509070D01*
X159006492Y-106341560D01*
X159047116Y-106162754D01*
X159050040Y-105953319D01*
X159014425Y-105773448D01*
X158944550Y-105603920D01*
X158843079Y-105451193D01*
X158713875Y-105321084D01*
X158561860Y-105218549D01*
X158392825Y-105147493D01*
X158213207Y-105110623D01*
X158029849Y-105109343D01*
X157849733Y-105143701D01*
X157679722Y-105212390D01*
X157526291Y-105312793D01*
X157395283Y-105441086D01*
X157291689Y-105592381D01*
X157219454Y-105760916D01*
X157191158Y-105894040D01*
X157038198Y-106047000D01*
X152329802Y-106047000D01*
X154492802Y-103884000D01*
X162179000Y-103884000D01*
X162248877Y-103877149D01*
X162318803Y-103871031D01*
X162322641Y-103869916D01*
X162326618Y-103869526D01*
X162393821Y-103849236D01*
X162461240Y-103829649D01*
X162464788Y-103827810D01*
X162468613Y-103826655D01*
X162530591Y-103793701D01*
X162592925Y-103761390D01*
X162596048Y-103758897D01*
X162599578Y-103757020D01*
X162653987Y-103712645D01*
X162708846Y-103668852D01*
X162714406Y-103663369D01*
X162714522Y-103663274D01*
X162714611Y-103663166D01*
X162716401Y-103661401D01*
X163093169Y-103284633D01*
X163193657Y-103266914D01*
X163364610Y-103200606D01*
X163519429Y-103102355D01*
X163652215Y-102975904D01*
X163757911Y-102826070D01*
X163832492Y-102658560D01*
X163873116Y-102479754D01*
X163875137Y-102335000D01*
X177065000Y-102335000D01*
X177065000Y-151665000D01*
X102335000Y-151665000D01*
X102335000Y-150480402D01*
X102508678Y-150499884D01*
X102525363Y-150500000D01*
X103722637Y-150500000D01*
X103954747Y-150477241D01*
X104178016Y-150409833D01*
X104383940Y-150300341D01*
X104564675Y-150152937D01*
X104713337Y-149973236D01*
X104824263Y-149768081D01*
X104893229Y-149545288D01*
X104917608Y-149313343D01*
X104896470Y-149081079D01*
X104830622Y-148857345D01*
X104722570Y-148650662D01*
X104576432Y-148468902D01*
X104397773Y-148318989D01*
X104193398Y-148206633D01*
X103971091Y-148136114D01*
X103739322Y-148110116D01*
X103722637Y-148110000D01*
X102525363Y-148110000D01*
X102335000Y-148128666D01*
X102335000Y-147065919D01*
X114117339Y-147065919D01*
X114150440Y-147246270D01*
X114217940Y-147416756D01*
X114317269Y-147570885D01*
X114444644Y-147702786D01*
X114595212Y-147807433D01*
X114763239Y-147880842D01*
X114942325Y-147920217D01*
X115125647Y-147924057D01*
X115306225Y-147892216D01*
X115477178Y-147825908D01*
X115631997Y-147727657D01*
X115764783Y-147601206D01*
X115870479Y-147451372D01*
X115945060Y-147283862D01*
X115985684Y-147105056D01*
X115988608Y-146895621D01*
X115952993Y-146715750D01*
X115883118Y-146546222D01*
X115813568Y-146441540D01*
X115813568Y-146194513D01*
X115822661Y-146192910D01*
X115993614Y-146126602D01*
X116148433Y-146028351D01*
X116281219Y-145901900D01*
X116386915Y-145752066D01*
X116461496Y-145584556D01*
X116502120Y-145405750D01*
X116505044Y-145196315D01*
X116469429Y-145016444D01*
X116399554Y-144846916D01*
X116298083Y-144694189D01*
X116168879Y-144564080D01*
X116040692Y-144477617D01*
X119205771Y-144477617D01*
X119238872Y-144657968D01*
X119306372Y-144828454D01*
X119405701Y-144982583D01*
X119533076Y-145114484D01*
X119683644Y-145219131D01*
X119851671Y-145292540D01*
X120030757Y-145331915D01*
X120214079Y-145335755D01*
X120394657Y-145303914D01*
X120565610Y-145237606D01*
X120689473Y-145159000D01*
X121739422Y-145159000D01*
X121819076Y-145241484D01*
X121969644Y-145346131D01*
X122137671Y-145419540D01*
X122316757Y-145458915D01*
X122500079Y-145462755D01*
X122680657Y-145430914D01*
X122851610Y-145364606D01*
X123006429Y-145266355D01*
X123139215Y-145139904D01*
X123244911Y-144990070D01*
X123319492Y-144822560D01*
X123360116Y-144643754D01*
X123363040Y-144434319D01*
X123327425Y-144254448D01*
X123257550Y-144084920D01*
X123156079Y-143932193D01*
X123026875Y-143802084D01*
X122874860Y-143699549D01*
X122705825Y-143628493D01*
X122526207Y-143591623D01*
X122342849Y-143590343D01*
X122162733Y-143624701D01*
X122127342Y-143639000D01*
X120687378Y-143639000D01*
X120588860Y-143572549D01*
X120419825Y-143501493D01*
X120240207Y-143464623D01*
X120056849Y-143463343D01*
X119876733Y-143497701D01*
X119706722Y-143566390D01*
X119553291Y-143666793D01*
X119422283Y-143795086D01*
X119318689Y-143946381D01*
X119246454Y-144114916D01*
X119208331Y-144294272D01*
X119205771Y-144477617D01*
X116040692Y-144477617D01*
X116016864Y-144461545D01*
X115847829Y-144390489D01*
X115668211Y-144353619D01*
X115484853Y-144352339D01*
X115304737Y-144386697D01*
X115134726Y-144455386D01*
X114981295Y-144555789D01*
X114850287Y-144684082D01*
X114746693Y-144835377D01*
X114674458Y-145003912D01*
X114646162Y-145137036D01*
X114516167Y-145267031D01*
X114471600Y-145321287D01*
X114426482Y-145375057D01*
X114424557Y-145378558D01*
X114422020Y-145381647D01*
X114388855Y-145443499D01*
X114355025Y-145505036D01*
X114353816Y-145508848D01*
X114351929Y-145512367D01*
X114331416Y-145579463D01*
X114310176Y-145646419D01*
X114309730Y-145650391D01*
X114308562Y-145654213D01*
X114301465Y-145724081D01*
X114293642Y-145793821D01*
X114293588Y-145801626D01*
X114293572Y-145801779D01*
X114293586Y-145801922D01*
X114293568Y-145804432D01*
X114293568Y-146442220D01*
X114230257Y-146534683D01*
X114158022Y-146703218D01*
X114119899Y-146882574D01*
X114117339Y-147065919D01*
X102335000Y-147065919D01*
X102335000Y-143970402D01*
X102508678Y-143989884D01*
X102525363Y-143990000D01*
X103722637Y-143990000D01*
X103954747Y-143967241D01*
X104178016Y-143899833D01*
X104383940Y-143790341D01*
X104564675Y-143642937D01*
X104713337Y-143463236D01*
X104824263Y-143258081D01*
X104893229Y-143035288D01*
X104917608Y-142803343D01*
X104896470Y-142571079D01*
X104830622Y-142347345D01*
X104722570Y-142140662D01*
X104576432Y-141958902D01*
X104397773Y-141808989D01*
X104193398Y-141696633D01*
X103971091Y-141626114D01*
X103739322Y-141600116D01*
X103722637Y-141600000D01*
X102525363Y-141600000D01*
X102335000Y-141618666D01*
X102335000Y-131871999D01*
X106518991Y-131871999D01*
X106518991Y-135328991D01*
X106525842Y-135398868D01*
X106531960Y-135468794D01*
X106533075Y-135472632D01*
X106533465Y-135476609D01*
X106553755Y-135543812D01*
X106573342Y-135611231D01*
X106575181Y-135614779D01*
X106576336Y-135618604D01*
X106609290Y-135680582D01*
X106641601Y-135742916D01*
X106644094Y-135746039D01*
X106645971Y-135749569D01*
X106690346Y-135803978D01*
X106734139Y-135858837D01*
X106739622Y-135864397D01*
X106739717Y-135864513D01*
X106739825Y-135864602D01*
X106741590Y-135866392D01*
X111912599Y-141037401D01*
X111966855Y-141081968D01*
X112020625Y-141127086D01*
X112024126Y-141129011D01*
X112027215Y-141131548D01*
X112089067Y-141164713D01*
X112150604Y-141198543D01*
X112154416Y-141199752D01*
X112157935Y-141201639D01*
X112225031Y-141222152D01*
X112291987Y-141243392D01*
X112295959Y-141243838D01*
X112299781Y-141245006D01*
X112337320Y-141248819D01*
X112345506Y-141255537D01*
X112455820Y-141314502D01*
X112575518Y-141350812D01*
X112700000Y-141363072D01*
X113500000Y-141363072D01*
X113534838Y-141359641D01*
X113809598Y-141634401D01*
X113863880Y-141678988D01*
X113917625Y-141724086D01*
X113921126Y-141726011D01*
X113924215Y-141728548D01*
X113986067Y-141761713D01*
X114047604Y-141795543D01*
X114051416Y-141796752D01*
X114054935Y-141798639D01*
X114122043Y-141819156D01*
X114188987Y-141840392D01*
X114192958Y-141840837D01*
X114196780Y-141842006D01*
X114266610Y-141849099D01*
X114336389Y-141856926D01*
X114344204Y-141856981D01*
X114344347Y-141856995D01*
X114344480Y-141856982D01*
X114347000Y-141857000D01*
X116078000Y-141857000D01*
X116147877Y-141850149D01*
X116217803Y-141844031D01*
X116221641Y-141842916D01*
X116225618Y-141842526D01*
X116292821Y-141822236D01*
X116360240Y-141802649D01*
X116363788Y-141800810D01*
X116367613Y-141799655D01*
X116429591Y-141766701D01*
X116491925Y-141734390D01*
X116495048Y-141731897D01*
X116498578Y-141730020D01*
X116552987Y-141685645D01*
X116607846Y-141641852D01*
X116613406Y-141636369D01*
X116613522Y-141636274D01*
X116613611Y-141636166D01*
X116615401Y-141634401D01*
X116989803Y-141260000D01*
X121243856Y-141260000D01*
X121345820Y-141314502D01*
X121465518Y-141350812D01*
X121590000Y-141363072D01*
X122127270Y-141363072D01*
X122589099Y-141824901D01*
X122643355Y-141869468D01*
X122697125Y-141914586D01*
X122700626Y-141916511D01*
X122703715Y-141919048D01*
X122765567Y-141952213D01*
X122827104Y-141986043D01*
X122830916Y-141987252D01*
X122834435Y-141989139D01*
X122901531Y-142009652D01*
X122968487Y-142030892D01*
X122972459Y-142031338D01*
X122976281Y-142032506D01*
X123046105Y-142039598D01*
X123115889Y-142047426D01*
X123123704Y-142047481D01*
X123123847Y-142047495D01*
X123123980Y-142047482D01*
X123126500Y-142047500D01*
X125122496Y-142047500D01*
X125192373Y-142040649D01*
X125262299Y-142034531D01*
X125266137Y-142033416D01*
X125270114Y-142033026D01*
X125337317Y-142012736D01*
X125404736Y-141993149D01*
X125408284Y-141991310D01*
X125412109Y-141990155D01*
X125474087Y-141957201D01*
X125536421Y-141924890D01*
X125539544Y-141922397D01*
X125543074Y-141920520D01*
X125597483Y-141876145D01*
X125652342Y-141832352D01*
X125657902Y-141826869D01*
X125658018Y-141826774D01*
X125658107Y-141826666D01*
X125659897Y-141824901D01*
X126252800Y-141231998D01*
X133906824Y-141231998D01*
X133935506Y-141255537D01*
X134045820Y-141314502D01*
X134165518Y-141350812D01*
X134290000Y-141363072D01*
X135090000Y-141363072D01*
X135197666Y-141352468D01*
X135606599Y-141761401D01*
X135660855Y-141805968D01*
X135714625Y-141851086D01*
X135718126Y-141853011D01*
X135721215Y-141855548D01*
X135783102Y-141888732D01*
X135844604Y-141922543D01*
X135848412Y-141923751D01*
X135851935Y-141925640D01*
X135919118Y-141946180D01*
X135985987Y-141967392D01*
X135989954Y-141967837D01*
X135993781Y-141969007D01*
X136063699Y-141976109D01*
X136133389Y-141983926D01*
X136141194Y-141983980D01*
X136141347Y-141983996D01*
X136141490Y-141983982D01*
X136144000Y-141984000D01*
X137922000Y-141984000D01*
X137991877Y-141977149D01*
X138061803Y-141971031D01*
X138065641Y-141969916D01*
X138069618Y-141969526D01*
X138136821Y-141949236D01*
X138204240Y-141929649D01*
X138207788Y-141927810D01*
X138211613Y-141926655D01*
X138273591Y-141893701D01*
X138335925Y-141861390D01*
X138339048Y-141858897D01*
X138342578Y-141857020D01*
X138396987Y-141812645D01*
X138451846Y-141768852D01*
X138457406Y-141763369D01*
X138457522Y-141763274D01*
X138457611Y-141763166D01*
X138459401Y-141761401D01*
X138960802Y-141260000D01*
X142833856Y-141260000D01*
X142935820Y-141314502D01*
X143055518Y-141350812D01*
X143180000Y-141363072D01*
X143980000Y-141363072D01*
X144014838Y-141359641D01*
X144289598Y-141634401D01*
X144343880Y-141678988D01*
X144397625Y-141724086D01*
X144401126Y-141726011D01*
X144404215Y-141728548D01*
X144466067Y-141761713D01*
X144527604Y-141795543D01*
X144531416Y-141796752D01*
X144534935Y-141798639D01*
X144602043Y-141819156D01*
X144668987Y-141840392D01*
X144672958Y-141840837D01*
X144676780Y-141842006D01*
X144746610Y-141849099D01*
X144816389Y-141856926D01*
X144824204Y-141856981D01*
X144824347Y-141856995D01*
X144824480Y-141856982D01*
X144827000Y-141857000D01*
X146621500Y-141857000D01*
X146691377Y-141850149D01*
X146761303Y-141844031D01*
X146765141Y-141842916D01*
X146769118Y-141842526D01*
X146836321Y-141822236D01*
X146903740Y-141802649D01*
X146907288Y-141800810D01*
X146911113Y-141799655D01*
X146973091Y-141766701D01*
X147035425Y-141734390D01*
X147038548Y-141731897D01*
X147042078Y-141730020D01*
X147096487Y-141685645D01*
X147151346Y-141641852D01*
X147156906Y-141636369D01*
X147157022Y-141636274D01*
X147157111Y-141636166D01*
X147158901Y-141634401D01*
X147533303Y-141260000D01*
X154263856Y-141260000D01*
X154365820Y-141314502D01*
X154485518Y-141350812D01*
X154610000Y-141363072D01*
X155410000Y-141363072D01*
X155534482Y-141350812D01*
X155654180Y-141314502D01*
X155664620Y-141308922D01*
X155943100Y-141587402D01*
X155997356Y-141631969D01*
X156051126Y-141677087D01*
X156054627Y-141679012D01*
X156057716Y-141681549D01*
X156119603Y-141714733D01*
X156181105Y-141748544D01*
X156184913Y-141749752D01*
X156188436Y-141751641D01*
X156255578Y-141772168D01*
X156322488Y-141793393D01*
X156326460Y-141793839D01*
X156330282Y-141795007D01*
X156400150Y-141802104D01*
X156469890Y-141809927D01*
X156477695Y-141809981D01*
X156477848Y-141809997D01*
X156477991Y-141809983D01*
X156480501Y-141810001D01*
X158161999Y-141810001D01*
X158231876Y-141803150D01*
X158301802Y-141797032D01*
X158305640Y-141795917D01*
X158309617Y-141795527D01*
X158376820Y-141775237D01*
X158444239Y-141755650D01*
X158447787Y-141753811D01*
X158451612Y-141752656D01*
X158513590Y-141719702D01*
X158575924Y-141687391D01*
X158579047Y-141684898D01*
X158582577Y-141683021D01*
X158636986Y-141638646D01*
X158691845Y-141594853D01*
X158697405Y-141589370D01*
X158697521Y-141589275D01*
X158697610Y-141589167D01*
X158699400Y-141587402D01*
X159026802Y-141260000D01*
X163153856Y-141260000D01*
X163255820Y-141314502D01*
X163375518Y-141350812D01*
X163500000Y-141363072D01*
X164300000Y-141363072D01*
X164424482Y-141350812D01*
X164544180Y-141314502D01*
X164654494Y-141255537D01*
X164751185Y-141176185D01*
X164830537Y-141079494D01*
X164889502Y-140969180D01*
X164925812Y-140849482D01*
X164938072Y-140725000D01*
X164938072Y-140720848D01*
X165076477Y-140751279D01*
X165329009Y-141003811D01*
X165369463Y-141079494D01*
X165448815Y-141176185D01*
X165545506Y-141255537D01*
X165655820Y-141314502D01*
X165775518Y-141350812D01*
X165900000Y-141363072D01*
X166700000Y-141363072D01*
X166824482Y-141350812D01*
X166944180Y-141314502D01*
X167054494Y-141255537D01*
X167151185Y-141176185D01*
X167230537Y-141079494D01*
X167289502Y-140969180D01*
X167325812Y-140849482D01*
X167338072Y-140725000D01*
X167338072Y-140275000D01*
X167325812Y-140150518D01*
X167310488Y-140100000D01*
X167325812Y-140049482D01*
X167338072Y-139925000D01*
X167338072Y-139475000D01*
X167325812Y-139350518D01*
X167310488Y-139300000D01*
X167325812Y-139249482D01*
X167338072Y-139125000D01*
X167338072Y-138675000D01*
X167325812Y-138550518D01*
X167289502Y-138430820D01*
X167230537Y-138320506D01*
X167151185Y-138223815D01*
X167054494Y-138144463D01*
X166944180Y-138085498D01*
X166824482Y-138049188D01*
X166700000Y-138036928D01*
X165900000Y-138036928D01*
X165775518Y-138049188D01*
X165655820Y-138085498D01*
X165545506Y-138144463D01*
X165448815Y-138223815D01*
X165369463Y-138320506D01*
X165310498Y-138430820D01*
X165274188Y-138550518D01*
X165261928Y-138675000D01*
X165261928Y-138688270D01*
X165039292Y-138910906D01*
X164961733Y-138925701D01*
X164938072Y-138935261D01*
X164938072Y-138675000D01*
X164925812Y-138550518D01*
X164889502Y-138430820D01*
X164830537Y-138320506D01*
X164751185Y-138223815D01*
X164654494Y-138144463D01*
X164544180Y-138085498D01*
X164424482Y-138049188D01*
X164300000Y-138036928D01*
X163500000Y-138036928D01*
X163375518Y-138049188D01*
X163255820Y-138085498D01*
X163153856Y-138140000D01*
X159534802Y-138140000D01*
X158710391Y-137315589D01*
X158656135Y-137271022D01*
X158602365Y-137225904D01*
X158598864Y-137223979D01*
X158595775Y-137221442D01*
X158533923Y-137188277D01*
X158472386Y-137154447D01*
X158468574Y-137153238D01*
X158465055Y-137151351D01*
X158397959Y-137130838D01*
X158331003Y-137109598D01*
X158327031Y-137109152D01*
X158323209Y-137107984D01*
X158253341Y-137100887D01*
X158183601Y-137093064D01*
X158175796Y-137093010D01*
X158175643Y-137092994D01*
X158175500Y-137093008D01*
X158172990Y-137092990D01*
X156595100Y-137092990D01*
X156525219Y-137099842D01*
X156455297Y-137105959D01*
X156451459Y-137107074D01*
X156447482Y-137107464D01*
X156380312Y-137127744D01*
X156312861Y-137147340D01*
X156309310Y-137149181D01*
X156305487Y-137150335D01*
X156243526Y-137183280D01*
X156181175Y-137215600D01*
X156178052Y-137218093D01*
X156174522Y-137219970D01*
X156120113Y-137264345D01*
X156065254Y-137308138D01*
X156059694Y-137313621D01*
X156059578Y-137313716D01*
X156059489Y-137313824D01*
X156057699Y-137315589D01*
X155336360Y-138036928D01*
X154610000Y-138036928D01*
X154485518Y-138049188D01*
X154365820Y-138085498D01*
X154263856Y-138140000D01*
X148231802Y-138140000D01*
X147285901Y-137194099D01*
X147231645Y-137149532D01*
X147177875Y-137104414D01*
X147174374Y-137102489D01*
X147171285Y-137099952D01*
X147109433Y-137066787D01*
X147047896Y-137032957D01*
X147044084Y-137031748D01*
X147040565Y-137029861D01*
X146973469Y-137009348D01*
X146906513Y-136988108D01*
X146902541Y-136987662D01*
X146898719Y-136986494D01*
X146828851Y-136979397D01*
X146759111Y-136971574D01*
X146751306Y-136971520D01*
X146751153Y-136971504D01*
X146751010Y-136971518D01*
X146748500Y-136971500D01*
X145224500Y-136971500D01*
X145154615Y-136978352D01*
X145084698Y-136984469D01*
X145080860Y-136985584D01*
X145076882Y-136985974D01*
X145009700Y-137006257D01*
X144942261Y-137025850D01*
X144938710Y-137027691D01*
X144934887Y-137028845D01*
X144872926Y-137061790D01*
X144810575Y-137094110D01*
X144807452Y-137096603D01*
X144803922Y-137098480D01*
X144749489Y-137142875D01*
X144694655Y-137186648D01*
X144689096Y-137192130D01*
X144688978Y-137192226D01*
X144688888Y-137192335D01*
X144687099Y-137194099D01*
X143844270Y-138036928D01*
X143180000Y-138036928D01*
X143055518Y-138049188D01*
X142935820Y-138085498D01*
X142833856Y-138140000D01*
X139659302Y-138140000D01*
X138586401Y-137067099D01*
X138532145Y-137022532D01*
X138478375Y-136977414D01*
X138474874Y-136975489D01*
X138471785Y-136972952D01*
X138409933Y-136939787D01*
X138348396Y-136905957D01*
X138344584Y-136904748D01*
X138341065Y-136902861D01*
X138273969Y-136882348D01*
X138207013Y-136861108D01*
X138203041Y-136860662D01*
X138199219Y-136859494D01*
X138129351Y-136852397D01*
X138059611Y-136844574D01*
X138051806Y-136844520D01*
X138051653Y-136844504D01*
X138051510Y-136844518D01*
X138049000Y-136844500D01*
X136080500Y-136844500D01*
X136010619Y-136851352D01*
X135940697Y-136857469D01*
X135936859Y-136858584D01*
X135932882Y-136858974D01*
X135865712Y-136879254D01*
X135798261Y-136898850D01*
X135794710Y-136900691D01*
X135790887Y-136901845D01*
X135728926Y-136934790D01*
X135666575Y-136967110D01*
X135663452Y-136969603D01*
X135659922Y-136971480D01*
X135605489Y-137015875D01*
X135550655Y-137059648D01*
X135545096Y-137065130D01*
X135544978Y-137065226D01*
X135544888Y-137065335D01*
X135543099Y-137067099D01*
X134573270Y-138036928D01*
X134290000Y-138036928D01*
X134165518Y-138049188D01*
X134045820Y-138085498D01*
X133943856Y-138140000D01*
X127403802Y-138140000D01*
X126140401Y-136876599D01*
X126086145Y-136832032D01*
X126032375Y-136786914D01*
X126028874Y-136784989D01*
X126025785Y-136782452D01*
X125963933Y-136749287D01*
X125902396Y-136715457D01*
X125898584Y-136714248D01*
X125895065Y-136712361D01*
X125827969Y-136691848D01*
X125761013Y-136670608D01*
X125757041Y-136670162D01*
X125753219Y-136668994D01*
X125683351Y-136661897D01*
X125613611Y-136654074D01*
X125605806Y-136654020D01*
X125605653Y-136654004D01*
X125605510Y-136654018D01*
X125603000Y-136654000D01*
X123380500Y-136654000D01*
X123310619Y-136660852D01*
X123240697Y-136666969D01*
X123236859Y-136668084D01*
X123232882Y-136668474D01*
X123165679Y-136688764D01*
X123098260Y-136708351D01*
X123094712Y-136710190D01*
X123090887Y-136711345D01*
X123028909Y-136744299D01*
X122966575Y-136776610D01*
X122963452Y-136779103D01*
X122959922Y-136780980D01*
X122905513Y-136825355D01*
X122850654Y-136869148D01*
X122845094Y-136874631D01*
X122844978Y-136874726D01*
X122844889Y-136874834D01*
X122843099Y-136876599D01*
X121682770Y-138036928D01*
X121590000Y-138036928D01*
X121465518Y-138049188D01*
X121345820Y-138085498D01*
X121243856Y-138140000D01*
X117624802Y-138140000D01*
X116615401Y-137130599D01*
X116561145Y-137086032D01*
X116507375Y-137040914D01*
X116503874Y-137038989D01*
X116500785Y-137036452D01*
X116438933Y-137003287D01*
X116377396Y-136969457D01*
X116373584Y-136968248D01*
X116370065Y-136966361D01*
X116302969Y-136945848D01*
X116236013Y-136924608D01*
X116232041Y-136924162D01*
X116228219Y-136922994D01*
X116158351Y-136915897D01*
X116088611Y-136908074D01*
X116080806Y-136908020D01*
X116080653Y-136908004D01*
X116080510Y-136908018D01*
X116078000Y-136908000D01*
X113792000Y-136908000D01*
X113722119Y-136914852D01*
X113652197Y-136920969D01*
X113648359Y-136922084D01*
X113644382Y-136922474D01*
X113577212Y-136942754D01*
X113509761Y-136962350D01*
X113506210Y-136964191D01*
X113502387Y-136965345D01*
X113440426Y-136998290D01*
X113378075Y-137030610D01*
X113374952Y-137033103D01*
X113371422Y-137034980D01*
X113317013Y-137079355D01*
X113262154Y-137123148D01*
X113256594Y-137128631D01*
X113256478Y-137128726D01*
X113256389Y-137128834D01*
X113254599Y-137130599D01*
X112742500Y-137642698D01*
X109880301Y-134780499D01*
X111020799Y-133640000D01*
X112353856Y-133640000D01*
X112455820Y-133694502D01*
X112575518Y-133730812D01*
X112700000Y-133743072D01*
X112919770Y-133743072D01*
X113381599Y-134204901D01*
X113435855Y-134249468D01*
X113489625Y-134294586D01*
X113493126Y-134296511D01*
X113496215Y-134299048D01*
X113558067Y-134332213D01*
X113619604Y-134366043D01*
X113623416Y-134367252D01*
X113626935Y-134369139D01*
X113694031Y-134389652D01*
X113760987Y-134410892D01*
X113764959Y-134411338D01*
X113768781Y-134412506D01*
X113838605Y-134419598D01*
X113908389Y-134427426D01*
X113916204Y-134427481D01*
X113916347Y-134427495D01*
X113916480Y-134427482D01*
X113919000Y-134427500D01*
X116141500Y-134427500D01*
X116211377Y-134420649D01*
X116281303Y-134414531D01*
X116285141Y-134413416D01*
X116289118Y-134413026D01*
X116356321Y-134392736D01*
X116423740Y-134373149D01*
X116427288Y-134371310D01*
X116431113Y-134370155D01*
X116493091Y-134337201D01*
X116555425Y-134304890D01*
X116558548Y-134302397D01*
X116562078Y-134300520D01*
X116616487Y-134256145D01*
X116671346Y-134212352D01*
X116676906Y-134206869D01*
X116677022Y-134206774D01*
X116677111Y-134206666D01*
X116678901Y-134204901D01*
X117243802Y-133640000D01*
X121243856Y-133640000D01*
X121345820Y-133694502D01*
X121465518Y-133730812D01*
X121590000Y-133743072D01*
X122390000Y-133743072D01*
X122514482Y-133730812D01*
X122634180Y-133694502D01*
X122727382Y-133644684D01*
X123224099Y-134141401D01*
X123278355Y-134185968D01*
X123332125Y-134231086D01*
X123335626Y-134233011D01*
X123338715Y-134235548D01*
X123400602Y-134268732D01*
X123462104Y-134302543D01*
X123465912Y-134303751D01*
X123469435Y-134305640D01*
X123536618Y-134326180D01*
X123603487Y-134347392D01*
X123607454Y-134347837D01*
X123611281Y-134349007D01*
X123681199Y-134356109D01*
X123750889Y-134363926D01*
X123758694Y-134363980D01*
X123758847Y-134363996D01*
X123758990Y-134363982D01*
X123761500Y-134364000D01*
X125095000Y-134364000D01*
X125164877Y-134357149D01*
X125234803Y-134351031D01*
X125238641Y-134349916D01*
X125242618Y-134349526D01*
X125309821Y-134329236D01*
X125377240Y-134309649D01*
X125380788Y-134307810D01*
X125384613Y-134306655D01*
X125446591Y-134273701D01*
X125508925Y-134241390D01*
X125512048Y-134238897D01*
X125515578Y-134237020D01*
X125569987Y-134192645D01*
X125624846Y-134148852D01*
X125630406Y-134143369D01*
X125630522Y-134143274D01*
X125630611Y-134143166D01*
X125632401Y-134141401D01*
X126133802Y-133640000D01*
X133943856Y-133640000D01*
X134045820Y-133694502D01*
X134165518Y-133730812D01*
X134290000Y-133743072D01*
X135090000Y-133743072D01*
X135214482Y-133730812D01*
X135249030Y-133720332D01*
X135733599Y-134204901D01*
X135787855Y-134249468D01*
X135841625Y-134294586D01*
X135845126Y-134296511D01*
X135848215Y-134299048D01*
X135910067Y-134332213D01*
X135971604Y-134366043D01*
X135975416Y-134367252D01*
X135978935Y-134369139D01*
X136046031Y-134389652D01*
X136112987Y-134410892D01*
X136116959Y-134411338D01*
X136120781Y-134412506D01*
X136190605Y-134419598D01*
X136260389Y-134427426D01*
X136268204Y-134427481D01*
X136268347Y-134427495D01*
X136268480Y-134427482D01*
X136271000Y-134427500D01*
X137858500Y-134427500D01*
X137928377Y-134420649D01*
X137998303Y-134414531D01*
X138002141Y-134413416D01*
X138006118Y-134413026D01*
X138073321Y-134392736D01*
X138140740Y-134373149D01*
X138144288Y-134371310D01*
X138148113Y-134370155D01*
X138210091Y-134337201D01*
X138272425Y-134304890D01*
X138275548Y-134302397D01*
X138279078Y-134300520D01*
X138333487Y-134256145D01*
X138388346Y-134212352D01*
X138393906Y-134206869D01*
X138394022Y-134206774D01*
X138394111Y-134206666D01*
X138395901Y-134204901D01*
X138960802Y-133640000D01*
X142833856Y-133640000D01*
X142935820Y-133694502D01*
X143055518Y-133730812D01*
X143180000Y-133743072D01*
X143980000Y-133743072D01*
X144104482Y-133730812D01*
X144224180Y-133694502D01*
X144326144Y-133640000D01*
X144503198Y-133640000D01*
X144941099Y-134077901D01*
X144995355Y-134122468D01*
X145049125Y-134167586D01*
X145052626Y-134169511D01*
X145055715Y-134172048D01*
X145117567Y-134205213D01*
X145179104Y-134239043D01*
X145182916Y-134240252D01*
X145186435Y-134242139D01*
X145253531Y-134262652D01*
X145320487Y-134283892D01*
X145324459Y-134284338D01*
X145328281Y-134285506D01*
X145398105Y-134292598D01*
X145467889Y-134300426D01*
X145475704Y-134300481D01*
X145475847Y-134300495D01*
X145475980Y-134300482D01*
X145478500Y-134300500D01*
X146621500Y-134300500D01*
X146691377Y-134293649D01*
X146761303Y-134287531D01*
X146765141Y-134286416D01*
X146769118Y-134286026D01*
X146836321Y-134265736D01*
X146903740Y-134246149D01*
X146907288Y-134244310D01*
X146911113Y-134243155D01*
X146973091Y-134210201D01*
X147035425Y-134177890D01*
X147038548Y-134175397D01*
X147042078Y-134173520D01*
X147096487Y-134129145D01*
X147151346Y-134085352D01*
X147156906Y-134079869D01*
X147157022Y-134079774D01*
X147157111Y-134079666D01*
X147158901Y-134077901D01*
X147596802Y-133640000D01*
X154263856Y-133640000D01*
X154365820Y-133694502D01*
X154485518Y-133730812D01*
X154610000Y-133743072D01*
X155410000Y-133743072D01*
X155534482Y-133730812D01*
X155654180Y-133694502D01*
X155747382Y-133644684D01*
X156070100Y-133967402D01*
X156124356Y-134011969D01*
X156178126Y-134057087D01*
X156181627Y-134059012D01*
X156184716Y-134061549D01*
X156246603Y-134094733D01*
X156308105Y-134128544D01*
X156311913Y-134129752D01*
X156315436Y-134131641D01*
X156382578Y-134152168D01*
X156449488Y-134173393D01*
X156453460Y-134173839D01*
X156457282Y-134175007D01*
X156527150Y-134182104D01*
X156596890Y-134189927D01*
X156604695Y-134189981D01*
X156604848Y-134189997D01*
X156604991Y-134189983D01*
X156607501Y-134190001D01*
X158161999Y-134190001D01*
X158231876Y-134183150D01*
X158301802Y-134177032D01*
X158305640Y-134175917D01*
X158309617Y-134175527D01*
X158376820Y-134155237D01*
X158444239Y-134135650D01*
X158447787Y-134133811D01*
X158451612Y-134132656D01*
X158513590Y-134099702D01*
X158575924Y-134067391D01*
X158579047Y-134064898D01*
X158582577Y-134063021D01*
X158636986Y-134018646D01*
X158691845Y-133974853D01*
X158697405Y-133969370D01*
X158697521Y-133969275D01*
X158697610Y-133969167D01*
X158699400Y-133967402D01*
X159026802Y-133640000D01*
X163153856Y-133640000D01*
X163255820Y-133694502D01*
X163375518Y-133730812D01*
X163500000Y-133743072D01*
X164300000Y-133743072D01*
X164424482Y-133730812D01*
X164544180Y-133694502D01*
X164654494Y-133635537D01*
X164751185Y-133556185D01*
X164812020Y-133482058D01*
X164985238Y-133520143D01*
X165031061Y-133544713D01*
X165092598Y-133578543D01*
X165096410Y-133579752D01*
X165099929Y-133581639D01*
X165167025Y-133602152D01*
X165233981Y-133623392D01*
X165237953Y-133623838D01*
X165241775Y-133625006D01*
X165311599Y-133632098D01*
X165381383Y-133639926D01*
X165389198Y-133639981D01*
X165389341Y-133639995D01*
X165389474Y-133639982D01*
X165391994Y-133640000D01*
X165553856Y-133640000D01*
X165655820Y-133694502D01*
X165775518Y-133730812D01*
X165900000Y-133743072D01*
X166700000Y-133743072D01*
X166824482Y-133730812D01*
X166944180Y-133694502D01*
X167054494Y-133635537D01*
X167151185Y-133556185D01*
X167230537Y-133459494D01*
X167289502Y-133349180D01*
X167325812Y-133229482D01*
X167338072Y-133105000D01*
X167338072Y-132655000D01*
X167325812Y-132530518D01*
X167310488Y-132480000D01*
X167325812Y-132429482D01*
X167338072Y-132305000D01*
X167338072Y-131855000D01*
X167325812Y-131730518D01*
X167310488Y-131680000D01*
X167325812Y-131629482D01*
X167338072Y-131505000D01*
X167338072Y-131055000D01*
X167325812Y-130930518D01*
X167289502Y-130810820D01*
X167230537Y-130700506D01*
X167151185Y-130603815D01*
X167054494Y-130524463D01*
X166944180Y-130465498D01*
X166824482Y-130429188D01*
X166700000Y-130416928D01*
X165900000Y-130416928D01*
X165775518Y-130429188D01*
X165655820Y-130465498D01*
X165553856Y-130520000D01*
X165376802Y-130520000D01*
X165049400Y-130192598D01*
X164995144Y-130148031D01*
X164941374Y-130102913D01*
X164937873Y-130100988D01*
X164934784Y-130098451D01*
X164872932Y-130065286D01*
X164811395Y-130031456D01*
X164807583Y-130030247D01*
X164804064Y-130028360D01*
X164736968Y-130007847D01*
X164670012Y-129986607D01*
X164666040Y-129986161D01*
X164662218Y-129984993D01*
X164592350Y-129977896D01*
X164522610Y-129970073D01*
X164514805Y-129970019D01*
X164514652Y-129970003D01*
X164514509Y-129970017D01*
X164511999Y-129969999D01*
X160272000Y-129969999D01*
X160272000Y-129830747D01*
X160328911Y-129750070D01*
X160403492Y-129582560D01*
X160444116Y-129403754D01*
X160447040Y-129194319D01*
X160411425Y-129014448D01*
X160341550Y-128844920D01*
X160240079Y-128692193D01*
X160110875Y-128562084D01*
X159958860Y-128459549D01*
X159789825Y-128388493D01*
X159610207Y-128351623D01*
X159426849Y-128350343D01*
X159246733Y-128384701D01*
X159076722Y-128453390D01*
X158923291Y-128553793D01*
X158792283Y-128682086D01*
X158688689Y-128833381D01*
X158616454Y-129001916D01*
X158578331Y-129181272D01*
X158575771Y-129364617D01*
X158600290Y-129498209D01*
X158590513Y-129495108D01*
X158586541Y-129494662D01*
X158582719Y-129493494D01*
X158512851Y-129486397D01*
X158443111Y-129478574D01*
X158435306Y-129478520D01*
X158435153Y-129478504D01*
X158435010Y-129478518D01*
X158432500Y-129478500D01*
X156226500Y-129478500D01*
X156156573Y-129485356D01*
X156086697Y-129491470D01*
X156082864Y-129492584D01*
X156078882Y-129492974D01*
X156011638Y-129513276D01*
X155944260Y-129532851D01*
X155940712Y-129534690D01*
X155936887Y-129535845D01*
X155874890Y-129568809D01*
X155812574Y-129601111D01*
X155809453Y-129603603D01*
X155805922Y-129605480D01*
X155751507Y-129649859D01*
X155696654Y-129693648D01*
X155691094Y-129699131D01*
X155690978Y-129699226D01*
X155690889Y-129699334D01*
X155689099Y-129701099D01*
X154973270Y-130416928D01*
X154610000Y-130416928D01*
X154485518Y-130429188D01*
X154365820Y-130465498D01*
X154263856Y-130520000D01*
X148231802Y-130520000D01*
X147349401Y-129637599D01*
X147295145Y-129593032D01*
X147241375Y-129547914D01*
X147237874Y-129545989D01*
X147234785Y-129543452D01*
X147172933Y-129510287D01*
X147111396Y-129476457D01*
X147107584Y-129475248D01*
X147104065Y-129473361D01*
X147036969Y-129452848D01*
X146970013Y-129431608D01*
X146966041Y-129431162D01*
X146962219Y-129429994D01*
X146892351Y-129422897D01*
X146822611Y-129415074D01*
X146814806Y-129415020D01*
X146814653Y-129415004D01*
X146814510Y-129415018D01*
X146812000Y-129415000D01*
X145161000Y-129415000D01*
X145091123Y-129421851D01*
X145021197Y-129427969D01*
X145017359Y-129429084D01*
X145013382Y-129429474D01*
X144946179Y-129449764D01*
X144878760Y-129469351D01*
X144875212Y-129471190D01*
X144871387Y-129472345D01*
X144809409Y-129505299D01*
X144747075Y-129537610D01*
X144743952Y-129540103D01*
X144740422Y-129541980D01*
X144686013Y-129586355D01*
X144631154Y-129630148D01*
X144625594Y-129635631D01*
X144625478Y-129635726D01*
X144625389Y-129635834D01*
X144623599Y-129637599D01*
X143844270Y-130416928D01*
X143180000Y-130416928D01*
X143055518Y-130429188D01*
X142935820Y-130465498D01*
X142833856Y-130520000D01*
X139976802Y-130520000D01*
X138840401Y-129383599D01*
X138786145Y-129339032D01*
X138732375Y-129293914D01*
X138728874Y-129291989D01*
X138725785Y-129289452D01*
X138663933Y-129256287D01*
X138602396Y-129222457D01*
X138598584Y-129221248D01*
X138595065Y-129219361D01*
X138527969Y-129198848D01*
X138461013Y-129177608D01*
X138457041Y-129177162D01*
X138453219Y-129175994D01*
X138383351Y-129168897D01*
X138313611Y-129161074D01*
X138305806Y-129161020D01*
X138305653Y-129161004D01*
X138305510Y-129161018D01*
X138303000Y-129161000D01*
X135953500Y-129161000D01*
X135883619Y-129167852D01*
X135813697Y-129173969D01*
X135809859Y-129175084D01*
X135805882Y-129175474D01*
X135738712Y-129195754D01*
X135671261Y-129215350D01*
X135667710Y-129217191D01*
X135663887Y-129218345D01*
X135601926Y-129251290D01*
X135539575Y-129283610D01*
X135536452Y-129286103D01*
X135532922Y-129287980D01*
X135478513Y-129332355D01*
X135423654Y-129376148D01*
X135418094Y-129381631D01*
X135417978Y-129381726D01*
X135417889Y-129381834D01*
X135416099Y-129383599D01*
X134382770Y-130416928D01*
X134290000Y-130416928D01*
X134165518Y-130429188D01*
X134045820Y-130465498D01*
X133943856Y-130520000D01*
X127340302Y-130520000D01*
X126140401Y-129320099D01*
X126086145Y-129275532D01*
X126032375Y-129230414D01*
X126028874Y-129228489D01*
X126025785Y-129225952D01*
X125963933Y-129192787D01*
X125902396Y-129158957D01*
X125898584Y-129157748D01*
X125895065Y-129155861D01*
X125827969Y-129135348D01*
X125761013Y-129114108D01*
X125757041Y-129113662D01*
X125753219Y-129112494D01*
X125683351Y-129105397D01*
X125613611Y-129097574D01*
X125605806Y-129097520D01*
X125605653Y-129097504D01*
X125605510Y-129097518D01*
X125603000Y-129097500D01*
X123317000Y-129097500D01*
X123247073Y-129104356D01*
X123177197Y-129110470D01*
X123173364Y-129111584D01*
X123169382Y-129111974D01*
X123102138Y-129132276D01*
X123034760Y-129151851D01*
X123031212Y-129153690D01*
X123027387Y-129154845D01*
X122965390Y-129187809D01*
X122903074Y-129220111D01*
X122899953Y-129222603D01*
X122896422Y-129224480D01*
X122842007Y-129268859D01*
X122787154Y-129312648D01*
X122781594Y-129318131D01*
X122781478Y-129318226D01*
X122781389Y-129318334D01*
X122779599Y-129320099D01*
X121682770Y-130416928D01*
X121590000Y-130416928D01*
X121465518Y-130429188D01*
X121345820Y-130465498D01*
X121243856Y-130520000D01*
X121180802Y-130520000D01*
X121059696Y-130398894D01*
X121005440Y-130354327D01*
X120951670Y-130309209D01*
X120948169Y-130307284D01*
X120945080Y-130304747D01*
X120883228Y-130271582D01*
X120821691Y-130237752D01*
X120817879Y-130236543D01*
X120814360Y-130234656D01*
X120747264Y-130214143D01*
X120680308Y-130192903D01*
X120676336Y-130192457D01*
X120672514Y-130191289D01*
X120602646Y-130184192D01*
X120532906Y-130176369D01*
X120525101Y-130176315D01*
X120524948Y-130176299D01*
X120524805Y-130176313D01*
X120522295Y-130176295D01*
X117409507Y-130176295D01*
X116738302Y-129505090D01*
X116684046Y-129460523D01*
X116630276Y-129415405D01*
X116626775Y-129413480D01*
X116623686Y-129410943D01*
X116561834Y-129377778D01*
X116500297Y-129343948D01*
X116496485Y-129342739D01*
X116492966Y-129340852D01*
X116425870Y-129320339D01*
X116358914Y-129299099D01*
X116354942Y-129298653D01*
X116351120Y-129297485D01*
X116281252Y-129290388D01*
X116211512Y-129282565D01*
X116203707Y-129282511D01*
X116203554Y-129282495D01*
X116203411Y-129282509D01*
X116200901Y-129282491D01*
X114305509Y-129282491D01*
X114235632Y-129289342D01*
X114165706Y-129295460D01*
X114161868Y-129296575D01*
X114157891Y-129296965D01*
X114090688Y-129317255D01*
X114023269Y-129336842D01*
X114019721Y-129338681D01*
X114015896Y-129339836D01*
X113953899Y-129372800D01*
X113891583Y-129405102D01*
X113888462Y-129407594D01*
X113884931Y-129409471D01*
X113830516Y-129453850D01*
X113775663Y-129497639D01*
X113770103Y-129503122D01*
X113769987Y-129503217D01*
X113769898Y-129503325D01*
X113768108Y-129505090D01*
X112856270Y-130416928D01*
X112700000Y-130416928D01*
X112575518Y-130429188D01*
X112455820Y-130465498D01*
X112353856Y-130520000D01*
X110766802Y-130520000D01*
X108880280Y-128633478D01*
X108880280Y-126492000D01*
X108873295Y-126420758D01*
X108866818Y-126349590D01*
X108866066Y-126347035D01*
X108865806Y-126344382D01*
X108845136Y-126275919D01*
X108824940Y-126207299D01*
X108823705Y-126204936D01*
X108822935Y-126202387D01*
X108789373Y-126139265D01*
X108756221Y-126075852D01*
X108754551Y-126073775D01*
X108753300Y-126071422D01*
X108708070Y-126015965D01*
X108663279Y-125960256D01*
X108661238Y-125958543D01*
X108659554Y-125956478D01*
X108604382Y-125910836D01*
X108549655Y-125864914D01*
X108547323Y-125863632D01*
X108545267Y-125861931D01*
X108482311Y-125827891D01*
X108419676Y-125793457D01*
X108417135Y-125792651D01*
X108414792Y-125791384D01*
X108346483Y-125770239D01*
X108278293Y-125748608D01*
X108275644Y-125748311D01*
X108273099Y-125747523D01*
X108262804Y-125746441D01*
X108142876Y-125665549D01*
X107973841Y-125594493D01*
X107794223Y-125557623D01*
X107610865Y-125556343D01*
X107430749Y-125590701D01*
X107260738Y-125659390D01*
X107107307Y-125759793D01*
X106976299Y-125888086D01*
X106872705Y-126039381D01*
X106800470Y-126207916D01*
X106762347Y-126387272D01*
X106759787Y-126570617D01*
X106792888Y-126750968D01*
X106860388Y-126921454D01*
X106959717Y-127075583D01*
X107087092Y-127207484D01*
X107237660Y-127312131D01*
X107360280Y-127365702D01*
X107360280Y-128538480D01*
X107263155Y-128577721D01*
X107109724Y-128678124D01*
X106978716Y-128806417D01*
X106875122Y-128957712D01*
X106802887Y-129126247D01*
X106764764Y-129305603D01*
X106762204Y-129488948D01*
X106795305Y-129669299D01*
X106862805Y-129839785D01*
X106955108Y-129983011D01*
X106872689Y-130103381D01*
X106800454Y-130271916D01*
X106762331Y-130451272D01*
X106759771Y-130634617D01*
X106792872Y-130814968D01*
X106855612Y-130973432D01*
X106755679Y-131119381D01*
X106683444Y-131287916D01*
X106649758Y-131446395D01*
X106647443Y-131449214D01*
X106614278Y-131511066D01*
X106580448Y-131572603D01*
X106579239Y-131576415D01*
X106577352Y-131579934D01*
X106556839Y-131647030D01*
X106535599Y-131713986D01*
X106535153Y-131717958D01*
X106533985Y-131721780D01*
X106526888Y-131791648D01*
X106519065Y-131861388D01*
X106519011Y-131869193D01*
X106518995Y-131869346D01*
X106519009Y-131869489D01*
X106518991Y-131871999D01*
X102335000Y-131871999D01*
X102335000Y-121935117D01*
X106061271Y-121935117D01*
X106094372Y-122115468D01*
X106161872Y-122285954D01*
X106261201Y-122440083D01*
X106388576Y-122571984D01*
X106539144Y-122676631D01*
X106707171Y-122750040D01*
X106886257Y-122789415D01*
X107069579Y-122793255D01*
X107250157Y-122761414D01*
X107421110Y-122695106D01*
X107544973Y-122616500D01*
X108479476Y-122616500D01*
X108396707Y-122737381D01*
X108324472Y-122905916D01*
X108286349Y-123085272D01*
X108283789Y-123268617D01*
X108316890Y-123448968D01*
X108351692Y-123536867D01*
X108246277Y-123640097D01*
X108142683Y-123791392D01*
X108070448Y-123959927D01*
X108032325Y-124139283D01*
X108029765Y-124322628D01*
X108062866Y-124502979D01*
X108130366Y-124673465D01*
X108229695Y-124827594D01*
X108357070Y-124959495D01*
X108507638Y-125064142D01*
X108675665Y-125137551D01*
X108854751Y-125176926D01*
X109038073Y-125180766D01*
X109218651Y-125148925D01*
X109389604Y-125082617D01*
X109544423Y-124984366D01*
X109563709Y-124966000D01*
X110937198Y-124966000D01*
X111768599Y-125797401D01*
X111822855Y-125841968D01*
X111876625Y-125887086D01*
X111880126Y-125889011D01*
X111883215Y-125891548D01*
X111945067Y-125924713D01*
X112006604Y-125958543D01*
X112010416Y-125959752D01*
X112013935Y-125961639D01*
X112081031Y-125982152D01*
X112147987Y-126003392D01*
X112151959Y-126003838D01*
X112155781Y-126005006D01*
X112225605Y-126012098D01*
X112295389Y-126019926D01*
X112303204Y-126019981D01*
X112303347Y-126019995D01*
X112303480Y-126019982D01*
X112306000Y-126020000D01*
X112353856Y-126020000D01*
X112455820Y-126074502D01*
X112575518Y-126110812D01*
X112700000Y-126123072D01*
X113500000Y-126123072D01*
X113624482Y-126110812D01*
X113744180Y-126074502D01*
X113754620Y-126068922D01*
X114207099Y-126521401D01*
X114261355Y-126565968D01*
X114315125Y-126611086D01*
X114318626Y-126613011D01*
X114321715Y-126615548D01*
X114383602Y-126648732D01*
X114445104Y-126682543D01*
X114448912Y-126683751D01*
X114452435Y-126685640D01*
X114519618Y-126706180D01*
X114586487Y-126727392D01*
X114590454Y-126727837D01*
X114594281Y-126729007D01*
X114664199Y-126736109D01*
X114733889Y-126743926D01*
X114741694Y-126743980D01*
X114741847Y-126743996D01*
X114741990Y-126743982D01*
X114744500Y-126744000D01*
X116205000Y-126744000D01*
X116274877Y-126737149D01*
X116344803Y-126731031D01*
X116348641Y-126729916D01*
X116352618Y-126729526D01*
X116419821Y-126709236D01*
X116487240Y-126689649D01*
X116490788Y-126687810D01*
X116494613Y-126686655D01*
X116556591Y-126653701D01*
X116618925Y-126621390D01*
X116622048Y-126618897D01*
X116625578Y-126617020D01*
X116679987Y-126572645D01*
X116734846Y-126528852D01*
X116740406Y-126523369D01*
X116740522Y-126523274D01*
X116740611Y-126523166D01*
X116742401Y-126521401D01*
X117243802Y-126020000D01*
X121243856Y-126020000D01*
X121345820Y-126074502D01*
X121465518Y-126110812D01*
X121590000Y-126123072D01*
X122390000Y-126123072D01*
X122514482Y-126110812D01*
X122634180Y-126074502D01*
X122644620Y-126068922D01*
X123097099Y-126521401D01*
X123151355Y-126565968D01*
X123205125Y-126611086D01*
X123208626Y-126613011D01*
X123211715Y-126615548D01*
X123273602Y-126648732D01*
X123335104Y-126682543D01*
X123338912Y-126683751D01*
X123342435Y-126685640D01*
X123409618Y-126706180D01*
X123476487Y-126727392D01*
X123480454Y-126727837D01*
X123484281Y-126729007D01*
X123554199Y-126736109D01*
X123623889Y-126743926D01*
X123631694Y-126743980D01*
X123631847Y-126743996D01*
X123631990Y-126743982D01*
X123634500Y-126744000D01*
X125158500Y-126744000D01*
X125228377Y-126737149D01*
X125298303Y-126731031D01*
X125302141Y-126729916D01*
X125306118Y-126729526D01*
X125373321Y-126709236D01*
X125440740Y-126689649D01*
X125444288Y-126687810D01*
X125448113Y-126686655D01*
X125510091Y-126653701D01*
X125572425Y-126621390D01*
X125575548Y-126618897D01*
X125579078Y-126617020D01*
X125633487Y-126572645D01*
X125688346Y-126528852D01*
X125693906Y-126523369D01*
X125694022Y-126523274D01*
X125694111Y-126523166D01*
X125695901Y-126521401D01*
X126197302Y-126020000D01*
X133943856Y-126020000D01*
X134045820Y-126074502D01*
X134165518Y-126110812D01*
X134290000Y-126123072D01*
X135090000Y-126123072D01*
X135214482Y-126110812D01*
X135334180Y-126074502D01*
X135344620Y-126068922D01*
X135860599Y-126584901D01*
X135914855Y-126629468D01*
X135968625Y-126674586D01*
X135972126Y-126676511D01*
X135975215Y-126679048D01*
X136037067Y-126712213D01*
X136098604Y-126746043D01*
X136102416Y-126747252D01*
X136105935Y-126749139D01*
X136173031Y-126769652D01*
X136239987Y-126790892D01*
X136243959Y-126791338D01*
X136247781Y-126792506D01*
X136317605Y-126799598D01*
X136387389Y-126807426D01*
X136395204Y-126807481D01*
X136395347Y-126807495D01*
X136395480Y-126807482D01*
X136398000Y-126807500D01*
X137858500Y-126807500D01*
X137928377Y-126800649D01*
X137998303Y-126794531D01*
X138002141Y-126793416D01*
X138006118Y-126793026D01*
X138073321Y-126772736D01*
X138140740Y-126753149D01*
X138144288Y-126751310D01*
X138148113Y-126750155D01*
X138210091Y-126717201D01*
X138272425Y-126684890D01*
X138275548Y-126682397D01*
X138279078Y-126680520D01*
X138333487Y-126636145D01*
X138388346Y-126592352D01*
X138393906Y-126586869D01*
X138394022Y-126586774D01*
X138394111Y-126586666D01*
X138395901Y-126584901D01*
X138960802Y-126020000D01*
X142833856Y-126020000D01*
X142935820Y-126074502D01*
X143055518Y-126110812D01*
X143180000Y-126123072D01*
X143980000Y-126123072D01*
X144104482Y-126110812D01*
X144224180Y-126074502D01*
X144326144Y-126020000D01*
X144503198Y-126020000D01*
X144877598Y-126394401D01*
X144931880Y-126438988D01*
X144985625Y-126484086D01*
X144989126Y-126486011D01*
X144992215Y-126488548D01*
X145054067Y-126521713D01*
X145115604Y-126555543D01*
X145119416Y-126556752D01*
X145122935Y-126558639D01*
X145190043Y-126579156D01*
X145256987Y-126600392D01*
X145260958Y-126600837D01*
X145264780Y-126602006D01*
X145334610Y-126609099D01*
X145404389Y-126616926D01*
X145412204Y-126616981D01*
X145412347Y-126616995D01*
X145412480Y-126616982D01*
X145415000Y-126617000D01*
X146558000Y-126617000D01*
X146627877Y-126610149D01*
X146697803Y-126604031D01*
X146701641Y-126602916D01*
X146705618Y-126602526D01*
X146772821Y-126582236D01*
X146840240Y-126562649D01*
X146843788Y-126560810D01*
X146847613Y-126559655D01*
X146909591Y-126526701D01*
X146971925Y-126494390D01*
X146975048Y-126491897D01*
X146978578Y-126490020D01*
X147032987Y-126445645D01*
X147087846Y-126401852D01*
X147093406Y-126396369D01*
X147093522Y-126396274D01*
X147093611Y-126396166D01*
X147095401Y-126394401D01*
X147469803Y-126020000D01*
X154263856Y-126020000D01*
X154365820Y-126074502D01*
X154485518Y-126110812D01*
X154610000Y-126123072D01*
X155410000Y-126123072D01*
X155534482Y-126110812D01*
X155654180Y-126074502D01*
X155764494Y-126015537D01*
X155861185Y-125936185D01*
X155940537Y-125839494D01*
X155999502Y-125729180D01*
X156035812Y-125609482D01*
X156036443Y-125603077D01*
X156046671Y-125607546D01*
X156225757Y-125646921D01*
X156396631Y-125650500D01*
X156420498Y-125729180D01*
X156479463Y-125839494D01*
X156558815Y-125936185D01*
X156655506Y-126015537D01*
X156765820Y-126074502D01*
X156885518Y-126110812D01*
X157010000Y-126123072D01*
X157810000Y-126123072D01*
X157934482Y-126110812D01*
X158054180Y-126074502D01*
X158164494Y-126015537D01*
X158261185Y-125936185D01*
X158340537Y-125839494D01*
X158399502Y-125729180D01*
X158435812Y-125609482D01*
X158448072Y-125485000D01*
X158448072Y-125035000D01*
X158435812Y-124910518D01*
X158420488Y-124860000D01*
X158435812Y-124809482D01*
X158448072Y-124685000D01*
X158448072Y-124235000D01*
X158435812Y-124110518D01*
X158420488Y-124060000D01*
X158435812Y-124009482D01*
X158448072Y-123885000D01*
X158448072Y-123435000D01*
X158435812Y-123310518D01*
X158399502Y-123190820D01*
X158340537Y-123080506D01*
X158261185Y-122983815D01*
X158164494Y-122904463D01*
X158054180Y-122845498D01*
X157934482Y-122809188D01*
X157810000Y-122796928D01*
X157010000Y-122796928D01*
X156885518Y-122809188D01*
X156765820Y-122845498D01*
X156655506Y-122904463D01*
X156558815Y-122983815D01*
X156479463Y-123080506D01*
X156420498Y-123190820D01*
X156384188Y-123310518D01*
X156371928Y-123435000D01*
X156371928Y-123448270D01*
X156048072Y-123772126D01*
X156048072Y-123435000D01*
X156035812Y-123310518D01*
X155999502Y-123190820D01*
X155940537Y-123080506D01*
X155861185Y-122983815D01*
X155764494Y-122904463D01*
X155654180Y-122845498D01*
X155534482Y-122809188D01*
X155410000Y-122796928D01*
X154610000Y-122796928D01*
X154485518Y-122809188D01*
X154365820Y-122845498D01*
X154263856Y-122900000D01*
X148295302Y-122900000D01*
X147412901Y-122017599D01*
X147358645Y-121973032D01*
X147304875Y-121927914D01*
X147301374Y-121925989D01*
X147298285Y-121923452D01*
X147236433Y-121890287D01*
X147174896Y-121856457D01*
X147171084Y-121855248D01*
X147167565Y-121853361D01*
X147100469Y-121832848D01*
X147033513Y-121811608D01*
X147029541Y-121811162D01*
X147025719Y-121809994D01*
X146955851Y-121802897D01*
X146886111Y-121795074D01*
X146878306Y-121795020D01*
X146878153Y-121795004D01*
X146878010Y-121795018D01*
X146875500Y-121795000D01*
X145097500Y-121795000D01*
X145027623Y-121801851D01*
X144957697Y-121807969D01*
X144953859Y-121809084D01*
X144949882Y-121809474D01*
X144882679Y-121829764D01*
X144815260Y-121849351D01*
X144811712Y-121851190D01*
X144807887Y-121852345D01*
X144745909Y-121885299D01*
X144683575Y-121917610D01*
X144680452Y-121920103D01*
X144676922Y-121921980D01*
X144622513Y-121966355D01*
X144567654Y-122010148D01*
X144562094Y-122015631D01*
X144561978Y-122015726D01*
X144561889Y-122015834D01*
X144560099Y-122017599D01*
X143780770Y-122796928D01*
X143180000Y-122796928D01*
X143055518Y-122809188D01*
X142935820Y-122845498D01*
X142833856Y-122900000D01*
X139595802Y-122900000D01*
X138586401Y-121890599D01*
X138532145Y-121846032D01*
X138478375Y-121800914D01*
X138474874Y-121798989D01*
X138471785Y-121796452D01*
X138409933Y-121763287D01*
X138348396Y-121729457D01*
X138344584Y-121728248D01*
X138341065Y-121726361D01*
X138273969Y-121705848D01*
X138207013Y-121684608D01*
X138203041Y-121684162D01*
X138199219Y-121682994D01*
X138129351Y-121675897D01*
X138059611Y-121668074D01*
X138051806Y-121668020D01*
X138051653Y-121668004D01*
X138051510Y-121668018D01*
X138049000Y-121668000D01*
X136144000Y-121668000D01*
X136074123Y-121674851D01*
X136004197Y-121680969D01*
X136000359Y-121682084D01*
X135996382Y-121682474D01*
X135929179Y-121702764D01*
X135861760Y-121722351D01*
X135858212Y-121724190D01*
X135854387Y-121725345D01*
X135792429Y-121758288D01*
X135730074Y-121790610D01*
X135726949Y-121793105D01*
X135723422Y-121794980D01*
X135669035Y-121839337D01*
X135614154Y-121883148D01*
X135608594Y-121888631D01*
X135608478Y-121888726D01*
X135608389Y-121888834D01*
X135606599Y-121890599D01*
X134700270Y-122796928D01*
X134290000Y-122796928D01*
X134165518Y-122809188D01*
X134045820Y-122845498D01*
X133943856Y-122900000D01*
X127403802Y-122900000D01*
X126203901Y-121700099D01*
X126149645Y-121655532D01*
X126095875Y-121610414D01*
X126092374Y-121608489D01*
X126089285Y-121605952D01*
X126027433Y-121572787D01*
X125965896Y-121538957D01*
X125962084Y-121537748D01*
X125958565Y-121535861D01*
X125891469Y-121515348D01*
X125824513Y-121494108D01*
X125820541Y-121493662D01*
X125816719Y-121492494D01*
X125746851Y-121485397D01*
X125677111Y-121477574D01*
X125669306Y-121477520D01*
X125669153Y-121477504D01*
X125669010Y-121477518D01*
X125666500Y-121477500D01*
X123634500Y-121477500D01*
X123564619Y-121484352D01*
X123494697Y-121490469D01*
X123490859Y-121491584D01*
X123486882Y-121491974D01*
X123419712Y-121512254D01*
X123352261Y-121531850D01*
X123348710Y-121533691D01*
X123344887Y-121534845D01*
X123282926Y-121567790D01*
X123220575Y-121600110D01*
X123217452Y-121602603D01*
X123213922Y-121604480D01*
X123159513Y-121648855D01*
X123104654Y-121692648D01*
X123099094Y-121698131D01*
X123098978Y-121698226D01*
X123098889Y-121698334D01*
X123097099Y-121700099D01*
X122000270Y-122796928D01*
X121590000Y-122796928D01*
X121465518Y-122809188D01*
X121345820Y-122845498D01*
X121244146Y-122899844D01*
X121123901Y-122779599D01*
X121069645Y-122735032D01*
X121015875Y-122689914D01*
X121012374Y-122687989D01*
X121009285Y-122685452D01*
X120947433Y-122652287D01*
X120885896Y-122618457D01*
X120882084Y-122617248D01*
X120878565Y-122615361D01*
X120811469Y-122594848D01*
X120744513Y-122573608D01*
X120740541Y-122573162D01*
X120736719Y-122571994D01*
X120666851Y-122564897D01*
X120597111Y-122557074D01*
X120589306Y-122557020D01*
X120589153Y-122557004D01*
X120589010Y-122557018D01*
X120586500Y-122557000D01*
X117284622Y-122557000D01*
X116491221Y-121763599D01*
X116436965Y-121719032D01*
X116383195Y-121673914D01*
X116379694Y-121671989D01*
X116376605Y-121669452D01*
X116314753Y-121636287D01*
X116253216Y-121602457D01*
X116249404Y-121601248D01*
X116245885Y-121599361D01*
X116178789Y-121578848D01*
X116111833Y-121557608D01*
X116107861Y-121557162D01*
X116104039Y-121555994D01*
X116034171Y-121548897D01*
X115964431Y-121541074D01*
X115956626Y-121541020D01*
X115956473Y-121541004D01*
X115956330Y-121541018D01*
X115953820Y-121541000D01*
X114427000Y-121541000D01*
X114357073Y-121547856D01*
X114287197Y-121553970D01*
X114283364Y-121555084D01*
X114279382Y-121555474D01*
X114212138Y-121575776D01*
X114144760Y-121595351D01*
X114141212Y-121597190D01*
X114137387Y-121598345D01*
X114075390Y-121631309D01*
X114013074Y-121663611D01*
X114009953Y-121666103D01*
X114006422Y-121667980D01*
X113952007Y-121712359D01*
X113897154Y-121756148D01*
X113891594Y-121761631D01*
X113891478Y-121761726D01*
X113891389Y-121761834D01*
X113889599Y-121763599D01*
X113321500Y-122331698D01*
X112308901Y-121319099D01*
X112254645Y-121274532D01*
X112200875Y-121229414D01*
X112197374Y-121227489D01*
X112194285Y-121224952D01*
X112132433Y-121191787D01*
X112070896Y-121157957D01*
X112067084Y-121156748D01*
X112063565Y-121154861D01*
X111996469Y-121134348D01*
X111929513Y-121113108D01*
X111925541Y-121112662D01*
X111921719Y-121111494D01*
X111851851Y-121104397D01*
X111782111Y-121096574D01*
X111774306Y-121096520D01*
X111774153Y-121096504D01*
X111774010Y-121096518D01*
X111771500Y-121096500D01*
X107542878Y-121096500D01*
X107444360Y-121030049D01*
X107275325Y-120958993D01*
X107095707Y-120922123D01*
X106912349Y-120920843D01*
X106732233Y-120955201D01*
X106562222Y-121023890D01*
X106408791Y-121124293D01*
X106277783Y-121252586D01*
X106174189Y-121403881D01*
X106101954Y-121572416D01*
X106063831Y-121751772D01*
X106061271Y-121935117D01*
X102335000Y-121935117D01*
X102335000Y-117934617D01*
X106759771Y-117934617D01*
X106792872Y-118114968D01*
X106860372Y-118285454D01*
X106959701Y-118439583D01*
X107087076Y-118571484D01*
X107237644Y-118676131D01*
X107405671Y-118749540D01*
X107584757Y-118788915D01*
X107768079Y-118792755D01*
X107948657Y-118760914D01*
X108119610Y-118694606D01*
X108274429Y-118596355D01*
X108407215Y-118469904D01*
X108456527Y-118400000D01*
X112353856Y-118400000D01*
X112455820Y-118454502D01*
X112575518Y-118490812D01*
X112700000Y-118503072D01*
X113063270Y-118503072D01*
X113392588Y-118832390D01*
X113446844Y-118876957D01*
X113500614Y-118922075D01*
X113504115Y-118924000D01*
X113507204Y-118926537D01*
X113569056Y-118959702D01*
X113630593Y-118993532D01*
X113634405Y-118994741D01*
X113637924Y-118996628D01*
X113705020Y-119017141D01*
X113771976Y-119038381D01*
X113775948Y-119038827D01*
X113779770Y-119039995D01*
X113849594Y-119047087D01*
X113919378Y-119054915D01*
X113927193Y-119054970D01*
X113927336Y-119054984D01*
X113927469Y-119054971D01*
X113929989Y-119054989D01*
X115651860Y-119054989D01*
X115649771Y-119204617D01*
X115682872Y-119384968D01*
X115750372Y-119555454D01*
X115849701Y-119709583D01*
X115977076Y-119841484D01*
X116127644Y-119946131D01*
X116295671Y-120019540D01*
X116474757Y-120058915D01*
X116658079Y-120062755D01*
X116838657Y-120030914D01*
X117009610Y-119964606D01*
X117164429Y-119866355D01*
X117297215Y-119739904D01*
X117402911Y-119590070D01*
X117477492Y-119422560D01*
X117510786Y-119276016D01*
X117789802Y-118997000D01*
X135525785Y-118997000D01*
X135706198Y-119177413D01*
X135760454Y-119221980D01*
X135814224Y-119267098D01*
X135817725Y-119269023D01*
X135820814Y-119271560D01*
X135882666Y-119304725D01*
X135944203Y-119338555D01*
X135948015Y-119339764D01*
X135951534Y-119341651D01*
X136018630Y-119362164D01*
X136085586Y-119383404D01*
X136089558Y-119383850D01*
X136093380Y-119385018D01*
X136163204Y-119392110D01*
X136232988Y-119399938D01*
X136240803Y-119399993D01*
X136240946Y-119400007D01*
X136241079Y-119399994D01*
X136243599Y-119400012D01*
X137936401Y-119400012D01*
X138006278Y-119393161D01*
X138076204Y-119387043D01*
X138080042Y-119385928D01*
X138084019Y-119385538D01*
X138151222Y-119365248D01*
X138218641Y-119345661D01*
X138222189Y-119343822D01*
X138226014Y-119342667D01*
X138287992Y-119309713D01*
X138350326Y-119277402D01*
X138353449Y-119274909D01*
X138356979Y-119273032D01*
X138411388Y-119228657D01*
X138466247Y-119184864D01*
X138471807Y-119179381D01*
X138471923Y-119179286D01*
X138472012Y-119179178D01*
X138473802Y-119177413D01*
X138654215Y-118997000D01*
X155623002Y-118997000D01*
X155692879Y-118990149D01*
X155762805Y-118984031D01*
X155766643Y-118982916D01*
X155770620Y-118982526D01*
X155837823Y-118962236D01*
X155905242Y-118942649D01*
X155908790Y-118940810D01*
X155912615Y-118939655D01*
X155974593Y-118906701D01*
X156036927Y-118874390D01*
X156040050Y-118871897D01*
X156043580Y-118870020D01*
X156097989Y-118825645D01*
X156152848Y-118781852D01*
X156158408Y-118776369D01*
X156158524Y-118776274D01*
X156158613Y-118776166D01*
X156160403Y-118774401D01*
X156591662Y-118343142D01*
X156655506Y-118395537D01*
X156765820Y-118454502D01*
X156885518Y-118490812D01*
X157010000Y-118503072D01*
X157785654Y-118503072D01*
X157790351Y-118519240D01*
X157792190Y-118522788D01*
X157793345Y-118526613D01*
X157826299Y-118588591D01*
X157858610Y-118650925D01*
X157861103Y-118654048D01*
X157862980Y-118657578D01*
X157907355Y-118711987D01*
X157951148Y-118766846D01*
X157954235Y-118769976D01*
X157973872Y-118876968D01*
X158041372Y-119047454D01*
X158140701Y-119201583D01*
X158268076Y-119333484D01*
X158418644Y-119438131D01*
X158586671Y-119511540D01*
X158765757Y-119550915D01*
X158949079Y-119554755D01*
X159129657Y-119522914D01*
X159300610Y-119456606D01*
X159455429Y-119358355D01*
X159588215Y-119231904D01*
X159693911Y-119082070D01*
X159768492Y-118914560D01*
X159809116Y-118735754D01*
X159812040Y-118526319D01*
X159776425Y-118346448D01*
X159706550Y-118176920D01*
X159605079Y-118024193D01*
X159475875Y-117894084D01*
X159323860Y-117791549D01*
X159256000Y-117763023D01*
X159256000Y-116459000D01*
X159249144Y-116389073D01*
X159243030Y-116319197D01*
X159241916Y-116315364D01*
X159241526Y-116311382D01*
X159221224Y-116244138D01*
X159201649Y-116176760D01*
X159199810Y-116173212D01*
X159198655Y-116169387D01*
X159165691Y-116107390D01*
X159133389Y-116045074D01*
X159130897Y-116041953D01*
X159129020Y-116038422D01*
X159084641Y-115984007D01*
X159040852Y-115929154D01*
X159035369Y-115923594D01*
X159035274Y-115923478D01*
X159035166Y-115923389D01*
X159033401Y-115921599D01*
X158614401Y-115502599D01*
X158560145Y-115458032D01*
X158506375Y-115412914D01*
X158502874Y-115410989D01*
X158499785Y-115408452D01*
X158437933Y-115375287D01*
X158376396Y-115341457D01*
X158372584Y-115340248D01*
X158369065Y-115338361D01*
X158301969Y-115317848D01*
X158235013Y-115296608D01*
X158231041Y-115296162D01*
X158227219Y-115294994D01*
X158170278Y-115289210D01*
X158164494Y-115284463D01*
X158054180Y-115225498D01*
X157934482Y-115189188D01*
X157810000Y-115176928D01*
X157010000Y-115176928D01*
X156885518Y-115189188D01*
X156765820Y-115225498D01*
X156655506Y-115284463D01*
X156558815Y-115363815D01*
X156479463Y-115460506D01*
X156420498Y-115570820D01*
X156384188Y-115690518D01*
X156371928Y-115815000D01*
X156371928Y-116265000D01*
X156384188Y-116389482D01*
X156399512Y-116440000D01*
X156384188Y-116490518D01*
X156376316Y-116570444D01*
X156279707Y-116550613D01*
X156096349Y-116549333D01*
X156042614Y-116559583D01*
X156035812Y-116490518D01*
X156020488Y-116440000D01*
X156035812Y-116389482D01*
X156048072Y-116265000D01*
X156048072Y-115815000D01*
X156035812Y-115690518D01*
X155999502Y-115570820D01*
X155940537Y-115460506D01*
X155861185Y-115363815D01*
X155764494Y-115284463D01*
X155654180Y-115225498D01*
X155534482Y-115189188D01*
X155410000Y-115176928D01*
X154610000Y-115176928D01*
X154485518Y-115189188D01*
X154365820Y-115225498D01*
X154263856Y-115280000D01*
X147541802Y-115280000D01*
X148615169Y-114206633D01*
X148715657Y-114188914D01*
X148886610Y-114122606D01*
X149041429Y-114024355D01*
X149174215Y-113897904D01*
X149279911Y-113748070D01*
X149354492Y-113580560D01*
X149395116Y-113401754D01*
X149398040Y-113192319D01*
X149362425Y-113012448D01*
X149292550Y-112842920D01*
X149192661Y-112692574D01*
X149295429Y-112627355D01*
X149428215Y-112500904D01*
X149533911Y-112351070D01*
X149608492Y-112183560D01*
X149649116Y-112004754D01*
X149652040Y-111795319D01*
X149616425Y-111615448D01*
X149546550Y-111445920D01*
X149445079Y-111293193D01*
X149315875Y-111163084D01*
X149163860Y-111060549D01*
X148994825Y-110989493D01*
X148815207Y-110952623D01*
X148631849Y-110951343D01*
X148451733Y-110985701D01*
X148281722Y-111054390D01*
X148128291Y-111154793D01*
X147997283Y-111283086D01*
X147893689Y-111434381D01*
X147821454Y-111602916D01*
X147793158Y-111736040D01*
X147386198Y-112143000D01*
X144355736Y-112143000D01*
X144285855Y-112149852D01*
X144215933Y-112155969D01*
X144212095Y-112157084D01*
X144208118Y-112157474D01*
X144140948Y-112177754D01*
X144073497Y-112197350D01*
X144069946Y-112199191D01*
X144066123Y-112200345D01*
X144004162Y-112233290D01*
X143941811Y-112265610D01*
X143938688Y-112268103D01*
X143935158Y-112269980D01*
X143880749Y-112314355D01*
X143825890Y-112358148D01*
X143820330Y-112363631D01*
X143820214Y-112363726D01*
X143820125Y-112363834D01*
X143818335Y-112365599D01*
X143278934Y-112905000D01*
X132013802Y-112905000D01*
X128828091Y-109719289D01*
X128861988Y-109691644D01*
X128916847Y-109647851D01*
X128922407Y-109642368D01*
X128922523Y-109642273D01*
X128922612Y-109642165D01*
X128924402Y-109640400D01*
X128930169Y-109634633D01*
X129030657Y-109616914D01*
X129201610Y-109550606D01*
X129356429Y-109452355D01*
X129489215Y-109325904D01*
X129594911Y-109176070D01*
X129669492Y-109008560D01*
X129710116Y-108829754D01*
X129713040Y-108620319D01*
X129677425Y-108440448D01*
X129607550Y-108270920D01*
X129506079Y-108118193D01*
X129376875Y-107988084D01*
X129224860Y-107885549D01*
X129055825Y-107814493D01*
X128876207Y-107777623D01*
X128692849Y-107776343D01*
X128512733Y-107810701D01*
X128342722Y-107879390D01*
X128189291Y-107979793D01*
X128058283Y-108108086D01*
X127954689Y-108259381D01*
X127918850Y-108342999D01*
X127461999Y-108342999D01*
X127392072Y-108349855D01*
X127322196Y-108355969D01*
X127318363Y-108357083D01*
X127314381Y-108357473D01*
X127247137Y-108377775D01*
X127179759Y-108397350D01*
X127176211Y-108399189D01*
X127172386Y-108400344D01*
X127110389Y-108433308D01*
X127048073Y-108465610D01*
X127044952Y-108468102D01*
X127041421Y-108469979D01*
X126987006Y-108514358D01*
X126932153Y-108558147D01*
X126926593Y-108563630D01*
X126926477Y-108563725D01*
X126926388Y-108563833D01*
X126924598Y-108565598D01*
X126599598Y-108890598D01*
X126555031Y-108944854D01*
X126509913Y-108998624D01*
X126507988Y-109002125D01*
X126505451Y-109005214D01*
X126472286Y-109067066D01*
X126438456Y-109128603D01*
X126437247Y-109132415D01*
X126435360Y-109135934D01*
X126414847Y-109203030D01*
X126393607Y-109269986D01*
X126393161Y-109273958D01*
X126391993Y-109277780D01*
X126384896Y-109347648D01*
X126377073Y-109417388D01*
X126377019Y-109425193D01*
X126377003Y-109425346D01*
X126377017Y-109425489D01*
X126376999Y-109427999D01*
X126376999Y-110028001D01*
X126383850Y-110097878D01*
X126389968Y-110167804D01*
X126391083Y-110171642D01*
X126391473Y-110175619D01*
X126411763Y-110242822D01*
X126431350Y-110310241D01*
X126433189Y-110313789D01*
X126434344Y-110317614D01*
X126467298Y-110379592D01*
X126499609Y-110441926D01*
X126502102Y-110445049D01*
X126503979Y-110448579D01*
X126548354Y-110502988D01*
X126592147Y-110557847D01*
X126597630Y-110563407D01*
X126597725Y-110563523D01*
X126597833Y-110563612D01*
X126599598Y-110565402D01*
X130686607Y-114652411D01*
X130740841Y-114696959D01*
X130794633Y-114742096D01*
X130798137Y-114744022D01*
X130801224Y-114746558D01*
X130863070Y-114779720D01*
X130924612Y-114813553D01*
X130928422Y-114814762D01*
X130931944Y-114816650D01*
X130999112Y-114837186D01*
X131065995Y-114858402D01*
X131069962Y-114858847D01*
X131073789Y-114860017D01*
X131143707Y-114867119D01*
X131213397Y-114874936D01*
X131221202Y-114874990D01*
X131221355Y-114875006D01*
X131221498Y-114874992D01*
X131224008Y-114875010D01*
X134305188Y-114875010D01*
X134152599Y-115027599D01*
X134108032Y-115081855D01*
X134062914Y-115135625D01*
X134060989Y-115139126D01*
X134058452Y-115142215D01*
X134025287Y-115204067D01*
X134000058Y-115249959D01*
X133943856Y-115280000D01*
X121117302Y-115280000D01*
X120044401Y-114207099D01*
X119990145Y-114162532D01*
X119936375Y-114117414D01*
X119932874Y-114115489D01*
X119929785Y-114112952D01*
X119867933Y-114079787D01*
X119806396Y-114045957D01*
X119802584Y-114044748D01*
X119799065Y-114042861D01*
X119731969Y-114022348D01*
X119665013Y-114001108D01*
X119661041Y-114000662D01*
X119657219Y-113999494D01*
X119587351Y-113992397D01*
X119517611Y-113984574D01*
X119509806Y-113984520D01*
X119509653Y-113984504D01*
X119509510Y-113984518D01*
X119507000Y-113984500D01*
X114300000Y-113984500D01*
X114230123Y-113991351D01*
X114160197Y-113997469D01*
X114156359Y-113998584D01*
X114152382Y-113998974D01*
X114085179Y-114019264D01*
X114017760Y-114038851D01*
X114014212Y-114040690D01*
X114010387Y-114041845D01*
X113948390Y-114074809D01*
X113886074Y-114107111D01*
X113882953Y-114109603D01*
X113879422Y-114111480D01*
X113825007Y-114155859D01*
X113770154Y-114199648D01*
X113764594Y-114205131D01*
X113764478Y-114205226D01*
X113764389Y-114205334D01*
X113762599Y-114207099D01*
X112792770Y-115176928D01*
X112700000Y-115176928D01*
X112575518Y-115189188D01*
X112455820Y-115225498D01*
X112353856Y-115280000D01*
X110057184Y-115280000D01*
X109920860Y-115188049D01*
X109751825Y-115116993D01*
X109572207Y-115080123D01*
X109388849Y-115078843D01*
X109208733Y-115113201D01*
X109038722Y-115181890D01*
X108885291Y-115282293D01*
X108754283Y-115410586D01*
X108650689Y-115561881D01*
X108578454Y-115730416D01*
X108540331Y-115909772D01*
X108540071Y-115928380D01*
X108429207Y-115905623D01*
X108245849Y-115904343D01*
X108065733Y-115938701D01*
X107895722Y-116007390D01*
X107742291Y-116107793D01*
X107611283Y-116236086D01*
X107507689Y-116387381D01*
X107435454Y-116555916D01*
X107397331Y-116735272D01*
X107394771Y-116918617D01*
X107403419Y-116965737D01*
X107260722Y-117023390D01*
X107107291Y-117123793D01*
X106976283Y-117252086D01*
X106872689Y-117403381D01*
X106800454Y-117571916D01*
X106762331Y-117751272D01*
X106759771Y-117934617D01*
X102335000Y-117934617D01*
X102335000Y-102335000D01*
X119245798Y-102335000D01*
X119208331Y-102511272D01*
X119208331Y-102511272D01*
G37*
X119208331Y-102511272D02*
X119205771Y-102694617D01*
X119238872Y-102874968D01*
X119306372Y-103045454D01*
X119405701Y-103199583D01*
X119533076Y-103331484D01*
X119683644Y-103436131D01*
X119851671Y-103509540D01*
X119991477Y-103540279D01*
X120747599Y-104296401D01*
X120801855Y-104340968D01*
X120855625Y-104386086D01*
X120859126Y-104388011D01*
X120862215Y-104390548D01*
X120924067Y-104423713D01*
X120985604Y-104457543D01*
X120989416Y-104458752D01*
X120992935Y-104460639D01*
X121060031Y-104481152D01*
X121126987Y-104502392D01*
X121130959Y-104502838D01*
X121134781Y-104504006D01*
X121204605Y-104511098D01*
X121274389Y-104518926D01*
X121282204Y-104518981D01*
X121282347Y-104518995D01*
X121282480Y-104518982D01*
X121285000Y-104519000D01*
X133948126Y-104519000D01*
X134034644Y-104579131D01*
X134202671Y-104652540D01*
X134381757Y-104691915D01*
X134565079Y-104695755D01*
X134745657Y-104663914D01*
X134916610Y-104597606D01*
X135071429Y-104499355D01*
X135204215Y-104372904D01*
X135309911Y-104223070D01*
X135384492Y-104055560D01*
X135425116Y-103876754D01*
X135428040Y-103667319D01*
X135392425Y-103487448D01*
X135322550Y-103317920D01*
X135221079Y-103165193D01*
X135091875Y-103035084D01*
X134939860Y-102932549D01*
X134770825Y-102861493D01*
X134591207Y-102824623D01*
X134407849Y-102823343D01*
X134227733Y-102857701D01*
X134057722Y-102926390D01*
X133946763Y-102999000D01*
X121599802Y-102999000D01*
X121065169Y-102464367D01*
X121041425Y-102344448D01*
X121037531Y-102335000D01*
X152495198Y-102335000D01*
X151549628Y-103280570D01*
X151436233Y-103302201D01*
X151266222Y-103370890D01*
X151112791Y-103471293D01*
X150981783Y-103599586D01*
X150878189Y-103750881D01*
X150805954Y-103919416D01*
X150767831Y-104098772D01*
X150765271Y-104282117D01*
X150798372Y-104462468D01*
X150865872Y-104632954D01*
X150965201Y-104787083D01*
X151092576Y-104918984D01*
X151219795Y-105007403D01*
X151113958Y-105113240D01*
X151101207Y-105110623D01*
X150917849Y-105109343D01*
X150737733Y-105143701D01*
X150567722Y-105212390D01*
X150414291Y-105312793D01*
X150307335Y-105417533D01*
X148492401Y-103602599D01*
X148438145Y-103558032D01*
X148384375Y-103512914D01*
X148380874Y-103510989D01*
X148377785Y-103508452D01*
X148315933Y-103475287D01*
X148254396Y-103441457D01*
X148250584Y-103440248D01*
X148247065Y-103438361D01*
X148179969Y-103417848D01*
X148113013Y-103396608D01*
X148109041Y-103396162D01*
X148105219Y-103394994D01*
X148035351Y-103387897D01*
X147965611Y-103380074D01*
X147957806Y-103380020D01*
X147957653Y-103380004D01*
X147957510Y-103380018D01*
X147955000Y-103380000D01*
X145579378Y-103380000D01*
X145480860Y-103313549D01*
X145311825Y-103242493D01*
X145132207Y-103205623D01*
X144948849Y-103204343D01*
X144768733Y-103238701D01*
X144598722Y-103307390D01*
X144445291Y-103407793D01*
X144314283Y-103536086D01*
X144210689Y-103687381D01*
X144138454Y-103855916D01*
X144100331Y-104035272D01*
X144097771Y-104218617D01*
X144130872Y-104398968D01*
X144198372Y-104569454D01*
X144297701Y-104723583D01*
X144425076Y-104855484D01*
X144575644Y-104960131D01*
X144743671Y-105033540D01*
X144922757Y-105072915D01*
X145106079Y-105076755D01*
X145286657Y-105044914D01*
X145457610Y-104978606D01*
X145581473Y-104900000D01*
X147640198Y-104900000D01*
X148025198Y-105285000D01*
X147193000Y-105285000D01*
X147123073Y-105291856D01*
X147053197Y-105297970D01*
X147049364Y-105299084D01*
X147045382Y-105299474D01*
X146978138Y-105319776D01*
X146910760Y-105339351D01*
X146907212Y-105341190D01*
X146903387Y-105342345D01*
X146841390Y-105375309D01*
X146779074Y-105407611D01*
X146775953Y-105410103D01*
X146772422Y-105411980D01*
X146718007Y-105456359D01*
X146663154Y-105500148D01*
X146657594Y-105505631D01*
X146657478Y-105505726D01*
X146657389Y-105505834D01*
X146655599Y-105507599D01*
X145271916Y-106891282D01*
X145290492Y-106849560D01*
X145331116Y-106670754D01*
X145334040Y-106461319D01*
X145298425Y-106281448D01*
X145228550Y-106111920D01*
X145127079Y-105959193D01*
X144997875Y-105829084D01*
X144845860Y-105726549D01*
X144676825Y-105655493D01*
X144497207Y-105618623D01*
X144313849Y-105617343D01*
X144133733Y-105651701D01*
X143963722Y-105720390D01*
X143852763Y-105793000D01*
X134185491Y-105793000D01*
X134115610Y-105799852D01*
X134045688Y-105805969D01*
X134041850Y-105807084D01*
X134037873Y-105807474D01*
X133970703Y-105827754D01*
X133903252Y-105847350D01*
X133899701Y-105849191D01*
X133895878Y-105850345D01*
X133833917Y-105883290D01*
X133771566Y-105915610D01*
X133768443Y-105918103D01*
X133764913Y-105919980D01*
X133710504Y-105964355D01*
X133655645Y-106008148D01*
X133650085Y-106013631D01*
X133649969Y-106013726D01*
X133649880Y-106013834D01*
X133648090Y-106015599D01*
X131649924Y-108013765D01*
X131536529Y-108035396D01*
X131366518Y-108104085D01*
X131213087Y-108204488D01*
X131082079Y-108332781D01*
X130978485Y-108484076D01*
X130906250Y-108652611D01*
X130868127Y-108831967D01*
X130865567Y-109015312D01*
X130898668Y-109195663D01*
X130966168Y-109366149D01*
X131065497Y-109520278D01*
X131192872Y-109652179D01*
X131343440Y-109756826D01*
X131511467Y-109830235D01*
X131611308Y-109852187D01*
X131623923Y-109920917D01*
X131691423Y-110091403D01*
X131790752Y-110245532D01*
X131918127Y-110377433D01*
X132068695Y-110482080D01*
X132236722Y-110555489D01*
X132415808Y-110594864D01*
X132599130Y-110598704D01*
X132779708Y-110566863D01*
X132950661Y-110500555D01*
X133105480Y-110402304D01*
X133238266Y-110275853D01*
X133343962Y-110126019D01*
X133418543Y-109958509D01*
X133451837Y-109811965D01*
X134807802Y-108456000D01*
X143600126Y-108456000D01*
X143686644Y-108516131D01*
X143718635Y-108530108D01*
X143716771Y-108663617D01*
X143749872Y-108843968D01*
X143817372Y-109014454D01*
X143916701Y-109168583D01*
X144044076Y-109300484D01*
X144194644Y-109405131D01*
X144362671Y-109478540D01*
X144541757Y-109517915D01*
X144725079Y-109521755D01*
X144905657Y-109489914D01*
X145076610Y-109423606D01*
X145231429Y-109325355D01*
X145364215Y-109198904D01*
X145469911Y-109049070D01*
X145544492Y-108881560D01*
X145577786Y-108735016D01*
X147507802Y-106805000D01*
X148275198Y-106805000D01*
X149576599Y-108106401D01*
X149630855Y-108150968D01*
X149684625Y-108196086D01*
X149688126Y-108198011D01*
X149691215Y-108200548D01*
X149753067Y-108233713D01*
X149814604Y-108267543D01*
X149818416Y-108268752D01*
X149821935Y-108270639D01*
X149889043Y-108291156D01*
X149955987Y-108312392D01*
X149959958Y-108312837D01*
X149963780Y-108314006D01*
X150033610Y-108321099D01*
X150103389Y-108328926D01*
X150111204Y-108328981D01*
X150111347Y-108328995D01*
X150111480Y-108328982D01*
X150114000Y-108329000D01*
X156911198Y-108329000D01*
X157319249Y-108737051D01*
X157338872Y-108843968D01*
X157406372Y-109014454D01*
X157505701Y-109168583D01*
X157633076Y-109300484D01*
X157783644Y-109405131D01*
X157951671Y-109478540D01*
X158130757Y-109517915D01*
X158314079Y-109521755D01*
X158494657Y-109489914D01*
X158665610Y-109423606D01*
X158820429Y-109325355D01*
X158953215Y-109198904D01*
X159058911Y-109049070D01*
X159133492Y-108881560D01*
X159174116Y-108702754D01*
X159177040Y-108493319D01*
X159141425Y-108313448D01*
X159071550Y-108143920D01*
X158970079Y-107991193D01*
X158840875Y-107861084D01*
X158688860Y-107758549D01*
X158519825Y-107687493D01*
X158393329Y-107661527D01*
X157983302Y-107251500D01*
X158267169Y-106967633D01*
X158367657Y-106949914D01*
X158538610Y-106883606D01*
X158693429Y-106785355D01*
X158826215Y-106658904D01*
X158931911Y-106509070D01*
X159006492Y-106341560D01*
X159047116Y-106162754D01*
X159050040Y-105953319D01*
X159014425Y-105773448D01*
X158944550Y-105603920D01*
X158843079Y-105451193D01*
X158713875Y-105321084D01*
X158561860Y-105218549D01*
X158392825Y-105147493D01*
X158213207Y-105110623D01*
X158029849Y-105109343D01*
X157849733Y-105143701D01*
X157679722Y-105212390D01*
X157526291Y-105312793D01*
X157395283Y-105441086D01*
X157291689Y-105592381D01*
X157219454Y-105760916D01*
X157191158Y-105894040D01*
X157038198Y-106047000D01*
X152329802Y-106047000D01*
X154492802Y-103884000D01*
X162179000Y-103884000D01*
X162248877Y-103877149D01*
X162318803Y-103871031D01*
X162322641Y-103869916D01*
X162326618Y-103869526D01*
X162393821Y-103849236D01*
X162461240Y-103829649D01*
X162464788Y-103827810D01*
X162468613Y-103826655D01*
X162530591Y-103793701D01*
X162592925Y-103761390D01*
X162596048Y-103758897D01*
X162599578Y-103757020D01*
X162653987Y-103712645D01*
X162708846Y-103668852D01*
X162714406Y-103663369D01*
X162714522Y-103663274D01*
X162714611Y-103663166D01*
X162716401Y-103661401D01*
X163093169Y-103284633D01*
X163193657Y-103266914D01*
X163364610Y-103200606D01*
X163519429Y-103102355D01*
X163652215Y-102975904D01*
X163757911Y-102826070D01*
X163832492Y-102658560D01*
X163873116Y-102479754D01*
X163875137Y-102335000D01*
X177065000Y-102335000D01*
X177065000Y-151665000D01*
X102335000Y-151665000D01*
X102335000Y-150480402D01*
X102508678Y-150499884D01*
X102525363Y-150500000D01*
X103722637Y-150500000D01*
X103954747Y-150477241D01*
X104178016Y-150409833D01*
X104383940Y-150300341D01*
X104564675Y-150152937D01*
X104713337Y-149973236D01*
X104824263Y-149768081D01*
X104893229Y-149545288D01*
X104917608Y-149313343D01*
X104896470Y-149081079D01*
X104830622Y-148857345D01*
X104722570Y-148650662D01*
X104576432Y-148468902D01*
X104397773Y-148318989D01*
X104193398Y-148206633D01*
X103971091Y-148136114D01*
X103739322Y-148110116D01*
X103722637Y-148110000D01*
X102525363Y-148110000D01*
X102335000Y-148128666D01*
X102335000Y-147065919D01*
X114117339Y-147065919D01*
X114150440Y-147246270D01*
X114217940Y-147416756D01*
X114317269Y-147570885D01*
X114444644Y-147702786D01*
X114595212Y-147807433D01*
X114763239Y-147880842D01*
X114942325Y-147920217D01*
X115125647Y-147924057D01*
X115306225Y-147892216D01*
X115477178Y-147825908D01*
X115631997Y-147727657D01*
X115764783Y-147601206D01*
X115870479Y-147451372D01*
X115945060Y-147283862D01*
X115985684Y-147105056D01*
X115988608Y-146895621D01*
X115952993Y-146715750D01*
X115883118Y-146546222D01*
X115813568Y-146441540D01*
X115813568Y-146194513D01*
X115822661Y-146192910D01*
X115993614Y-146126602D01*
X116148433Y-146028351D01*
X116281219Y-145901900D01*
X116386915Y-145752066D01*
X116461496Y-145584556D01*
X116502120Y-145405750D01*
X116505044Y-145196315D01*
X116469429Y-145016444D01*
X116399554Y-144846916D01*
X116298083Y-144694189D01*
X116168879Y-144564080D01*
X116040692Y-144477617D01*
X119205771Y-144477617D01*
X119238872Y-144657968D01*
X119306372Y-144828454D01*
X119405701Y-144982583D01*
X119533076Y-145114484D01*
X119683644Y-145219131D01*
X119851671Y-145292540D01*
X120030757Y-145331915D01*
X120214079Y-145335755D01*
X120394657Y-145303914D01*
X120565610Y-145237606D01*
X120689473Y-145159000D01*
X121739422Y-145159000D01*
X121819076Y-145241484D01*
X121969644Y-145346131D01*
X122137671Y-145419540D01*
X122316757Y-145458915D01*
X122500079Y-145462755D01*
X122680657Y-145430914D01*
X122851610Y-145364606D01*
X123006429Y-145266355D01*
X123139215Y-145139904D01*
X123244911Y-144990070D01*
X123319492Y-144822560D01*
X123360116Y-144643754D01*
X123363040Y-144434319D01*
X123327425Y-144254448D01*
X123257550Y-144084920D01*
X123156079Y-143932193D01*
X123026875Y-143802084D01*
X122874860Y-143699549D01*
X122705825Y-143628493D01*
X122526207Y-143591623D01*
X122342849Y-143590343D01*
X122162733Y-143624701D01*
X122127342Y-143639000D01*
X120687378Y-143639000D01*
X120588860Y-143572549D01*
X120419825Y-143501493D01*
X120240207Y-143464623D01*
X120056849Y-143463343D01*
X119876733Y-143497701D01*
X119706722Y-143566390D01*
X119553291Y-143666793D01*
X119422283Y-143795086D01*
X119318689Y-143946381D01*
X119246454Y-144114916D01*
X119208331Y-144294272D01*
X119205771Y-144477617D01*
X116040692Y-144477617D01*
X116016864Y-144461545D01*
X115847829Y-144390489D01*
X115668211Y-144353619D01*
X115484853Y-144352339D01*
X115304737Y-144386697D01*
X115134726Y-144455386D01*
X114981295Y-144555789D01*
X114850287Y-144684082D01*
X114746693Y-144835377D01*
X114674458Y-145003912D01*
X114646162Y-145137036D01*
X114516167Y-145267031D01*
X114471600Y-145321287D01*
X114426482Y-145375057D01*
X114424557Y-145378558D01*
X114422020Y-145381647D01*
X114388855Y-145443499D01*
X114355025Y-145505036D01*
X114353816Y-145508848D01*
X114351929Y-145512367D01*
X114331416Y-145579463D01*
X114310176Y-145646419D01*
X114309730Y-145650391D01*
X114308562Y-145654213D01*
X114301465Y-145724081D01*
X114293642Y-145793821D01*
X114293588Y-145801626D01*
X114293572Y-145801779D01*
X114293586Y-145801922D01*
X114293568Y-145804432D01*
X114293568Y-146442220D01*
X114230257Y-146534683D01*
X114158022Y-146703218D01*
X114119899Y-146882574D01*
X114117339Y-147065919D01*
X102335000Y-147065919D01*
X102335000Y-143970402D01*
X102508678Y-143989884D01*
X102525363Y-143990000D01*
X103722637Y-143990000D01*
X103954747Y-143967241D01*
X104178016Y-143899833D01*
X104383940Y-143790341D01*
X104564675Y-143642937D01*
X104713337Y-143463236D01*
X104824263Y-143258081D01*
X104893229Y-143035288D01*
X104917608Y-142803343D01*
X104896470Y-142571079D01*
X104830622Y-142347345D01*
X104722570Y-142140662D01*
X104576432Y-141958902D01*
X104397773Y-141808989D01*
X104193398Y-141696633D01*
X103971091Y-141626114D01*
X103739322Y-141600116D01*
X103722637Y-141600000D01*
X102525363Y-141600000D01*
X102335000Y-141618666D01*
X102335000Y-131871999D01*
X106518991Y-131871999D01*
X106518991Y-135328991D01*
X106525842Y-135398868D01*
X106531960Y-135468794D01*
X106533075Y-135472632D01*
X106533465Y-135476609D01*
X106553755Y-135543812D01*
X106573342Y-135611231D01*
X106575181Y-135614779D01*
X106576336Y-135618604D01*
X106609290Y-135680582D01*
X106641601Y-135742916D01*
X106644094Y-135746039D01*
X106645971Y-135749569D01*
X106690346Y-135803978D01*
X106734139Y-135858837D01*
X106739622Y-135864397D01*
X106739717Y-135864513D01*
X106739825Y-135864602D01*
X106741590Y-135866392D01*
X111912599Y-141037401D01*
X111966855Y-141081968D01*
X112020625Y-141127086D01*
X112024126Y-141129011D01*
X112027215Y-141131548D01*
X112089067Y-141164713D01*
X112150604Y-141198543D01*
X112154416Y-141199752D01*
X112157935Y-141201639D01*
X112225031Y-141222152D01*
X112291987Y-141243392D01*
X112295959Y-141243838D01*
X112299781Y-141245006D01*
X112337320Y-141248819D01*
X112345506Y-141255537D01*
X112455820Y-141314502D01*
X112575518Y-141350812D01*
X112700000Y-141363072D01*
X113500000Y-141363072D01*
X113534838Y-141359641D01*
X113809598Y-141634401D01*
X113863880Y-141678988D01*
X113917625Y-141724086D01*
X113921126Y-141726011D01*
X113924215Y-141728548D01*
X113986067Y-141761713D01*
X114047604Y-141795543D01*
X114051416Y-141796752D01*
X114054935Y-141798639D01*
X114122043Y-141819156D01*
X114188987Y-141840392D01*
X114192958Y-141840837D01*
X114196780Y-141842006D01*
X114266610Y-141849099D01*
X114336389Y-141856926D01*
X114344204Y-141856981D01*
X114344347Y-141856995D01*
X114344480Y-141856982D01*
X114347000Y-141857000D01*
X116078000Y-141857000D01*
X116147877Y-141850149D01*
X116217803Y-141844031D01*
X116221641Y-141842916D01*
X116225618Y-141842526D01*
X116292821Y-141822236D01*
X116360240Y-141802649D01*
X116363788Y-141800810D01*
X116367613Y-141799655D01*
X116429591Y-141766701D01*
X116491925Y-141734390D01*
X116495048Y-141731897D01*
X116498578Y-141730020D01*
X116552987Y-141685645D01*
X116607846Y-141641852D01*
X116613406Y-141636369D01*
X116613522Y-141636274D01*
X116613611Y-141636166D01*
X116615401Y-141634401D01*
X116989803Y-141260000D01*
X121243856Y-141260000D01*
X121345820Y-141314502D01*
X121465518Y-141350812D01*
X121590000Y-141363072D01*
X122127270Y-141363072D01*
X122589099Y-141824901D01*
X122643355Y-141869468D01*
X122697125Y-141914586D01*
X122700626Y-141916511D01*
X122703715Y-141919048D01*
X122765567Y-141952213D01*
X122827104Y-141986043D01*
X122830916Y-141987252D01*
X122834435Y-141989139D01*
X122901531Y-142009652D01*
X122968487Y-142030892D01*
X122972459Y-142031338D01*
X122976281Y-142032506D01*
X123046105Y-142039598D01*
X123115889Y-142047426D01*
X123123704Y-142047481D01*
X123123847Y-142047495D01*
X123123980Y-142047482D01*
X123126500Y-142047500D01*
X125122496Y-142047500D01*
X125192373Y-142040649D01*
X125262299Y-142034531D01*
X125266137Y-142033416D01*
X125270114Y-142033026D01*
X125337317Y-142012736D01*
X125404736Y-141993149D01*
X125408284Y-141991310D01*
X125412109Y-141990155D01*
X125474087Y-141957201D01*
X125536421Y-141924890D01*
X125539544Y-141922397D01*
X125543074Y-141920520D01*
X125597483Y-141876145D01*
X125652342Y-141832352D01*
X125657902Y-141826869D01*
X125658018Y-141826774D01*
X125658107Y-141826666D01*
X125659897Y-141824901D01*
X126252800Y-141231998D01*
X133906824Y-141231998D01*
X133935506Y-141255537D01*
X134045820Y-141314502D01*
X134165518Y-141350812D01*
X134290000Y-141363072D01*
X135090000Y-141363072D01*
X135197666Y-141352468D01*
X135606599Y-141761401D01*
X135660855Y-141805968D01*
X135714625Y-141851086D01*
X135718126Y-141853011D01*
X135721215Y-141855548D01*
X135783102Y-141888732D01*
X135844604Y-141922543D01*
X135848412Y-141923751D01*
X135851935Y-141925640D01*
X135919118Y-141946180D01*
X135985987Y-141967392D01*
X135989954Y-141967837D01*
X135993781Y-141969007D01*
X136063699Y-141976109D01*
X136133389Y-141983926D01*
X136141194Y-141983980D01*
X136141347Y-141983996D01*
X136141490Y-141983982D01*
X136144000Y-141984000D01*
X137922000Y-141984000D01*
X137991877Y-141977149D01*
X138061803Y-141971031D01*
X138065641Y-141969916D01*
X138069618Y-141969526D01*
X138136821Y-141949236D01*
X138204240Y-141929649D01*
X138207788Y-141927810D01*
X138211613Y-141926655D01*
X138273591Y-141893701D01*
X138335925Y-141861390D01*
X138339048Y-141858897D01*
X138342578Y-141857020D01*
X138396987Y-141812645D01*
X138451846Y-141768852D01*
X138457406Y-141763369D01*
X138457522Y-141763274D01*
X138457611Y-141763166D01*
X138459401Y-141761401D01*
X138960802Y-141260000D01*
X142833856Y-141260000D01*
X142935820Y-141314502D01*
X143055518Y-141350812D01*
X143180000Y-141363072D01*
X143980000Y-141363072D01*
X144014838Y-141359641D01*
X144289598Y-141634401D01*
X144343880Y-141678988D01*
X144397625Y-141724086D01*
X144401126Y-141726011D01*
X144404215Y-141728548D01*
X144466067Y-141761713D01*
X144527604Y-141795543D01*
X144531416Y-141796752D01*
X144534935Y-141798639D01*
X144602043Y-141819156D01*
X144668987Y-141840392D01*
X144672958Y-141840837D01*
X144676780Y-141842006D01*
X144746610Y-141849099D01*
X144816389Y-141856926D01*
X144824204Y-141856981D01*
X144824347Y-141856995D01*
X144824480Y-141856982D01*
X144827000Y-141857000D01*
X146621500Y-141857000D01*
X146691377Y-141850149D01*
X146761303Y-141844031D01*
X146765141Y-141842916D01*
X146769118Y-141842526D01*
X146836321Y-141822236D01*
X146903740Y-141802649D01*
X146907288Y-141800810D01*
X146911113Y-141799655D01*
X146973091Y-141766701D01*
X147035425Y-141734390D01*
X147038548Y-141731897D01*
X147042078Y-141730020D01*
X147096487Y-141685645D01*
X147151346Y-141641852D01*
X147156906Y-141636369D01*
X147157022Y-141636274D01*
X147157111Y-141636166D01*
X147158901Y-141634401D01*
X147533303Y-141260000D01*
X154263856Y-141260000D01*
X154365820Y-141314502D01*
X154485518Y-141350812D01*
X154610000Y-141363072D01*
X155410000Y-141363072D01*
X155534482Y-141350812D01*
X155654180Y-141314502D01*
X155664620Y-141308922D01*
X155943100Y-141587402D01*
X155997356Y-141631969D01*
X156051126Y-141677087D01*
X156054627Y-141679012D01*
X156057716Y-141681549D01*
X156119603Y-141714733D01*
X156181105Y-141748544D01*
X156184913Y-141749752D01*
X156188436Y-141751641D01*
X156255578Y-141772168D01*
X156322488Y-141793393D01*
X156326460Y-141793839D01*
X156330282Y-141795007D01*
X156400150Y-141802104D01*
X156469890Y-141809927D01*
X156477695Y-141809981D01*
X156477848Y-141809997D01*
X156477991Y-141809983D01*
X156480501Y-141810001D01*
X158161999Y-141810001D01*
X158231876Y-141803150D01*
X158301802Y-141797032D01*
X158305640Y-141795917D01*
X158309617Y-141795527D01*
X158376820Y-141775237D01*
X158444239Y-141755650D01*
X158447787Y-141753811D01*
X158451612Y-141752656D01*
X158513590Y-141719702D01*
X158575924Y-141687391D01*
X158579047Y-141684898D01*
X158582577Y-141683021D01*
X158636986Y-141638646D01*
X158691845Y-141594853D01*
X158697405Y-141589370D01*
X158697521Y-141589275D01*
X158697610Y-141589167D01*
X158699400Y-141587402D01*
X159026802Y-141260000D01*
X163153856Y-141260000D01*
X163255820Y-141314502D01*
X163375518Y-141350812D01*
X163500000Y-141363072D01*
X164300000Y-141363072D01*
X164424482Y-141350812D01*
X164544180Y-141314502D01*
X164654494Y-141255537D01*
X164751185Y-141176185D01*
X164830537Y-141079494D01*
X164889502Y-140969180D01*
X164925812Y-140849482D01*
X164938072Y-140725000D01*
X164938072Y-140720848D01*
X165076477Y-140751279D01*
X165329009Y-141003811D01*
X165369463Y-141079494D01*
X165448815Y-141176185D01*
X165545506Y-141255537D01*
X165655820Y-141314502D01*
X165775518Y-141350812D01*
X165900000Y-141363072D01*
X166700000Y-141363072D01*
X166824482Y-141350812D01*
X166944180Y-141314502D01*
X167054494Y-141255537D01*
X167151185Y-141176185D01*
X167230537Y-141079494D01*
X167289502Y-140969180D01*
X167325812Y-140849482D01*
X167338072Y-140725000D01*
X167338072Y-140275000D01*
X167325812Y-140150518D01*
X167310488Y-140100000D01*
X167325812Y-140049482D01*
X167338072Y-139925000D01*
X167338072Y-139475000D01*
X167325812Y-139350518D01*
X167310488Y-139300000D01*
X167325812Y-139249482D01*
X167338072Y-139125000D01*
X167338072Y-138675000D01*
X167325812Y-138550518D01*
X167289502Y-138430820D01*
X167230537Y-138320506D01*
X167151185Y-138223815D01*
X167054494Y-138144463D01*
X166944180Y-138085498D01*
X166824482Y-138049188D01*
X166700000Y-138036928D01*
X165900000Y-138036928D01*
X165775518Y-138049188D01*
X165655820Y-138085498D01*
X165545506Y-138144463D01*
X165448815Y-138223815D01*
X165369463Y-138320506D01*
X165310498Y-138430820D01*
X165274188Y-138550518D01*
X165261928Y-138675000D01*
X165261928Y-138688270D01*
X165039292Y-138910906D01*
X164961733Y-138925701D01*
X164938072Y-138935261D01*
X164938072Y-138675000D01*
X164925812Y-138550518D01*
X164889502Y-138430820D01*
X164830537Y-138320506D01*
X164751185Y-138223815D01*
X164654494Y-138144463D01*
X164544180Y-138085498D01*
X164424482Y-138049188D01*
X164300000Y-138036928D01*
X163500000Y-138036928D01*
X163375518Y-138049188D01*
X163255820Y-138085498D01*
X163153856Y-138140000D01*
X159534802Y-138140000D01*
X158710391Y-137315589D01*
X158656135Y-137271022D01*
X158602365Y-137225904D01*
X158598864Y-137223979D01*
X158595775Y-137221442D01*
X158533923Y-137188277D01*
X158472386Y-137154447D01*
X158468574Y-137153238D01*
X158465055Y-137151351D01*
X158397959Y-137130838D01*
X158331003Y-137109598D01*
X158327031Y-137109152D01*
X158323209Y-137107984D01*
X158253341Y-137100887D01*
X158183601Y-137093064D01*
X158175796Y-137093010D01*
X158175643Y-137092994D01*
X158175500Y-137093008D01*
X158172990Y-137092990D01*
X156595100Y-137092990D01*
X156525219Y-137099842D01*
X156455297Y-137105959D01*
X156451459Y-137107074D01*
X156447482Y-137107464D01*
X156380312Y-137127744D01*
X156312861Y-137147340D01*
X156309310Y-137149181D01*
X156305487Y-137150335D01*
X156243526Y-137183280D01*
X156181175Y-137215600D01*
X156178052Y-137218093D01*
X156174522Y-137219970D01*
X156120113Y-137264345D01*
X156065254Y-137308138D01*
X156059694Y-137313621D01*
X156059578Y-137313716D01*
X156059489Y-137313824D01*
X156057699Y-137315589D01*
X155336360Y-138036928D01*
X154610000Y-138036928D01*
X154485518Y-138049188D01*
X154365820Y-138085498D01*
X154263856Y-138140000D01*
X148231802Y-138140000D01*
X147285901Y-137194099D01*
X147231645Y-137149532D01*
X147177875Y-137104414D01*
X147174374Y-137102489D01*
X147171285Y-137099952D01*
X147109433Y-137066787D01*
X147047896Y-137032957D01*
X147044084Y-137031748D01*
X147040565Y-137029861D01*
X146973469Y-137009348D01*
X146906513Y-136988108D01*
X146902541Y-136987662D01*
X146898719Y-136986494D01*
X146828851Y-136979397D01*
X146759111Y-136971574D01*
X146751306Y-136971520D01*
X146751153Y-136971504D01*
X146751010Y-136971518D01*
X146748500Y-136971500D01*
X145224500Y-136971500D01*
X145154615Y-136978352D01*
X145084698Y-136984469D01*
X145080860Y-136985584D01*
X145076882Y-136985974D01*
X145009700Y-137006257D01*
X144942261Y-137025850D01*
X144938710Y-137027691D01*
X144934887Y-137028845D01*
X144872926Y-137061790D01*
X144810575Y-137094110D01*
X144807452Y-137096603D01*
X144803922Y-137098480D01*
X144749489Y-137142875D01*
X144694655Y-137186648D01*
X144689096Y-137192130D01*
X144688978Y-137192226D01*
X144688888Y-137192335D01*
X144687099Y-137194099D01*
X143844270Y-138036928D01*
X143180000Y-138036928D01*
X143055518Y-138049188D01*
X142935820Y-138085498D01*
X142833856Y-138140000D01*
X139659302Y-138140000D01*
X138586401Y-137067099D01*
X138532145Y-137022532D01*
X138478375Y-136977414D01*
X138474874Y-136975489D01*
X138471785Y-136972952D01*
X138409933Y-136939787D01*
X138348396Y-136905957D01*
X138344584Y-136904748D01*
X138341065Y-136902861D01*
X138273969Y-136882348D01*
X138207013Y-136861108D01*
X138203041Y-136860662D01*
X138199219Y-136859494D01*
X138129351Y-136852397D01*
X138059611Y-136844574D01*
X138051806Y-136844520D01*
X138051653Y-136844504D01*
X138051510Y-136844518D01*
X138049000Y-136844500D01*
X136080500Y-136844500D01*
X136010619Y-136851352D01*
X135940697Y-136857469D01*
X135936859Y-136858584D01*
X135932882Y-136858974D01*
X135865712Y-136879254D01*
X135798261Y-136898850D01*
X135794710Y-136900691D01*
X135790887Y-136901845D01*
X135728926Y-136934790D01*
X135666575Y-136967110D01*
X135663452Y-136969603D01*
X135659922Y-136971480D01*
X135605489Y-137015875D01*
X135550655Y-137059648D01*
X135545096Y-137065130D01*
X135544978Y-137065226D01*
X135544888Y-137065335D01*
X135543099Y-137067099D01*
X134573270Y-138036928D01*
X134290000Y-138036928D01*
X134165518Y-138049188D01*
X134045820Y-138085498D01*
X133943856Y-138140000D01*
X127403802Y-138140000D01*
X126140401Y-136876599D01*
X126086145Y-136832032D01*
X126032375Y-136786914D01*
X126028874Y-136784989D01*
X126025785Y-136782452D01*
X125963933Y-136749287D01*
X125902396Y-136715457D01*
X125898584Y-136714248D01*
X125895065Y-136712361D01*
X125827969Y-136691848D01*
X125761013Y-136670608D01*
X125757041Y-136670162D01*
X125753219Y-136668994D01*
X125683351Y-136661897D01*
X125613611Y-136654074D01*
X125605806Y-136654020D01*
X125605653Y-136654004D01*
X125605510Y-136654018D01*
X125603000Y-136654000D01*
X123380500Y-136654000D01*
X123310619Y-136660852D01*
X123240697Y-136666969D01*
X123236859Y-136668084D01*
X123232882Y-136668474D01*
X123165679Y-136688764D01*
X123098260Y-136708351D01*
X123094712Y-136710190D01*
X123090887Y-136711345D01*
X123028909Y-136744299D01*
X122966575Y-136776610D01*
X122963452Y-136779103D01*
X122959922Y-136780980D01*
X122905513Y-136825355D01*
X122850654Y-136869148D01*
X122845094Y-136874631D01*
X122844978Y-136874726D01*
X122844889Y-136874834D01*
X122843099Y-136876599D01*
X121682770Y-138036928D01*
X121590000Y-138036928D01*
X121465518Y-138049188D01*
X121345820Y-138085498D01*
X121243856Y-138140000D01*
X117624802Y-138140000D01*
X116615401Y-137130599D01*
X116561145Y-137086032D01*
X116507375Y-137040914D01*
X116503874Y-137038989D01*
X116500785Y-137036452D01*
X116438933Y-137003287D01*
X116377396Y-136969457D01*
X116373584Y-136968248D01*
X116370065Y-136966361D01*
X116302969Y-136945848D01*
X116236013Y-136924608D01*
X116232041Y-136924162D01*
X116228219Y-136922994D01*
X116158351Y-136915897D01*
X116088611Y-136908074D01*
X116080806Y-136908020D01*
X116080653Y-136908004D01*
X116080510Y-136908018D01*
X116078000Y-136908000D01*
X113792000Y-136908000D01*
X113722119Y-136914852D01*
X113652197Y-136920969D01*
X113648359Y-136922084D01*
X113644382Y-136922474D01*
X113577212Y-136942754D01*
X113509761Y-136962350D01*
X113506210Y-136964191D01*
X113502387Y-136965345D01*
X113440426Y-136998290D01*
X113378075Y-137030610D01*
X113374952Y-137033103D01*
X113371422Y-137034980D01*
X113317013Y-137079355D01*
X113262154Y-137123148D01*
X113256594Y-137128631D01*
X113256478Y-137128726D01*
X113256389Y-137128834D01*
X113254599Y-137130599D01*
X112742500Y-137642698D01*
X109880301Y-134780499D01*
X111020799Y-133640000D01*
X112353856Y-133640000D01*
X112455820Y-133694502D01*
X112575518Y-133730812D01*
X112700000Y-133743072D01*
X112919770Y-133743072D01*
X113381599Y-134204901D01*
X113435855Y-134249468D01*
X113489625Y-134294586D01*
X113493126Y-134296511D01*
X113496215Y-134299048D01*
X113558067Y-134332213D01*
X113619604Y-134366043D01*
X113623416Y-134367252D01*
X113626935Y-134369139D01*
X113694031Y-134389652D01*
X113760987Y-134410892D01*
X113764959Y-134411338D01*
X113768781Y-134412506D01*
X113838605Y-134419598D01*
X113908389Y-134427426D01*
X113916204Y-134427481D01*
X113916347Y-134427495D01*
X113916480Y-134427482D01*
X113919000Y-134427500D01*
X116141500Y-134427500D01*
X116211377Y-134420649D01*
X116281303Y-134414531D01*
X116285141Y-134413416D01*
X116289118Y-134413026D01*
X116356321Y-134392736D01*
X116423740Y-134373149D01*
X116427288Y-134371310D01*
X116431113Y-134370155D01*
X116493091Y-134337201D01*
X116555425Y-134304890D01*
X116558548Y-134302397D01*
X116562078Y-134300520D01*
X116616487Y-134256145D01*
X116671346Y-134212352D01*
X116676906Y-134206869D01*
X116677022Y-134206774D01*
X116677111Y-134206666D01*
X116678901Y-134204901D01*
X117243802Y-133640000D01*
X121243856Y-133640000D01*
X121345820Y-133694502D01*
X121465518Y-133730812D01*
X121590000Y-133743072D01*
X122390000Y-133743072D01*
X122514482Y-133730812D01*
X122634180Y-133694502D01*
X122727382Y-133644684D01*
X123224099Y-134141401D01*
X123278355Y-134185968D01*
X123332125Y-134231086D01*
X123335626Y-134233011D01*
X123338715Y-134235548D01*
X123400602Y-134268732D01*
X123462104Y-134302543D01*
X123465912Y-134303751D01*
X123469435Y-134305640D01*
X123536618Y-134326180D01*
X123603487Y-134347392D01*
X123607454Y-134347837D01*
X123611281Y-134349007D01*
X123681199Y-134356109D01*
X123750889Y-134363926D01*
X123758694Y-134363980D01*
X123758847Y-134363996D01*
X123758990Y-134363982D01*
X123761500Y-134364000D01*
X125095000Y-134364000D01*
X125164877Y-134357149D01*
X125234803Y-134351031D01*
X125238641Y-134349916D01*
X125242618Y-134349526D01*
X125309821Y-134329236D01*
X125377240Y-134309649D01*
X125380788Y-134307810D01*
X125384613Y-134306655D01*
X125446591Y-134273701D01*
X125508925Y-134241390D01*
X125512048Y-134238897D01*
X125515578Y-134237020D01*
X125569987Y-134192645D01*
X125624846Y-134148852D01*
X125630406Y-134143369D01*
X125630522Y-134143274D01*
X125630611Y-134143166D01*
X125632401Y-134141401D01*
X126133802Y-133640000D01*
X133943856Y-133640000D01*
X134045820Y-133694502D01*
X134165518Y-133730812D01*
X134290000Y-133743072D01*
X135090000Y-133743072D01*
X135214482Y-133730812D01*
X135249030Y-133720332D01*
X135733599Y-134204901D01*
X135787855Y-134249468D01*
X135841625Y-134294586D01*
X135845126Y-134296511D01*
X135848215Y-134299048D01*
X135910067Y-134332213D01*
X135971604Y-134366043D01*
X135975416Y-134367252D01*
X135978935Y-134369139D01*
X136046031Y-134389652D01*
X136112987Y-134410892D01*
X136116959Y-134411338D01*
X136120781Y-134412506D01*
X136190605Y-134419598D01*
X136260389Y-134427426D01*
X136268204Y-134427481D01*
X136268347Y-134427495D01*
X136268480Y-134427482D01*
X136271000Y-134427500D01*
X137858500Y-134427500D01*
X137928377Y-134420649D01*
X137998303Y-134414531D01*
X138002141Y-134413416D01*
X138006118Y-134413026D01*
X138073321Y-134392736D01*
X138140740Y-134373149D01*
X138144288Y-134371310D01*
X138148113Y-134370155D01*
X138210091Y-134337201D01*
X138272425Y-134304890D01*
X138275548Y-134302397D01*
X138279078Y-134300520D01*
X138333487Y-134256145D01*
X138388346Y-134212352D01*
X138393906Y-134206869D01*
X138394022Y-134206774D01*
X138394111Y-134206666D01*
X138395901Y-134204901D01*
X138960802Y-133640000D01*
X142833856Y-133640000D01*
X142935820Y-133694502D01*
X143055518Y-133730812D01*
X143180000Y-133743072D01*
X143980000Y-133743072D01*
X144104482Y-133730812D01*
X144224180Y-133694502D01*
X144326144Y-133640000D01*
X144503198Y-133640000D01*
X144941099Y-134077901D01*
X144995355Y-134122468D01*
X145049125Y-134167586D01*
X145052626Y-134169511D01*
X145055715Y-134172048D01*
X145117567Y-134205213D01*
X145179104Y-134239043D01*
X145182916Y-134240252D01*
X145186435Y-134242139D01*
X145253531Y-134262652D01*
X145320487Y-134283892D01*
X145324459Y-134284338D01*
X145328281Y-134285506D01*
X145398105Y-134292598D01*
X145467889Y-134300426D01*
X145475704Y-134300481D01*
X145475847Y-134300495D01*
X145475980Y-134300482D01*
X145478500Y-134300500D01*
X146621500Y-134300500D01*
X146691377Y-134293649D01*
X146761303Y-134287531D01*
X146765141Y-134286416D01*
X146769118Y-134286026D01*
X146836321Y-134265736D01*
X146903740Y-134246149D01*
X146907288Y-134244310D01*
X146911113Y-134243155D01*
X146973091Y-134210201D01*
X147035425Y-134177890D01*
X147038548Y-134175397D01*
X147042078Y-134173520D01*
X147096487Y-134129145D01*
X147151346Y-134085352D01*
X147156906Y-134079869D01*
X147157022Y-134079774D01*
X147157111Y-134079666D01*
X147158901Y-134077901D01*
X147596802Y-133640000D01*
X154263856Y-133640000D01*
X154365820Y-133694502D01*
X154485518Y-133730812D01*
X154610000Y-133743072D01*
X155410000Y-133743072D01*
X155534482Y-133730812D01*
X155654180Y-133694502D01*
X155747382Y-133644684D01*
X156070100Y-133967402D01*
X156124356Y-134011969D01*
X156178126Y-134057087D01*
X156181627Y-134059012D01*
X156184716Y-134061549D01*
X156246603Y-134094733D01*
X156308105Y-134128544D01*
X156311913Y-134129752D01*
X156315436Y-134131641D01*
X156382578Y-134152168D01*
X156449488Y-134173393D01*
X156453460Y-134173839D01*
X156457282Y-134175007D01*
X156527150Y-134182104D01*
X156596890Y-134189927D01*
X156604695Y-134189981D01*
X156604848Y-134189997D01*
X156604991Y-134189983D01*
X156607501Y-134190001D01*
X158161999Y-134190001D01*
X158231876Y-134183150D01*
X158301802Y-134177032D01*
X158305640Y-134175917D01*
X158309617Y-134175527D01*
X158376820Y-134155237D01*
X158444239Y-134135650D01*
X158447787Y-134133811D01*
X158451612Y-134132656D01*
X158513590Y-134099702D01*
X158575924Y-134067391D01*
X158579047Y-134064898D01*
X158582577Y-134063021D01*
X158636986Y-134018646D01*
X158691845Y-133974853D01*
X158697405Y-133969370D01*
X158697521Y-133969275D01*
X158697610Y-133969167D01*
X158699400Y-133967402D01*
X159026802Y-133640000D01*
X163153856Y-133640000D01*
X163255820Y-133694502D01*
X163375518Y-133730812D01*
X163500000Y-133743072D01*
X164300000Y-133743072D01*
X164424482Y-133730812D01*
X164544180Y-133694502D01*
X164654494Y-133635537D01*
X164751185Y-133556185D01*
X164812020Y-133482058D01*
X164985238Y-133520143D01*
X165031061Y-133544713D01*
X165092598Y-133578543D01*
X165096410Y-133579752D01*
X165099929Y-133581639D01*
X165167025Y-133602152D01*
X165233981Y-133623392D01*
X165237953Y-133623838D01*
X165241775Y-133625006D01*
X165311599Y-133632098D01*
X165381383Y-133639926D01*
X165389198Y-133639981D01*
X165389341Y-133639995D01*
X165389474Y-133639982D01*
X165391994Y-133640000D01*
X165553856Y-133640000D01*
X165655820Y-133694502D01*
X165775518Y-133730812D01*
X165900000Y-133743072D01*
X166700000Y-133743072D01*
X166824482Y-133730812D01*
X166944180Y-133694502D01*
X167054494Y-133635537D01*
X167151185Y-133556185D01*
X167230537Y-133459494D01*
X167289502Y-133349180D01*
X167325812Y-133229482D01*
X167338072Y-133105000D01*
X167338072Y-132655000D01*
X167325812Y-132530518D01*
X167310488Y-132480000D01*
X167325812Y-132429482D01*
X167338072Y-132305000D01*
X167338072Y-131855000D01*
X167325812Y-131730518D01*
X167310488Y-131680000D01*
X167325812Y-131629482D01*
X167338072Y-131505000D01*
X167338072Y-131055000D01*
X167325812Y-130930518D01*
X167289502Y-130810820D01*
X167230537Y-130700506D01*
X167151185Y-130603815D01*
X167054494Y-130524463D01*
X166944180Y-130465498D01*
X166824482Y-130429188D01*
X166700000Y-130416928D01*
X165900000Y-130416928D01*
X165775518Y-130429188D01*
X165655820Y-130465498D01*
X165553856Y-130520000D01*
X165376802Y-130520000D01*
X165049400Y-130192598D01*
X164995144Y-130148031D01*
X164941374Y-130102913D01*
X164937873Y-130100988D01*
X164934784Y-130098451D01*
X164872932Y-130065286D01*
X164811395Y-130031456D01*
X164807583Y-130030247D01*
X164804064Y-130028360D01*
X164736968Y-130007847D01*
X164670012Y-129986607D01*
X164666040Y-129986161D01*
X164662218Y-129984993D01*
X164592350Y-129977896D01*
X164522610Y-129970073D01*
X164514805Y-129970019D01*
X164514652Y-129970003D01*
X164514509Y-129970017D01*
X164511999Y-129969999D01*
X160272000Y-129969999D01*
X160272000Y-129830747D01*
X160328911Y-129750070D01*
X160403492Y-129582560D01*
X160444116Y-129403754D01*
X160447040Y-129194319D01*
X160411425Y-129014448D01*
X160341550Y-128844920D01*
X160240079Y-128692193D01*
X160110875Y-128562084D01*
X159958860Y-128459549D01*
X159789825Y-128388493D01*
X159610207Y-128351623D01*
X159426849Y-128350343D01*
X159246733Y-128384701D01*
X159076722Y-128453390D01*
X158923291Y-128553793D01*
X158792283Y-128682086D01*
X158688689Y-128833381D01*
X158616454Y-129001916D01*
X158578331Y-129181272D01*
X158575771Y-129364617D01*
X158600290Y-129498209D01*
X158590513Y-129495108D01*
X158586541Y-129494662D01*
X158582719Y-129493494D01*
X158512851Y-129486397D01*
X158443111Y-129478574D01*
X158435306Y-129478520D01*
X158435153Y-129478504D01*
X158435010Y-129478518D01*
X158432500Y-129478500D01*
X156226500Y-129478500D01*
X156156573Y-129485356D01*
X156086697Y-129491470D01*
X156082864Y-129492584D01*
X156078882Y-129492974D01*
X156011638Y-129513276D01*
X155944260Y-129532851D01*
X155940712Y-129534690D01*
X155936887Y-129535845D01*
X155874890Y-129568809D01*
X155812574Y-129601111D01*
X155809453Y-129603603D01*
X155805922Y-129605480D01*
X155751507Y-129649859D01*
X155696654Y-129693648D01*
X155691094Y-129699131D01*
X155690978Y-129699226D01*
X155690889Y-129699334D01*
X155689099Y-129701099D01*
X154973270Y-130416928D01*
X154610000Y-130416928D01*
X154485518Y-130429188D01*
X154365820Y-130465498D01*
X154263856Y-130520000D01*
X148231802Y-130520000D01*
X147349401Y-129637599D01*
X147295145Y-129593032D01*
X147241375Y-129547914D01*
X147237874Y-129545989D01*
X147234785Y-129543452D01*
X147172933Y-129510287D01*
X147111396Y-129476457D01*
X147107584Y-129475248D01*
X147104065Y-129473361D01*
X147036969Y-129452848D01*
X146970013Y-129431608D01*
X146966041Y-129431162D01*
X146962219Y-129429994D01*
X146892351Y-129422897D01*
X146822611Y-129415074D01*
X146814806Y-129415020D01*
X146814653Y-129415004D01*
X146814510Y-129415018D01*
X146812000Y-129415000D01*
X145161000Y-129415000D01*
X145091123Y-129421851D01*
X145021197Y-129427969D01*
X145017359Y-129429084D01*
X145013382Y-129429474D01*
X144946179Y-129449764D01*
X144878760Y-129469351D01*
X144875212Y-129471190D01*
X144871387Y-129472345D01*
X144809409Y-129505299D01*
X144747075Y-129537610D01*
X144743952Y-129540103D01*
X144740422Y-129541980D01*
X144686013Y-129586355D01*
X144631154Y-129630148D01*
X144625594Y-129635631D01*
X144625478Y-129635726D01*
X144625389Y-129635834D01*
X144623599Y-129637599D01*
X143844270Y-130416928D01*
X143180000Y-130416928D01*
X143055518Y-130429188D01*
X142935820Y-130465498D01*
X142833856Y-130520000D01*
X139976802Y-130520000D01*
X138840401Y-129383599D01*
X138786145Y-129339032D01*
X138732375Y-129293914D01*
X138728874Y-129291989D01*
X138725785Y-129289452D01*
X138663933Y-129256287D01*
X138602396Y-129222457D01*
X138598584Y-129221248D01*
X138595065Y-129219361D01*
X138527969Y-129198848D01*
X138461013Y-129177608D01*
X138457041Y-129177162D01*
X138453219Y-129175994D01*
X138383351Y-129168897D01*
X138313611Y-129161074D01*
X138305806Y-129161020D01*
X138305653Y-129161004D01*
X138305510Y-129161018D01*
X138303000Y-129161000D01*
X135953500Y-129161000D01*
X135883619Y-129167852D01*
X135813697Y-129173969D01*
X135809859Y-129175084D01*
X135805882Y-129175474D01*
X135738712Y-129195754D01*
X135671261Y-129215350D01*
X135667710Y-129217191D01*
X135663887Y-129218345D01*
X135601926Y-129251290D01*
X135539575Y-129283610D01*
X135536452Y-129286103D01*
X135532922Y-129287980D01*
X135478513Y-129332355D01*
X135423654Y-129376148D01*
X135418094Y-129381631D01*
X135417978Y-129381726D01*
X135417889Y-129381834D01*
X135416099Y-129383599D01*
X134382770Y-130416928D01*
X134290000Y-130416928D01*
X134165518Y-130429188D01*
X134045820Y-130465498D01*
X133943856Y-130520000D01*
X127340302Y-130520000D01*
X126140401Y-129320099D01*
X126086145Y-129275532D01*
X126032375Y-129230414D01*
X126028874Y-129228489D01*
X126025785Y-129225952D01*
X125963933Y-129192787D01*
X125902396Y-129158957D01*
X125898584Y-129157748D01*
X125895065Y-129155861D01*
X125827969Y-129135348D01*
X125761013Y-129114108D01*
X125757041Y-129113662D01*
X125753219Y-129112494D01*
X125683351Y-129105397D01*
X125613611Y-129097574D01*
X125605806Y-129097520D01*
X125605653Y-129097504D01*
X125605510Y-129097518D01*
X125603000Y-129097500D01*
X123317000Y-129097500D01*
X123247073Y-129104356D01*
X123177197Y-129110470D01*
X123173364Y-129111584D01*
X123169382Y-129111974D01*
X123102138Y-129132276D01*
X123034760Y-129151851D01*
X123031212Y-129153690D01*
X123027387Y-129154845D01*
X122965390Y-129187809D01*
X122903074Y-129220111D01*
X122899953Y-129222603D01*
X122896422Y-129224480D01*
X122842007Y-129268859D01*
X122787154Y-129312648D01*
X122781594Y-129318131D01*
X122781478Y-129318226D01*
X122781389Y-129318334D01*
X122779599Y-129320099D01*
X121682770Y-130416928D01*
X121590000Y-130416928D01*
X121465518Y-130429188D01*
X121345820Y-130465498D01*
X121243856Y-130520000D01*
X121180802Y-130520000D01*
X121059696Y-130398894D01*
X121005440Y-130354327D01*
X120951670Y-130309209D01*
X120948169Y-130307284D01*
X120945080Y-130304747D01*
X120883228Y-130271582D01*
X120821691Y-130237752D01*
X120817879Y-130236543D01*
X120814360Y-130234656D01*
X120747264Y-130214143D01*
X120680308Y-130192903D01*
X120676336Y-130192457D01*
X120672514Y-130191289D01*
X120602646Y-130184192D01*
X120532906Y-130176369D01*
X120525101Y-130176315D01*
X120524948Y-130176299D01*
X120524805Y-130176313D01*
X120522295Y-130176295D01*
X117409507Y-130176295D01*
X116738302Y-129505090D01*
X116684046Y-129460523D01*
X116630276Y-129415405D01*
X116626775Y-129413480D01*
X116623686Y-129410943D01*
X116561834Y-129377778D01*
X116500297Y-129343948D01*
X116496485Y-129342739D01*
X116492966Y-129340852D01*
X116425870Y-129320339D01*
X116358914Y-129299099D01*
X116354942Y-129298653D01*
X116351120Y-129297485D01*
X116281252Y-129290388D01*
X116211512Y-129282565D01*
X116203707Y-129282511D01*
X116203554Y-129282495D01*
X116203411Y-129282509D01*
X116200901Y-129282491D01*
X114305509Y-129282491D01*
X114235632Y-129289342D01*
X114165706Y-129295460D01*
X114161868Y-129296575D01*
X114157891Y-129296965D01*
X114090688Y-129317255D01*
X114023269Y-129336842D01*
X114019721Y-129338681D01*
X114015896Y-129339836D01*
X113953899Y-129372800D01*
X113891583Y-129405102D01*
X113888462Y-129407594D01*
X113884931Y-129409471D01*
X113830516Y-129453850D01*
X113775663Y-129497639D01*
X113770103Y-129503122D01*
X113769987Y-129503217D01*
X113769898Y-129503325D01*
X113768108Y-129505090D01*
X112856270Y-130416928D01*
X112700000Y-130416928D01*
X112575518Y-130429188D01*
X112455820Y-130465498D01*
X112353856Y-130520000D01*
X110766802Y-130520000D01*
X108880280Y-128633478D01*
X108880280Y-126492000D01*
X108873295Y-126420758D01*
X108866818Y-126349590D01*
X108866066Y-126347035D01*
X108865806Y-126344382D01*
X108845136Y-126275919D01*
X108824940Y-126207299D01*
X108823705Y-126204936D01*
X108822935Y-126202387D01*
X108789373Y-126139265D01*
X108756221Y-126075852D01*
X108754551Y-126073775D01*
X108753300Y-126071422D01*
X108708070Y-126015965D01*
X108663279Y-125960256D01*
X108661238Y-125958543D01*
X108659554Y-125956478D01*
X108604382Y-125910836D01*
X108549655Y-125864914D01*
X108547323Y-125863632D01*
X108545267Y-125861931D01*
X108482311Y-125827891D01*
X108419676Y-125793457D01*
X108417135Y-125792651D01*
X108414792Y-125791384D01*
X108346483Y-125770239D01*
X108278293Y-125748608D01*
X108275644Y-125748311D01*
X108273099Y-125747523D01*
X108262804Y-125746441D01*
X108142876Y-125665549D01*
X107973841Y-125594493D01*
X107794223Y-125557623D01*
X107610865Y-125556343D01*
X107430749Y-125590701D01*
X107260738Y-125659390D01*
X107107307Y-125759793D01*
X106976299Y-125888086D01*
X106872705Y-126039381D01*
X106800470Y-126207916D01*
X106762347Y-126387272D01*
X106759787Y-126570617D01*
X106792888Y-126750968D01*
X106860388Y-126921454D01*
X106959717Y-127075583D01*
X107087092Y-127207484D01*
X107237660Y-127312131D01*
X107360280Y-127365702D01*
X107360280Y-128538480D01*
X107263155Y-128577721D01*
X107109724Y-128678124D01*
X106978716Y-128806417D01*
X106875122Y-128957712D01*
X106802887Y-129126247D01*
X106764764Y-129305603D01*
X106762204Y-129488948D01*
X106795305Y-129669299D01*
X106862805Y-129839785D01*
X106955108Y-129983011D01*
X106872689Y-130103381D01*
X106800454Y-130271916D01*
X106762331Y-130451272D01*
X106759771Y-130634617D01*
X106792872Y-130814968D01*
X106855612Y-130973432D01*
X106755679Y-131119381D01*
X106683444Y-131287916D01*
X106649758Y-131446395D01*
X106647443Y-131449214D01*
X106614278Y-131511066D01*
X106580448Y-131572603D01*
X106579239Y-131576415D01*
X106577352Y-131579934D01*
X106556839Y-131647030D01*
X106535599Y-131713986D01*
X106535153Y-131717958D01*
X106533985Y-131721780D01*
X106526888Y-131791648D01*
X106519065Y-131861388D01*
X106519011Y-131869193D01*
X106518995Y-131869346D01*
X106519009Y-131869489D01*
X106518991Y-131871999D01*
X102335000Y-131871999D01*
X102335000Y-121935117D01*
X106061271Y-121935117D01*
X106094372Y-122115468D01*
X106161872Y-122285954D01*
X106261201Y-122440083D01*
X106388576Y-122571984D01*
X106539144Y-122676631D01*
X106707171Y-122750040D01*
X106886257Y-122789415D01*
X107069579Y-122793255D01*
X107250157Y-122761414D01*
X107421110Y-122695106D01*
X107544973Y-122616500D01*
X108479476Y-122616500D01*
X108396707Y-122737381D01*
X108324472Y-122905916D01*
X108286349Y-123085272D01*
X108283789Y-123268617D01*
X108316890Y-123448968D01*
X108351692Y-123536867D01*
X108246277Y-123640097D01*
X108142683Y-123791392D01*
X108070448Y-123959927D01*
X108032325Y-124139283D01*
X108029765Y-124322628D01*
X108062866Y-124502979D01*
X108130366Y-124673465D01*
X108229695Y-124827594D01*
X108357070Y-124959495D01*
X108507638Y-125064142D01*
X108675665Y-125137551D01*
X108854751Y-125176926D01*
X109038073Y-125180766D01*
X109218651Y-125148925D01*
X109389604Y-125082617D01*
X109544423Y-124984366D01*
X109563709Y-124966000D01*
X110937198Y-124966000D01*
X111768599Y-125797401D01*
X111822855Y-125841968D01*
X111876625Y-125887086D01*
X111880126Y-125889011D01*
X111883215Y-125891548D01*
X111945067Y-125924713D01*
X112006604Y-125958543D01*
X112010416Y-125959752D01*
X112013935Y-125961639D01*
X112081031Y-125982152D01*
X112147987Y-126003392D01*
X112151959Y-126003838D01*
X112155781Y-126005006D01*
X112225605Y-126012098D01*
X112295389Y-126019926D01*
X112303204Y-126019981D01*
X112303347Y-126019995D01*
X112303480Y-126019982D01*
X112306000Y-126020000D01*
X112353856Y-126020000D01*
X112455820Y-126074502D01*
X112575518Y-126110812D01*
X112700000Y-126123072D01*
X113500000Y-126123072D01*
X113624482Y-126110812D01*
X113744180Y-126074502D01*
X113754620Y-126068922D01*
X114207099Y-126521401D01*
X114261355Y-126565968D01*
X114315125Y-126611086D01*
X114318626Y-126613011D01*
X114321715Y-126615548D01*
X114383602Y-126648732D01*
X114445104Y-126682543D01*
X114448912Y-126683751D01*
X114452435Y-126685640D01*
X114519618Y-126706180D01*
X114586487Y-126727392D01*
X114590454Y-126727837D01*
X114594281Y-126729007D01*
X114664199Y-126736109D01*
X114733889Y-126743926D01*
X114741694Y-126743980D01*
X114741847Y-126743996D01*
X114741990Y-126743982D01*
X114744500Y-126744000D01*
X116205000Y-126744000D01*
X116274877Y-126737149D01*
X116344803Y-126731031D01*
X116348641Y-126729916D01*
X116352618Y-126729526D01*
X116419821Y-126709236D01*
X116487240Y-126689649D01*
X116490788Y-126687810D01*
X116494613Y-126686655D01*
X116556591Y-126653701D01*
X116618925Y-126621390D01*
X116622048Y-126618897D01*
X116625578Y-126617020D01*
X116679987Y-126572645D01*
X116734846Y-126528852D01*
X116740406Y-126523369D01*
X116740522Y-126523274D01*
X116740611Y-126523166D01*
X116742401Y-126521401D01*
X117243802Y-126020000D01*
X121243856Y-126020000D01*
X121345820Y-126074502D01*
X121465518Y-126110812D01*
X121590000Y-126123072D01*
X122390000Y-126123072D01*
X122514482Y-126110812D01*
X122634180Y-126074502D01*
X122644620Y-126068922D01*
X123097099Y-126521401D01*
X123151355Y-126565968D01*
X123205125Y-126611086D01*
X123208626Y-126613011D01*
X123211715Y-126615548D01*
X123273602Y-126648732D01*
X123335104Y-126682543D01*
X123338912Y-126683751D01*
X123342435Y-126685640D01*
X123409618Y-126706180D01*
X123476487Y-126727392D01*
X123480454Y-126727837D01*
X123484281Y-126729007D01*
X123554199Y-126736109D01*
X123623889Y-126743926D01*
X123631694Y-126743980D01*
X123631847Y-126743996D01*
X123631990Y-126743982D01*
X123634500Y-126744000D01*
X125158500Y-126744000D01*
X125228377Y-126737149D01*
X125298303Y-126731031D01*
X125302141Y-126729916D01*
X125306118Y-126729526D01*
X125373321Y-126709236D01*
X125440740Y-126689649D01*
X125444288Y-126687810D01*
X125448113Y-126686655D01*
X125510091Y-126653701D01*
X125572425Y-126621390D01*
X125575548Y-126618897D01*
X125579078Y-126617020D01*
X125633487Y-126572645D01*
X125688346Y-126528852D01*
X125693906Y-126523369D01*
X125694022Y-126523274D01*
X125694111Y-126523166D01*
X125695901Y-126521401D01*
X126197302Y-126020000D01*
X133943856Y-126020000D01*
X134045820Y-126074502D01*
X134165518Y-126110812D01*
X134290000Y-126123072D01*
X135090000Y-126123072D01*
X135214482Y-126110812D01*
X135334180Y-126074502D01*
X135344620Y-126068922D01*
X135860599Y-126584901D01*
X135914855Y-126629468D01*
X135968625Y-126674586D01*
X135972126Y-126676511D01*
X135975215Y-126679048D01*
X136037067Y-126712213D01*
X136098604Y-126746043D01*
X136102416Y-126747252D01*
X136105935Y-126749139D01*
X136173031Y-126769652D01*
X136239987Y-126790892D01*
X136243959Y-126791338D01*
X136247781Y-126792506D01*
X136317605Y-126799598D01*
X136387389Y-126807426D01*
X136395204Y-126807481D01*
X136395347Y-126807495D01*
X136395480Y-126807482D01*
X136398000Y-126807500D01*
X137858500Y-126807500D01*
X137928377Y-126800649D01*
X137998303Y-126794531D01*
X138002141Y-126793416D01*
X138006118Y-126793026D01*
X138073321Y-126772736D01*
X138140740Y-126753149D01*
X138144288Y-126751310D01*
X138148113Y-126750155D01*
X138210091Y-126717201D01*
X138272425Y-126684890D01*
X138275548Y-126682397D01*
X138279078Y-126680520D01*
X138333487Y-126636145D01*
X138388346Y-126592352D01*
X138393906Y-126586869D01*
X138394022Y-126586774D01*
X138394111Y-126586666D01*
X138395901Y-126584901D01*
X138960802Y-126020000D01*
X142833856Y-126020000D01*
X142935820Y-126074502D01*
X143055518Y-126110812D01*
X143180000Y-126123072D01*
X143980000Y-126123072D01*
X144104482Y-126110812D01*
X144224180Y-126074502D01*
X144326144Y-126020000D01*
X144503198Y-126020000D01*
X144877598Y-126394401D01*
X144931880Y-126438988D01*
X144985625Y-126484086D01*
X144989126Y-126486011D01*
X144992215Y-126488548D01*
X145054067Y-126521713D01*
X145115604Y-126555543D01*
X145119416Y-126556752D01*
X145122935Y-126558639D01*
X145190043Y-126579156D01*
X145256987Y-126600392D01*
X145260958Y-126600837D01*
X145264780Y-126602006D01*
X145334610Y-126609099D01*
X145404389Y-126616926D01*
X145412204Y-126616981D01*
X145412347Y-126616995D01*
X145412480Y-126616982D01*
X145415000Y-126617000D01*
X146558000Y-126617000D01*
X146627877Y-126610149D01*
X146697803Y-126604031D01*
X146701641Y-126602916D01*
X146705618Y-126602526D01*
X146772821Y-126582236D01*
X146840240Y-126562649D01*
X146843788Y-126560810D01*
X146847613Y-126559655D01*
X146909591Y-126526701D01*
X146971925Y-126494390D01*
X146975048Y-126491897D01*
X146978578Y-126490020D01*
X147032987Y-126445645D01*
X147087846Y-126401852D01*
X147093406Y-126396369D01*
X147093522Y-126396274D01*
X147093611Y-126396166D01*
X147095401Y-126394401D01*
X147469803Y-126020000D01*
X154263856Y-126020000D01*
X154365820Y-126074502D01*
X154485518Y-126110812D01*
X154610000Y-126123072D01*
X155410000Y-126123072D01*
X155534482Y-126110812D01*
X155654180Y-126074502D01*
X155764494Y-126015537D01*
X155861185Y-125936185D01*
X155940537Y-125839494D01*
X155999502Y-125729180D01*
X156035812Y-125609482D01*
X156036443Y-125603077D01*
X156046671Y-125607546D01*
X156225757Y-125646921D01*
X156396631Y-125650500D01*
X156420498Y-125729180D01*
X156479463Y-125839494D01*
X156558815Y-125936185D01*
X156655506Y-126015537D01*
X156765820Y-126074502D01*
X156885518Y-126110812D01*
X157010000Y-126123072D01*
X157810000Y-126123072D01*
X157934482Y-126110812D01*
X158054180Y-126074502D01*
X158164494Y-126015537D01*
X158261185Y-125936185D01*
X158340537Y-125839494D01*
X158399502Y-125729180D01*
X158435812Y-125609482D01*
X158448072Y-125485000D01*
X158448072Y-125035000D01*
X158435812Y-124910518D01*
X158420488Y-124860000D01*
X158435812Y-124809482D01*
X158448072Y-124685000D01*
X158448072Y-124235000D01*
X158435812Y-124110518D01*
X158420488Y-124060000D01*
X158435812Y-124009482D01*
X158448072Y-123885000D01*
X158448072Y-123435000D01*
X158435812Y-123310518D01*
X158399502Y-123190820D01*
X158340537Y-123080506D01*
X158261185Y-122983815D01*
X158164494Y-122904463D01*
X158054180Y-122845498D01*
X157934482Y-122809188D01*
X157810000Y-122796928D01*
X157010000Y-122796928D01*
X156885518Y-122809188D01*
X156765820Y-122845498D01*
X156655506Y-122904463D01*
X156558815Y-122983815D01*
X156479463Y-123080506D01*
X156420498Y-123190820D01*
X156384188Y-123310518D01*
X156371928Y-123435000D01*
X156371928Y-123448270D01*
X156048072Y-123772126D01*
X156048072Y-123435000D01*
X156035812Y-123310518D01*
X155999502Y-123190820D01*
X155940537Y-123080506D01*
X155861185Y-122983815D01*
X155764494Y-122904463D01*
X155654180Y-122845498D01*
X155534482Y-122809188D01*
X155410000Y-122796928D01*
X154610000Y-122796928D01*
X154485518Y-122809188D01*
X154365820Y-122845498D01*
X154263856Y-122900000D01*
X148295302Y-122900000D01*
X147412901Y-122017599D01*
X147358645Y-121973032D01*
X147304875Y-121927914D01*
X147301374Y-121925989D01*
X147298285Y-121923452D01*
X147236433Y-121890287D01*
X147174896Y-121856457D01*
X147171084Y-121855248D01*
X147167565Y-121853361D01*
X147100469Y-121832848D01*
X147033513Y-121811608D01*
X147029541Y-121811162D01*
X147025719Y-121809994D01*
X146955851Y-121802897D01*
X146886111Y-121795074D01*
X146878306Y-121795020D01*
X146878153Y-121795004D01*
X146878010Y-121795018D01*
X146875500Y-121795000D01*
X145097500Y-121795000D01*
X145027623Y-121801851D01*
X144957697Y-121807969D01*
X144953859Y-121809084D01*
X144949882Y-121809474D01*
X144882679Y-121829764D01*
X144815260Y-121849351D01*
X144811712Y-121851190D01*
X144807887Y-121852345D01*
X144745909Y-121885299D01*
X144683575Y-121917610D01*
X144680452Y-121920103D01*
X144676922Y-121921980D01*
X144622513Y-121966355D01*
X144567654Y-122010148D01*
X144562094Y-122015631D01*
X144561978Y-122015726D01*
X144561889Y-122015834D01*
X144560099Y-122017599D01*
X143780770Y-122796928D01*
X143180000Y-122796928D01*
X143055518Y-122809188D01*
X142935820Y-122845498D01*
X142833856Y-122900000D01*
X139595802Y-122900000D01*
X138586401Y-121890599D01*
X138532145Y-121846032D01*
X138478375Y-121800914D01*
X138474874Y-121798989D01*
X138471785Y-121796452D01*
X138409933Y-121763287D01*
X138348396Y-121729457D01*
X138344584Y-121728248D01*
X138341065Y-121726361D01*
X138273969Y-121705848D01*
X138207013Y-121684608D01*
X138203041Y-121684162D01*
X138199219Y-121682994D01*
X138129351Y-121675897D01*
X138059611Y-121668074D01*
X138051806Y-121668020D01*
X138051653Y-121668004D01*
X138051510Y-121668018D01*
X138049000Y-121668000D01*
X136144000Y-121668000D01*
X136074123Y-121674851D01*
X136004197Y-121680969D01*
X136000359Y-121682084D01*
X135996382Y-121682474D01*
X135929179Y-121702764D01*
X135861760Y-121722351D01*
X135858212Y-121724190D01*
X135854387Y-121725345D01*
X135792429Y-121758288D01*
X135730074Y-121790610D01*
X135726949Y-121793105D01*
X135723422Y-121794980D01*
X135669035Y-121839337D01*
X135614154Y-121883148D01*
X135608594Y-121888631D01*
X135608478Y-121888726D01*
X135608389Y-121888834D01*
X135606599Y-121890599D01*
X134700270Y-122796928D01*
X134290000Y-122796928D01*
X134165518Y-122809188D01*
X134045820Y-122845498D01*
X133943856Y-122900000D01*
X127403802Y-122900000D01*
X126203901Y-121700099D01*
X126149645Y-121655532D01*
X126095875Y-121610414D01*
X126092374Y-121608489D01*
X126089285Y-121605952D01*
X126027433Y-121572787D01*
X125965896Y-121538957D01*
X125962084Y-121537748D01*
X125958565Y-121535861D01*
X125891469Y-121515348D01*
X125824513Y-121494108D01*
X125820541Y-121493662D01*
X125816719Y-121492494D01*
X125746851Y-121485397D01*
X125677111Y-121477574D01*
X125669306Y-121477520D01*
X125669153Y-121477504D01*
X125669010Y-121477518D01*
X125666500Y-121477500D01*
X123634500Y-121477500D01*
X123564619Y-121484352D01*
X123494697Y-121490469D01*
X123490859Y-121491584D01*
X123486882Y-121491974D01*
X123419712Y-121512254D01*
X123352261Y-121531850D01*
X123348710Y-121533691D01*
X123344887Y-121534845D01*
X123282926Y-121567790D01*
X123220575Y-121600110D01*
X123217452Y-121602603D01*
X123213922Y-121604480D01*
X123159513Y-121648855D01*
X123104654Y-121692648D01*
X123099094Y-121698131D01*
X123098978Y-121698226D01*
X123098889Y-121698334D01*
X123097099Y-121700099D01*
X122000270Y-122796928D01*
X121590000Y-122796928D01*
X121465518Y-122809188D01*
X121345820Y-122845498D01*
X121244146Y-122899844D01*
X121123901Y-122779599D01*
X121069645Y-122735032D01*
X121015875Y-122689914D01*
X121012374Y-122687989D01*
X121009285Y-122685452D01*
X120947433Y-122652287D01*
X120885896Y-122618457D01*
X120882084Y-122617248D01*
X120878565Y-122615361D01*
X120811469Y-122594848D01*
X120744513Y-122573608D01*
X120740541Y-122573162D01*
X120736719Y-122571994D01*
X120666851Y-122564897D01*
X120597111Y-122557074D01*
X120589306Y-122557020D01*
X120589153Y-122557004D01*
X120589010Y-122557018D01*
X120586500Y-122557000D01*
X117284622Y-122557000D01*
X116491221Y-121763599D01*
X116436965Y-121719032D01*
X116383195Y-121673914D01*
X116379694Y-121671989D01*
X116376605Y-121669452D01*
X116314753Y-121636287D01*
X116253216Y-121602457D01*
X116249404Y-121601248D01*
X116245885Y-121599361D01*
X116178789Y-121578848D01*
X116111833Y-121557608D01*
X116107861Y-121557162D01*
X116104039Y-121555994D01*
X116034171Y-121548897D01*
X115964431Y-121541074D01*
X115956626Y-121541020D01*
X115956473Y-121541004D01*
X115956330Y-121541018D01*
X115953820Y-121541000D01*
X114427000Y-121541000D01*
X114357073Y-121547856D01*
X114287197Y-121553970D01*
X114283364Y-121555084D01*
X114279382Y-121555474D01*
X114212138Y-121575776D01*
X114144760Y-121595351D01*
X114141212Y-121597190D01*
X114137387Y-121598345D01*
X114075390Y-121631309D01*
X114013074Y-121663611D01*
X114009953Y-121666103D01*
X114006422Y-121667980D01*
X113952007Y-121712359D01*
X113897154Y-121756148D01*
X113891594Y-121761631D01*
X113891478Y-121761726D01*
X113891389Y-121761834D01*
X113889599Y-121763599D01*
X113321500Y-122331698D01*
X112308901Y-121319099D01*
X112254645Y-121274532D01*
X112200875Y-121229414D01*
X112197374Y-121227489D01*
X112194285Y-121224952D01*
X112132433Y-121191787D01*
X112070896Y-121157957D01*
X112067084Y-121156748D01*
X112063565Y-121154861D01*
X111996469Y-121134348D01*
X111929513Y-121113108D01*
X111925541Y-121112662D01*
X111921719Y-121111494D01*
X111851851Y-121104397D01*
X111782111Y-121096574D01*
X111774306Y-121096520D01*
X111774153Y-121096504D01*
X111774010Y-121096518D01*
X111771500Y-121096500D01*
X107542878Y-121096500D01*
X107444360Y-121030049D01*
X107275325Y-120958993D01*
X107095707Y-120922123D01*
X106912349Y-120920843D01*
X106732233Y-120955201D01*
X106562222Y-121023890D01*
X106408791Y-121124293D01*
X106277783Y-121252586D01*
X106174189Y-121403881D01*
X106101954Y-121572416D01*
X106063831Y-121751772D01*
X106061271Y-121935117D01*
X102335000Y-121935117D01*
X102335000Y-117934617D01*
X106759771Y-117934617D01*
X106792872Y-118114968D01*
X106860372Y-118285454D01*
X106959701Y-118439583D01*
X107087076Y-118571484D01*
X107237644Y-118676131D01*
X107405671Y-118749540D01*
X107584757Y-118788915D01*
X107768079Y-118792755D01*
X107948657Y-118760914D01*
X108119610Y-118694606D01*
X108274429Y-118596355D01*
X108407215Y-118469904D01*
X108456527Y-118400000D01*
X112353856Y-118400000D01*
X112455820Y-118454502D01*
X112575518Y-118490812D01*
X112700000Y-118503072D01*
X113063270Y-118503072D01*
X113392588Y-118832390D01*
X113446844Y-118876957D01*
X113500614Y-118922075D01*
X113504115Y-118924000D01*
X113507204Y-118926537D01*
X113569056Y-118959702D01*
X113630593Y-118993532D01*
X113634405Y-118994741D01*
X113637924Y-118996628D01*
X113705020Y-119017141D01*
X113771976Y-119038381D01*
X113775948Y-119038827D01*
X113779770Y-119039995D01*
X113849594Y-119047087D01*
X113919378Y-119054915D01*
X113927193Y-119054970D01*
X113927336Y-119054984D01*
X113927469Y-119054971D01*
X113929989Y-119054989D01*
X115651860Y-119054989D01*
X115649771Y-119204617D01*
X115682872Y-119384968D01*
X115750372Y-119555454D01*
X115849701Y-119709583D01*
X115977076Y-119841484D01*
X116127644Y-119946131D01*
X116295671Y-120019540D01*
X116474757Y-120058915D01*
X116658079Y-120062755D01*
X116838657Y-120030914D01*
X117009610Y-119964606D01*
X117164429Y-119866355D01*
X117297215Y-119739904D01*
X117402911Y-119590070D01*
X117477492Y-119422560D01*
X117510786Y-119276016D01*
X117789802Y-118997000D01*
X135525785Y-118997000D01*
X135706198Y-119177413D01*
X135760454Y-119221980D01*
X135814224Y-119267098D01*
X135817725Y-119269023D01*
X135820814Y-119271560D01*
X135882666Y-119304725D01*
X135944203Y-119338555D01*
X135948015Y-119339764D01*
X135951534Y-119341651D01*
X136018630Y-119362164D01*
X136085586Y-119383404D01*
X136089558Y-119383850D01*
X136093380Y-119385018D01*
X136163204Y-119392110D01*
X136232988Y-119399938D01*
X136240803Y-119399993D01*
X136240946Y-119400007D01*
X136241079Y-119399994D01*
X136243599Y-119400012D01*
X137936401Y-119400012D01*
X138006278Y-119393161D01*
X138076204Y-119387043D01*
X138080042Y-119385928D01*
X138084019Y-119385538D01*
X138151222Y-119365248D01*
X138218641Y-119345661D01*
X138222189Y-119343822D01*
X138226014Y-119342667D01*
X138287992Y-119309713D01*
X138350326Y-119277402D01*
X138353449Y-119274909D01*
X138356979Y-119273032D01*
X138411388Y-119228657D01*
X138466247Y-119184864D01*
X138471807Y-119179381D01*
X138471923Y-119179286D01*
X138472012Y-119179178D01*
X138473802Y-119177413D01*
X138654215Y-118997000D01*
X155623002Y-118997000D01*
X155692879Y-118990149D01*
X155762805Y-118984031D01*
X155766643Y-118982916D01*
X155770620Y-118982526D01*
X155837823Y-118962236D01*
X155905242Y-118942649D01*
X155908790Y-118940810D01*
X155912615Y-118939655D01*
X155974593Y-118906701D01*
X156036927Y-118874390D01*
X156040050Y-118871897D01*
X156043580Y-118870020D01*
X156097989Y-118825645D01*
X156152848Y-118781852D01*
X156158408Y-118776369D01*
X156158524Y-118776274D01*
X156158613Y-118776166D01*
X156160403Y-118774401D01*
X156591662Y-118343142D01*
X156655506Y-118395537D01*
X156765820Y-118454502D01*
X156885518Y-118490812D01*
X157010000Y-118503072D01*
X157785654Y-118503072D01*
X157790351Y-118519240D01*
X157792190Y-118522788D01*
X157793345Y-118526613D01*
X157826299Y-118588591D01*
X157858610Y-118650925D01*
X157861103Y-118654048D01*
X157862980Y-118657578D01*
X157907355Y-118711987D01*
X157951148Y-118766846D01*
X157954235Y-118769976D01*
X157973872Y-118876968D01*
X158041372Y-119047454D01*
X158140701Y-119201583D01*
X158268076Y-119333484D01*
X158418644Y-119438131D01*
X158586671Y-119511540D01*
X158765757Y-119550915D01*
X158949079Y-119554755D01*
X159129657Y-119522914D01*
X159300610Y-119456606D01*
X159455429Y-119358355D01*
X159588215Y-119231904D01*
X159693911Y-119082070D01*
X159768492Y-118914560D01*
X159809116Y-118735754D01*
X159812040Y-118526319D01*
X159776425Y-118346448D01*
X159706550Y-118176920D01*
X159605079Y-118024193D01*
X159475875Y-117894084D01*
X159323860Y-117791549D01*
X159256000Y-117763023D01*
X159256000Y-116459000D01*
X159249144Y-116389073D01*
X159243030Y-116319197D01*
X159241916Y-116315364D01*
X159241526Y-116311382D01*
X159221224Y-116244138D01*
X159201649Y-116176760D01*
X159199810Y-116173212D01*
X159198655Y-116169387D01*
X159165691Y-116107390D01*
X159133389Y-116045074D01*
X159130897Y-116041953D01*
X159129020Y-116038422D01*
X159084641Y-115984007D01*
X159040852Y-115929154D01*
X159035369Y-115923594D01*
X159035274Y-115923478D01*
X159035166Y-115923389D01*
X159033401Y-115921599D01*
X158614401Y-115502599D01*
X158560145Y-115458032D01*
X158506375Y-115412914D01*
X158502874Y-115410989D01*
X158499785Y-115408452D01*
X158437933Y-115375287D01*
X158376396Y-115341457D01*
X158372584Y-115340248D01*
X158369065Y-115338361D01*
X158301969Y-115317848D01*
X158235013Y-115296608D01*
X158231041Y-115296162D01*
X158227219Y-115294994D01*
X158170278Y-115289210D01*
X158164494Y-115284463D01*
X158054180Y-115225498D01*
X157934482Y-115189188D01*
X157810000Y-115176928D01*
X157010000Y-115176928D01*
X156885518Y-115189188D01*
X156765820Y-115225498D01*
X156655506Y-115284463D01*
X156558815Y-115363815D01*
X156479463Y-115460506D01*
X156420498Y-115570820D01*
X156384188Y-115690518D01*
X156371928Y-115815000D01*
X156371928Y-116265000D01*
X156384188Y-116389482D01*
X156399512Y-116440000D01*
X156384188Y-116490518D01*
X156376316Y-116570444D01*
X156279707Y-116550613D01*
X156096349Y-116549333D01*
X156042614Y-116559583D01*
X156035812Y-116490518D01*
X156020488Y-116440000D01*
X156035812Y-116389482D01*
X156048072Y-116265000D01*
X156048072Y-115815000D01*
X156035812Y-115690518D01*
X155999502Y-115570820D01*
X155940537Y-115460506D01*
X155861185Y-115363815D01*
X155764494Y-115284463D01*
X155654180Y-115225498D01*
X155534482Y-115189188D01*
X155410000Y-115176928D01*
X154610000Y-115176928D01*
X154485518Y-115189188D01*
X154365820Y-115225498D01*
X154263856Y-115280000D01*
X147541802Y-115280000D01*
X148615169Y-114206633D01*
X148715657Y-114188914D01*
X148886610Y-114122606D01*
X149041429Y-114024355D01*
X149174215Y-113897904D01*
X149279911Y-113748070D01*
X149354492Y-113580560D01*
X149395116Y-113401754D01*
X149398040Y-113192319D01*
X149362425Y-113012448D01*
X149292550Y-112842920D01*
X149192661Y-112692574D01*
X149295429Y-112627355D01*
X149428215Y-112500904D01*
X149533911Y-112351070D01*
X149608492Y-112183560D01*
X149649116Y-112004754D01*
X149652040Y-111795319D01*
X149616425Y-111615448D01*
X149546550Y-111445920D01*
X149445079Y-111293193D01*
X149315875Y-111163084D01*
X149163860Y-111060549D01*
X148994825Y-110989493D01*
X148815207Y-110952623D01*
X148631849Y-110951343D01*
X148451733Y-110985701D01*
X148281722Y-111054390D01*
X148128291Y-111154793D01*
X147997283Y-111283086D01*
X147893689Y-111434381D01*
X147821454Y-111602916D01*
X147793158Y-111736040D01*
X147386198Y-112143000D01*
X144355736Y-112143000D01*
X144285855Y-112149852D01*
X144215933Y-112155969D01*
X144212095Y-112157084D01*
X144208118Y-112157474D01*
X144140948Y-112177754D01*
X144073497Y-112197350D01*
X144069946Y-112199191D01*
X144066123Y-112200345D01*
X144004162Y-112233290D01*
X143941811Y-112265610D01*
X143938688Y-112268103D01*
X143935158Y-112269980D01*
X143880749Y-112314355D01*
X143825890Y-112358148D01*
X143820330Y-112363631D01*
X143820214Y-112363726D01*
X143820125Y-112363834D01*
X143818335Y-112365599D01*
X143278934Y-112905000D01*
X132013802Y-112905000D01*
X128828091Y-109719289D01*
X128861988Y-109691644D01*
X128916847Y-109647851D01*
X128922407Y-109642368D01*
X128922523Y-109642273D01*
X128922612Y-109642165D01*
X128924402Y-109640400D01*
X128930169Y-109634633D01*
X129030657Y-109616914D01*
X129201610Y-109550606D01*
X129356429Y-109452355D01*
X129489215Y-109325904D01*
X129594911Y-109176070D01*
X129669492Y-109008560D01*
X129710116Y-108829754D01*
X129713040Y-108620319D01*
X129677425Y-108440448D01*
X129607550Y-108270920D01*
X129506079Y-108118193D01*
X129376875Y-107988084D01*
X129224860Y-107885549D01*
X129055825Y-107814493D01*
X128876207Y-107777623D01*
X128692849Y-107776343D01*
X128512733Y-107810701D01*
X128342722Y-107879390D01*
X128189291Y-107979793D01*
X128058283Y-108108086D01*
X127954689Y-108259381D01*
X127918850Y-108342999D01*
X127461999Y-108342999D01*
X127392072Y-108349855D01*
X127322196Y-108355969D01*
X127318363Y-108357083D01*
X127314381Y-108357473D01*
X127247137Y-108377775D01*
X127179759Y-108397350D01*
X127176211Y-108399189D01*
X127172386Y-108400344D01*
X127110389Y-108433308D01*
X127048073Y-108465610D01*
X127044952Y-108468102D01*
X127041421Y-108469979D01*
X126987006Y-108514358D01*
X126932153Y-108558147D01*
X126926593Y-108563630D01*
X126926477Y-108563725D01*
X126926388Y-108563833D01*
X126924598Y-108565598D01*
X126599598Y-108890598D01*
X126555031Y-108944854D01*
X126509913Y-108998624D01*
X126507988Y-109002125D01*
X126505451Y-109005214D01*
X126472286Y-109067066D01*
X126438456Y-109128603D01*
X126437247Y-109132415D01*
X126435360Y-109135934D01*
X126414847Y-109203030D01*
X126393607Y-109269986D01*
X126393161Y-109273958D01*
X126391993Y-109277780D01*
X126384896Y-109347648D01*
X126377073Y-109417388D01*
X126377019Y-109425193D01*
X126377003Y-109425346D01*
X126377017Y-109425489D01*
X126376999Y-109427999D01*
X126376999Y-110028001D01*
X126383850Y-110097878D01*
X126389968Y-110167804D01*
X126391083Y-110171642D01*
X126391473Y-110175619D01*
X126411763Y-110242822D01*
X126431350Y-110310241D01*
X126433189Y-110313789D01*
X126434344Y-110317614D01*
X126467298Y-110379592D01*
X126499609Y-110441926D01*
X126502102Y-110445049D01*
X126503979Y-110448579D01*
X126548354Y-110502988D01*
X126592147Y-110557847D01*
X126597630Y-110563407D01*
X126597725Y-110563523D01*
X126597833Y-110563612D01*
X126599598Y-110565402D01*
X130686607Y-114652411D01*
X130740841Y-114696959D01*
X130794633Y-114742096D01*
X130798137Y-114744022D01*
X130801224Y-114746558D01*
X130863070Y-114779720D01*
X130924612Y-114813553D01*
X130928422Y-114814762D01*
X130931944Y-114816650D01*
X130999112Y-114837186D01*
X131065995Y-114858402D01*
X131069962Y-114858847D01*
X131073789Y-114860017D01*
X131143707Y-114867119D01*
X131213397Y-114874936D01*
X131221202Y-114874990D01*
X131221355Y-114875006D01*
X131221498Y-114874992D01*
X131224008Y-114875010D01*
X134305188Y-114875010D01*
X134152599Y-115027599D01*
X134108032Y-115081855D01*
X134062914Y-115135625D01*
X134060989Y-115139126D01*
X134058452Y-115142215D01*
X134025287Y-115204067D01*
X134000058Y-115249959D01*
X133943856Y-115280000D01*
X121117302Y-115280000D01*
X120044401Y-114207099D01*
X119990145Y-114162532D01*
X119936375Y-114117414D01*
X119932874Y-114115489D01*
X119929785Y-114112952D01*
X119867933Y-114079787D01*
X119806396Y-114045957D01*
X119802584Y-114044748D01*
X119799065Y-114042861D01*
X119731969Y-114022348D01*
X119665013Y-114001108D01*
X119661041Y-114000662D01*
X119657219Y-113999494D01*
X119587351Y-113992397D01*
X119517611Y-113984574D01*
X119509806Y-113984520D01*
X119509653Y-113984504D01*
X119509510Y-113984518D01*
X119507000Y-113984500D01*
X114300000Y-113984500D01*
X114230123Y-113991351D01*
X114160197Y-113997469D01*
X114156359Y-113998584D01*
X114152382Y-113998974D01*
X114085179Y-114019264D01*
X114017760Y-114038851D01*
X114014212Y-114040690D01*
X114010387Y-114041845D01*
X113948390Y-114074809D01*
X113886074Y-114107111D01*
X113882953Y-114109603D01*
X113879422Y-114111480D01*
X113825007Y-114155859D01*
X113770154Y-114199648D01*
X113764594Y-114205131D01*
X113764478Y-114205226D01*
X113764389Y-114205334D01*
X113762599Y-114207099D01*
X112792770Y-115176928D01*
X112700000Y-115176928D01*
X112575518Y-115189188D01*
X112455820Y-115225498D01*
X112353856Y-115280000D01*
X110057184Y-115280000D01*
X109920860Y-115188049D01*
X109751825Y-115116993D01*
X109572207Y-115080123D01*
X109388849Y-115078843D01*
X109208733Y-115113201D01*
X109038722Y-115181890D01*
X108885291Y-115282293D01*
X108754283Y-115410586D01*
X108650689Y-115561881D01*
X108578454Y-115730416D01*
X108540331Y-115909772D01*
X108540071Y-115928380D01*
X108429207Y-115905623D01*
X108245849Y-115904343D01*
X108065733Y-115938701D01*
X107895722Y-116007390D01*
X107742291Y-116107793D01*
X107611283Y-116236086D01*
X107507689Y-116387381D01*
X107435454Y-116555916D01*
X107397331Y-116735272D01*
X107394771Y-116918617D01*
X107403419Y-116965737D01*
X107260722Y-117023390D01*
X107107291Y-117123793D01*
X106976283Y-117252086D01*
X106872689Y-117403381D01*
X106800454Y-117571916D01*
X106762331Y-117751272D01*
X106759771Y-117934617D01*
X102335000Y-117934617D01*
X102335000Y-102335000D01*
X119245798Y-102335000D01*
X119208331Y-102511272D01*
M02*
