G04 #@! TF.FileFunction,Legend,Top*
%FSLAX46Y46*%
G04 Gerber Fmt 4.6, Leading zero omitted, Abs format (unit mm)*
G04 Created by KiCad (PCBNEW (2016-05-05 BZR 6775)-product) date Saturday, June 04, 2016 'PMt' 10:04:22 PM*
%MOMM*%
%LPD*%
G01*
G04 APERTURE LIST*
%ADD10C,0.100000*%
%ADD11C,0.150000*%
G04 APERTURE END LIST*
D10*
D11*
X162676500Y-115828000D02*
X165476500Y-115828000D01*
X162576500Y-115828000D02*
X160676500Y-117928000D01*
X160676500Y-126928000D02*
X160676500Y-117928000D01*
X162676500Y-129028000D02*
X160676500Y-126928000D01*
X165476500Y-129028000D02*
X162676500Y-129028000D01*
X172476500Y-115828000D02*
X169576500Y-115828000D01*
X172476500Y-129028000D02*
X172476500Y-115828000D01*
X169576500Y-129028000D02*
X172476500Y-129028000D01*
X106426000Y-121221500D02*
X112014000Y-121221500D01*
X106426000Y-136461500D02*
X112014000Y-136461500D01*
X106426000Y-121221500D02*
X106426000Y-136461500D01*
X108585000Y-136461500D02*
X108585000Y-135191500D01*
X108585000Y-135191500D02*
X109855000Y-135191500D01*
X109855000Y-135191500D02*
X109855000Y-136461500D01*
X112014000Y-136461500D02*
X112014000Y-121221500D01*
X137507000Y-102926000D02*
G75*
G03X138007000Y-102426000I0J500000D01*
G01*
X137507000Y-102426000D02*
X141507000Y-102426000D01*
X137507000Y-110426000D02*
X137507000Y-102426000D01*
X141507000Y-110426000D02*
X137507000Y-110426000D01*
X141507000Y-102426000D02*
X141507000Y-110426000D01*
X167040000Y-104986000D02*
X166895000Y-104986000D01*
X167040000Y-109136000D02*
X166895000Y-109136000D01*
X161890000Y-109136000D02*
X162035000Y-109136000D01*
X161890000Y-104986000D02*
X162035000Y-104986000D01*
X167040000Y-104986000D02*
X167040000Y-109136000D01*
X161890000Y-104986000D02*
X161890000Y-109136000D01*
X166895000Y-104986000D02*
X166895000Y-103586000D01*
X173990000Y-137668000D02*
X173990000Y-136144000D01*
X173863000Y-135763000D02*
X173863000Y-138049000D01*
X173736000Y-138303000D02*
X173736000Y-135509000D01*
X173609000Y-135255000D02*
X173609000Y-138557000D01*
X173482000Y-138684000D02*
X173482000Y-135128000D01*
X174371000Y-140208000D02*
X174371000Y-133604000D01*
X174371000Y-133604000D02*
X168529000Y-133604000D01*
X168529000Y-133604000D02*
X167767000Y-134366000D01*
X167767000Y-134366000D02*
X167767000Y-139446000D01*
X167767000Y-139446000D02*
X168529000Y-140208000D01*
X168529000Y-140208000D02*
X174371000Y-140208000D01*
X168910000Y-136906000D02*
X169672000Y-136906000D01*
X169291000Y-137287000D02*
X169291000Y-136525000D01*
X174117000Y-136906000D02*
G75*
G03X174117000Y-136906000I-3048000J0D01*
G01*
X131205000Y-146650000D02*
X131205000Y-145450000D01*
X132955000Y-145450000D02*
X132955000Y-146650000D01*
X113376000Y-138670000D02*
X112176000Y-138670000D01*
X112176000Y-136920000D02*
X113376000Y-136920000D01*
X150177500Y-118618000D02*
X150177500Y-123698000D01*
X150177500Y-123698000D02*
X145605500Y-123698000D01*
X145605500Y-123698000D02*
X145605500Y-118618000D01*
X145605500Y-118618000D02*
X150177500Y-118618000D01*
X148653500Y-118618000D02*
X148653500Y-119126000D01*
X148653500Y-119126000D02*
X147383500Y-119126000D01*
X147383500Y-119126000D02*
X147383500Y-118618000D01*
X147509000Y-104169000D02*
X147509000Y-104504000D01*
X155259000Y-104169000D02*
X155259000Y-104504000D01*
X155259000Y-117319000D02*
X155259000Y-116984000D01*
X147509000Y-117319000D02*
X147509000Y-116984000D01*
X147509000Y-104169000D02*
X155259000Y-104169000D01*
X147509000Y-117319000D02*
X155259000Y-117319000D01*
X147509000Y-104504000D02*
X145709000Y-104504000D01*
X125031500Y-149669500D02*
X126555500Y-149669500D01*
X126936500Y-149542500D02*
X124650500Y-149542500D01*
X124396500Y-149415500D02*
X127190500Y-149415500D01*
X127444500Y-149288500D02*
X124142500Y-149288500D01*
X124015500Y-149161500D02*
X127571500Y-149161500D01*
X122491500Y-150050500D02*
X129095500Y-150050500D01*
X129095500Y-150050500D02*
X129095500Y-144208500D01*
X129095500Y-144208500D02*
X128333500Y-143446500D01*
X128333500Y-143446500D02*
X123253500Y-143446500D01*
X123253500Y-143446500D02*
X122491500Y-144208500D01*
X122491500Y-144208500D02*
X122491500Y-150050500D01*
X125793500Y-144589500D02*
X125793500Y-145351500D01*
X125412500Y-144970500D02*
X126174500Y-144970500D01*
X128841500Y-146748500D02*
G75*
G03X128841500Y-146748500I-3048000J0D01*
G01*
X134683500Y-110680500D02*
X129603500Y-110680500D01*
X129603500Y-110680500D02*
X129603500Y-106108500D01*
X129603500Y-106108500D02*
X134683500Y-106108500D01*
X134683500Y-106108500D02*
X134683500Y-110680500D01*
X134683500Y-109156500D02*
X134175500Y-109156500D01*
X134175500Y-109156500D02*
X134175500Y-107886500D01*
X134175500Y-107886500D02*
X134683500Y-107886500D01*
X170907000Y-104316500D02*
X169707000Y-104316500D01*
X169707000Y-102566500D02*
X170907000Y-102566500D01*
X146721214Y-145097500D02*
G75*
G03X146721214Y-145097500I-1750714J0D01*
G01*
X148195500Y-141872500D02*
X148195500Y-141897500D01*
X148195500Y-148322500D02*
X148195500Y-148297500D01*
X141745500Y-148322500D02*
X141745500Y-148297500D01*
X141745500Y-141897500D02*
X141745500Y-141872500D01*
X148195500Y-143797500D02*
X148195500Y-146397500D01*
X141745500Y-141872500D02*
X148195500Y-141872500D01*
X141745500Y-143797500D02*
X141745500Y-146397500D01*
X141745500Y-148322500D02*
X148195500Y-148322500D01*
X141125500Y-114667000D02*
X139925500Y-114667000D01*
X139925500Y-112917000D02*
X141125500Y-112917000D01*
X144673500Y-112099000D02*
X142773500Y-112099000D01*
X144673500Y-113199000D02*
X142773500Y-113199000D01*
X143773500Y-112649000D02*
X143323500Y-112649000D01*
X143823500Y-112899000D02*
X143823500Y-112399000D01*
X143823500Y-112649000D02*
X143573500Y-112899000D01*
X143573500Y-112899000D02*
X143573500Y-112399000D01*
X143573500Y-112399000D02*
X143823500Y-112649000D01*
X144737000Y-110702000D02*
X142837000Y-110702000D01*
X144737000Y-111802000D02*
X142837000Y-111802000D01*
X143837000Y-111252000D02*
X143387000Y-111252000D01*
X143887000Y-111502000D02*
X143887000Y-111002000D01*
X143887000Y-111252000D02*
X143637000Y-111502000D01*
X143637000Y-111502000D02*
X143637000Y-111002000D01*
X143637000Y-111002000D02*
X143887000Y-111252000D01*
X141062000Y-112635000D02*
X139862000Y-112635000D01*
X139862000Y-110885000D02*
X141062000Y-110885000D01*
X151609500Y-146445000D02*
X152809500Y-146445000D01*
X152809500Y-148195000D02*
X151609500Y-148195000D01*
X169707000Y-104789000D02*
X170907000Y-104789000D01*
X170907000Y-106539000D02*
X169707000Y-106539000D01*
X169707000Y-107011500D02*
X170907000Y-107011500D01*
X170907000Y-108761500D02*
X169707000Y-108761500D01*
X109375500Y-138860500D02*
X108175500Y-138860500D01*
X108175500Y-137110500D02*
X109375500Y-137110500D01*
X110455000Y-145528000D02*
X109255000Y-145528000D01*
X109255000Y-143778000D02*
X110455000Y-143778000D01*
X125857000Y-109093000D02*
X120777000Y-109093000D01*
X120777000Y-109093000D02*
X120777000Y-104521000D01*
X120777000Y-104521000D02*
X125857000Y-104521000D01*
X125857000Y-104521000D02*
X125857000Y-109093000D01*
X125857000Y-107569000D02*
X125349000Y-107569000D01*
X125349000Y-107569000D02*
X125349000Y-106299000D01*
X125349000Y-106299000D02*
X125857000Y-106299000D01*
X110455000Y-148068000D02*
X109255000Y-148068000D01*
X109255000Y-146318000D02*
X110455000Y-146318000D01*
X106124000Y-142250000D02*
X101424000Y-142250000D01*
X101424000Y-149850000D02*
X106124000Y-149850000D01*
X106124000Y-149850000D02*
X106124000Y-142250000D01*
X118251000Y-144935500D02*
X118251000Y-143735500D01*
X120001000Y-143735500D02*
X120001000Y-144935500D01*
X117773000Y-147986500D02*
X117773000Y-143986500D01*
X112478000Y-149261500D02*
X112478000Y-143986500D01*
X169707000Y-109297500D02*
X170907000Y-109297500D01*
X170907000Y-111047500D02*
X169707000Y-111047500D01*
X159653000Y-106645000D02*
X159653000Y-105445000D01*
X161403000Y-105445000D02*
X161403000Y-106645000D01*
X159555071Y-123213714D02*
X159602690Y-123070857D01*
X159650309Y-123023238D01*
X159745547Y-122975619D01*
X159888404Y-122975619D01*
X159983642Y-123023238D01*
X160031261Y-123070857D01*
X160078880Y-123166095D01*
X160078880Y-123547047D01*
X159078880Y-123547047D01*
X159078880Y-123213714D01*
X159126500Y-123118476D01*
X159174119Y-123070857D01*
X159269357Y-123023238D01*
X159364595Y-123023238D01*
X159459833Y-123070857D01*
X159507452Y-123118476D01*
X159555071Y-123213714D01*
X159555071Y-123547047D01*
X159078880Y-122689904D02*
X159078880Y-122118476D01*
X160078880Y-122404190D02*
X159078880Y-122404190D01*
X160078880Y-121261333D02*
X160078880Y-121832761D01*
X160078880Y-121547047D02*
X159078880Y-121547047D01*
X159221738Y-121642285D01*
X159316976Y-121737523D01*
X159364595Y-121832761D01*
X107148380Y-129603404D02*
X107957904Y-129603404D01*
X108053142Y-129555785D01*
X108100761Y-129508166D01*
X108148380Y-129412928D01*
X108148380Y-129222452D01*
X108100761Y-129127214D01*
X108053142Y-129079595D01*
X107957904Y-129031976D01*
X107148380Y-129031976D01*
X107243619Y-128603404D02*
X107196000Y-128555785D01*
X107148380Y-128460547D01*
X107148380Y-128222452D01*
X107196000Y-128127214D01*
X107243619Y-128079595D01*
X107338857Y-128031976D01*
X107434095Y-128031976D01*
X107576952Y-128079595D01*
X108148380Y-128651023D01*
X108148380Y-128031976D01*
X133627904Y-103068380D02*
X133627904Y-102068380D01*
X134008857Y-102068380D01*
X134104095Y-102116000D01*
X134151714Y-102163619D01*
X134199333Y-102258857D01*
X134199333Y-102401714D01*
X134151714Y-102496952D01*
X134104095Y-102544571D01*
X134008857Y-102592190D01*
X133627904Y-102592190D01*
X134580285Y-102163619D02*
X134627904Y-102116000D01*
X134723142Y-102068380D01*
X134961238Y-102068380D01*
X135056476Y-102116000D01*
X135104095Y-102163619D01*
X135151714Y-102258857D01*
X135151714Y-102354095D01*
X135104095Y-102496952D01*
X134532666Y-103068380D01*
X135151714Y-103068380D01*
X167417380Y-107822904D02*
X168226904Y-107822904D01*
X168322142Y-107775285D01*
X168369761Y-107727666D01*
X168417380Y-107632428D01*
X168417380Y-107441952D01*
X168369761Y-107346714D01*
X168322142Y-107299095D01*
X168226904Y-107251476D01*
X167417380Y-107251476D01*
X167417380Y-106870523D02*
X167417380Y-106251476D01*
X167798333Y-106584809D01*
X167798333Y-106441952D01*
X167845952Y-106346714D01*
X167893571Y-106299095D01*
X167988809Y-106251476D01*
X168226904Y-106251476D01*
X168322142Y-106299095D01*
X168369761Y-106346714D01*
X168417380Y-106441952D01*
X168417380Y-106727666D01*
X168369761Y-106822904D01*
X168322142Y-106870523D01*
X170902333Y-141200142D02*
X170854714Y-141247761D01*
X170711857Y-141295380D01*
X170616619Y-141295380D01*
X170473761Y-141247761D01*
X170378523Y-141152523D01*
X170330904Y-141057285D01*
X170283285Y-140866809D01*
X170283285Y-140723952D01*
X170330904Y-140533476D01*
X170378523Y-140438238D01*
X170473761Y-140343000D01*
X170616619Y-140295380D01*
X170711857Y-140295380D01*
X170854714Y-140343000D01*
X170902333Y-140390619D01*
X171235666Y-140295380D02*
X171902333Y-140295380D01*
X171473761Y-141295380D01*
X134537142Y-146216666D02*
X134584761Y-146264285D01*
X134632380Y-146407142D01*
X134632380Y-146502380D01*
X134584761Y-146645238D01*
X134489523Y-146740476D01*
X134394285Y-146788095D01*
X134203809Y-146835714D01*
X134060952Y-146835714D01*
X133870476Y-146788095D01*
X133775238Y-146740476D01*
X133680000Y-146645238D01*
X133632380Y-146502380D01*
X133632380Y-146407142D01*
X133680000Y-146264285D01*
X133727619Y-146216666D01*
X133632380Y-145883333D02*
X133632380Y-145264285D01*
X134013333Y-145597619D01*
X134013333Y-145454761D01*
X134060952Y-145359523D01*
X134108571Y-145311904D01*
X134203809Y-145264285D01*
X134441904Y-145264285D01*
X134537142Y-145311904D01*
X134584761Y-145359523D01*
X134632380Y-145454761D01*
X134632380Y-145740476D01*
X134584761Y-145835714D01*
X134537142Y-145883333D01*
X115276333Y-137898142D02*
X115228714Y-137945761D01*
X115085857Y-137993380D01*
X114990619Y-137993380D01*
X114847761Y-137945761D01*
X114752523Y-137850523D01*
X114704904Y-137755285D01*
X114657285Y-137564809D01*
X114657285Y-137421952D01*
X114704904Y-137231476D01*
X114752523Y-137136238D01*
X114847761Y-137041000D01*
X114990619Y-136993380D01*
X115085857Y-136993380D01*
X115228714Y-137041000D01*
X115276333Y-137088619D01*
X116181095Y-136993380D02*
X115704904Y-136993380D01*
X115657285Y-137469571D01*
X115704904Y-137421952D01*
X115800142Y-137374333D01*
X116038238Y-137374333D01*
X116133476Y-137421952D01*
X116181095Y-137469571D01*
X116228714Y-137564809D01*
X116228714Y-137802904D01*
X116181095Y-137898142D01*
X116133476Y-137945761D01*
X116038238Y-137993380D01*
X115800142Y-137993380D01*
X115704904Y-137945761D01*
X115657285Y-137898142D01*
X150018761Y-125261619D02*
X149923523Y-125214000D01*
X149828285Y-125118761D01*
X149685428Y-124975904D01*
X149590190Y-124928285D01*
X149494952Y-124928285D01*
X149542571Y-125166380D02*
X149447333Y-125118761D01*
X149352095Y-125023523D01*
X149304476Y-124833047D01*
X149304476Y-124499714D01*
X149352095Y-124309238D01*
X149447333Y-124214000D01*
X149542571Y-124166380D01*
X149733047Y-124166380D01*
X149828285Y-124214000D01*
X149923523Y-124309238D01*
X149971142Y-124499714D01*
X149971142Y-124833047D01*
X149923523Y-125023523D01*
X149828285Y-125118761D01*
X149733047Y-125166380D01*
X149542571Y-125166380D01*
X150923523Y-125166380D02*
X150352095Y-125166380D01*
X150637809Y-125166380D02*
X150637809Y-124166380D01*
X150542571Y-124309238D01*
X150447333Y-124404476D01*
X150352095Y-124452095D01*
X150407809Y-103696380D02*
X150407809Y-102696380D01*
X151455428Y-103601142D02*
X151407809Y-103648761D01*
X151264952Y-103696380D01*
X151169714Y-103696380D01*
X151026857Y-103648761D01*
X150931619Y-103553523D01*
X150884000Y-103458285D01*
X150836380Y-103267809D01*
X150836380Y-103124952D01*
X150884000Y-102934476D01*
X150931619Y-102839238D01*
X151026857Y-102744000D01*
X151169714Y-102696380D01*
X151264952Y-102696380D01*
X151407809Y-102744000D01*
X151455428Y-102791619D01*
X152407809Y-103696380D02*
X151836380Y-103696380D01*
X152122095Y-103696380D02*
X152122095Y-102696380D01*
X152026857Y-102839238D01*
X151931619Y-102934476D01*
X151836380Y-102982095D01*
X122213642Y-146915166D02*
X122261261Y-146962785D01*
X122308880Y-147105642D01*
X122308880Y-147200880D01*
X122261261Y-147343738D01*
X122166023Y-147438976D01*
X122070785Y-147486595D01*
X121880309Y-147534214D01*
X121737452Y-147534214D01*
X121546976Y-147486595D01*
X121451738Y-147438976D01*
X121356500Y-147343738D01*
X121308880Y-147200880D01*
X121308880Y-147105642D01*
X121356500Y-146962785D01*
X121404119Y-146915166D01*
X121404119Y-146534214D02*
X121356500Y-146486595D01*
X121308880Y-146391357D01*
X121308880Y-146153261D01*
X121356500Y-146058023D01*
X121404119Y-146010404D01*
X121499357Y-145962785D01*
X121594595Y-145962785D01*
X121737452Y-146010404D01*
X122308880Y-146581833D01*
X122308880Y-145962785D01*
X129325619Y-108934238D02*
X129278000Y-109029476D01*
X129182761Y-109124714D01*
X129039904Y-109267571D01*
X128992285Y-109362809D01*
X128992285Y-109458047D01*
X129230380Y-109410428D02*
X129182761Y-109505666D01*
X129087523Y-109600904D01*
X128897047Y-109648523D01*
X128563714Y-109648523D01*
X128373238Y-109600904D01*
X128278000Y-109505666D01*
X128230380Y-109410428D01*
X128230380Y-109219952D01*
X128278000Y-109124714D01*
X128373238Y-109029476D01*
X128563714Y-108981857D01*
X128897047Y-108981857D01*
X129087523Y-109029476D01*
X129182761Y-109124714D01*
X129230380Y-109219952D01*
X129230380Y-109410428D01*
X128325619Y-108600904D02*
X128278000Y-108553285D01*
X128230380Y-108458047D01*
X128230380Y-108219952D01*
X128278000Y-108124714D01*
X128325619Y-108077095D01*
X128420857Y-108029476D01*
X128516095Y-108029476D01*
X128658952Y-108077095D01*
X129230380Y-108648523D01*
X129230380Y-108029476D01*
X172807333Y-103798642D02*
X172759714Y-103846261D01*
X172616857Y-103893880D01*
X172521619Y-103893880D01*
X172378761Y-103846261D01*
X172283523Y-103751023D01*
X172235904Y-103655785D01*
X172188285Y-103465309D01*
X172188285Y-103322452D01*
X172235904Y-103131976D01*
X172283523Y-103036738D01*
X172378761Y-102941500D01*
X172521619Y-102893880D01*
X172616857Y-102893880D01*
X172759714Y-102941500D01*
X172807333Y-102989119D01*
X173664476Y-102893880D02*
X173474000Y-102893880D01*
X173378761Y-102941500D01*
X173331142Y-102989119D01*
X173235904Y-103131976D01*
X173188285Y-103322452D01*
X173188285Y-103703404D01*
X173235904Y-103798642D01*
X173283523Y-103846261D01*
X173378761Y-103893880D01*
X173569238Y-103893880D01*
X173664476Y-103846261D01*
X173712095Y-103798642D01*
X173759714Y-103703404D01*
X173759714Y-103465309D01*
X173712095Y-103370071D01*
X173664476Y-103322452D01*
X173569238Y-103274833D01*
X173378761Y-103274833D01*
X173283523Y-103322452D01*
X173235904Y-103370071D01*
X173188285Y-103465309D01*
X143637166Y-141452261D02*
X143780023Y-141499880D01*
X144018119Y-141499880D01*
X144113357Y-141452261D01*
X144160976Y-141404642D01*
X144208595Y-141309404D01*
X144208595Y-141214166D01*
X144160976Y-141118928D01*
X144113357Y-141071309D01*
X144018119Y-141023690D01*
X143827642Y-140976071D01*
X143732404Y-140928452D01*
X143684785Y-140880833D01*
X143637166Y-140785595D01*
X143637166Y-140690357D01*
X143684785Y-140595119D01*
X143732404Y-140547500D01*
X143827642Y-140499880D01*
X144065738Y-140499880D01*
X144208595Y-140547500D01*
X144541928Y-140499880D02*
X144780023Y-141499880D01*
X144970500Y-140785595D01*
X145160976Y-141499880D01*
X145399071Y-140499880D01*
X146303833Y-141499880D02*
X145732404Y-141499880D01*
X146018119Y-141499880D02*
X146018119Y-140499880D01*
X145922880Y-140642738D01*
X145827642Y-140737976D01*
X145732404Y-140785595D01*
X137755333Y-114244380D02*
X137422000Y-113768190D01*
X137183904Y-114244380D02*
X137183904Y-113244380D01*
X137564857Y-113244380D01*
X137660095Y-113292000D01*
X137707714Y-113339619D01*
X137755333Y-113434857D01*
X137755333Y-113577714D01*
X137707714Y-113672952D01*
X137660095Y-113720571D01*
X137564857Y-113768190D01*
X137183904Y-113768190D01*
X138136285Y-113339619D02*
X138183904Y-113292000D01*
X138279142Y-113244380D01*
X138517238Y-113244380D01*
X138612476Y-113292000D01*
X138660095Y-113339619D01*
X138707714Y-113434857D01*
X138707714Y-113530095D01*
X138660095Y-113672952D01*
X138088666Y-114244380D01*
X138707714Y-114244380D01*
X143025904Y-114601380D02*
X143025904Y-113601380D01*
X143264000Y-113601380D01*
X143406857Y-113649000D01*
X143502095Y-113744238D01*
X143549714Y-113839476D01*
X143597333Y-114029952D01*
X143597333Y-114172809D01*
X143549714Y-114363285D01*
X143502095Y-114458523D01*
X143406857Y-114553761D01*
X143264000Y-114601380D01*
X143025904Y-114601380D01*
X143978285Y-113696619D02*
X144025904Y-113649000D01*
X144121142Y-113601380D01*
X144359238Y-113601380D01*
X144454476Y-113649000D01*
X144502095Y-113696619D01*
X144549714Y-113791857D01*
X144549714Y-113887095D01*
X144502095Y-114029952D01*
X143930666Y-114601380D01*
X144549714Y-114601380D01*
X143787904Y-110307380D02*
X143787904Y-109307380D01*
X144026000Y-109307380D01*
X144168857Y-109355000D01*
X144264095Y-109450238D01*
X144311714Y-109545476D01*
X144359333Y-109735952D01*
X144359333Y-109878809D01*
X144311714Y-110069285D01*
X144264095Y-110164523D01*
X144168857Y-110259761D01*
X144026000Y-110307380D01*
X143787904Y-110307380D01*
X145311714Y-110307380D02*
X144740285Y-110307380D01*
X145026000Y-110307380D02*
X145026000Y-109307380D01*
X144930761Y-109450238D01*
X144835523Y-109545476D01*
X144740285Y-109593095D01*
X137691833Y-112212380D02*
X137358500Y-111736190D01*
X137120404Y-112212380D02*
X137120404Y-111212380D01*
X137501357Y-111212380D01*
X137596595Y-111260000D01*
X137644214Y-111307619D01*
X137691833Y-111402857D01*
X137691833Y-111545714D01*
X137644214Y-111640952D01*
X137596595Y-111688571D01*
X137501357Y-111736190D01*
X137120404Y-111736190D01*
X138644214Y-112212380D02*
X138072785Y-112212380D01*
X138358500Y-112212380D02*
X138358500Y-111212380D01*
X138263261Y-111355238D01*
X138168023Y-111450476D01*
X138072785Y-111498095D01*
X152042833Y-149872380D02*
X151709500Y-149396190D01*
X151471404Y-149872380D02*
X151471404Y-148872380D01*
X151852357Y-148872380D01*
X151947595Y-148920000D01*
X151995214Y-148967619D01*
X152042833Y-149062857D01*
X152042833Y-149205714D01*
X151995214Y-149300952D01*
X151947595Y-149348571D01*
X151852357Y-149396190D01*
X151471404Y-149396190D01*
X152947595Y-148872380D02*
X152471404Y-148872380D01*
X152423785Y-149348571D01*
X152471404Y-149300952D01*
X152566642Y-149253333D01*
X152804738Y-149253333D01*
X152899976Y-149300952D01*
X152947595Y-149348571D01*
X152995214Y-149443809D01*
X152995214Y-149681904D01*
X152947595Y-149777142D01*
X152899976Y-149824761D01*
X152804738Y-149872380D01*
X152566642Y-149872380D01*
X152471404Y-149824761D01*
X152423785Y-149777142D01*
X172743833Y-106179880D02*
X172410500Y-105703690D01*
X172172404Y-106179880D02*
X172172404Y-105179880D01*
X172553357Y-105179880D01*
X172648595Y-105227500D01*
X172696214Y-105275119D01*
X172743833Y-105370357D01*
X172743833Y-105513214D01*
X172696214Y-105608452D01*
X172648595Y-105656071D01*
X172553357Y-105703690D01*
X172172404Y-105703690D01*
X173220023Y-106179880D02*
X173410500Y-106179880D01*
X173505738Y-106132261D01*
X173553357Y-106084642D01*
X173648595Y-105941785D01*
X173696214Y-105751309D01*
X173696214Y-105370357D01*
X173648595Y-105275119D01*
X173600976Y-105227500D01*
X173505738Y-105179880D01*
X173315261Y-105179880D01*
X173220023Y-105227500D01*
X173172404Y-105275119D01*
X173124785Y-105370357D01*
X173124785Y-105608452D01*
X173172404Y-105703690D01*
X173220023Y-105751309D01*
X173315261Y-105798928D01*
X173505738Y-105798928D01*
X173600976Y-105751309D01*
X173648595Y-105703690D01*
X173696214Y-105608452D01*
X172743833Y-108402380D02*
X172410500Y-107926190D01*
X172172404Y-108402380D02*
X172172404Y-107402380D01*
X172553357Y-107402380D01*
X172648595Y-107450000D01*
X172696214Y-107497619D01*
X172743833Y-107592857D01*
X172743833Y-107735714D01*
X172696214Y-107830952D01*
X172648595Y-107878571D01*
X172553357Y-107926190D01*
X172172404Y-107926190D01*
X173315261Y-107830952D02*
X173220023Y-107783333D01*
X173172404Y-107735714D01*
X173124785Y-107640476D01*
X173124785Y-107592857D01*
X173172404Y-107497619D01*
X173220023Y-107450000D01*
X173315261Y-107402380D01*
X173505738Y-107402380D01*
X173600976Y-107450000D01*
X173648595Y-107497619D01*
X173696214Y-107592857D01*
X173696214Y-107640476D01*
X173648595Y-107735714D01*
X173600976Y-107783333D01*
X173505738Y-107830952D01*
X173315261Y-107830952D01*
X173220023Y-107878571D01*
X173172404Y-107926190D01*
X173124785Y-108021428D01*
X173124785Y-108211904D01*
X173172404Y-108307142D01*
X173220023Y-108354761D01*
X173315261Y-108402380D01*
X173505738Y-108402380D01*
X173600976Y-108354761D01*
X173648595Y-108307142D01*
X173696214Y-108211904D01*
X173696214Y-108021428D01*
X173648595Y-107926190D01*
X173600976Y-107878571D01*
X173505738Y-107830952D01*
X108672333Y-140406380D02*
X108339000Y-139930190D01*
X108100904Y-140406380D02*
X108100904Y-139406380D01*
X108481857Y-139406380D01*
X108577095Y-139454000D01*
X108624714Y-139501619D01*
X108672333Y-139596857D01*
X108672333Y-139739714D01*
X108624714Y-139834952D01*
X108577095Y-139882571D01*
X108481857Y-139930190D01*
X108100904Y-139930190D01*
X109529476Y-139406380D02*
X109339000Y-139406380D01*
X109243761Y-139454000D01*
X109196142Y-139501619D01*
X109100904Y-139644476D01*
X109053285Y-139834952D01*
X109053285Y-140215904D01*
X109100904Y-140311142D01*
X109148523Y-140358761D01*
X109243761Y-140406380D01*
X109434238Y-140406380D01*
X109529476Y-140358761D01*
X109577095Y-140311142D01*
X109624714Y-140215904D01*
X109624714Y-139977809D01*
X109577095Y-139882571D01*
X109529476Y-139834952D01*
X109434238Y-139787333D01*
X109243761Y-139787333D01*
X109148523Y-139834952D01*
X109100904Y-139882571D01*
X109053285Y-139977809D01*
X110323333Y-143454380D02*
X109990000Y-142978190D01*
X109751904Y-143454380D02*
X109751904Y-142454380D01*
X110132857Y-142454380D01*
X110228095Y-142502000D01*
X110275714Y-142549619D01*
X110323333Y-142644857D01*
X110323333Y-142787714D01*
X110275714Y-142882952D01*
X110228095Y-142930571D01*
X110132857Y-142978190D01*
X109751904Y-142978190D01*
X110656666Y-142454380D02*
X111275714Y-142454380D01*
X110942380Y-142835333D01*
X111085238Y-142835333D01*
X111180476Y-142882952D01*
X111228095Y-142930571D01*
X111275714Y-143025809D01*
X111275714Y-143263904D01*
X111228095Y-143359142D01*
X111180476Y-143406761D01*
X111085238Y-143454380D01*
X110799523Y-143454380D01*
X110704285Y-143406761D01*
X110656666Y-143359142D01*
X120435619Y-106521238D02*
X120388000Y-106616476D01*
X120292761Y-106711714D01*
X120149904Y-106854571D01*
X120102285Y-106949809D01*
X120102285Y-107045047D01*
X120340380Y-106997428D02*
X120292761Y-107092666D01*
X120197523Y-107187904D01*
X120007047Y-107235523D01*
X119673714Y-107235523D01*
X119483238Y-107187904D01*
X119388000Y-107092666D01*
X119340380Y-106997428D01*
X119340380Y-106806952D01*
X119388000Y-106711714D01*
X119483238Y-106616476D01*
X119673714Y-106568857D01*
X120007047Y-106568857D01*
X120197523Y-106616476D01*
X120292761Y-106711714D01*
X120340380Y-106806952D01*
X120340380Y-106997428D01*
X119340380Y-106235523D02*
X119340380Y-105616476D01*
X119721333Y-105949809D01*
X119721333Y-105806952D01*
X119768952Y-105711714D01*
X119816571Y-105664095D01*
X119911809Y-105616476D01*
X120149904Y-105616476D01*
X120245142Y-105664095D01*
X120292761Y-105711714D01*
X120340380Y-105806952D01*
X120340380Y-106092666D01*
X120292761Y-106187904D01*
X120245142Y-106235523D01*
X110069333Y-149296380D02*
X109736000Y-148820190D01*
X109497904Y-149296380D02*
X109497904Y-148296380D01*
X109878857Y-148296380D01*
X109974095Y-148344000D01*
X110021714Y-148391619D01*
X110069333Y-148486857D01*
X110069333Y-148629714D01*
X110021714Y-148724952D01*
X109974095Y-148772571D01*
X109878857Y-148820190D01*
X109497904Y-148820190D01*
X110926476Y-148629714D02*
X110926476Y-149296380D01*
X110688380Y-148248761D02*
X110450285Y-148963047D01*
X111069333Y-148963047D01*
X107767380Y-143613095D02*
X106767380Y-143613095D01*
X106767380Y-143232142D01*
X106815000Y-143136904D01*
X106862619Y-143089285D01*
X106957857Y-143041666D01*
X107100714Y-143041666D01*
X107195952Y-143089285D01*
X107243571Y-143136904D01*
X107291190Y-143232142D01*
X107291190Y-143613095D01*
X107767380Y-142089285D02*
X107767380Y-142660714D01*
X107767380Y-142375000D02*
X106767380Y-142375000D01*
X106910238Y-142470238D01*
X107005476Y-142565476D01*
X107053095Y-142660714D01*
X121134142Y-142914666D02*
X121181761Y-142962285D01*
X121229380Y-143105142D01*
X121229380Y-143200380D01*
X121181761Y-143343238D01*
X121086523Y-143438476D01*
X120991285Y-143486095D01*
X120800809Y-143533714D01*
X120657952Y-143533714D01*
X120467476Y-143486095D01*
X120372238Y-143438476D01*
X120277000Y-143343238D01*
X120229380Y-143200380D01*
X120229380Y-143105142D01*
X120277000Y-142962285D01*
X120324619Y-142914666D01*
X121229380Y-141962285D02*
X121229380Y-142533714D01*
X121229380Y-142248000D02*
X120229380Y-142248000D01*
X120372238Y-142343238D01*
X120467476Y-142438476D01*
X120515095Y-142533714D01*
X118070380Y-149097904D02*
X118879904Y-149097904D01*
X118975142Y-149050285D01*
X119022761Y-149002666D01*
X119070380Y-148907428D01*
X119070380Y-148716952D01*
X119022761Y-148621714D01*
X118975142Y-148574095D01*
X118879904Y-148526476D01*
X118070380Y-148526476D01*
X119070380Y-147526476D02*
X119070380Y-148097904D01*
X119070380Y-147812190D02*
X118070380Y-147812190D01*
X118213238Y-147907428D01*
X118308476Y-148002666D01*
X118356095Y-148097904D01*
X172743833Y-110688380D02*
X172410500Y-110212190D01*
X172172404Y-110688380D02*
X172172404Y-109688380D01*
X172553357Y-109688380D01*
X172648595Y-109736000D01*
X172696214Y-109783619D01*
X172743833Y-109878857D01*
X172743833Y-110021714D01*
X172696214Y-110116952D01*
X172648595Y-110164571D01*
X172553357Y-110212190D01*
X172172404Y-110212190D01*
X173077166Y-109688380D02*
X173743833Y-109688380D01*
X173315261Y-110688380D01*
X159853333Y-104243142D02*
X159805714Y-104290761D01*
X159662857Y-104338380D01*
X159567619Y-104338380D01*
X159424761Y-104290761D01*
X159329523Y-104195523D01*
X159281904Y-104100285D01*
X159234285Y-103909809D01*
X159234285Y-103766952D01*
X159281904Y-103576476D01*
X159329523Y-103481238D01*
X159424761Y-103386000D01*
X159567619Y-103338380D01*
X159662857Y-103338380D01*
X159805714Y-103386000D01*
X159853333Y-103433619D01*
X160710476Y-103671714D02*
X160710476Y-104338380D01*
X160472380Y-103290761D02*
X160234285Y-104005047D01*
X160853333Y-104005047D01*
M02*
