M48
INCH,TZ
T1C0.012
T2C0.016
T3C0.028
%
G90
G05
T1
X4.15Y-4.25
X4.15Y-4.3
X4.15Y-4.35
X4.15Y-4.4
X4.2Y-4.25
X4.2Y-4.3
X4.2Y-4.35
X4.2Y-4.4
X4.46Y-5.705
X4.51Y-5.705
X4.675Y-5.775
X4.7Y-5.95
X4.75Y-5.9
X4.75Y-5.95
X4.8Y-5.85
X4.8Y-5.9
X4.8Y-5.95
X4.85Y-5.85
X4.85Y-5.9
X4.85Y-5.95
X5.25Y-5.8
X5.25Y-5.85
X5.3Y-5.8
X5.3Y-5.85
X5.35Y-5.8
X5.35Y-5.85
X5.4Y-5.8
X5.4Y-5.85
X5.865Y-4.34
X5.865Y-4.39
X5.9Y-5.
X5.9Y-5.05
X5.915Y-4.34
X5.915Y-4.39
X5.95Y-5.
X5.95Y-5.05
X6.25Y-4.3
X6.25Y-4.35
X6.3Y-4.3
X6.3Y-4.35
X6.815Y-4.405
X6.815Y-4.455
X6.85Y-4.2
X6.85Y-4.25
X6.865Y-4.405
X6.865Y-4.455
X6.9Y-4.2
X6.9Y-4.25
T2
X4.2125Y-4.7975
X4.24Y-4.64
X4.265Y-4.6
X4.31Y-4.5675
X4.315Y-5.035
X4.315Y-5.18
X4.335Y-5.11
X4.35Y-4.9
X4.35Y-4.95
X4.36Y-4.825
X4.36Y-5.06
X4.38Y-4.855
X4.39Y-5.21
X4.39Y-5.26
X4.515Y-5.7964
X4.56Y-5.695
X4.565Y-5.795
X4.585Y-4.435
X4.59Y-4.475
X4.59Y-4.69
X4.7175Y-4.6
X4.7175Y-4.9
X4.7175Y-5.2
X4.7175Y-5.5025
X4.73Y-5.685
X4.755Y-5.645
X4.785Y-5.665
X4.95Y-5.5
X4.9525Y-4.9
X4.9525Y-5.2
X4.985Y-5.56
X5.015Y-5.585
X5.2Y-4.28
X5.24Y-4.295
X5.45Y-4.6
X5.45Y-4.9
X5.45Y-5.2
X5.45Y-5.5
X5.5199Y-4.5201
X5.53Y-5.74
X5.675Y-4.24
X5.68Y-4.485
X5.685Y-4.195
X5.7Y-4.445
X5.7604Y-4.9
X5.7604Y-5.2
X5.7862Y-5.4988
X5.845Y-4.46
X5.945Y-4.175
X5.9725Y-4.1025
X5.98Y-4.34
X6.0075Y-4.38
X6.04Y-4.66
X6.0725Y-4.385
X6.225Y-4.53
X6.2543Y-5.5
X6.255Y-4.9
X6.255Y-5.2
X6.3Y-5.13
X6.33Y-4.035
X6.415Y-4.03
X6.594Y-5.2515
X6.594Y-5.4685
T3
X4.0832Y-5.6219G85X4.0368Y-5.6219
G05
X4.0832Y-5.8781G85X4.0368Y-5.8781
G05
T0
M30
