G04 #@! TF.FileFunction,Paste,Top*
%FSLAX46Y46*%
G04 Gerber Fmt 4.6, Leading zero omitted, Abs format (unit mm)*
G04 Created by KiCad (PCBNEW (2016-05-05 BZR 6775)-product) date Tuesday, July 05, 2016 'PMt' 09:19:01 PM*
%MOMM*%
%LPD*%
G01*
G04 APERTURE LIST*
%ADD10C,0.100000*%
%ADD11R,2.000000X0.600000*%
%ADD12R,3.800000X2.000000*%
%ADD13R,1.300000X0.700000*%
%ADD14R,0.700000X1.300000*%
%ADD15R,0.400000X1.200000*%
%ADD16R,1.350000X0.400000*%
%ADD17R,1.400000X1.600000*%
%ADD18R,1.900000X1.900000*%
%ADD19R,0.508000X1.143000*%
%ADD20R,0.797560X0.797560*%
%ADD21R,1.550000X1.300000*%
%ADD22R,1.600200X3.599180*%
%ADD23R,1.950000X0.600000*%
%ADD24R,1.143000X0.508000*%
%ADD25R,3.599180X1.600200*%
%ADD26R,0.600000X1.550000*%
%ADD27R,4.000000X4.000000*%
%ADD28R,3.600000X3.500000*%
%ADD29R,3.680000X1.270000*%
G04 APERTURE END LIST*
D10*
D11*
X113666000Y-135763000D03*
X113666000Y-134493000D03*
X113666000Y-133223000D03*
X113666000Y-131953000D03*
X113666000Y-130683000D03*
X113666000Y-129413000D03*
X113666000Y-128143000D03*
X113666000Y-126873000D03*
X113666000Y-125603000D03*
X113666000Y-124333000D03*
X113666000Y-123063000D03*
X113666000Y-121793000D03*
X104266000Y-121793000D03*
X104266000Y-123063000D03*
X104266000Y-124333000D03*
X104266000Y-125603000D03*
X104266000Y-126873000D03*
X104266000Y-128143000D03*
X104266000Y-129413000D03*
X104266000Y-130683000D03*
X104266000Y-131953000D03*
X104266000Y-133223000D03*
X104266000Y-134493000D03*
X104266000Y-135763000D03*
D12*
X173482000Y-112776000D03*
X106680000Y-113030000D03*
D13*
X160528000Y-105095000D03*
X160528000Y-106995000D03*
D14*
X171257000Y-110172500D03*
X169357000Y-110172500D03*
D15*
X112903000Y-148586500D03*
X113538000Y-148586500D03*
X114173000Y-148586500D03*
X114808000Y-148586500D03*
X115443000Y-148586500D03*
X116078000Y-148586500D03*
X116713000Y-148586500D03*
X117348000Y-148586500D03*
X117348000Y-143386500D03*
X116713000Y-143386500D03*
X116078000Y-143386500D03*
X115443000Y-143386500D03*
X114808000Y-143386500D03*
X114173000Y-143386500D03*
X113538000Y-143386500D03*
X112903000Y-143386500D03*
D13*
X119126000Y-143385500D03*
X119126000Y-145285500D03*
D16*
X105799000Y-147350000D03*
X105799000Y-146700000D03*
X105799000Y-144750000D03*
X105799000Y-145400000D03*
D17*
X105574000Y-142850000D03*
D18*
X103124000Y-144850000D03*
X103124000Y-147250000D03*
D17*
X105574000Y-149250000D03*
D16*
X105799000Y-146050000D03*
D14*
X108905000Y-146939000D03*
X110805000Y-146939000D03*
D19*
X125222000Y-109982000D03*
X123952000Y-109982000D03*
X122682000Y-109982000D03*
X121412000Y-109982000D03*
X121412000Y-103632000D03*
X122682000Y-103632000D03*
X123952000Y-103632000D03*
X125222000Y-103632000D03*
D14*
X108905000Y-144907000D03*
X110805000Y-144907000D03*
X107825500Y-137985500D03*
X109725500Y-137985500D03*
X171257000Y-107886500D03*
X169357000Y-107886500D03*
X171257000Y-105664000D03*
X169357000Y-105664000D03*
X153159500Y-147320000D03*
X151259500Y-147320000D03*
X139512000Y-111760000D03*
X141412000Y-111760000D03*
D20*
X142887700Y-111252000D03*
X144386300Y-111252000D03*
X142824200Y-112649000D03*
X144322800Y-112649000D03*
D14*
X139575500Y-113792000D03*
X141475500Y-113792000D03*
D21*
X140995500Y-147347500D03*
X140995500Y-142847500D03*
X148945500Y-142847500D03*
X148945500Y-147347500D03*
D14*
X169357000Y-103441500D03*
X171257000Y-103441500D03*
D22*
X125793500Y-143997680D03*
X125793500Y-149499320D03*
D23*
X146684000Y-105029000D03*
X146684000Y-106299000D03*
X146684000Y-107569000D03*
X146684000Y-108839000D03*
X146684000Y-110109000D03*
X146684000Y-111379000D03*
X146684000Y-112649000D03*
X146684000Y-113919000D03*
X146684000Y-115189000D03*
X146684000Y-116459000D03*
X156084000Y-116459000D03*
X156084000Y-115189000D03*
X156084000Y-113919000D03*
X156084000Y-112649000D03*
X156084000Y-111379000D03*
X156084000Y-110109000D03*
X156084000Y-108839000D03*
X156084000Y-107569000D03*
X156084000Y-106299000D03*
X156084000Y-105029000D03*
D24*
X151066500Y-119253000D03*
X151066500Y-120523000D03*
X151066500Y-121793000D03*
X151066500Y-123063000D03*
X144716500Y-123063000D03*
X144716500Y-121793000D03*
X144716500Y-120523000D03*
X144716500Y-119253000D03*
D14*
X111826000Y-137795000D03*
X113726000Y-137795000D03*
D13*
X132080000Y-145100000D03*
X132080000Y-147000000D03*
D25*
X168318180Y-136906000D03*
X173819820Y-136906000D03*
D26*
X166370000Y-104361000D03*
X165100000Y-104361000D03*
X163830000Y-104361000D03*
X162560000Y-104361000D03*
X162560000Y-109761000D03*
X163830000Y-109761000D03*
X165100000Y-109761000D03*
X166370000Y-109761000D03*
D27*
X167576500Y-122428000D03*
D28*
X167576500Y-130178000D03*
X167576500Y-114678000D03*
D19*
X134048500Y-111569500D03*
X132778500Y-111569500D03*
X131508500Y-111569500D03*
X130238500Y-111569500D03*
X130238500Y-105219500D03*
X131508500Y-105219500D03*
X132778500Y-105219500D03*
X134048500Y-105219500D03*
D29*
X141727000Y-103886000D03*
X141727000Y-106426000D03*
X141727000Y-108966000D03*
X137287000Y-108966000D03*
X137287000Y-106426000D03*
X137287000Y-103886000D03*
M02*
