G04 #@! TF.FileFunction,Paste,Bot*
%FSLAX46Y46*%
G04 Gerber Fmt 4.6, Leading zero omitted, Abs format (unit mm)*
G04 Created by KiCad (PCBNEW (2016-05-05 BZR 6775)-product) date Tuesday, July 05, 2016 'PMt' 09:19:01 PM*
%MOMM*%
%LPD*%
G01*
G04 APERTURE LIST*
%ADD10C,0.100000*%
%ADD11R,0.800000X0.450000*%
G04 APERTURE END LIST*
D10*
D11*
X157410000Y-140500000D03*
X157410000Y-139700000D03*
X157410000Y-138900000D03*
X155010000Y-140500000D03*
X155010000Y-139700000D03*
X155010000Y-138900000D03*
X157410000Y-132880000D03*
X157410000Y-132080000D03*
X157410000Y-131280000D03*
X155010000Y-132880000D03*
X155010000Y-132080000D03*
X155010000Y-131280000D03*
X157410000Y-125260000D03*
X157410000Y-124460000D03*
X157410000Y-123660000D03*
X155010000Y-125260000D03*
X155010000Y-124460000D03*
X155010000Y-123660000D03*
X157410000Y-117640000D03*
X157410000Y-116840000D03*
X157410000Y-116040000D03*
X155010000Y-117640000D03*
X155010000Y-116840000D03*
X155010000Y-116040000D03*
X166300000Y-140500000D03*
X166300000Y-139700000D03*
X166300000Y-138900000D03*
X163900000Y-140500000D03*
X163900000Y-139700000D03*
X163900000Y-138900000D03*
X166300000Y-132880000D03*
X166300000Y-132080000D03*
X166300000Y-131280000D03*
X163900000Y-132880000D03*
X163900000Y-132080000D03*
X163900000Y-131280000D03*
X137090000Y-140500000D03*
X137090000Y-139700000D03*
X137090000Y-138900000D03*
X134690000Y-140500000D03*
X134690000Y-139700000D03*
X134690000Y-138900000D03*
X137090000Y-132880000D03*
X137090000Y-132080000D03*
X137090000Y-131280000D03*
X134690000Y-132880000D03*
X134690000Y-132080000D03*
X134690000Y-131280000D03*
X137090000Y-125260000D03*
X137090000Y-124460000D03*
X137090000Y-123660000D03*
X134690000Y-125260000D03*
X134690000Y-124460000D03*
X134690000Y-123660000D03*
X145980000Y-140500000D03*
X145980000Y-139700000D03*
X145980000Y-138900000D03*
X143580000Y-140500000D03*
X143580000Y-139700000D03*
X143580000Y-138900000D03*
X145980000Y-132880000D03*
X145980000Y-132080000D03*
X145980000Y-131280000D03*
X143580000Y-132880000D03*
X143580000Y-132080000D03*
X143580000Y-131280000D03*
X145980000Y-125260000D03*
X145980000Y-124460000D03*
X145980000Y-123660000D03*
X143580000Y-125260000D03*
X143580000Y-124460000D03*
X143580000Y-123660000D03*
X115500000Y-140500000D03*
X115500000Y-139700000D03*
X115500000Y-138900000D03*
X113100000Y-140500000D03*
X113100000Y-139700000D03*
X113100000Y-138900000D03*
X115500000Y-132880000D03*
X115500000Y-132080000D03*
X115500000Y-131280000D03*
X113100000Y-132880000D03*
X113100000Y-132080000D03*
X113100000Y-131280000D03*
X115500000Y-125260000D03*
X115500000Y-124460000D03*
X115500000Y-123660000D03*
X113100000Y-125260000D03*
X113100000Y-124460000D03*
X113100000Y-123660000D03*
X115500000Y-117640000D03*
X115500000Y-116840000D03*
X115500000Y-116040000D03*
X113100000Y-117640000D03*
X113100000Y-116840000D03*
X113100000Y-116040000D03*
X124390000Y-140500000D03*
X124390000Y-139700000D03*
X124390000Y-138900000D03*
X121990000Y-140500000D03*
X121990000Y-139700000D03*
X121990000Y-138900000D03*
X124390000Y-132880000D03*
X124390000Y-132080000D03*
X124390000Y-131280000D03*
X121990000Y-132880000D03*
X121990000Y-132080000D03*
X121990000Y-131280000D03*
X124390000Y-125260000D03*
X124390000Y-124460000D03*
X124390000Y-123660000D03*
X121990000Y-125260000D03*
X121990000Y-124460000D03*
X121990000Y-123660000D03*
X137090000Y-117640000D03*
X137090000Y-116840000D03*
X137090000Y-116040000D03*
X134690000Y-117640000D03*
X134690000Y-116840000D03*
X134690000Y-116040000D03*
M02*
