G04 #@! TF.FileFunction,Legend,Top*
%FSLAX46Y46*%
G04 Gerber Fmt 4.6, Leading zero omitted, Abs format (unit mm)*
G04 Created by KiCad (PCBNEW (2016-05-05 BZR 6775)-product) date Tuesday, July 05, 2016 'PMt' 09:19:01 PM*
%MOMM*%
%LPD*%
G01*
G04 APERTURE LIST*
%ADD10C,0.100000*%
%ADD11C,0.125000*%
%ADD12C,0.250000*%
%ADD13C,0.200000*%
%ADD14C,0.150000*%
G04 APERTURE END LIST*
D10*
D11*
X175379142Y-106969714D02*
X175760095Y-106969714D01*
X175569619Y-107160190D02*
X175569619Y-106779238D01*
X176236285Y-106660190D02*
X175998190Y-106660190D01*
X175974380Y-106898285D01*
X175998190Y-106874476D01*
X176045809Y-106850666D01*
X176164857Y-106850666D01*
X176212476Y-106874476D01*
X176236285Y-106898285D01*
X176260095Y-106945904D01*
X176260095Y-107064952D01*
X176236285Y-107112571D01*
X176212476Y-107136380D01*
X176164857Y-107160190D01*
X176045809Y-107160190D01*
X175998190Y-107136380D01*
X175974380Y-107112571D01*
X176402952Y-106660190D02*
X176569619Y-107160190D01*
X176736285Y-106660190D01*
D12*
X172720095Y-114308000D02*
X172624857Y-114260380D01*
X172482000Y-114260380D01*
X172339142Y-114308000D01*
X172243904Y-114403238D01*
X172196285Y-114498476D01*
X172148666Y-114688952D01*
X172148666Y-114831809D01*
X172196285Y-115022285D01*
X172243904Y-115117523D01*
X172339142Y-115212761D01*
X172482000Y-115260380D01*
X172577238Y-115260380D01*
X172720095Y-115212761D01*
X172767714Y-115165142D01*
X172767714Y-114831809D01*
X172577238Y-114831809D01*
X173196285Y-115260380D02*
X173196285Y-114260380D01*
X173767714Y-115260380D01*
X173767714Y-114260380D01*
X174243904Y-115260380D02*
X174243904Y-114260380D01*
X174482000Y-114260380D01*
X174624857Y-114308000D01*
X174720095Y-114403238D01*
X174767714Y-114498476D01*
X174815333Y-114688952D01*
X174815333Y-114831809D01*
X174767714Y-115022285D01*
X174720095Y-115117523D01*
X174624857Y-115212761D01*
X174482000Y-115260380D01*
X174243904Y-115260380D01*
D11*
X102735142Y-139227714D02*
X103116095Y-139227714D01*
X102925619Y-139418190D02*
X102925619Y-139037238D01*
X103592285Y-138918190D02*
X103354190Y-138918190D01*
X103330380Y-139156285D01*
X103354190Y-139132476D01*
X103401809Y-139108666D01*
X103520857Y-139108666D01*
X103568476Y-139132476D01*
X103592285Y-139156285D01*
X103616095Y-139203904D01*
X103616095Y-139322952D01*
X103592285Y-139370571D01*
X103568476Y-139394380D01*
X103520857Y-139418190D01*
X103401809Y-139418190D01*
X103354190Y-139394380D01*
X103330380Y-139370571D01*
X103758952Y-138918190D02*
X103925619Y-139418190D01*
X104092285Y-138918190D01*
X113359523Y-119098190D02*
X113121428Y-119098190D01*
X113121428Y-118598190D01*
X113526190Y-118836285D02*
X113692857Y-118836285D01*
X113764285Y-119098190D02*
X113526190Y-119098190D01*
X113526190Y-118598190D01*
X113764285Y-118598190D01*
X113978571Y-119098190D02*
X113978571Y-118598190D01*
X114097619Y-118598190D01*
X114169047Y-118622000D01*
X114216666Y-118669619D01*
X114240476Y-118717238D01*
X114264285Y-118812476D01*
X114264285Y-118883904D01*
X114240476Y-118979142D01*
X114216666Y-119026761D01*
X114169047Y-119074380D01*
X114097619Y-119098190D01*
X113978571Y-119098190D01*
X115097619Y-119098190D02*
X114859523Y-119098190D01*
X114859523Y-118598190D01*
X115264285Y-118836285D02*
X115430952Y-118836285D01*
X115502380Y-119098190D02*
X115264285Y-119098190D01*
X115264285Y-118598190D01*
X115502380Y-118598190D01*
X124007714Y-115034190D02*
X123769619Y-115034190D01*
X123769619Y-114534190D01*
X124174380Y-114772285D02*
X124341047Y-114772285D01*
X124412476Y-115034190D02*
X124174380Y-115034190D01*
X124174380Y-114534190D01*
X124412476Y-114534190D01*
X124626761Y-115034190D02*
X124626761Y-114534190D01*
X124745809Y-114534190D01*
X124817238Y-114558000D01*
X124864857Y-114605619D01*
X124888666Y-114653238D01*
X124912476Y-114748476D01*
X124912476Y-114819904D01*
X124888666Y-114915142D01*
X124864857Y-114962761D01*
X124817238Y-115010380D01*
X124745809Y-115034190D01*
X124626761Y-115034190D01*
X125793428Y-114986571D02*
X125769619Y-115010380D01*
X125698190Y-115034190D01*
X125650571Y-115034190D01*
X125579142Y-115010380D01*
X125531523Y-114962761D01*
X125507714Y-114915142D01*
X125483904Y-114819904D01*
X125483904Y-114748476D01*
X125507714Y-114653238D01*
X125531523Y-114605619D01*
X125579142Y-114558000D01*
X125650571Y-114534190D01*
X125698190Y-114534190D01*
X125769619Y-114558000D01*
X125793428Y-114581809D01*
X126245809Y-115034190D02*
X126007714Y-115034190D01*
X126007714Y-114534190D01*
X126412476Y-115034190D02*
X126412476Y-114534190D01*
X126698190Y-115034190D02*
X126483904Y-114748476D01*
X126698190Y-114534190D02*
X126412476Y-114819904D01*
X116990952Y-110716190D02*
X116752857Y-110716190D01*
X116752857Y-110216190D01*
X117157619Y-110454285D02*
X117324285Y-110454285D01*
X117395714Y-110716190D02*
X117157619Y-110716190D01*
X117157619Y-110216190D01*
X117395714Y-110216190D01*
X117610000Y-110716190D02*
X117610000Y-110216190D01*
X117729047Y-110216190D01*
X117800476Y-110240000D01*
X117848095Y-110287619D01*
X117871904Y-110335238D01*
X117895714Y-110430476D01*
X117895714Y-110501904D01*
X117871904Y-110597142D01*
X117848095Y-110644761D01*
X117800476Y-110692380D01*
X117729047Y-110716190D01*
X117610000Y-110716190D01*
X118467142Y-110692380D02*
X118538571Y-110716190D01*
X118657619Y-110716190D01*
X118705238Y-110692380D01*
X118729047Y-110668571D01*
X118752857Y-110620952D01*
X118752857Y-110573333D01*
X118729047Y-110525714D01*
X118705238Y-110501904D01*
X118657619Y-110478095D01*
X118562380Y-110454285D01*
X118514761Y-110430476D01*
X118490952Y-110406666D01*
X118467142Y-110359047D01*
X118467142Y-110311428D01*
X118490952Y-110263809D01*
X118514761Y-110240000D01*
X118562380Y-110216190D01*
X118681428Y-110216190D01*
X118752857Y-110240000D01*
X118967142Y-110716190D02*
X118967142Y-110216190D01*
X119086190Y-110216190D01*
X119157619Y-110240000D01*
X119205238Y-110287619D01*
X119229047Y-110335238D01*
X119252857Y-110430476D01*
X119252857Y-110501904D01*
X119229047Y-110597142D01*
X119205238Y-110644761D01*
X119157619Y-110692380D01*
X119086190Y-110716190D01*
X118967142Y-110716190D01*
X119467142Y-110716190D02*
X119467142Y-110216190D01*
D12*
X109728095Y-110752000D02*
X109632857Y-110704380D01*
X109490000Y-110704380D01*
X109347142Y-110752000D01*
X109251904Y-110847238D01*
X109204285Y-110942476D01*
X109156666Y-111132952D01*
X109156666Y-111275809D01*
X109204285Y-111466285D01*
X109251904Y-111561523D01*
X109347142Y-111656761D01*
X109490000Y-111704380D01*
X109585238Y-111704380D01*
X109728095Y-111656761D01*
X109775714Y-111609142D01*
X109775714Y-111275809D01*
X109585238Y-111275809D01*
X110204285Y-111704380D02*
X110204285Y-110704380D01*
X110775714Y-111704380D01*
X110775714Y-110704380D01*
X111251904Y-111704380D02*
X111251904Y-110704380D01*
X111490000Y-110704380D01*
X111632857Y-110752000D01*
X111728095Y-110847238D01*
X111775714Y-110942476D01*
X111823333Y-111132952D01*
X111823333Y-111275809D01*
X111775714Y-111466285D01*
X111728095Y-111561523D01*
X111632857Y-111656761D01*
X111490000Y-111704380D01*
X111251904Y-111704380D01*
D11*
X105419419Y-106665500D02*
X105727619Y-106665500D01*
X105680000Y-107414190D02*
X105441904Y-107414190D01*
X105441904Y-106914190D01*
X105727619Y-106665500D02*
X106180000Y-106665500D01*
X105846666Y-107152285D02*
X106013333Y-107152285D01*
X106084761Y-107414190D02*
X105846666Y-107414190D01*
X105846666Y-106914190D01*
X106084761Y-106914190D01*
X106180000Y-106665500D02*
X106680000Y-106665500D01*
X106299047Y-107414190D02*
X106299047Y-106914190D01*
X106418095Y-106914190D01*
X106489523Y-106938000D01*
X106537142Y-106985619D01*
X106560952Y-107033238D01*
X106584761Y-107128476D01*
X106584761Y-107199904D01*
X106560952Y-107295142D01*
X106537142Y-107342761D01*
X106489523Y-107390380D01*
X106418095Y-107414190D01*
X106299047Y-107414190D01*
X106680000Y-106665500D02*
X107060952Y-106665500D01*
X107060952Y-106665500D02*
X107584761Y-106665500D01*
X107275238Y-106914190D02*
X107370476Y-106914190D01*
X107418095Y-106938000D01*
X107465714Y-106985619D01*
X107489523Y-107080857D01*
X107489523Y-107247523D01*
X107465714Y-107342761D01*
X107418095Y-107390380D01*
X107370476Y-107414190D01*
X107275238Y-107414190D01*
X107227619Y-107390380D01*
X107180000Y-107342761D01*
X107156190Y-107247523D01*
X107156190Y-107080857D01*
X107180000Y-106985619D01*
X107227619Y-106938000D01*
X107275238Y-106914190D01*
X107584761Y-106665500D02*
X108037142Y-106665500D01*
X107703809Y-107152285D02*
X107870476Y-107152285D01*
X107941904Y-107414190D02*
X107703809Y-107414190D01*
X107703809Y-106914190D01*
X107941904Y-106914190D01*
X140073142Y-116875714D02*
X140454095Y-116875714D01*
X140263619Y-117066190D02*
X140263619Y-116685238D01*
X140930285Y-116566190D02*
X140692190Y-116566190D01*
X140668380Y-116804285D01*
X140692190Y-116780476D01*
X140739809Y-116756666D01*
X140858857Y-116756666D01*
X140906476Y-116780476D01*
X140930285Y-116804285D01*
X140954095Y-116851904D01*
X140954095Y-116970952D01*
X140930285Y-117018571D01*
X140906476Y-117042380D01*
X140858857Y-117066190D01*
X140739809Y-117066190D01*
X140692190Y-117042380D01*
X140668380Y-117018571D01*
X141096952Y-116566190D02*
X141263619Y-117066190D01*
X141430285Y-116566190D01*
X137330761Y-118312380D02*
X137402190Y-118336190D01*
X137521238Y-118336190D01*
X137568857Y-118312380D01*
X137592666Y-118288571D01*
X137616476Y-118240952D01*
X137616476Y-118193333D01*
X137592666Y-118145714D01*
X137568857Y-118121904D01*
X137521238Y-118098095D01*
X137426000Y-118074285D01*
X137378380Y-118050476D01*
X137354571Y-118026666D01*
X137330761Y-117979047D01*
X137330761Y-117931428D01*
X137354571Y-117883809D01*
X137378380Y-117860000D01*
X137426000Y-117836190D01*
X137545047Y-117836190D01*
X137616476Y-117860000D01*
X138116476Y-118288571D02*
X138092666Y-118312380D01*
X138021238Y-118336190D01*
X137973619Y-118336190D01*
X137902190Y-118312380D01*
X137854571Y-118264761D01*
X137830761Y-118217142D01*
X137806952Y-118121904D01*
X137806952Y-118050476D01*
X137830761Y-117955238D01*
X137854571Y-117907619D01*
X137902190Y-117860000D01*
X137973619Y-117836190D01*
X138021238Y-117836190D01*
X138092666Y-117860000D01*
X138116476Y-117883809D01*
X138568857Y-118336190D02*
X138330761Y-118336190D01*
X138330761Y-117836190D01*
X138735523Y-118336190D02*
X138735523Y-117836190D01*
X139021238Y-118336190D02*
X138806952Y-118050476D01*
X139021238Y-117836190D02*
X138735523Y-118121904D01*
X139930285Y-118336190D02*
X139930285Y-117836190D01*
X140096952Y-118193333D01*
X140263619Y-117836190D01*
X140263619Y-118336190D01*
X140596952Y-117836190D02*
X140692190Y-117836190D01*
X140739809Y-117860000D01*
X140787428Y-117907619D01*
X140811238Y-118002857D01*
X140811238Y-118169523D01*
X140787428Y-118264761D01*
X140739809Y-118312380D01*
X140692190Y-118336190D01*
X140596952Y-118336190D01*
X140549333Y-118312380D01*
X140501714Y-118264761D01*
X140477904Y-118169523D01*
X140477904Y-118002857D01*
X140501714Y-117907619D01*
X140549333Y-117860000D01*
X140596952Y-117836190D01*
X141001714Y-118312380D02*
X141073142Y-118336190D01*
X141192190Y-118336190D01*
X141239809Y-118312380D01*
X141263619Y-118288571D01*
X141287428Y-118240952D01*
X141287428Y-118193333D01*
X141263619Y-118145714D01*
X141239809Y-118121904D01*
X141192190Y-118098095D01*
X141096952Y-118074285D01*
X141049333Y-118050476D01*
X141025523Y-118026666D01*
X141001714Y-117979047D01*
X141001714Y-117931428D01*
X141025523Y-117883809D01*
X141049333Y-117860000D01*
X141096952Y-117836190D01*
X141216000Y-117836190D01*
X141287428Y-117860000D01*
X141501714Y-118336190D02*
X141501714Y-117836190D01*
X137593991Y-118857500D02*
X137997428Y-118857500D01*
X137902190Y-119606190D02*
X137735523Y-119368095D01*
X137616476Y-119606190D02*
X137616476Y-119106190D01*
X137806952Y-119106190D01*
X137854571Y-119130000D01*
X137878380Y-119153809D01*
X137902190Y-119201428D01*
X137902190Y-119272857D01*
X137878380Y-119320476D01*
X137854571Y-119344285D01*
X137806952Y-119368095D01*
X137616476Y-119368095D01*
X137997428Y-118857500D02*
X138473619Y-118857500D01*
X138092666Y-119582380D02*
X138164095Y-119606190D01*
X138283142Y-119606190D01*
X138330761Y-119582380D01*
X138354571Y-119558571D01*
X138378380Y-119510952D01*
X138378380Y-119463333D01*
X138354571Y-119415714D01*
X138330761Y-119391904D01*
X138283142Y-119368095D01*
X138187904Y-119344285D01*
X138140285Y-119320476D01*
X138116476Y-119296666D01*
X138092666Y-119249047D01*
X138092666Y-119201428D01*
X138116476Y-119153809D01*
X138140285Y-119130000D01*
X138187904Y-119106190D01*
X138306952Y-119106190D01*
X138378380Y-119130000D01*
X138473619Y-118857500D02*
X138854571Y-118857500D01*
X138521238Y-119106190D02*
X138806952Y-119106190D01*
X138664095Y-119606190D02*
X138664095Y-119106190D01*
X140335047Y-119130000D02*
X140287428Y-119106190D01*
X140216000Y-119106190D01*
X140144571Y-119130000D01*
X140096952Y-119177619D01*
X140073142Y-119225238D01*
X140049333Y-119320476D01*
X140049333Y-119391904D01*
X140073142Y-119487142D01*
X140096952Y-119534761D01*
X140144571Y-119582380D01*
X140216000Y-119606190D01*
X140263619Y-119606190D01*
X140335047Y-119582380D01*
X140358857Y-119558571D01*
X140358857Y-119391904D01*
X140263619Y-119391904D01*
X140573142Y-119606190D02*
X140573142Y-119106190D01*
X140858857Y-119606190D01*
X140858857Y-119106190D01*
X141096952Y-119606190D02*
X141096952Y-119106190D01*
X141216000Y-119106190D01*
X141287428Y-119130000D01*
X141335047Y-119177619D01*
X141358857Y-119225238D01*
X141382666Y-119320476D01*
X141382666Y-119391904D01*
X141358857Y-119487142D01*
X141335047Y-119534761D01*
X141287428Y-119582380D01*
X141216000Y-119606190D01*
X141096952Y-119606190D01*
X137390285Y-117066190D02*
X137390285Y-116566190D01*
X137556952Y-116923333D01*
X137723619Y-116566190D01*
X137723619Y-117066190D01*
X137961714Y-117066190D02*
X137961714Y-116566190D01*
X138176000Y-117042380D02*
X138247428Y-117066190D01*
X138366476Y-117066190D01*
X138414095Y-117042380D01*
X138437904Y-117018571D01*
X138461714Y-116970952D01*
X138461714Y-116923333D01*
X138437904Y-116875714D01*
X138414095Y-116851904D01*
X138366476Y-116828095D01*
X138271238Y-116804285D01*
X138223619Y-116780476D01*
X138199809Y-116756666D01*
X138176000Y-116709047D01*
X138176000Y-116661428D01*
X138199809Y-116613809D01*
X138223619Y-116590000D01*
X138271238Y-116566190D01*
X138390285Y-116566190D01*
X138461714Y-116590000D01*
X138771238Y-116566190D02*
X138866476Y-116566190D01*
X138914095Y-116590000D01*
X138961714Y-116637619D01*
X138985523Y-116732857D01*
X138985523Y-116899523D01*
X138961714Y-116994761D01*
X138914095Y-117042380D01*
X138866476Y-117066190D01*
X138771238Y-117066190D01*
X138723619Y-117042380D01*
X138676000Y-116994761D01*
X138652190Y-116899523D01*
X138652190Y-116732857D01*
X138676000Y-116637619D01*
X138723619Y-116590000D01*
X138771238Y-116566190D01*
D13*
X136906000Y-117348000D02*
X141986000Y-117348000D01*
X136906000Y-118618000D02*
X141986000Y-118618000D01*
X139446000Y-116078000D02*
X139446000Y-119888000D01*
X136906000Y-116078000D02*
X141986000Y-116078000D01*
X136906000Y-119888000D02*
X136906000Y-116078000D01*
X141986000Y-119888000D02*
X136906000Y-119888000D01*
X141986000Y-116078000D02*
X141986000Y-119888000D01*
D14*
X112841000Y-136653000D02*
X112841000Y-136288000D01*
X105091000Y-136653000D02*
X105091000Y-136288000D01*
X105091000Y-120903000D02*
X105091000Y-121268000D01*
X112841000Y-120903000D02*
X112841000Y-121268000D01*
X112841000Y-136653000D02*
X105091000Y-136653000D01*
X112841000Y-120903000D02*
X105091000Y-120903000D01*
X112841000Y-136288000D02*
X114666000Y-136288000D01*
X171382000Y-111576000D02*
X175582000Y-111576000D01*
X175582000Y-111576000D02*
X175582000Y-113976000D01*
X175582000Y-113976000D02*
X171382000Y-113976000D01*
X171382000Y-113976000D02*
X171382000Y-111576000D01*
X104580000Y-111830000D02*
X108780000Y-111830000D01*
X108780000Y-111830000D02*
X108780000Y-114230000D01*
X108780000Y-114230000D02*
X104580000Y-114230000D01*
X104580000Y-114230000D02*
X104580000Y-111830000D01*
X159653000Y-106645000D02*
X159653000Y-105445000D01*
X161403000Y-105445000D02*
X161403000Y-106645000D01*
X169707000Y-109297500D02*
X170907000Y-109297500D01*
X170907000Y-111047500D02*
X169707000Y-111047500D01*
X117773000Y-147986500D02*
X117773000Y-143986500D01*
X112478000Y-149261500D02*
X112478000Y-143986500D01*
X118251000Y-144935500D02*
X118251000Y-143735500D01*
X120001000Y-143735500D02*
X120001000Y-144935500D01*
X106124000Y-142250000D02*
X101424000Y-142250000D01*
X101424000Y-149850000D02*
X106124000Y-149850000D01*
X106124000Y-149850000D02*
X106124000Y-142250000D01*
X110455000Y-147814000D02*
X109255000Y-147814000D01*
X109255000Y-146064000D02*
X110455000Y-146064000D01*
X125857000Y-109093000D02*
X120777000Y-109093000D01*
X120777000Y-109093000D02*
X120777000Y-104521000D01*
X120777000Y-104521000D02*
X125857000Y-104521000D01*
X125857000Y-104521000D02*
X125857000Y-109093000D01*
X125857000Y-107569000D02*
X125349000Y-107569000D01*
X125349000Y-107569000D02*
X125349000Y-106299000D01*
X125349000Y-106299000D02*
X125857000Y-106299000D01*
X110455000Y-145782000D02*
X109255000Y-145782000D01*
X109255000Y-144032000D02*
X110455000Y-144032000D01*
X109375500Y-138860500D02*
X108175500Y-138860500D01*
X108175500Y-137110500D02*
X109375500Y-137110500D01*
X169707000Y-107011500D02*
X170907000Y-107011500D01*
X170907000Y-108761500D02*
X169707000Y-108761500D01*
X169707000Y-104789000D02*
X170907000Y-104789000D01*
X170907000Y-106539000D02*
X169707000Y-106539000D01*
X151609500Y-146445000D02*
X152809500Y-146445000D01*
X152809500Y-148195000D02*
X151609500Y-148195000D01*
X141062000Y-112635000D02*
X139862000Y-112635000D01*
X139862000Y-110885000D02*
X141062000Y-110885000D01*
X144737000Y-110702000D02*
X142837000Y-110702000D01*
X144737000Y-111802000D02*
X142837000Y-111802000D01*
X143837000Y-111252000D02*
X143387000Y-111252000D01*
X143887000Y-111502000D02*
X143887000Y-111002000D01*
X143887000Y-111252000D02*
X143637000Y-111502000D01*
X143637000Y-111502000D02*
X143637000Y-111002000D01*
X143637000Y-111002000D02*
X143887000Y-111252000D01*
X144673500Y-112099000D02*
X142773500Y-112099000D01*
X144673500Y-113199000D02*
X142773500Y-113199000D01*
X143773500Y-112649000D02*
X143323500Y-112649000D01*
X143823500Y-112899000D02*
X143823500Y-112399000D01*
X143823500Y-112649000D02*
X143573500Y-112899000D01*
X143573500Y-112899000D02*
X143573500Y-112399000D01*
X143573500Y-112399000D02*
X143823500Y-112649000D01*
X141125500Y-114667000D02*
X139925500Y-114667000D01*
X139925500Y-112917000D02*
X141125500Y-112917000D01*
X146721214Y-145097500D02*
G75*
G03X146721214Y-145097500I-1750714J0D01*
G01*
X148195500Y-141872500D02*
X148195500Y-141897500D01*
X148195500Y-148322500D02*
X148195500Y-148297500D01*
X141745500Y-148322500D02*
X141745500Y-148297500D01*
X141745500Y-141897500D02*
X141745500Y-141872500D01*
X148195500Y-143797500D02*
X148195500Y-146397500D01*
X141745500Y-141872500D02*
X148195500Y-141872500D01*
X141745500Y-143797500D02*
X141745500Y-146397500D01*
X141745500Y-148322500D02*
X148195500Y-148322500D01*
X170907000Y-104316500D02*
X169707000Y-104316500D01*
X169707000Y-102566500D02*
X170907000Y-102566500D01*
X125031500Y-149669500D02*
X126555500Y-149669500D01*
X126936500Y-149542500D02*
X124650500Y-149542500D01*
X124396500Y-149415500D02*
X127190500Y-149415500D01*
X127444500Y-149288500D02*
X124142500Y-149288500D01*
X124015500Y-149161500D02*
X127571500Y-149161500D01*
X122491500Y-150050500D02*
X129095500Y-150050500D01*
X129095500Y-150050500D02*
X129095500Y-144208500D01*
X129095500Y-144208500D02*
X128333500Y-143446500D01*
X128333500Y-143446500D02*
X123253500Y-143446500D01*
X123253500Y-143446500D02*
X122491500Y-144208500D01*
X122491500Y-144208500D02*
X122491500Y-150050500D01*
X125793500Y-144589500D02*
X125793500Y-145351500D01*
X125412500Y-144970500D02*
X126174500Y-144970500D01*
X128841500Y-146748500D02*
G75*
G03X128841500Y-146748500I-3048000J0D01*
G01*
X147509000Y-104169000D02*
X147509000Y-104504000D01*
X155259000Y-104169000D02*
X155259000Y-104504000D01*
X155259000Y-117319000D02*
X155259000Y-116984000D01*
X147509000Y-117319000D02*
X147509000Y-116984000D01*
X147509000Y-104169000D02*
X155259000Y-104169000D01*
X147509000Y-117319000D02*
X155259000Y-117319000D01*
X147509000Y-104504000D02*
X145709000Y-104504000D01*
X150177500Y-118618000D02*
X150177500Y-123698000D01*
X150177500Y-123698000D02*
X145605500Y-123698000D01*
X145605500Y-123698000D02*
X145605500Y-118618000D01*
X145605500Y-118618000D02*
X150177500Y-118618000D01*
X148653500Y-118618000D02*
X148653500Y-119126000D01*
X148653500Y-119126000D02*
X147383500Y-119126000D01*
X147383500Y-119126000D02*
X147383500Y-118618000D01*
X113376000Y-138670000D02*
X112176000Y-138670000D01*
X112176000Y-136920000D02*
X113376000Y-136920000D01*
X131205000Y-146650000D02*
X131205000Y-145450000D01*
X132955000Y-145450000D02*
X132955000Y-146650000D01*
X173990000Y-137668000D02*
X173990000Y-136144000D01*
X173863000Y-135763000D02*
X173863000Y-138049000D01*
X173736000Y-138303000D02*
X173736000Y-135509000D01*
X173609000Y-135255000D02*
X173609000Y-138557000D01*
X173482000Y-138684000D02*
X173482000Y-135128000D01*
X174371000Y-140208000D02*
X174371000Y-133604000D01*
X174371000Y-133604000D02*
X168529000Y-133604000D01*
X168529000Y-133604000D02*
X167767000Y-134366000D01*
X167767000Y-134366000D02*
X167767000Y-139446000D01*
X167767000Y-139446000D02*
X168529000Y-140208000D01*
X168529000Y-140208000D02*
X174371000Y-140208000D01*
X168910000Y-136906000D02*
X169672000Y-136906000D01*
X169291000Y-137287000D02*
X169291000Y-136525000D01*
X174117000Y-136906000D02*
G75*
G03X174117000Y-136906000I-3048000J0D01*
G01*
X167040000Y-104986000D02*
X166895000Y-104986000D01*
X167040000Y-109136000D02*
X166895000Y-109136000D01*
X161890000Y-109136000D02*
X162035000Y-109136000D01*
X161890000Y-104986000D02*
X162035000Y-104986000D01*
X167040000Y-104986000D02*
X167040000Y-109136000D01*
X161890000Y-104986000D02*
X161890000Y-109136000D01*
X166895000Y-104986000D02*
X166895000Y-103586000D01*
X162676500Y-115828000D02*
X165476500Y-115828000D01*
X162576500Y-115828000D02*
X160676500Y-117928000D01*
X160676500Y-126928000D02*
X160676500Y-117928000D01*
X162676500Y-129028000D02*
X160676500Y-126928000D01*
X165476500Y-129028000D02*
X162676500Y-129028000D01*
X172476500Y-115828000D02*
X169576500Y-115828000D01*
X172476500Y-129028000D02*
X172476500Y-115828000D01*
X169576500Y-129028000D02*
X172476500Y-129028000D01*
X134683500Y-110680500D02*
X129603500Y-110680500D01*
X129603500Y-110680500D02*
X129603500Y-106108500D01*
X129603500Y-106108500D02*
X134683500Y-106108500D01*
X134683500Y-106108500D02*
X134683500Y-110680500D01*
X134683500Y-109156500D02*
X134175500Y-109156500D01*
X134175500Y-109156500D02*
X134175500Y-107886500D01*
X134175500Y-107886500D02*
X134683500Y-107886500D01*
X137507000Y-102926000D02*
G75*
G03X138007000Y-102426000I0J500000D01*
G01*
X137507000Y-102426000D02*
X141507000Y-102426000D01*
X137507000Y-110426000D02*
X137507000Y-102426000D01*
X141507000Y-110426000D02*
X137507000Y-110426000D01*
X141507000Y-102426000D02*
X141507000Y-110426000D01*
X108331095Y-119721380D02*
X108331095Y-120530904D01*
X108378714Y-120626142D01*
X108426333Y-120673761D01*
X108521571Y-120721380D01*
X108712047Y-120721380D01*
X108807285Y-120673761D01*
X108854904Y-120626142D01*
X108902523Y-120530904D01*
X108902523Y-119721380D01*
X109331095Y-119816619D02*
X109378714Y-119769000D01*
X109473952Y-119721380D01*
X109712047Y-119721380D01*
X109807285Y-119769000D01*
X109854904Y-119816619D01*
X109902523Y-119911857D01*
X109902523Y-120007095D01*
X109854904Y-120149952D01*
X109283476Y-120721380D01*
X109902523Y-120721380D01*
X160361333Y-104116142D02*
X160313714Y-104163761D01*
X160170857Y-104211380D01*
X160075619Y-104211380D01*
X159932761Y-104163761D01*
X159837523Y-104068523D01*
X159789904Y-103973285D01*
X159742285Y-103782809D01*
X159742285Y-103639952D01*
X159789904Y-103449476D01*
X159837523Y-103354238D01*
X159932761Y-103259000D01*
X160075619Y-103211380D01*
X160170857Y-103211380D01*
X160313714Y-103259000D01*
X160361333Y-103306619D01*
X161218476Y-103544714D02*
X161218476Y-104211380D01*
X160980380Y-103163761D02*
X160742285Y-103878047D01*
X161361333Y-103878047D01*
X172553333Y-110688380D02*
X172220000Y-110212190D01*
X171981904Y-110688380D02*
X171981904Y-109688380D01*
X172362857Y-109688380D01*
X172458095Y-109736000D01*
X172505714Y-109783619D01*
X172553333Y-109878857D01*
X172553333Y-110021714D01*
X172505714Y-110116952D01*
X172458095Y-110164571D01*
X172362857Y-110212190D01*
X171981904Y-110212190D01*
X172886666Y-109688380D02*
X173553333Y-109688380D01*
X173124761Y-110688380D01*
X112776095Y-149693380D02*
X112776095Y-150502904D01*
X112823714Y-150598142D01*
X112871333Y-150645761D01*
X112966571Y-150693380D01*
X113157047Y-150693380D01*
X113252285Y-150645761D01*
X113299904Y-150598142D01*
X113347523Y-150502904D01*
X113347523Y-149693380D01*
X114347523Y-150693380D02*
X113776095Y-150693380D01*
X114061809Y-150693380D02*
X114061809Y-149693380D01*
X113966571Y-149836238D01*
X113871333Y-149931476D01*
X113776095Y-149979095D01*
X121583142Y-144502166D02*
X121630761Y-144549785D01*
X121678380Y-144692642D01*
X121678380Y-144787880D01*
X121630761Y-144930738D01*
X121535523Y-145025976D01*
X121440285Y-145073595D01*
X121249809Y-145121214D01*
X121106952Y-145121214D01*
X120916476Y-145073595D01*
X120821238Y-145025976D01*
X120726000Y-144930738D01*
X120678380Y-144787880D01*
X120678380Y-144692642D01*
X120726000Y-144549785D01*
X120773619Y-144502166D01*
X121678380Y-143549785D02*
X121678380Y-144121214D01*
X121678380Y-143835500D02*
X120678380Y-143835500D01*
X120821238Y-143930738D01*
X120916476Y-144025976D01*
X120964095Y-144121214D01*
X107767380Y-143613095D02*
X106767380Y-143613095D01*
X106767380Y-143232142D01*
X106815000Y-143136904D01*
X106862619Y-143089285D01*
X106957857Y-143041666D01*
X107100714Y-143041666D01*
X107195952Y-143089285D01*
X107243571Y-143136904D01*
X107291190Y-143232142D01*
X107291190Y-143613095D01*
X107767380Y-142089285D02*
X107767380Y-142660714D01*
X107767380Y-142375000D02*
X106767380Y-142375000D01*
X106910238Y-142470238D01*
X107005476Y-142565476D01*
X107053095Y-142660714D01*
X109688333Y-149042380D02*
X109355000Y-148566190D01*
X109116904Y-149042380D02*
X109116904Y-148042380D01*
X109497857Y-148042380D01*
X109593095Y-148090000D01*
X109640714Y-148137619D01*
X109688333Y-148232857D01*
X109688333Y-148375714D01*
X109640714Y-148470952D01*
X109593095Y-148518571D01*
X109497857Y-148566190D01*
X109116904Y-148566190D01*
X110545476Y-148375714D02*
X110545476Y-149042380D01*
X110307380Y-147994761D02*
X110069285Y-148709047D01*
X110688333Y-148709047D01*
X119538761Y-107100619D02*
X119443523Y-107053000D01*
X119348285Y-106957761D01*
X119205428Y-106814904D01*
X119110190Y-106767285D01*
X119014952Y-106767285D01*
X119062571Y-107005380D02*
X118967333Y-106957761D01*
X118872095Y-106862523D01*
X118824476Y-106672047D01*
X118824476Y-106338714D01*
X118872095Y-106148238D01*
X118967333Y-106053000D01*
X119062571Y-106005380D01*
X119253047Y-106005380D01*
X119348285Y-106053000D01*
X119443523Y-106148238D01*
X119491142Y-106338714D01*
X119491142Y-106672047D01*
X119443523Y-106862523D01*
X119348285Y-106957761D01*
X119253047Y-107005380D01*
X119062571Y-107005380D01*
X119824476Y-106005380D02*
X120443523Y-106005380D01*
X120110190Y-106386333D01*
X120253047Y-106386333D01*
X120348285Y-106433952D01*
X120395904Y-106481571D01*
X120443523Y-106576809D01*
X120443523Y-106814904D01*
X120395904Y-106910142D01*
X120348285Y-106957761D01*
X120253047Y-107005380D01*
X119967333Y-107005380D01*
X119872095Y-106957761D01*
X119824476Y-106910142D01*
X109688333Y-143708380D02*
X109355000Y-143232190D01*
X109116904Y-143708380D02*
X109116904Y-142708380D01*
X109497857Y-142708380D01*
X109593095Y-142756000D01*
X109640714Y-142803619D01*
X109688333Y-142898857D01*
X109688333Y-143041714D01*
X109640714Y-143136952D01*
X109593095Y-143184571D01*
X109497857Y-143232190D01*
X109116904Y-143232190D01*
X110021666Y-142708380D02*
X110640714Y-142708380D01*
X110307380Y-143089333D01*
X110450238Y-143089333D01*
X110545476Y-143136952D01*
X110593095Y-143184571D01*
X110640714Y-143279809D01*
X110640714Y-143517904D01*
X110593095Y-143613142D01*
X110545476Y-143660761D01*
X110450238Y-143708380D01*
X110164523Y-143708380D01*
X110069285Y-143660761D01*
X110021666Y-143613142D01*
X108545333Y-140152380D02*
X108212000Y-139676190D01*
X107973904Y-140152380D02*
X107973904Y-139152380D01*
X108354857Y-139152380D01*
X108450095Y-139200000D01*
X108497714Y-139247619D01*
X108545333Y-139342857D01*
X108545333Y-139485714D01*
X108497714Y-139580952D01*
X108450095Y-139628571D01*
X108354857Y-139676190D01*
X107973904Y-139676190D01*
X109402476Y-139152380D02*
X109212000Y-139152380D01*
X109116761Y-139200000D01*
X109069142Y-139247619D01*
X108973904Y-139390476D01*
X108926285Y-139580952D01*
X108926285Y-139961904D01*
X108973904Y-140057142D01*
X109021523Y-140104761D01*
X109116761Y-140152380D01*
X109307238Y-140152380D01*
X109402476Y-140104761D01*
X109450095Y-140057142D01*
X109497714Y-139961904D01*
X109497714Y-139723809D01*
X109450095Y-139628571D01*
X109402476Y-139580952D01*
X109307238Y-139533333D01*
X109116761Y-139533333D01*
X109021523Y-139580952D01*
X108973904Y-139628571D01*
X108926285Y-139723809D01*
X172680333Y-108402380D02*
X172347000Y-107926190D01*
X172108904Y-108402380D02*
X172108904Y-107402380D01*
X172489857Y-107402380D01*
X172585095Y-107450000D01*
X172632714Y-107497619D01*
X172680333Y-107592857D01*
X172680333Y-107735714D01*
X172632714Y-107830952D01*
X172585095Y-107878571D01*
X172489857Y-107926190D01*
X172108904Y-107926190D01*
X173251761Y-107830952D02*
X173156523Y-107783333D01*
X173108904Y-107735714D01*
X173061285Y-107640476D01*
X173061285Y-107592857D01*
X173108904Y-107497619D01*
X173156523Y-107450000D01*
X173251761Y-107402380D01*
X173442238Y-107402380D01*
X173537476Y-107450000D01*
X173585095Y-107497619D01*
X173632714Y-107592857D01*
X173632714Y-107640476D01*
X173585095Y-107735714D01*
X173537476Y-107783333D01*
X173442238Y-107830952D01*
X173251761Y-107830952D01*
X173156523Y-107878571D01*
X173108904Y-107926190D01*
X173061285Y-108021428D01*
X173061285Y-108211904D01*
X173108904Y-108307142D01*
X173156523Y-108354761D01*
X173251761Y-108402380D01*
X173442238Y-108402380D01*
X173537476Y-108354761D01*
X173585095Y-108307142D01*
X173632714Y-108211904D01*
X173632714Y-108021428D01*
X173585095Y-107926190D01*
X173537476Y-107878571D01*
X173442238Y-107830952D01*
X172680333Y-106116380D02*
X172347000Y-105640190D01*
X172108904Y-106116380D02*
X172108904Y-105116380D01*
X172489857Y-105116380D01*
X172585095Y-105164000D01*
X172632714Y-105211619D01*
X172680333Y-105306857D01*
X172680333Y-105449714D01*
X172632714Y-105544952D01*
X172585095Y-105592571D01*
X172489857Y-105640190D01*
X172108904Y-105640190D01*
X173156523Y-106116380D02*
X173347000Y-106116380D01*
X173442238Y-106068761D01*
X173489857Y-106021142D01*
X173585095Y-105878285D01*
X173632714Y-105687809D01*
X173632714Y-105306857D01*
X173585095Y-105211619D01*
X173537476Y-105164000D01*
X173442238Y-105116380D01*
X173251761Y-105116380D01*
X173156523Y-105164000D01*
X173108904Y-105211619D01*
X173061285Y-105306857D01*
X173061285Y-105544952D01*
X173108904Y-105640190D01*
X173156523Y-105687809D01*
X173251761Y-105735428D01*
X173442238Y-105735428D01*
X173537476Y-105687809D01*
X173585095Y-105640190D01*
X173632714Y-105544952D01*
X152042833Y-149872380D02*
X151709500Y-149396190D01*
X151471404Y-149872380D02*
X151471404Y-148872380D01*
X151852357Y-148872380D01*
X151947595Y-148920000D01*
X151995214Y-148967619D01*
X152042833Y-149062857D01*
X152042833Y-149205714D01*
X151995214Y-149300952D01*
X151947595Y-149348571D01*
X151852357Y-149396190D01*
X151471404Y-149396190D01*
X152947595Y-148872380D02*
X152471404Y-148872380D01*
X152423785Y-149348571D01*
X152471404Y-149300952D01*
X152566642Y-149253333D01*
X152804738Y-149253333D01*
X152899976Y-149300952D01*
X152947595Y-149348571D01*
X152995214Y-149443809D01*
X152995214Y-149681904D01*
X152947595Y-149777142D01*
X152899976Y-149824761D01*
X152804738Y-149872380D01*
X152566642Y-149872380D01*
X152471404Y-149824761D01*
X152423785Y-149777142D01*
X137755333Y-112212380D02*
X137422000Y-111736190D01*
X137183904Y-112212380D02*
X137183904Y-111212380D01*
X137564857Y-111212380D01*
X137660095Y-111260000D01*
X137707714Y-111307619D01*
X137755333Y-111402857D01*
X137755333Y-111545714D01*
X137707714Y-111640952D01*
X137660095Y-111688571D01*
X137564857Y-111736190D01*
X137183904Y-111736190D01*
X138707714Y-112212380D02*
X138136285Y-112212380D01*
X138422000Y-112212380D02*
X138422000Y-111212380D01*
X138326761Y-111355238D01*
X138231523Y-111450476D01*
X138136285Y-111498095D01*
X143914904Y-110434380D02*
X143914904Y-109434380D01*
X144153000Y-109434380D01*
X144295857Y-109482000D01*
X144391095Y-109577238D01*
X144438714Y-109672476D01*
X144486333Y-109862952D01*
X144486333Y-110005809D01*
X144438714Y-110196285D01*
X144391095Y-110291523D01*
X144295857Y-110386761D01*
X144153000Y-110434380D01*
X143914904Y-110434380D01*
X145438714Y-110434380D02*
X144867285Y-110434380D01*
X145153000Y-110434380D02*
X145153000Y-109434380D01*
X145057761Y-109577238D01*
X144962523Y-109672476D01*
X144867285Y-109720095D01*
X142835404Y-114601380D02*
X142835404Y-113601380D01*
X143073500Y-113601380D01*
X143216357Y-113649000D01*
X143311595Y-113744238D01*
X143359214Y-113839476D01*
X143406833Y-114029952D01*
X143406833Y-114172809D01*
X143359214Y-114363285D01*
X143311595Y-114458523D01*
X143216357Y-114553761D01*
X143073500Y-114601380D01*
X142835404Y-114601380D01*
X143787785Y-113696619D02*
X143835404Y-113649000D01*
X143930642Y-113601380D01*
X144168738Y-113601380D01*
X144263976Y-113649000D01*
X144311595Y-113696619D01*
X144359214Y-113791857D01*
X144359214Y-113887095D01*
X144311595Y-114029952D01*
X143740166Y-114601380D01*
X144359214Y-114601380D01*
X137882333Y-114244380D02*
X137549000Y-113768190D01*
X137310904Y-114244380D02*
X137310904Y-113244380D01*
X137691857Y-113244380D01*
X137787095Y-113292000D01*
X137834714Y-113339619D01*
X137882333Y-113434857D01*
X137882333Y-113577714D01*
X137834714Y-113672952D01*
X137787095Y-113720571D01*
X137691857Y-113768190D01*
X137310904Y-113768190D01*
X138263285Y-113339619D02*
X138310904Y-113292000D01*
X138406142Y-113244380D01*
X138644238Y-113244380D01*
X138739476Y-113292000D01*
X138787095Y-113339619D01*
X138834714Y-113434857D01*
X138834714Y-113530095D01*
X138787095Y-113672952D01*
X138215666Y-114244380D01*
X138834714Y-114244380D01*
X143637166Y-141452261D02*
X143780023Y-141499880D01*
X144018119Y-141499880D01*
X144113357Y-141452261D01*
X144160976Y-141404642D01*
X144208595Y-141309404D01*
X144208595Y-141214166D01*
X144160976Y-141118928D01*
X144113357Y-141071309D01*
X144018119Y-141023690D01*
X143827642Y-140976071D01*
X143732404Y-140928452D01*
X143684785Y-140880833D01*
X143637166Y-140785595D01*
X143637166Y-140690357D01*
X143684785Y-140595119D01*
X143732404Y-140547500D01*
X143827642Y-140499880D01*
X144065738Y-140499880D01*
X144208595Y-140547500D01*
X144541928Y-140499880D02*
X144780023Y-141499880D01*
X144970500Y-140785595D01*
X145160976Y-141499880D01*
X145399071Y-140499880D01*
X146303833Y-141499880D02*
X145732404Y-141499880D01*
X146018119Y-141499880D02*
X146018119Y-140499880D01*
X145922880Y-140642738D01*
X145827642Y-140737976D01*
X145732404Y-140785595D01*
X172807333Y-103862142D02*
X172759714Y-103909761D01*
X172616857Y-103957380D01*
X172521619Y-103957380D01*
X172378761Y-103909761D01*
X172283523Y-103814523D01*
X172235904Y-103719285D01*
X172188285Y-103528809D01*
X172188285Y-103385952D01*
X172235904Y-103195476D01*
X172283523Y-103100238D01*
X172378761Y-103005000D01*
X172521619Y-102957380D01*
X172616857Y-102957380D01*
X172759714Y-103005000D01*
X172807333Y-103052619D01*
X173664476Y-102957380D02*
X173474000Y-102957380D01*
X173378761Y-103005000D01*
X173331142Y-103052619D01*
X173235904Y-103195476D01*
X173188285Y-103385952D01*
X173188285Y-103766904D01*
X173235904Y-103862142D01*
X173283523Y-103909761D01*
X173378761Y-103957380D01*
X173569238Y-103957380D01*
X173664476Y-103909761D01*
X173712095Y-103862142D01*
X173759714Y-103766904D01*
X173759714Y-103528809D01*
X173712095Y-103433571D01*
X173664476Y-103385952D01*
X173569238Y-103338333D01*
X173378761Y-103338333D01*
X173283523Y-103385952D01*
X173235904Y-103433571D01*
X173188285Y-103528809D01*
X127722333Y-142851142D02*
X127674714Y-142898761D01*
X127531857Y-142946380D01*
X127436619Y-142946380D01*
X127293761Y-142898761D01*
X127198523Y-142803523D01*
X127150904Y-142708285D01*
X127103285Y-142517809D01*
X127103285Y-142374952D01*
X127150904Y-142184476D01*
X127198523Y-142089238D01*
X127293761Y-141994000D01*
X127436619Y-141946380D01*
X127531857Y-141946380D01*
X127674714Y-141994000D01*
X127722333Y-142041619D01*
X128103285Y-142041619D02*
X128150904Y-141994000D01*
X128246142Y-141946380D01*
X128484238Y-141946380D01*
X128579476Y-141994000D01*
X128627095Y-142041619D01*
X128674714Y-142136857D01*
X128674714Y-142232095D01*
X128627095Y-142374952D01*
X128055666Y-142946380D01*
X128674714Y-142946380D01*
X150407809Y-103696380D02*
X150407809Y-102696380D01*
X151455428Y-103601142D02*
X151407809Y-103648761D01*
X151264952Y-103696380D01*
X151169714Y-103696380D01*
X151026857Y-103648761D01*
X150931619Y-103553523D01*
X150884000Y-103458285D01*
X150836380Y-103267809D01*
X150836380Y-103124952D01*
X150884000Y-102934476D01*
X150931619Y-102839238D01*
X151026857Y-102744000D01*
X151169714Y-102696380D01*
X151264952Y-102696380D01*
X151407809Y-102744000D01*
X151455428Y-102791619D01*
X152407809Y-103696380D02*
X151836380Y-103696380D01*
X152122095Y-103696380D02*
X152122095Y-102696380D01*
X152026857Y-102839238D01*
X151931619Y-102934476D01*
X151836380Y-102982095D01*
X148875761Y-125261619D02*
X148780523Y-125214000D01*
X148685285Y-125118761D01*
X148542428Y-124975904D01*
X148447190Y-124928285D01*
X148351952Y-124928285D01*
X148399571Y-125166380D02*
X148304333Y-125118761D01*
X148209095Y-125023523D01*
X148161476Y-124833047D01*
X148161476Y-124499714D01*
X148209095Y-124309238D01*
X148304333Y-124214000D01*
X148399571Y-124166380D01*
X148590047Y-124166380D01*
X148685285Y-124214000D01*
X148780523Y-124309238D01*
X148828142Y-124499714D01*
X148828142Y-124833047D01*
X148780523Y-125023523D01*
X148685285Y-125118761D01*
X148590047Y-125166380D01*
X148399571Y-125166380D01*
X149780523Y-125166380D02*
X149209095Y-125166380D01*
X149494809Y-125166380D02*
X149494809Y-124166380D01*
X149399571Y-124309238D01*
X149304333Y-124404476D01*
X149209095Y-124452095D01*
X112355333Y-139930142D02*
X112307714Y-139977761D01*
X112164857Y-140025380D01*
X112069619Y-140025380D01*
X111926761Y-139977761D01*
X111831523Y-139882523D01*
X111783904Y-139787285D01*
X111736285Y-139596809D01*
X111736285Y-139453952D01*
X111783904Y-139263476D01*
X111831523Y-139168238D01*
X111926761Y-139073000D01*
X112069619Y-139025380D01*
X112164857Y-139025380D01*
X112307714Y-139073000D01*
X112355333Y-139120619D01*
X113260095Y-139025380D02*
X112783904Y-139025380D01*
X112736285Y-139501571D01*
X112783904Y-139453952D01*
X112879142Y-139406333D01*
X113117238Y-139406333D01*
X113212476Y-139453952D01*
X113260095Y-139501571D01*
X113307714Y-139596809D01*
X113307714Y-139834904D01*
X113260095Y-139930142D01*
X113212476Y-139977761D01*
X113117238Y-140025380D01*
X112879142Y-140025380D01*
X112783904Y-139977761D01*
X112736285Y-139930142D01*
X134537142Y-146216666D02*
X134584761Y-146264285D01*
X134632380Y-146407142D01*
X134632380Y-146502380D01*
X134584761Y-146645238D01*
X134489523Y-146740476D01*
X134394285Y-146788095D01*
X134203809Y-146835714D01*
X134060952Y-146835714D01*
X133870476Y-146788095D01*
X133775238Y-146740476D01*
X133680000Y-146645238D01*
X133632380Y-146502380D01*
X133632380Y-146407142D01*
X133680000Y-146264285D01*
X133727619Y-146216666D01*
X133632380Y-145883333D02*
X133632380Y-145264285D01*
X134013333Y-145597619D01*
X134013333Y-145454761D01*
X134060952Y-145359523D01*
X134108571Y-145311904D01*
X134203809Y-145264285D01*
X134441904Y-145264285D01*
X134537142Y-145311904D01*
X134584761Y-145359523D01*
X134632380Y-145454761D01*
X134632380Y-145740476D01*
X134584761Y-145835714D01*
X134537142Y-145883333D01*
X170902333Y-141200142D02*
X170854714Y-141247761D01*
X170711857Y-141295380D01*
X170616619Y-141295380D01*
X170473761Y-141247761D01*
X170378523Y-141152523D01*
X170330904Y-141057285D01*
X170283285Y-140866809D01*
X170283285Y-140723952D01*
X170330904Y-140533476D01*
X170378523Y-140438238D01*
X170473761Y-140343000D01*
X170616619Y-140295380D01*
X170711857Y-140295380D01*
X170854714Y-140343000D01*
X170902333Y-140390619D01*
X171235666Y-140295380D02*
X171902333Y-140295380D01*
X171473761Y-141295380D01*
X167417380Y-107822904D02*
X168226904Y-107822904D01*
X168322142Y-107775285D01*
X168369761Y-107727666D01*
X168417380Y-107632428D01*
X168417380Y-107441952D01*
X168369761Y-107346714D01*
X168322142Y-107299095D01*
X168226904Y-107251476D01*
X167417380Y-107251476D01*
X167417380Y-106870523D02*
X167417380Y-106251476D01*
X167798333Y-106584809D01*
X167798333Y-106441952D01*
X167845952Y-106346714D01*
X167893571Y-106299095D01*
X167988809Y-106251476D01*
X168226904Y-106251476D01*
X168322142Y-106299095D01*
X168369761Y-106346714D01*
X168417380Y-106441952D01*
X168417380Y-106727666D01*
X168369761Y-106822904D01*
X168322142Y-106870523D01*
X159555071Y-123213714D02*
X159602690Y-123070857D01*
X159650309Y-123023238D01*
X159745547Y-122975619D01*
X159888404Y-122975619D01*
X159983642Y-123023238D01*
X160031261Y-123070857D01*
X160078880Y-123166095D01*
X160078880Y-123547047D01*
X159078880Y-123547047D01*
X159078880Y-123213714D01*
X159126500Y-123118476D01*
X159174119Y-123070857D01*
X159269357Y-123023238D01*
X159364595Y-123023238D01*
X159459833Y-123070857D01*
X159507452Y-123118476D01*
X159555071Y-123213714D01*
X159555071Y-123547047D01*
X159078880Y-122689904D02*
X159078880Y-122118476D01*
X160078880Y-122404190D02*
X159078880Y-122404190D01*
X160078880Y-121261333D02*
X160078880Y-121832761D01*
X160078880Y-121547047D02*
X159078880Y-121547047D01*
X159221738Y-121642285D01*
X159316976Y-121737523D01*
X159364595Y-121832761D01*
X130333761Y-113831619D02*
X130238523Y-113784000D01*
X130143285Y-113688761D01*
X130000428Y-113545904D01*
X129905190Y-113498285D01*
X129809952Y-113498285D01*
X129857571Y-113736380D02*
X129762333Y-113688761D01*
X129667095Y-113593523D01*
X129619476Y-113403047D01*
X129619476Y-113069714D01*
X129667095Y-112879238D01*
X129762333Y-112784000D01*
X129857571Y-112736380D01*
X130048047Y-112736380D01*
X130143285Y-112784000D01*
X130238523Y-112879238D01*
X130286142Y-113069714D01*
X130286142Y-113403047D01*
X130238523Y-113593523D01*
X130143285Y-113688761D01*
X130048047Y-113736380D01*
X129857571Y-113736380D01*
X130667095Y-112831619D02*
X130714714Y-112784000D01*
X130809952Y-112736380D01*
X131048047Y-112736380D01*
X131143285Y-112784000D01*
X131190904Y-112831619D01*
X131238523Y-112926857D01*
X131238523Y-113022095D01*
X131190904Y-113164952D01*
X130619476Y-113736380D01*
X131238523Y-113736380D01*
X145105380Y-104116095D02*
X144105380Y-104116095D01*
X144105380Y-103735142D01*
X144153000Y-103639904D01*
X144200619Y-103592285D01*
X144295857Y-103544666D01*
X144438714Y-103544666D01*
X144533952Y-103592285D01*
X144581571Y-103639904D01*
X144629190Y-103735142D01*
X144629190Y-104116095D01*
X144200619Y-103163714D02*
X144153000Y-103116095D01*
X144105380Y-103020857D01*
X144105380Y-102782761D01*
X144153000Y-102687523D01*
X144200619Y-102639904D01*
X144295857Y-102592285D01*
X144391095Y-102592285D01*
X144533952Y-102639904D01*
X145105380Y-103211333D01*
X145105380Y-102592285D01*
M02*
